<?xml version="1.0" encoding="utf-8" standalone="no"?>
<!DOCTYPE svg PUBLIC "-//W3C//DTD SVG 1.1//EN"
  "http://www.w3.org/Graphics/SVG/1.1/DTD/svg11.dtd">
<!-- Created with matplotlib (https://matplotlib.org/) -->
<svg height="576pt" version="1.1" viewBox="0 0 576 576" width="576pt" xmlns="http://www.w3.org/2000/svg" xmlns:xlink="http://www.w3.org/1999/xlink">
 <defs>
  <style type="text/css">
*{stroke-linecap:butt;stroke-linejoin:round;}
  </style>
 </defs>
 <g id="figure_1">
  <g id="patch_1">
   <path d="M 0 576 
L 576 576 
L 576 0 
L 0 0 
z
" style="fill:#ffffff;"/>
  </g>
  <g id="axes_1">
   <g id="patch_2">
    <path d="M 71.82225 512.784 
L 544.52 512.784 
L 544.52 42.8017 
L 71.82225 42.8017 
z
" style="fill:#ffffff;"/>
   </g>
   <g id="PathCollection_1">
    <defs>
     <path d="M -3 3 
L 3 -3 
M -3 -3 
L 3 3 
" id="ma660f656d0" style="stroke:#0000ff;stroke-width:1.5;"/>
    </defs>
    <g clip-path="url(#pfc30456e81)">
     <use style="fill:#0000ff;stroke:#0000ff;stroke-width:1.5;" x="298.164334" xlink:href="#ma660f656d0" y="247.71666"/>
     <use style="fill:#0000ff;stroke:#0000ff;stroke-width:1.5;" x="272.072289" xlink:href="#ma660f656d0" y="291.566612"/>
     <use style="fill:#0000ff;stroke:#0000ff;stroke-width:1.5;" x="300.817638" xlink:href="#ma660f656d0" y="284.955088"/>
     <use style="fill:#0000ff;stroke:#0000ff;stroke-width:1.5;" x="293.755529" xlink:href="#ma660f656d0" y="279.226293"/>
     <use style="fill:#0000ff;stroke:#0000ff;stroke-width:1.5;" x="283.132026" xlink:href="#ma660f656d0" y="269.91127"/>
     <use style="fill:#0000ff;stroke:#0000ff;stroke-width:1.5;" x="292.12602" xlink:href="#ma660f656d0" y="257.101292"/>
     <use style="fill:#0000ff;stroke:#0000ff;stroke-width:1.5;" x="287.374388" xlink:href="#ma660f656d0" y="284.197557"/>
     <use style="fill:#0000ff;stroke:#0000ff;stroke-width:1.5;" x="272.741336" xlink:href="#ma660f656d0" y="292.640592"/>
     <use style="fill:#0000ff;stroke:#0000ff;stroke-width:1.5;" x="303.390368" xlink:href="#ma660f656d0" y="278.83157"/>
     <use style="fill:#0000ff;stroke:#0000ff;stroke-width:1.5;" x="270.72236" xlink:href="#ma660f656d0" y="265.79098"/>
     <use style="fill:#0000ff;stroke:#0000ff;stroke-width:1.5;" x="313.053484" xlink:href="#ma660f656d0" y="234.125325"/>
     <use style="fill:#0000ff;stroke:#0000ff;stroke-width:1.5;" x="305.290972" xlink:href="#ma660f656d0" y="345.209205"/>
     <use style="fill:#0000ff;stroke:#0000ff;stroke-width:1.5;" x="316.14322" xlink:href="#ma660f656d0" y="289.245144"/>
     <use style="fill:#0000ff;stroke:#0000ff;stroke-width:1.5;" x="280.705428" xlink:href="#ma660f656d0" y="302.154877"/>
     <use style="fill:#0000ff;stroke:#0000ff;stroke-width:1.5;" x="345.029203" xlink:href="#ma660f656d0" y="253.842224"/>
     <use style="fill:#0000ff;stroke:#0000ff;stroke-width:1.5;" x="314.847233" xlink:href="#ma660f656d0" y="260.247721"/>
     <use style="fill:#0000ff;stroke:#0000ff;stroke-width:1.5;" x="290.100321" xlink:href="#ma660f656d0" y="321.950908"/>
     <use style="fill:#0000ff;stroke:#0000ff;stroke-width:1.5;" x="302.133742" xlink:href="#ma660f656d0" y="300.106993"/>
     <use style="fill:#0000ff;stroke:#0000ff;stroke-width:1.5;" x="292.085834" xlink:href="#ma660f656d0" y="260.730286"/>
     <use style="fill:#0000ff;stroke:#0000ff;stroke-width:1.5;" x="310.951926" xlink:href="#ma660f656d0" y="252.675962"/>
     <use style="fill:#0000ff;stroke:#0000ff;stroke-width:1.5;" x="280.415906" xlink:href="#ma660f656d0" y="214.220689"/>
     <use style="fill:#0000ff;stroke:#0000ff;stroke-width:1.5;" x="300.257701" xlink:href="#ma660f656d0" y="260.094199"/>
     <use style="fill:#0000ff;stroke:#0000ff;stroke-width:1.5;" x="297.779786" xlink:href="#ma660f656d0" y="278.956114"/>
     <use style="fill:#0000ff;stroke:#0000ff;stroke-width:1.5;" x="320.637387" xlink:href="#ma660f656d0" y="207.874334"/>
     <use style="fill:#0000ff;stroke:#0000ff;stroke-width:1.5;" x="330.769842" xlink:href="#ma660f656d0" y="266.234494"/>
     <use style="fill:#0000ff;stroke:#0000ff;stroke-width:1.5;" x="262.895258" xlink:href="#ma660f656d0" y="361.008863"/>
     <use style="fill:#0000ff;stroke:#0000ff;stroke-width:1.5;" x="331.63026" xlink:href="#ma660f656d0" y="260.597101"/>
     <use style="fill:#0000ff;stroke:#0000ff;stroke-width:1.5;" x="272.723299" xlink:href="#ma660f656d0" y="271.689761"/>
     <use style="fill:#0000ff;stroke:#0000ff;stroke-width:1.5;" x="280.712113" xlink:href="#ma660f656d0" y="241.629161"/>
     <use style="fill:#0000ff;stroke:#0000ff;stroke-width:1.5;" x="315.039063" xlink:href="#ma660f656d0" y="267.510668"/>
     <use style="fill:#0000ff;stroke:#0000ff;stroke-width:1.5;" x="292.541964" xlink:href="#ma660f656d0" y="285.82891"/>
     <use style="fill:#0000ff;stroke:#0000ff;stroke-width:1.5;" x="323.937304" xlink:href="#ma660f656d0" y="296.346174"/>
     <use style="fill:#0000ff;stroke:#0000ff;stroke-width:1.5;" x="302.740914" xlink:href="#ma660f656d0" y="270.678815"/>
     <use style="fill:#0000ff;stroke:#0000ff;stroke-width:1.5;" x="341.745031" xlink:href="#ma660f656d0" y="303.656788"/>
     <use style="fill:#0000ff;stroke:#0000ff;stroke-width:1.5;" x="322.360279" xlink:href="#ma660f656d0" y="285.409216"/>
     <use style="fill:#0000ff;stroke:#0000ff;stroke-width:1.5;" x="172.347356" xlink:href="#ma660f656d0" y="461.114598"/>
     <use style="fill:#0000ff;stroke:#0000ff;stroke-width:1.5;" x="334.06733" xlink:href="#ma660f656d0" y="243.014622"/>
     <use style="fill:#0000ff;stroke:#0000ff;stroke-width:1.5;" x="282.710254" xlink:href="#ma660f656d0" y="306.87478"/>
     <use style="fill:#0000ff;stroke:#0000ff;stroke-width:1.5;" x="290.145294" xlink:href="#ma660f656d0" y="278.90931"/>
     <use style="fill:#0000ff;stroke:#0000ff;stroke-width:1.5;" x="292.470299" xlink:href="#ma660f656d0" y="252.408303"/>
     <use style="fill:#0000ff;stroke:#0000ff;stroke-width:1.5;" x="266.555836" xlink:href="#ma660f656d0" y="232.086232"/>
     <use style="fill:#0000ff;stroke:#0000ff;stroke-width:1.5;" x="311.136156" xlink:href="#ma660f656d0" y="275.501921"/>
     <use style="fill:#0000ff;stroke:#0000ff;stroke-width:1.5;" x="289.760117" xlink:href="#ma660f656d0" y="309.364671"/>
     <use style="fill:#0000ff;stroke:#0000ff;stroke-width:1.5;" x="329.85627" xlink:href="#ma660f656d0" y="246.823226"/>
     <use style="fill:#0000ff;stroke:#0000ff;stroke-width:1.5;" x="297.34244" xlink:href="#ma660f656d0" y="281.281886"/>
     <use style="fill:#0000ff;stroke:#0000ff;stroke-width:1.5;" x="347.076036" xlink:href="#ma660f656d0" y="253.273375"/>
     <use style="fill:#0000ff;stroke:#0000ff;stroke-width:1.5;" x="299.483855" xlink:href="#ma660f656d0" y="283.129135"/>
     <use style="fill:#0000ff;stroke:#0000ff;stroke-width:1.5;" x="330.562758" xlink:href="#ma660f656d0" y="272.339625"/>
     <use style="fill:#0000ff;stroke:#0000ff;stroke-width:1.5;" x="340.960758" xlink:href="#ma660f656d0" y="265.718446"/>
     <use style="fill:#0000ff;stroke:#0000ff;stroke-width:1.5;" x="262.337666" xlink:href="#ma660f656d0" y="290.959549"/>
     <use style="fill:#0000ff;stroke:#0000ff;stroke-width:1.5;" x="292.68294" xlink:href="#ma660f656d0" y="235.058737"/>
     <use style="fill:#0000ff;stroke:#0000ff;stroke-width:1.5;" x="328.356305" xlink:href="#ma660f656d0" y="262.003057"/>
     <use style="fill:#0000ff;stroke:#0000ff;stroke-width:1.5;" x="337.188157" xlink:href="#ma660f656d0" y="232.615599"/>
     <use style="fill:#0000ff;stroke:#0000ff;stroke-width:1.5;" x="306.520773" xlink:href="#ma660f656d0" y="247.661801"/>
     <use style="fill:#0000ff;stroke:#0000ff;stroke-width:1.5;" x="298.014176" xlink:href="#ma660f656d0" y="275.476548"/>
     <use style="fill:#0000ff;stroke:#0000ff;stroke-width:1.5;" x="289.188906" xlink:href="#ma660f656d0" y="292.692349"/>
     <use style="fill:#0000ff;stroke:#0000ff;stroke-width:1.5;" x="293.354057" xlink:href="#ma660f656d0" y="267.720319"/>
     <use style="fill:#0000ff;stroke:#0000ff;stroke-width:1.5;" x="234.133535" xlink:href="#ma660f656d0" y="284.614521"/>
     <use style="fill:#0000ff;stroke:#0000ff;stroke-width:1.5;" x="331.699147" xlink:href="#ma660f656d0" y="301.582848"/>
     <use style="fill:#0000ff;stroke:#0000ff;stroke-width:1.5;" x="305.654117" xlink:href="#ma660f656d0" y="263.214022"/>
     <use style="fill:#0000ff;stroke:#0000ff;stroke-width:1.5;" x="302.09975" xlink:href="#ma660f656d0" y="332.40282"/>
     <use style="fill:#0000ff;stroke:#0000ff;stroke-width:1.5;" x="294.921139" xlink:href="#ma660f656d0" y="233.765878"/>
     <use style="fill:#0000ff;stroke:#0000ff;stroke-width:1.5;" x="323.098748" xlink:href="#ma660f656d0" y="273.927023"/>
     <use style="fill:#0000ff;stroke:#0000ff;stroke-width:1.5;" x="281.167768" xlink:href="#ma660f656d0" y="240.020022"/>
     <use style="fill:#0000ff;stroke:#0000ff;stroke-width:1.5;" x="352.990388" xlink:href="#ma660f656d0" y="348.578756"/>
     <use style="fill:#0000ff;stroke:#0000ff;stroke-width:1.5;" x="277.459024" xlink:href="#ma660f656d0" y="282.312684"/>
     <use style="fill:#0000ff;stroke:#0000ff;stroke-width:1.5;" x="298.964726" xlink:href="#ma660f656d0" y="225.893809"/>
     <use style="fill:#0000ff;stroke:#0000ff;stroke-width:1.5;" x="296.231389" xlink:href="#ma660f656d0" y="302.098294"/>
     <use style="fill:#0000ff;stroke:#0000ff;stroke-width:1.5;" x="332.75572" xlink:href="#ma660f656d0" y="231.298546"/>
     <use style="fill:#0000ff;stroke:#0000ff;stroke-width:1.5;" x="331.83314" xlink:href="#ma660f656d0" y="245.651454"/>
     <use style="fill:#0000ff;stroke:#0000ff;stroke-width:1.5;" x="294.116624" xlink:href="#ma660f656d0" y="280.162695"/>
     <use style="fill:#0000ff;stroke:#0000ff;stroke-width:1.5;" x="295.354071" xlink:href="#ma660f656d0" y="275.920938"/>
     <use style="fill:#0000ff;stroke:#0000ff;stroke-width:1.5;" x="299.599448" xlink:href="#ma660f656d0" y="267.395813"/>
     <use style="fill:#0000ff;stroke:#0000ff;stroke-width:1.5;" x="303.945632" xlink:href="#ma660f656d0" y="255.119203"/>
     <use style="fill:#0000ff;stroke:#0000ff;stroke-width:1.5;" x="297.658441" xlink:href="#ma660f656d0" y="232.821963"/>
     <use style="fill:#0000ff;stroke:#0000ff;stroke-width:1.5;" x="323.663094" xlink:href="#ma660f656d0" y="223.157201"/>
     <use style="fill:#0000ff;stroke:#0000ff;stroke-width:1.5;" x="279.734604" xlink:href="#ma660f656d0" y="280.251276"/>
     <use style="fill:#0000ff;stroke:#0000ff;stroke-width:1.5;" x="337.063764" xlink:href="#ma660f656d0" y="248.003397"/>
     <use style="fill:#0000ff;stroke:#0000ff;stroke-width:1.5;" x="336.403722" xlink:href="#ma660f656d0" y="261.91982"/>
     <use style="fill:#0000ff;stroke:#0000ff;stroke-width:1.5;" x="318.563475" xlink:href="#ma660f656d0" y="265.062442"/>
     <use style="fill:#0000ff;stroke:#0000ff;stroke-width:1.5;" x="352.441661" xlink:href="#ma660f656d0" y="255.203544"/>
     <use style="fill:#0000ff;stroke:#0000ff;stroke-width:1.5;" x="321.745864" xlink:href="#ma660f656d0" y="228.607672"/>
     <use style="fill:#0000ff;stroke:#0000ff;stroke-width:1.5;" x="330.845023" xlink:href="#ma660f656d0" y="287.375436"/>
     <use style="fill:#0000ff;stroke:#0000ff;stroke-width:1.5;" x="255.93332" xlink:href="#ma660f656d0" y="258.085556"/>
     <use style="fill:#0000ff;stroke:#0000ff;stroke-width:1.5;" x="296.816759" xlink:href="#ma660f656d0" y="265.186846"/>
     <use style="fill:#0000ff;stroke:#0000ff;stroke-width:1.5;" x="341.585538" xlink:href="#ma660f656d0" y="229.260096"/>
     <use style="fill:#0000ff;stroke:#0000ff;stroke-width:1.5;" x="367.786431" xlink:href="#ma660f656d0" y="234.048131"/>
     <use style="fill:#0000ff;stroke:#0000ff;stroke-width:1.5;" x="259.298763" xlink:href="#ma660f656d0" y="223.014215"/>
     <use style="fill:#0000ff;stroke:#0000ff;stroke-width:1.5;" x="266.308062" xlink:href="#ma660f656d0" y="260.382678"/>
     <use style="fill:#0000ff;stroke:#0000ff;stroke-width:1.5;" x="323.727262" xlink:href="#ma660f656d0" y="288.175457"/>
     <use style="fill:#0000ff;stroke:#0000ff;stroke-width:1.5;" x="327.682531" xlink:href="#ma660f656d0" y="247.815875"/>
     <use style="fill:#0000ff;stroke:#0000ff;stroke-width:1.5;" x="333.956542" xlink:href="#ma660f656d0" y="306.845784"/>
     <use style="fill:#0000ff;stroke:#0000ff;stroke-width:1.5;" x="331.171281" xlink:href="#ma660f656d0" y="269.767372"/>
     <use style="fill:#0000ff;stroke:#0000ff;stroke-width:1.5;" x="281.649089" xlink:href="#ma660f656d0" y="238.153962"/>
     <use style="fill:#0000ff;stroke:#0000ff;stroke-width:1.5;" x="310.349967" xlink:href="#ma660f656d0" y="229.9115"/>
     <use style="fill:#0000ff;stroke:#0000ff;stroke-width:1.5;" x="292.662308" xlink:href="#ma660f656d0" y="305.693129"/>
     <use style="fill:#0000ff;stroke:#0000ff;stroke-width:1.5;" x="356.134356" xlink:href="#ma660f656d0" y="249.330923"/>
     <use style="fill:#0000ff;stroke:#0000ff;stroke-width:1.5;" x="280.200903" xlink:href="#ma660f656d0" y="257.940851"/>
     <use style="fill:#0000ff;stroke:#0000ff;stroke-width:1.5;" x="297.71365" xlink:href="#ma660f656d0" y="261.257991"/>
     <use style="fill:#0000ff;stroke:#0000ff;stroke-width:1.5;" x="303.303007" xlink:href="#ma660f656d0" y="271.70924"/>
     <use style="fill:#0000ff;stroke:#0000ff;stroke-width:1.5;" x="289.969745" xlink:href="#ma660f656d0" y="280.277979"/>
     <use style="fill:#0000ff;stroke:#0000ff;stroke-width:1.5;" x="267.475795" xlink:href="#ma660f656d0" y="301.047086"/>
     <use style="fill:#0000ff;stroke:#0000ff;stroke-width:1.5;" x="303.529459" xlink:href="#ma660f656d0" y="290.820528"/>
     <use style="fill:#0000ff;stroke:#0000ff;stroke-width:1.5;" x="349.835571" xlink:href="#ma660f656d0" y="283.537267"/>
     <use style="fill:#0000ff;stroke:#0000ff;stroke-width:1.5;" x="303.923234" xlink:href="#ma660f656d0" y="244.724802"/>
     <use style="fill:#0000ff;stroke:#0000ff;stroke-width:1.5;" x="283.434105" xlink:href="#ma660f656d0" y="255.22333"/>
     <use style="fill:#0000ff;stroke:#0000ff;stroke-width:1.5;" x="338.649262" xlink:href="#ma660f656d0" y="247.193553"/>
     <use style="fill:#0000ff;stroke:#0000ff;stroke-width:1.5;" x="288.71777" xlink:href="#ma660f656d0" y="273.226377"/>
     <use style="fill:#0000ff;stroke:#0000ff;stroke-width:1.5;" x="289.825716" xlink:href="#ma660f656d0" y="289.04848"/>
     <use style="fill:#0000ff;stroke:#0000ff;stroke-width:1.5;" x="337.483345" xlink:href="#ma660f656d0" y="279.303073"/>
     <use style="fill:#0000ff;stroke:#0000ff;stroke-width:1.5;" x="304.808367" xlink:href="#ma660f656d0" y="265.489242"/>
     <use style="fill:#0000ff;stroke:#0000ff;stroke-width:1.5;" x="303.881333" xlink:href="#ma660f656d0" y="296.522826"/>
     <use style="fill:#0000ff;stroke:#0000ff;stroke-width:1.5;" x="309.946105" xlink:href="#ma660f656d0" y="262.579223"/>
     <use style="fill:#0000ff;stroke:#0000ff;stroke-width:1.5;" x="296.335992" xlink:href="#ma660f656d0" y="307.480256"/>
     <use style="fill:#0000ff;stroke:#0000ff;stroke-width:1.5;" x="294.137498" xlink:href="#ma660f656d0" y="301.218596"/>
     <use style="fill:#0000ff;stroke:#0000ff;stroke-width:1.5;" x="303.222444" xlink:href="#ma660f656d0" y="318.995064"/>
     <use style="fill:#0000ff;stroke:#0000ff;stroke-width:1.5;" x="294.76241" xlink:href="#ma660f656d0" y="248.749016"/>
     <use style="fill:#0000ff;stroke:#0000ff;stroke-width:1.5;" x="289.233442" xlink:href="#ma660f656d0" y="245.592097"/>
     <use style="fill:#0000ff;stroke:#0000ff;stroke-width:1.5;" x="297.834218" xlink:href="#ma660f656d0" y="300.714005"/>
     <use style="fill:#0000ff;stroke:#0000ff;stroke-width:1.5;" x="326.67592" xlink:href="#ma660f656d0" y="250.849152"/>
     <use style="fill:#0000ff;stroke:#0000ff;stroke-width:1.5;" x="265.167787" xlink:href="#ma660f656d0" y="256.733161"/>
     <use style="fill:#0000ff;stroke:#0000ff;stroke-width:1.5;" x="306.145634" xlink:href="#ma660f656d0" y="281.50527"/>
     <use style="fill:#0000ff;stroke:#0000ff;stroke-width:1.5;" x="283.336814" xlink:href="#ma660f656d0" y="285.549632"/>
     <use style="fill:#0000ff;stroke:#0000ff;stroke-width:1.5;" x="309.539254" xlink:href="#ma660f656d0" y="269.122076"/>
     <use style="fill:#0000ff;stroke:#0000ff;stroke-width:1.5;" x="302.469672" xlink:href="#ma660f656d0" y="288.284445"/>
     <use style="fill:#0000ff;stroke:#0000ff;stroke-width:1.5;" x="336.096165" xlink:href="#ma660f656d0" y="273.867068"/>
     <use style="fill:#0000ff;stroke:#0000ff;stroke-width:1.5;" x="305.230163" xlink:href="#ma660f656d0" y="268.004452"/>
     <use style="fill:#0000ff;stroke:#0000ff;stroke-width:1.5;" x="317.420202" xlink:href="#ma660f656d0" y="276.922582"/>
     <use style="fill:#0000ff;stroke:#0000ff;stroke-width:1.5;" x="300.503537" xlink:href="#ma660f656d0" y="292.247364"/>
     <use style="fill:#0000ff;stroke:#0000ff;stroke-width:1.5;" x="336.204736" xlink:href="#ma660f656d0" y="276.607692"/>
     <use style="fill:#0000ff;stroke:#0000ff;stroke-width:1.5;" x="316.110297" xlink:href="#ma660f656d0" y="236.492501"/>
     <use style="fill:#0000ff;stroke:#0000ff;stroke-width:1.5;" x="268.135545" xlink:href="#ma660f656d0" y="301.720202"/>
     <use style="fill:#0000ff;stroke:#0000ff;stroke-width:1.5;" x="291.634224" xlink:href="#ma660f656d0" y="262.699472"/>
     <use style="fill:#0000ff;stroke:#0000ff;stroke-width:1.5;" x="283.563863" xlink:href="#ma660f656d0" y="205.188588"/>
     <use style="fill:#0000ff;stroke:#0000ff;stroke-width:1.5;" x="364.876217" xlink:href="#ma660f656d0" y="227.524587"/>
     <use style="fill:#0000ff;stroke:#0000ff;stroke-width:1.5;" x="268.733686" xlink:href="#ma660f656d0" y="270.806206"/>
     <use style="fill:#0000ff;stroke:#0000ff;stroke-width:1.5;" x="315.971155" xlink:href="#ma660f656d0" y="302.333665"/>
     <use style="fill:#0000ff;stroke:#0000ff;stroke-width:1.5;" x="334.949411" xlink:href="#ma660f656d0" y="306.009596"/>
     <use style="fill:#0000ff;stroke:#0000ff;stroke-width:1.5;" x="309.866074" xlink:href="#ma660f656d0" y="247.983815"/>
     <use style="fill:#0000ff;stroke:#0000ff;stroke-width:1.5;" x="366.608597" xlink:href="#ma660f656d0" y="292.991895"/>
     <use style="fill:#0000ff;stroke:#0000ff;stroke-width:1.5;" x="287.413944" xlink:href="#ma660f656d0" y="264.663195"/>
     <use style="fill:#0000ff;stroke:#0000ff;stroke-width:1.5;" x="278.223911" xlink:href="#ma660f656d0" y="293.954206"/>
     <use style="fill:#0000ff;stroke:#0000ff;stroke-width:1.5;" x="274.516588" xlink:href="#ma660f656d0" y="296.11031"/>
     <use style="fill:#0000ff;stroke:#0000ff;stroke-width:1.5;" x="285.893482" xlink:href="#ma660f656d0" y="277.352263"/>
     <use style="fill:#0000ff;stroke:#0000ff;stroke-width:1.5;" x="295.207755" xlink:href="#ma660f656d0" y="272.521804"/>
     <use style="fill:#0000ff;stroke:#0000ff;stroke-width:1.5;" x="338.010733" xlink:href="#ma660f656d0" y="289.363547"/>
     <use style="fill:#0000ff;stroke:#0000ff;stroke-width:1.5;" x="291.025898" xlink:href="#ma660f656d0" y="252.986393"/>
     <use style="fill:#0000ff;stroke:#0000ff;stroke-width:1.5;" x="300.752115" xlink:href="#ma660f656d0" y="269.554454"/>
     <use style="fill:#0000ff;stroke:#0000ff;stroke-width:1.5;" x="291.61502" xlink:href="#ma660f656d0" y="294.409566"/>
     <use style="fill:#0000ff;stroke:#0000ff;stroke-width:1.5;" x="293.035549" xlink:href="#ma660f656d0" y="347.705782"/>
     <use style="fill:#0000ff;stroke:#0000ff;stroke-width:1.5;" x="243.204311" xlink:href="#ma660f656d0" y="290.480751"/>
     <use style="fill:#0000ff;stroke:#0000ff;stroke-width:1.5;" x="312.505877" xlink:href="#ma660f656d0" y="184.40008"/>
     <use style="fill:#0000ff;stroke:#0000ff;stroke-width:1.5;" x="299.789452" xlink:href="#ma660f656d0" y="276.309851"/>
     <use style="fill:#0000ff;stroke:#0000ff;stroke-width:1.5;" x="279.773761" xlink:href="#ma660f656d0" y="286.799608"/>
     <use style="fill:#0000ff;stroke:#0000ff;stroke-width:1.5;" x="319.151222" xlink:href="#ma660f656d0" y="247.21489"/>
     <use style="fill:#0000ff;stroke:#0000ff;stroke-width:1.5;" x="307.890492" xlink:href="#ma660f656d0" y="290.044989"/>
     <use style="fill:#0000ff;stroke:#0000ff;stroke-width:1.5;" x="282.456396" xlink:href="#ma660f656d0" y="307.928755"/>
     <use style="fill:#0000ff;stroke:#0000ff;stroke-width:1.5;" x="289.244584" xlink:href="#ma660f656d0" y="295.133297"/>
     <use style="fill:#0000ff;stroke:#0000ff;stroke-width:1.5;" x="264.258731" xlink:href="#ma660f656d0" y="288.702298"/>
     <use style="fill:#0000ff;stroke:#0000ff;stroke-width:1.5;" x="306.285495" xlink:href="#ma660f656d0" y="225.556727"/>
     <use style="fill:#0000ff;stroke:#0000ff;stroke-width:1.5;" x="306.02654" xlink:href="#ma660f656d0" y="323.933785"/>
     <use style="fill:#0000ff;stroke:#0000ff;stroke-width:1.5;" x="303.941193" xlink:href="#ma660f656d0" y="269.614177"/>
     <use style="fill:#0000ff;stroke:#0000ff;stroke-width:1.5;" x="311.124219" xlink:href="#ma660f656d0" y="266.48282"/>
     <use style="fill:#0000ff;stroke:#0000ff;stroke-width:1.5;" x="311.607756" xlink:href="#ma660f656d0" y="268.492107"/>
     <use style="fill:#0000ff;stroke:#0000ff;stroke-width:1.5;" x="268.981191" xlink:href="#ma660f656d0" y="284.053817"/>
     <use style="fill:#0000ff;stroke:#0000ff;stroke-width:1.5;" x="237.435272" xlink:href="#ma660f656d0" y="299.220694"/>
     <use style="fill:#0000ff;stroke:#0000ff;stroke-width:1.5;" x="305.402213" xlink:href="#ma660f656d0" y="262.53893"/>
     <use style="fill:#0000ff;stroke:#0000ff;stroke-width:1.5;" x="335.729919" xlink:href="#ma660f656d0" y="241.068558"/>
     <use style="fill:#0000ff;stroke:#0000ff;stroke-width:1.5;" x="312.702575" xlink:href="#ma660f656d0" y="228.207798"/>
     <use style="fill:#0000ff;stroke:#0000ff;stroke-width:1.5;" x="281.921807" xlink:href="#ma660f656d0" y="261.001184"/>
     <use style="fill:#0000ff;stroke:#0000ff;stroke-width:1.5;" x="272.375559" xlink:href="#ma660f656d0" y="300.831112"/>
     <use style="fill:#0000ff;stroke:#0000ff;stroke-width:1.5;" x="287.714219" xlink:href="#ma660f656d0" y="269.830068"/>
     <use style="fill:#0000ff;stroke:#0000ff;stroke-width:1.5;" x="259.708257" xlink:href="#ma660f656d0" y="284.463167"/>
     <use style="fill:#0000ff;stroke:#0000ff;stroke-width:1.5;" x="289.879076" xlink:href="#ma660f656d0" y="281.682002"/>
     <use style="fill:#0000ff;stroke:#0000ff;stroke-width:1.5;" x="319.455817" xlink:href="#ma660f656d0" y="305.023211"/>
     <use style="fill:#0000ff;stroke:#0000ff;stroke-width:1.5;" x="316.383537" xlink:href="#ma660f656d0" y="259.114946"/>
     <use style="fill:#0000ff;stroke:#0000ff;stroke-width:1.5;" x="306.187157" xlink:href="#ma660f656d0" y="293.916943"/>
     <use style="fill:#0000ff;stroke:#0000ff;stroke-width:1.5;" x="297.379494" xlink:href="#ma660f656d0" y="274.604988"/>
     <use style="fill:#0000ff;stroke:#0000ff;stroke-width:1.5;" x="348.738482" xlink:href="#ma660f656d0" y="289.030264"/>
     <use style="fill:#0000ff;stroke:#0000ff;stroke-width:1.5;" x="305.558473" xlink:href="#ma660f656d0" y="248.329125"/>
     <use style="fill:#0000ff;stroke:#0000ff;stroke-width:1.5;" x="303.654207" xlink:href="#ma660f656d0" y="271.546896"/>
     <use style="fill:#0000ff;stroke:#0000ff;stroke-width:1.5;" x="295.990309" xlink:href="#ma660f656d0" y="243.270802"/>
     <use style="fill:#0000ff;stroke:#0000ff;stroke-width:1.5;" x="277.611175" xlink:href="#ma660f656d0" y="265.585846"/>
     <use style="fill:#0000ff;stroke:#0000ff;stroke-width:1.5;" x="343.781861" xlink:href="#ma660f656d0" y="208.339992"/>
     <use style="fill:#0000ff;stroke:#0000ff;stroke-width:1.5;" x="331.136444" xlink:href="#ma660f656d0" y="272.055374"/>
     <use style="fill:#0000ff;stroke:#0000ff;stroke-width:1.5;" x="321.480933" xlink:href="#ma660f656d0" y="249.142165"/>
     <use style="fill:#0000ff;stroke:#0000ff;stroke-width:1.5;" x="330.931487" xlink:href="#ma660f656d0" y="279.831953"/>
     <use style="fill:#0000ff;stroke:#0000ff;stroke-width:1.5;" x="304.221163" xlink:href="#ma660f656d0" y="259.360093"/>
     <use style="fill:#0000ff;stroke:#0000ff;stroke-width:1.5;" x="297.660738" xlink:href="#ma660f656d0" y="250.844453"/>
     <use style="fill:#0000ff;stroke:#0000ff;stroke-width:1.5;" x="283.708723" xlink:href="#ma660f656d0" y="284.381533"/>
     <use style="fill:#0000ff;stroke:#0000ff;stroke-width:1.5;" x="297.111844" xlink:href="#ma660f656d0" y="259.205922"/>
     <use style="fill:#0000ff;stroke:#0000ff;stroke-width:1.5;" x="272.009511" xlink:href="#ma660f656d0" y="299.984615"/>
     <use style="fill:#0000ff;stroke:#0000ff;stroke-width:1.5;" x="309.642605" xlink:href="#ma660f656d0" y="303.253605"/>
     <use style="fill:#0000ff;stroke:#0000ff;stroke-width:1.5;" x="291.403117" xlink:href="#ma660f656d0" y="287.581584"/>
     <use style="fill:#0000ff;stroke:#0000ff;stroke-width:1.5;" x="310.534268" xlink:href="#ma660f656d0" y="257.77728"/>
     <use style="fill:#0000ff;stroke:#0000ff;stroke-width:1.5;" x="350.646737" xlink:href="#ma660f656d0" y="284.438154"/>
     <use style="fill:#0000ff;stroke:#0000ff;stroke-width:1.5;" x="216.378243" xlink:href="#ma660f656d0" y="259.673562"/>
     <use style="fill:#0000ff;stroke:#0000ff;stroke-width:1.5;" x="312.295448" xlink:href="#ma660f656d0" y="240.773558"/>
     <use style="fill:#0000ff;stroke:#0000ff;stroke-width:1.5;" x="263.181343" xlink:href="#ma660f656d0" y="238.636096"/>
     <use style="fill:#0000ff;stroke:#0000ff;stroke-width:1.5;" x="270.807134" xlink:href="#ma660f656d0" y="298.285435"/>
     <use style="fill:#0000ff;stroke:#0000ff;stroke-width:1.5;" x="314.371817" xlink:href="#ma660f656d0" y="293.278892"/>
     <use style="fill:#0000ff;stroke:#0000ff;stroke-width:1.5;" x="266.293878" xlink:href="#ma660f656d0" y="296.721535"/>
     <use style="fill:#0000ff;stroke:#0000ff;stroke-width:1.5;" x="308.914732" xlink:href="#ma660f656d0" y="266.854736"/>
     <use style="fill:#0000ff;stroke:#0000ff;stroke-width:1.5;" x="299.448119" xlink:href="#ma660f656d0" y="300.065893"/>
     <use style="fill:#0000ff;stroke:#0000ff;stroke-width:1.5;" x="265.362158" xlink:href="#ma660f656d0" y="244.887998"/>
     <use style="fill:#0000ff;stroke:#0000ff;stroke-width:1.5;" x="351.319131" xlink:href="#ma660f656d0" y="247.459097"/>
     <use style="fill:#0000ff;stroke:#0000ff;stroke-width:1.5;" x="270.885741" xlink:href="#ma660f656d0" y="310.692259"/>
     <use style="fill:#0000ff;stroke:#0000ff;stroke-width:1.5;" x="300.950683" xlink:href="#ma660f656d0" y="275.050379"/>
     <use style="fill:#0000ff;stroke:#0000ff;stroke-width:1.5;" x="301.477339" xlink:href="#ma660f656d0" y="240.846767"/>
     <use style="fill:#0000ff;stroke:#0000ff;stroke-width:1.5;" x="249.214703" xlink:href="#ma660f656d0" y="265.030456"/>
     <use style="fill:#0000ff;stroke:#0000ff;stroke-width:1.5;" x="292.165791" xlink:href="#ma660f656d0" y="249.317032"/>
     <use style="fill:#0000ff;stroke:#0000ff;stroke-width:1.5;" x="296.110097" xlink:href="#ma660f656d0" y="276.732362"/>
     <use style="fill:#0000ff;stroke:#0000ff;stroke-width:1.5;" x="323.529923" xlink:href="#ma660f656d0" y="328.8099"/>
     <use style="fill:#0000ff;stroke:#0000ff;stroke-width:1.5;" x="249.022394" xlink:href="#ma660f656d0" y="273.458856"/>
     <use style="fill:#0000ff;stroke:#0000ff;stroke-width:1.5;" x="277.255505" xlink:href="#ma660f656d0" y="278.777269"/>
     <use style="fill:#0000ff;stroke:#0000ff;stroke-width:1.5;" x="289.776077" xlink:href="#ma660f656d0" y="280.345552"/>
     <use style="fill:#0000ff;stroke:#0000ff;stroke-width:1.5;" x="271.223388" xlink:href="#ma660f656d0" y="332.851123"/>
     <use style="fill:#0000ff;stroke:#0000ff;stroke-width:1.5;" x="336.472426" xlink:href="#ma660f656d0" y="281.751358"/>
     <use style="fill:#0000ff;stroke:#0000ff;stroke-width:1.5;" x="332.101479" xlink:href="#ma660f656d0" y="296.277221"/>
     <use style="fill:#0000ff;stroke:#0000ff;stroke-width:1.5;" x="322.482729" xlink:href="#ma660f656d0" y="226.282167"/>
     <use style="fill:#0000ff;stroke:#0000ff;stroke-width:1.5;" x="345.963676" xlink:href="#ma660f656d0" y="245.231128"/>
     <use style="fill:#0000ff;stroke:#0000ff;stroke-width:1.5;" x="318.256167" xlink:href="#ma660f656d0" y="253.945018"/>
     <use style="fill:#0000ff;stroke:#0000ff;stroke-width:1.5;" x="321.498918" xlink:href="#ma660f656d0" y="273.725793"/>
     <use style="fill:#0000ff;stroke:#0000ff;stroke-width:1.5;" x="293.240229" xlink:href="#ma660f656d0" y="247.427625"/>
     <use style="fill:#0000ff;stroke:#0000ff;stroke-width:1.5;" x="242.220659" xlink:href="#ma660f656d0" y="194.250504"/>
     <use style="fill:#0000ff;stroke:#0000ff;stroke-width:1.5;" x="239.901752" xlink:href="#ma660f656d0" y="304.636241"/>
     <use style="fill:#0000ff;stroke:#0000ff;stroke-width:1.5;" x="325.680294" xlink:href="#ma660f656d0" y="274.946447"/>
     <use style="fill:#0000ff;stroke:#0000ff;stroke-width:1.5;" x="304.300857" xlink:href="#ma660f656d0" y="277.642155"/>
     <use style="fill:#0000ff;stroke:#0000ff;stroke-width:1.5;" x="241.56955" xlink:href="#ma660f656d0" y="333.123951"/>
     <use style="fill:#0000ff;stroke:#0000ff;stroke-width:1.5;" x="291.197692" xlink:href="#ma660f656d0" y="270.405276"/>
     <use style="fill:#0000ff;stroke:#0000ff;stroke-width:1.5;" x="292.860025" xlink:href="#ma660f656d0" y="293.478734"/>
     <use style="fill:#0000ff;stroke:#0000ff;stroke-width:1.5;" x="259.67372" xlink:href="#ma660f656d0" y="316.254675"/>
     <use style="fill:#0000ff;stroke:#0000ff;stroke-width:1.5;" x="272.300131" xlink:href="#ma660f656d0" y="310.882572"/>
     <use style="fill:#0000ff;stroke:#0000ff;stroke-width:1.5;" x="311.854722" xlink:href="#ma660f656d0" y="272.021054"/>
     <use style="fill:#0000ff;stroke:#0000ff;stroke-width:1.5;" x="399.325739" xlink:href="#ma660f656d0" y="265.821615"/>
     <use style="fill:#0000ff;stroke:#0000ff;stroke-width:1.5;" x="267.781983" xlink:href="#ma660f656d0" y="290.598492"/>
     <use style="fill:#0000ff;stroke:#0000ff;stroke-width:1.5;" x="294.959246" xlink:href="#ma660f656d0" y="256.696869"/>
     <use style="fill:#0000ff;stroke:#0000ff;stroke-width:1.5;" x="251.95257" xlink:href="#ma660f656d0" y="273.826939"/>
     <use style="fill:#0000ff;stroke:#0000ff;stroke-width:1.5;" x="321.748361" xlink:href="#ma660f656d0" y="280.424383"/>
     <use style="fill:#0000ff;stroke:#0000ff;stroke-width:1.5;" x="328.728267" xlink:href="#ma660f656d0" y="275.277116"/>
     <use style="fill:#0000ff;stroke:#0000ff;stroke-width:1.5;" x="303.641928" xlink:href="#ma660f656d0" y="271.876631"/>
     <use style="fill:#0000ff;stroke:#0000ff;stroke-width:1.5;" x="298.875242" xlink:href="#ma660f656d0" y="223.192523"/>
     <use style="fill:#0000ff;stroke:#0000ff;stroke-width:1.5;" x="261.003585" xlink:href="#ma660f656d0" y="267.711533"/>
     <use style="fill:#0000ff;stroke:#0000ff;stroke-width:1.5;" x="304.843216" xlink:href="#ma660f656d0" y="279.822334"/>
     <use style="fill:#0000ff;stroke:#0000ff;stroke-width:1.5;" x="290.554177" xlink:href="#ma660f656d0" y="319.416193"/>
     <use style="fill:#0000ff;stroke:#0000ff;stroke-width:1.5;" x="307.755232" xlink:href="#ma660f656d0" y="249.296032"/>
     <use style="fill:#0000ff;stroke:#0000ff;stroke-width:1.5;" x="293.93974" xlink:href="#ma660f656d0" y="261.359236"/>
     <use style="fill:#0000ff;stroke:#0000ff;stroke-width:1.5;" x="332.249434" xlink:href="#ma660f656d0" y="250.759682"/>
    </g>
   </g>
   <g id="PathCollection_2">
    <defs>
     <path d="M 0 3 
C 0.795609 3 1.55874 2.683901 2.12132 2.12132 
C 2.683901 1.55874 3 0.795609 3 0 
C 3 -0.795609 2.683901 -1.55874 2.12132 -2.12132 
C 1.55874 -2.683901 0.795609 -3 0 -3 
C -0.795609 -3 -1.55874 -2.683901 -2.12132 -2.12132 
C -2.683901 -1.55874 -3 -0.795609 -3 0 
C -3 0.795609 -2.683901 1.55874 -2.12132 2.12132 
C -1.55874 2.683901 -0.795609 3 0 3 
z
" id="m6577274884" style="stroke:#ff0000;"/>
    </defs>
    <g clip-path="url(#pfc30456e81)">
     <use style="fill:#ff0000;stroke:#ff0000;" x="308.171125" xlink:href="#m6577274884" y="277.79285"/>
    </g>
   </g>
   <g id="patch_3">
    <path clip-path="url(#pfc30456e81)" d="M 308.171125 395.288425 
C 339.511352 395.288425 369.572184 382.90835 391.733071 360.874768 
C 413.893958 338.841186 426.345563 308.953041 426.345563 277.79285 
C 426.345563 246.632659 413.893958 216.744514 391.733071 194.710932 
C 369.572184 172.67735 339.511352 160.297275 308.171125 160.297275 
C 276.830898 160.297275 246.770066 172.67735 224.609179 194.710932 
C 202.448292 216.744514 189.996688 246.632659 189.996688 277.79285 
C 189.996688 308.953041 202.448292 338.841186 224.609179 360.874768 
C 246.770066 382.90835 276.830898 395.288425 308.171125 395.288425 
z
" style="fill:none;stroke:#ff0000;stroke-linejoin:miter;"/>
   </g>
   <g id="matplotlib.axis_1">
    <g id="xtick_1">
     <g id="line2d_1">
      <path clip-path="url(#pfc30456e81)" d="M 71.82225 512.784 
L 71.82225 42.8017 
" style="fill:none;stroke:#b0b0b0;stroke-linecap:square;stroke-width:0.8;"/>
     </g>
     <g id="line2d_2">
      <defs>
       <path d="M 0 0 
L 0 3.5 
" id="me737bb0843" style="stroke:#000000;stroke-width:0.8;"/>
      </defs>
      <g>
       <use style="stroke:#000000;stroke-width:0.8;" x="71.82225" xlink:href="#me737bb0843" y="512.784"/>
      </g>
     </g>
     <g id="text_1">
      <!-- −15 -->
      <defs>
       <path d="M 3 22 
L 3 28.59375 
L 53.40625 28.59375 
L 53.40625 22 
z
" id="FreeSerif-8722"/>
       <path d="M 18.296875 59.296875 
Q 16.5 59.296875 11.09375 57.09375 
L 11.09375 58.5 
L 29.09375 67.59375 
L 29.90625 67.40625 
L 29.90625 7.40625 
Q 29.90625 3.796875 31.703125 2.6875 
Q 33.5 1.59375 39.40625 1.5 
L 39.40625 0 
L 11.796875 0 
L 11.796875 1.5 
Q 17.40625 1.703125 19.34375 3.140625 
Q 21.296875 4.59375 21.296875 9.296875 
L 21.296875 54.59375 
Q 21.296875 59.296875 18.296875 59.296875 
z
" id="FreeSerif-49"/>
       <path d="M 35.703125 19.40625 
Q 35.703125 24.703125 33.34375 28.796875 
Q 31 32.90625 27.640625 35.15625 
Q 24.296875 37.40625 20.140625 38.84375 
Q 16 40.296875 12.953125 40.75 
Q 9.90625 41.203125 7.59375 41.203125 
Q 6.40625 41.203125 6.40625 42 
Q 6.40625 42.296875 6.5 42.5 
L 17.40625 66.203125 
L 38.296875 66.203125 
Q 39.90625 66.203125 40.84375 66.703125 
Q 41.796875 67.203125 42.90625 68.796875 
L 43.796875 68.09375 
L 40 59.203125 
Q 39.59375 58.296875 37.703125 58.296875 
L 18.09375 58.296875 
L 13.90625 49.796875 
Q 28.5 47.203125 35.59375 41.34375 
Q 42.703125 35.5 42.703125 24.203125 
Q 42.703125 18.296875 40.84375 13.6875 
Q 39 9.09375 36.140625 6.296875 
Q 33.296875 3.5 29.546875 1.703125 
Q 25.796875 -0.09375 22.34375 -0.75 
Q 18.90625 -1.40625 15.40625 -1.40625 
Q 9.796875 -1.40625 6.5 0.25 
Q 3.203125 1.90625 3.203125 4.796875 
Q 3.203125 8.5 7.5 8.5 
Q 10.296875 8.5 14.75 5.390625 
Q 19.203125 2.296875 21.796875 2.296875 
Q 27.703125 2.296875 31.703125 7.25 
Q 35.703125 12.203125 35.703125 19.40625 
z
" id="FreeSerif-53"/>
      </defs>
      <g transform="translate(57.745688 532.077437)scale(0.18 -0.18)">
       <use xlink:href="#FreeSerif-8722"/>
       <use x="56.399994" xlink:href="#FreeSerif-49"/>
       <use x="106.399979" xlink:href="#FreeSerif-53"/>
      </g>
     </g>
    </g>
    <g id="xtick_2">
     <g id="line2d_3">
      <path clip-path="url(#pfc30456e81)" d="M 150.605208 512.784 
L 150.605208 42.8017 
" style="fill:none;stroke:#b0b0b0;stroke-linecap:square;stroke-width:0.8;"/>
     </g>
     <g id="line2d_4">
      <g>
       <use style="stroke:#000000;stroke-width:0.8;" x="150.605208" xlink:href="#me737bb0843" y="512.784"/>
      </g>
     </g>
     <g id="text_2">
      <!-- −10 -->
      <defs>
       <path d="M 47.59375 17.796875 
Q 35.203125 -1.40625 25 -1.40625 
Q 14.796875 -1.40625 8.59375 8.390625 
Q 2.40625 18.203125 2.40625 33.59375 
Q 2.40625 48.09375 8.59375 57.84375 
Q 14.796875 67.59375 25.40625 67.59375 
Q 35.203125 67.59375 41.390625 58 
Q 47.59375 48.40625 47.59375 33 
Q 47.59375 17.796875 35.203125 -1.40625 
z
M 25.09375 65 
Q 12 65 12 32.703125 
Q 12 1.203125 25 1.203125 
Q 38 1.203125 38 32.796875 
Q 38 48.5 34.703125 56.75 
Q 31.40625 65 25.09375 65 
z
" id="FreeSerif-48"/>
      </defs>
      <g transform="translate(136.528646 532.077437)scale(0.18 -0.18)">
       <use xlink:href="#FreeSerif-8722"/>
       <use x="56.399994" xlink:href="#FreeSerif-49"/>
       <use x="106.399979" xlink:href="#FreeSerif-48"/>
      </g>
     </g>
    </g>
    <g id="xtick_3">
     <g id="line2d_5">
      <path clip-path="url(#pfc30456e81)" d="M 229.388167 512.784 
L 229.388167 42.8017 
" style="fill:none;stroke:#b0b0b0;stroke-linecap:square;stroke-width:0.8;"/>
     </g>
     <g id="line2d_6">
      <g>
       <use style="stroke:#000000;stroke-width:0.8;" x="229.388167" xlink:href="#me737bb0843" y="512.784"/>
      </g>
     </g>
     <g id="text_3">
      <!-- −5 -->
      <g transform="translate(219.811604 532.077437)scale(0.18 -0.18)">
       <use xlink:href="#FreeSerif-8722"/>
       <use x="56.399994" xlink:href="#FreeSerif-53"/>
      </g>
     </g>
    </g>
    <g id="xtick_4">
     <g id="line2d_7">
      <path clip-path="url(#pfc30456e81)" d="M 308.171125 512.784 
L 308.171125 42.8017 
" style="fill:none;stroke:#b0b0b0;stroke-linecap:square;stroke-width:0.8;"/>
     </g>
     <g id="line2d_8">
      <g>
       <use style="stroke:#000000;stroke-width:0.8;" x="308.171125" xlink:href="#me737bb0843" y="512.784"/>
      </g>
     </g>
     <g id="text_4">
      <!-- 0 -->
      <g transform="translate(303.671125 532.077437)scale(0.18 -0.18)">
       <use xlink:href="#FreeSerif-48"/>
      </g>
     </g>
    </g>
    <g id="xtick_5">
     <g id="line2d_9">
      <path clip-path="url(#pfc30456e81)" d="M 386.954083 512.784 
L 386.954083 42.8017 
" style="fill:none;stroke:#b0b0b0;stroke-linecap:square;stroke-width:0.8;"/>
     </g>
     <g id="line2d_10">
      <g>
       <use style="stroke:#000000;stroke-width:0.8;" x="386.954083" xlink:href="#me737bb0843" y="512.784"/>
      </g>
     </g>
     <g id="text_5">
      <!-- 5 -->
      <g transform="translate(382.454083 532.077437)scale(0.18 -0.18)">
       <use xlink:href="#FreeSerif-53"/>
      </g>
     </g>
    </g>
    <g id="xtick_6">
     <g id="line2d_11">
      <path clip-path="url(#pfc30456e81)" d="M 465.737042 512.784 
L 465.737042 42.8017 
" style="fill:none;stroke:#b0b0b0;stroke-linecap:square;stroke-width:0.8;"/>
     </g>
     <g id="line2d_12">
      <g>
       <use style="stroke:#000000;stroke-width:0.8;" x="465.737042" xlink:href="#me737bb0843" y="512.784"/>
      </g>
     </g>
     <g id="text_6">
      <!-- 10 -->
      <g transform="translate(456.737042 532.077437)scale(0.18 -0.18)">
       <use xlink:href="#FreeSerif-49"/>
       <use x="49.999985" xlink:href="#FreeSerif-48"/>
      </g>
     </g>
    </g>
    <g id="xtick_7">
     <g id="line2d_13">
      <path clip-path="url(#pfc30456e81)" d="M 544.52 512.784 
L 544.52 42.8017 
" style="fill:none;stroke:#b0b0b0;stroke-linecap:square;stroke-width:0.8;"/>
     </g>
     <g id="line2d_14">
      <g>
       <use style="stroke:#000000;stroke-width:0.8;" x="544.52" xlink:href="#me737bb0843" y="512.784"/>
      </g>
     </g>
     <g id="text_7">
      <!-- 15 -->
      <g transform="translate(535.52 532.077437)scale(0.18 -0.18)">
       <use xlink:href="#FreeSerif-49"/>
       <use x="49.999985" xlink:href="#FreeSerif-53"/>
      </g>
     </g>
    </g>
    <g id="text_8">
     <!-- X coordinate error (cm) -->
     <defs>
      <path d="M 69.59375 66.203125 
L 69.59375 64.296875 
Q 64.703125 64 62.046875 62.34375 
Q 59.40625 60.703125 54.703125 54.90625 
L 40.09375 36.703125 
L 59.296875 9.296875 
Q 62.296875 5 64.296875 3.703125 
Q 66.296875 2.40625 70.40625 1.90625 
L 70.40625 0 
L 40.703125 0 
L 40.703125 1.90625 
Q 44.796875 2.296875 46.59375 2.9375 
Q 48.40625 3.59375 48.40625 5 
Q 48.40625 7.203125 43.296875 14.796875 
L 33.796875 28.796875 
L 21.90625 14 
Q 16.703125 7.5 16.703125 5.40625 
Q 16.703125 3.703125 18.296875 2.953125 
Q 19.90625 2.203125 24.296875 1.90625 
L 24.296875 0 
L 1 0 
L 1 1.90625 
Q 4.90625 2.203125 7 3.796875 
Q 9.09375 5.40625 15.5 13.296875 
L 31.203125 32.59375 
L 20.296875 48.59375 
Q 13.296875 58.90625 10.25 61.5 
Q 7.203125 64.09375 2.203125 64.296875 
L 2.203125 66.203125 
L 32.40625 66.203125 
L 32.40625 64.296875 
L 29.59375 64.203125 
Q 24.796875 64.09375 24.796875 61.296875 
Q 24.796875 58.09375 33.296875 46.296875 
L 37.5 40.40625 
L 48.796875 54.203125 
Q 52.796875 59.203125 52.796875 61.09375 
Q 52.796875 62.796875 51.34375 63.4375 
Q 49.90625 64.09375 45.796875 64.296875 
L 45.796875 66.203125 
z
" id="FreeSerif-88"/>
      <path id="FreeSerif-32"/>
      <path d="M 2.5 21.296875 
Q 2.5 32.40625 9.046875 39.203125 
Q 15.59375 46 24.40625 46 
Q 30.703125 46 35.25 42.953125 
Q 39.796875 39.90625 39.796875 35.703125 
Q 39.796875 34 38.390625 32.75 
Q 37 31.5 35 31.5 
Q 31.59375 31.5 30.296875 36.09375 
L 29.703125 38.296875 
Q 28.90625 41.09375 27.703125 42.09375 
Q 26.5 43.09375 23.796875 43.09375 
Q 17.703125 43.09375 13.953125 38.25 
Q 10.203125 33.40625 10.203125 25.703125 
Q 10.203125 17.09375 14.546875 11.640625 
Q 18.90625 6.203125 25.703125 6.203125 
Q 30 6.203125 33.09375 8.25 
Q 36.203125 10.296875 39.796875 15.59375 
L 41.203125 14.703125 
Q 40.203125 12.703125 39.453125 11.390625 
Q 38.703125 10.09375 36.75 7.5 
Q 34.796875 4.90625 32.890625 3.296875 
Q 31 1.703125 27.890625 0.34375 
Q 24.796875 -1 21.5 -1 
Q 13.203125 -1 7.84375 5.25 
Q 2.5 11.5 2.5 21.296875 
z
" id="FreeSerif-99"/>
      <path d="M 24.59375 46 
Q 34.203125 46 40.390625 39.59375 
Q 46.59375 33.203125 46.59375 23.40625 
Q 46.59375 13 40.1875 6 
Q 33.796875 -1 24.390625 -1 
Q 15 -1 8.75 5.75 
Q 2.5 12.5 2.5 22.59375 
Q 2.5 32.90625 8.640625 39.453125 
Q 14.796875 46 24.59375 46 
z
M 11.5 27.5 
Q 11.5 16.796875 15.390625 9.296875 
Q 19.296875 1.796875 25.59375 1.796875 
Q 31.203125 1.796875 34.390625 6.59375 
Q 37.59375 11.40625 37.59375 19.90625 
Q 37.59375 30.203125 33.59375 36.703125 
Q 29.59375 43.203125 23.296875 43.203125 
Q 18 43.203125 14.75 38.890625 
Q 11.5 34.59375 11.5 27.5 
z
" id="FreeSerif-111"/>
      <path d="M 30.09375 36.203125 
Q 28.59375 36.203125 26.390625 37.953125 
Q 24.203125 39.703125 23.5 39.703125 
Q 21.5 39.703125 19 36.796875 
Q 16.5 33.90625 16.5 31.5 
L 16.5 9 
Q 16.5 4.703125 18.203125 3.203125 
Q 19.90625 1.703125 25 1.5 
L 25 0 
L 1 0 
L 1 1.5 
Q 5.796875 2.40625 6.9375 3.5 
Q 8.09375 4.59375 8.09375 8.40625 
L 8.09375 33.40625 
Q 8.09375 36.703125 7.34375 38.046875 
Q 6.59375 39.40625 4.703125 39.40625 
Q 3.09375 39.40625 1.203125 39 
L 1.203125 40.59375 
Q 9.203125 43.203125 16 46 
L 16.5 45.796875 
L 16.5 36.59375 
Q 20.203125 41.90625 22.796875 43.953125 
Q 25.40625 46 28.5 46 
Q 31.09375 46 32.546875 44.59375 
Q 34 43.203125 34 40.703125 
Q 34 38.59375 32.953125 37.390625 
Q 31.90625 36.203125 30.09375 36.203125 
z
" id="FreeSerif-114"/>
      <path d="M 34.203125 -1 
L 33.796875 -0.703125 
L 33.796875 5.703125 
Q 29 -1 21 -1 
Q 12.703125 -1 7.59375 4.953125 
Q 2.5 10.90625 2.5 20.5 
Q 2.5 31.09375 8.59375 38.546875 
Q 14.703125 46 23.296875 46 
Q 28.703125 46 33.796875 41.703125 
L 33.796875 57.296875 
Q 33.796875 60.40625 32.890625 61.40625 
Q 32 62.40625 29.203125 62.40625 
Q 27.796875 62.40625 27 62.296875 
L 27 63.90625 
Q 36.09375 66.296875 41.703125 68.296875 
L 42.203125 68.09375 
L 42.203125 11.40625 
Q 42.203125 7.90625 43.046875 6.796875 
Q 43.90625 5.703125 46.59375 5.703125 
Q 47.09375 5.703125 48.90625 5.796875 
L 48.90625 4.203125 
z
M 24.90625 4.203125 
Q 28.703125 4.203125 31.25 6.34375 
Q 33.796875 8.5 33.796875 10.203125 
L 33.796875 33.203125 
Q 33.796875 37.203125 30.6875 40.203125 
Q 27.59375 43.203125 23.59375 43.203125 
Q 17.90625 43.203125 14.5 38.09375 
Q 11.09375 33 11.09375 24.5 
Q 11.09375 15.296875 14.890625 9.75 
Q 18.703125 4.203125 24.90625 4.203125 
z
" id="FreeSerif-100"/>
      <path d="M 6.203125 39.296875 
Q 4 39.296875 2 39 
L 2 40.5 
Q 9 42.5 17.5 46 
L 17.90625 45.703125 
L 17.90625 10.203125 
Q 17.90625 4.796875 19.15625 3.34375 
Q 20.40625 1.90625 25.296875 1.5 
L 25.296875 0 
L 1.59375 0 
L 1.59375 1.5 
Q 6.796875 1.796875 8.140625 3.296875 
Q 9.5 4.796875 9.5 10.203125 
L 9.5 33.40625 
Q 9.5 36.703125 8.75 38 
Q 8 39.296875 6.203125 39.296875 
z
M 12.796875 68.296875 
Q 15 68.296875 16.5 66.796875 
Q 18 65.296875 18 63.203125 
Q 18 61 16.5 59.546875 
Q 15 58.09375 12.796875 58.09375 
Q 10.703125 58.09375 9.25 59.59375 
Q 7.796875 61.09375 7.796875 63.1875 
Q 7.796875 65.296875 9.296875 66.796875 
Q 10.796875 68.296875 12.796875 68.296875 
z
" id="FreeSerif-105"/>
      <path d="M 1 39.796875 
L 1 41.5 
Q 8.40625 43.703125 14.796875 46 
L 15.5 45.796875 
L 15.5 37.90625 
Q 20.59375 42.703125 23.546875 44.34375 
Q 26.5 46 30 46 
Q 35.5 46 38.640625 42.046875 
Q 41.796875 38.09375 41.796875 31 
L 41.796875 8.09375 
Q 41.796875 4.40625 43 3.15625 
Q 44.203125 1.90625 47.90625 1.5 
L 47.90625 0 
L 27.09375 0 
L 27.09375 1.5 
Q 30.90625 1.796875 32.15625 3.5 
Q 33.40625 5.203125 33.40625 9.90625 
L 33.40625 30.796875 
Q 33.40625 40.5 26.09375 40.5 
Q 23.59375 40.5 21.5 39.34375 
Q 19.40625 38.203125 15.796875 34.796875 
L 15.796875 6.703125 
Q 15.796875 4 17.1875 2.890625 
Q 18.59375 1.796875 22.40625 1.5 
L 22.40625 0 
L 1.203125 0 
L 1.203125 1.5 
Q 5 1.796875 6.203125 3.25 
Q 7.40625 4.703125 7.40625 9 
L 7.40625 33.796875 
Q 7.40625 37.5 6.59375 38.84375 
Q 5.796875 40.203125 3.703125 40.203125 
Q 1.796875 40.203125 1 39.796875 
z
" id="FreeSerif-110"/>
      <path d="M 2.5 9.703125 
Q 2.5 11.5 2.890625 13.046875 
Q 3.296875 14.59375 4.296875 15.9375 
Q 5.296875 17.296875 6.1875 18.390625 
Q 7.09375 19.5 8.890625 20.640625 
Q 10.703125 21.796875 11.890625 22.546875 
Q 13.09375 23.296875 15.546875 24.34375 
Q 18 25.40625 19.296875 25.953125 
Q 20.59375 26.5 23.390625 27.59375 
Q 26.203125 28.703125 27.5 29.203125 
L 27.5 35.296875 
Q 27.5 43.59375 19.90625 43.59375 
Q 16.90625 43.59375 14.796875 42.140625 
Q 12.703125 40.703125 12.703125 38.703125 
Q 12.703125 37.90625 12.953125 36.5 
Q 13.203125 35.09375 13.203125 34.703125 
Q 13.203125 33 11.84375 31.75 
Q 10.5 30.5 8.703125 30.5 
Q 7 30.5 5.703125 31.796875 
Q 4.40625 33.09375 4.40625 34.796875 
Q 4.40625 39.5 9.25 42.75 
Q 14.09375 46 21.203125 46 
Q 29.40625 46 32.5 42.046875 
Q 35.59375 38.09375 35.59375 30 
L 35.59375 10.5 
Q 35.59375 7.203125 36.25 5.953125 
Q 36.90625 4.703125 38.59375 4.703125 
Q 40.703125 4.703125 43 6.59375 
L 43 4 
Q 40.40625 1.09375 38.453125 0.046875 
Q 36.5 -1 34 -1 
Q 30.90625 -1 29.453125 0.703125 
Q 28 2.40625 27.59375 6.296875 
Q 19 -1 13 -1 
Q 8.40625 -1 5.453125 2 
Q 2.5 5 2.5 9.703125 
z
M 27.5 12.296875 
L 27.5 26.796875 
Q 18.5 23.5 14.890625 20.390625 
Q 11.296875 17.296875 11.296875 12.90625 
Q 11.296875 8.796875 13.296875 6.796875 
Q 15.296875 4.796875 17.59375 4.796875 
Q 21 4.796875 24.90625 7.09375 
Q 26.5 8 27 9 
Q 27.5 10 27.5 12.296875 
z
" id="FreeSerif-97"/>
      <path d="M 25.90625 45 
L 25.90625 41.796875 
L 15.796875 41.796875 
L 15.796875 13.203125 
Q 15.796875 8.5 17 6.34375 
Q 18.203125 4.203125 21 4.203125 
Q 24.09375 4.203125 27 7.703125 
L 28.296875 6.59375 
Q 23.5 -1 16.296875 -1 
Q 7.40625 -1 7.40625 11.703125 
L 7.40625 41.796875 
L 2.09375 41.796875 
Q 1.703125 42.09375 1.703125 42.5 
Q 1.703125 43 2 43.296875 
Q 2.296875 43.59375 3.140625 44.140625 
Q 4 44.703125 5.203125 45.640625 
Q 6.40625 46.59375 8.5 49.09375 
Q 10.59375 51.59375 13.09375 55.09375 
Q 14.703125 57.40625 15.09375 57.90625 
Q 15.796875 57.90625 15.796875 56.59375 
L 15.796875 45 
z
" id="FreeSerif-116"/>
      <path d="M 9.703125 27.703125 
Q 9.90625 21.40625 11.40625 16.84375 
Q 12.90625 12.296875 15.296875 10.046875 
Q 17.703125 7.796875 20.140625 6.84375 
Q 22.59375 5.90625 25.296875 5.90625 
Q 30.09375 5.90625 33.640625 8.296875 
Q 37.203125 10.703125 40.796875 16.40625 
L 42.40625 15.703125 
Q 39.296875 7.59375 33.796875 3.296875 
Q 28.296875 -1 21.203125 -1 
Q 12.59375 -1 7.546875 5.046875 
Q 2.5 11.09375 2.5 21.40625 
Q 2.5 32.5 8.34375 39.25 
Q 14.203125 46 23.40625 46 
Q 31 46 35.203125 41.453125 
Q 39.40625 36.90625 40.5 27.703125 
z
M 9.90625 30.90625 
L 30.296875 30.90625 
Q 29.296875 37.40625 27.1875 39.90625 
Q 25.09375 42.40625 20.5 42.40625 
Q 11.5 42.40625 9.90625 30.90625 
z
" id="FreeSerif-101"/>
      <path d="M 29.203125 -17.703125 
Q 26.59375 -16.09375 23.796875 -13.84375 
Q 21 -11.59375 17.453125 -7.59375 
Q 13.90625 -3.59375 11.203125 0.953125 
Q 8.5 5.5 6.640625 11.890625 
Q 4.796875 18.296875 4.796875 25.203125 
Q 4.796875 32.40625 6.640625 38.84375 
Q 8.5 45.296875 11 49.546875 
Q 13.5 53.796875 17.34375 57.75 
Q 21.203125 61.703125 23.703125 63.59375 
Q 26.203125 65.5 29.5 67.59375 
L 30.40625 66 
Q 26 62.40625 23.296875 59.5 
Q 20.59375 56.59375 18.09375 51.9375 
Q 15.59375 47.296875 14.5 40.84375 
Q 13.40625 34.40625 13.40625 25.5 
Q 13.40625 16.203125 14.5 9.5 
Q 15.59375 2.796875 18.09375 -1.953125 
Q 20.59375 -6.703125 23.296875 -9.703125 
Q 26 -12.703125 30.40625 -16.09375 
z
" id="FreeSerif-40"/>
      <path d="M 1.296875 39.796875 
L 1.296875 41.5 
Q 8.5 43.5 15.296875 46 
L 16 45.796875 
L 16 38.296875 
Q 22.203125 43 25.203125 44.5 
Q 28.203125 46 31.5 46 
Q 39.40625 46 42.09375 37.59375 
Q 49.90625 46 58.40625 46 
Q 70 46 70 28.203125 
L 70 7.59375 
Q 70 2 74.296875 1.703125 
L 76.90625 1.5 
L 76.90625 0 
L 55 0 
L 55 1.5 
Q 59.40625 2 60.5 3.203125 
Q 61.59375 4.40625 61.59375 8.703125 
L 61.59375 29.796875 
Q 61.59375 36 60 38.390625 
Q 58.40625 40.796875 54.09375 40.796875 
Q 47.5 40.796875 43.203125 34.703125 
L 43.203125 9.5 
Q 43.203125 4.796875 44.640625 3.1875 
Q 46.09375 1.59375 50.40625 1.5 
L 50.40625 0 
L 28 0 
L 28 1.5 
Q 32.296875 1.796875 33.546875 3.09375 
Q 34.796875 4.40625 34.796875 8.59375 
L 34.796875 30.296875 
Q 34.796875 40.796875 28.203125 40.796875 
Q 25.40625 40.796875 21.953125 39.390625 
Q 18.5 38 16.40625 34.90625 
L 16.40625 6.703125 
Q 16.40625 3.796875 17.796875 2.75 
Q 19.203125 1.703125 23.203125 1.5 
L 23.203125 0 
L 1 0 
L 1 1.5 
Q 5.203125 1.59375 6.59375 3 
Q 8 4.40625 8 8.5 
L 8 33.796875 
Q 8 37.40625 7.25 38.796875 
Q 6.5 40.203125 4.5 40.203125 
Q 3 40.203125 1.296875 39.796875 
z
" id="FreeSerif-109"/>
      <path d="M 4.046875 67.703125 
Q 6.65625 66.09375 9.453125 63.84375 
Q 12.25 61.59375 15.796875 57.59375 
Q 19.34375 53.59375 22.046875 49.046875 
Q 24.75 44.5 26.59375 38.09375 
Q 28.453125 31.703125 28.453125 24.796875 
Q 28.453125 17.59375 26.59375 11.140625 
Q 24.75 4.703125 22.25 0.453125 
Q 19.75 -3.796875 15.890625 -7.75 
Q 12.046875 -11.703125 9.546875 -13.59375 
Q 7.046875 -15.5 3.75 -17.59375 
L 2.84375 -16 
Q 7.25 -12.40625 9.953125 -9.5 
Q 12.65625 -6.59375 15.15625 -1.9375 
Q 17.65625 2.703125 18.75 9.140625 
Q 19.84375 15.59375 19.84375 24.5 
Q 19.84375 33.796875 18.75 40.5 
Q 17.65625 47.203125 15.15625 51.953125 
Q 12.65625 56.703125 9.953125 59.703125 
Q 7.25 62.703125 2.84375 66.09375 
z
" id="FreeSerif-41"/>
     </defs>
     <g transform="translate(193.92175 556.37525)scale(0.24 -0.24)">
      <use xlink:href="#FreeSerif-88"/>
      <use x="71.399994" xlink:href="#FreeSerif-32"/>
      <use x="96.399979" xlink:href="#FreeSerif-99"/>
      <use x="140.784348" xlink:href="#FreeSerif-111"/>
      <use x="189.884338" xlink:href="#FreeSerif-111"/>
      <use x="238.968704" xlink:href="#FreeSerif-114"/>
      <use x="273.453064" xlink:href="#FreeSerif-100"/>
      <use x="323.353058" xlink:href="#FreeSerif-105"/>
      <use x="351.137421" xlink:href="#FreeSerif-110"/>
      <use x="400.037415" xlink:href="#FreeSerif-97"/>
      <use x="443.521774" xlink:href="#FreeSerif-116"/>
      <use x="471.821762" xlink:href="#FreeSerif-101"/>
      <use x="516.221756" xlink:href="#FreeSerif-32"/>
      <use x="541.221741" xlink:href="#FreeSerif-101"/>
      <use x="585.60611" xlink:href="#FreeSerif-114"/>
      <use x="620.106094" xlink:href="#FreeSerif-114"/>
      <use x="654.590454" xlink:href="#FreeSerif-111"/>
      <use x="703.67482" xlink:href="#FreeSerif-114"/>
      <use x="738.174805" xlink:href="#FreeSerif-32"/>
      <use x="763.174789" xlink:href="#FreeSerif-40"/>
      <use x="796.474777" xlink:href="#FreeSerif-99"/>
      <use x="840.859146" xlink:href="#FreeSerif-109"/>
      <use x="918.75914" xlink:href="#FreeSerif-41"/>
     </g>
    </g>
   </g>
   <g id="matplotlib.axis_2">
    <g id="ytick_1">
     <g id="line2d_15">
      <path clip-path="url(#pfc30456e81)" d="M 71.82225 512.784 
L 544.52 512.784 
" style="fill:none;stroke:#b0b0b0;stroke-linecap:square;stroke-width:0.8;"/>
     </g>
     <g id="line2d_16">
      <defs>
       <path d="M 0 0 
L -3.5 0 
" id="md61c3bf443" style="stroke:#000000;stroke-width:0.8;"/>
      </defs>
      <g>
       <use style="stroke:#000000;stroke-width:0.8;" x="71.82225" xlink:href="#md61c3bf443" y="512.784"/>
      </g>
     </g>
     <g id="text_9">
      <!-- −15 -->
      <g transform="translate(36.669125 518.930719)scale(0.18 -0.18)">
       <use xlink:href="#FreeSerif-8722"/>
       <use x="56.399994" xlink:href="#FreeSerif-49"/>
       <use x="106.399979" xlink:href="#FreeSerif-53"/>
      </g>
     </g>
    </g>
    <g id="ytick_2">
     <g id="line2d_17">
      <path clip-path="url(#pfc30456e81)" d="M 71.82225 434.453617 
L 544.52 434.453617 
" style="fill:none;stroke:#b0b0b0;stroke-linecap:square;stroke-width:0.8;"/>
     </g>
     <g id="line2d_18">
      <g>
       <use style="stroke:#000000;stroke-width:0.8;" x="71.82225" xlink:href="#md61c3bf443" y="434.453617"/>
      </g>
     </g>
     <g id="text_10">
      <!-- −10 -->
      <g transform="translate(36.669125 440.600335)scale(0.18 -0.18)">
       <use xlink:href="#FreeSerif-8722"/>
       <use x="56.399994" xlink:href="#FreeSerif-49"/>
       <use x="106.399979" xlink:href="#FreeSerif-48"/>
      </g>
     </g>
    </g>
    <g id="ytick_3">
     <g id="line2d_19">
      <path clip-path="url(#pfc30456e81)" d="M 71.82225 356.123233 
L 544.52 356.123233 
" style="fill:none;stroke:#b0b0b0;stroke-linecap:square;stroke-width:0.8;"/>
     </g>
     <g id="line2d_20">
      <g>
       <use style="stroke:#000000;stroke-width:0.8;" x="71.82225" xlink:href="#md61c3bf443" y="356.123233"/>
      </g>
     </g>
     <g id="text_11">
      <!-- −5 -->
      <g transform="translate(45.669125 362.269952)scale(0.18 -0.18)">
       <use xlink:href="#FreeSerif-8722"/>
       <use x="56.399994" xlink:href="#FreeSerif-53"/>
      </g>
     </g>
    </g>
    <g id="ytick_4">
     <g id="line2d_21">
      <path clip-path="url(#pfc30456e81)" d="M 71.82225 277.79285 
L 544.52 277.79285 
" style="fill:none;stroke:#b0b0b0;stroke-linecap:square;stroke-width:0.8;"/>
     </g>
     <g id="line2d_22">
      <g>
       <use style="stroke:#000000;stroke-width:0.8;" x="71.82225" xlink:href="#md61c3bf443" y="277.79285"/>
      </g>
     </g>
     <g id="text_12">
      <!-- 0 -->
      <g transform="translate(55.82225 283.939569)scale(0.18 -0.18)">
       <use xlink:href="#FreeSerif-48"/>
      </g>
     </g>
    </g>
    <g id="ytick_5">
     <g id="line2d_23">
      <path clip-path="url(#pfc30456e81)" d="M 71.82225 199.462467 
L 544.52 199.462467 
" style="fill:none;stroke:#b0b0b0;stroke-linecap:square;stroke-width:0.8;"/>
     </g>
     <g id="line2d_24">
      <g>
       <use style="stroke:#000000;stroke-width:0.8;" x="71.82225" xlink:href="#md61c3bf443" y="199.462467"/>
      </g>
     </g>
     <g id="text_13">
      <!-- 5 -->
      <g transform="translate(55.82225 205.609185)scale(0.18 -0.18)">
       <use xlink:href="#FreeSerif-53"/>
      </g>
     </g>
    </g>
    <g id="ytick_6">
     <g id="line2d_25">
      <path clip-path="url(#pfc30456e81)" d="M 71.82225 121.132083 
L 544.52 121.132083 
" style="fill:none;stroke:#b0b0b0;stroke-linecap:square;stroke-width:0.8;"/>
     </g>
     <g id="line2d_26">
      <g>
       <use style="stroke:#000000;stroke-width:0.8;" x="71.82225" xlink:href="#md61c3bf443" y="121.132083"/>
      </g>
     </g>
     <g id="text_14">
      <!-- 10 -->
      <g transform="translate(46.82225 127.278802)scale(0.18 -0.18)">
       <use xlink:href="#FreeSerif-49"/>
       <use x="49.999985" xlink:href="#FreeSerif-48"/>
      </g>
     </g>
    </g>
    <g id="ytick_7">
     <g id="line2d_27">
      <path clip-path="url(#pfc30456e81)" d="M 71.82225 42.8017 
L 544.52 42.8017 
" style="fill:none;stroke:#b0b0b0;stroke-linecap:square;stroke-width:0.8;"/>
     </g>
     <g id="line2d_28">
      <g>
       <use style="stroke:#000000;stroke-width:0.8;" x="71.82225" xlink:href="#md61c3bf443" y="42.8017"/>
      </g>
     </g>
     <g id="text_15">
      <!-- 15 -->
      <g transform="translate(46.82225 48.948419)scale(0.18 -0.18)">
       <use xlink:href="#FreeSerif-49"/>
       <use x="49.999985" xlink:href="#FreeSerif-53"/>
      </g>
     </g>
    </g>
    <g id="text_16">
     <!-- Z coordinate error (cm) -->
     <defs>
      <path d="M 40.296875 3.796875 
Q 43.09375 3.796875 45.390625 4.296875 
Q 47.703125 4.796875 49.25 5.296875 
Q 50.796875 5.796875 52.140625 7.1875 
Q 53.5 8.59375 54.140625 9.296875 
Q 54.796875 10 55.59375 12.046875 
Q 56.40625 14.09375 56.59375 14.6875 
Q 56.796875 15.296875 57.5 17.59375 
L 59.796875 17.59375 
L 57.40625 0 
L 1 0 
L 1 1.5 
L 44.703125 62.40625 
L 22.59375 62.40625 
Q 17.5 62.40625 14.203125 61.40625 
Q 10.90625 60.40625 9.25 58.203125 
Q 7.59375 56 7 54.203125 
Q 6.40625 52.40625 5.796875 49.09375 
L 3.203125 49.09375 
L 5.203125 66.203125 
L 57.796875 66.203125 
L 57.796875 64.703125 
L 14.59375 3.796875 
z
" id="FreeSerif-90"/>
     </defs>
     <g transform="translate(27.460375 390.8291)rotate(-90)scale(0.24 -0.24)">
      <use xlink:href="#FreeSerif-90"/>
      <use x="61.299988" xlink:href="#FreeSerif-32"/>
      <use x="86.299973" xlink:href="#FreeSerif-99"/>
      <use x="130.684341" xlink:href="#FreeSerif-111"/>
      <use x="179.784332" xlink:href="#FreeSerif-111"/>
      <use x="228.868698" xlink:href="#FreeSerif-114"/>
      <use x="263.353058" xlink:href="#FreeSerif-100"/>
      <use x="313.253052" xlink:href="#FreeSerif-105"/>
      <use x="341.037415" xlink:href="#FreeSerif-110"/>
      <use x="389.937408" xlink:href="#FreeSerif-97"/>
      <use x="433.421768" xlink:href="#FreeSerif-116"/>
      <use x="461.721756" xlink:href="#FreeSerif-101"/>
      <use x="506.12175" xlink:href="#FreeSerif-32"/>
      <use x="531.121735" xlink:href="#FreeSerif-101"/>
      <use x="575.506104" xlink:href="#FreeSerif-114"/>
      <use x="610.006088" xlink:href="#FreeSerif-114"/>
      <use x="644.490448" xlink:href="#FreeSerif-111"/>
      <use x="693.574814" xlink:href="#FreeSerif-114"/>
      <use x="728.074799" xlink:href="#FreeSerif-32"/>
      <use x="753.074783" xlink:href="#FreeSerif-40"/>
      <use x="786.374771" xlink:href="#FreeSerif-99"/>
      <use x="830.75914" xlink:href="#FreeSerif-109"/>
      <use x="908.659134" xlink:href="#FreeSerif-41"/>
     </g>
    </g>
   </g>
   <g id="patch_4">
    <path d="M 71.82225 512.784 
L 71.82225 42.8017 
" style="fill:none;stroke:#000000;stroke-linecap:square;stroke-linejoin:miter;stroke-width:0.8;"/>
   </g>
   <g id="patch_5">
    <path d="M 544.52 512.784 
L 544.52 42.8017 
" style="fill:none;stroke:#000000;stroke-linecap:square;stroke-linejoin:miter;stroke-width:0.8;"/>
   </g>
   <g id="patch_6">
    <path d="M 71.82225 512.784 
L 544.52 512.784 
" style="fill:none;stroke:#000000;stroke-linecap:square;stroke-linejoin:miter;stroke-width:0.8;"/>
   </g>
   <g id="patch_7">
    <path d="M 71.82225 42.8017 
L 544.52 42.8017 
" style="fill:none;stroke:#000000;stroke-linecap:square;stroke-linejoin:miter;stroke-width:0.8;"/>
   </g>
   <g id="text_17">
    <!-- Probability = 99.6% -->
    <defs>
     <path d="M 54.09375 48.09375 
Q 54.09375 45.5 53.5 43.09375 
Q 52.90625 40.703125 51.15625 38 
Q 49.40625 35.296875 46.5 33.34375 
Q 43.59375 31.40625 38.59375 30.09375 
Q 33.59375 28.796875 27 28.796875 
Q 24 28.796875 20.09375 29.09375 
L 20.09375 10.90625 
Q 20.09375 5.40625 21.84375 3.75 
Q 23.59375 2.09375 29.5 1.90625 
L 29.5 0 
L 1.5 0 
L 1.5 1.90625 
Q 7.203125 2.40625 8.546875 4.046875 
Q 9.90625 5.703125 9.90625 12 
L 9.90625 55.296875 
Q 9.90625 60.703125 8.5 62.203125 
Q 7.09375 63.703125 1.5 64.296875 
L 1.5 66.203125 
L 27.90625 66.203125 
Q 32.40625 66.203125 36.59375 65.34375 
Q 40.796875 64.5 44.9375 62.59375 
Q 49.09375 60.703125 51.59375 57 
Q 54.09375 53.296875 54.09375 48.09375 
z
M 20.09375 59.09375 
L 20.09375 33.09375 
Q 23.59375 32.796875 25.796875 32.796875 
Q 43.203125 32.796875 43.203125 47.5 
Q 43.203125 55.203125 38.390625 58.84375 
Q 33.59375 62.5 23.5 62.5 
Q 21.5 62.5 20.796875 61.796875 
Q 20.09375 61.09375 20.09375 59.09375 
z
" id="FreeSerif-80"/>
     <path d="M 16 68.09375 
L 16 37.5 
Q 17.5 41.203125 21.390625 43.59375 
Q 25.296875 46 29.90625 46 
Q 37.40625 46 42.453125 39.75 
Q 47.5 33.5 47.5 24.296875 
Q 47.5 13.59375 40.75 6.296875 
Q 34 -1 24.09375 -1 
Q 18.09375 -1 12.84375 1.046875 
Q 7.59375 3.09375 7.59375 5.40625 
L 7.59375 57.296875 
Q 7.59375 60.40625 6.640625 61.40625 
Q 5.703125 62.40625 2.703125 62.40625 
Q 1.59375 62.40625 1 62.296875 
L 1 63.90625 
Q 8.703125 65.796875 15.5 68.296875 
z
M 16 32.203125 
L 16 7 
Q 16 5.09375 18.890625 3.640625 
Q 21.796875 2.203125 25.703125 2.203125 
Q 31.90625 2.203125 35.296875 6.796875 
Q 38.703125 11.40625 38.703125 19.703125 
Q 38.703125 28.796875 35.25 34.25 
Q 31.796875 39.703125 25.90625 39.703125 
Q 22 39.703125 19 37.390625 
Q 16 35.09375 16 32.203125 
z
" id="FreeSerif-98"/>
     <path d="M 1 62.296875 
L 1 63.90625 
Q 10.90625 66.296875 16.90625 68.296875 
L 17.296875 68.09375 
L 17.296875 8.40625 
Q 17.296875 4.296875 18.640625 3.046875 
Q 20 1.796875 24.796875 1.5 
L 24.796875 0 
L 1.203125 0 
L 1.203125 1.5 
Q 5.90625 1.90625 7.40625 3.296875 
Q 8.90625 4.703125 8.90625 8.703125 
L 8.90625 56.40625 
Q 8.90625 59.90625 8 61.203125 
Q 7.09375 62.5 4.703125 62.5 
Q 2.703125 62.5 1 62.296875 
z
" id="FreeSerif-108"/>
     <path d="M 14.203125 -13.40625 
Q 17 -13.40625 20.09375 -7.203125 
Q 23.203125 -1 23.203125 1.90625 
Q 23.203125 3.203125 18.796875 12 
L 5.59375 40.40625 
Q 4.40625 43 0.5 43.59375 
L 0.5 45 
L 21.09375 45 
L 21.09375 43.5 
Q 17.90625 43.40625 16.59375 42.796875 
Q 15.296875 42.203125 15.296875 40.796875 
Q 15.296875 39.296875 16.296875 37 
L 27.796875 11.703125 
L 37.5 39.296875 
Q 37.90625 40.203125 37.90625 41 
Q 37.90625 43.5 33.09375 43.5 
L 33.09375 45 
L 46.59375 45 
L 46.59375 43.5 
Q 44.796875 43.296875 43.75 42.34375 
Q 42.703125 41.40625 41.796875 39 
L 26.40625 -1.796875 
Q 22.40625 -12.59375 18.453125 -17.1875 
Q 14.5 -21.796875 9.5 -21.796875 
Q 6.296875 -21.796875 4.1875 -20.140625 
Q 2.09375 -18.5 2.09375 -16 
Q 2.09375 -14.203125 3.390625 -12.890625 
Q 4.703125 -11.59375 6.40625 -11.59375 
Q 8.59375 -11.59375 11.09375 -12.5 
Q 13.59375 -13.40625 14.203125 -13.40625 
z
" id="FreeSerif-121"/>
     <path d="M 53.40625 38.59375 
L 53.40625 32 
L 3 32 
L 3 38.59375 
z
M 53.40625 18.59375 
L 53.40625 12 
L 3 12 
L 3 18.59375 
z
" id="FreeSerif-61"/>
     <path d="M 5.90625 -2.203125 
L 5.59375 -0.203125 
Q 17 1.796875 24.953125 9.5 
Q 32.90625 17.203125 36 29.40625 
Q 28.59375 23.703125 21 23.703125 
Q 12.90625 23.703125 7.953125 29.296875 
Q 3 34.90625 3 44 
Q 3 54.09375 8.953125 60.84375 
Q 14.90625 67.59375 23.796875 67.59375 
Q 33.5 67.59375 39.703125 59.6875 
Q 45.90625 51.796875 45.90625 39.40625 
Q 45.90625 35.40625 45.203125 31.203125 
Q 44.5 27 41.953125 21.25 
Q 39.40625 15.5 35.296875 10.953125 
Q 31.203125 6.40625 23.59375 2.703125 
Q 16 -1 5.90625 -2.203125 
z
M 24.59375 28 
Q 26.5 28 28.890625 28.546875 
Q 31.296875 29.09375 33.75 30.9375 
Q 36.203125 32.796875 36.203125 35.5 
L 36.203125 39.40625 
Q 36.203125 64.796875 23 64.796875 
Q 19.90625 64.796875 17.703125 63.140625 
Q 15.5 61.5 14.34375 58.796875 
Q 13.203125 56.09375 12.703125 53.296875 
Q 12.203125 50.5 12.203125 47.40625 
Q 12.203125 38.5 15.546875 33.25 
Q 18.90625 28 24.59375 28 
z
" id="FreeSerif-57"/>
     <path d="M 12.5 10 
Q 14.796875 10 16.4375 8.296875 
Q 18.09375 6.59375 18.09375 4.296875 
Q 18.09375 2.09375 16.390625 0.5 
Q 14.703125 -1.09375 12.40625 -1.09375 
Q 10.203125 -1.09375 8.59375 0.5 
Q 7 2.09375 7 4.296875 
Q 7 6.59375 8.640625 8.296875 
Q 10.296875 10 12.5 10 
z
" id="FreeSerif-46"/>
     <path d="M 25.796875 -1.40625 
Q 15.703125 -1.40625 9.546875 6.640625 
Q 3.40625 14.703125 3.40625 27.90625 
Q 3.40625 32 4.203125 36.34375 
Q 5 40.703125 7.703125 46.25 
Q 10.40625 51.796875 14.703125 56.1875 
Q 19 60.59375 26.75 64.046875 
Q 34.5 67.5 44.59375 68.40625 
L 44.796875 66.796875 
Q 33 64.90625 25.09375 57.25 
Q 17.203125 49.59375 15.203125 38.296875 
Q 19.90625 41.09375 22.296875 41.9375 
Q 24.703125 42.796875 28 42.796875 
Q 36.59375 42.796875 41.6875 37.140625 
Q 46.796875 31.5 46.796875 21.90625 
Q 46.796875 11.59375 40.9375 5.09375 
Q 35.09375 -1.40625 25.796875 -1.40625 
z
M 24.203125 38.203125 
Q 17.40625 38.203125 15.046875 35.203125 
Q 12.703125 32.203125 12.703125 26.296875 
Q 12.703125 14.703125 16.5 8.046875 
Q 20.296875 1.40625 26.90625 1.40625 
Q 32.203125 1.40625 35 5.84375 
Q 37.796875 10.296875 37.796875 18.5 
Q 37.796875 27.90625 34.25 33.046875 
Q 30.703125 38.203125 24.203125 38.203125 
z
" id="FreeSerif-54"/>
     <path d="M 66.90625 37.09375 
Q 71.796875 37.09375 74.5 34.296875 
Q 77.203125 31.5 77.203125 26.40625 
Q 77.203125 20.59375 74.890625 14.890625 
Q 72.59375 9.203125 68.59375 5.09375 
Q 63.5 0 56.90625 0 
Q 51.5 0 48.203125 3.546875 
Q 44.90625 7.09375 44.90625 12.90625 
Q 44.90625 22.296875 51.65625 29.6875 
Q 58.40625 37.09375 66.90625 37.09375 
z
M 58.59375 3 
Q 62.90625 3 66.703125 6.796875 
Q 70.5 10.59375 72.546875 15.84375 
Q 74.59375 21.09375 74.59375 25.90625 
Q 74.59375 29.203125 72.546875 31.546875 
Q 70.5 33.90625 67.59375 33.90625 
Q 63 33.90625 59.296875 28.703125 
Q 55.59375 23.5 54.046875 18.046875 
Q 52.5 12.59375 52.5 9.40625 
Q 52.5 6.59375 54.203125 4.796875 
Q 55.90625 3 58.59375 3 
z
M 28.203125 66.203125 
Q 31.296875 66.203125 33.1875 64.84375 
Q 35.09375 63.5 37.4375 62.140625 
Q 39.796875 60.796875 43.90625 60.796875 
Q 48.59375 60.796875 52.046875 62.296875 
Q 55.5 63.796875 59.5 67.59375 
L 63.40625 67.59375 
L 24.90625 -1.296875 
L 20.09375 -1.296875 
L 55.203125 61.296875 
Q 50 58.296875 44.203125 58.296875 
Q 40.296875 58.296875 37.703125 59.296875 
Q 38.40625 56.796875 38.40625 54.90625 
Q 38.40625 45.59375 32.453125 37.25 
Q 26.5 28.90625 17.90625 28.90625 
Q 13 28.90625 9.546875 32.65625 
Q 6.09375 36.40625 6.09375 41.59375 
Q 6.09375 51.09375 12.84375 58.640625 
Q 19.59375 66.203125 28.203125 66.203125 
z
M 28.203125 63.203125 
Q 23.40625 63.203125 18.546875 54.453125 
Q 13.703125 45.703125 13.703125 38.40625 
Q 13.703125 35.703125 15.34375 34 
Q 17 32.296875 19.59375 32.296875 
Q 25.703125 32.296875 30.796875 39.4375 
Q 35.90625 46.59375 35.90625 55.09375 
Q 35.90625 57 35 60 
Q 33 60.5 31.640625 61.140625 
Q 30.296875 61.796875 29.84375 62.1875 
Q 29.40625 62.59375 29 62.890625 
Q 28.59375 63.203125 28.203125 63.203125 
z
" id="FreeSerif-37"/>
    </defs>
    <g transform="translate(85.392767 64.060902)scale(0.24 -0.24)">
     <use xlink:href="#FreeSerif-80"/>
     <use x="57.584366" xlink:href="#FreeSerif-114"/>
     <use x="92.068726" xlink:href="#FreeSerif-111"/>
     <use x="141.153091" xlink:href="#FreeSerif-98"/>
     <use x="191.153076" xlink:href="#FreeSerif-97"/>
     <use x="234.637436" xlink:href="#FreeSerif-98"/>
     <use x="284.621796" xlink:href="#FreeSerif-105"/>
     <use x="312.406158" xlink:href="#FreeSerif-108"/>
     <use x="338.206146" xlink:href="#FreeSerif-105"/>
     <use x="365.974884" xlink:href="#FreeSerif-116"/>
     <use x="394.274872" xlink:href="#FreeSerif-121"/>
     <use x="441.374863" xlink:href="#FreeSerif-32"/>
     <use x="466.374847" xlink:href="#FreeSerif-61"/>
     <use x="522.774841" xlink:href="#FreeSerif-32"/>
     <use x="547.774826" xlink:href="#FreeSerif-57"/>
     <use x="597.774811" xlink:href="#FreeSerif-57"/>
     <use x="647.774796" xlink:href="#FreeSerif-46"/>
     <use x="672.77478" xlink:href="#FreeSerif-54"/>
     <use x="722.774765" xlink:href="#FreeSerif-37"/>
    </g>
   </g>
   <g id="text_18">
    <!-- X Z hitting plane -->
    <defs>
     <path d="M 15.796875 34.296875 
L 15.796875 10.203125 
Q 15.796875 5 17 3.5 
Q 18.203125 2 22.59375 1.5 
L 22.59375 0 
L 1 0 
L 1 1.5 
Q 5.296875 2.09375 6.34375 3.5 
Q 7.40625 4.90625 7.40625 10.203125 
L 7.40625 57.296875 
Q 7.40625 60.5 6.546875 61.5 
Q 5.703125 62.5 2.796875 62.5 
Q 2.09375 62.5 1.09375 62.296875 
L 1.09375 63.90625 
Q 8.203125 65.796875 15.296875 68.296875 
L 15.796875 68 
L 15.796875 37.59375 
Q 19.203125 42.09375 22.640625 44.046875 
Q 26.09375 46 30.5 46 
Q 42.796875 46 42.796875 30.09375 
L 42.796875 10.203125 
Q 42.796875 5 43.75 3.640625 
Q 44.703125 2.296875 48.796875 1.5 
L 48.796875 0 
L 27.59375 0 
L 27.59375 1.5 
Q 31.90625 1.90625 33.15625 3.5 
Q 34.40625 5.09375 34.40625 10.203125 
L 34.40625 30 
Q 34.40625 40.59375 26.90625 40.59375 
Q 24 40.59375 21.453125 39.140625 
Q 18.90625 37.703125 15.796875 34.296875 
z
" id="FreeSerif-104"/>
     <path d="M 6 5.40625 
Q 6 7.296875 7.34375 8.890625 
Q 8.703125 10.5 14.90625 16.296875 
Q 9.90625 18.796875 7.75 21.890625 
Q 5.59375 25 5.59375 29.703125 
Q 5.59375 36.5 10.4375 41.25 
Q 15.296875 46 22.296875 46 
Q 26.203125 46 30.640625 44.34375 
Q 35.09375 42.703125 38 42.703125 
L 45.703125 42.703125 
L 45.703125 38.796875 
L 37.40625 38.796875 
Q 39.296875 34.5 39.296875 30.40625 
Q 39.296875 23.5 34.640625 19.203125 
Q 30 14.90625 23.703125 14.90625 
Q 22.5 14.90625 18 15.40625 
Q 16 14.796875 14 12.6875 
Q 12 10.59375 12 9.09375 
Q 12 6.703125 19.796875 6.40625 
L 32.703125 5.796875 
Q 38.203125 5.59375 41.5 2.6875 
Q 44.796875 -0.203125 44.796875 -4.90625 
Q 44.796875 -12.09375 36.546875 -16.9375 
Q 28.296875 -21.796875 18.796875 -21.796875 
Q 11.703125 -21.796875 6.59375 -18.9375 
Q 1.5 -16.09375 1.5 -12.09375 
Q 1.5 -9.296875 3.75 -6.546875 
Q 6 -3.796875 11.296875 0.09375 
Q 8.203125 1.59375 7.09375 2.6875 
Q 6 3.796875 6 5.40625 
z
M 13.40625 -0.203125 
Q 10.296875 -3.90625 9.390625 -5.5 
Q 8.5 -7.09375 8.5 -8.796875 
Q 8.5 -12.09375 12.5 -14.09375 
Q 16.5 -16.09375 23.09375 -16.09375 
Q 31.59375 -16.09375 36.796875 -13.390625 
Q 42 -10.703125 42 -6.40625 
Q 42 -3.703125 39.203125 -2.59375 
Q 36.40625 -1.5 29.59375 -1.5 
Q 19.5 -1.5 13.40625 -0.203125 
z
M 31.59375 26.5 
Q 31.59375 28.203125 31.1875 30.59375 
Q 30.796875 33 29.796875 36.046875 
Q 28.796875 39.09375 26.59375 41.140625 
Q 24.40625 43.203125 21.296875 43.203125 
Q 17.796875 43.203125 15.84375 40.703125 
Q 13.90625 38.203125 13.90625 33.796875 
Q 13.90625 25.203125 17.09375 21.296875 
Q 20.296875 17.40625 24.09375 17.40625 
Q 27.59375 17.40625 29.59375 19.84375 
Q 31.59375 22.296875 31.59375 26.5 
z
" id="FreeSerif-103"/>
     <path d="M 1.40625 39.296875 
L 1.40625 40.90625 
Q 7.703125 42.796875 15.796875 46 
L 16.40625 45.796875 
L 16.40625 38.09375 
Q 22.796875 46 30.796875 46 
Q 38.09375 46 42.796875 40 
Q 47.5 34 47.5 24.703125 
Q 47.5 13.796875 41.453125 6.390625 
Q 35.40625 -1 26.5 -1 
Q 23.296875 -1 21.140625 -0.09375 
Q 19 0.796875 16.40625 3.296875 
L 16.40625 -12.40625 
Q 16.40625 -17.09375 18 -18.4375 
Q 19.59375 -19.796875 25.203125 -19.90625 
L 25.203125 -21.703125 
L 1 -21.703125 
L 1 -20 
Q 5.40625 -19.59375 6.703125 -18.296875 
Q 8 -17 8 -13.09375 
L 8 33.703125 
Q 8 37.203125 7.203125 38.296875 
Q 6.40625 39.40625 3.90625 39.40625 
Q 2.296875 39.40625 1.40625 39.296875 
z
M 16.40625 33.40625 
L 16.40625 8.796875 
Q 16.40625 6.59375 19.84375 4.390625 
Q 23.296875 2.203125 26.796875 2.203125 
Q 32.203125 2.203125 35.546875 7.34375 
Q 38.90625 12.5 38.90625 20.796875 
Q 38.90625 29.5 35.546875 34.75 
Q 32.203125 40 26.59375 40 
Q 23.09375 40 19.75 37.796875 
Q 16.40625 35.59375 16.40625 33.40625 
z
" id="FreeSerif-112"/>
    </defs>
    <g transform="translate(226.83175 36.8017)scale(0.24 -0.24)">
     <use xlink:href="#FreeSerif-88"/>
     <use x="71.399994" xlink:href="#FreeSerif-32"/>
     <use x="96.399979" xlink:href="#FreeSerif-90"/>
     <use x="157.699966" xlink:href="#FreeSerif-32"/>
     <use x="182.699951" xlink:href="#FreeSerif-104"/>
     <use x="232.499939" xlink:href="#FreeSerif-105"/>
     <use x="260.268677" xlink:href="#FreeSerif-116"/>
     <use x="288.568665" xlink:href="#FreeSerif-116"/>
     <use x="316.868652" xlink:href="#FreeSerif-105"/>
     <use x="344.653015" xlink:href="#FreeSerif-110"/>
     <use x="393.553009" xlink:href="#FreeSerif-103"/>
     <use x="440.253006" xlink:href="#FreeSerif-32"/>
     <use x="465.252991" xlink:href="#FreeSerif-112"/>
     <use x="515.23735" xlink:href="#FreeSerif-108"/>
     <use x="541.037338" xlink:href="#FreeSerif-97"/>
     <use x="584.537323" xlink:href="#FreeSerif-110"/>
     <use x="633.421692" xlink:href="#FreeSerif-101"/>
    </g>
   </g>
   <g id="legend_1">
    <g id="patch_8">
     <path d="M 421.240313 80.15795 
L 537.52 80.15795 
Q 539.52 80.15795 539.52 78.15795 
L 539.52 49.8017 
Q 539.52 47.8017 537.52 47.8017 
L 421.240313 47.8017 
Q 419.240313 47.8017 419.240313 49.8017 
L 419.240313 78.15795 
Q 419.240313 80.15795 421.240313 80.15795 
z
" style="fill:#ffffff;opacity:0.8;stroke:#cccccc;stroke-linejoin:miter;"/>
    </g>
    <g id="PathCollection_3">
     <g>
      <use style="fill:#0000ff;stroke:#0000ff;stroke-width:1.5;" x="433.240313" xlink:href="#ma660f656d0" y="56.775138"/>
     </g>
    </g>
    <g id="text_19">
     <!-- prediction points -->
     <defs>
      <path d="M 18.109375 8.203125 
L 18.109375 -20.796875 
L 9.078125 -20.796875 
L 9.078125 54.6875 
L 18.109375 54.6875 
L 18.109375 46.390625 
Q 20.953125 51.265625 25.265625 53.625 
Q 29.59375 56 35.59375 56 
Q 45.5625 56 51.78125 48.09375 
Q 58.015625 40.1875 58.015625 27.296875 
Q 58.015625 14.40625 51.78125 6.484375 
Q 45.5625 -1.421875 35.59375 -1.421875 
Q 29.59375 -1.421875 25.265625 0.953125 
Q 20.953125 3.328125 18.109375 8.203125 
z
M 48.6875 27.296875 
Q 48.6875 37.203125 44.609375 42.84375 
Q 40.53125 48.484375 33.40625 48.484375 
Q 26.265625 48.484375 22.1875 42.84375 
Q 18.109375 37.203125 18.109375 27.296875 
Q 18.109375 17.390625 22.1875 11.75 
Q 26.265625 6.109375 33.40625 6.109375 
Q 40.53125 6.109375 44.609375 11.75 
Q 48.6875 17.390625 48.6875 27.296875 
z
" id="DejaVuSans-112"/>
      <path d="M 41.109375 46.296875 
Q 39.59375 47.171875 37.8125 47.578125 
Q 36.03125 48 33.890625 48 
Q 26.265625 48 22.1875 43.046875 
Q 18.109375 38.09375 18.109375 28.8125 
L 18.109375 0 
L 9.078125 0 
L 9.078125 54.6875 
L 18.109375 54.6875 
L 18.109375 46.1875 
Q 20.953125 51.171875 25.484375 53.578125 
Q 30.03125 56 36.53125 56 
Q 37.453125 56 38.578125 55.875 
Q 39.703125 55.765625 41.0625 55.515625 
z
" id="DejaVuSans-114"/>
      <path d="M 56.203125 29.59375 
L 56.203125 25.203125 
L 14.890625 25.203125 
Q 15.484375 15.921875 20.484375 11.0625 
Q 25.484375 6.203125 34.421875 6.203125 
Q 39.59375 6.203125 44.453125 7.46875 
Q 49.3125 8.734375 54.109375 11.28125 
L 54.109375 2.78125 
Q 49.265625 0.734375 44.1875 -0.34375 
Q 39.109375 -1.421875 33.890625 -1.421875 
Q 20.796875 -1.421875 13.15625 6.1875 
Q 5.515625 13.8125 5.515625 26.8125 
Q 5.515625 40.234375 12.765625 48.109375 
Q 20.015625 56 32.328125 56 
Q 43.359375 56 49.78125 48.890625 
Q 56.203125 41.796875 56.203125 29.59375 
z
M 47.21875 32.234375 
Q 47.125 39.59375 43.09375 43.984375 
Q 39.0625 48.390625 32.421875 48.390625 
Q 24.90625 48.390625 20.390625 44.140625 
Q 15.875 39.890625 15.1875 32.171875 
z
" id="DejaVuSans-101"/>
      <path d="M 45.40625 46.390625 
L 45.40625 75.984375 
L 54.390625 75.984375 
L 54.390625 0 
L 45.40625 0 
L 45.40625 8.203125 
Q 42.578125 3.328125 38.25 0.953125 
Q 33.9375 -1.421875 27.875 -1.421875 
Q 17.96875 -1.421875 11.734375 6.484375 
Q 5.515625 14.40625 5.515625 27.296875 
Q 5.515625 40.1875 11.734375 48.09375 
Q 17.96875 56 27.875 56 
Q 33.9375 56 38.25 53.625 
Q 42.578125 51.265625 45.40625 46.390625 
z
M 14.796875 27.296875 
Q 14.796875 17.390625 18.875 11.75 
Q 22.953125 6.109375 30.078125 6.109375 
Q 37.203125 6.109375 41.296875 11.75 
Q 45.40625 17.390625 45.40625 27.296875 
Q 45.40625 37.203125 41.296875 42.84375 
Q 37.203125 48.484375 30.078125 48.484375 
Q 22.953125 48.484375 18.875 42.84375 
Q 14.796875 37.203125 14.796875 27.296875 
z
" id="DejaVuSans-100"/>
      <path d="M 9.421875 54.6875 
L 18.40625 54.6875 
L 18.40625 0 
L 9.421875 0 
z
M 9.421875 75.984375 
L 18.40625 75.984375 
L 18.40625 64.59375 
L 9.421875 64.59375 
z
" id="DejaVuSans-105"/>
      <path d="M 48.78125 52.59375 
L 48.78125 44.1875 
Q 44.96875 46.296875 41.140625 47.34375 
Q 37.3125 48.390625 33.40625 48.390625 
Q 24.65625 48.390625 19.8125 42.84375 
Q 14.984375 37.3125 14.984375 27.296875 
Q 14.984375 17.28125 19.8125 11.734375 
Q 24.65625 6.203125 33.40625 6.203125 
Q 37.3125 6.203125 41.140625 7.25 
Q 44.96875 8.296875 48.78125 10.40625 
L 48.78125 2.09375 
Q 45.015625 0.34375 40.984375 -0.53125 
Q 36.96875 -1.421875 32.421875 -1.421875 
Q 20.0625 -1.421875 12.78125 6.34375 
Q 5.515625 14.109375 5.515625 27.296875 
Q 5.515625 40.671875 12.859375 48.328125 
Q 20.21875 56 33.015625 56 
Q 37.15625 56 41.109375 55.140625 
Q 45.0625 54.296875 48.78125 52.59375 
z
" id="DejaVuSans-99"/>
      <path d="M 18.3125 70.21875 
L 18.3125 54.6875 
L 36.8125 54.6875 
L 36.8125 47.703125 
L 18.3125 47.703125 
L 18.3125 18.015625 
Q 18.3125 11.328125 20.140625 9.421875 
Q 21.96875 7.515625 27.59375 7.515625 
L 36.8125 7.515625 
L 36.8125 0 
L 27.59375 0 
Q 17.1875 0 13.234375 3.875 
Q 9.28125 7.765625 9.28125 18.015625 
L 9.28125 47.703125 
L 2.6875 47.703125 
L 2.6875 54.6875 
L 9.28125 54.6875 
L 9.28125 70.21875 
z
" id="DejaVuSans-116"/>
      <path d="M 30.609375 48.390625 
Q 23.390625 48.390625 19.1875 42.75 
Q 14.984375 37.109375 14.984375 27.296875 
Q 14.984375 17.484375 19.15625 11.84375 
Q 23.34375 6.203125 30.609375 6.203125 
Q 37.796875 6.203125 41.984375 11.859375 
Q 46.1875 17.53125 46.1875 27.296875 
Q 46.1875 37.015625 41.984375 42.703125 
Q 37.796875 48.390625 30.609375 48.390625 
z
M 30.609375 56 
Q 42.328125 56 49.015625 48.375 
Q 55.71875 40.765625 55.71875 27.296875 
Q 55.71875 13.875 49.015625 6.21875 
Q 42.328125 -1.421875 30.609375 -1.421875 
Q 18.84375 -1.421875 12.171875 6.21875 
Q 5.515625 13.875 5.515625 27.296875 
Q 5.515625 40.765625 12.171875 48.375 
Q 18.84375 56 30.609375 56 
z
" id="DejaVuSans-111"/>
      <path d="M 54.890625 33.015625 
L 54.890625 0 
L 45.90625 0 
L 45.90625 32.71875 
Q 45.90625 40.484375 42.875 44.328125 
Q 39.84375 48.1875 33.796875 48.1875 
Q 26.515625 48.1875 22.3125 43.546875 
Q 18.109375 38.921875 18.109375 30.90625 
L 18.109375 0 
L 9.078125 0 
L 9.078125 54.6875 
L 18.109375 54.6875 
L 18.109375 46.1875 
Q 21.34375 51.125 25.703125 53.5625 
Q 30.078125 56 35.796875 56 
Q 45.21875 56 50.046875 50.171875 
Q 54.890625 44.34375 54.890625 33.015625 
z
" id="DejaVuSans-110"/>
      <path id="DejaVuSans-32"/>
      <path d="M 44.28125 53.078125 
L 44.28125 44.578125 
Q 40.484375 46.53125 36.375 47.5 
Q 32.28125 48.484375 27.875 48.484375 
Q 21.1875 48.484375 17.84375 46.4375 
Q 14.5 44.390625 14.5 40.28125 
Q 14.5 37.15625 16.890625 35.375 
Q 19.28125 33.59375 26.515625 31.984375 
L 29.59375 31.296875 
Q 39.15625 29.25 43.1875 25.515625 
Q 47.21875 21.78125 47.21875 15.09375 
Q 47.21875 7.46875 41.1875 3.015625 
Q 35.15625 -1.421875 24.609375 -1.421875 
Q 20.21875 -1.421875 15.453125 -0.5625 
Q 10.6875 0.296875 5.421875 2 
L 5.421875 11.28125 
Q 10.40625 8.6875 15.234375 7.390625 
Q 20.0625 6.109375 24.8125 6.109375 
Q 31.15625 6.109375 34.5625 8.28125 
Q 37.984375 10.453125 37.984375 14.40625 
Q 37.984375 18.0625 35.515625 20.015625 
Q 33.0625 21.96875 24.703125 23.78125 
L 21.578125 24.515625 
Q 13.234375 26.265625 9.515625 29.90625 
Q 5.8125 33.546875 5.8125 39.890625 
Q 5.8125 47.609375 11.28125 51.796875 
Q 16.75 56 26.8125 56 
Q 31.78125 56 36.171875 55.265625 
Q 40.578125 54.546875 44.28125 53.078125 
z
" id="DejaVuSans-115"/>
     </defs>
     <g transform="translate(451.240313 59.400138)scale(0.1 -0.1)">
      <use xlink:href="#DejaVuSans-112"/>
      <use x="63.476562" xlink:href="#DejaVuSans-114"/>
      <use x="104.558594" xlink:href="#DejaVuSans-101"/>
      <use x="166.082031" xlink:href="#DejaVuSans-100"/>
      <use x="229.558594" xlink:href="#DejaVuSans-105"/>
      <use x="257.341797" xlink:href="#DejaVuSans-99"/>
      <use x="312.322266" xlink:href="#DejaVuSans-116"/>
      <use x="351.53125" xlink:href="#DejaVuSans-105"/>
      <use x="379.314453" xlink:href="#DejaVuSans-111"/>
      <use x="440.496094" xlink:href="#DejaVuSans-110"/>
      <use x="503.875" xlink:href="#DejaVuSans-32"/>
      <use x="535.662109" xlink:href="#DejaVuSans-112"/>
      <use x="599.138672" xlink:href="#DejaVuSans-111"/>
      <use x="660.320312" xlink:href="#DejaVuSans-105"/>
      <use x="688.103516" xlink:href="#DejaVuSans-110"/>
      <use x="751.482422" xlink:href="#DejaVuSans-116"/>
      <use x="790.691406" xlink:href="#DejaVuSans-115"/>
     </g>
    </g>
    <g id="PathCollection_4">
     <g>
      <use style="fill:#ff0000;stroke:#ff0000;" x="433.240313" xlink:href="#m6577274884" y="71.453263"/>
     </g>
    </g>
    <g id="text_20">
     <!-- target point -->
     <defs>
      <path d="M 34.28125 27.484375 
Q 23.390625 27.484375 19.1875 25 
Q 14.984375 22.515625 14.984375 16.5 
Q 14.984375 11.71875 18.140625 8.90625 
Q 21.296875 6.109375 26.703125 6.109375 
Q 34.1875 6.109375 38.703125 11.40625 
Q 43.21875 16.703125 43.21875 25.484375 
L 43.21875 27.484375 
z
M 52.203125 31.203125 
L 52.203125 0 
L 43.21875 0 
L 43.21875 8.296875 
Q 40.140625 3.328125 35.546875 0.953125 
Q 30.953125 -1.421875 24.3125 -1.421875 
Q 15.921875 -1.421875 10.953125 3.296875 
Q 6 8.015625 6 15.921875 
Q 6 25.140625 12.171875 29.828125 
Q 18.359375 34.515625 30.609375 34.515625 
L 43.21875 34.515625 
L 43.21875 35.40625 
Q 43.21875 41.609375 39.140625 45 
Q 35.0625 48.390625 27.6875 48.390625 
Q 23 48.390625 18.546875 47.265625 
Q 14.109375 46.140625 10.015625 43.890625 
L 10.015625 52.203125 
Q 14.9375 54.109375 19.578125 55.046875 
Q 24.21875 56 28.609375 56 
Q 40.484375 56 46.34375 49.84375 
Q 52.203125 43.703125 52.203125 31.203125 
z
" id="DejaVuSans-97"/>
      <path d="M 45.40625 27.984375 
Q 45.40625 37.75 41.375 43.109375 
Q 37.359375 48.484375 30.078125 48.484375 
Q 22.859375 48.484375 18.828125 43.109375 
Q 14.796875 37.75 14.796875 27.984375 
Q 14.796875 18.265625 18.828125 12.890625 
Q 22.859375 7.515625 30.078125 7.515625 
Q 37.359375 7.515625 41.375 12.890625 
Q 45.40625 18.265625 45.40625 27.984375 
z
M 54.390625 6.78125 
Q 54.390625 -7.171875 48.1875 -13.984375 
Q 42 -20.796875 29.203125 -20.796875 
Q 24.46875 -20.796875 20.265625 -20.09375 
Q 16.0625 -19.390625 12.109375 -17.921875 
L 12.109375 -9.1875 
Q 16.0625 -11.328125 19.921875 -12.34375 
Q 23.78125 -13.375 27.78125 -13.375 
Q 36.625 -13.375 41.015625 -8.765625 
Q 45.40625 -4.15625 45.40625 5.171875 
L 45.40625 9.625 
Q 42.625 4.78125 38.28125 2.390625 
Q 33.9375 0 27.875 0 
Q 17.828125 0 11.671875 7.65625 
Q 5.515625 15.328125 5.515625 27.984375 
Q 5.515625 40.671875 11.671875 48.328125 
Q 17.828125 56 27.875 56 
Q 33.9375 56 38.28125 53.609375 
Q 42.625 51.21875 45.40625 46.390625 
L 45.40625 54.6875 
L 54.390625 54.6875 
z
" id="DejaVuSans-103"/>
     </defs>
     <g transform="translate(451.240313 74.078263)scale(0.1 -0.1)">
      <use xlink:href="#DejaVuSans-116"/>
      <use x="39.208984" xlink:href="#DejaVuSans-97"/>
      <use x="100.488281" xlink:href="#DejaVuSans-114"/>
      <use x="141.585938" xlink:href="#DejaVuSans-103"/>
      <use x="205.0625" xlink:href="#DejaVuSans-101"/>
      <use x="266.585938" xlink:href="#DejaVuSans-116"/>
      <use x="305.794922" xlink:href="#DejaVuSans-32"/>
      <use x="337.582031" xlink:href="#DejaVuSans-112"/>
      <use x="401.058594" xlink:href="#DejaVuSans-111"/>
      <use x="462.240234" xlink:href="#DejaVuSans-105"/>
      <use x="490.023438" xlink:href="#DejaVuSans-110"/>
      <use x="553.402344" xlink:href="#DejaVuSans-116"/>
     </g>
    </g>
   </g>
  </g>
 </g>
 <defs>
  <clipPath id="pfc30456e81">
   <rect height="469.9823" width="472.69775" x="71.82225" y="42.8017"/>
  </clipPath>
 </defs>
</svg>
