<?xml version="1.0" encoding="utf-8" standalone="no"?>
<!DOCTYPE svg PUBLIC "-//W3C//DTD SVG 1.1//EN"
  "http://www.w3.org/Graphics/SVG/1.1/DTD/svg11.dtd">
<!-- Created with matplotlib (https://matplotlib.org/) -->
<svg height="576pt" version="1.1" viewBox="0 0 576 576" width="576pt" xmlns="http://www.w3.org/2000/svg" xmlns:xlink="http://www.w3.org/1999/xlink">
 <defs>
  <style type="text/css">
*{stroke-linecap:butt;stroke-linejoin:round;}
  </style>
 </defs>
 <g id="figure_1">
  <g id="patch_1">
   <path d="M 0 576 
L 576 576 
L 576 0 
L 0 0 
z
" style="fill:#ffffff;"/>
  </g>
  <g id="axes_1">
   <g id="patch_2">
    <path d="M 71.82225 512.784 
L 544.52 512.784 
L 544.52 42.8017 
L 71.82225 42.8017 
z
" style="fill:#ffffff;"/>
   </g>
   <g id="PathCollection_1">
    <defs>
     <path d="M -3 3 
L 3 -3 
M -3 -3 
L 3 3 
" id="m1ca23214dd" style="stroke:#0000ff;stroke-width:1.5;"/>
    </defs>
    <g clip-path="url(#p17a9f33fde)">
     <use style="fill:#0000ff;stroke:#0000ff;stroke-width:1.5;" x="236.495128" xlink:href="#m1ca23214dd" y="244.970948"/>
     <use style="fill:#0000ff;stroke:#0000ff;stroke-width:1.5;" x="266.053374" xlink:href="#m1ca23214dd" y="214.526027"/>
     <use style="fill:#0000ff;stroke:#0000ff;stroke-width:1.5;" x="275.562029" xlink:href="#m1ca23214dd" y="334.227242"/>
     <use style="fill:#0000ff;stroke:#0000ff;stroke-width:1.5;" x="278.227574" xlink:href="#m1ca23214dd" y="305.547538"/>
     <use style="fill:#0000ff;stroke:#0000ff;stroke-width:1.5;" x="290.002719" xlink:href="#m1ca23214dd" y="316.623411"/>
     <use style="fill:#0000ff;stroke:#0000ff;stroke-width:1.5;" x="308.081209" xlink:href="#m1ca23214dd" y="289.651482"/>
     <use style="fill:#0000ff;stroke:#0000ff;stroke-width:1.5;" x="284.543974" xlink:href="#m1ca23214dd" y="296.799052"/>
     <use style="fill:#0000ff;stroke:#0000ff;stroke-width:1.5;" x="340.272232" xlink:href="#m1ca23214dd" y="202.859693"/>
     <use style="fill:#0000ff;stroke:#0000ff;stroke-width:1.5;" x="296.00104" xlink:href="#m1ca23214dd" y="236.087229"/>
     <use style="fill:#0000ff;stroke:#0000ff;stroke-width:1.5;" x="233.931864" xlink:href="#m1ca23214dd" y="400.32177"/>
     <use style="fill:#0000ff;stroke:#0000ff;stroke-width:1.5;" x="362.435095" xlink:href="#m1ca23214dd" y="337.154947"/>
     <use style="fill:#0000ff;stroke:#0000ff;stroke-width:1.5;" x="306.848706" xlink:href="#m1ca23214dd" y="375.189216"/>
     <use style="fill:#0000ff;stroke:#0000ff;stroke-width:1.5;" x="394.08207" xlink:href="#m1ca23214dd" y="248.185212"/>
     <use style="fill:#0000ff;stroke:#0000ff;stroke-width:1.5;" x="268.262924" xlink:href="#m1ca23214dd" y="148.232834"/>
     <use style="fill:#0000ff;stroke:#0000ff;stroke-width:1.5;" x="262.327742" xlink:href="#m1ca23214dd" y="235.337259"/>
     <use style="fill:#0000ff;stroke:#0000ff;stroke-width:1.5;" x="366.320285" xlink:href="#m1ca23214dd" y="408.184915"/>
     <use style="fill:#0000ff;stroke:#0000ff;stroke-width:1.5;" x="316.903385" xlink:href="#m1ca23214dd" y="342.506664"/>
     <use style="fill:#0000ff;stroke:#0000ff;stroke-width:1.5;" x="281.74969" xlink:href="#m1ca23214dd" y="364.052363"/>
     <use style="fill:#0000ff;stroke:#0000ff;stroke-width:1.5;" x="310.212161" xlink:href="#m1ca23214dd" y="327.719445"/>
     <use style="fill:#0000ff;stroke:#0000ff;stroke-width:1.5;" x="306.669314" xlink:href="#m1ca23214dd" y="208.586328"/>
     <use style="fill:#0000ff;stroke:#0000ff;stroke-width:1.5;" x="222.300342" xlink:href="#m1ca23214dd" y="378.21389"/>
     <use style="fill:#0000ff;stroke:#0000ff;stroke-width:1.5;" x="342.458322" xlink:href="#m1ca23214dd" y="225.860431"/>
     <use style="fill:#0000ff;stroke:#0000ff;stroke-width:1.5;" x="338.224425" xlink:href="#m1ca23214dd" y="445.817116"/>
     <use style="fill:#0000ff;stroke:#0000ff;stroke-width:1.5;" x="286.20333" xlink:href="#m1ca23214dd" y="238.197077"/>
     <use style="fill:#0000ff;stroke:#0000ff;stroke-width:1.5;" x="218.978521" xlink:href="#m1ca23214dd" y="249.449852"/>
     <use style="fill:#0000ff;stroke:#0000ff;stroke-width:1.5;" x="291.397518" xlink:href="#m1ca23214dd" y="266.125785"/>
     <use style="fill:#0000ff;stroke:#0000ff;stroke-width:1.5;" x="634.656565" xlink:href="#m1ca23214dd" y="288.928252"/>
     <use style="fill:#0000ff;stroke:#0000ff;stroke-width:1.5;" x="306.89875" xlink:href="#m1ca23214dd" y="373.706921"/>
     <use style="fill:#0000ff;stroke:#0000ff;stroke-width:1.5;" x="331.40817" xlink:href="#m1ca23214dd" y="173.139076"/>
     <use style="fill:#0000ff;stroke:#0000ff;stroke-width:1.5;" x="396.370322" xlink:href="#m1ca23214dd" y="358.28398"/>
     <use style="fill:#0000ff;stroke:#0000ff;stroke-width:1.5;" x="300.720369" xlink:href="#m1ca23214dd" y="282.866447"/>
     <use style="fill:#0000ff;stroke:#0000ff;stroke-width:1.5;" x="193.743805" xlink:href="#m1ca23214dd" y="322.633018"/>
     <use style="fill:#0000ff;stroke:#0000ff;stroke-width:1.5;" x="340.849018" xlink:href="#m1ca23214dd" y="315.752318"/>
     <use style="fill:#0000ff;stroke:#0000ff;stroke-width:1.5;" x="226.243554" xlink:href="#m1ca23214dd" y="357.481498"/>
     <use style="fill:#0000ff;stroke:#0000ff;stroke-width:1.5;" x="302.341335" xlink:href="#m1ca23214dd" y="217.942996"/>
     <use style="fill:#0000ff;stroke:#0000ff;stroke-width:1.5;" x="289.882706" xlink:href="#m1ca23214dd" y="366.903998"/>
     <use style="fill:#0000ff;stroke:#0000ff;stroke-width:1.5;" x="159.629076" xlink:href="#m1ca23214dd" y="330.929192"/>
     <use style="fill:#0000ff;stroke:#0000ff;stroke-width:1.5;" x="314.872131" xlink:href="#m1ca23214dd" y="263.832223"/>
     <use style="fill:#0000ff;stroke:#0000ff;stroke-width:1.5;" x="342.487126" xlink:href="#m1ca23214dd" y="330.147632"/>
     <use style="fill:#0000ff;stroke:#0000ff;stroke-width:1.5;" x="259.725488" xlink:href="#m1ca23214dd" y="187.683863"/>
     <use style="fill:#0000ff;stroke:#0000ff;stroke-width:1.5;" x="152.874043" xlink:href="#m1ca23214dd" y="220.236591"/>
     <use style="fill:#0000ff;stroke:#0000ff;stroke-width:1.5;" x="312.408813" xlink:href="#m1ca23214dd" y="325.083881"/>
     <use style="fill:#0000ff;stroke:#0000ff;stroke-width:1.5;" x="218.674639" xlink:href="#m1ca23214dd" y="165.272451"/>
     <use style="fill:#0000ff;stroke:#0000ff;stroke-width:1.5;" x="298.461659" xlink:href="#m1ca23214dd" y="193.202642"/>
     <use style="fill:#0000ff;stroke:#0000ff;stroke-width:1.5;" x="309.044627" xlink:href="#m1ca23214dd" y="243.33141"/>
     <use style="fill:#0000ff;stroke:#0000ff;stroke-width:1.5;" x="269.918156" xlink:href="#m1ca23214dd" y="322.992616"/>
     <use style="fill:#0000ff;stroke:#0000ff;stroke-width:1.5;" x="254.517437" xlink:href="#m1ca23214dd" y="341.339968"/>
     <use style="fill:#0000ff;stroke:#0000ff;stroke-width:1.5;" x="300.407929" xlink:href="#m1ca23214dd" y="338.025021"/>
     <use style="fill:#0000ff;stroke:#0000ff;stroke-width:1.5;" x="284.28208" xlink:href="#m1ca23214dd" y="247.67832"/>
     <use style="fill:#0000ff;stroke:#0000ff;stroke-width:1.5;" x="269.241683" xlink:href="#m1ca23214dd" y="314.759778"/>
     <use style="fill:#0000ff;stroke:#0000ff;stroke-width:1.5;" x="262.795471" xlink:href="#m1ca23214dd" y="209.089232"/>
     <use style="fill:#0000ff;stroke:#0000ff;stroke-width:1.5;" x="297.525805" xlink:href="#m1ca23214dd" y="301.529689"/>
     <use style="fill:#0000ff;stroke:#0000ff;stroke-width:1.5;" x="252.655987" xlink:href="#m1ca23214dd" y="334.22356"/>
     <use style="fill:#0000ff;stroke:#0000ff;stroke-width:1.5;" x="284.138602" xlink:href="#m1ca23214dd" y="301.597844"/>
     <use style="fill:#0000ff;stroke:#0000ff;stroke-width:1.5;" x="355.995231" xlink:href="#m1ca23214dd" y="257.607371"/>
     <use style="fill:#0000ff;stroke:#0000ff;stroke-width:1.5;" x="270.361963" xlink:href="#m1ca23214dd" y="301.11063"/>
     <use style="fill:#0000ff;stroke:#0000ff;stroke-width:1.5;" x="378.519389" xlink:href="#m1ca23214dd" y="229.188862"/>
     <use style="fill:#0000ff;stroke:#0000ff;stroke-width:1.5;" x="309.725327" xlink:href="#m1ca23214dd" y="201.390461"/>
     <use style="fill:#0000ff;stroke:#0000ff;stroke-width:1.5;" x="303.25493" xlink:href="#m1ca23214dd" y="302.811572"/>
     <use style="fill:#0000ff;stroke:#0000ff;stroke-width:1.5;" x="276.291337" xlink:href="#m1ca23214dd" y="172.318288"/>
     <use style="fill:#0000ff;stroke:#0000ff;stroke-width:1.5;" x="269.020931" xlink:href="#m1ca23214dd" y="285.477859"/>
     <use style="fill:#0000ff;stroke:#0000ff;stroke-width:1.5;" x="254.21317" xlink:href="#m1ca23214dd" y="296.446154"/>
     <use style="fill:#0000ff;stroke:#0000ff;stroke-width:1.5;" x="278.833033" xlink:href="#m1ca23214dd" y="221.515128"/>
     <use style="fill:#0000ff;stroke:#0000ff;stroke-width:1.5;" x="259.230796" xlink:href="#m1ca23214dd" y="253.683107"/>
     <use style="fill:#0000ff;stroke:#0000ff;stroke-width:1.5;" x="293.012783" xlink:href="#m1ca23214dd" y="288.831403"/>
     <use style="fill:#0000ff;stroke:#0000ff;stroke-width:1.5;" x="204.100464" xlink:href="#m1ca23214dd" y="326.980377"/>
     <use style="fill:#0000ff;stroke:#0000ff;stroke-width:1.5;" x="267.772195" xlink:href="#m1ca23214dd" y="277.313052"/>
     <use style="fill:#0000ff;stroke:#0000ff;stroke-width:1.5;" x="281.992503" xlink:href="#m1ca23214dd" y="359.30062"/>
     <use style="fill:#0000ff;stroke:#0000ff;stroke-width:1.5;" x="273.441121" xlink:href="#m1ca23214dd" y="203.467773"/>
     <use style="fill:#0000ff;stroke:#0000ff;stroke-width:1.5;" x="209.374603" xlink:href="#m1ca23214dd" y="219.60683"/>
     <use style="fill:#0000ff;stroke:#0000ff;stroke-width:1.5;" x="282.51962" xlink:href="#m1ca23214dd" y="322.07235"/>
     <use style="fill:#0000ff;stroke:#0000ff;stroke-width:1.5;" x="320.845827" xlink:href="#m1ca23214dd" y="307.966726"/>
     <use style="fill:#0000ff;stroke:#0000ff;stroke-width:1.5;" x="313.92387" xlink:href="#m1ca23214dd" y="334.997403"/>
     <use style="fill:#0000ff;stroke:#0000ff;stroke-width:1.5;" x="247.881994" xlink:href="#m1ca23214dd" y="309.631207"/>
     <use style="fill:#0000ff;stroke:#0000ff;stroke-width:1.5;" x="323.217034" xlink:href="#m1ca23214dd" y="303.733946"/>
     <use style="fill:#0000ff;stroke:#0000ff;stroke-width:1.5;" x="283.696664" xlink:href="#m1ca23214dd" y="267.988516"/>
     <use style="fill:#0000ff;stroke:#0000ff;stroke-width:1.5;" x="309.080446" xlink:href="#m1ca23214dd" y="177.720723"/>
     <use style="fill:#0000ff;stroke:#0000ff;stroke-width:1.5;" x="337.802975" xlink:href="#m1ca23214dd" y="330.673823"/>
     <use style="fill:#0000ff;stroke:#0000ff;stroke-width:1.5;" x="286.58786" xlink:href="#m1ca23214dd" y="270.459708"/>
     <use style="fill:#0000ff;stroke:#0000ff;stroke-width:1.5;" x="269.694483" xlink:href="#m1ca23214dd" y="324.975828"/>
     <use style="fill:#0000ff;stroke:#0000ff;stroke-width:1.5;" x="220.166547" xlink:href="#m1ca23214dd" y="190.255002"/>
     <use style="fill:#0000ff;stroke:#0000ff;stroke-width:1.5;" x="283.718142" xlink:href="#m1ca23214dd" y="378.234365"/>
     <use style="fill:#0000ff;stroke:#0000ff;stroke-width:1.5;" x="260.21896" xlink:href="#m1ca23214dd" y="299.394705"/>
     <use style="fill:#0000ff;stroke:#0000ff;stroke-width:1.5;" x="311.344439" xlink:href="#m1ca23214dd" y="247.619681"/>
     <use style="fill:#0000ff;stroke:#0000ff;stroke-width:1.5;" x="260.106328" xlink:href="#m1ca23214dd" y="255.628286"/>
     <use style="fill:#0000ff;stroke:#0000ff;stroke-width:1.5;" x="418.904064" xlink:href="#m1ca23214dd" y="295.685711"/>
     <use style="fill:#0000ff;stroke:#0000ff;stroke-width:1.5;" x="278.862124" xlink:href="#m1ca23214dd" y="196.654658"/>
     <use style="fill:#0000ff;stroke:#0000ff;stroke-width:1.5;" x="264.256892" xlink:href="#m1ca23214dd" y="247.527796"/>
     <use style="fill:#0000ff;stroke:#0000ff;stroke-width:1.5;" x="770.945192" xlink:href="#m1ca23214dd" y="287.442197"/>
     <use style="fill:#0000ff;stroke:#0000ff;stroke-width:1.5;" x="259.167853" xlink:href="#m1ca23214dd" y="274.193354"/>
     <use style="fill:#0000ff;stroke:#0000ff;stroke-width:1.5;" x="331.869479" xlink:href="#m1ca23214dd" y="320.152813"/>
     <use style="fill:#0000ff;stroke:#0000ff;stroke-width:1.5;" x="327.728952" xlink:href="#m1ca23214dd" y="248.008559"/>
     <use style="fill:#0000ff;stroke:#0000ff;stroke-width:1.5;" x="265.284351" xlink:href="#m1ca23214dd" y="226.032176"/>
     <use style="fill:#0000ff;stroke:#0000ff;stroke-width:1.5;" x="274.520259" xlink:href="#m1ca23214dd" y="382.868975"/>
     <use style="fill:#0000ff;stroke:#0000ff;stroke-width:1.5;" x="276.859874" xlink:href="#m1ca23214dd" y="268.955711"/>
     <use style="fill:#0000ff;stroke:#0000ff;stroke-width:1.5;" x="316.213994" xlink:href="#m1ca23214dd" y="248.619816"/>
     <use style="fill:#0000ff;stroke:#0000ff;stroke-width:1.5;" x="320.612097" xlink:href="#m1ca23214dd" y="298.249774"/>
     <use style="fill:#0000ff;stroke:#0000ff;stroke-width:1.5;" x="356.024769" xlink:href="#m1ca23214dd" y="264.141208"/>
     <use style="fill:#0000ff;stroke:#0000ff;stroke-width:1.5;" x="227.922617" xlink:href="#m1ca23214dd" y="329.339054"/>
     <use style="fill:#0000ff;stroke:#0000ff;stroke-width:1.5;" x="354.114602" xlink:href="#m1ca23214dd" y="228.497199"/>
     <use style="fill:#0000ff;stroke:#0000ff;stroke-width:1.5;" x="314.358609" xlink:href="#m1ca23214dd" y="340.623466"/>
     <use style="fill:#0000ff;stroke:#0000ff;stroke-width:1.5;" x="251.6769" xlink:href="#m1ca23214dd" y="315.161113"/>
     <use style="fill:#0000ff;stroke:#0000ff;stroke-width:1.5;" x="300.030637" xlink:href="#m1ca23214dd" y="280.903197"/>
     <use style="fill:#0000ff;stroke:#0000ff;stroke-width:1.5;" x="248.321555" xlink:href="#m1ca23214dd" y="330.38195"/>
     <use style="fill:#0000ff;stroke:#0000ff;stroke-width:1.5;" x="206.213916" xlink:href="#m1ca23214dd" y="262.47083"/>
     <use style="fill:#0000ff;stroke:#0000ff;stroke-width:1.5;" x="275.838935" xlink:href="#m1ca23214dd" y="302.769313"/>
     <use style="fill:#0000ff;stroke:#0000ff;stroke-width:1.5;" x="327.057214" xlink:href="#m1ca23214dd" y="238.936029"/>
     <use style="fill:#0000ff;stroke:#0000ff;stroke-width:1.5;" x="351.863681" xlink:href="#m1ca23214dd" y="290.623604"/>
     <use style="fill:#0000ff;stroke:#0000ff;stroke-width:1.5;" x="350.919613" xlink:href="#m1ca23214dd" y="275.479846"/>
     <use style="fill:#0000ff;stroke:#0000ff;stroke-width:1.5;" x="216.735164" xlink:href="#m1ca23214dd" y="253.845768"/>
     <use style="fill:#0000ff;stroke:#0000ff;stroke-width:1.5;" x="298.184063" xlink:href="#m1ca23214dd" y="286.102563"/>
     <use style="fill:#0000ff;stroke:#0000ff;stroke-width:1.5;" x="290.556502" xlink:href="#m1ca23214dd" y="353.014739"/>
     <use style="fill:#0000ff;stroke:#0000ff;stroke-width:1.5;" x="273.801847" xlink:href="#m1ca23214dd" y="256.95437"/>
     <use style="fill:#0000ff;stroke:#0000ff;stroke-width:1.5;" x="262.84802" xlink:href="#m1ca23214dd" y="253.376534"/>
     <use style="fill:#0000ff;stroke:#0000ff;stroke-width:1.5;" x="284.930011" xlink:href="#m1ca23214dd" y="244.934353"/>
     <use style="fill:#0000ff;stroke:#0000ff;stroke-width:1.5;" x="252.752076" xlink:href="#m1ca23214dd" y="319.761361"/>
     <use style="fill:#0000ff;stroke:#0000ff;stroke-width:1.5;" x="332.704734" xlink:href="#m1ca23214dd" y="290.147064"/>
     <use style="fill:#0000ff;stroke:#0000ff;stroke-width:1.5;" x="277.77785" xlink:href="#m1ca23214dd" y="248.041913"/>
     <use style="fill:#0000ff;stroke:#0000ff;stroke-width:1.5;" x="262.455252" xlink:href="#m1ca23214dd" y="242.010765"/>
     <use style="fill:#0000ff;stroke:#0000ff;stroke-width:1.5;" x="249.948228" xlink:href="#m1ca23214dd" y="350.260309"/>
     <use style="fill:#0000ff;stroke:#0000ff;stroke-width:1.5;" x="310.134053" xlink:href="#m1ca23214dd" y="305.64842"/>
     <use style="fill:#0000ff;stroke:#0000ff;stroke-width:1.5;" x="371.522698" xlink:href="#m1ca23214dd" y="244.974146"/>
     <use style="fill:#0000ff;stroke:#0000ff;stroke-width:1.5;" x="320.624849" xlink:href="#m1ca23214dd" y="242.222091"/>
     <use style="fill:#0000ff;stroke:#0000ff;stroke-width:1.5;" x="305.909634" xlink:href="#m1ca23214dd" y="218.571529"/>
     <use style="fill:#0000ff;stroke:#0000ff;stroke-width:1.5;" x="314.042624" xlink:href="#m1ca23214dd" y="187.677376"/>
     <use style="fill:#0000ff;stroke:#0000ff;stroke-width:1.5;" x="338.969986" xlink:href="#m1ca23214dd" y="237.697005"/>
     <use style="fill:#0000ff;stroke:#0000ff;stroke-width:1.5;" x="275.956111" xlink:href="#m1ca23214dd" y="368.019173"/>
     <use style="fill:#0000ff;stroke:#0000ff;stroke-width:1.5;" x="294.743847" xlink:href="#m1ca23214dd" y="376.84067"/>
     <use style="fill:#0000ff;stroke:#0000ff;stroke-width:1.5;" x="319.926286" xlink:href="#m1ca23214dd" y="360.858921"/>
     <use style="fill:#0000ff;stroke:#0000ff;stroke-width:1.5;" x="310.916008" xlink:href="#m1ca23214dd" y="349.696732"/>
     <use style="fill:#0000ff;stroke:#0000ff;stroke-width:1.5;" x="321.143188" xlink:href="#m1ca23214dd" y="263.374615"/>
     <use style="fill:#0000ff;stroke:#0000ff;stroke-width:1.5;" x="299.913381" xlink:href="#m1ca23214dd" y="331.496041"/>
     <use style="fill:#0000ff;stroke:#0000ff;stroke-width:1.5;" x="352.84528" xlink:href="#m1ca23214dd" y="256.831296"/>
     <use style="fill:#0000ff;stroke:#0000ff;stroke-width:1.5;" x="327.680544" xlink:href="#m1ca23214dd" y="216.038434"/>
     <use style="fill:#0000ff;stroke:#0000ff;stroke-width:1.5;" x="181.869279" xlink:href="#m1ca23214dd" y="234.493228"/>
     <use style="fill:#0000ff;stroke:#0000ff;stroke-width:1.5;" x="330.78817" xlink:href="#m1ca23214dd" y="377.319132"/>
     <use style="fill:#0000ff;stroke:#0000ff;stroke-width:1.5;" x="325.399933" xlink:href="#m1ca23214dd" y="244.496057"/>
     <use style="fill:#0000ff;stroke:#0000ff;stroke-width:1.5;" x="281.008677" xlink:href="#m1ca23214dd" y="145.588613"/>
     <use style="fill:#0000ff;stroke:#0000ff;stroke-width:1.5;" x="258.091776" xlink:href="#m1ca23214dd" y="292.734166"/>
     <use style="fill:#0000ff;stroke:#0000ff;stroke-width:1.5;" x="350.719834" xlink:href="#m1ca23214dd" y="294.420713"/>
     <use style="fill:#0000ff;stroke:#0000ff;stroke-width:1.5;" x="300.57706" xlink:href="#m1ca23214dd" y="309.961203"/>
     <use style="fill:#0000ff;stroke:#0000ff;stroke-width:1.5;" x="328.949062" xlink:href="#m1ca23214dd" y="242.602416"/>
     <use style="fill:#0000ff;stroke:#0000ff;stroke-width:1.5;" x="249.506767" xlink:href="#m1ca23214dd" y="362.297913"/>
     <use style="fill:#0000ff;stroke:#0000ff;stroke-width:1.5;" x="322.903235" xlink:href="#m1ca23214dd" y="281.43799"/>
     <use style="fill:#0000ff;stroke:#0000ff;stroke-width:1.5;" x="312.057336" xlink:href="#m1ca23214dd" y="286.876792"/>
     <use style="fill:#0000ff;stroke:#0000ff;stroke-width:1.5;" x="318.319959" xlink:href="#m1ca23214dd" y="331.507402"/>
     <use style="fill:#0000ff;stroke:#0000ff;stroke-width:1.5;" x="251.824512" xlink:href="#m1ca23214dd" y="383.184235"/>
     <use style="fill:#0000ff;stroke:#0000ff;stroke-width:1.5;" x="327.773267" xlink:href="#m1ca23214dd" y="238.941652"/>
     <use style="fill:#0000ff;stroke:#0000ff;stroke-width:1.5;" x="301.8272" xlink:href="#m1ca23214dd" y="222.630071"/>
     <use style="fill:#0000ff;stroke:#0000ff;stroke-width:1.5;" x="294.72992" xlink:href="#m1ca23214dd" y="244.946563"/>
     <use style="fill:#0000ff;stroke:#0000ff;stroke-width:1.5;" x="238.23217" xlink:href="#m1ca23214dd" y="338.968539"/>
     <use style="fill:#0000ff;stroke:#0000ff;stroke-width:1.5;" x="348.519497" xlink:href="#m1ca23214dd" y="218.920085"/>
     <use style="fill:#0000ff;stroke:#0000ff;stroke-width:1.5;" x="235.53669" xlink:href="#m1ca23214dd" y="254.49504"/>
     <use style="fill:#0000ff;stroke:#0000ff;stroke-width:1.5;" x="266.65303" xlink:href="#m1ca23214dd" y="256.729706"/>
     <use style="fill:#0000ff;stroke:#0000ff;stroke-width:1.5;" x="341.631131" xlink:href="#m1ca23214dd" y="258.293341"/>
     <use style="fill:#0000ff;stroke:#0000ff;stroke-width:1.5;" x="282.765504" xlink:href="#m1ca23214dd" y="285.246442"/>
     <use style="fill:#0000ff;stroke:#0000ff;stroke-width:1.5;" x="286.284604" xlink:href="#m1ca23214dd" y="208.628599"/>
     <use style="fill:#0000ff;stroke:#0000ff;stroke-width:1.5;" x="300.652299" xlink:href="#m1ca23214dd" y="306.769718"/>
     <use style="fill:#0000ff;stroke:#0000ff;stroke-width:1.5;" x="198.630084" xlink:href="#m1ca23214dd" y="259.589202"/>
     <use style="fill:#0000ff;stroke:#0000ff;stroke-width:1.5;" x="281.609224" xlink:href="#m1ca23214dd" y="324.653906"/>
     <use style="fill:#0000ff;stroke:#0000ff;stroke-width:1.5;" x="320.729267" xlink:href="#m1ca23214dd" y="335.138081"/>
     <use style="fill:#0000ff;stroke:#0000ff;stroke-width:1.5;" x="261.795768" xlink:href="#m1ca23214dd" y="283.053542"/>
     <use style="fill:#0000ff;stroke:#0000ff;stroke-width:1.5;" x="296.136212" xlink:href="#m1ca23214dd" y="178.203851"/>
     <use style="fill:#0000ff;stroke:#0000ff;stroke-width:1.5;" x="286.413654" xlink:href="#m1ca23214dd" y="231.45721"/>
     <use style="fill:#0000ff;stroke:#0000ff;stroke-width:1.5;" x="273.565451" xlink:href="#m1ca23214dd" y="312.037812"/>
     <use style="fill:#0000ff;stroke:#0000ff;stroke-width:1.5;" x="414.03721" xlink:href="#m1ca23214dd" y="374.672966"/>
     <use style="fill:#0000ff;stroke:#0000ff;stroke-width:1.5;" x="289.786466" xlink:href="#m1ca23214dd" y="209.05288"/>
     <use style="fill:#0000ff;stroke:#0000ff;stroke-width:1.5;" x="296.550357" xlink:href="#m1ca23214dd" y="283.151778"/>
     <use style="fill:#0000ff;stroke:#0000ff;stroke-width:1.5;" x="304.702097" xlink:href="#m1ca23214dd" y="305.856774"/>
     <use style="fill:#0000ff;stroke:#0000ff;stroke-width:1.5;" x="398.021694" xlink:href="#m1ca23214dd" y="313.044477"/>
     <use style="fill:#0000ff;stroke:#0000ff;stroke-width:1.5;" x="264.004042" xlink:href="#m1ca23214dd" y="301.207865"/>
     <use style="fill:#0000ff;stroke:#0000ff;stroke-width:1.5;" x="334.315805" xlink:href="#m1ca23214dd" y="335.49412"/>
     <use style="fill:#0000ff;stroke:#0000ff;stroke-width:1.5;" x="239.542758" xlink:href="#m1ca23214dd" y="319.775933"/>
     <use style="fill:#0000ff;stroke:#0000ff;stroke-width:1.5;" x="344.988023" xlink:href="#m1ca23214dd" y="241.990408"/>
     <use style="fill:#0000ff;stroke:#0000ff;stroke-width:1.5;" x="251.91211" xlink:href="#m1ca23214dd" y="350.493862"/>
     <use style="fill:#0000ff;stroke:#0000ff;stroke-width:1.5;" x="252.439882" xlink:href="#m1ca23214dd" y="263.973436"/>
     <use style="fill:#0000ff;stroke:#0000ff;stroke-width:1.5;" x="363.355193" xlink:href="#m1ca23214dd" y="225.158836"/>
     <use style="fill:#0000ff;stroke:#0000ff;stroke-width:1.5;" x="339.500587" xlink:href="#m1ca23214dd" y="368.874163"/>
     <use style="fill:#0000ff;stroke:#0000ff;stroke-width:1.5;" x="290.132894" xlink:href="#m1ca23214dd" y="270.880269"/>
     <use style="fill:#0000ff;stroke:#0000ff;stroke-width:1.5;" x="290.160469" xlink:href="#m1ca23214dd" y="345.865058"/>
     <use style="fill:#0000ff;stroke:#0000ff;stroke-width:1.5;" x="286.462991" xlink:href="#m1ca23214dd" y="239.205009"/>
     <use style="fill:#0000ff;stroke:#0000ff;stroke-width:1.5;" x="284.259274" xlink:href="#m1ca23214dd" y="248.758669"/>
     <use style="fill:#0000ff;stroke:#0000ff;stroke-width:1.5;" x="196.252065" xlink:href="#m1ca23214dd" y="282.768261"/>
     <use style="fill:#0000ff;stroke:#0000ff;stroke-width:1.5;" x="305.400717" xlink:href="#m1ca23214dd" y="289.817241"/>
     <use style="fill:#0000ff;stroke:#0000ff;stroke-width:1.5;" x="284.242245" xlink:href="#m1ca23214dd" y="254.52605"/>
     <use style="fill:#0000ff;stroke:#0000ff;stroke-width:1.5;" x="317.958087" xlink:href="#m1ca23214dd" y="297.319116"/>
     <use style="fill:#0000ff;stroke:#0000ff;stroke-width:1.5;" x="254.406611" xlink:href="#m1ca23214dd" y="239.946036"/>
     <use style="fill:#0000ff;stroke:#0000ff;stroke-width:1.5;" x="316.13372" xlink:href="#m1ca23214dd" y="304.075772"/>
     <use style="fill:#0000ff;stroke:#0000ff;stroke-width:1.5;" x="289.985951" xlink:href="#m1ca23214dd" y="266.13289"/>
     <use style="fill:#0000ff;stroke:#0000ff;stroke-width:1.5;" x="296.89182" xlink:href="#m1ca23214dd" y="217.203389"/>
     <use style="fill:#0000ff;stroke:#0000ff;stroke-width:1.5;" x="215.470238" xlink:href="#m1ca23214dd" y="334.176371"/>
     <use style="fill:#0000ff;stroke:#0000ff;stroke-width:1.5;" x="267.717126" xlink:href="#m1ca23214dd" y="261.252843"/>
     <use style="fill:#0000ff;stroke:#0000ff;stroke-width:1.5;" x="219.367119" xlink:href="#m1ca23214dd" y="255.814342"/>
     <use style="fill:#0000ff;stroke:#0000ff;stroke-width:1.5;" x="253.516774" xlink:href="#m1ca23214dd" y="332.886672"/>
     <use style="fill:#0000ff;stroke:#0000ff;stroke-width:1.5;" x="224.164151" xlink:href="#m1ca23214dd" y="241.346595"/>
     <use style="fill:#0000ff;stroke:#0000ff;stroke-width:1.5;" x="297.028101" xlink:href="#m1ca23214dd" y="162.04711"/>
     <use style="fill:#0000ff;stroke:#0000ff;stroke-width:1.5;" x="236.153032" xlink:href="#m1ca23214dd" y="271.690859"/>
     <use style="fill:#0000ff;stroke:#0000ff;stroke-width:1.5;" x="316.668128" xlink:href="#m1ca23214dd" y="291.24801"/>
     <use style="fill:#0000ff;stroke:#0000ff;stroke-width:1.5;" x="295.169875" xlink:href="#m1ca23214dd" y="159.079818"/>
     <use style="fill:#0000ff;stroke:#0000ff;stroke-width:1.5;" x="214.985762" xlink:href="#m1ca23214dd" y="236.828091"/>
     <use style="fill:#0000ff;stroke:#0000ff;stroke-width:1.5;" x="278.464966" xlink:href="#m1ca23214dd" y="271.156494"/>
     <use style="fill:#0000ff;stroke:#0000ff;stroke-width:1.5;" x="189.735252" xlink:href="#m1ca23214dd" y="320.352356"/>
     <use style="fill:#0000ff;stroke:#0000ff;stroke-width:1.5;" x="327.275848" xlink:href="#m1ca23214dd" y="387.939768"/>
     <use style="fill:#0000ff;stroke:#0000ff;stroke-width:1.5;" x="288.491642" xlink:href="#m1ca23214dd" y="302.61021"/>
     <use style="fill:#0000ff;stroke:#0000ff;stroke-width:1.5;" x="260.652735" xlink:href="#m1ca23214dd" y="321.169037"/>
     <use style="fill:#0000ff;stroke:#0000ff;stroke-width:1.5;" x="331.431992" xlink:href="#m1ca23214dd" y="223.122753"/>
     <use style="fill:#0000ff;stroke:#0000ff;stroke-width:1.5;" x="275.327692" xlink:href="#m1ca23214dd" y="264.933249"/>
     <use style="fill:#0000ff;stroke:#0000ff;stroke-width:1.5;" x="297.222498" xlink:href="#m1ca23214dd" y="247.942633"/>
     <use style="fill:#0000ff;stroke:#0000ff;stroke-width:1.5;" x="336.800898" xlink:href="#m1ca23214dd" y="289.806725"/>
     <use style="fill:#0000ff;stroke:#0000ff;stroke-width:1.5;" x="298.885254" xlink:href="#m1ca23214dd" y="235.268976"/>
     <use style="fill:#0000ff;stroke:#0000ff;stroke-width:1.5;" x="247.751793" xlink:href="#m1ca23214dd" y="304.657673"/>
     <use style="fill:#0000ff;stroke:#0000ff;stroke-width:1.5;" x="244.536945" xlink:href="#m1ca23214dd" y="255.368432"/>
     <use style="fill:#0000ff;stroke:#0000ff;stroke-width:1.5;" x="305.262743" xlink:href="#m1ca23214dd" y="312.940775"/>
     <use style="fill:#0000ff;stroke:#0000ff;stroke-width:1.5;" x="299.328953" xlink:href="#m1ca23214dd" y="209.880736"/>
     <use style="fill:#0000ff;stroke:#0000ff;stroke-width:1.5;" x="274.409753" xlink:href="#m1ca23214dd" y="264.35356"/>
     <use style="fill:#0000ff;stroke:#0000ff;stroke-width:1.5;" x="299.293363" xlink:href="#m1ca23214dd" y="230.46026"/>
     <use style="fill:#0000ff;stroke:#0000ff;stroke-width:1.5;" x="301.483308" xlink:href="#m1ca23214dd" y="376.632795"/>
     <use style="fill:#0000ff;stroke:#0000ff;stroke-width:1.5;" x="273.714058" xlink:href="#m1ca23214dd" y="234.760027"/>
     <use style="fill:#0000ff;stroke:#0000ff;stroke-width:1.5;" x="332.513263" xlink:href="#m1ca23214dd" y="205.95605"/>
     <use style="fill:#0000ff;stroke:#0000ff;stroke-width:1.5;" x="311.749411" xlink:href="#m1ca23214dd" y="317.317712"/>
     <use style="fill:#0000ff;stroke:#0000ff;stroke-width:1.5;" x="380.690784" xlink:href="#m1ca23214dd" y="195.197194"/>
     <use style="fill:#0000ff;stroke:#0000ff;stroke-width:1.5;" x="275.071764" xlink:href="#m1ca23214dd" y="296.508324"/>
     <use style="fill:#0000ff;stroke:#0000ff;stroke-width:1.5;" x="308.755157" xlink:href="#m1ca23214dd" y="206.347566"/>
     <use style="fill:#0000ff;stroke:#0000ff;stroke-width:1.5;" x="443.281039" xlink:href="#m1ca23214dd" y="296.801442"/>
     <use style="fill:#0000ff;stroke:#0000ff;stroke-width:1.5;" x="250.761312" xlink:href="#m1ca23214dd" y="294.997879"/>
     <use style="fill:#0000ff;stroke:#0000ff;stroke-width:1.5;" x="323.523143" xlink:href="#m1ca23214dd" y="274.294384"/>
     <use style="fill:#0000ff;stroke:#0000ff;stroke-width:1.5;" x="232.812029" xlink:href="#m1ca23214dd" y="259.118266"/>
     <use style="fill:#0000ff;stroke:#0000ff;stroke-width:1.5;" x="250.831222" xlink:href="#m1ca23214dd" y="310.374106"/>
     <use style="fill:#0000ff;stroke:#0000ff;stroke-width:1.5;" x="230.369527" xlink:href="#m1ca23214dd" y="289.238823"/>
     <use style="fill:#0000ff;stroke:#0000ff;stroke-width:1.5;" x="305.496544" xlink:href="#m1ca23214dd" y="159.599295"/>
     <use style="fill:#0000ff;stroke:#0000ff;stroke-width:1.5;" x="299.00643" xlink:href="#m1ca23214dd" y="233.790169"/>
     <use style="fill:#0000ff;stroke:#0000ff;stroke-width:1.5;" x="250.971111" xlink:href="#m1ca23214dd" y="220.022616"/>
     <use style="fill:#0000ff;stroke:#0000ff;stroke-width:1.5;" x="101.743103" xlink:href="#m1ca23214dd" y="353.945143"/>
     <use style="fill:#0000ff;stroke:#0000ff;stroke-width:1.5;" x="315.261074" xlink:href="#m1ca23214dd" y="330.240276"/>
     <use style="fill:#0000ff;stroke:#0000ff;stroke-width:1.5;" x="270.807961" xlink:href="#m1ca23214dd" y="217.496179"/>
     <use style="fill:#0000ff;stroke:#0000ff;stroke-width:1.5;" x="340.017918" xlink:href="#m1ca23214dd" y="295.562295"/>
     <use style="fill:#0000ff;stroke:#0000ff;stroke-width:1.5;" x="277.661493" xlink:href="#m1ca23214dd" y="255.661291"/>
     <use style="fill:#0000ff;stroke:#0000ff;stroke-width:1.5;" x="303.285816" xlink:href="#m1ca23214dd" y="309.723387"/>
     <use style="fill:#0000ff;stroke:#0000ff;stroke-width:1.5;" x="304.639955" xlink:href="#m1ca23214dd" y="196.425319"/>
     <use style="fill:#0000ff;stroke:#0000ff;stroke-width:1.5;" x="316.266212" xlink:href="#m1ca23214dd" y="276.362022"/>
     <use style="fill:#0000ff;stroke:#0000ff;stroke-width:1.5;" x="570.804834" xlink:href="#m1ca23214dd" y="255.433429"/>
     <use style="fill:#0000ff;stroke:#0000ff;stroke-width:1.5;" x="277.811918" xlink:href="#m1ca23214dd" y="231.519128"/>
     <use style="fill:#0000ff;stroke:#0000ff;stroke-width:1.5;" x="315.188817" xlink:href="#m1ca23214dd" y="269.169192"/>
     <use style="fill:#0000ff;stroke:#0000ff;stroke-width:1.5;" x="296.757699" xlink:href="#m1ca23214dd" y="238.040451"/>
     <use style="fill:#0000ff;stroke:#0000ff;stroke-width:1.5;" x="346.71172" xlink:href="#m1ca23214dd" y="261.809123"/>
     <use style="fill:#0000ff;stroke:#0000ff;stroke-width:1.5;" x="236.015026" xlink:href="#m1ca23214dd" y="358.361032"/>
     <use style="fill:#0000ff;stroke:#0000ff;stroke-width:1.5;" x="273.511153" xlink:href="#m1ca23214dd" y="276.813567"/>
     <use style="fill:#0000ff;stroke:#0000ff;stroke-width:1.5;" x="530.274568" xlink:href="#m1ca23214dd" y="420.651789"/>
     <use style="fill:#0000ff;stroke:#0000ff;stroke-width:1.5;" x="282.542305" xlink:href="#m1ca23214dd" y="293.95839"/>
    </g>
   </g>
   <g id="PathCollection_2">
    <defs>
     <path d="M 0 3 
C 0.795609 3 1.55874 2.683901 2.12132 2.12132 
C 2.683901 1.55874 3 0.795609 3 0 
C 3 -0.795609 2.683901 -1.55874 2.12132 -2.12132 
C 1.55874 -2.683901 0.795609 -3 0 -3 
C -0.795609 -3 -1.55874 -2.683901 -2.12132 -2.12132 
C -2.683901 -1.55874 -3 -0.795609 -3 0 
C -3 0.795609 -2.683901 1.55874 -2.12132 2.12132 
C -1.55874 2.683901 -0.795609 3 0 3 
z
" id="m37cb00fe65" style="stroke:#ff0000;"/>
    </defs>
    <g clip-path="url(#p17a9f33fde)">
     <use style="fill:#ff0000;stroke:#ff0000;" x="308.171125" xlink:href="#m37cb00fe65" y="277.79285"/>
    </g>
   </g>
   <g id="patch_3">
    <path clip-path="url(#p17a9f33fde)" d="M 308.171125 395.288425 
C 339.511352 395.288425 369.572184 382.90835 391.733071 360.874768 
C 413.893958 338.841186 426.345563 308.953041 426.345563 277.79285 
C 426.345563 246.632659 413.893958 216.744514 391.733071 194.710932 
C 369.572184 172.67735 339.511352 160.297275 308.171125 160.297275 
C 276.830898 160.297275 246.770066 172.67735 224.609179 194.710932 
C 202.448292 216.744514 189.996688 246.632659 189.996688 277.79285 
C 189.996688 308.953041 202.448292 338.841186 224.609179 360.874768 
C 246.770066 382.90835 276.830898 395.288425 308.171125 395.288425 
z
" style="fill:none;stroke:#ff0000;stroke-linejoin:miter;"/>
   </g>
   <g id="matplotlib.axis_1">
    <g id="xtick_1">
     <g id="line2d_1">
      <path clip-path="url(#p17a9f33fde)" d="M 71.82225 512.784 
L 71.82225 42.8017 
" style="fill:none;stroke:#b0b0b0;stroke-linecap:square;stroke-width:0.8;"/>
     </g>
     <g id="line2d_2">
      <defs>
       <path d="M 0 0 
L 0 3.5 
" id="m657851f5c4" style="stroke:#000000;stroke-width:0.8;"/>
      </defs>
      <g>
       <use style="stroke:#000000;stroke-width:0.8;" x="71.82225" xlink:href="#m657851f5c4" y="512.784"/>
      </g>
     </g>
     <g id="text_1">
      <!-- −15 -->
      <defs>
       <path d="M 3 22 
L 3 28.59375 
L 53.40625 28.59375 
L 53.40625 22 
z
" id="FreeSerif-8722"/>
       <path d="M 18.296875 59.296875 
Q 16.5 59.296875 11.09375 57.09375 
L 11.09375 58.5 
L 29.09375 67.59375 
L 29.90625 67.40625 
L 29.90625 7.40625 
Q 29.90625 3.796875 31.703125 2.6875 
Q 33.5 1.59375 39.40625 1.5 
L 39.40625 0 
L 11.796875 0 
L 11.796875 1.5 
Q 17.40625 1.703125 19.34375 3.140625 
Q 21.296875 4.59375 21.296875 9.296875 
L 21.296875 54.59375 
Q 21.296875 59.296875 18.296875 59.296875 
z
" id="FreeSerif-49"/>
       <path d="M 35.703125 19.40625 
Q 35.703125 24.703125 33.34375 28.796875 
Q 31 32.90625 27.640625 35.15625 
Q 24.296875 37.40625 20.140625 38.84375 
Q 16 40.296875 12.953125 40.75 
Q 9.90625 41.203125 7.59375 41.203125 
Q 6.40625 41.203125 6.40625 42 
Q 6.40625 42.296875 6.5 42.5 
L 17.40625 66.203125 
L 38.296875 66.203125 
Q 39.90625 66.203125 40.84375 66.703125 
Q 41.796875 67.203125 42.90625 68.796875 
L 43.796875 68.09375 
L 40 59.203125 
Q 39.59375 58.296875 37.703125 58.296875 
L 18.09375 58.296875 
L 13.90625 49.796875 
Q 28.5 47.203125 35.59375 41.34375 
Q 42.703125 35.5 42.703125 24.203125 
Q 42.703125 18.296875 40.84375 13.6875 
Q 39 9.09375 36.140625 6.296875 
Q 33.296875 3.5 29.546875 1.703125 
Q 25.796875 -0.09375 22.34375 -0.75 
Q 18.90625 -1.40625 15.40625 -1.40625 
Q 9.796875 -1.40625 6.5 0.25 
Q 3.203125 1.90625 3.203125 4.796875 
Q 3.203125 8.5 7.5 8.5 
Q 10.296875 8.5 14.75 5.390625 
Q 19.203125 2.296875 21.796875 2.296875 
Q 27.703125 2.296875 31.703125 7.25 
Q 35.703125 12.203125 35.703125 19.40625 
z
" id="FreeSerif-53"/>
      </defs>
      <g transform="translate(57.745688 532.077437)scale(0.18 -0.18)">
       <use xlink:href="#FreeSerif-8722"/>
       <use x="56.399994" xlink:href="#FreeSerif-49"/>
       <use x="106.399979" xlink:href="#FreeSerif-53"/>
      </g>
     </g>
    </g>
    <g id="xtick_2">
     <g id="line2d_3">
      <path clip-path="url(#p17a9f33fde)" d="M 150.605208 512.784 
L 150.605208 42.8017 
" style="fill:none;stroke:#b0b0b0;stroke-linecap:square;stroke-width:0.8;"/>
     </g>
     <g id="line2d_4">
      <g>
       <use style="stroke:#000000;stroke-width:0.8;" x="150.605208" xlink:href="#m657851f5c4" y="512.784"/>
      </g>
     </g>
     <g id="text_2">
      <!-- −10 -->
      <defs>
       <path d="M 47.59375 17.796875 
Q 35.203125 -1.40625 25 -1.40625 
Q 14.796875 -1.40625 8.59375 8.390625 
Q 2.40625 18.203125 2.40625 33.59375 
Q 2.40625 48.09375 8.59375 57.84375 
Q 14.796875 67.59375 25.40625 67.59375 
Q 35.203125 67.59375 41.390625 58 
Q 47.59375 48.40625 47.59375 33 
Q 47.59375 17.796875 35.203125 -1.40625 
z
M 25.09375 65 
Q 12 65 12 32.703125 
Q 12 1.203125 25 1.203125 
Q 38 1.203125 38 32.796875 
Q 38 48.5 34.703125 56.75 
Q 31.40625 65 25.09375 65 
z
" id="FreeSerif-48"/>
      </defs>
      <g transform="translate(136.528646 532.077437)scale(0.18 -0.18)">
       <use xlink:href="#FreeSerif-8722"/>
       <use x="56.399994" xlink:href="#FreeSerif-49"/>
       <use x="106.399979" xlink:href="#FreeSerif-48"/>
      </g>
     </g>
    </g>
    <g id="xtick_3">
     <g id="line2d_5">
      <path clip-path="url(#p17a9f33fde)" d="M 229.388167 512.784 
L 229.388167 42.8017 
" style="fill:none;stroke:#b0b0b0;stroke-linecap:square;stroke-width:0.8;"/>
     </g>
     <g id="line2d_6">
      <g>
       <use style="stroke:#000000;stroke-width:0.8;" x="229.388167" xlink:href="#m657851f5c4" y="512.784"/>
      </g>
     </g>
     <g id="text_3">
      <!-- −5 -->
      <g transform="translate(219.811604 532.077437)scale(0.18 -0.18)">
       <use xlink:href="#FreeSerif-8722"/>
       <use x="56.399994" xlink:href="#FreeSerif-53"/>
      </g>
     </g>
    </g>
    <g id="xtick_4">
     <g id="line2d_7">
      <path clip-path="url(#p17a9f33fde)" d="M 308.171125 512.784 
L 308.171125 42.8017 
" style="fill:none;stroke:#b0b0b0;stroke-linecap:square;stroke-width:0.8;"/>
     </g>
     <g id="line2d_8">
      <g>
       <use style="stroke:#000000;stroke-width:0.8;" x="308.171125" xlink:href="#m657851f5c4" y="512.784"/>
      </g>
     </g>
     <g id="text_4">
      <!-- 0 -->
      <g transform="translate(303.671125 532.077437)scale(0.18 -0.18)">
       <use xlink:href="#FreeSerif-48"/>
      </g>
     </g>
    </g>
    <g id="xtick_5">
     <g id="line2d_9">
      <path clip-path="url(#p17a9f33fde)" d="M 386.954083 512.784 
L 386.954083 42.8017 
" style="fill:none;stroke:#b0b0b0;stroke-linecap:square;stroke-width:0.8;"/>
     </g>
     <g id="line2d_10">
      <g>
       <use style="stroke:#000000;stroke-width:0.8;" x="386.954083" xlink:href="#m657851f5c4" y="512.784"/>
      </g>
     </g>
     <g id="text_5">
      <!-- 5 -->
      <g transform="translate(382.454083 532.077437)scale(0.18 -0.18)">
       <use xlink:href="#FreeSerif-53"/>
      </g>
     </g>
    </g>
    <g id="xtick_6">
     <g id="line2d_11">
      <path clip-path="url(#p17a9f33fde)" d="M 465.737042 512.784 
L 465.737042 42.8017 
" style="fill:none;stroke:#b0b0b0;stroke-linecap:square;stroke-width:0.8;"/>
     </g>
     <g id="line2d_12">
      <g>
       <use style="stroke:#000000;stroke-width:0.8;" x="465.737042" xlink:href="#m657851f5c4" y="512.784"/>
      </g>
     </g>
     <g id="text_6">
      <!-- 10 -->
      <g transform="translate(456.737042 532.077437)scale(0.18 -0.18)">
       <use xlink:href="#FreeSerif-49"/>
       <use x="49.999985" xlink:href="#FreeSerif-48"/>
      </g>
     </g>
    </g>
    <g id="xtick_7">
     <g id="line2d_13">
      <path clip-path="url(#p17a9f33fde)" d="M 544.52 512.784 
L 544.52 42.8017 
" style="fill:none;stroke:#b0b0b0;stroke-linecap:square;stroke-width:0.8;"/>
     </g>
     <g id="line2d_14">
      <g>
       <use style="stroke:#000000;stroke-width:0.8;" x="544.52" xlink:href="#m657851f5c4" y="512.784"/>
      </g>
     </g>
     <g id="text_7">
      <!-- 15 -->
      <g transform="translate(535.52 532.077437)scale(0.18 -0.18)">
       <use xlink:href="#FreeSerif-49"/>
       <use x="49.999985" xlink:href="#FreeSerif-53"/>
      </g>
     </g>
    </g>
    <g id="text_8">
     <!-- X coordinate error (cm) -->
     <defs>
      <path d="M 69.59375 66.203125 
L 69.59375 64.296875 
Q 64.703125 64 62.046875 62.34375 
Q 59.40625 60.703125 54.703125 54.90625 
L 40.09375 36.703125 
L 59.296875 9.296875 
Q 62.296875 5 64.296875 3.703125 
Q 66.296875 2.40625 70.40625 1.90625 
L 70.40625 0 
L 40.703125 0 
L 40.703125 1.90625 
Q 44.796875 2.296875 46.59375 2.9375 
Q 48.40625 3.59375 48.40625 5 
Q 48.40625 7.203125 43.296875 14.796875 
L 33.796875 28.796875 
L 21.90625 14 
Q 16.703125 7.5 16.703125 5.40625 
Q 16.703125 3.703125 18.296875 2.953125 
Q 19.90625 2.203125 24.296875 1.90625 
L 24.296875 0 
L 1 0 
L 1 1.90625 
Q 4.90625 2.203125 7 3.796875 
Q 9.09375 5.40625 15.5 13.296875 
L 31.203125 32.59375 
L 20.296875 48.59375 
Q 13.296875 58.90625 10.25 61.5 
Q 7.203125 64.09375 2.203125 64.296875 
L 2.203125 66.203125 
L 32.40625 66.203125 
L 32.40625 64.296875 
L 29.59375 64.203125 
Q 24.796875 64.09375 24.796875 61.296875 
Q 24.796875 58.09375 33.296875 46.296875 
L 37.5 40.40625 
L 48.796875 54.203125 
Q 52.796875 59.203125 52.796875 61.09375 
Q 52.796875 62.796875 51.34375 63.4375 
Q 49.90625 64.09375 45.796875 64.296875 
L 45.796875 66.203125 
z
" id="FreeSerif-88"/>
      <path id="FreeSerif-32"/>
      <path d="M 2.5 21.296875 
Q 2.5 32.40625 9.046875 39.203125 
Q 15.59375 46 24.40625 46 
Q 30.703125 46 35.25 42.953125 
Q 39.796875 39.90625 39.796875 35.703125 
Q 39.796875 34 38.390625 32.75 
Q 37 31.5 35 31.5 
Q 31.59375 31.5 30.296875 36.09375 
L 29.703125 38.296875 
Q 28.90625 41.09375 27.703125 42.09375 
Q 26.5 43.09375 23.796875 43.09375 
Q 17.703125 43.09375 13.953125 38.25 
Q 10.203125 33.40625 10.203125 25.703125 
Q 10.203125 17.09375 14.546875 11.640625 
Q 18.90625 6.203125 25.703125 6.203125 
Q 30 6.203125 33.09375 8.25 
Q 36.203125 10.296875 39.796875 15.59375 
L 41.203125 14.703125 
Q 40.203125 12.703125 39.453125 11.390625 
Q 38.703125 10.09375 36.75 7.5 
Q 34.796875 4.90625 32.890625 3.296875 
Q 31 1.703125 27.890625 0.34375 
Q 24.796875 -1 21.5 -1 
Q 13.203125 -1 7.84375 5.25 
Q 2.5 11.5 2.5 21.296875 
z
" id="FreeSerif-99"/>
      <path d="M 24.59375 46 
Q 34.203125 46 40.390625 39.59375 
Q 46.59375 33.203125 46.59375 23.40625 
Q 46.59375 13 40.1875 6 
Q 33.796875 -1 24.390625 -1 
Q 15 -1 8.75 5.75 
Q 2.5 12.5 2.5 22.59375 
Q 2.5 32.90625 8.640625 39.453125 
Q 14.796875 46 24.59375 46 
z
M 11.5 27.5 
Q 11.5 16.796875 15.390625 9.296875 
Q 19.296875 1.796875 25.59375 1.796875 
Q 31.203125 1.796875 34.390625 6.59375 
Q 37.59375 11.40625 37.59375 19.90625 
Q 37.59375 30.203125 33.59375 36.703125 
Q 29.59375 43.203125 23.296875 43.203125 
Q 18 43.203125 14.75 38.890625 
Q 11.5 34.59375 11.5 27.5 
z
" id="FreeSerif-111"/>
      <path d="M 30.09375 36.203125 
Q 28.59375 36.203125 26.390625 37.953125 
Q 24.203125 39.703125 23.5 39.703125 
Q 21.5 39.703125 19 36.796875 
Q 16.5 33.90625 16.5 31.5 
L 16.5 9 
Q 16.5 4.703125 18.203125 3.203125 
Q 19.90625 1.703125 25 1.5 
L 25 0 
L 1 0 
L 1 1.5 
Q 5.796875 2.40625 6.9375 3.5 
Q 8.09375 4.59375 8.09375 8.40625 
L 8.09375 33.40625 
Q 8.09375 36.703125 7.34375 38.046875 
Q 6.59375 39.40625 4.703125 39.40625 
Q 3.09375 39.40625 1.203125 39 
L 1.203125 40.59375 
Q 9.203125 43.203125 16 46 
L 16.5 45.796875 
L 16.5 36.59375 
Q 20.203125 41.90625 22.796875 43.953125 
Q 25.40625 46 28.5 46 
Q 31.09375 46 32.546875 44.59375 
Q 34 43.203125 34 40.703125 
Q 34 38.59375 32.953125 37.390625 
Q 31.90625 36.203125 30.09375 36.203125 
z
" id="FreeSerif-114"/>
      <path d="M 34.203125 -1 
L 33.796875 -0.703125 
L 33.796875 5.703125 
Q 29 -1 21 -1 
Q 12.703125 -1 7.59375 4.953125 
Q 2.5 10.90625 2.5 20.5 
Q 2.5 31.09375 8.59375 38.546875 
Q 14.703125 46 23.296875 46 
Q 28.703125 46 33.796875 41.703125 
L 33.796875 57.296875 
Q 33.796875 60.40625 32.890625 61.40625 
Q 32 62.40625 29.203125 62.40625 
Q 27.796875 62.40625 27 62.296875 
L 27 63.90625 
Q 36.09375 66.296875 41.703125 68.296875 
L 42.203125 68.09375 
L 42.203125 11.40625 
Q 42.203125 7.90625 43.046875 6.796875 
Q 43.90625 5.703125 46.59375 5.703125 
Q 47.09375 5.703125 48.90625 5.796875 
L 48.90625 4.203125 
z
M 24.90625 4.203125 
Q 28.703125 4.203125 31.25 6.34375 
Q 33.796875 8.5 33.796875 10.203125 
L 33.796875 33.203125 
Q 33.796875 37.203125 30.6875 40.203125 
Q 27.59375 43.203125 23.59375 43.203125 
Q 17.90625 43.203125 14.5 38.09375 
Q 11.09375 33 11.09375 24.5 
Q 11.09375 15.296875 14.890625 9.75 
Q 18.703125 4.203125 24.90625 4.203125 
z
" id="FreeSerif-100"/>
      <path d="M 6.203125 39.296875 
Q 4 39.296875 2 39 
L 2 40.5 
Q 9 42.5 17.5 46 
L 17.90625 45.703125 
L 17.90625 10.203125 
Q 17.90625 4.796875 19.15625 3.34375 
Q 20.40625 1.90625 25.296875 1.5 
L 25.296875 0 
L 1.59375 0 
L 1.59375 1.5 
Q 6.796875 1.796875 8.140625 3.296875 
Q 9.5 4.796875 9.5 10.203125 
L 9.5 33.40625 
Q 9.5 36.703125 8.75 38 
Q 8 39.296875 6.203125 39.296875 
z
M 12.796875 68.296875 
Q 15 68.296875 16.5 66.796875 
Q 18 65.296875 18 63.203125 
Q 18 61 16.5 59.546875 
Q 15 58.09375 12.796875 58.09375 
Q 10.703125 58.09375 9.25 59.59375 
Q 7.796875 61.09375 7.796875 63.1875 
Q 7.796875 65.296875 9.296875 66.796875 
Q 10.796875 68.296875 12.796875 68.296875 
z
" id="FreeSerif-105"/>
      <path d="M 1 39.796875 
L 1 41.5 
Q 8.40625 43.703125 14.796875 46 
L 15.5 45.796875 
L 15.5 37.90625 
Q 20.59375 42.703125 23.546875 44.34375 
Q 26.5 46 30 46 
Q 35.5 46 38.640625 42.046875 
Q 41.796875 38.09375 41.796875 31 
L 41.796875 8.09375 
Q 41.796875 4.40625 43 3.15625 
Q 44.203125 1.90625 47.90625 1.5 
L 47.90625 0 
L 27.09375 0 
L 27.09375 1.5 
Q 30.90625 1.796875 32.15625 3.5 
Q 33.40625 5.203125 33.40625 9.90625 
L 33.40625 30.796875 
Q 33.40625 40.5 26.09375 40.5 
Q 23.59375 40.5 21.5 39.34375 
Q 19.40625 38.203125 15.796875 34.796875 
L 15.796875 6.703125 
Q 15.796875 4 17.1875 2.890625 
Q 18.59375 1.796875 22.40625 1.5 
L 22.40625 0 
L 1.203125 0 
L 1.203125 1.5 
Q 5 1.796875 6.203125 3.25 
Q 7.40625 4.703125 7.40625 9 
L 7.40625 33.796875 
Q 7.40625 37.5 6.59375 38.84375 
Q 5.796875 40.203125 3.703125 40.203125 
Q 1.796875 40.203125 1 39.796875 
z
" id="FreeSerif-110"/>
      <path d="M 2.5 9.703125 
Q 2.5 11.5 2.890625 13.046875 
Q 3.296875 14.59375 4.296875 15.9375 
Q 5.296875 17.296875 6.1875 18.390625 
Q 7.09375 19.5 8.890625 20.640625 
Q 10.703125 21.796875 11.890625 22.546875 
Q 13.09375 23.296875 15.546875 24.34375 
Q 18 25.40625 19.296875 25.953125 
Q 20.59375 26.5 23.390625 27.59375 
Q 26.203125 28.703125 27.5 29.203125 
L 27.5 35.296875 
Q 27.5 43.59375 19.90625 43.59375 
Q 16.90625 43.59375 14.796875 42.140625 
Q 12.703125 40.703125 12.703125 38.703125 
Q 12.703125 37.90625 12.953125 36.5 
Q 13.203125 35.09375 13.203125 34.703125 
Q 13.203125 33 11.84375 31.75 
Q 10.5 30.5 8.703125 30.5 
Q 7 30.5 5.703125 31.796875 
Q 4.40625 33.09375 4.40625 34.796875 
Q 4.40625 39.5 9.25 42.75 
Q 14.09375 46 21.203125 46 
Q 29.40625 46 32.5 42.046875 
Q 35.59375 38.09375 35.59375 30 
L 35.59375 10.5 
Q 35.59375 7.203125 36.25 5.953125 
Q 36.90625 4.703125 38.59375 4.703125 
Q 40.703125 4.703125 43 6.59375 
L 43 4 
Q 40.40625 1.09375 38.453125 0.046875 
Q 36.5 -1 34 -1 
Q 30.90625 -1 29.453125 0.703125 
Q 28 2.40625 27.59375 6.296875 
Q 19 -1 13 -1 
Q 8.40625 -1 5.453125 2 
Q 2.5 5 2.5 9.703125 
z
M 27.5 12.296875 
L 27.5 26.796875 
Q 18.5 23.5 14.890625 20.390625 
Q 11.296875 17.296875 11.296875 12.90625 
Q 11.296875 8.796875 13.296875 6.796875 
Q 15.296875 4.796875 17.59375 4.796875 
Q 21 4.796875 24.90625 7.09375 
Q 26.5 8 27 9 
Q 27.5 10 27.5 12.296875 
z
" id="FreeSerif-97"/>
      <path d="M 25.90625 45 
L 25.90625 41.796875 
L 15.796875 41.796875 
L 15.796875 13.203125 
Q 15.796875 8.5 17 6.34375 
Q 18.203125 4.203125 21 4.203125 
Q 24.09375 4.203125 27 7.703125 
L 28.296875 6.59375 
Q 23.5 -1 16.296875 -1 
Q 7.40625 -1 7.40625 11.703125 
L 7.40625 41.796875 
L 2.09375 41.796875 
Q 1.703125 42.09375 1.703125 42.5 
Q 1.703125 43 2 43.296875 
Q 2.296875 43.59375 3.140625 44.140625 
Q 4 44.703125 5.203125 45.640625 
Q 6.40625 46.59375 8.5 49.09375 
Q 10.59375 51.59375 13.09375 55.09375 
Q 14.703125 57.40625 15.09375 57.90625 
Q 15.796875 57.90625 15.796875 56.59375 
L 15.796875 45 
z
" id="FreeSerif-116"/>
      <path d="M 9.703125 27.703125 
Q 9.90625 21.40625 11.40625 16.84375 
Q 12.90625 12.296875 15.296875 10.046875 
Q 17.703125 7.796875 20.140625 6.84375 
Q 22.59375 5.90625 25.296875 5.90625 
Q 30.09375 5.90625 33.640625 8.296875 
Q 37.203125 10.703125 40.796875 16.40625 
L 42.40625 15.703125 
Q 39.296875 7.59375 33.796875 3.296875 
Q 28.296875 -1 21.203125 -1 
Q 12.59375 -1 7.546875 5.046875 
Q 2.5 11.09375 2.5 21.40625 
Q 2.5 32.5 8.34375 39.25 
Q 14.203125 46 23.40625 46 
Q 31 46 35.203125 41.453125 
Q 39.40625 36.90625 40.5 27.703125 
z
M 9.90625 30.90625 
L 30.296875 30.90625 
Q 29.296875 37.40625 27.1875 39.90625 
Q 25.09375 42.40625 20.5 42.40625 
Q 11.5 42.40625 9.90625 30.90625 
z
" id="FreeSerif-101"/>
      <path d="M 29.203125 -17.703125 
Q 26.59375 -16.09375 23.796875 -13.84375 
Q 21 -11.59375 17.453125 -7.59375 
Q 13.90625 -3.59375 11.203125 0.953125 
Q 8.5 5.5 6.640625 11.890625 
Q 4.796875 18.296875 4.796875 25.203125 
Q 4.796875 32.40625 6.640625 38.84375 
Q 8.5 45.296875 11 49.546875 
Q 13.5 53.796875 17.34375 57.75 
Q 21.203125 61.703125 23.703125 63.59375 
Q 26.203125 65.5 29.5 67.59375 
L 30.40625 66 
Q 26 62.40625 23.296875 59.5 
Q 20.59375 56.59375 18.09375 51.9375 
Q 15.59375 47.296875 14.5 40.84375 
Q 13.40625 34.40625 13.40625 25.5 
Q 13.40625 16.203125 14.5 9.5 
Q 15.59375 2.796875 18.09375 -1.953125 
Q 20.59375 -6.703125 23.296875 -9.703125 
Q 26 -12.703125 30.40625 -16.09375 
z
" id="FreeSerif-40"/>
      <path d="M 1.296875 39.796875 
L 1.296875 41.5 
Q 8.5 43.5 15.296875 46 
L 16 45.796875 
L 16 38.296875 
Q 22.203125 43 25.203125 44.5 
Q 28.203125 46 31.5 46 
Q 39.40625 46 42.09375 37.59375 
Q 49.90625 46 58.40625 46 
Q 70 46 70 28.203125 
L 70 7.59375 
Q 70 2 74.296875 1.703125 
L 76.90625 1.5 
L 76.90625 0 
L 55 0 
L 55 1.5 
Q 59.40625 2 60.5 3.203125 
Q 61.59375 4.40625 61.59375 8.703125 
L 61.59375 29.796875 
Q 61.59375 36 60 38.390625 
Q 58.40625 40.796875 54.09375 40.796875 
Q 47.5 40.796875 43.203125 34.703125 
L 43.203125 9.5 
Q 43.203125 4.796875 44.640625 3.1875 
Q 46.09375 1.59375 50.40625 1.5 
L 50.40625 0 
L 28 0 
L 28 1.5 
Q 32.296875 1.796875 33.546875 3.09375 
Q 34.796875 4.40625 34.796875 8.59375 
L 34.796875 30.296875 
Q 34.796875 40.796875 28.203125 40.796875 
Q 25.40625 40.796875 21.953125 39.390625 
Q 18.5 38 16.40625 34.90625 
L 16.40625 6.703125 
Q 16.40625 3.796875 17.796875 2.75 
Q 19.203125 1.703125 23.203125 1.5 
L 23.203125 0 
L 1 0 
L 1 1.5 
Q 5.203125 1.59375 6.59375 3 
Q 8 4.40625 8 8.5 
L 8 33.796875 
Q 8 37.40625 7.25 38.796875 
Q 6.5 40.203125 4.5 40.203125 
Q 3 40.203125 1.296875 39.796875 
z
" id="FreeSerif-109"/>
      <path d="M 4.046875 67.703125 
Q 6.65625 66.09375 9.453125 63.84375 
Q 12.25 61.59375 15.796875 57.59375 
Q 19.34375 53.59375 22.046875 49.046875 
Q 24.75 44.5 26.59375 38.09375 
Q 28.453125 31.703125 28.453125 24.796875 
Q 28.453125 17.59375 26.59375 11.140625 
Q 24.75 4.703125 22.25 0.453125 
Q 19.75 -3.796875 15.890625 -7.75 
Q 12.046875 -11.703125 9.546875 -13.59375 
Q 7.046875 -15.5 3.75 -17.59375 
L 2.84375 -16 
Q 7.25 -12.40625 9.953125 -9.5 
Q 12.65625 -6.59375 15.15625 -1.9375 
Q 17.65625 2.703125 18.75 9.140625 
Q 19.84375 15.59375 19.84375 24.5 
Q 19.84375 33.796875 18.75 40.5 
Q 17.65625 47.203125 15.15625 51.953125 
Q 12.65625 56.703125 9.953125 59.703125 
Q 7.25 62.703125 2.84375 66.09375 
z
" id="FreeSerif-41"/>
     </defs>
     <g transform="translate(193.92175 556.37525)scale(0.24 -0.24)">
      <use xlink:href="#FreeSerif-88"/>
      <use x="71.399994" xlink:href="#FreeSerif-32"/>
      <use x="96.399979" xlink:href="#FreeSerif-99"/>
      <use x="140.784348" xlink:href="#FreeSerif-111"/>
      <use x="189.884338" xlink:href="#FreeSerif-111"/>
      <use x="238.968704" xlink:href="#FreeSerif-114"/>
      <use x="273.453064" xlink:href="#FreeSerif-100"/>
      <use x="323.353058" xlink:href="#FreeSerif-105"/>
      <use x="351.137421" xlink:href="#FreeSerif-110"/>
      <use x="400.037415" xlink:href="#FreeSerif-97"/>
      <use x="443.521774" xlink:href="#FreeSerif-116"/>
      <use x="471.821762" xlink:href="#FreeSerif-101"/>
      <use x="516.221756" xlink:href="#FreeSerif-32"/>
      <use x="541.221741" xlink:href="#FreeSerif-101"/>
      <use x="585.60611" xlink:href="#FreeSerif-114"/>
      <use x="620.106094" xlink:href="#FreeSerif-114"/>
      <use x="654.590454" xlink:href="#FreeSerif-111"/>
      <use x="703.67482" xlink:href="#FreeSerif-114"/>
      <use x="738.174805" xlink:href="#FreeSerif-32"/>
      <use x="763.174789" xlink:href="#FreeSerif-40"/>
      <use x="796.474777" xlink:href="#FreeSerif-99"/>
      <use x="840.859146" xlink:href="#FreeSerif-109"/>
      <use x="918.75914" xlink:href="#FreeSerif-41"/>
     </g>
    </g>
   </g>
   <g id="matplotlib.axis_2">
    <g id="ytick_1">
     <g id="line2d_15">
      <path clip-path="url(#p17a9f33fde)" d="M 71.82225 512.784 
L 544.52 512.784 
" style="fill:none;stroke:#b0b0b0;stroke-linecap:square;stroke-width:0.8;"/>
     </g>
     <g id="line2d_16">
      <defs>
       <path d="M 0 0 
L -3.5 0 
" id="ma45393ad85" style="stroke:#000000;stroke-width:0.8;"/>
      </defs>
      <g>
       <use style="stroke:#000000;stroke-width:0.8;" x="71.82225" xlink:href="#ma45393ad85" y="512.784"/>
      </g>
     </g>
     <g id="text_9">
      <!-- −15 -->
      <g transform="translate(36.669125 518.930719)scale(0.18 -0.18)">
       <use xlink:href="#FreeSerif-8722"/>
       <use x="56.399994" xlink:href="#FreeSerif-49"/>
       <use x="106.399979" xlink:href="#FreeSerif-53"/>
      </g>
     </g>
    </g>
    <g id="ytick_2">
     <g id="line2d_17">
      <path clip-path="url(#p17a9f33fde)" d="M 71.82225 434.453617 
L 544.52 434.453617 
" style="fill:none;stroke:#b0b0b0;stroke-linecap:square;stroke-width:0.8;"/>
     </g>
     <g id="line2d_18">
      <g>
       <use style="stroke:#000000;stroke-width:0.8;" x="71.82225" xlink:href="#ma45393ad85" y="434.453617"/>
      </g>
     </g>
     <g id="text_10">
      <!-- −10 -->
      <g transform="translate(36.669125 440.600335)scale(0.18 -0.18)">
       <use xlink:href="#FreeSerif-8722"/>
       <use x="56.399994" xlink:href="#FreeSerif-49"/>
       <use x="106.399979" xlink:href="#FreeSerif-48"/>
      </g>
     </g>
    </g>
    <g id="ytick_3">
     <g id="line2d_19">
      <path clip-path="url(#p17a9f33fde)" d="M 71.82225 356.123233 
L 544.52 356.123233 
" style="fill:none;stroke:#b0b0b0;stroke-linecap:square;stroke-width:0.8;"/>
     </g>
     <g id="line2d_20">
      <g>
       <use style="stroke:#000000;stroke-width:0.8;" x="71.82225" xlink:href="#ma45393ad85" y="356.123233"/>
      </g>
     </g>
     <g id="text_11">
      <!-- −5 -->
      <g transform="translate(45.669125 362.269952)scale(0.18 -0.18)">
       <use xlink:href="#FreeSerif-8722"/>
       <use x="56.399994" xlink:href="#FreeSerif-53"/>
      </g>
     </g>
    </g>
    <g id="ytick_4">
     <g id="line2d_21">
      <path clip-path="url(#p17a9f33fde)" d="M 71.82225 277.79285 
L 544.52 277.79285 
" style="fill:none;stroke:#b0b0b0;stroke-linecap:square;stroke-width:0.8;"/>
     </g>
     <g id="line2d_22">
      <g>
       <use style="stroke:#000000;stroke-width:0.8;" x="71.82225" xlink:href="#ma45393ad85" y="277.79285"/>
      </g>
     </g>
     <g id="text_12">
      <!-- 0 -->
      <g transform="translate(55.82225 283.939569)scale(0.18 -0.18)">
       <use xlink:href="#FreeSerif-48"/>
      </g>
     </g>
    </g>
    <g id="ytick_5">
     <g id="line2d_23">
      <path clip-path="url(#p17a9f33fde)" d="M 71.82225 199.462467 
L 544.52 199.462467 
" style="fill:none;stroke:#b0b0b0;stroke-linecap:square;stroke-width:0.8;"/>
     </g>
     <g id="line2d_24">
      <g>
       <use style="stroke:#000000;stroke-width:0.8;" x="71.82225" xlink:href="#ma45393ad85" y="199.462467"/>
      </g>
     </g>
     <g id="text_13">
      <!-- 5 -->
      <g transform="translate(55.82225 205.609185)scale(0.18 -0.18)">
       <use xlink:href="#FreeSerif-53"/>
      </g>
     </g>
    </g>
    <g id="ytick_6">
     <g id="line2d_25">
      <path clip-path="url(#p17a9f33fde)" d="M 71.82225 121.132083 
L 544.52 121.132083 
" style="fill:none;stroke:#b0b0b0;stroke-linecap:square;stroke-width:0.8;"/>
     </g>
     <g id="line2d_26">
      <g>
       <use style="stroke:#000000;stroke-width:0.8;" x="71.82225" xlink:href="#ma45393ad85" y="121.132083"/>
      </g>
     </g>
     <g id="text_14">
      <!-- 10 -->
      <g transform="translate(46.82225 127.278802)scale(0.18 -0.18)">
       <use xlink:href="#FreeSerif-49"/>
       <use x="49.999985" xlink:href="#FreeSerif-48"/>
      </g>
     </g>
    </g>
    <g id="ytick_7">
     <g id="line2d_27">
      <path clip-path="url(#p17a9f33fde)" d="M 71.82225 42.8017 
L 544.52 42.8017 
" style="fill:none;stroke:#b0b0b0;stroke-linecap:square;stroke-width:0.8;"/>
     </g>
     <g id="line2d_28">
      <g>
       <use style="stroke:#000000;stroke-width:0.8;" x="71.82225" xlink:href="#ma45393ad85" y="42.8017"/>
      </g>
     </g>
     <g id="text_15">
      <!-- 15 -->
      <g transform="translate(46.82225 48.948419)scale(0.18 -0.18)">
       <use xlink:href="#FreeSerif-49"/>
       <use x="49.999985" xlink:href="#FreeSerif-53"/>
      </g>
     </g>
    </g>
    <g id="text_16">
     <!-- Z coordinate error (cm) -->
     <defs>
      <path d="M 40.296875 3.796875 
Q 43.09375 3.796875 45.390625 4.296875 
Q 47.703125 4.796875 49.25 5.296875 
Q 50.796875 5.796875 52.140625 7.1875 
Q 53.5 8.59375 54.140625 9.296875 
Q 54.796875 10 55.59375 12.046875 
Q 56.40625 14.09375 56.59375 14.6875 
Q 56.796875 15.296875 57.5 17.59375 
L 59.796875 17.59375 
L 57.40625 0 
L 1 0 
L 1 1.5 
L 44.703125 62.40625 
L 22.59375 62.40625 
Q 17.5 62.40625 14.203125 61.40625 
Q 10.90625 60.40625 9.25 58.203125 
Q 7.59375 56 7 54.203125 
Q 6.40625 52.40625 5.796875 49.09375 
L 3.203125 49.09375 
L 5.203125 66.203125 
L 57.796875 66.203125 
L 57.796875 64.703125 
L 14.59375 3.796875 
z
" id="FreeSerif-90"/>
     </defs>
     <g transform="translate(27.460375 390.8291)rotate(-90)scale(0.24 -0.24)">
      <use xlink:href="#FreeSerif-90"/>
      <use x="61.299988" xlink:href="#FreeSerif-32"/>
      <use x="86.299973" xlink:href="#FreeSerif-99"/>
      <use x="130.684341" xlink:href="#FreeSerif-111"/>
      <use x="179.784332" xlink:href="#FreeSerif-111"/>
      <use x="228.868698" xlink:href="#FreeSerif-114"/>
      <use x="263.353058" xlink:href="#FreeSerif-100"/>
      <use x="313.253052" xlink:href="#FreeSerif-105"/>
      <use x="341.037415" xlink:href="#FreeSerif-110"/>
      <use x="389.937408" xlink:href="#FreeSerif-97"/>
      <use x="433.421768" xlink:href="#FreeSerif-116"/>
      <use x="461.721756" xlink:href="#FreeSerif-101"/>
      <use x="506.12175" xlink:href="#FreeSerif-32"/>
      <use x="531.121735" xlink:href="#FreeSerif-101"/>
      <use x="575.506104" xlink:href="#FreeSerif-114"/>
      <use x="610.006088" xlink:href="#FreeSerif-114"/>
      <use x="644.490448" xlink:href="#FreeSerif-111"/>
      <use x="693.574814" xlink:href="#FreeSerif-114"/>
      <use x="728.074799" xlink:href="#FreeSerif-32"/>
      <use x="753.074783" xlink:href="#FreeSerif-40"/>
      <use x="786.374771" xlink:href="#FreeSerif-99"/>
      <use x="830.75914" xlink:href="#FreeSerif-109"/>
      <use x="908.659134" xlink:href="#FreeSerif-41"/>
     </g>
    </g>
   </g>
   <g id="patch_4">
    <path d="M 71.82225 512.784 
L 71.82225 42.8017 
" style="fill:none;stroke:#000000;stroke-linecap:square;stroke-linejoin:miter;stroke-width:0.8;"/>
   </g>
   <g id="patch_5">
    <path d="M 544.52 512.784 
L 544.52 42.8017 
" style="fill:none;stroke:#000000;stroke-linecap:square;stroke-linejoin:miter;stroke-width:0.8;"/>
   </g>
   <g id="patch_6">
    <path d="M 71.82225 512.784 
L 544.52 512.784 
" style="fill:none;stroke:#000000;stroke-linecap:square;stroke-linejoin:miter;stroke-width:0.8;"/>
   </g>
   <g id="patch_7">
    <path d="M 71.82225 42.8017 
L 544.52 42.8017 
" style="fill:none;stroke:#000000;stroke-linecap:square;stroke-linejoin:miter;stroke-width:0.8;"/>
   </g>
   <g id="text_17">
    <!-- Probability = 90.4% -->
    <defs>
     <path d="M 54.09375 48.09375 
Q 54.09375 45.5 53.5 43.09375 
Q 52.90625 40.703125 51.15625 38 
Q 49.40625 35.296875 46.5 33.34375 
Q 43.59375 31.40625 38.59375 30.09375 
Q 33.59375 28.796875 27 28.796875 
Q 24 28.796875 20.09375 29.09375 
L 20.09375 10.90625 
Q 20.09375 5.40625 21.84375 3.75 
Q 23.59375 2.09375 29.5 1.90625 
L 29.5 0 
L 1.5 0 
L 1.5 1.90625 
Q 7.203125 2.40625 8.546875 4.046875 
Q 9.90625 5.703125 9.90625 12 
L 9.90625 55.296875 
Q 9.90625 60.703125 8.5 62.203125 
Q 7.09375 63.703125 1.5 64.296875 
L 1.5 66.203125 
L 27.90625 66.203125 
Q 32.40625 66.203125 36.59375 65.34375 
Q 40.796875 64.5 44.9375 62.59375 
Q 49.09375 60.703125 51.59375 57 
Q 54.09375 53.296875 54.09375 48.09375 
z
M 20.09375 59.09375 
L 20.09375 33.09375 
Q 23.59375 32.796875 25.796875 32.796875 
Q 43.203125 32.796875 43.203125 47.5 
Q 43.203125 55.203125 38.390625 58.84375 
Q 33.59375 62.5 23.5 62.5 
Q 21.5 62.5 20.796875 61.796875 
Q 20.09375 61.09375 20.09375 59.09375 
z
" id="FreeSerif-80"/>
     <path d="M 16 68.09375 
L 16 37.5 
Q 17.5 41.203125 21.390625 43.59375 
Q 25.296875 46 29.90625 46 
Q 37.40625 46 42.453125 39.75 
Q 47.5 33.5 47.5 24.296875 
Q 47.5 13.59375 40.75 6.296875 
Q 34 -1 24.09375 -1 
Q 18.09375 -1 12.84375 1.046875 
Q 7.59375 3.09375 7.59375 5.40625 
L 7.59375 57.296875 
Q 7.59375 60.40625 6.640625 61.40625 
Q 5.703125 62.40625 2.703125 62.40625 
Q 1.59375 62.40625 1 62.296875 
L 1 63.90625 
Q 8.703125 65.796875 15.5 68.296875 
z
M 16 32.203125 
L 16 7 
Q 16 5.09375 18.890625 3.640625 
Q 21.796875 2.203125 25.703125 2.203125 
Q 31.90625 2.203125 35.296875 6.796875 
Q 38.703125 11.40625 38.703125 19.703125 
Q 38.703125 28.796875 35.25 34.25 
Q 31.796875 39.703125 25.90625 39.703125 
Q 22 39.703125 19 37.390625 
Q 16 35.09375 16 32.203125 
z
" id="FreeSerif-98"/>
     <path d="M 1 62.296875 
L 1 63.90625 
Q 10.90625 66.296875 16.90625 68.296875 
L 17.296875 68.09375 
L 17.296875 8.40625 
Q 17.296875 4.296875 18.640625 3.046875 
Q 20 1.796875 24.796875 1.5 
L 24.796875 0 
L 1.203125 0 
L 1.203125 1.5 
Q 5.90625 1.90625 7.40625 3.296875 
Q 8.90625 4.703125 8.90625 8.703125 
L 8.90625 56.40625 
Q 8.90625 59.90625 8 61.203125 
Q 7.09375 62.5 4.703125 62.5 
Q 2.703125 62.5 1 62.296875 
z
" id="FreeSerif-108"/>
     <path d="M 14.203125 -13.40625 
Q 17 -13.40625 20.09375 -7.203125 
Q 23.203125 -1 23.203125 1.90625 
Q 23.203125 3.203125 18.796875 12 
L 5.59375 40.40625 
Q 4.40625 43 0.5 43.59375 
L 0.5 45 
L 21.09375 45 
L 21.09375 43.5 
Q 17.90625 43.40625 16.59375 42.796875 
Q 15.296875 42.203125 15.296875 40.796875 
Q 15.296875 39.296875 16.296875 37 
L 27.796875 11.703125 
L 37.5 39.296875 
Q 37.90625 40.203125 37.90625 41 
Q 37.90625 43.5 33.09375 43.5 
L 33.09375 45 
L 46.59375 45 
L 46.59375 43.5 
Q 44.796875 43.296875 43.75 42.34375 
Q 42.703125 41.40625 41.796875 39 
L 26.40625 -1.796875 
Q 22.40625 -12.59375 18.453125 -17.1875 
Q 14.5 -21.796875 9.5 -21.796875 
Q 6.296875 -21.796875 4.1875 -20.140625 
Q 2.09375 -18.5 2.09375 -16 
Q 2.09375 -14.203125 3.390625 -12.890625 
Q 4.703125 -11.59375 6.40625 -11.59375 
Q 8.59375 -11.59375 11.09375 -12.5 
Q 13.59375 -13.40625 14.203125 -13.40625 
z
" id="FreeSerif-121"/>
     <path d="M 53.40625 38.59375 
L 53.40625 32 
L 3 32 
L 3 38.59375 
z
M 53.40625 18.59375 
L 53.40625 12 
L 3 12 
L 3 18.59375 
z
" id="FreeSerif-61"/>
     <path d="M 5.90625 -2.203125 
L 5.59375 -0.203125 
Q 17 1.796875 24.953125 9.5 
Q 32.90625 17.203125 36 29.40625 
Q 28.59375 23.703125 21 23.703125 
Q 12.90625 23.703125 7.953125 29.296875 
Q 3 34.90625 3 44 
Q 3 54.09375 8.953125 60.84375 
Q 14.90625 67.59375 23.796875 67.59375 
Q 33.5 67.59375 39.703125 59.6875 
Q 45.90625 51.796875 45.90625 39.40625 
Q 45.90625 35.40625 45.203125 31.203125 
Q 44.5 27 41.953125 21.25 
Q 39.40625 15.5 35.296875 10.953125 
Q 31.203125 6.40625 23.59375 2.703125 
Q 16 -1 5.90625 -2.203125 
z
M 24.59375 28 
Q 26.5 28 28.890625 28.546875 
Q 31.296875 29.09375 33.75 30.9375 
Q 36.203125 32.796875 36.203125 35.5 
L 36.203125 39.40625 
Q 36.203125 64.796875 23 64.796875 
Q 19.90625 64.796875 17.703125 63.140625 
Q 15.5 61.5 14.34375 58.796875 
Q 13.203125 56.09375 12.703125 53.296875 
Q 12.203125 50.5 12.203125 47.40625 
Q 12.203125 38.5 15.546875 33.25 
Q 18.90625 28 24.59375 28 
z
" id="FreeSerif-57"/>
     <path d="M 12.5 10 
Q 14.796875 10 16.4375 8.296875 
Q 18.09375 6.59375 18.09375 4.296875 
Q 18.09375 2.09375 16.390625 0.5 
Q 14.703125 -1.09375 12.40625 -1.09375 
Q 10.203125 -1.09375 8.59375 0.5 
Q 7 2.09375 7 4.296875 
Q 7 6.59375 8.640625 8.296875 
Q 10.296875 10 12.5 10 
z
" id="FreeSerif-46"/>
     <path d="M 47.203125 23.09375 
L 47.203125 16.703125 
L 37 16.703125 
L 37 0 
L 29.296875 0 
L 29.296875 16.703125 
L 1.203125 16.703125 
L 1.203125 23.09375 
L 32.59375 67.59375 
L 37 67.59375 
L 37 23.09375 
z
M 29.203125 23.09375 
L 29.203125 57.40625 
L 5.203125 23.09375 
z
" id="FreeSerif-52"/>
     <path d="M 66.90625 37.09375 
Q 71.796875 37.09375 74.5 34.296875 
Q 77.203125 31.5 77.203125 26.40625 
Q 77.203125 20.59375 74.890625 14.890625 
Q 72.59375 9.203125 68.59375 5.09375 
Q 63.5 0 56.90625 0 
Q 51.5 0 48.203125 3.546875 
Q 44.90625 7.09375 44.90625 12.90625 
Q 44.90625 22.296875 51.65625 29.6875 
Q 58.40625 37.09375 66.90625 37.09375 
z
M 58.59375 3 
Q 62.90625 3 66.703125 6.796875 
Q 70.5 10.59375 72.546875 15.84375 
Q 74.59375 21.09375 74.59375 25.90625 
Q 74.59375 29.203125 72.546875 31.546875 
Q 70.5 33.90625 67.59375 33.90625 
Q 63 33.90625 59.296875 28.703125 
Q 55.59375 23.5 54.046875 18.046875 
Q 52.5 12.59375 52.5 9.40625 
Q 52.5 6.59375 54.203125 4.796875 
Q 55.90625 3 58.59375 3 
z
M 28.203125 66.203125 
Q 31.296875 66.203125 33.1875 64.84375 
Q 35.09375 63.5 37.4375 62.140625 
Q 39.796875 60.796875 43.90625 60.796875 
Q 48.59375 60.796875 52.046875 62.296875 
Q 55.5 63.796875 59.5 67.59375 
L 63.40625 67.59375 
L 24.90625 -1.296875 
L 20.09375 -1.296875 
L 55.203125 61.296875 
Q 50 58.296875 44.203125 58.296875 
Q 40.296875 58.296875 37.703125 59.296875 
Q 38.40625 56.796875 38.40625 54.90625 
Q 38.40625 45.59375 32.453125 37.25 
Q 26.5 28.90625 17.90625 28.90625 
Q 13 28.90625 9.546875 32.65625 
Q 6.09375 36.40625 6.09375 41.59375 
Q 6.09375 51.09375 12.84375 58.640625 
Q 19.59375 66.203125 28.203125 66.203125 
z
M 28.203125 63.203125 
Q 23.40625 63.203125 18.546875 54.453125 
Q 13.703125 45.703125 13.703125 38.40625 
Q 13.703125 35.703125 15.34375 34 
Q 17 32.296875 19.59375 32.296875 
Q 25.703125 32.296875 30.796875 39.4375 
Q 35.90625 46.59375 35.90625 55.09375 
Q 35.90625 57 35 60 
Q 33 60.5 31.640625 61.140625 
Q 30.296875 61.796875 29.84375 62.1875 
Q 29.40625 62.59375 29 62.890625 
Q 28.59375 63.203125 28.203125 63.203125 
z
" id="FreeSerif-37"/>
    </defs>
    <g transform="translate(85.392767 64.047777)scale(0.24 -0.24)">
     <use xlink:href="#FreeSerif-80"/>
     <use x="57.584366" xlink:href="#FreeSerif-114"/>
     <use x="92.068726" xlink:href="#FreeSerif-111"/>
     <use x="141.153091" xlink:href="#FreeSerif-98"/>
     <use x="191.153076" xlink:href="#FreeSerif-97"/>
     <use x="234.637436" xlink:href="#FreeSerif-98"/>
     <use x="284.621796" xlink:href="#FreeSerif-105"/>
     <use x="312.406158" xlink:href="#FreeSerif-108"/>
     <use x="338.206146" xlink:href="#FreeSerif-105"/>
     <use x="365.974884" xlink:href="#FreeSerif-116"/>
     <use x="394.274872" xlink:href="#FreeSerif-121"/>
     <use x="441.374863" xlink:href="#FreeSerif-32"/>
     <use x="466.374847" xlink:href="#FreeSerif-61"/>
     <use x="522.774841" xlink:href="#FreeSerif-32"/>
     <use x="547.774826" xlink:href="#FreeSerif-57"/>
     <use x="597.774811" xlink:href="#FreeSerif-48"/>
     <use x="647.774796" xlink:href="#FreeSerif-46"/>
     <use x="672.77478" xlink:href="#FreeSerif-52"/>
     <use x="722.774765" xlink:href="#FreeSerif-37"/>
    </g>
   </g>
   <g id="text_18">
    <!-- X Z hitting plane -->
    <defs>
     <path d="M 15.796875 34.296875 
L 15.796875 10.203125 
Q 15.796875 5 17 3.5 
Q 18.203125 2 22.59375 1.5 
L 22.59375 0 
L 1 0 
L 1 1.5 
Q 5.296875 2.09375 6.34375 3.5 
Q 7.40625 4.90625 7.40625 10.203125 
L 7.40625 57.296875 
Q 7.40625 60.5 6.546875 61.5 
Q 5.703125 62.5 2.796875 62.5 
Q 2.09375 62.5 1.09375 62.296875 
L 1.09375 63.90625 
Q 8.203125 65.796875 15.296875 68.296875 
L 15.796875 68 
L 15.796875 37.59375 
Q 19.203125 42.09375 22.640625 44.046875 
Q 26.09375 46 30.5 46 
Q 42.796875 46 42.796875 30.09375 
L 42.796875 10.203125 
Q 42.796875 5 43.75 3.640625 
Q 44.703125 2.296875 48.796875 1.5 
L 48.796875 0 
L 27.59375 0 
L 27.59375 1.5 
Q 31.90625 1.90625 33.15625 3.5 
Q 34.40625 5.09375 34.40625 10.203125 
L 34.40625 30 
Q 34.40625 40.59375 26.90625 40.59375 
Q 24 40.59375 21.453125 39.140625 
Q 18.90625 37.703125 15.796875 34.296875 
z
" id="FreeSerif-104"/>
     <path d="M 6 5.40625 
Q 6 7.296875 7.34375 8.890625 
Q 8.703125 10.5 14.90625 16.296875 
Q 9.90625 18.796875 7.75 21.890625 
Q 5.59375 25 5.59375 29.703125 
Q 5.59375 36.5 10.4375 41.25 
Q 15.296875 46 22.296875 46 
Q 26.203125 46 30.640625 44.34375 
Q 35.09375 42.703125 38 42.703125 
L 45.703125 42.703125 
L 45.703125 38.796875 
L 37.40625 38.796875 
Q 39.296875 34.5 39.296875 30.40625 
Q 39.296875 23.5 34.640625 19.203125 
Q 30 14.90625 23.703125 14.90625 
Q 22.5 14.90625 18 15.40625 
Q 16 14.796875 14 12.6875 
Q 12 10.59375 12 9.09375 
Q 12 6.703125 19.796875 6.40625 
L 32.703125 5.796875 
Q 38.203125 5.59375 41.5 2.6875 
Q 44.796875 -0.203125 44.796875 -4.90625 
Q 44.796875 -12.09375 36.546875 -16.9375 
Q 28.296875 -21.796875 18.796875 -21.796875 
Q 11.703125 -21.796875 6.59375 -18.9375 
Q 1.5 -16.09375 1.5 -12.09375 
Q 1.5 -9.296875 3.75 -6.546875 
Q 6 -3.796875 11.296875 0.09375 
Q 8.203125 1.59375 7.09375 2.6875 
Q 6 3.796875 6 5.40625 
z
M 13.40625 -0.203125 
Q 10.296875 -3.90625 9.390625 -5.5 
Q 8.5 -7.09375 8.5 -8.796875 
Q 8.5 -12.09375 12.5 -14.09375 
Q 16.5 -16.09375 23.09375 -16.09375 
Q 31.59375 -16.09375 36.796875 -13.390625 
Q 42 -10.703125 42 -6.40625 
Q 42 -3.703125 39.203125 -2.59375 
Q 36.40625 -1.5 29.59375 -1.5 
Q 19.5 -1.5 13.40625 -0.203125 
z
M 31.59375 26.5 
Q 31.59375 28.203125 31.1875 30.59375 
Q 30.796875 33 29.796875 36.046875 
Q 28.796875 39.09375 26.59375 41.140625 
Q 24.40625 43.203125 21.296875 43.203125 
Q 17.796875 43.203125 15.84375 40.703125 
Q 13.90625 38.203125 13.90625 33.796875 
Q 13.90625 25.203125 17.09375 21.296875 
Q 20.296875 17.40625 24.09375 17.40625 
Q 27.59375 17.40625 29.59375 19.84375 
Q 31.59375 22.296875 31.59375 26.5 
z
" id="FreeSerif-103"/>
     <path d="M 1.40625 39.296875 
L 1.40625 40.90625 
Q 7.703125 42.796875 15.796875 46 
L 16.40625 45.796875 
L 16.40625 38.09375 
Q 22.796875 46 30.796875 46 
Q 38.09375 46 42.796875 40 
Q 47.5 34 47.5 24.703125 
Q 47.5 13.796875 41.453125 6.390625 
Q 35.40625 -1 26.5 -1 
Q 23.296875 -1 21.140625 -0.09375 
Q 19 0.796875 16.40625 3.296875 
L 16.40625 -12.40625 
Q 16.40625 -17.09375 18 -18.4375 
Q 19.59375 -19.796875 25.203125 -19.90625 
L 25.203125 -21.703125 
L 1 -21.703125 
L 1 -20 
Q 5.40625 -19.59375 6.703125 -18.296875 
Q 8 -17 8 -13.09375 
L 8 33.703125 
Q 8 37.203125 7.203125 38.296875 
Q 6.40625 39.40625 3.90625 39.40625 
Q 2.296875 39.40625 1.40625 39.296875 
z
M 16.40625 33.40625 
L 16.40625 8.796875 
Q 16.40625 6.59375 19.84375 4.390625 
Q 23.296875 2.203125 26.796875 2.203125 
Q 32.203125 2.203125 35.546875 7.34375 
Q 38.90625 12.5 38.90625 20.796875 
Q 38.90625 29.5 35.546875 34.75 
Q 32.203125 40 26.59375 40 
Q 23.09375 40 19.75 37.796875 
Q 16.40625 35.59375 16.40625 33.40625 
z
" id="FreeSerif-112"/>
    </defs>
    <g transform="translate(226.83175 36.8017)scale(0.24 -0.24)">
     <use xlink:href="#FreeSerif-88"/>
     <use x="71.399994" xlink:href="#FreeSerif-32"/>
     <use x="96.399979" xlink:href="#FreeSerif-90"/>
     <use x="157.699966" xlink:href="#FreeSerif-32"/>
     <use x="182.699951" xlink:href="#FreeSerif-104"/>
     <use x="232.499939" xlink:href="#FreeSerif-105"/>
     <use x="260.268677" xlink:href="#FreeSerif-116"/>
     <use x="288.568665" xlink:href="#FreeSerif-116"/>
     <use x="316.868652" xlink:href="#FreeSerif-105"/>
     <use x="344.653015" xlink:href="#FreeSerif-110"/>
     <use x="393.553009" xlink:href="#FreeSerif-103"/>
     <use x="440.253006" xlink:href="#FreeSerif-32"/>
     <use x="465.252991" xlink:href="#FreeSerif-112"/>
     <use x="515.23735" xlink:href="#FreeSerif-108"/>
     <use x="541.037338" xlink:href="#FreeSerif-97"/>
     <use x="584.537323" xlink:href="#FreeSerif-110"/>
     <use x="633.421692" xlink:href="#FreeSerif-101"/>
    </g>
   </g>
   <g id="legend_1">
    <g id="patch_8">
     <path d="M 421.240312 80.15795 
L 537.52 80.15795 
Q 539.52 80.15795 539.52 78.15795 
L 539.52 49.8017 
Q 539.52 47.8017 537.52 47.8017 
L 421.240312 47.8017 
Q 419.240312 47.8017 419.240312 49.8017 
L 419.240312 78.15795 
Q 419.240312 80.15795 421.240312 80.15795 
z
" style="fill:#ffffff;opacity:0.8;stroke:#cccccc;stroke-linejoin:miter;"/>
    </g>
    <g id="PathCollection_3">
     <g>
      <use style="fill:#0000ff;stroke:#0000ff;stroke-width:1.5;" x="433.240312" xlink:href="#m1ca23214dd" y="56.775138"/>
     </g>
    </g>
    <g id="text_19">
     <!-- prediction points -->
     <defs>
      <path d="M 18.109375 8.203125 
L 18.109375 -20.796875 
L 9.078125 -20.796875 
L 9.078125 54.6875 
L 18.109375 54.6875 
L 18.109375 46.390625 
Q 20.953125 51.265625 25.265625 53.625 
Q 29.59375 56 35.59375 56 
Q 45.5625 56 51.78125 48.09375 
Q 58.015625 40.1875 58.015625 27.296875 
Q 58.015625 14.40625 51.78125 6.484375 
Q 45.5625 -1.421875 35.59375 -1.421875 
Q 29.59375 -1.421875 25.265625 0.953125 
Q 20.953125 3.328125 18.109375 8.203125 
z
M 48.6875 27.296875 
Q 48.6875 37.203125 44.609375 42.84375 
Q 40.53125 48.484375 33.40625 48.484375 
Q 26.265625 48.484375 22.1875 42.84375 
Q 18.109375 37.203125 18.109375 27.296875 
Q 18.109375 17.390625 22.1875 11.75 
Q 26.265625 6.109375 33.40625 6.109375 
Q 40.53125 6.109375 44.609375 11.75 
Q 48.6875 17.390625 48.6875 27.296875 
z
" id="DejaVuSans-112"/>
      <path d="M 41.109375 46.296875 
Q 39.59375 47.171875 37.8125 47.578125 
Q 36.03125 48 33.890625 48 
Q 26.265625 48 22.1875 43.046875 
Q 18.109375 38.09375 18.109375 28.8125 
L 18.109375 0 
L 9.078125 0 
L 9.078125 54.6875 
L 18.109375 54.6875 
L 18.109375 46.1875 
Q 20.953125 51.171875 25.484375 53.578125 
Q 30.03125 56 36.53125 56 
Q 37.453125 56 38.578125 55.875 
Q 39.703125 55.765625 41.0625 55.515625 
z
" id="DejaVuSans-114"/>
      <path d="M 56.203125 29.59375 
L 56.203125 25.203125 
L 14.890625 25.203125 
Q 15.484375 15.921875 20.484375 11.0625 
Q 25.484375 6.203125 34.421875 6.203125 
Q 39.59375 6.203125 44.453125 7.46875 
Q 49.3125 8.734375 54.109375 11.28125 
L 54.109375 2.78125 
Q 49.265625 0.734375 44.1875 -0.34375 
Q 39.109375 -1.421875 33.890625 -1.421875 
Q 20.796875 -1.421875 13.15625 6.1875 
Q 5.515625 13.8125 5.515625 26.8125 
Q 5.515625 40.234375 12.765625 48.109375 
Q 20.015625 56 32.328125 56 
Q 43.359375 56 49.78125 48.890625 
Q 56.203125 41.796875 56.203125 29.59375 
z
M 47.21875 32.234375 
Q 47.125 39.59375 43.09375 43.984375 
Q 39.0625 48.390625 32.421875 48.390625 
Q 24.90625 48.390625 20.390625 44.140625 
Q 15.875 39.890625 15.1875 32.171875 
z
" id="DejaVuSans-101"/>
      <path d="M 45.40625 46.390625 
L 45.40625 75.984375 
L 54.390625 75.984375 
L 54.390625 0 
L 45.40625 0 
L 45.40625 8.203125 
Q 42.578125 3.328125 38.25 0.953125 
Q 33.9375 -1.421875 27.875 -1.421875 
Q 17.96875 -1.421875 11.734375 6.484375 
Q 5.515625 14.40625 5.515625 27.296875 
Q 5.515625 40.1875 11.734375 48.09375 
Q 17.96875 56 27.875 56 
Q 33.9375 56 38.25 53.625 
Q 42.578125 51.265625 45.40625 46.390625 
z
M 14.796875 27.296875 
Q 14.796875 17.390625 18.875 11.75 
Q 22.953125 6.109375 30.078125 6.109375 
Q 37.203125 6.109375 41.296875 11.75 
Q 45.40625 17.390625 45.40625 27.296875 
Q 45.40625 37.203125 41.296875 42.84375 
Q 37.203125 48.484375 30.078125 48.484375 
Q 22.953125 48.484375 18.875 42.84375 
Q 14.796875 37.203125 14.796875 27.296875 
z
" id="DejaVuSans-100"/>
      <path d="M 9.421875 54.6875 
L 18.40625 54.6875 
L 18.40625 0 
L 9.421875 0 
z
M 9.421875 75.984375 
L 18.40625 75.984375 
L 18.40625 64.59375 
L 9.421875 64.59375 
z
" id="DejaVuSans-105"/>
      <path d="M 48.78125 52.59375 
L 48.78125 44.1875 
Q 44.96875 46.296875 41.140625 47.34375 
Q 37.3125 48.390625 33.40625 48.390625 
Q 24.65625 48.390625 19.8125 42.84375 
Q 14.984375 37.3125 14.984375 27.296875 
Q 14.984375 17.28125 19.8125 11.734375 
Q 24.65625 6.203125 33.40625 6.203125 
Q 37.3125 6.203125 41.140625 7.25 
Q 44.96875 8.296875 48.78125 10.40625 
L 48.78125 2.09375 
Q 45.015625 0.34375 40.984375 -0.53125 
Q 36.96875 -1.421875 32.421875 -1.421875 
Q 20.0625 -1.421875 12.78125 6.34375 
Q 5.515625 14.109375 5.515625 27.296875 
Q 5.515625 40.671875 12.859375 48.328125 
Q 20.21875 56 33.015625 56 
Q 37.15625 56 41.109375 55.140625 
Q 45.0625 54.296875 48.78125 52.59375 
z
" id="DejaVuSans-99"/>
      <path d="M 18.3125 70.21875 
L 18.3125 54.6875 
L 36.8125 54.6875 
L 36.8125 47.703125 
L 18.3125 47.703125 
L 18.3125 18.015625 
Q 18.3125 11.328125 20.140625 9.421875 
Q 21.96875 7.515625 27.59375 7.515625 
L 36.8125 7.515625 
L 36.8125 0 
L 27.59375 0 
Q 17.1875 0 13.234375 3.875 
Q 9.28125 7.765625 9.28125 18.015625 
L 9.28125 47.703125 
L 2.6875 47.703125 
L 2.6875 54.6875 
L 9.28125 54.6875 
L 9.28125 70.21875 
z
" id="DejaVuSans-116"/>
      <path d="M 30.609375 48.390625 
Q 23.390625 48.390625 19.1875 42.75 
Q 14.984375 37.109375 14.984375 27.296875 
Q 14.984375 17.484375 19.15625 11.84375 
Q 23.34375 6.203125 30.609375 6.203125 
Q 37.796875 6.203125 41.984375 11.859375 
Q 46.1875 17.53125 46.1875 27.296875 
Q 46.1875 37.015625 41.984375 42.703125 
Q 37.796875 48.390625 30.609375 48.390625 
z
M 30.609375 56 
Q 42.328125 56 49.015625 48.375 
Q 55.71875 40.765625 55.71875 27.296875 
Q 55.71875 13.875 49.015625 6.21875 
Q 42.328125 -1.421875 30.609375 -1.421875 
Q 18.84375 -1.421875 12.171875 6.21875 
Q 5.515625 13.875 5.515625 27.296875 
Q 5.515625 40.765625 12.171875 48.375 
Q 18.84375 56 30.609375 56 
z
" id="DejaVuSans-111"/>
      <path d="M 54.890625 33.015625 
L 54.890625 0 
L 45.90625 0 
L 45.90625 32.71875 
Q 45.90625 40.484375 42.875 44.328125 
Q 39.84375 48.1875 33.796875 48.1875 
Q 26.515625 48.1875 22.3125 43.546875 
Q 18.109375 38.921875 18.109375 30.90625 
L 18.109375 0 
L 9.078125 0 
L 9.078125 54.6875 
L 18.109375 54.6875 
L 18.109375 46.1875 
Q 21.34375 51.125 25.703125 53.5625 
Q 30.078125 56 35.796875 56 
Q 45.21875 56 50.046875 50.171875 
Q 54.890625 44.34375 54.890625 33.015625 
z
" id="DejaVuSans-110"/>
      <path id="DejaVuSans-32"/>
      <path d="M 44.28125 53.078125 
L 44.28125 44.578125 
Q 40.484375 46.53125 36.375 47.5 
Q 32.28125 48.484375 27.875 48.484375 
Q 21.1875 48.484375 17.84375 46.4375 
Q 14.5 44.390625 14.5 40.28125 
Q 14.5 37.15625 16.890625 35.375 
Q 19.28125 33.59375 26.515625 31.984375 
L 29.59375 31.296875 
Q 39.15625 29.25 43.1875 25.515625 
Q 47.21875 21.78125 47.21875 15.09375 
Q 47.21875 7.46875 41.1875 3.015625 
Q 35.15625 -1.421875 24.609375 -1.421875 
Q 20.21875 -1.421875 15.453125 -0.5625 
Q 10.6875 0.296875 5.421875 2 
L 5.421875 11.28125 
Q 10.40625 8.6875 15.234375 7.390625 
Q 20.0625 6.109375 24.8125 6.109375 
Q 31.15625 6.109375 34.5625 8.28125 
Q 37.984375 10.453125 37.984375 14.40625 
Q 37.984375 18.0625 35.515625 20.015625 
Q 33.0625 21.96875 24.703125 23.78125 
L 21.578125 24.515625 
Q 13.234375 26.265625 9.515625 29.90625 
Q 5.8125 33.546875 5.8125 39.890625 
Q 5.8125 47.609375 11.28125 51.796875 
Q 16.75 56 26.8125 56 
Q 31.78125 56 36.171875 55.265625 
Q 40.578125 54.546875 44.28125 53.078125 
z
" id="DejaVuSans-115"/>
     </defs>
     <g transform="translate(451.240312 59.400138)scale(0.1 -0.1)">
      <use xlink:href="#DejaVuSans-112"/>
      <use x="63.476562" xlink:href="#DejaVuSans-114"/>
      <use x="104.558594" xlink:href="#DejaVuSans-101"/>
      <use x="166.082031" xlink:href="#DejaVuSans-100"/>
      <use x="229.558594" xlink:href="#DejaVuSans-105"/>
      <use x="257.341797" xlink:href="#DejaVuSans-99"/>
      <use x="312.322266" xlink:href="#DejaVuSans-116"/>
      <use x="351.53125" xlink:href="#DejaVuSans-105"/>
      <use x="379.314453" xlink:href="#DejaVuSans-111"/>
      <use x="440.496094" xlink:href="#DejaVuSans-110"/>
      <use x="503.875" xlink:href="#DejaVuSans-32"/>
      <use x="535.662109" xlink:href="#DejaVuSans-112"/>
      <use x="599.138672" xlink:href="#DejaVuSans-111"/>
      <use x="660.320312" xlink:href="#DejaVuSans-105"/>
      <use x="688.103516" xlink:href="#DejaVuSans-110"/>
      <use x="751.482422" xlink:href="#DejaVuSans-116"/>
      <use x="790.691406" xlink:href="#DejaVuSans-115"/>
     </g>
    </g>
    <g id="PathCollection_4">
     <g>
      <use style="fill:#ff0000;stroke:#ff0000;" x="433.240312" xlink:href="#m37cb00fe65" y="71.453263"/>
     </g>
    </g>
    <g id="text_20">
     <!-- target point -->
     <defs>
      <path d="M 34.28125 27.484375 
Q 23.390625 27.484375 19.1875 25 
Q 14.984375 22.515625 14.984375 16.5 
Q 14.984375 11.71875 18.140625 8.90625 
Q 21.296875 6.109375 26.703125 6.109375 
Q 34.1875 6.109375 38.703125 11.40625 
Q 43.21875 16.703125 43.21875 25.484375 
L 43.21875 27.484375 
z
M 52.203125 31.203125 
L 52.203125 0 
L 43.21875 0 
L 43.21875 8.296875 
Q 40.140625 3.328125 35.546875 0.953125 
Q 30.953125 -1.421875 24.3125 -1.421875 
Q 15.921875 -1.421875 10.953125 3.296875 
Q 6 8.015625 6 15.921875 
Q 6 25.140625 12.171875 29.828125 
Q 18.359375 34.515625 30.609375 34.515625 
L 43.21875 34.515625 
L 43.21875 35.40625 
Q 43.21875 41.609375 39.140625 45 
Q 35.0625 48.390625 27.6875 48.390625 
Q 23 48.390625 18.546875 47.265625 
Q 14.109375 46.140625 10.015625 43.890625 
L 10.015625 52.203125 
Q 14.9375 54.109375 19.578125 55.046875 
Q 24.21875 56 28.609375 56 
Q 40.484375 56 46.34375 49.84375 
Q 52.203125 43.703125 52.203125 31.203125 
z
" id="DejaVuSans-97"/>
      <path d="M 45.40625 27.984375 
Q 45.40625 37.75 41.375 43.109375 
Q 37.359375 48.484375 30.078125 48.484375 
Q 22.859375 48.484375 18.828125 43.109375 
Q 14.796875 37.75 14.796875 27.984375 
Q 14.796875 18.265625 18.828125 12.890625 
Q 22.859375 7.515625 30.078125 7.515625 
Q 37.359375 7.515625 41.375 12.890625 
Q 45.40625 18.265625 45.40625 27.984375 
z
M 54.390625 6.78125 
Q 54.390625 -7.171875 48.1875 -13.984375 
Q 42 -20.796875 29.203125 -20.796875 
Q 24.46875 -20.796875 20.265625 -20.09375 
Q 16.0625 -19.390625 12.109375 -17.921875 
L 12.109375 -9.1875 
Q 16.0625 -11.328125 19.921875 -12.34375 
Q 23.78125 -13.375 27.78125 -13.375 
Q 36.625 -13.375 41.015625 -8.765625 
Q 45.40625 -4.15625 45.40625 5.171875 
L 45.40625 9.625 
Q 42.625 4.78125 38.28125 2.390625 
Q 33.9375 0 27.875 0 
Q 17.828125 0 11.671875 7.65625 
Q 5.515625 15.328125 5.515625 27.984375 
Q 5.515625 40.671875 11.671875 48.328125 
Q 17.828125 56 27.875 56 
Q 33.9375 56 38.28125 53.609375 
Q 42.625 51.21875 45.40625 46.390625 
L 45.40625 54.6875 
L 54.390625 54.6875 
z
" id="DejaVuSans-103"/>
     </defs>
     <g transform="translate(451.240312 74.078263)scale(0.1 -0.1)">
      <use xlink:href="#DejaVuSans-116"/>
      <use x="39.208984" xlink:href="#DejaVuSans-97"/>
      <use x="100.488281" xlink:href="#DejaVuSans-114"/>
      <use x="141.585938" xlink:href="#DejaVuSans-103"/>
      <use x="205.0625" xlink:href="#DejaVuSans-101"/>
      <use x="266.585938" xlink:href="#DejaVuSans-116"/>
      <use x="305.794922" xlink:href="#DejaVuSans-32"/>
      <use x="337.582031" xlink:href="#DejaVuSans-112"/>
      <use x="401.058594" xlink:href="#DejaVuSans-111"/>
      <use x="462.240234" xlink:href="#DejaVuSans-105"/>
      <use x="490.023438" xlink:href="#DejaVuSans-110"/>
      <use x="553.402344" xlink:href="#DejaVuSans-116"/>
     </g>
    </g>
   </g>
  </g>
 </g>
 <defs>
  <clipPath id="p17a9f33fde">
   <rect height="469.9823" width="472.69775" x="71.82225" y="42.8017"/>
  </clipPath>
 </defs>
</svg>
