<?xml version="1.0" encoding="utf-8" standalone="no"?>
<!DOCTYPE svg PUBLIC "-//W3C//DTD SVG 1.1//EN"
  "http://www.w3.org/Graphics/SVG/1.1/DTD/svg11.dtd">
<!-- Created with matplotlib (https://matplotlib.org/) -->
<svg height="576pt" version="1.1" viewBox="0 0 576 576" width="576pt" xmlns="http://www.w3.org/2000/svg" xmlns:xlink="http://www.w3.org/1999/xlink">
 <defs>
  <style type="text/css">
*{stroke-linecap:butt;stroke-linejoin:round;}
  </style>
 </defs>
 <g id="figure_1">
  <g id="patch_1">
   <path d="M 0 576 
L 576 576 
L 576 0 
L 0 0 
z
" style="fill:#ffffff;"/>
  </g>
  <g id="axes_1">
   <g id="patch_2">
    <path d="M 71.82225 512.784 
L 544.52 512.784 
L 544.52 42.8017 
L 71.82225 42.8017 
z
" style="fill:#ffffff;"/>
   </g>
   <g id="PathCollection_1">
    <defs>
     <path d="M -3 3 
L 3 -3 
M -3 -3 
L 3 3 
" id="m53b51c4af3" style="stroke:#0000ff;stroke-width:1.5;"/>
    </defs>
    <g clip-path="url(#pd2d2bb8bce)">
     <use style="fill:#0000ff;stroke:#0000ff;stroke-width:1.5;" x="331.304774" xlink:href="#m53b51c4af3" y="273.220911"/>
     <use style="fill:#0000ff;stroke:#0000ff;stroke-width:1.5;" x="313.837257" xlink:href="#m53b51c4af3" y="275.086902"/>
     <use style="fill:#0000ff;stroke:#0000ff;stroke-width:1.5;" x="297.736178" xlink:href="#m53b51c4af3" y="294.277536"/>
     <use style="fill:#0000ff;stroke:#0000ff;stroke-width:1.5;" x="302.959783" xlink:href="#m53b51c4af3" y="309.960681"/>
     <use style="fill:#0000ff;stroke:#0000ff;stroke-width:1.5;" x="322.161512" xlink:href="#m53b51c4af3" y="280.542374"/>
     <use style="fill:#0000ff;stroke:#0000ff;stroke-width:1.5;" x="291.502862" xlink:href="#m53b51c4af3" y="301.436165"/>
     <use style="fill:#0000ff;stroke:#0000ff;stroke-width:1.5;" x="348.328353" xlink:href="#m53b51c4af3" y="293.186322"/>
     <use style="fill:#0000ff;stroke:#0000ff;stroke-width:1.5;" x="311.244783" xlink:href="#m53b51c4af3" y="329.992898"/>
     <use style="fill:#0000ff;stroke:#0000ff;stroke-width:1.5;" x="284.966376" xlink:href="#m53b51c4af3" y="295.478233"/>
     <use style="fill:#0000ff;stroke:#0000ff;stroke-width:1.5;" x="272.560671" xlink:href="#m53b51c4af3" y="256.323953"/>
     <use style="fill:#0000ff;stroke:#0000ff;stroke-width:1.5;" x="331.866978" xlink:href="#m53b51c4af3" y="274.419337"/>
     <use style="fill:#0000ff;stroke:#0000ff;stroke-width:1.5;" x="322.858135" xlink:href="#m53b51c4af3" y="269.421342"/>
     <use style="fill:#0000ff;stroke:#0000ff;stroke-width:1.5;" x="293.920805" xlink:href="#m53b51c4af3" y="263.154839"/>
     <use style="fill:#0000ff;stroke:#0000ff;stroke-width:1.5;" x="302.315682" xlink:href="#m53b51c4af3" y="302.231997"/>
     <use style="fill:#0000ff;stroke:#0000ff;stroke-width:1.5;" x="301.373975" xlink:href="#m53b51c4af3" y="298.007822"/>
     <use style="fill:#0000ff;stroke:#0000ff;stroke-width:1.5;" x="332.861474" xlink:href="#m53b51c4af3" y="279.127616"/>
     <use style="fill:#0000ff;stroke:#0000ff;stroke-width:1.5;" x="305.80481" xlink:href="#m53b51c4af3" y="296.382436"/>
     <use style="fill:#0000ff;stroke:#0000ff;stroke-width:1.5;" x="314.40056" xlink:href="#m53b51c4af3" y="293.861802"/>
     <use style="fill:#0000ff;stroke:#0000ff;stroke-width:1.5;" x="304.198192" xlink:href="#m53b51c4af3" y="260.965114"/>
     <use style="fill:#0000ff;stroke:#0000ff;stroke-width:1.5;" x="1028.719654" xlink:href="#m53b51c4af3" y="317.447452"/>
     <use style="fill:#0000ff;stroke:#0000ff;stroke-width:1.5;" x="297.735047" xlink:href="#m53b51c4af3" y="291.589553"/>
     <use style="fill:#0000ff;stroke:#0000ff;stroke-width:1.5;" x="287.082735" xlink:href="#m53b51c4af3" y="278.183004"/>
     <use style="fill:#0000ff;stroke:#0000ff;stroke-width:1.5;" x="324.038789" xlink:href="#m53b51c4af3" y="298.212069"/>
     <use style="fill:#0000ff;stroke:#0000ff;stroke-width:1.5;" x="297.197964" xlink:href="#m53b51c4af3" y="286.4643"/>
     <use style="fill:#0000ff;stroke:#0000ff;stroke-width:1.5;" x="288.09364" xlink:href="#m53b51c4af3" y="209.858237"/>
     <use style="fill:#0000ff;stroke:#0000ff;stroke-width:1.5;" x="313.221466" xlink:href="#m53b51c4af3" y="283.223897"/>
     <use style="fill:#0000ff;stroke:#0000ff;stroke-width:1.5;" x="392.98735" xlink:href="#m53b51c4af3" y="273.809148"/>
     <use style="fill:#0000ff;stroke:#0000ff;stroke-width:1.5;" x="287.874041" xlink:href="#m53b51c4af3" y="287.043618"/>
     <use style="fill:#0000ff;stroke:#0000ff;stroke-width:1.5;" x="310.736291" xlink:href="#m53b51c4af3" y="295.506968"/>
     <use style="fill:#0000ff;stroke:#0000ff;stroke-width:1.5;" x="345.184085" xlink:href="#m53b51c4af3" y="253.494207"/>
     <use style="fill:#0000ff;stroke:#0000ff;stroke-width:1.5;" x="305.154355" xlink:href="#m53b51c4af3" y="274.85858"/>
     <use style="fill:#0000ff;stroke:#0000ff;stroke-width:1.5;" x="308.802159" xlink:href="#m53b51c4af3" y="240.55008"/>
     <use style="fill:#0000ff;stroke:#0000ff;stroke-width:1.5;" x="275.081054" xlink:href="#m53b51c4af3" y="265.984234"/>
     <use style="fill:#0000ff;stroke:#0000ff;stroke-width:1.5;" x="314.186764" xlink:href="#m53b51c4af3" y="258.324766"/>
     <use style="fill:#0000ff;stroke:#0000ff;stroke-width:1.5;" x="322.901219" xlink:href="#m53b51c4af3" y="280.074727"/>
     <use style="fill:#0000ff;stroke:#0000ff;stroke-width:1.5;" x="298.121378" xlink:href="#m53b51c4af3" y="281.318282"/>
     <use style="fill:#0000ff;stroke:#0000ff;stroke-width:1.5;" x="331.41" xlink:href="#m53b51c4af3" y="272.415234"/>
     <use style="fill:#0000ff;stroke:#0000ff;stroke-width:1.5;" x="296.893354" xlink:href="#m53b51c4af3" y="271.807256"/>
     <use style="fill:#0000ff;stroke:#0000ff;stroke-width:1.5;" x="334.34466" xlink:href="#m53b51c4af3" y="266.729663"/>
     <use style="fill:#0000ff;stroke:#0000ff;stroke-width:1.5;" x="313.028215" xlink:href="#m53b51c4af3" y="305.399421"/>
     <use style="fill:#0000ff;stroke:#0000ff;stroke-width:1.5;" x="290.341313" xlink:href="#m53b51c4af3" y="280.509777"/>
     <use style="fill:#0000ff;stroke:#0000ff;stroke-width:1.5;" x="284.808294" xlink:href="#m53b51c4af3" y="259.28949"/>
     <use style="fill:#0000ff;stroke:#0000ff;stroke-width:1.5;" x="287.82348" xlink:href="#m53b51c4af3" y="304.1165"/>
     <use style="fill:#0000ff;stroke:#0000ff;stroke-width:1.5;" x="289.957448" xlink:href="#m53b51c4af3" y="281.239482"/>
     <use style="fill:#0000ff;stroke:#0000ff;stroke-width:1.5;" x="278.633209" xlink:href="#m53b51c4af3" y="281.19595"/>
     <use style="fill:#0000ff;stroke:#0000ff;stroke-width:1.5;" x="320.594562" xlink:href="#m53b51c4af3" y="242.898602"/>
     <use style="fill:#0000ff;stroke:#0000ff;stroke-width:1.5;" x="301.002681" xlink:href="#m53b51c4af3" y="275.002401"/>
     <use style="fill:#0000ff;stroke:#0000ff;stroke-width:1.5;" x="317.0444" xlink:href="#m53b51c4af3" y="239.326054"/>
     <use style="fill:#0000ff;stroke:#0000ff;stroke-width:1.5;" x="317.991235" xlink:href="#m53b51c4af3" y="276.411918"/>
     <use style="fill:#0000ff;stroke:#0000ff;stroke-width:1.5;" x="296.796063" xlink:href="#m53b51c4af3" y="262.855953"/>
     <use style="fill:#0000ff;stroke:#0000ff;stroke-width:1.5;" x="306.718386" xlink:href="#m53b51c4af3" y="283.706301"/>
     <use style="fill:#0000ff;stroke:#0000ff;stroke-width:1.5;" x="297.730035" xlink:href="#m53b51c4af3" y="294.622868"/>
     <use style="fill:#0000ff;stroke:#0000ff;stroke-width:1.5;" x="318.72106" xlink:href="#m53b51c4af3" y="281.865904"/>
     <use style="fill:#0000ff;stroke:#0000ff;stroke-width:1.5;" x="303.31934" xlink:href="#m53b51c4af3" y="293.64262"/>
     <use style="fill:#0000ff;stroke:#0000ff;stroke-width:1.5;" x="314.993584" xlink:href="#m53b51c4af3" y="269.463546"/>
     <use style="fill:#0000ff;stroke:#0000ff;stroke-width:1.5;" x="313.114067" xlink:href="#m53b51c4af3" y="285.486195"/>
     <use style="fill:#0000ff;stroke:#0000ff;stroke-width:1.5;" x="321.769839" xlink:href="#m53b51c4af3" y="275.898773"/>
     <use style="fill:#0000ff;stroke:#0000ff;stroke-width:1.5;" x="337.219102" xlink:href="#m53b51c4af3" y="290.769085"/>
     <use style="fill:#0000ff;stroke:#0000ff;stroke-width:1.5;" x="287.477153" xlink:href="#m53b51c4af3" y="259.053991"/>
     <use style="fill:#0000ff;stroke:#0000ff;stroke-width:1.5;" x="519.637267" xlink:href="#m53b51c4af3" y="202.277529"/>
     <use style="fill:#0000ff;stroke:#0000ff;stroke-width:1.5;" x="327.768221" xlink:href="#m53b51c4af3" y="305.853114"/>
     <use style="fill:#0000ff;stroke:#0000ff;stroke-width:1.5;" x="327.580754" xlink:href="#m53b51c4af3" y="294.436387"/>
     <use style="fill:#0000ff;stroke:#0000ff;stroke-width:1.5;" x="349.701432" xlink:href="#m53b51c4af3" y="297.077252"/>
     <use style="fill:#0000ff;stroke:#0000ff;stroke-width:1.5;" x="318.364545" xlink:href="#m53b51c4af3" y="300.566042"/>
     <use style="fill:#0000ff;stroke:#0000ff;stroke-width:1.5;" x="344.574818" xlink:href="#m53b51c4af3" y="267.774454"/>
     <use style="fill:#0000ff;stroke:#0000ff;stroke-width:1.5;" x="342.165255" xlink:href="#m53b51c4af3" y="225.558508"/>
     <use style="fill:#0000ff;stroke:#0000ff;stroke-width:1.5;" x="324.791076" xlink:href="#m53b51c4af3" y="291.358653"/>
     <use style="fill:#0000ff;stroke:#0000ff;stroke-width:1.5;" x="333.593242" xlink:href="#m53b51c4af3" y="305.921774"/>
     <use style="fill:#0000ff;stroke:#0000ff;stroke-width:1.5;" x="312.49143" xlink:href="#m53b51c4af3" y="279.530271"/>
     <use style="fill:#0000ff;stroke:#0000ff;stroke-width:1.5;" x="311.784029" xlink:href="#m53b51c4af3" y="272.289405"/>
     <use style="fill:#0000ff;stroke:#0000ff;stroke-width:1.5;" x="307.998045" xlink:href="#m53b51c4af3" y="288.529149"/>
     <use style="fill:#0000ff;stroke:#0000ff;stroke-width:1.5;" x="326.196398" xlink:href="#m53b51c4af3" y="243.79777"/>
     <use style="fill:#0000ff;stroke:#0000ff;stroke-width:1.5;" x="273.461475" xlink:href="#m53b51c4af3" y="273.684145"/>
     <use style="fill:#0000ff;stroke:#0000ff;stroke-width:1.5;" x="299.036964" xlink:href="#m53b51c4af3" y="282.697956"/>
     <use style="fill:#0000ff;stroke:#0000ff;stroke-width:1.5;" x="301.573557" xlink:href="#m53b51c4af3" y="242.462967"/>
     <use style="fill:#0000ff;stroke:#0000ff;stroke-width:1.5;" x="304.414642" xlink:href="#m53b51c4af3" y="283.785885"/>
     <use style="fill:#0000ff;stroke:#0000ff;stroke-width:1.5;" x="296.889608" xlink:href="#m53b51c4af3" y="295.514476"/>
     <use style="fill:#0000ff;stroke:#0000ff;stroke-width:1.5;" x="314.444257" xlink:href="#m53b51c4af3" y="284.688432"/>
     <use style="fill:#0000ff;stroke:#0000ff;stroke-width:1.5;" x="324.598091" xlink:href="#m53b51c4af3" y="287.046032"/>
     <use style="fill:#0000ff;stroke:#0000ff;stroke-width:1.5;" x="307.888176" xlink:href="#m53b51c4af3" y="288.592986"/>
     <use style="fill:#0000ff;stroke:#0000ff;stroke-width:1.5;" x="323.627137" xlink:href="#m53b51c4af3" y="267.033892"/>
     <use style="fill:#0000ff;stroke:#0000ff;stroke-width:1.5;" x="329.841326" xlink:href="#m53b51c4af3" y="315.534937"/>
     <use style="fill:#0000ff;stroke:#0000ff;stroke-width:1.5;" x="308.700773" xlink:href="#m53b51c4af3" y="310.952227"/>
     <use style="fill:#0000ff;stroke:#0000ff;stroke-width:1.5;" x="337.486811" xlink:href="#m53b51c4af3" y="172.453316"/>
     <use style="fill:#0000ff;stroke:#0000ff;stroke-width:1.5;" x="334.163066" xlink:href="#m53b51c4af3" y="275.540822"/>
     <use style="fill:#0000ff;stroke:#0000ff;stroke-width:1.5;" x="331.418755" xlink:href="#m53b51c4af3" y="273.204373"/>
     <use style="fill:#0000ff;stroke:#0000ff;stroke-width:1.5;" x="290.630547" xlink:href="#m53b51c4af3" y="292.156426"/>
     <use style="fill:#0000ff;stroke:#0000ff;stroke-width:1.5;" x="284.732877" xlink:href="#m53b51c4af3" y="259.283076"/>
     <use style="fill:#0000ff;stroke:#0000ff;stroke-width:1.5;" x="309.624585" xlink:href="#m53b51c4af3" y="303.656645"/>
     <use style="fill:#0000ff;stroke:#0000ff;stroke-width:1.5;" x="296.602454" xlink:href="#m53b51c4af3" y="266.530886"/>
     <use style="fill:#0000ff;stroke:#0000ff;stroke-width:1.5;" x="303.082431" xlink:href="#m53b51c4af3" y="302.070571"/>
     <use style="fill:#0000ff;stroke:#0000ff;stroke-width:1.5;" x="316.278599" xlink:href="#m53b51c4af3" y="287.937088"/>
     <use style="fill:#0000ff;stroke:#0000ff;stroke-width:1.5;" x="342.763254" xlink:href="#m53b51c4af3" y="282.656756"/>
     <use style="fill:#0000ff;stroke:#0000ff;stroke-width:1.5;" x="325.361155" xlink:href="#m53b51c4af3" y="289.122002"/>
     <use style="fill:#0000ff;stroke:#0000ff;stroke-width:1.5;" x="298.643724" xlink:href="#m53b51c4af3" y="286.351388"/>
     <use style="fill:#0000ff;stroke:#0000ff;stroke-width:1.5;" x="336.248469" xlink:href="#m53b51c4af3" y="293.400693"/>
     <use style="fill:#0000ff;stroke:#0000ff;stroke-width:1.5;" x="320.596116" xlink:href="#m53b51c4af3" y="304.265502"/>
     <use style="fill:#0000ff;stroke:#0000ff;stroke-width:1.5;" x="305.592917" xlink:href="#m53b51c4af3" y="267.963808"/>
     <use style="fill:#0000ff;stroke:#0000ff;stroke-width:1.5;" x="290.179834" xlink:href="#m53b51c4af3" y="291.237752"/>
     <use style="fill:#0000ff;stroke:#0000ff;stroke-width:1.5;" x="316.660765" xlink:href="#m53b51c4af3" y="273.06387"/>
     <use style="fill:#0000ff;stroke:#0000ff;stroke-width:1.5;" x="298.801385" xlink:href="#m53b51c4af3" y="284.903503"/>
     <use style="fill:#0000ff;stroke:#0000ff;stroke-width:1.5;" x="328.742787" xlink:href="#m53b51c4af3" y="260.777113"/>
     <use style="fill:#0000ff;stroke:#0000ff;stroke-width:1.5;" x="325.979275" xlink:href="#m53b51c4af3" y="283.471565"/>
     <use style="fill:#0000ff;stroke:#0000ff;stroke-width:1.5;" x="352.058464" xlink:href="#m53b51c4af3" y="293.499236"/>
     <use style="fill:#0000ff;stroke:#0000ff;stroke-width:1.5;" x="323.740965" xlink:href="#m53b51c4af3" y="289.864747"/>
     <use style="fill:#0000ff;stroke:#0000ff;stroke-width:1.5;" x="303.69484" xlink:href="#m53b51c4af3" y="287.796894"/>
     <use style="fill:#0000ff;stroke:#0000ff;stroke-width:1.5;" x="301.430812" xlink:href="#m53b51c4af3" y="269.143717"/>
     <use style="fill:#0000ff;stroke:#0000ff;stroke-width:1.5;" x="338.834524" xlink:href="#m53b51c4af3" y="319.792675"/>
     <use style="fill:#0000ff;stroke:#0000ff;stroke-width:1.5;" x="322.814745" xlink:href="#m53b51c4af3" y="241.59478"/>
     <use style="fill:#0000ff;stroke:#0000ff;stroke-width:1.5;" x="370.340142" xlink:href="#m53b51c4af3" y="318.198628"/>
     <use style="fill:#0000ff;stroke:#0000ff;stroke-width:1.5;" x="322.60714" xlink:href="#m53b51c4af3" y="291.154339"/>
     <use style="fill:#0000ff;stroke:#0000ff;stroke-width:1.5;" x="265.8509" xlink:href="#m53b51c4af3" y="311.85844"/>
     <use style="fill:#0000ff;stroke:#0000ff;stroke-width:1.5;" x="299.603543" xlink:href="#m53b51c4af3" y="275.449769"/>
     <use style="fill:#0000ff;stroke:#0000ff;stroke-width:1.5;" x="292.134477" xlink:href="#m53b51c4af3" y="251.560741"/>
     <use style="fill:#0000ff;stroke:#0000ff;stroke-width:1.5;" x="311.321208" xlink:href="#m53b51c4af3" y="301.58454"/>
     <use style="fill:#0000ff;stroke:#0000ff;stroke-width:1.5;" x="308.149627" xlink:href="#m53b51c4af3" y="309.313733"/>
     <use style="fill:#0000ff;stroke:#0000ff;stroke-width:1.5;" x="276.643603" xlink:href="#m53b51c4af3" y="291.210691"/>
     <use style="fill:#0000ff;stroke:#0000ff;stroke-width:1.5;" x="365.500032" xlink:href="#m53b51c4af3" y="282.50223"/>
     <use style="fill:#0000ff;stroke:#0000ff;stroke-width:1.5;" x="320.266476" xlink:href="#m53b51c4af3" y="234.885054"/>
     <use style="fill:#0000ff;stroke:#0000ff;stroke-width:1.5;" x="313.402625" xlink:href="#m53b51c4af3" y="297.406276"/>
     <use style="fill:#0000ff;stroke:#0000ff;stroke-width:1.5;" x="324.752767" xlink:href="#m53b51c4af3" y="252.697389"/>
     <use style="fill:#0000ff;stroke:#0000ff;stroke-width:1.5;" x="321.264866" xlink:href="#m53b51c4af3" y="279.799699"/>
     <use style="fill:#0000ff;stroke:#0000ff;stroke-width:1.5;" x="334.573298" xlink:href="#m53b51c4af3" y="281.685224"/>
     <use style="fill:#0000ff;stroke:#0000ff;stroke-width:1.5;" x="309.050001" xlink:href="#m53b51c4af3" y="283.376877"/>
     <use style="fill:#0000ff;stroke:#0000ff;stroke-width:1.5;" x="303.739567" xlink:href="#m53b51c4af3" y="288.754331"/>
     <use style="fill:#0000ff;stroke:#0000ff;stroke-width:1.5;" x="338.582513" xlink:href="#m53b51c4af3" y="258.498963"/>
     <use style="fill:#0000ff;stroke:#0000ff;stroke-width:1.5;" x="299.996325" xlink:href="#m53b51c4af3" y="288.879782"/>
     <use style="fill:#0000ff;stroke:#0000ff;stroke-width:1.5;" x="292.430127" xlink:href="#m53b51c4af3" y="273.637013"/>
     <use style="fill:#0000ff;stroke:#0000ff;stroke-width:1.5;" x="326.772237" xlink:href="#m53b51c4af3" y="301.227079"/>
     <use style="fill:#0000ff;stroke:#0000ff;stroke-width:1.5;" x="282.630832" xlink:href="#m53b51c4af3" y="285.54828"/>
     <use style="fill:#0000ff;stroke:#0000ff;stroke-width:1.5;" x="299.821942" xlink:href="#m53b51c4af3" y="258.347616"/>
     <use style="fill:#0000ff;stroke:#0000ff;stroke-width:1.5;" x="329.172954" xlink:href="#m53b51c4af3" y="271.071387"/>
     <use style="fill:#0000ff;stroke:#0000ff;stroke-width:1.5;" x="329.701121" xlink:href="#m53b51c4af3" y="272.799207"/>
     <use style="fill:#0000ff;stroke:#0000ff;stroke-width:1.5;" x="353.68417" xlink:href="#m53b51c4af3" y="270.101208"/>
     <use style="fill:#0000ff;stroke:#0000ff;stroke-width:1.5;" x="326.010727" xlink:href="#m53b51c4af3" y="287.773141"/>
     <use style="fill:#0000ff;stroke:#0000ff;stroke-width:1.5;" x="322.349227" xlink:href="#m53b51c4af3" y="278.109692"/>
     <use style="fill:#0000ff;stroke:#0000ff;stroke-width:1.5;" x="348.766876" xlink:href="#m53b51c4af3" y="232.004661"/>
     <use style="fill:#0000ff;stroke:#0000ff;stroke-width:1.5;" x="321.910799" xlink:href="#m53b51c4af3" y="271.808931"/>
     <use style="fill:#0000ff;stroke:#0000ff;stroke-width:1.5;" x="333.612066" xlink:href="#m53b51c4af3" y="289.956125"/>
     <use style="fill:#0000ff;stroke:#0000ff;stroke-width:1.5;" x="333.548258" xlink:href="#m53b51c4af3" y="292.491022"/>
     <use style="fill:#0000ff;stroke:#0000ff;stroke-width:1.5;" x="355.081982" xlink:href="#m53b51c4af3" y="244.977644"/>
     <use style="fill:#0000ff;stroke:#0000ff;stroke-width:1.5;" x="326.529717" xlink:href="#m53b51c4af3" y="287.715024"/>
     <use style="fill:#0000ff;stroke:#0000ff;stroke-width:1.5;" x="285.532714" xlink:href="#m53b51c4af3" y="280.949854"/>
     <use style="fill:#0000ff;stroke:#0000ff;stroke-width:1.5;" x="335.349852" xlink:href="#m53b51c4af3" y="259.732488"/>
     <use style="fill:#0000ff;stroke:#0000ff;stroke-width:1.5;" x="350.555597" xlink:href="#m53b51c4af3" y="292.987155"/>
     <use style="fill:#0000ff;stroke:#0000ff;stroke-width:1.5;" x="317.442165" xlink:href="#m53b51c4af3" y="257.335888"/>
     <use style="fill:#0000ff;stroke:#0000ff;stroke-width:1.5;" x="329.274315" xlink:href="#m53b51c4af3" y="262.516619"/>
     <use style="fill:#0000ff;stroke:#0000ff;stroke-width:1.5;" x="328.011359" xlink:href="#m53b51c4af3" y="282.593884"/>
     <use style="fill:#0000ff;stroke:#0000ff;stroke-width:1.5;" x="302.414356" xlink:href="#m53b51c4af3" y="324.417945"/>
     <use style="fill:#0000ff;stroke:#0000ff;stroke-width:1.5;" x="293.292905" xlink:href="#m53b51c4af3" y="299.600929"/>
     <use style="fill:#0000ff;stroke:#0000ff;stroke-width:1.5;" x="314.113109" xlink:href="#m53b51c4af3" y="260.057525"/>
     <use style="fill:#0000ff;stroke:#0000ff;stroke-width:1.5;" x="330.803836" xlink:href="#m53b51c4af3" y="291.684045"/>
     <use style="fill:#0000ff;stroke:#0000ff;stroke-width:1.5;" x="290.379291" xlink:href="#m53b51c4af3" y="301.785119"/>
     <use style="fill:#0000ff;stroke:#0000ff;stroke-width:1.5;" x="338.766692" xlink:href="#m53b51c4af3" y="305.602164"/>
     <use style="fill:#0000ff;stroke:#0000ff;stroke-width:1.5;" x="322.015578" xlink:href="#m53b51c4af3" y="279.559542"/>
     <use style="fill:#0000ff;stroke:#0000ff;stroke-width:1.5;" x="410.66215" xlink:href="#m53b51c4af3" y="285.527387"/>
     <use style="fill:#0000ff;stroke:#0000ff;stroke-width:1.5;" x="317.78145" xlink:href="#m53b51c4af3" y="283.705473"/>
     <use style="fill:#0000ff;stroke:#0000ff;stroke-width:1.5;" x="239.435072" xlink:href="#m53b51c4af3" y="246.636656"/>
     <use style="fill:#0000ff;stroke:#0000ff;stroke-width:1.5;" x="278.960494" xlink:href="#m53b51c4af3" y="281.807452"/>
     <use style="fill:#0000ff;stroke:#0000ff;stroke-width:1.5;" x="312.021799" xlink:href="#m53b51c4af3" y="285.541353"/>
     <use style="fill:#0000ff;stroke:#0000ff;stroke-width:1.5;" x="252.571779" xlink:href="#m53b51c4af3" y="273.539077"/>
     <use style="fill:#0000ff;stroke:#0000ff;stroke-width:1.5;" x="327.828789" xlink:href="#m53b51c4af3" y="285.841661"/>
     <use style="fill:#0000ff;stroke:#0000ff;stroke-width:1.5;" x="309.216585" xlink:href="#m53b51c4af3" y="285.611807"/>
     <use style="fill:#0000ff;stroke:#0000ff;stroke-width:1.5;" x="292.568098" xlink:href="#m53b51c4af3" y="284.900115"/>
     <use style="fill:#0000ff;stroke:#0000ff;stroke-width:1.5;" x="308.030403" xlink:href="#m53b51c4af3" y="276.536677"/>
     <use style="fill:#0000ff;stroke:#0000ff;stroke-width:1.5;" x="307.732769" xlink:href="#m53b51c4af3" y="321.568181"/>
     <use style="fill:#0000ff;stroke:#0000ff;stroke-width:1.5;" x="258.404309" xlink:href="#m53b51c4af3" y="296.189533"/>
     <use style="fill:#0000ff;stroke:#0000ff;stroke-width:1.5;" x="303.608978" xlink:href="#m53b51c4af3" y="254.720082"/>
     <use style="fill:#0000ff;stroke:#0000ff;stroke-width:1.5;" x="286.67423" xlink:href="#m53b51c4af3" y="253.296562"/>
     <use style="fill:#0000ff;stroke:#0000ff;stroke-width:1.5;" x="306.192725" xlink:href="#m53b51c4af3" y="246.03912"/>
     <use style="fill:#0000ff;stroke:#0000ff;stroke-width:1.5;" x="311.106498" xlink:href="#m53b51c4af3" y="281.862815"/>
     <use style="fill:#0000ff;stroke:#0000ff;stroke-width:1.5;" x="314.463238" xlink:href="#m53b51c4af3" y="280.400565"/>
     <use style="fill:#0000ff;stroke:#0000ff;stroke-width:1.5;" x="309.479075" xlink:href="#m53b51c4af3" y="281.71299"/>
     <use style="fill:#0000ff;stroke:#0000ff;stroke-width:1.5;" x="317.770927" xlink:href="#m53b51c4af3" y="262.391821"/>
     <use style="fill:#0000ff;stroke:#0000ff;stroke-width:1.5;" x="323.808142" xlink:href="#m53b51c4af3" y="272.470057"/>
     <use style="fill:#0000ff;stroke:#0000ff;stroke-width:1.5;" x="411.956885" xlink:href="#m53b51c4af3" y="355.809325"/>
     <use style="fill:#0000ff;stroke:#0000ff;stroke-width:1.5;" x="294.419771" xlink:href="#m53b51c4af3" y="269.581963"/>
     <use style="fill:#0000ff;stroke:#0000ff;stroke-width:1.5;" x="680.188954" xlink:href="#m53b51c4af3" y="259.075573"/>
     <use style="fill:#0000ff;stroke:#0000ff;stroke-width:1.5;" x="320.99393" xlink:href="#m53b51c4af3" y="274.006672"/>
     <use style="fill:#0000ff;stroke:#0000ff;stroke-width:1.5;" x="334.808166" xlink:href="#m53b51c4af3" y="265.466576"/>
     <use style="fill:#0000ff;stroke:#0000ff;stroke-width:1.5;" x="328.416404" xlink:href="#m53b51c4af3" y="283.805921"/>
     <use style="fill:#0000ff;stroke:#0000ff;stroke-width:1.5;" x="308.560462" xlink:href="#m53b51c4af3" y="289.008751"/>
     <use style="fill:#0000ff;stroke:#0000ff;stroke-width:1.5;" x="262.525855" xlink:href="#m53b51c4af3" y="267.332616"/>
     <use style="fill:#0000ff;stroke:#0000ff;stroke-width:1.5;" x="353.110823" xlink:href="#m53b51c4af3" y="255.979884"/>
     <use style="fill:#0000ff;stroke:#0000ff;stroke-width:1.5;" x="274.369244" xlink:href="#m53b51c4af3" y="269.851025"/>
     <use style="fill:#0000ff;stroke:#0000ff;stroke-width:1.5;" x="325.574656" xlink:href="#m53b51c4af3" y="299.509698"/>
     <use style="fill:#0000ff;stroke:#0000ff;stroke-width:1.5;" x="314.362012" xlink:href="#m53b51c4af3" y="309.356975"/>
     <use style="fill:#0000ff;stroke:#0000ff;stroke-width:1.5;" x="380.434261" xlink:href="#m53b51c4af3" y="260.245073"/>
     <use style="fill:#0000ff;stroke:#0000ff;stroke-width:1.5;" x="315.052909" xlink:href="#m53b51c4af3" y="313.4693"/>
     <use style="fill:#0000ff;stroke:#0000ff;stroke-width:1.5;" x="306.806362" xlink:href="#m53b51c4af3" y="261.956328"/>
     <use style="fill:#0000ff;stroke:#0000ff;stroke-width:1.5;" x="298.51181" xlink:href="#m53b51c4af3" y="297.295798"/>
     <use style="fill:#0000ff;stroke:#0000ff;stroke-width:1.5;" x="287.989101" xlink:href="#m53b51c4af3" y="260.048557"/>
     <use style="fill:#0000ff;stroke:#0000ff;stroke-width:1.5;" x="317.194451" xlink:href="#m53b51c4af3" y="249.641682"/>
     <use style="fill:#0000ff;stroke:#0000ff;stroke-width:1.5;" x="275.725329" xlink:href="#m53b51c4af3" y="279.147929"/>
     <use style="fill:#0000ff;stroke:#0000ff;stroke-width:1.5;" x="309.049619" xlink:href="#m53b51c4af3" y="284.770107"/>
     <use style="fill:#0000ff;stroke:#0000ff;stroke-width:1.5;" x="287.349511" xlink:href="#m53b51c4af3" y="278.623956"/>
     <use style="fill:#0000ff;stroke:#0000ff;stroke-width:1.5;" x="310.004556" xlink:href="#m53b51c4af3" y="288.116424"/>
     <use style="fill:#0000ff;stroke:#0000ff;stroke-width:1.5;" x="305.733013" xlink:href="#m53b51c4af3" y="293.667648"/>
     <use style="fill:#0000ff;stroke:#0000ff;stroke-width:1.5;" x="284.467914" xlink:href="#m53b51c4af3" y="248.3606"/>
     <use style="fill:#0000ff;stroke:#0000ff;stroke-width:1.5;" x="309.368166" xlink:href="#m53b51c4af3" y="294.548815"/>
     <use style="fill:#0000ff;stroke:#0000ff;stroke-width:1.5;" x="283.747376" xlink:href="#m53b51c4af3" y="260.42755"/>
     <use style="fill:#0000ff;stroke:#0000ff;stroke-width:1.5;" x="317.31266" xlink:href="#m53b51c4af3" y="288.559724"/>
     <use style="fill:#0000ff;stroke:#0000ff;stroke-width:1.5;" x="297.713463" xlink:href="#m53b51c4af3" y="284.164296"/>
     <use style="fill:#0000ff;stroke:#0000ff;stroke-width:1.5;" x="311.212951" xlink:href="#m53b51c4af3" y="290.762859"/>
     <use style="fill:#0000ff;stroke:#0000ff;stroke-width:1.5;" x="389.051526" xlink:href="#m53b51c4af3" y="173.537345"/>
     <use style="fill:#0000ff;stroke:#0000ff;stroke-width:1.5;" x="287.258279" xlink:href="#m53b51c4af3" y="293.576218"/>
     <use style="fill:#0000ff;stroke:#0000ff;stroke-width:1.5;" x="310.337099" xlink:href="#m53b51c4af3" y="299.723201"/>
     <use style="fill:#0000ff;stroke:#0000ff;stroke-width:1.5;" x="316.974661" xlink:href="#m53b51c4af3" y="301.404213"/>
     <use style="fill:#0000ff;stroke:#0000ff;stroke-width:1.5;" x="351.823797" xlink:href="#m53b51c4af3" y="315.879053"/>
     <use style="fill:#0000ff;stroke:#0000ff;stroke-width:1.5;" x="315.453296" xlink:href="#m53b51c4af3" y="249.784253"/>
     <use style="fill:#0000ff;stroke:#0000ff;stroke-width:1.5;" x="352.305889" xlink:href="#m53b51c4af3" y="267.098589"/>
     <use style="fill:#0000ff;stroke:#0000ff;stroke-width:1.5;" x="330.178574" xlink:href="#m53b51c4af3" y="278.680084"/>
     <use style="fill:#0000ff;stroke:#0000ff;stroke-width:1.5;" x="325.853796" xlink:href="#m53b51c4af3" y="278.76017"/>
     <use style="fill:#0000ff;stroke:#0000ff;stroke-width:1.5;" x="347.395367" xlink:href="#m53b51c4af3" y="238.091096"/>
     <use style="fill:#0000ff;stroke:#0000ff;stroke-width:1.5;" x="322.622042" xlink:href="#m53b51c4af3" y="263.107633"/>
     <use style="fill:#0000ff;stroke:#0000ff;stroke-width:1.5;" x="260.65388" xlink:href="#m53b51c4af3" y="277.78064"/>
     <use style="fill:#0000ff;stroke:#0000ff;stroke-width:1.5;" x="283.89289" xlink:href="#m53b51c4af3" y="262.443436"/>
     <use style="fill:#0000ff;stroke:#0000ff;stroke-width:1.5;" x="345.539478" xlink:href="#m53b51c4af3" y="272.758096"/>
     <use style="fill:#0000ff;stroke:#0000ff;stroke-width:1.5;" x="291.530011" xlink:href="#m53b51c4af3" y="272.897361"/>
     <use style="fill:#0000ff;stroke:#0000ff;stroke-width:1.5;" x="334.083678" xlink:href="#m53b51c4af3" y="261.804744"/>
     <use style="fill:#0000ff;stroke:#0000ff;stroke-width:1.5;" x="298.103302" xlink:href="#m53b51c4af3" y="285.268707"/>
     <use style="fill:#0000ff;stroke:#0000ff;stroke-width:1.5;" x="319.436341" xlink:href="#m53b51c4af3" y="361.060146"/>
     <use style="fill:#0000ff;stroke:#0000ff;stroke-width:1.5;" x="317.6242" xlink:href="#m53b51c4af3" y="292.638229"/>
     <use style="fill:#0000ff;stroke:#0000ff;stroke-width:1.5;" x="304.219524" xlink:href="#m53b51c4af3" y="282.970649"/>
     <use style="fill:#0000ff;stroke:#0000ff;stroke-width:1.5;" x="321.653439" xlink:href="#m53b51c4af3" y="291.679988"/>
     <use style="fill:#0000ff;stroke:#0000ff;stroke-width:1.5;" x="316.404446" xlink:href="#m53b51c4af3" y="289.747931"/>
     <use style="fill:#0000ff;stroke:#0000ff;stroke-width:1.5;" x="299.780401" xlink:href="#m53b51c4af3" y="290.263386"/>
     <use style="fill:#0000ff;stroke:#0000ff;stroke-width:1.5;" x="322.381702" xlink:href="#m53b51c4af3" y="288.109947"/>
     <use style="fill:#0000ff;stroke:#0000ff;stroke-width:1.5;" x="292.24691" xlink:href="#m53b51c4af3" y="292.288569"/>
     <use style="fill:#0000ff;stroke:#0000ff;stroke-width:1.5;" x="342.325181" xlink:href="#m53b51c4af3" y="303.327916"/>
     <use style="fill:#0000ff;stroke:#0000ff;stroke-width:1.5;" x="318.46798" xlink:href="#m53b51c4af3" y="292.409121"/>
     <use style="fill:#0000ff;stroke:#0000ff;stroke-width:1.5;" x="291.252184" xlink:href="#m53b51c4af3" y="254.027367"/>
     <use style="fill:#0000ff;stroke:#0000ff;stroke-width:1.5;" x="297.18887" xlink:href="#m53b51c4af3" y="289.343593"/>
     <use style="fill:#0000ff;stroke:#0000ff;stroke-width:1.5;" x="300.308588" xlink:href="#m53b51c4af3" y="267.386754"/>
     <use style="fill:#0000ff;stroke:#0000ff;stroke-width:1.5;" x="323.813524" xlink:href="#m53b51c4af3" y="259.875873"/>
     <use style="fill:#0000ff;stroke:#0000ff;stroke-width:1.5;" x="295.469414" xlink:href="#m53b51c4af3" y="236.428227"/>
     <use style="fill:#0000ff;stroke:#0000ff;stroke-width:1.5;" x="313.102251" xlink:href="#m53b51c4af3" y="286.375747"/>
     <use style="fill:#0000ff;stroke:#0000ff;stroke-width:1.5;" x="341.236098" xlink:href="#m53b51c4af3" y="325.056857"/>
     <use style="fill:#0000ff;stroke:#0000ff;stroke-width:1.5;" x="319.847527" xlink:href="#m53b51c4af3" y="241.407657"/>
     <use style="fill:#0000ff;stroke:#0000ff;stroke-width:1.5;" x="269.763106" xlink:href="#m53b51c4af3" y="295.12833"/>
     <use style="fill:#0000ff;stroke:#0000ff;stroke-width:1.5;" x="333.477215" xlink:href="#m53b51c4af3" y="259.301303"/>
     <use style="fill:#0000ff;stroke:#0000ff;stroke-width:1.5;" x="296.232406" xlink:href="#m53b51c4af3" y="274.411621"/>
     <use style="fill:#0000ff;stroke:#0000ff;stroke-width:1.5;" x="295.926518" xlink:href="#m53b51c4af3" y="305.370921"/>
     <use style="fill:#0000ff;stroke:#0000ff;stroke-width:1.5;" x="304.180203" xlink:href="#m53b51c4af3" y="280.112195"/>
     <use style="fill:#0000ff;stroke:#0000ff;stroke-width:1.5;" x="363.634886" xlink:href="#m53b51c4af3" y="225.432378"/>
     <use style="fill:#0000ff;stroke:#0000ff;stroke-width:1.5;" x="1030.807902" xlink:href="#m53b51c4af3" y="205.995043"/>
    </g>
   </g>
   <g id="PathCollection_2">
    <defs>
     <path d="M 0 3 
C 0.795609 3 1.55874 2.683901 2.12132 2.12132 
C 2.683901 1.55874 3 0.795609 3 0 
C 3 -0.795609 2.683901 -1.55874 2.12132 -2.12132 
C 1.55874 -2.683901 0.795609 -3 0 -3 
C -0.795609 -3 -1.55874 -2.683901 -2.12132 -2.12132 
C -2.683901 -1.55874 -3 -0.795609 -3 0 
C -3 0.795609 -2.683901 1.55874 -2.12132 2.12132 
C -1.55874 2.683901 -0.795609 3 0 3 
z
" id="m11ea127fea" style="stroke:#ff0000;"/>
    </defs>
    <g clip-path="url(#pd2d2bb8bce)">
     <use style="fill:#ff0000;stroke:#ff0000;" x="308.171125" xlink:href="#m11ea127fea" y="277.79285"/>
    </g>
   </g>
   <g id="patch_3">
    <path clip-path="url(#pd2d2bb8bce)" d="M 308.171125 395.288425 
C 339.511352 395.288425 369.572184 382.90835 391.733071 360.874768 
C 413.893958 338.841186 426.345563 308.953041 426.345563 277.79285 
C 426.345563 246.632659 413.893958 216.744514 391.733071 194.710932 
C 369.572184 172.67735 339.511352 160.297275 308.171125 160.297275 
C 276.830898 160.297275 246.770066 172.67735 224.609179 194.710932 
C 202.448292 216.744514 189.996688 246.632659 189.996688 277.79285 
C 189.996688 308.953041 202.448292 338.841186 224.609179 360.874768 
C 246.770066 382.90835 276.830898 395.288425 308.171125 395.288425 
z
" style="fill:none;stroke:#ff0000;stroke-linejoin:miter;"/>
   </g>
   <g id="matplotlib.axis_1">
    <g id="xtick_1">
     <g id="line2d_1">
      <path clip-path="url(#pd2d2bb8bce)" d="M 71.82225 512.784 
L 71.82225 42.8017 
" style="fill:none;stroke:#b0b0b0;stroke-linecap:square;stroke-width:0.8;"/>
     </g>
     <g id="line2d_2">
      <defs>
       <path d="M 0 0 
L 0 3.5 
" id="me0af60fd34" style="stroke:#000000;stroke-width:0.8;"/>
      </defs>
      <g>
       <use style="stroke:#000000;stroke-width:0.8;" x="71.82225" xlink:href="#me0af60fd34" y="512.784"/>
      </g>
     </g>
     <g id="text_1">
      <!-- −15 -->
      <defs>
       <path d="M 3 22 
L 3 28.59375 
L 53.40625 28.59375 
L 53.40625 22 
z
" id="FreeSerif-8722"/>
       <path d="M 18.296875 59.296875 
Q 16.5 59.296875 11.09375 57.09375 
L 11.09375 58.5 
L 29.09375 67.59375 
L 29.90625 67.40625 
L 29.90625 7.40625 
Q 29.90625 3.796875 31.703125 2.6875 
Q 33.5 1.59375 39.40625 1.5 
L 39.40625 0 
L 11.796875 0 
L 11.796875 1.5 
Q 17.40625 1.703125 19.34375 3.140625 
Q 21.296875 4.59375 21.296875 9.296875 
L 21.296875 54.59375 
Q 21.296875 59.296875 18.296875 59.296875 
z
" id="FreeSerif-49"/>
       <path d="M 35.703125 19.40625 
Q 35.703125 24.703125 33.34375 28.796875 
Q 31 32.90625 27.640625 35.15625 
Q 24.296875 37.40625 20.140625 38.84375 
Q 16 40.296875 12.953125 40.75 
Q 9.90625 41.203125 7.59375 41.203125 
Q 6.40625 41.203125 6.40625 42 
Q 6.40625 42.296875 6.5 42.5 
L 17.40625 66.203125 
L 38.296875 66.203125 
Q 39.90625 66.203125 40.84375 66.703125 
Q 41.796875 67.203125 42.90625 68.796875 
L 43.796875 68.09375 
L 40 59.203125 
Q 39.59375 58.296875 37.703125 58.296875 
L 18.09375 58.296875 
L 13.90625 49.796875 
Q 28.5 47.203125 35.59375 41.34375 
Q 42.703125 35.5 42.703125 24.203125 
Q 42.703125 18.296875 40.84375 13.6875 
Q 39 9.09375 36.140625 6.296875 
Q 33.296875 3.5 29.546875 1.703125 
Q 25.796875 -0.09375 22.34375 -0.75 
Q 18.90625 -1.40625 15.40625 -1.40625 
Q 9.796875 -1.40625 6.5 0.25 
Q 3.203125 1.90625 3.203125 4.796875 
Q 3.203125 8.5 7.5 8.5 
Q 10.296875 8.5 14.75 5.390625 
Q 19.203125 2.296875 21.796875 2.296875 
Q 27.703125 2.296875 31.703125 7.25 
Q 35.703125 12.203125 35.703125 19.40625 
z
" id="FreeSerif-53"/>
      </defs>
      <g transform="translate(57.745688 532.077437)scale(0.18 -0.18)">
       <use xlink:href="#FreeSerif-8722"/>
       <use x="56.399994" xlink:href="#FreeSerif-49"/>
       <use x="106.399979" xlink:href="#FreeSerif-53"/>
      </g>
     </g>
    </g>
    <g id="xtick_2">
     <g id="line2d_3">
      <path clip-path="url(#pd2d2bb8bce)" d="M 150.605208 512.784 
L 150.605208 42.8017 
" style="fill:none;stroke:#b0b0b0;stroke-linecap:square;stroke-width:0.8;"/>
     </g>
     <g id="line2d_4">
      <g>
       <use style="stroke:#000000;stroke-width:0.8;" x="150.605208" xlink:href="#me0af60fd34" y="512.784"/>
      </g>
     </g>
     <g id="text_2">
      <!-- −10 -->
      <defs>
       <path d="M 47.59375 17.796875 
Q 35.203125 -1.40625 25 -1.40625 
Q 14.796875 -1.40625 8.59375 8.390625 
Q 2.40625 18.203125 2.40625 33.59375 
Q 2.40625 48.09375 8.59375 57.84375 
Q 14.796875 67.59375 25.40625 67.59375 
Q 35.203125 67.59375 41.390625 58 
Q 47.59375 48.40625 47.59375 33 
Q 47.59375 17.796875 35.203125 -1.40625 
z
M 25.09375 65 
Q 12 65 12 32.703125 
Q 12 1.203125 25 1.203125 
Q 38 1.203125 38 32.796875 
Q 38 48.5 34.703125 56.75 
Q 31.40625 65 25.09375 65 
z
" id="FreeSerif-48"/>
      </defs>
      <g transform="translate(136.528646 532.077437)scale(0.18 -0.18)">
       <use xlink:href="#FreeSerif-8722"/>
       <use x="56.399994" xlink:href="#FreeSerif-49"/>
       <use x="106.399979" xlink:href="#FreeSerif-48"/>
      </g>
     </g>
    </g>
    <g id="xtick_3">
     <g id="line2d_5">
      <path clip-path="url(#pd2d2bb8bce)" d="M 229.388167 512.784 
L 229.388167 42.8017 
" style="fill:none;stroke:#b0b0b0;stroke-linecap:square;stroke-width:0.8;"/>
     </g>
     <g id="line2d_6">
      <g>
       <use style="stroke:#000000;stroke-width:0.8;" x="229.388167" xlink:href="#me0af60fd34" y="512.784"/>
      </g>
     </g>
     <g id="text_3">
      <!-- −5 -->
      <g transform="translate(219.811604 532.077437)scale(0.18 -0.18)">
       <use xlink:href="#FreeSerif-8722"/>
       <use x="56.399994" xlink:href="#FreeSerif-53"/>
      </g>
     </g>
    </g>
    <g id="xtick_4">
     <g id="line2d_7">
      <path clip-path="url(#pd2d2bb8bce)" d="M 308.171125 512.784 
L 308.171125 42.8017 
" style="fill:none;stroke:#b0b0b0;stroke-linecap:square;stroke-width:0.8;"/>
     </g>
     <g id="line2d_8">
      <g>
       <use style="stroke:#000000;stroke-width:0.8;" x="308.171125" xlink:href="#me0af60fd34" y="512.784"/>
      </g>
     </g>
     <g id="text_4">
      <!-- 0 -->
      <g transform="translate(303.671125 532.077437)scale(0.18 -0.18)">
       <use xlink:href="#FreeSerif-48"/>
      </g>
     </g>
    </g>
    <g id="xtick_5">
     <g id="line2d_9">
      <path clip-path="url(#pd2d2bb8bce)" d="M 386.954083 512.784 
L 386.954083 42.8017 
" style="fill:none;stroke:#b0b0b0;stroke-linecap:square;stroke-width:0.8;"/>
     </g>
     <g id="line2d_10">
      <g>
       <use style="stroke:#000000;stroke-width:0.8;" x="386.954083" xlink:href="#me0af60fd34" y="512.784"/>
      </g>
     </g>
     <g id="text_5">
      <!-- 5 -->
      <g transform="translate(382.454083 532.077437)scale(0.18 -0.18)">
       <use xlink:href="#FreeSerif-53"/>
      </g>
     </g>
    </g>
    <g id="xtick_6">
     <g id="line2d_11">
      <path clip-path="url(#pd2d2bb8bce)" d="M 465.737042 512.784 
L 465.737042 42.8017 
" style="fill:none;stroke:#b0b0b0;stroke-linecap:square;stroke-width:0.8;"/>
     </g>
     <g id="line2d_12">
      <g>
       <use style="stroke:#000000;stroke-width:0.8;" x="465.737042" xlink:href="#me0af60fd34" y="512.784"/>
      </g>
     </g>
     <g id="text_6">
      <!-- 10 -->
      <g transform="translate(456.737042 532.077437)scale(0.18 -0.18)">
       <use xlink:href="#FreeSerif-49"/>
       <use x="49.999985" xlink:href="#FreeSerif-48"/>
      </g>
     </g>
    </g>
    <g id="xtick_7">
     <g id="line2d_13">
      <path clip-path="url(#pd2d2bb8bce)" d="M 544.52 512.784 
L 544.52 42.8017 
" style="fill:none;stroke:#b0b0b0;stroke-linecap:square;stroke-width:0.8;"/>
     </g>
     <g id="line2d_14">
      <g>
       <use style="stroke:#000000;stroke-width:0.8;" x="544.52" xlink:href="#me0af60fd34" y="512.784"/>
      </g>
     </g>
     <g id="text_7">
      <!-- 15 -->
      <g transform="translate(535.52 532.077437)scale(0.18 -0.18)">
       <use xlink:href="#FreeSerif-49"/>
       <use x="49.999985" xlink:href="#FreeSerif-53"/>
      </g>
     </g>
    </g>
    <g id="text_8">
     <!-- X coordinate error (cm) -->
     <defs>
      <path d="M 69.59375 66.203125 
L 69.59375 64.296875 
Q 64.703125 64 62.046875 62.34375 
Q 59.40625 60.703125 54.703125 54.90625 
L 40.09375 36.703125 
L 59.296875 9.296875 
Q 62.296875 5 64.296875 3.703125 
Q 66.296875 2.40625 70.40625 1.90625 
L 70.40625 0 
L 40.703125 0 
L 40.703125 1.90625 
Q 44.796875 2.296875 46.59375 2.9375 
Q 48.40625 3.59375 48.40625 5 
Q 48.40625 7.203125 43.296875 14.796875 
L 33.796875 28.796875 
L 21.90625 14 
Q 16.703125 7.5 16.703125 5.40625 
Q 16.703125 3.703125 18.296875 2.953125 
Q 19.90625 2.203125 24.296875 1.90625 
L 24.296875 0 
L 1 0 
L 1 1.90625 
Q 4.90625 2.203125 7 3.796875 
Q 9.09375 5.40625 15.5 13.296875 
L 31.203125 32.59375 
L 20.296875 48.59375 
Q 13.296875 58.90625 10.25 61.5 
Q 7.203125 64.09375 2.203125 64.296875 
L 2.203125 66.203125 
L 32.40625 66.203125 
L 32.40625 64.296875 
L 29.59375 64.203125 
Q 24.796875 64.09375 24.796875 61.296875 
Q 24.796875 58.09375 33.296875 46.296875 
L 37.5 40.40625 
L 48.796875 54.203125 
Q 52.796875 59.203125 52.796875 61.09375 
Q 52.796875 62.796875 51.34375 63.4375 
Q 49.90625 64.09375 45.796875 64.296875 
L 45.796875 66.203125 
z
" id="FreeSerif-88"/>
      <path id="FreeSerif-32"/>
      <path d="M 2.5 21.296875 
Q 2.5 32.40625 9.046875 39.203125 
Q 15.59375 46 24.40625 46 
Q 30.703125 46 35.25 42.953125 
Q 39.796875 39.90625 39.796875 35.703125 
Q 39.796875 34 38.390625 32.75 
Q 37 31.5 35 31.5 
Q 31.59375 31.5 30.296875 36.09375 
L 29.703125 38.296875 
Q 28.90625 41.09375 27.703125 42.09375 
Q 26.5 43.09375 23.796875 43.09375 
Q 17.703125 43.09375 13.953125 38.25 
Q 10.203125 33.40625 10.203125 25.703125 
Q 10.203125 17.09375 14.546875 11.640625 
Q 18.90625 6.203125 25.703125 6.203125 
Q 30 6.203125 33.09375 8.25 
Q 36.203125 10.296875 39.796875 15.59375 
L 41.203125 14.703125 
Q 40.203125 12.703125 39.453125 11.390625 
Q 38.703125 10.09375 36.75 7.5 
Q 34.796875 4.90625 32.890625 3.296875 
Q 31 1.703125 27.890625 0.34375 
Q 24.796875 -1 21.5 -1 
Q 13.203125 -1 7.84375 5.25 
Q 2.5 11.5 2.5 21.296875 
z
" id="FreeSerif-99"/>
      <path d="M 24.59375 46 
Q 34.203125 46 40.390625 39.59375 
Q 46.59375 33.203125 46.59375 23.40625 
Q 46.59375 13 40.1875 6 
Q 33.796875 -1 24.390625 -1 
Q 15 -1 8.75 5.75 
Q 2.5 12.5 2.5 22.59375 
Q 2.5 32.90625 8.640625 39.453125 
Q 14.796875 46 24.59375 46 
z
M 11.5 27.5 
Q 11.5 16.796875 15.390625 9.296875 
Q 19.296875 1.796875 25.59375 1.796875 
Q 31.203125 1.796875 34.390625 6.59375 
Q 37.59375 11.40625 37.59375 19.90625 
Q 37.59375 30.203125 33.59375 36.703125 
Q 29.59375 43.203125 23.296875 43.203125 
Q 18 43.203125 14.75 38.890625 
Q 11.5 34.59375 11.5 27.5 
z
" id="FreeSerif-111"/>
      <path d="M 30.09375 36.203125 
Q 28.59375 36.203125 26.390625 37.953125 
Q 24.203125 39.703125 23.5 39.703125 
Q 21.5 39.703125 19 36.796875 
Q 16.5 33.90625 16.5 31.5 
L 16.5 9 
Q 16.5 4.703125 18.203125 3.203125 
Q 19.90625 1.703125 25 1.5 
L 25 0 
L 1 0 
L 1 1.5 
Q 5.796875 2.40625 6.9375 3.5 
Q 8.09375 4.59375 8.09375 8.40625 
L 8.09375 33.40625 
Q 8.09375 36.703125 7.34375 38.046875 
Q 6.59375 39.40625 4.703125 39.40625 
Q 3.09375 39.40625 1.203125 39 
L 1.203125 40.59375 
Q 9.203125 43.203125 16 46 
L 16.5 45.796875 
L 16.5 36.59375 
Q 20.203125 41.90625 22.796875 43.953125 
Q 25.40625 46 28.5 46 
Q 31.09375 46 32.546875 44.59375 
Q 34 43.203125 34 40.703125 
Q 34 38.59375 32.953125 37.390625 
Q 31.90625 36.203125 30.09375 36.203125 
z
" id="FreeSerif-114"/>
      <path d="M 34.203125 -1 
L 33.796875 -0.703125 
L 33.796875 5.703125 
Q 29 -1 21 -1 
Q 12.703125 -1 7.59375 4.953125 
Q 2.5 10.90625 2.5 20.5 
Q 2.5 31.09375 8.59375 38.546875 
Q 14.703125 46 23.296875 46 
Q 28.703125 46 33.796875 41.703125 
L 33.796875 57.296875 
Q 33.796875 60.40625 32.890625 61.40625 
Q 32 62.40625 29.203125 62.40625 
Q 27.796875 62.40625 27 62.296875 
L 27 63.90625 
Q 36.09375 66.296875 41.703125 68.296875 
L 42.203125 68.09375 
L 42.203125 11.40625 
Q 42.203125 7.90625 43.046875 6.796875 
Q 43.90625 5.703125 46.59375 5.703125 
Q 47.09375 5.703125 48.90625 5.796875 
L 48.90625 4.203125 
z
M 24.90625 4.203125 
Q 28.703125 4.203125 31.25 6.34375 
Q 33.796875 8.5 33.796875 10.203125 
L 33.796875 33.203125 
Q 33.796875 37.203125 30.6875 40.203125 
Q 27.59375 43.203125 23.59375 43.203125 
Q 17.90625 43.203125 14.5 38.09375 
Q 11.09375 33 11.09375 24.5 
Q 11.09375 15.296875 14.890625 9.75 
Q 18.703125 4.203125 24.90625 4.203125 
z
" id="FreeSerif-100"/>
      <path d="M 6.203125 39.296875 
Q 4 39.296875 2 39 
L 2 40.5 
Q 9 42.5 17.5 46 
L 17.90625 45.703125 
L 17.90625 10.203125 
Q 17.90625 4.796875 19.15625 3.34375 
Q 20.40625 1.90625 25.296875 1.5 
L 25.296875 0 
L 1.59375 0 
L 1.59375 1.5 
Q 6.796875 1.796875 8.140625 3.296875 
Q 9.5 4.796875 9.5 10.203125 
L 9.5 33.40625 
Q 9.5 36.703125 8.75 38 
Q 8 39.296875 6.203125 39.296875 
z
M 12.796875 68.296875 
Q 15 68.296875 16.5 66.796875 
Q 18 65.296875 18 63.203125 
Q 18 61 16.5 59.546875 
Q 15 58.09375 12.796875 58.09375 
Q 10.703125 58.09375 9.25 59.59375 
Q 7.796875 61.09375 7.796875 63.1875 
Q 7.796875 65.296875 9.296875 66.796875 
Q 10.796875 68.296875 12.796875 68.296875 
z
" id="FreeSerif-105"/>
      <path d="M 1 39.796875 
L 1 41.5 
Q 8.40625 43.703125 14.796875 46 
L 15.5 45.796875 
L 15.5 37.90625 
Q 20.59375 42.703125 23.546875 44.34375 
Q 26.5 46 30 46 
Q 35.5 46 38.640625 42.046875 
Q 41.796875 38.09375 41.796875 31 
L 41.796875 8.09375 
Q 41.796875 4.40625 43 3.15625 
Q 44.203125 1.90625 47.90625 1.5 
L 47.90625 0 
L 27.09375 0 
L 27.09375 1.5 
Q 30.90625 1.796875 32.15625 3.5 
Q 33.40625 5.203125 33.40625 9.90625 
L 33.40625 30.796875 
Q 33.40625 40.5 26.09375 40.5 
Q 23.59375 40.5 21.5 39.34375 
Q 19.40625 38.203125 15.796875 34.796875 
L 15.796875 6.703125 
Q 15.796875 4 17.1875 2.890625 
Q 18.59375 1.796875 22.40625 1.5 
L 22.40625 0 
L 1.203125 0 
L 1.203125 1.5 
Q 5 1.796875 6.203125 3.25 
Q 7.40625 4.703125 7.40625 9 
L 7.40625 33.796875 
Q 7.40625 37.5 6.59375 38.84375 
Q 5.796875 40.203125 3.703125 40.203125 
Q 1.796875 40.203125 1 39.796875 
z
" id="FreeSerif-110"/>
      <path d="M 2.5 9.703125 
Q 2.5 11.5 2.890625 13.046875 
Q 3.296875 14.59375 4.296875 15.9375 
Q 5.296875 17.296875 6.1875 18.390625 
Q 7.09375 19.5 8.890625 20.640625 
Q 10.703125 21.796875 11.890625 22.546875 
Q 13.09375 23.296875 15.546875 24.34375 
Q 18 25.40625 19.296875 25.953125 
Q 20.59375 26.5 23.390625 27.59375 
Q 26.203125 28.703125 27.5 29.203125 
L 27.5 35.296875 
Q 27.5 43.59375 19.90625 43.59375 
Q 16.90625 43.59375 14.796875 42.140625 
Q 12.703125 40.703125 12.703125 38.703125 
Q 12.703125 37.90625 12.953125 36.5 
Q 13.203125 35.09375 13.203125 34.703125 
Q 13.203125 33 11.84375 31.75 
Q 10.5 30.5 8.703125 30.5 
Q 7 30.5 5.703125 31.796875 
Q 4.40625 33.09375 4.40625 34.796875 
Q 4.40625 39.5 9.25 42.75 
Q 14.09375 46 21.203125 46 
Q 29.40625 46 32.5 42.046875 
Q 35.59375 38.09375 35.59375 30 
L 35.59375 10.5 
Q 35.59375 7.203125 36.25 5.953125 
Q 36.90625 4.703125 38.59375 4.703125 
Q 40.703125 4.703125 43 6.59375 
L 43 4 
Q 40.40625 1.09375 38.453125 0.046875 
Q 36.5 -1 34 -1 
Q 30.90625 -1 29.453125 0.703125 
Q 28 2.40625 27.59375 6.296875 
Q 19 -1 13 -1 
Q 8.40625 -1 5.453125 2 
Q 2.5 5 2.5 9.703125 
z
M 27.5 12.296875 
L 27.5 26.796875 
Q 18.5 23.5 14.890625 20.390625 
Q 11.296875 17.296875 11.296875 12.90625 
Q 11.296875 8.796875 13.296875 6.796875 
Q 15.296875 4.796875 17.59375 4.796875 
Q 21 4.796875 24.90625 7.09375 
Q 26.5 8 27 9 
Q 27.5 10 27.5 12.296875 
z
" id="FreeSerif-97"/>
      <path d="M 25.90625 45 
L 25.90625 41.796875 
L 15.796875 41.796875 
L 15.796875 13.203125 
Q 15.796875 8.5 17 6.34375 
Q 18.203125 4.203125 21 4.203125 
Q 24.09375 4.203125 27 7.703125 
L 28.296875 6.59375 
Q 23.5 -1 16.296875 -1 
Q 7.40625 -1 7.40625 11.703125 
L 7.40625 41.796875 
L 2.09375 41.796875 
Q 1.703125 42.09375 1.703125 42.5 
Q 1.703125 43 2 43.296875 
Q 2.296875 43.59375 3.140625 44.140625 
Q 4 44.703125 5.203125 45.640625 
Q 6.40625 46.59375 8.5 49.09375 
Q 10.59375 51.59375 13.09375 55.09375 
Q 14.703125 57.40625 15.09375 57.90625 
Q 15.796875 57.90625 15.796875 56.59375 
L 15.796875 45 
z
" id="FreeSerif-116"/>
      <path d="M 9.703125 27.703125 
Q 9.90625 21.40625 11.40625 16.84375 
Q 12.90625 12.296875 15.296875 10.046875 
Q 17.703125 7.796875 20.140625 6.84375 
Q 22.59375 5.90625 25.296875 5.90625 
Q 30.09375 5.90625 33.640625 8.296875 
Q 37.203125 10.703125 40.796875 16.40625 
L 42.40625 15.703125 
Q 39.296875 7.59375 33.796875 3.296875 
Q 28.296875 -1 21.203125 -1 
Q 12.59375 -1 7.546875 5.046875 
Q 2.5 11.09375 2.5 21.40625 
Q 2.5 32.5 8.34375 39.25 
Q 14.203125 46 23.40625 46 
Q 31 46 35.203125 41.453125 
Q 39.40625 36.90625 40.5 27.703125 
z
M 9.90625 30.90625 
L 30.296875 30.90625 
Q 29.296875 37.40625 27.1875 39.90625 
Q 25.09375 42.40625 20.5 42.40625 
Q 11.5 42.40625 9.90625 30.90625 
z
" id="FreeSerif-101"/>
      <path d="M 29.203125 -17.703125 
Q 26.59375 -16.09375 23.796875 -13.84375 
Q 21 -11.59375 17.453125 -7.59375 
Q 13.90625 -3.59375 11.203125 0.953125 
Q 8.5 5.5 6.640625 11.890625 
Q 4.796875 18.296875 4.796875 25.203125 
Q 4.796875 32.40625 6.640625 38.84375 
Q 8.5 45.296875 11 49.546875 
Q 13.5 53.796875 17.34375 57.75 
Q 21.203125 61.703125 23.703125 63.59375 
Q 26.203125 65.5 29.5 67.59375 
L 30.40625 66 
Q 26 62.40625 23.296875 59.5 
Q 20.59375 56.59375 18.09375 51.9375 
Q 15.59375 47.296875 14.5 40.84375 
Q 13.40625 34.40625 13.40625 25.5 
Q 13.40625 16.203125 14.5 9.5 
Q 15.59375 2.796875 18.09375 -1.953125 
Q 20.59375 -6.703125 23.296875 -9.703125 
Q 26 -12.703125 30.40625 -16.09375 
z
" id="FreeSerif-40"/>
      <path d="M 1.296875 39.796875 
L 1.296875 41.5 
Q 8.5 43.5 15.296875 46 
L 16 45.796875 
L 16 38.296875 
Q 22.203125 43 25.203125 44.5 
Q 28.203125 46 31.5 46 
Q 39.40625 46 42.09375 37.59375 
Q 49.90625 46 58.40625 46 
Q 70 46 70 28.203125 
L 70 7.59375 
Q 70 2 74.296875 1.703125 
L 76.90625 1.5 
L 76.90625 0 
L 55 0 
L 55 1.5 
Q 59.40625 2 60.5 3.203125 
Q 61.59375 4.40625 61.59375 8.703125 
L 61.59375 29.796875 
Q 61.59375 36 60 38.390625 
Q 58.40625 40.796875 54.09375 40.796875 
Q 47.5 40.796875 43.203125 34.703125 
L 43.203125 9.5 
Q 43.203125 4.796875 44.640625 3.1875 
Q 46.09375 1.59375 50.40625 1.5 
L 50.40625 0 
L 28 0 
L 28 1.5 
Q 32.296875 1.796875 33.546875 3.09375 
Q 34.796875 4.40625 34.796875 8.59375 
L 34.796875 30.296875 
Q 34.796875 40.796875 28.203125 40.796875 
Q 25.40625 40.796875 21.953125 39.390625 
Q 18.5 38 16.40625 34.90625 
L 16.40625 6.703125 
Q 16.40625 3.796875 17.796875 2.75 
Q 19.203125 1.703125 23.203125 1.5 
L 23.203125 0 
L 1 0 
L 1 1.5 
Q 5.203125 1.59375 6.59375 3 
Q 8 4.40625 8 8.5 
L 8 33.796875 
Q 8 37.40625 7.25 38.796875 
Q 6.5 40.203125 4.5 40.203125 
Q 3 40.203125 1.296875 39.796875 
z
" id="FreeSerif-109"/>
      <path d="M 4.046875 67.703125 
Q 6.65625 66.09375 9.453125 63.84375 
Q 12.25 61.59375 15.796875 57.59375 
Q 19.34375 53.59375 22.046875 49.046875 
Q 24.75 44.5 26.59375 38.09375 
Q 28.453125 31.703125 28.453125 24.796875 
Q 28.453125 17.59375 26.59375 11.140625 
Q 24.75 4.703125 22.25 0.453125 
Q 19.75 -3.796875 15.890625 -7.75 
Q 12.046875 -11.703125 9.546875 -13.59375 
Q 7.046875 -15.5 3.75 -17.59375 
L 2.84375 -16 
Q 7.25 -12.40625 9.953125 -9.5 
Q 12.65625 -6.59375 15.15625 -1.9375 
Q 17.65625 2.703125 18.75 9.140625 
Q 19.84375 15.59375 19.84375 24.5 
Q 19.84375 33.796875 18.75 40.5 
Q 17.65625 47.203125 15.15625 51.953125 
Q 12.65625 56.703125 9.953125 59.703125 
Q 7.25 62.703125 2.84375 66.09375 
z
" id="FreeSerif-41"/>
     </defs>
     <g transform="translate(193.92175 556.37525)scale(0.24 -0.24)">
      <use xlink:href="#FreeSerif-88"/>
      <use x="71.399994" xlink:href="#FreeSerif-32"/>
      <use x="96.399979" xlink:href="#FreeSerif-99"/>
      <use x="140.784348" xlink:href="#FreeSerif-111"/>
      <use x="189.884338" xlink:href="#FreeSerif-111"/>
      <use x="238.968704" xlink:href="#FreeSerif-114"/>
      <use x="273.453064" xlink:href="#FreeSerif-100"/>
      <use x="323.353058" xlink:href="#FreeSerif-105"/>
      <use x="351.137421" xlink:href="#FreeSerif-110"/>
      <use x="400.037415" xlink:href="#FreeSerif-97"/>
      <use x="443.521774" xlink:href="#FreeSerif-116"/>
      <use x="471.821762" xlink:href="#FreeSerif-101"/>
      <use x="516.221756" xlink:href="#FreeSerif-32"/>
      <use x="541.221741" xlink:href="#FreeSerif-101"/>
      <use x="585.60611" xlink:href="#FreeSerif-114"/>
      <use x="620.106094" xlink:href="#FreeSerif-114"/>
      <use x="654.590454" xlink:href="#FreeSerif-111"/>
      <use x="703.67482" xlink:href="#FreeSerif-114"/>
      <use x="738.174805" xlink:href="#FreeSerif-32"/>
      <use x="763.174789" xlink:href="#FreeSerif-40"/>
      <use x="796.474777" xlink:href="#FreeSerif-99"/>
      <use x="840.859146" xlink:href="#FreeSerif-109"/>
      <use x="918.75914" xlink:href="#FreeSerif-41"/>
     </g>
    </g>
   </g>
   <g id="matplotlib.axis_2">
    <g id="ytick_1">
     <g id="line2d_15">
      <path clip-path="url(#pd2d2bb8bce)" d="M 71.82225 512.784 
L 544.52 512.784 
" style="fill:none;stroke:#b0b0b0;stroke-linecap:square;stroke-width:0.8;"/>
     </g>
     <g id="line2d_16">
      <defs>
       <path d="M 0 0 
L -3.5 0 
" id="m20f3ec522b" style="stroke:#000000;stroke-width:0.8;"/>
      </defs>
      <g>
       <use style="stroke:#000000;stroke-width:0.8;" x="71.82225" xlink:href="#m20f3ec522b" y="512.784"/>
      </g>
     </g>
     <g id="text_9">
      <!-- −15 -->
      <g transform="translate(36.669125 518.930719)scale(0.18 -0.18)">
       <use xlink:href="#FreeSerif-8722"/>
       <use x="56.399994" xlink:href="#FreeSerif-49"/>
       <use x="106.399979" xlink:href="#FreeSerif-53"/>
      </g>
     </g>
    </g>
    <g id="ytick_2">
     <g id="line2d_17">
      <path clip-path="url(#pd2d2bb8bce)" d="M 71.82225 434.453617 
L 544.52 434.453617 
" style="fill:none;stroke:#b0b0b0;stroke-linecap:square;stroke-width:0.8;"/>
     </g>
     <g id="line2d_18">
      <g>
       <use style="stroke:#000000;stroke-width:0.8;" x="71.82225" xlink:href="#m20f3ec522b" y="434.453617"/>
      </g>
     </g>
     <g id="text_10">
      <!-- −10 -->
      <g transform="translate(36.669125 440.600335)scale(0.18 -0.18)">
       <use xlink:href="#FreeSerif-8722"/>
       <use x="56.399994" xlink:href="#FreeSerif-49"/>
       <use x="106.399979" xlink:href="#FreeSerif-48"/>
      </g>
     </g>
    </g>
    <g id="ytick_3">
     <g id="line2d_19">
      <path clip-path="url(#pd2d2bb8bce)" d="M 71.82225 356.123233 
L 544.52 356.123233 
" style="fill:none;stroke:#b0b0b0;stroke-linecap:square;stroke-width:0.8;"/>
     </g>
     <g id="line2d_20">
      <g>
       <use style="stroke:#000000;stroke-width:0.8;" x="71.82225" xlink:href="#m20f3ec522b" y="356.123233"/>
      </g>
     </g>
     <g id="text_11">
      <!-- −5 -->
      <g transform="translate(45.669125 362.269952)scale(0.18 -0.18)">
       <use xlink:href="#FreeSerif-8722"/>
       <use x="56.399994" xlink:href="#FreeSerif-53"/>
      </g>
     </g>
    </g>
    <g id="ytick_4">
     <g id="line2d_21">
      <path clip-path="url(#pd2d2bb8bce)" d="M 71.82225 277.79285 
L 544.52 277.79285 
" style="fill:none;stroke:#b0b0b0;stroke-linecap:square;stroke-width:0.8;"/>
     </g>
     <g id="line2d_22">
      <g>
       <use style="stroke:#000000;stroke-width:0.8;" x="71.82225" xlink:href="#m20f3ec522b" y="277.79285"/>
      </g>
     </g>
     <g id="text_12">
      <!-- 0 -->
      <g transform="translate(55.82225 283.939569)scale(0.18 -0.18)">
       <use xlink:href="#FreeSerif-48"/>
      </g>
     </g>
    </g>
    <g id="ytick_5">
     <g id="line2d_23">
      <path clip-path="url(#pd2d2bb8bce)" d="M 71.82225 199.462467 
L 544.52 199.462467 
" style="fill:none;stroke:#b0b0b0;stroke-linecap:square;stroke-width:0.8;"/>
     </g>
     <g id="line2d_24">
      <g>
       <use style="stroke:#000000;stroke-width:0.8;" x="71.82225" xlink:href="#m20f3ec522b" y="199.462467"/>
      </g>
     </g>
     <g id="text_13">
      <!-- 5 -->
      <g transform="translate(55.82225 205.609185)scale(0.18 -0.18)">
       <use xlink:href="#FreeSerif-53"/>
      </g>
     </g>
    </g>
    <g id="ytick_6">
     <g id="line2d_25">
      <path clip-path="url(#pd2d2bb8bce)" d="M 71.82225 121.132083 
L 544.52 121.132083 
" style="fill:none;stroke:#b0b0b0;stroke-linecap:square;stroke-width:0.8;"/>
     </g>
     <g id="line2d_26">
      <g>
       <use style="stroke:#000000;stroke-width:0.8;" x="71.82225" xlink:href="#m20f3ec522b" y="121.132083"/>
      </g>
     </g>
     <g id="text_14">
      <!-- 10 -->
      <g transform="translate(46.82225 127.278802)scale(0.18 -0.18)">
       <use xlink:href="#FreeSerif-49"/>
       <use x="49.999985" xlink:href="#FreeSerif-48"/>
      </g>
     </g>
    </g>
    <g id="ytick_7">
     <g id="line2d_27">
      <path clip-path="url(#pd2d2bb8bce)" d="M 71.82225 42.8017 
L 544.52 42.8017 
" style="fill:none;stroke:#b0b0b0;stroke-linecap:square;stroke-width:0.8;"/>
     </g>
     <g id="line2d_28">
      <g>
       <use style="stroke:#000000;stroke-width:0.8;" x="71.82225" xlink:href="#m20f3ec522b" y="42.8017"/>
      </g>
     </g>
     <g id="text_15">
      <!-- 15 -->
      <g transform="translate(46.82225 48.948419)scale(0.18 -0.18)">
       <use xlink:href="#FreeSerif-49"/>
       <use x="49.999985" xlink:href="#FreeSerif-53"/>
      </g>
     </g>
    </g>
    <g id="text_16">
     <!-- Z coordinate error (cm) -->
     <defs>
      <path d="M 40.296875 3.796875 
Q 43.09375 3.796875 45.390625 4.296875 
Q 47.703125 4.796875 49.25 5.296875 
Q 50.796875 5.796875 52.140625 7.1875 
Q 53.5 8.59375 54.140625 9.296875 
Q 54.796875 10 55.59375 12.046875 
Q 56.40625 14.09375 56.59375 14.6875 
Q 56.796875 15.296875 57.5 17.59375 
L 59.796875 17.59375 
L 57.40625 0 
L 1 0 
L 1 1.5 
L 44.703125 62.40625 
L 22.59375 62.40625 
Q 17.5 62.40625 14.203125 61.40625 
Q 10.90625 60.40625 9.25 58.203125 
Q 7.59375 56 7 54.203125 
Q 6.40625 52.40625 5.796875 49.09375 
L 3.203125 49.09375 
L 5.203125 66.203125 
L 57.796875 66.203125 
L 57.796875 64.703125 
L 14.59375 3.796875 
z
" id="FreeSerif-90"/>
     </defs>
     <g transform="translate(27.460375 390.8291)rotate(-90)scale(0.24 -0.24)">
      <use xlink:href="#FreeSerif-90"/>
      <use x="61.299988" xlink:href="#FreeSerif-32"/>
      <use x="86.299973" xlink:href="#FreeSerif-99"/>
      <use x="130.684341" xlink:href="#FreeSerif-111"/>
      <use x="179.784332" xlink:href="#FreeSerif-111"/>
      <use x="228.868698" xlink:href="#FreeSerif-114"/>
      <use x="263.353058" xlink:href="#FreeSerif-100"/>
      <use x="313.253052" xlink:href="#FreeSerif-105"/>
      <use x="341.037415" xlink:href="#FreeSerif-110"/>
      <use x="389.937408" xlink:href="#FreeSerif-97"/>
      <use x="433.421768" xlink:href="#FreeSerif-116"/>
      <use x="461.721756" xlink:href="#FreeSerif-101"/>
      <use x="506.12175" xlink:href="#FreeSerif-32"/>
      <use x="531.121735" xlink:href="#FreeSerif-101"/>
      <use x="575.506104" xlink:href="#FreeSerif-114"/>
      <use x="610.006088" xlink:href="#FreeSerif-114"/>
      <use x="644.490448" xlink:href="#FreeSerif-111"/>
      <use x="693.574814" xlink:href="#FreeSerif-114"/>
      <use x="728.074799" xlink:href="#FreeSerif-32"/>
      <use x="753.074783" xlink:href="#FreeSerif-40"/>
      <use x="786.374771" xlink:href="#FreeSerif-99"/>
      <use x="830.75914" xlink:href="#FreeSerif-109"/>
      <use x="908.659134" xlink:href="#FreeSerif-41"/>
     </g>
    </g>
   </g>
   <g id="patch_4">
    <path d="M 71.82225 512.784 
L 71.82225 42.8017 
" style="fill:none;stroke:#000000;stroke-linecap:square;stroke-linejoin:miter;stroke-width:0.8;"/>
   </g>
   <g id="patch_5">
    <path d="M 544.52 512.784 
L 544.52 42.8017 
" style="fill:none;stroke:#000000;stroke-linecap:square;stroke-linejoin:miter;stroke-width:0.8;"/>
   </g>
   <g id="patch_6">
    <path d="M 71.82225 512.784 
L 544.52 512.784 
" style="fill:none;stroke:#000000;stroke-linecap:square;stroke-linejoin:miter;stroke-width:0.8;"/>
   </g>
   <g id="patch_7">
    <path d="M 71.82225 42.8017 
L 544.52 42.8017 
" style="fill:none;stroke:#000000;stroke-linecap:square;stroke-linejoin:miter;stroke-width:0.8;"/>
   </g>
   <g id="text_17">
    <!-- Probability = 97.6% -->
    <defs>
     <path d="M 54.09375 48.09375 
Q 54.09375 45.5 53.5 43.09375 
Q 52.90625 40.703125 51.15625 38 
Q 49.40625 35.296875 46.5 33.34375 
Q 43.59375 31.40625 38.59375 30.09375 
Q 33.59375 28.796875 27 28.796875 
Q 24 28.796875 20.09375 29.09375 
L 20.09375 10.90625 
Q 20.09375 5.40625 21.84375 3.75 
Q 23.59375 2.09375 29.5 1.90625 
L 29.5 0 
L 1.5 0 
L 1.5 1.90625 
Q 7.203125 2.40625 8.546875 4.046875 
Q 9.90625 5.703125 9.90625 12 
L 9.90625 55.296875 
Q 9.90625 60.703125 8.5 62.203125 
Q 7.09375 63.703125 1.5 64.296875 
L 1.5 66.203125 
L 27.90625 66.203125 
Q 32.40625 66.203125 36.59375 65.34375 
Q 40.796875 64.5 44.9375 62.59375 
Q 49.09375 60.703125 51.59375 57 
Q 54.09375 53.296875 54.09375 48.09375 
z
M 20.09375 59.09375 
L 20.09375 33.09375 
Q 23.59375 32.796875 25.796875 32.796875 
Q 43.203125 32.796875 43.203125 47.5 
Q 43.203125 55.203125 38.390625 58.84375 
Q 33.59375 62.5 23.5 62.5 
Q 21.5 62.5 20.796875 61.796875 
Q 20.09375 61.09375 20.09375 59.09375 
z
" id="FreeSerif-80"/>
     <path d="M 16 68.09375 
L 16 37.5 
Q 17.5 41.203125 21.390625 43.59375 
Q 25.296875 46 29.90625 46 
Q 37.40625 46 42.453125 39.75 
Q 47.5 33.5 47.5 24.296875 
Q 47.5 13.59375 40.75 6.296875 
Q 34 -1 24.09375 -1 
Q 18.09375 -1 12.84375 1.046875 
Q 7.59375 3.09375 7.59375 5.40625 
L 7.59375 57.296875 
Q 7.59375 60.40625 6.640625 61.40625 
Q 5.703125 62.40625 2.703125 62.40625 
Q 1.59375 62.40625 1 62.296875 
L 1 63.90625 
Q 8.703125 65.796875 15.5 68.296875 
z
M 16 32.203125 
L 16 7 
Q 16 5.09375 18.890625 3.640625 
Q 21.796875 2.203125 25.703125 2.203125 
Q 31.90625 2.203125 35.296875 6.796875 
Q 38.703125 11.40625 38.703125 19.703125 
Q 38.703125 28.796875 35.25 34.25 
Q 31.796875 39.703125 25.90625 39.703125 
Q 22 39.703125 19 37.390625 
Q 16 35.09375 16 32.203125 
z
" id="FreeSerif-98"/>
     <path d="M 1 62.296875 
L 1 63.90625 
Q 10.90625 66.296875 16.90625 68.296875 
L 17.296875 68.09375 
L 17.296875 8.40625 
Q 17.296875 4.296875 18.640625 3.046875 
Q 20 1.796875 24.796875 1.5 
L 24.796875 0 
L 1.203125 0 
L 1.203125 1.5 
Q 5.90625 1.90625 7.40625 3.296875 
Q 8.90625 4.703125 8.90625 8.703125 
L 8.90625 56.40625 
Q 8.90625 59.90625 8 61.203125 
Q 7.09375 62.5 4.703125 62.5 
Q 2.703125 62.5 1 62.296875 
z
" id="FreeSerif-108"/>
     <path d="M 14.203125 -13.40625 
Q 17 -13.40625 20.09375 -7.203125 
Q 23.203125 -1 23.203125 1.90625 
Q 23.203125 3.203125 18.796875 12 
L 5.59375 40.40625 
Q 4.40625 43 0.5 43.59375 
L 0.5 45 
L 21.09375 45 
L 21.09375 43.5 
Q 17.90625 43.40625 16.59375 42.796875 
Q 15.296875 42.203125 15.296875 40.796875 
Q 15.296875 39.296875 16.296875 37 
L 27.796875 11.703125 
L 37.5 39.296875 
Q 37.90625 40.203125 37.90625 41 
Q 37.90625 43.5 33.09375 43.5 
L 33.09375 45 
L 46.59375 45 
L 46.59375 43.5 
Q 44.796875 43.296875 43.75 42.34375 
Q 42.703125 41.40625 41.796875 39 
L 26.40625 -1.796875 
Q 22.40625 -12.59375 18.453125 -17.1875 
Q 14.5 -21.796875 9.5 -21.796875 
Q 6.296875 -21.796875 4.1875 -20.140625 
Q 2.09375 -18.5 2.09375 -16 
Q 2.09375 -14.203125 3.390625 -12.890625 
Q 4.703125 -11.59375 6.40625 -11.59375 
Q 8.59375 -11.59375 11.09375 -12.5 
Q 13.59375 -13.40625 14.203125 -13.40625 
z
" id="FreeSerif-121"/>
     <path d="M 53.40625 38.59375 
L 53.40625 32 
L 3 32 
L 3 38.59375 
z
M 53.40625 18.59375 
L 53.40625 12 
L 3 12 
L 3 18.59375 
z
" id="FreeSerif-61"/>
     <path d="M 5.90625 -2.203125 
L 5.59375 -0.203125 
Q 17 1.796875 24.953125 9.5 
Q 32.90625 17.203125 36 29.40625 
Q 28.59375 23.703125 21 23.703125 
Q 12.90625 23.703125 7.953125 29.296875 
Q 3 34.90625 3 44 
Q 3 54.09375 8.953125 60.84375 
Q 14.90625 67.59375 23.796875 67.59375 
Q 33.5 67.59375 39.703125 59.6875 
Q 45.90625 51.796875 45.90625 39.40625 
Q 45.90625 35.40625 45.203125 31.203125 
Q 44.5 27 41.953125 21.25 
Q 39.40625 15.5 35.296875 10.953125 
Q 31.203125 6.40625 23.59375 2.703125 
Q 16 -1 5.90625 -2.203125 
z
M 24.59375 28 
Q 26.5 28 28.890625 28.546875 
Q 31.296875 29.09375 33.75 30.9375 
Q 36.203125 32.796875 36.203125 35.5 
L 36.203125 39.40625 
Q 36.203125 64.796875 23 64.796875 
Q 19.90625 64.796875 17.703125 63.140625 
Q 15.5 61.5 14.34375 58.796875 
Q 13.203125 56.09375 12.703125 53.296875 
Q 12.203125 50.5 12.203125 47.40625 
Q 12.203125 38.5 15.546875 33.25 
Q 18.90625 28 24.59375 28 
z
" id="FreeSerif-57"/>
     <path d="M 44.90625 66.203125 
L 44.90625 64.59375 
L 23.703125 -0.796875 
L 17.203125 -0.796875 
L 37 58.796875 
L 15.296875 58.796875 
Q 11.203125 58.796875 9.046875 57.296875 
Q 6.90625 55.796875 3.703125 50.703125 
L 2 51.5 
L 7.90625 66.203125 
z
" id="FreeSerif-55"/>
     <path d="M 12.5 10 
Q 14.796875 10 16.4375 8.296875 
Q 18.09375 6.59375 18.09375 4.296875 
Q 18.09375 2.09375 16.390625 0.5 
Q 14.703125 -1.09375 12.40625 -1.09375 
Q 10.203125 -1.09375 8.59375 0.5 
Q 7 2.09375 7 4.296875 
Q 7 6.59375 8.640625 8.296875 
Q 10.296875 10 12.5 10 
z
" id="FreeSerif-46"/>
     <path d="M 25.796875 -1.40625 
Q 15.703125 -1.40625 9.546875 6.640625 
Q 3.40625 14.703125 3.40625 27.90625 
Q 3.40625 32 4.203125 36.34375 
Q 5 40.703125 7.703125 46.25 
Q 10.40625 51.796875 14.703125 56.1875 
Q 19 60.59375 26.75 64.046875 
Q 34.5 67.5 44.59375 68.40625 
L 44.796875 66.796875 
Q 33 64.90625 25.09375 57.25 
Q 17.203125 49.59375 15.203125 38.296875 
Q 19.90625 41.09375 22.296875 41.9375 
Q 24.703125 42.796875 28 42.796875 
Q 36.59375 42.796875 41.6875 37.140625 
Q 46.796875 31.5 46.796875 21.90625 
Q 46.796875 11.59375 40.9375 5.09375 
Q 35.09375 -1.40625 25.796875 -1.40625 
z
M 24.203125 38.203125 
Q 17.40625 38.203125 15.046875 35.203125 
Q 12.703125 32.203125 12.703125 26.296875 
Q 12.703125 14.703125 16.5 8.046875 
Q 20.296875 1.40625 26.90625 1.40625 
Q 32.203125 1.40625 35 5.84375 
Q 37.796875 10.296875 37.796875 18.5 
Q 37.796875 27.90625 34.25 33.046875 
Q 30.703125 38.203125 24.203125 38.203125 
z
" id="FreeSerif-54"/>
     <path d="M 66.90625 37.09375 
Q 71.796875 37.09375 74.5 34.296875 
Q 77.203125 31.5 77.203125 26.40625 
Q 77.203125 20.59375 74.890625 14.890625 
Q 72.59375 9.203125 68.59375 5.09375 
Q 63.5 0 56.90625 0 
Q 51.5 0 48.203125 3.546875 
Q 44.90625 7.09375 44.90625 12.90625 
Q 44.90625 22.296875 51.65625 29.6875 
Q 58.40625 37.09375 66.90625 37.09375 
z
M 58.59375 3 
Q 62.90625 3 66.703125 6.796875 
Q 70.5 10.59375 72.546875 15.84375 
Q 74.59375 21.09375 74.59375 25.90625 
Q 74.59375 29.203125 72.546875 31.546875 
Q 70.5 33.90625 67.59375 33.90625 
Q 63 33.90625 59.296875 28.703125 
Q 55.59375 23.5 54.046875 18.046875 
Q 52.5 12.59375 52.5 9.40625 
Q 52.5 6.59375 54.203125 4.796875 
Q 55.90625 3 58.59375 3 
z
M 28.203125 66.203125 
Q 31.296875 66.203125 33.1875 64.84375 
Q 35.09375 63.5 37.4375 62.140625 
Q 39.796875 60.796875 43.90625 60.796875 
Q 48.59375 60.796875 52.046875 62.296875 
Q 55.5 63.796875 59.5 67.59375 
L 63.40625 67.59375 
L 24.90625 -1.296875 
L 20.09375 -1.296875 
L 55.203125 61.296875 
Q 50 58.296875 44.203125 58.296875 
Q 40.296875 58.296875 37.703125 59.296875 
Q 38.40625 56.796875 38.40625 54.90625 
Q 38.40625 45.59375 32.453125 37.25 
Q 26.5 28.90625 17.90625 28.90625 
Q 13 28.90625 9.546875 32.65625 
Q 6.09375 36.40625 6.09375 41.59375 
Q 6.09375 51.09375 12.84375 58.640625 
Q 19.59375 66.203125 28.203125 66.203125 
z
M 28.203125 63.203125 
Q 23.40625 63.203125 18.546875 54.453125 
Q 13.703125 45.703125 13.703125 38.40625 
Q 13.703125 35.703125 15.34375 34 
Q 17 32.296875 19.59375 32.296875 
Q 25.703125 32.296875 30.796875 39.4375 
Q 35.90625 46.59375 35.90625 55.09375 
Q 35.90625 57 35 60 
Q 33 60.5 31.640625 61.140625 
Q 30.296875 61.796875 29.84375 62.1875 
Q 29.40625 62.59375 29 62.890625 
Q 28.59375 63.203125 28.203125 63.203125 
z
" id="FreeSerif-37"/>
    </defs>
    <g transform="translate(85.392767 64.060902)scale(0.24 -0.24)">
     <use xlink:href="#FreeSerif-80"/>
     <use x="57.584366" xlink:href="#FreeSerif-114"/>
     <use x="92.068726" xlink:href="#FreeSerif-111"/>
     <use x="141.153091" xlink:href="#FreeSerif-98"/>
     <use x="191.153076" xlink:href="#FreeSerif-97"/>
     <use x="234.637436" xlink:href="#FreeSerif-98"/>
     <use x="284.621796" xlink:href="#FreeSerif-105"/>
     <use x="312.406158" xlink:href="#FreeSerif-108"/>
     <use x="338.206146" xlink:href="#FreeSerif-105"/>
     <use x="365.974884" xlink:href="#FreeSerif-116"/>
     <use x="394.274872" xlink:href="#FreeSerif-121"/>
     <use x="441.374863" xlink:href="#FreeSerif-32"/>
     <use x="466.374847" xlink:href="#FreeSerif-61"/>
     <use x="522.774841" xlink:href="#FreeSerif-32"/>
     <use x="547.774826" xlink:href="#FreeSerif-57"/>
     <use x="597.774811" xlink:href="#FreeSerif-55"/>
     <use x="647.774796" xlink:href="#FreeSerif-46"/>
     <use x="672.77478" xlink:href="#FreeSerif-54"/>
     <use x="722.774765" xlink:href="#FreeSerif-37"/>
    </g>
   </g>
   <g id="text_18">
    <!-- X Z hitting plane -->
    <defs>
     <path d="M 15.796875 34.296875 
L 15.796875 10.203125 
Q 15.796875 5 17 3.5 
Q 18.203125 2 22.59375 1.5 
L 22.59375 0 
L 1 0 
L 1 1.5 
Q 5.296875 2.09375 6.34375 3.5 
Q 7.40625 4.90625 7.40625 10.203125 
L 7.40625 57.296875 
Q 7.40625 60.5 6.546875 61.5 
Q 5.703125 62.5 2.796875 62.5 
Q 2.09375 62.5 1.09375 62.296875 
L 1.09375 63.90625 
Q 8.203125 65.796875 15.296875 68.296875 
L 15.796875 68 
L 15.796875 37.59375 
Q 19.203125 42.09375 22.640625 44.046875 
Q 26.09375 46 30.5 46 
Q 42.796875 46 42.796875 30.09375 
L 42.796875 10.203125 
Q 42.796875 5 43.75 3.640625 
Q 44.703125 2.296875 48.796875 1.5 
L 48.796875 0 
L 27.59375 0 
L 27.59375 1.5 
Q 31.90625 1.90625 33.15625 3.5 
Q 34.40625 5.09375 34.40625 10.203125 
L 34.40625 30 
Q 34.40625 40.59375 26.90625 40.59375 
Q 24 40.59375 21.453125 39.140625 
Q 18.90625 37.703125 15.796875 34.296875 
z
" id="FreeSerif-104"/>
     <path d="M 6 5.40625 
Q 6 7.296875 7.34375 8.890625 
Q 8.703125 10.5 14.90625 16.296875 
Q 9.90625 18.796875 7.75 21.890625 
Q 5.59375 25 5.59375 29.703125 
Q 5.59375 36.5 10.4375 41.25 
Q 15.296875 46 22.296875 46 
Q 26.203125 46 30.640625 44.34375 
Q 35.09375 42.703125 38 42.703125 
L 45.703125 42.703125 
L 45.703125 38.796875 
L 37.40625 38.796875 
Q 39.296875 34.5 39.296875 30.40625 
Q 39.296875 23.5 34.640625 19.203125 
Q 30 14.90625 23.703125 14.90625 
Q 22.5 14.90625 18 15.40625 
Q 16 14.796875 14 12.6875 
Q 12 10.59375 12 9.09375 
Q 12 6.703125 19.796875 6.40625 
L 32.703125 5.796875 
Q 38.203125 5.59375 41.5 2.6875 
Q 44.796875 -0.203125 44.796875 -4.90625 
Q 44.796875 -12.09375 36.546875 -16.9375 
Q 28.296875 -21.796875 18.796875 -21.796875 
Q 11.703125 -21.796875 6.59375 -18.9375 
Q 1.5 -16.09375 1.5 -12.09375 
Q 1.5 -9.296875 3.75 -6.546875 
Q 6 -3.796875 11.296875 0.09375 
Q 8.203125 1.59375 7.09375 2.6875 
Q 6 3.796875 6 5.40625 
z
M 13.40625 -0.203125 
Q 10.296875 -3.90625 9.390625 -5.5 
Q 8.5 -7.09375 8.5 -8.796875 
Q 8.5 -12.09375 12.5 -14.09375 
Q 16.5 -16.09375 23.09375 -16.09375 
Q 31.59375 -16.09375 36.796875 -13.390625 
Q 42 -10.703125 42 -6.40625 
Q 42 -3.703125 39.203125 -2.59375 
Q 36.40625 -1.5 29.59375 -1.5 
Q 19.5 -1.5 13.40625 -0.203125 
z
M 31.59375 26.5 
Q 31.59375 28.203125 31.1875 30.59375 
Q 30.796875 33 29.796875 36.046875 
Q 28.796875 39.09375 26.59375 41.140625 
Q 24.40625 43.203125 21.296875 43.203125 
Q 17.796875 43.203125 15.84375 40.703125 
Q 13.90625 38.203125 13.90625 33.796875 
Q 13.90625 25.203125 17.09375 21.296875 
Q 20.296875 17.40625 24.09375 17.40625 
Q 27.59375 17.40625 29.59375 19.84375 
Q 31.59375 22.296875 31.59375 26.5 
z
" id="FreeSerif-103"/>
     <path d="M 1.40625 39.296875 
L 1.40625 40.90625 
Q 7.703125 42.796875 15.796875 46 
L 16.40625 45.796875 
L 16.40625 38.09375 
Q 22.796875 46 30.796875 46 
Q 38.09375 46 42.796875 40 
Q 47.5 34 47.5 24.703125 
Q 47.5 13.796875 41.453125 6.390625 
Q 35.40625 -1 26.5 -1 
Q 23.296875 -1 21.140625 -0.09375 
Q 19 0.796875 16.40625 3.296875 
L 16.40625 -12.40625 
Q 16.40625 -17.09375 18 -18.4375 
Q 19.59375 -19.796875 25.203125 -19.90625 
L 25.203125 -21.703125 
L 1 -21.703125 
L 1 -20 
Q 5.40625 -19.59375 6.703125 -18.296875 
Q 8 -17 8 -13.09375 
L 8 33.703125 
Q 8 37.203125 7.203125 38.296875 
Q 6.40625 39.40625 3.90625 39.40625 
Q 2.296875 39.40625 1.40625 39.296875 
z
M 16.40625 33.40625 
L 16.40625 8.796875 
Q 16.40625 6.59375 19.84375 4.390625 
Q 23.296875 2.203125 26.796875 2.203125 
Q 32.203125 2.203125 35.546875 7.34375 
Q 38.90625 12.5 38.90625 20.796875 
Q 38.90625 29.5 35.546875 34.75 
Q 32.203125 40 26.59375 40 
Q 23.09375 40 19.75 37.796875 
Q 16.40625 35.59375 16.40625 33.40625 
z
" id="FreeSerif-112"/>
    </defs>
    <g transform="translate(226.83175 36.8017)scale(0.24 -0.24)">
     <use xlink:href="#FreeSerif-88"/>
     <use x="71.399994" xlink:href="#FreeSerif-32"/>
     <use x="96.399979" xlink:href="#FreeSerif-90"/>
     <use x="157.699966" xlink:href="#FreeSerif-32"/>
     <use x="182.699951" xlink:href="#FreeSerif-104"/>
     <use x="232.499939" xlink:href="#FreeSerif-105"/>
     <use x="260.268677" xlink:href="#FreeSerif-116"/>
     <use x="288.568665" xlink:href="#FreeSerif-116"/>
     <use x="316.868652" xlink:href="#FreeSerif-105"/>
     <use x="344.653015" xlink:href="#FreeSerif-110"/>
     <use x="393.553009" xlink:href="#FreeSerif-103"/>
     <use x="440.253006" xlink:href="#FreeSerif-32"/>
     <use x="465.252991" xlink:href="#FreeSerif-112"/>
     <use x="515.23735" xlink:href="#FreeSerif-108"/>
     <use x="541.037338" xlink:href="#FreeSerif-97"/>
     <use x="584.537323" xlink:href="#FreeSerif-110"/>
     <use x="633.421692" xlink:href="#FreeSerif-101"/>
    </g>
   </g>
   <g id="legend_1">
    <g id="patch_8">
     <path d="M 421.240312 80.15795 
L 537.52 80.15795 
Q 539.52 80.15795 539.52 78.15795 
L 539.52 49.8017 
Q 539.52 47.8017 537.52 47.8017 
L 421.240312 47.8017 
Q 419.240312 47.8017 419.240312 49.8017 
L 419.240312 78.15795 
Q 419.240312 80.15795 421.240312 80.15795 
z
" style="fill:#ffffff;opacity:0.8;stroke:#cccccc;stroke-linejoin:miter;"/>
    </g>
    <g id="PathCollection_3">
     <g>
      <use style="fill:#0000ff;stroke:#0000ff;stroke-width:1.5;" x="433.240312" xlink:href="#m53b51c4af3" y="56.775138"/>
     </g>
    </g>
    <g id="text_19">
     <!-- prediction points -->
     <defs>
      <path d="M 18.109375 8.203125 
L 18.109375 -20.796875 
L 9.078125 -20.796875 
L 9.078125 54.6875 
L 18.109375 54.6875 
L 18.109375 46.390625 
Q 20.953125 51.265625 25.265625 53.625 
Q 29.59375 56 35.59375 56 
Q 45.5625 56 51.78125 48.09375 
Q 58.015625 40.1875 58.015625 27.296875 
Q 58.015625 14.40625 51.78125 6.484375 
Q 45.5625 -1.421875 35.59375 -1.421875 
Q 29.59375 -1.421875 25.265625 0.953125 
Q 20.953125 3.328125 18.109375 8.203125 
z
M 48.6875 27.296875 
Q 48.6875 37.203125 44.609375 42.84375 
Q 40.53125 48.484375 33.40625 48.484375 
Q 26.265625 48.484375 22.1875 42.84375 
Q 18.109375 37.203125 18.109375 27.296875 
Q 18.109375 17.390625 22.1875 11.75 
Q 26.265625 6.109375 33.40625 6.109375 
Q 40.53125 6.109375 44.609375 11.75 
Q 48.6875 17.390625 48.6875 27.296875 
z
" id="DejaVuSans-112"/>
      <path d="M 41.109375 46.296875 
Q 39.59375 47.171875 37.8125 47.578125 
Q 36.03125 48 33.890625 48 
Q 26.265625 48 22.1875 43.046875 
Q 18.109375 38.09375 18.109375 28.8125 
L 18.109375 0 
L 9.078125 0 
L 9.078125 54.6875 
L 18.109375 54.6875 
L 18.109375 46.1875 
Q 20.953125 51.171875 25.484375 53.578125 
Q 30.03125 56 36.53125 56 
Q 37.453125 56 38.578125 55.875 
Q 39.703125 55.765625 41.0625 55.515625 
z
" id="DejaVuSans-114"/>
      <path d="M 56.203125 29.59375 
L 56.203125 25.203125 
L 14.890625 25.203125 
Q 15.484375 15.921875 20.484375 11.0625 
Q 25.484375 6.203125 34.421875 6.203125 
Q 39.59375 6.203125 44.453125 7.46875 
Q 49.3125 8.734375 54.109375 11.28125 
L 54.109375 2.78125 
Q 49.265625 0.734375 44.1875 -0.34375 
Q 39.109375 -1.421875 33.890625 -1.421875 
Q 20.796875 -1.421875 13.15625 6.1875 
Q 5.515625 13.8125 5.515625 26.8125 
Q 5.515625 40.234375 12.765625 48.109375 
Q 20.015625 56 32.328125 56 
Q 43.359375 56 49.78125 48.890625 
Q 56.203125 41.796875 56.203125 29.59375 
z
M 47.21875 32.234375 
Q 47.125 39.59375 43.09375 43.984375 
Q 39.0625 48.390625 32.421875 48.390625 
Q 24.90625 48.390625 20.390625 44.140625 
Q 15.875 39.890625 15.1875 32.171875 
z
" id="DejaVuSans-101"/>
      <path d="M 45.40625 46.390625 
L 45.40625 75.984375 
L 54.390625 75.984375 
L 54.390625 0 
L 45.40625 0 
L 45.40625 8.203125 
Q 42.578125 3.328125 38.25 0.953125 
Q 33.9375 -1.421875 27.875 -1.421875 
Q 17.96875 -1.421875 11.734375 6.484375 
Q 5.515625 14.40625 5.515625 27.296875 
Q 5.515625 40.1875 11.734375 48.09375 
Q 17.96875 56 27.875 56 
Q 33.9375 56 38.25 53.625 
Q 42.578125 51.265625 45.40625 46.390625 
z
M 14.796875 27.296875 
Q 14.796875 17.390625 18.875 11.75 
Q 22.953125 6.109375 30.078125 6.109375 
Q 37.203125 6.109375 41.296875 11.75 
Q 45.40625 17.390625 45.40625 27.296875 
Q 45.40625 37.203125 41.296875 42.84375 
Q 37.203125 48.484375 30.078125 48.484375 
Q 22.953125 48.484375 18.875 42.84375 
Q 14.796875 37.203125 14.796875 27.296875 
z
" id="DejaVuSans-100"/>
      <path d="M 9.421875 54.6875 
L 18.40625 54.6875 
L 18.40625 0 
L 9.421875 0 
z
M 9.421875 75.984375 
L 18.40625 75.984375 
L 18.40625 64.59375 
L 9.421875 64.59375 
z
" id="DejaVuSans-105"/>
      <path d="M 48.78125 52.59375 
L 48.78125 44.1875 
Q 44.96875 46.296875 41.140625 47.34375 
Q 37.3125 48.390625 33.40625 48.390625 
Q 24.65625 48.390625 19.8125 42.84375 
Q 14.984375 37.3125 14.984375 27.296875 
Q 14.984375 17.28125 19.8125 11.734375 
Q 24.65625 6.203125 33.40625 6.203125 
Q 37.3125 6.203125 41.140625 7.25 
Q 44.96875 8.296875 48.78125 10.40625 
L 48.78125 2.09375 
Q 45.015625 0.34375 40.984375 -0.53125 
Q 36.96875 -1.421875 32.421875 -1.421875 
Q 20.0625 -1.421875 12.78125 6.34375 
Q 5.515625 14.109375 5.515625 27.296875 
Q 5.515625 40.671875 12.859375 48.328125 
Q 20.21875 56 33.015625 56 
Q 37.15625 56 41.109375 55.140625 
Q 45.0625 54.296875 48.78125 52.59375 
z
" id="DejaVuSans-99"/>
      <path d="M 18.3125 70.21875 
L 18.3125 54.6875 
L 36.8125 54.6875 
L 36.8125 47.703125 
L 18.3125 47.703125 
L 18.3125 18.015625 
Q 18.3125 11.328125 20.140625 9.421875 
Q 21.96875 7.515625 27.59375 7.515625 
L 36.8125 7.515625 
L 36.8125 0 
L 27.59375 0 
Q 17.1875 0 13.234375 3.875 
Q 9.28125 7.765625 9.28125 18.015625 
L 9.28125 47.703125 
L 2.6875 47.703125 
L 2.6875 54.6875 
L 9.28125 54.6875 
L 9.28125 70.21875 
z
" id="DejaVuSans-116"/>
      <path d="M 30.609375 48.390625 
Q 23.390625 48.390625 19.1875 42.75 
Q 14.984375 37.109375 14.984375 27.296875 
Q 14.984375 17.484375 19.15625 11.84375 
Q 23.34375 6.203125 30.609375 6.203125 
Q 37.796875 6.203125 41.984375 11.859375 
Q 46.1875 17.53125 46.1875 27.296875 
Q 46.1875 37.015625 41.984375 42.703125 
Q 37.796875 48.390625 30.609375 48.390625 
z
M 30.609375 56 
Q 42.328125 56 49.015625 48.375 
Q 55.71875 40.765625 55.71875 27.296875 
Q 55.71875 13.875 49.015625 6.21875 
Q 42.328125 -1.421875 30.609375 -1.421875 
Q 18.84375 -1.421875 12.171875 6.21875 
Q 5.515625 13.875 5.515625 27.296875 
Q 5.515625 40.765625 12.171875 48.375 
Q 18.84375 56 30.609375 56 
z
" id="DejaVuSans-111"/>
      <path d="M 54.890625 33.015625 
L 54.890625 0 
L 45.90625 0 
L 45.90625 32.71875 
Q 45.90625 40.484375 42.875 44.328125 
Q 39.84375 48.1875 33.796875 48.1875 
Q 26.515625 48.1875 22.3125 43.546875 
Q 18.109375 38.921875 18.109375 30.90625 
L 18.109375 0 
L 9.078125 0 
L 9.078125 54.6875 
L 18.109375 54.6875 
L 18.109375 46.1875 
Q 21.34375 51.125 25.703125 53.5625 
Q 30.078125 56 35.796875 56 
Q 45.21875 56 50.046875 50.171875 
Q 54.890625 44.34375 54.890625 33.015625 
z
" id="DejaVuSans-110"/>
      <path id="DejaVuSans-32"/>
      <path d="M 44.28125 53.078125 
L 44.28125 44.578125 
Q 40.484375 46.53125 36.375 47.5 
Q 32.28125 48.484375 27.875 48.484375 
Q 21.1875 48.484375 17.84375 46.4375 
Q 14.5 44.390625 14.5 40.28125 
Q 14.5 37.15625 16.890625 35.375 
Q 19.28125 33.59375 26.515625 31.984375 
L 29.59375 31.296875 
Q 39.15625 29.25 43.1875 25.515625 
Q 47.21875 21.78125 47.21875 15.09375 
Q 47.21875 7.46875 41.1875 3.015625 
Q 35.15625 -1.421875 24.609375 -1.421875 
Q 20.21875 -1.421875 15.453125 -0.5625 
Q 10.6875 0.296875 5.421875 2 
L 5.421875 11.28125 
Q 10.40625 8.6875 15.234375 7.390625 
Q 20.0625 6.109375 24.8125 6.109375 
Q 31.15625 6.109375 34.5625 8.28125 
Q 37.984375 10.453125 37.984375 14.40625 
Q 37.984375 18.0625 35.515625 20.015625 
Q 33.0625 21.96875 24.703125 23.78125 
L 21.578125 24.515625 
Q 13.234375 26.265625 9.515625 29.90625 
Q 5.8125 33.546875 5.8125 39.890625 
Q 5.8125 47.609375 11.28125 51.796875 
Q 16.75 56 26.8125 56 
Q 31.78125 56 36.171875 55.265625 
Q 40.578125 54.546875 44.28125 53.078125 
z
" id="DejaVuSans-115"/>
     </defs>
     <g transform="translate(451.240312 59.400138)scale(0.1 -0.1)">
      <use xlink:href="#DejaVuSans-112"/>
      <use x="63.476562" xlink:href="#DejaVuSans-114"/>
      <use x="104.558594" xlink:href="#DejaVuSans-101"/>
      <use x="166.082031" xlink:href="#DejaVuSans-100"/>
      <use x="229.558594" xlink:href="#DejaVuSans-105"/>
      <use x="257.341797" xlink:href="#DejaVuSans-99"/>
      <use x="312.322266" xlink:href="#DejaVuSans-116"/>
      <use x="351.53125" xlink:href="#DejaVuSans-105"/>
      <use x="379.314453" xlink:href="#DejaVuSans-111"/>
      <use x="440.496094" xlink:href="#DejaVuSans-110"/>
      <use x="503.875" xlink:href="#DejaVuSans-32"/>
      <use x="535.662109" xlink:href="#DejaVuSans-112"/>
      <use x="599.138672" xlink:href="#DejaVuSans-111"/>
      <use x="660.320312" xlink:href="#DejaVuSans-105"/>
      <use x="688.103516" xlink:href="#DejaVuSans-110"/>
      <use x="751.482422" xlink:href="#DejaVuSans-116"/>
      <use x="790.691406" xlink:href="#DejaVuSans-115"/>
     </g>
    </g>
    <g id="PathCollection_4">
     <g>
      <use style="fill:#ff0000;stroke:#ff0000;" x="433.240312" xlink:href="#m11ea127fea" y="71.453263"/>
     </g>
    </g>
    <g id="text_20">
     <!-- target point -->
     <defs>
      <path d="M 34.28125 27.484375 
Q 23.390625 27.484375 19.1875 25 
Q 14.984375 22.515625 14.984375 16.5 
Q 14.984375 11.71875 18.140625 8.90625 
Q 21.296875 6.109375 26.703125 6.109375 
Q 34.1875 6.109375 38.703125 11.40625 
Q 43.21875 16.703125 43.21875 25.484375 
L 43.21875 27.484375 
z
M 52.203125 31.203125 
L 52.203125 0 
L 43.21875 0 
L 43.21875 8.296875 
Q 40.140625 3.328125 35.546875 0.953125 
Q 30.953125 -1.421875 24.3125 -1.421875 
Q 15.921875 -1.421875 10.953125 3.296875 
Q 6 8.015625 6 15.921875 
Q 6 25.140625 12.171875 29.828125 
Q 18.359375 34.515625 30.609375 34.515625 
L 43.21875 34.515625 
L 43.21875 35.40625 
Q 43.21875 41.609375 39.140625 45 
Q 35.0625 48.390625 27.6875 48.390625 
Q 23 48.390625 18.546875 47.265625 
Q 14.109375 46.140625 10.015625 43.890625 
L 10.015625 52.203125 
Q 14.9375 54.109375 19.578125 55.046875 
Q 24.21875 56 28.609375 56 
Q 40.484375 56 46.34375 49.84375 
Q 52.203125 43.703125 52.203125 31.203125 
z
" id="DejaVuSans-97"/>
      <path d="M 45.40625 27.984375 
Q 45.40625 37.75 41.375 43.109375 
Q 37.359375 48.484375 30.078125 48.484375 
Q 22.859375 48.484375 18.828125 43.109375 
Q 14.796875 37.75 14.796875 27.984375 
Q 14.796875 18.265625 18.828125 12.890625 
Q 22.859375 7.515625 30.078125 7.515625 
Q 37.359375 7.515625 41.375 12.890625 
Q 45.40625 18.265625 45.40625 27.984375 
z
M 54.390625 6.78125 
Q 54.390625 -7.171875 48.1875 -13.984375 
Q 42 -20.796875 29.203125 -20.796875 
Q 24.46875 -20.796875 20.265625 -20.09375 
Q 16.0625 -19.390625 12.109375 -17.921875 
L 12.109375 -9.1875 
Q 16.0625 -11.328125 19.921875 -12.34375 
Q 23.78125 -13.375 27.78125 -13.375 
Q 36.625 -13.375 41.015625 -8.765625 
Q 45.40625 -4.15625 45.40625 5.171875 
L 45.40625 9.625 
Q 42.625 4.78125 38.28125 2.390625 
Q 33.9375 0 27.875 0 
Q 17.828125 0 11.671875 7.65625 
Q 5.515625 15.328125 5.515625 27.984375 
Q 5.515625 40.671875 11.671875 48.328125 
Q 17.828125 56 27.875 56 
Q 33.9375 56 38.28125 53.609375 
Q 42.625 51.21875 45.40625 46.390625 
L 45.40625 54.6875 
L 54.390625 54.6875 
z
" id="DejaVuSans-103"/>
     </defs>
     <g transform="translate(451.240312 74.078263)scale(0.1 -0.1)">
      <use xlink:href="#DejaVuSans-116"/>
      <use x="39.208984" xlink:href="#DejaVuSans-97"/>
      <use x="100.488281" xlink:href="#DejaVuSans-114"/>
      <use x="141.585938" xlink:href="#DejaVuSans-103"/>
      <use x="205.0625" xlink:href="#DejaVuSans-101"/>
      <use x="266.585938" xlink:href="#DejaVuSans-116"/>
      <use x="305.794922" xlink:href="#DejaVuSans-32"/>
      <use x="337.582031" xlink:href="#DejaVuSans-112"/>
      <use x="401.058594" xlink:href="#DejaVuSans-111"/>
      <use x="462.240234" xlink:href="#DejaVuSans-105"/>
      <use x="490.023438" xlink:href="#DejaVuSans-110"/>
      <use x="553.402344" xlink:href="#DejaVuSans-116"/>
     </g>
    </g>
   </g>
  </g>
 </g>
 <defs>
  <clipPath id="pd2d2bb8bce">
   <rect height="469.9823" width="472.69775" x="71.82225" y="42.8017"/>
  </clipPath>
 </defs>
</svg>
