<?xml version="1.0" encoding="utf-8" standalone="no"?>
<!DOCTYPE svg PUBLIC "-//W3C//DTD SVG 1.1//EN"
  "http://www.w3.org/Graphics/SVG/1.1/DTD/svg11.dtd">
<!-- Created with matplotlib (https://matplotlib.org/) -->
<svg height="576pt" version="1.1" viewBox="0 0 576 576" width="576pt" xmlns="http://www.w3.org/2000/svg" xmlns:xlink="http://www.w3.org/1999/xlink">
 <defs>
  <style type="text/css">
*{stroke-linecap:butt;stroke-linejoin:round;}
  </style>
 </defs>
 <g id="figure_1">
  <g id="patch_1">
   <path d="M 0 576 
L 576 576 
L 576 0 
L 0 0 
z
" style="fill:#ffffff;"/>
  </g>
  <g id="axes_1">
   <g id="patch_2">
    <path d="M 71.82225 512.784 
L 544.52 512.784 
L 544.52 42.8017 
L 71.82225 42.8017 
z
" style="fill:#ffffff;"/>
   </g>
   <g id="PathCollection_1">
    <defs>
     <path d="M -3 3 
L 3 -3 
M -3 -3 
L 3 3 
" id="mbe83c35765" style="stroke:#0000ff;stroke-width:1.5;"/>
    </defs>
    <g clip-path="url(#pd78b1adc99)">
     <use style="fill:#0000ff;stroke:#0000ff;stroke-width:1.5;" x="282.914016" xlink:href="#mbe83c35765" y="258.771026"/>
     <use style="fill:#0000ff;stroke:#0000ff;stroke-width:1.5;" x="292.975966" xlink:href="#mbe83c35765" y="340.84705"/>
     <use style="fill:#0000ff;stroke:#0000ff;stroke-width:1.5;" x="461.315776" xlink:href="#mbe83c35765" y="98.552885"/>
     <use style="fill:#0000ff;stroke:#0000ff;stroke-width:1.5;" x="345.718991" xlink:href="#mbe83c35765" y="302.56444"/>
     <use style="fill:#0000ff;stroke:#0000ff;stroke-width:1.5;" x="346.614491" xlink:href="#mbe83c35765" y="274.375339"/>
     <use style="fill:#0000ff;stroke:#0000ff;stroke-width:1.5;" x="298.287609" xlink:href="#mbe83c35765" y="315.714246"/>
     <use style="fill:#0000ff;stroke:#0000ff;stroke-width:1.5;" x="305.890647" xlink:href="#mbe83c35765" y="236.725084"/>
     <use style="fill:#0000ff;stroke:#0000ff;stroke-width:1.5;" x="308.904239" xlink:href="#mbe83c35765" y="324.941626"/>
     <use style="fill:#0000ff;stroke:#0000ff;stroke-width:1.5;" x="334.552468" xlink:href="#mbe83c35765" y="332.67025"/>
     <use style="fill:#0000ff;stroke:#0000ff;stroke-width:1.5;" x="276.125738" xlink:href="#mbe83c35765" y="296.096415"/>
     <use style="fill:#0000ff;stroke:#0000ff;stroke-width:1.5;" x="329.131903" xlink:href="#mbe83c35765" y="285.702881"/>
     <use style="fill:#0000ff;stroke:#0000ff;stroke-width:1.5;" x="268.228309" xlink:href="#mbe83c35765" y="331.101196"/>
     <use style="fill:#0000ff;stroke:#0000ff;stroke-width:1.5;" x="301.028905" xlink:href="#mbe83c35765" y="238.633758"/>
     <use style="fill:#0000ff;stroke:#0000ff;stroke-width:1.5;" x="300.421091" xlink:href="#mbe83c35765" y="220.844555"/>
     <use style="fill:#0000ff;stroke:#0000ff;stroke-width:1.5;" x="328.924312" xlink:href="#mbe83c35765" y="306.45571"/>
     <use style="fill:#0000ff;stroke:#0000ff;stroke-width:1.5;" x="356.410254" xlink:href="#mbe83c35765" y="261.452828"/>
     <use style="fill:#0000ff;stroke:#0000ff;stroke-width:1.5;" x="297.626761" xlink:href="#mbe83c35765" y="310.249135"/>
     <use style="fill:#0000ff;stroke:#0000ff;stroke-width:1.5;" x="377.033008" xlink:href="#mbe83c35765" y="261.790528"/>
     <use style="fill:#0000ff;stroke:#0000ff;stroke-width:1.5;" x="269.574836" xlink:href="#mbe83c35765" y="259.143993"/>
     <use style="fill:#0000ff;stroke:#0000ff;stroke-width:1.5;" x="333.984014" xlink:href="#mbe83c35765" y="348.229515"/>
     <use style="fill:#0000ff;stroke:#0000ff;stroke-width:1.5;" x="294.399344" xlink:href="#mbe83c35765" y="300.363338"/>
     <use style="fill:#0000ff;stroke:#0000ff;stroke-width:1.5;" x="294.975485" xlink:href="#mbe83c35765" y="286.602734"/>
     <use style="fill:#0000ff;stroke:#0000ff;stroke-width:1.5;" x="317.165481" xlink:href="#mbe83c35765" y="303.693504"/>
     <use style="fill:#0000ff;stroke:#0000ff;stroke-width:1.5;" x="314.291191" xlink:href="#mbe83c35765" y="298.083775"/>
     <use style="fill:#0000ff;stroke:#0000ff;stroke-width:1.5;" x="304.36245" xlink:href="#mbe83c35765" y="271.217214"/>
     <use style="fill:#0000ff;stroke:#0000ff;stroke-width:1.5;" x="297.064077" xlink:href="#mbe83c35765" y="279.90112"/>
     <use style="fill:#0000ff;stroke:#0000ff;stroke-width:1.5;" x="332.034816" xlink:href="#mbe83c35765" y="364.12698"/>
     <use style="fill:#0000ff;stroke:#0000ff;stroke-width:1.5;" x="288.860005" xlink:href="#mbe83c35765" y="278.250221"/>
     <use style="fill:#0000ff;stroke:#0000ff;stroke-width:1.5;" x="276.795156" xlink:href="#mbe83c35765" y="266.473124"/>
     <use style="fill:#0000ff;stroke:#0000ff;stroke-width:1.5;" x="331.512571" xlink:href="#mbe83c35765" y="269.259857"/>
     <use style="fill:#0000ff;stroke:#0000ff;stroke-width:1.5;" x="305.126718" xlink:href="#mbe83c35765" y="348.536227"/>
     <use style="fill:#0000ff;stroke:#0000ff;stroke-width:1.5;" x="331.766462" xlink:href="#mbe83c35765" y="244.963975"/>
     <use style="fill:#0000ff;stroke:#0000ff;stroke-width:1.5;" x="306.066943" xlink:href="#mbe83c35765" y="218.152955"/>
     <use style="fill:#0000ff;stroke:#0000ff;stroke-width:1.5;" x="283.01203" xlink:href="#mbe83c35765" y="233.371416"/>
     <use style="fill:#0000ff;stroke:#0000ff;stroke-width:1.5;" x="301.296313" xlink:href="#mbe83c35765" y="357.692622"/>
     <use style="fill:#0000ff;stroke:#0000ff;stroke-width:1.5;" x="307.387962" xlink:href="#mbe83c35765" y="282.934087"/>
     <use style="fill:#0000ff;stroke:#0000ff;stroke-width:1.5;" x="316.692173" xlink:href="#mbe83c35765" y="241.337073"/>
     <use style="fill:#0000ff;stroke:#0000ff;stroke-width:1.5;" x="293.314042" xlink:href="#mbe83c35765" y="264.664636"/>
     <use style="fill:#0000ff;stroke:#0000ff;stroke-width:1.5;" x="296.326556" xlink:href="#mbe83c35765" y="256.333021"/>
     <use style="fill:#0000ff;stroke:#0000ff;stroke-width:1.5;" x="274.551011" xlink:href="#mbe83c35765" y="262.467393"/>
     <use style="fill:#0000ff;stroke:#0000ff;stroke-width:1.5;" x="327.249716" xlink:href="#mbe83c35765" y="372.551508"/>
     <use style="fill:#0000ff;stroke:#0000ff;stroke-width:1.5;" x="272.189952" xlink:href="#mbe83c35765" y="321.362008"/>
     <use style="fill:#0000ff;stroke:#0000ff;stroke-width:1.5;" x="308.238228" xlink:href="#mbe83c35765" y="211.841291"/>
     <use style="fill:#0000ff;stroke:#0000ff;stroke-width:1.5;" x="309.741714" xlink:href="#mbe83c35765" y="276.941565"/>
     <use style="fill:#0000ff;stroke:#0000ff;stroke-width:1.5;" x="554.170559" xlink:href="#mbe83c35765" y="264.909941"/>
     <use style="fill:#0000ff;stroke:#0000ff;stroke-width:1.5;" x="305.949395" xlink:href="#mbe83c35765" y="164.599679"/>
     <use style="fill:#0000ff;stroke:#0000ff;stroke-width:1.5;" x="326.723471" xlink:href="#mbe83c35765" y="260.920845"/>
     <use style="fill:#0000ff;stroke:#0000ff;stroke-width:1.5;" x="286.007764" xlink:href="#mbe83c35765" y="336.322927"/>
     <use style="fill:#0000ff;stroke:#0000ff;stroke-width:1.5;" x="362.00486" xlink:href="#mbe83c35765" y="259.152892"/>
     <use style="fill:#0000ff;stroke:#0000ff;stroke-width:1.5;" x="322.065985" xlink:href="#mbe83c35765" y="191.977417"/>
     <use style="fill:#0000ff;stroke:#0000ff;stroke-width:1.5;" x="278.111118" xlink:href="#mbe83c35765" y="275.508433"/>
     <use style="fill:#0000ff;stroke:#0000ff;stroke-width:1.5;" x="310.646646" xlink:href="#mbe83c35765" y="176.871028"/>
     <use style="fill:#0000ff;stroke:#0000ff;stroke-width:1.5;" x="299.559546" xlink:href="#mbe83c35765" y="342.06101"/>
     <use style="fill:#0000ff;stroke:#0000ff;stroke-width:1.5;" x="325.136424" xlink:href="#mbe83c35765" y="303.543558"/>
     <use style="fill:#0000ff;stroke:#0000ff;stroke-width:1.5;" x="313.053104" xlink:href="#mbe83c35765" y="238.109264"/>
     <use style="fill:#0000ff;stroke:#0000ff;stroke-width:1.5;" x="250.854149" xlink:href="#mbe83c35765" y="224.909557"/>
     <use style="fill:#0000ff;stroke:#0000ff;stroke-width:1.5;" x="332.9888" xlink:href="#mbe83c35765" y="201.712894"/>
     <use style="fill:#0000ff;stroke:#0000ff;stroke-width:1.5;" x="330.96247" xlink:href="#mbe83c35765" y="329.443872"/>
     <use style="fill:#0000ff;stroke:#0000ff;stroke-width:1.5;" x="265.79045" xlink:href="#mbe83c35765" y="227.431089"/>
     <use style="fill:#0000ff;stroke:#0000ff;stroke-width:1.5;" x="336.127421" xlink:href="#mbe83c35765" y="352.305419"/>
     <use style="fill:#0000ff;stroke:#0000ff;stroke-width:1.5;" x="319.197463" xlink:href="#mbe83c35765" y="321.164116"/>
     <use style="fill:#0000ff;stroke:#0000ff;stroke-width:1.5;" x="301.41753" xlink:href="#mbe83c35765" y="305.525676"/>
     <use style="fill:#0000ff;stroke:#0000ff;stroke-width:1.5;" x="299.530547" xlink:href="#mbe83c35765" y="247.778754"/>
     <use style="fill:#0000ff;stroke:#0000ff;stroke-width:1.5;" x="283.861189" xlink:href="#mbe83c35765" y="285.758315"/>
     <use style="fill:#0000ff;stroke:#0000ff;stroke-width:1.5;" x="326.910443" xlink:href="#mbe83c35765" y="269.665289"/>
     <use style="fill:#0000ff;stroke:#0000ff;stroke-width:1.5;" x="326.706104" xlink:href="#mbe83c35765" y="244.251151"/>
     <use style="fill:#0000ff;stroke:#0000ff;stroke-width:1.5;" x="313.56245" xlink:href="#mbe83c35765" y="367.838018"/>
     <use style="fill:#0000ff;stroke:#0000ff;stroke-width:1.5;" x="291.250038" xlink:href="#mbe83c35765" y="231.668556"/>
     <use style="fill:#0000ff;stroke:#0000ff;stroke-width:1.5;" x="369.403839" xlink:href="#mbe83c35765" y="239.587828"/>
     <use style="fill:#0000ff;stroke:#0000ff;stroke-width:1.5;" x="311.865797" xlink:href="#mbe83c35765" y="359.206347"/>
     <use style="fill:#0000ff;stroke:#0000ff;stroke-width:1.5;" x="291.907773" xlink:href="#mbe83c35765" y="275.430626"/>
     <use style="fill:#0000ff;stroke:#0000ff;stroke-width:1.5;" x="277.465338" xlink:href="#mbe83c35765" y="211.586273"/>
     <use style="fill:#0000ff;stroke:#0000ff;stroke-width:1.5;" x="330.243261" xlink:href="#mbe83c35765" y="222.428948"/>
     <use style="fill:#0000ff;stroke:#0000ff;stroke-width:1.5;" x="333.485633" xlink:href="#mbe83c35765" y="297.721332"/>
     <use style="fill:#0000ff;stroke:#0000ff;stroke-width:1.5;" x="307.895432" xlink:href="#mbe83c35765" y="370.927792"/>
     <use style="fill:#0000ff;stroke:#0000ff;stroke-width:1.5;" x="321.817319" xlink:href="#mbe83c35765" y="267.190416"/>
     <use style="fill:#0000ff;stroke:#0000ff;stroke-width:1.5;" x="331.757959" xlink:href="#mbe83c35765" y="141.878117"/>
     <use style="fill:#0000ff;stroke:#0000ff;stroke-width:1.5;" x="315.519013" xlink:href="#mbe83c35765" y="319.607891"/>
     <use style="fill:#0000ff;stroke:#0000ff;stroke-width:1.5;" x="268.299283" xlink:href="#mbe83c35765" y="286.94637"/>
     <use style="fill:#0000ff;stroke:#0000ff;stroke-width:1.5;" x="285.31617" xlink:href="#mbe83c35765" y="401.239141"/>
     <use style="fill:#0000ff;stroke:#0000ff;stroke-width:1.5;" x="269.34608" xlink:href="#mbe83c35765" y="308.829831"/>
     <use style="fill:#0000ff;stroke:#0000ff;stroke-width:1.5;" x="359.851007" xlink:href="#mbe83c35765" y="348.218893"/>
     <use style="fill:#0000ff;stroke:#0000ff;stroke-width:1.5;" x="297.561082" xlink:href="#mbe83c35765" y="266.599535"/>
     <use style="fill:#0000ff;stroke:#0000ff;stroke-width:1.5;" x="338.83515" xlink:href="#mbe83c35765" y="103.01167"/>
     <use style="fill:#0000ff;stroke:#0000ff;stroke-width:1.5;" x="354.461977" xlink:href="#mbe83c35765" y="232.39268"/>
     <use style="fill:#0000ff;stroke:#0000ff;stroke-width:1.5;" x="301.741077" xlink:href="#mbe83c35765" y="189.036378"/>
     <use style="fill:#0000ff;stroke:#0000ff;stroke-width:1.5;" x="294.030835" xlink:href="#mbe83c35765" y="251.658467"/>
     <use style="fill:#0000ff;stroke:#0000ff;stroke-width:1.5;" x="322.774374" xlink:href="#mbe83c35765" y="262.119595"/>
     <use style="fill:#0000ff;stroke:#0000ff;stroke-width:1.5;" x="318.106016" xlink:href="#mbe83c35765" y="352.415404"/>
     <use style="fill:#0000ff;stroke:#0000ff;stroke-width:1.5;" x="336.730024" xlink:href="#mbe83c35765" y="150.415823"/>
     <use style="fill:#0000ff;stroke:#0000ff;stroke-width:1.5;" x="285.430247" xlink:href="#mbe83c35765" y="278.257431"/>
     <use style="fill:#0000ff;stroke:#0000ff;stroke-width:1.5;" x="338.721547" xlink:href="#mbe83c35765" y="372.488814"/>
     <use style="fill:#0000ff;stroke:#0000ff;stroke-width:1.5;" x="290.055665" xlink:href="#mbe83c35765" y="275.51002"/>
     <use style="fill:#0000ff;stroke:#0000ff;stroke-width:1.5;" x="324.940012" xlink:href="#mbe83c35765" y="260.217866"/>
     <use style="fill:#0000ff;stroke:#0000ff;stroke-width:1.5;" x="271.941278" xlink:href="#mbe83c35765" y="289.53369"/>
     <use style="fill:#0000ff;stroke:#0000ff;stroke-width:1.5;" x="344.142511" xlink:href="#mbe83c35765" y="260.529186"/>
     <use style="fill:#0000ff;stroke:#0000ff;stroke-width:1.5;" x="323.484868" xlink:href="#mbe83c35765" y="452.179794"/>
     <use style="fill:#0000ff;stroke:#0000ff;stroke-width:1.5;" x="334.749892" xlink:href="#mbe83c35765" y="300.906723"/>
     <use style="fill:#0000ff;stroke:#0000ff;stroke-width:1.5;" x="320.649127" xlink:href="#mbe83c35765" y="261.77121"/>
     <use style="fill:#0000ff;stroke:#0000ff;stroke-width:1.5;" x="352.546159" xlink:href="#mbe83c35765" y="226.935967"/>
     <use style="fill:#0000ff;stroke:#0000ff;stroke-width:1.5;" x="312.960703" xlink:href="#mbe83c35765" y="355.680845"/>
     <use style="fill:#0000ff;stroke:#0000ff;stroke-width:1.5;" x="327.018761" xlink:href="#mbe83c35765" y="251.198176"/>
     <use style="fill:#0000ff;stroke:#0000ff;stroke-width:1.5;" x="300.166057" xlink:href="#mbe83c35765" y="284.911497"/>
     <use style="fill:#0000ff;stroke:#0000ff;stroke-width:1.5;" x="309.920255" xlink:href="#mbe83c35765" y="301.93055"/>
     <use style="fill:#0000ff;stroke:#0000ff;stroke-width:1.5;" x="330.372695" xlink:href="#mbe83c35765" y="252.215303"/>
     <use style="fill:#0000ff;stroke:#0000ff;stroke-width:1.5;" x="296.658567" xlink:href="#mbe83c35765" y="330.579171"/>
     <use style="fill:#0000ff;stroke:#0000ff;stroke-width:1.5;" x="327.053678" xlink:href="#mbe83c35765" y="287.801813"/>
     <use style="fill:#0000ff;stroke:#0000ff;stroke-width:1.5;" x="354.016705" xlink:href="#mbe83c35765" y="248.603135"/>
     <use style="fill:#0000ff;stroke:#0000ff;stroke-width:1.5;" x="281.704636" xlink:href="#mbe83c35765" y="260.567831"/>
     <use style="fill:#0000ff;stroke:#0000ff;stroke-width:1.5;" x="335.007766" xlink:href="#mbe83c35765" y="253.436084"/>
     <use style="fill:#0000ff;stroke:#0000ff;stroke-width:1.5;" x="310.853975" xlink:href="#mbe83c35765" y="329.083843"/>
     <use style="fill:#0000ff;stroke:#0000ff;stroke-width:1.5;" x="291.81142" xlink:href="#mbe83c35765" y="342.592554"/>
     <use style="fill:#0000ff;stroke:#0000ff;stroke-width:1.5;" x="317.968751" xlink:href="#mbe83c35765" y="270.814925"/>
     <use style="fill:#0000ff;stroke:#0000ff;stroke-width:1.5;" x="318.080995" xlink:href="#mbe83c35765" y="360.474215"/>
     <use style="fill:#0000ff;stroke:#0000ff;stroke-width:1.5;" x="309.790755" xlink:href="#mbe83c35765" y="239.311933"/>
     <use style="fill:#0000ff;stroke:#0000ff;stroke-width:1.5;" x="288.058617" xlink:href="#mbe83c35765" y="257.649146"/>
     <use style="fill:#0000ff;stroke:#0000ff;stroke-width:1.5;" x="309.544862" xlink:href="#mbe83c35765" y="279.470202"/>
     <use style="fill:#0000ff;stroke:#0000ff;stroke-width:1.5;" x="291.793893" xlink:href="#mbe83c35765" y="304.29384"/>
     <use style="fill:#0000ff;stroke:#0000ff;stroke-width:1.5;" x="320.224897" xlink:href="#mbe83c35765" y="289.86479"/>
     <use style="fill:#0000ff;stroke:#0000ff;stroke-width:1.5;" x="327.364343" xlink:href="#mbe83c35765" y="296.056933"/>
     <use style="fill:#0000ff;stroke:#0000ff;stroke-width:1.5;" x="340.65055" xlink:href="#mbe83c35765" y="263.491506"/>
     <use style="fill:#0000ff;stroke:#0000ff;stroke-width:1.5;" x="324.65383" xlink:href="#mbe83c35765" y="263.517757"/>
     <use style="fill:#0000ff;stroke:#0000ff;stroke-width:1.5;" x="309.83141" xlink:href="#mbe83c35765" y="288.330742"/>
     <use style="fill:#0000ff;stroke:#0000ff;stroke-width:1.5;" x="336.08335" xlink:href="#mbe83c35765" y="281.329113"/>
     <use style="fill:#0000ff;stroke:#0000ff;stroke-width:1.5;" x="314.475359" xlink:href="#mbe83c35765" y="280.296083"/>
     <use style="fill:#0000ff;stroke:#0000ff;stroke-width:1.5;" x="310.886603" xlink:href="#mbe83c35765" y="297.456606"/>
     <use style="fill:#0000ff;stroke:#0000ff;stroke-width:1.5;" x="308.96539" xlink:href="#mbe83c35765" y="213.488404"/>
     <use style="fill:#0000ff;stroke:#0000ff;stroke-width:1.5;" x="330.143322" xlink:href="#mbe83c35765" y="253.82064"/>
     <use style="fill:#0000ff;stroke:#0000ff;stroke-width:1.5;" x="279.723279" xlink:href="#mbe83c35765" y="283.073614"/>
     <use style="fill:#0000ff;stroke:#0000ff;stroke-width:1.5;" x="288.68803" xlink:href="#mbe83c35765" y="261.498481"/>
     <use style="fill:#0000ff;stroke:#0000ff;stroke-width:1.5;" x="300.281653" xlink:href="#mbe83c35765" y="330.498811"/>
     <use style="fill:#0000ff;stroke:#0000ff;stroke-width:1.5;" x="298.056954" xlink:href="#mbe83c35765" y="277.257952"/>
     <use style="fill:#0000ff;stroke:#0000ff;stroke-width:1.5;" x="268.245113" xlink:href="#mbe83c35765" y="274.824739"/>
     <use style="fill:#0000ff;stroke:#0000ff;stroke-width:1.5;" x="322.219349" xlink:href="#mbe83c35765" y="302.194629"/>
     <use style="fill:#0000ff;stroke:#0000ff;stroke-width:1.5;" x="275.426417" xlink:href="#mbe83c35765" y="243.399558"/>
     <use style="fill:#0000ff;stroke:#0000ff;stroke-width:1.5;" x="324.788032" xlink:href="#mbe83c35765" y="268.588946"/>
     <use style="fill:#0000ff;stroke:#0000ff;stroke-width:1.5;" x="346.140221" xlink:href="#mbe83c35765" y="272.824492"/>
     <use style="fill:#0000ff;stroke:#0000ff;stroke-width:1.5;" x="321.543314" xlink:href="#mbe83c35765" y="256.928275"/>
     <use style="fill:#0000ff;stroke:#0000ff;stroke-width:1.5;" x="327.101191" xlink:href="#mbe83c35765" y="279.897044"/>
     <use style="fill:#0000ff;stroke:#0000ff;stroke-width:1.5;" x="324.674578" xlink:href="#mbe83c35765" y="188.941831"/>
     <use style="fill:#0000ff;stroke:#0000ff;stroke-width:1.5;" x="310.580305" xlink:href="#mbe83c35765" y="215.33298"/>
     <use style="fill:#0000ff;stroke:#0000ff;stroke-width:1.5;" x="301.606152" xlink:href="#mbe83c35765" y="305.124894"/>
     <use style="fill:#0000ff;stroke:#0000ff;stroke-width:1.5;" x="281.812267" xlink:href="#mbe83c35765" y="279.615351"/>
     <use style="fill:#0000ff;stroke:#0000ff;stroke-width:1.5;" x="303.578883" xlink:href="#mbe83c35765" y="168.017811"/>
     <use style="fill:#0000ff;stroke:#0000ff;stroke-width:1.5;" x="302.242408" xlink:href="#mbe83c35765" y="268.701244"/>
     <use style="fill:#0000ff;stroke:#0000ff;stroke-width:1.5;" x="337.654904" xlink:href="#mbe83c35765" y="290.152726"/>
     <use style="fill:#0000ff;stroke:#0000ff;stroke-width:1.5;" x="303.807035" xlink:href="#mbe83c35765" y="300.917544"/>
     <use style="fill:#0000ff;stroke:#0000ff;stroke-width:1.5;" x="305.636164" xlink:href="#mbe83c35765" y="139.294659"/>
     <use style="fill:#0000ff;stroke:#0000ff;stroke-width:1.5;" x="336.224584" xlink:href="#mbe83c35765" y="272.531057"/>
     <use style="fill:#0000ff;stroke:#0000ff;stroke-width:1.5;" x="283.243376" xlink:href="#mbe83c35765" y="323.281993"/>
     <use style="fill:#0000ff;stroke:#0000ff;stroke-width:1.5;" x="282.344021" xlink:href="#mbe83c35765" y="338.54338"/>
     <use style="fill:#0000ff;stroke:#0000ff;stroke-width:1.5;" x="347.231383" xlink:href="#mbe83c35765" y="287.762685"/>
     <use style="fill:#0000ff;stroke:#0000ff;stroke-width:1.5;" x="304.450692" xlink:href="#mbe83c35765" y="277.592457"/>
     <use style="fill:#0000ff;stroke:#0000ff;stroke-width:1.5;" x="329.630247" xlink:href="#mbe83c35765" y="340.329871"/>
     <use style="fill:#0000ff;stroke:#0000ff;stroke-width:1.5;" x="328.281114" xlink:href="#mbe83c35765" y="244.596562"/>
     <use style="fill:#0000ff;stroke:#0000ff;stroke-width:1.5;" x="323.945147" xlink:href="#mbe83c35765" y="259.12884"/>
     <use style="fill:#0000ff;stroke:#0000ff;stroke-width:1.5;" x="327.456117" xlink:href="#mbe83c35765" y="371.994862"/>
     <use style="fill:#0000ff;stroke:#0000ff;stroke-width:1.5;" x="312.129112" xlink:href="#mbe83c35765" y="271.33777"/>
     <use style="fill:#0000ff;stroke:#0000ff;stroke-width:1.5;" x="308.504896" xlink:href="#mbe83c35765" y="265.210342"/>
     <use style="fill:#0000ff;stroke:#0000ff;stroke-width:1.5;" x="304.873286" xlink:href="#mbe83c35765" y="303.23713"/>
     <use style="fill:#0000ff;stroke:#0000ff;stroke-width:1.5;" x="289.792006" xlink:href="#mbe83c35765" y="208.416591"/>
     <use style="fill:#0000ff;stroke:#0000ff;stroke-width:1.5;" x="339.688687" xlink:href="#mbe83c35765" y="380.176352"/>
     <use style="fill:#0000ff;stroke:#0000ff;stroke-width:1.5;" x="301.177622" xlink:href="#mbe83c35765" y="156.676982"/>
     <use style="fill:#0000ff;stroke:#0000ff;stroke-width:1.5;" x="306.839503" xlink:href="#mbe83c35765" y="303.488662"/>
     <use style="fill:#0000ff;stroke:#0000ff;stroke-width:1.5;" x="300.437663" xlink:href="#mbe83c35765" y="243.299602"/>
     <use style="fill:#0000ff;stroke:#0000ff;stroke-width:1.5;" x="328.525266" xlink:href="#mbe83c35765" y="285.812597"/>
     <use style="fill:#0000ff;stroke:#0000ff;stroke-width:1.5;" x="313.241773" xlink:href="#mbe83c35765" y="222.238023"/>
     <use style="fill:#0000ff;stroke:#0000ff;stroke-width:1.5;" x="277.29351" xlink:href="#mbe83c35765" y="272.665523"/>
     <use style="fill:#0000ff;stroke:#0000ff;stroke-width:1.5;" x="325.278403" xlink:href="#mbe83c35765" y="278.815694"/>
     <use style="fill:#0000ff;stroke:#0000ff;stroke-width:1.5;" x="257.17166" xlink:href="#mbe83c35765" y="210.015813"/>
     <use style="fill:#0000ff;stroke:#0000ff;stroke-width:1.5;" x="458.718935" xlink:href="#mbe83c35765" y="184.247433"/>
     <use style="fill:#0000ff;stroke:#0000ff;stroke-width:1.5;" x="316.374952" xlink:href="#mbe83c35765" y="251.416267"/>
     <use style="fill:#0000ff;stroke:#0000ff;stroke-width:1.5;" x="284.617011" xlink:href="#mbe83c35765" y="326.992465"/>
     <use style="fill:#0000ff;stroke:#0000ff;stroke-width:1.5;" x="314.797866" xlink:href="#mbe83c35765" y="224.102058"/>
     <use style="fill:#0000ff;stroke:#0000ff;stroke-width:1.5;" x="343.334346" xlink:href="#mbe83c35765" y="96.794511"/>
     <use style="fill:#0000ff;stroke:#0000ff;stroke-width:1.5;" x="297.239862" xlink:href="#mbe83c35765" y="234.565259"/>
     <use style="fill:#0000ff;stroke:#0000ff;stroke-width:1.5;" x="307.916207" xlink:href="#mbe83c35765" y="319.231638"/>
     <use style="fill:#0000ff;stroke:#0000ff;stroke-width:1.5;" x="295.211719" xlink:href="#mbe83c35765" y="287.639488"/>
     <use style="fill:#0000ff;stroke:#0000ff;stroke-width:1.5;" x="287.542278" xlink:href="#mbe83c35765" y="250.189655"/>
     <use style="fill:#0000ff;stroke:#0000ff;stroke-width:1.5;" x="304.273799" xlink:href="#mbe83c35765" y="275.820583"/>
     <use style="fill:#0000ff;stroke:#0000ff;stroke-width:1.5;" x="309.631938" xlink:href="#mbe83c35765" y="311.359678"/>
     <use style="fill:#0000ff;stroke:#0000ff;stroke-width:1.5;" x="346.435255" xlink:href="#mbe83c35765" y="164.720421"/>
     <use style="fill:#0000ff;stroke:#0000ff;stroke-width:1.5;" x="298.215288" xlink:href="#mbe83c35765" y="262.866022"/>
     <use style="fill:#0000ff;stroke:#0000ff;stroke-width:1.5;" x="274.532727" xlink:href="#mbe83c35765" y="375.917753"/>
     <use style="fill:#0000ff;stroke:#0000ff;stroke-width:1.5;" x="308.956031" xlink:href="#mbe83c35765" y="265.327558"/>
     <use style="fill:#0000ff;stroke:#0000ff;stroke-width:1.5;" x="296.98502" xlink:href="#mbe83c35765" y="339.619182"/>
     <use style="fill:#0000ff;stroke:#0000ff;stroke-width:1.5;" x="304.828573" xlink:href="#mbe83c35765" y="247.316954"/>
     <use style="fill:#0000ff;stroke:#0000ff;stroke-width:1.5;" x="308.622605" xlink:href="#mbe83c35765" y="230.434728"/>
     <use style="fill:#0000ff;stroke:#0000ff;stroke-width:1.5;" x="282.30056" xlink:href="#mbe83c35765" y="250.140544"/>
     <use style="fill:#0000ff;stroke:#0000ff;stroke-width:1.5;" x="326.443285" xlink:href="#mbe83c35765" y="338.09599"/>
     <use style="fill:#0000ff;stroke:#0000ff;stroke-width:1.5;" x="333.840356" xlink:href="#mbe83c35765" y="291.678939"/>
     <use style="fill:#0000ff;stroke:#0000ff;stroke-width:1.5;" x="268.476248" xlink:href="#mbe83c35765" y="333.83207"/>
     <use style="fill:#0000ff;stroke:#0000ff;stroke-width:1.5;" x="279.762254" xlink:href="#mbe83c35765" y="286.732259"/>
     <use style="fill:#0000ff;stroke:#0000ff;stroke-width:1.5;" x="300.817247" xlink:href="#mbe83c35765" y="329.724678"/>
     <use style="fill:#0000ff;stroke:#0000ff;stroke-width:1.5;" x="332.214513" xlink:href="#mbe83c35765" y="194.681656"/>
     <use style="fill:#0000ff;stroke:#0000ff;stroke-width:1.5;" x="362.341241" xlink:href="#mbe83c35765" y="395.30247"/>
     <use style="fill:#0000ff;stroke:#0000ff;stroke-width:1.5;" x="321.113932" xlink:href="#mbe83c35765" y="301.372954"/>
     <use style="fill:#0000ff;stroke:#0000ff;stroke-width:1.5;" x="303.230921" xlink:href="#mbe83c35765" y="280.682635"/>
     <use style="fill:#0000ff;stroke:#0000ff;stroke-width:1.5;" x="303.210261" xlink:href="#mbe83c35765" y="281.605831"/>
     <use style="fill:#0000ff;stroke:#0000ff;stroke-width:1.5;" x="290.645513" xlink:href="#mbe83c35765" y="287.730365"/>
     <use style="fill:#0000ff;stroke:#0000ff;stroke-width:1.5;" x="267.651401" xlink:href="#mbe83c35765" y="292.093917"/>
     <use style="fill:#0000ff;stroke:#0000ff;stroke-width:1.5;" x="328.126712" xlink:href="#mbe83c35765" y="310.833834"/>
     <use style="fill:#0000ff;stroke:#0000ff;stroke-width:1.5;" x="341.532437" xlink:href="#mbe83c35765" y="283.172851"/>
     <use style="fill:#0000ff;stroke:#0000ff;stroke-width:1.5;" x="319.853936" xlink:href="#mbe83c35765" y="261.147888"/>
     <use style="fill:#0000ff;stroke:#0000ff;stroke-width:1.5;" x="298.458336" xlink:href="#mbe83c35765" y="383.014807"/>
     <use style="fill:#0000ff;stroke:#0000ff;stroke-width:1.5;" x="312.542399" xlink:href="#mbe83c35765" y="270.662109"/>
     <use style="fill:#0000ff;stroke:#0000ff;stroke-width:1.5;" x="262.918481" xlink:href="#mbe83c35765" y="241.300364"/>
     <use style="fill:#0000ff;stroke:#0000ff;stroke-width:1.5;" x="328.541031" xlink:href="#mbe83c35765" y="279.408585"/>
     <use style="fill:#0000ff;stroke:#0000ff;stroke-width:1.5;" x="300.620931" xlink:href="#mbe83c35765" y="327.324851"/>
     <use style="fill:#0000ff;stroke:#0000ff;stroke-width:1.5;" x="299.80721" xlink:href="#mbe83c35765" y="296.070043"/>
     <use style="fill:#0000ff;stroke:#0000ff;stroke-width:1.5;" x="336.127424" xlink:href="#mbe83c35765" y="348.356138"/>
     <use style="fill:#0000ff;stroke:#0000ff;stroke-width:1.5;" x="328.551223" xlink:href="#mbe83c35765" y="297.948431"/>
     <use style="fill:#0000ff;stroke:#0000ff;stroke-width:1.5;" x="299.743381" xlink:href="#mbe83c35765" y="404.024925"/>
     <use style="fill:#0000ff;stroke:#0000ff;stroke-width:1.5;" x="315.896671" xlink:href="#mbe83c35765" y="299.754801"/>
     <use style="fill:#0000ff;stroke:#0000ff;stroke-width:1.5;" x="325.295418" xlink:href="#mbe83c35765" y="280.923267"/>
     <use style="fill:#0000ff;stroke:#0000ff;stroke-width:1.5;" x="278.130651" xlink:href="#mbe83c35765" y="334.529185"/>
     <use style="fill:#0000ff;stroke:#0000ff;stroke-width:1.5;" x="305.005879" xlink:href="#mbe83c35765" y="291.088817"/>
     <use style="fill:#0000ff;stroke:#0000ff;stroke-width:1.5;" x="317.550422" xlink:href="#mbe83c35765" y="287.123291"/>
     <use style="fill:#0000ff;stroke:#0000ff;stroke-width:1.5;" x="323.849335" xlink:href="#mbe83c35765" y="290.804996"/>
     <use style="fill:#0000ff;stroke:#0000ff;stroke-width:1.5;" x="312.976494" xlink:href="#mbe83c35765" y="269.863146"/>
     <use style="fill:#0000ff;stroke:#0000ff;stroke-width:1.5;" x="359.408819" xlink:href="#mbe83c35765" y="364.514164"/>
     <use style="fill:#0000ff;stroke:#0000ff;stroke-width:1.5;" x="323.621148" xlink:href="#mbe83c35765" y="213.63037"/>
     <use style="fill:#0000ff;stroke:#0000ff;stroke-width:1.5;" x="299.18823" xlink:href="#mbe83c35765" y="181.342048"/>
     <use style="fill:#0000ff;stroke:#0000ff;stroke-width:1.5;" x="357.90406" xlink:href="#mbe83c35765" y="318.27274"/>
     <use style="fill:#0000ff;stroke:#0000ff;stroke-width:1.5;" x="320.736899" xlink:href="#mbe83c35765" y="312.166832"/>
     <use style="fill:#0000ff;stroke:#0000ff;stroke-width:1.5;" x="293.32414" xlink:href="#mbe83c35765" y="371.389698"/>
     <use style="fill:#0000ff;stroke:#0000ff;stroke-width:1.5;" x="322.339614" xlink:href="#mbe83c35765" y="263.248223"/>
     <use style="fill:#0000ff;stroke:#0000ff;stroke-width:1.5;" x="276.961234" xlink:href="#mbe83c35765" y="281.793232"/>
     <use style="fill:#0000ff;stroke:#0000ff;stroke-width:1.5;" x="312.668433" xlink:href="#mbe83c35765" y="315.976317"/>
     <use style="fill:#0000ff;stroke:#0000ff;stroke-width:1.5;" x="268.720972" xlink:href="#mbe83c35765" y="348.494452"/>
     <use style="fill:#0000ff;stroke:#0000ff;stroke-width:1.5;" x="326.930628" xlink:href="#mbe83c35765" y="210.707608"/>
     <use style="fill:#0000ff;stroke:#0000ff;stroke-width:1.5;" x="310.755867" xlink:href="#mbe83c35765" y="269.245873"/>
     <use style="fill:#0000ff;stroke:#0000ff;stroke-width:1.5;" x="339.979976" xlink:href="#mbe83c35765" y="213.171269"/>
     <use style="fill:#0000ff;stroke:#0000ff;stroke-width:1.5;" x="292.996483" xlink:href="#mbe83c35765" y="183.307455"/>
     <use style="fill:#0000ff;stroke:#0000ff;stroke-width:1.5;" x="331.855923" xlink:href="#mbe83c35765" y="277.464608"/>
     <use style="fill:#0000ff;stroke:#0000ff;stroke-width:1.5;" x="312.628227" xlink:href="#mbe83c35765" y="234.563941"/>
     <use style="fill:#0000ff;stroke:#0000ff;stroke-width:1.5;" x="289.088527" xlink:href="#mbe83c35765" y="225.362468"/>
     <use style="fill:#0000ff;stroke:#0000ff;stroke-width:1.5;" x="329.732739" xlink:href="#mbe83c35765" y="387.547489"/>
    </g>
   </g>
   <g id="PathCollection_2">
    <defs>
     <path d="M 0 3 
C 0.795609 3 1.55874 2.683901 2.12132 2.12132 
C 2.683901 1.55874 3 0.795609 3 0 
C 3 -0.795609 2.683901 -1.55874 2.12132 -2.12132 
C 1.55874 -2.683901 0.795609 -3 0 -3 
C -0.795609 -3 -1.55874 -2.683901 -2.12132 -2.12132 
C -2.683901 -1.55874 -3 -0.795609 -3 0 
C -3 0.795609 -2.683901 1.55874 -2.12132 2.12132 
C -1.55874 2.683901 -0.795609 3 0 3 
z
" id="mc779c20c42" style="stroke:#ff0000;"/>
    </defs>
    <g clip-path="url(#pd78b1adc99)">
     <use style="fill:#ff0000;stroke:#ff0000;" x="308.171125" xlink:href="#mc779c20c42" y="277.79285"/>
    </g>
   </g>
   <g id="patch_3">
    <path clip-path="url(#pd78b1adc99)" d="M 308.171125 395.288425 
C 339.511352 395.288425 369.572184 382.90835 391.733071 360.874768 
C 413.893958 338.841186 426.345563 308.953041 426.345563 277.79285 
C 426.345563 246.632659 413.893958 216.744514 391.733071 194.710932 
C 369.572184 172.67735 339.511352 160.297275 308.171125 160.297275 
C 276.830898 160.297275 246.770066 172.67735 224.609179 194.710932 
C 202.448292 216.744514 189.996688 246.632659 189.996688 277.79285 
C 189.996688 308.953041 202.448292 338.841186 224.609179 360.874768 
C 246.770066 382.90835 276.830898 395.288425 308.171125 395.288425 
z
" style="fill:none;stroke:#ff0000;stroke-linejoin:miter;"/>
   </g>
   <g id="matplotlib.axis_1">
    <g id="xtick_1">
     <g id="line2d_1">
      <path clip-path="url(#pd78b1adc99)" d="M 71.82225 512.784 
L 71.82225 42.8017 
" style="fill:none;stroke:#b0b0b0;stroke-linecap:square;stroke-width:0.8;"/>
     </g>
     <g id="line2d_2">
      <defs>
       <path d="M 0 0 
L 0 3.5 
" id="m2d5a599ce8" style="stroke:#000000;stroke-width:0.8;"/>
      </defs>
      <g>
       <use style="stroke:#000000;stroke-width:0.8;" x="71.82225" xlink:href="#m2d5a599ce8" y="512.784"/>
      </g>
     </g>
     <g id="text_1">
      <!-- −15 -->
      <defs>
       <path d="M 3 22 
L 3 28.59375 
L 53.40625 28.59375 
L 53.40625 22 
z
" id="FreeSerif-8722"/>
       <path d="M 18.296875 59.296875 
Q 16.5 59.296875 11.09375 57.09375 
L 11.09375 58.5 
L 29.09375 67.59375 
L 29.90625 67.40625 
L 29.90625 7.40625 
Q 29.90625 3.796875 31.703125 2.6875 
Q 33.5 1.59375 39.40625 1.5 
L 39.40625 0 
L 11.796875 0 
L 11.796875 1.5 
Q 17.40625 1.703125 19.34375 3.140625 
Q 21.296875 4.59375 21.296875 9.296875 
L 21.296875 54.59375 
Q 21.296875 59.296875 18.296875 59.296875 
z
" id="FreeSerif-49"/>
       <path d="M 35.703125 19.40625 
Q 35.703125 24.703125 33.34375 28.796875 
Q 31 32.90625 27.640625 35.15625 
Q 24.296875 37.40625 20.140625 38.84375 
Q 16 40.296875 12.953125 40.75 
Q 9.90625 41.203125 7.59375 41.203125 
Q 6.40625 41.203125 6.40625 42 
Q 6.40625 42.296875 6.5 42.5 
L 17.40625 66.203125 
L 38.296875 66.203125 
Q 39.90625 66.203125 40.84375 66.703125 
Q 41.796875 67.203125 42.90625 68.796875 
L 43.796875 68.09375 
L 40 59.203125 
Q 39.59375 58.296875 37.703125 58.296875 
L 18.09375 58.296875 
L 13.90625 49.796875 
Q 28.5 47.203125 35.59375 41.34375 
Q 42.703125 35.5 42.703125 24.203125 
Q 42.703125 18.296875 40.84375 13.6875 
Q 39 9.09375 36.140625 6.296875 
Q 33.296875 3.5 29.546875 1.703125 
Q 25.796875 -0.09375 22.34375 -0.75 
Q 18.90625 -1.40625 15.40625 -1.40625 
Q 9.796875 -1.40625 6.5 0.25 
Q 3.203125 1.90625 3.203125 4.796875 
Q 3.203125 8.5 7.5 8.5 
Q 10.296875 8.5 14.75 5.390625 
Q 19.203125 2.296875 21.796875 2.296875 
Q 27.703125 2.296875 31.703125 7.25 
Q 35.703125 12.203125 35.703125 19.40625 
z
" id="FreeSerif-53"/>
      </defs>
      <g transform="translate(57.745688 532.077437)scale(0.18 -0.18)">
       <use xlink:href="#FreeSerif-8722"/>
       <use x="56.399994" xlink:href="#FreeSerif-49"/>
       <use x="106.399979" xlink:href="#FreeSerif-53"/>
      </g>
     </g>
    </g>
    <g id="xtick_2">
     <g id="line2d_3">
      <path clip-path="url(#pd78b1adc99)" d="M 150.605208 512.784 
L 150.605208 42.8017 
" style="fill:none;stroke:#b0b0b0;stroke-linecap:square;stroke-width:0.8;"/>
     </g>
     <g id="line2d_4">
      <g>
       <use style="stroke:#000000;stroke-width:0.8;" x="150.605208" xlink:href="#m2d5a599ce8" y="512.784"/>
      </g>
     </g>
     <g id="text_2">
      <!-- −10 -->
      <defs>
       <path d="M 47.59375 17.796875 
Q 35.203125 -1.40625 25 -1.40625 
Q 14.796875 -1.40625 8.59375 8.390625 
Q 2.40625 18.203125 2.40625 33.59375 
Q 2.40625 48.09375 8.59375 57.84375 
Q 14.796875 67.59375 25.40625 67.59375 
Q 35.203125 67.59375 41.390625 58 
Q 47.59375 48.40625 47.59375 33 
Q 47.59375 17.796875 35.203125 -1.40625 
z
M 25.09375 65 
Q 12 65 12 32.703125 
Q 12 1.203125 25 1.203125 
Q 38 1.203125 38 32.796875 
Q 38 48.5 34.703125 56.75 
Q 31.40625 65 25.09375 65 
z
" id="FreeSerif-48"/>
      </defs>
      <g transform="translate(136.528646 532.077437)scale(0.18 -0.18)">
       <use xlink:href="#FreeSerif-8722"/>
       <use x="56.399994" xlink:href="#FreeSerif-49"/>
       <use x="106.399979" xlink:href="#FreeSerif-48"/>
      </g>
     </g>
    </g>
    <g id="xtick_3">
     <g id="line2d_5">
      <path clip-path="url(#pd78b1adc99)" d="M 229.388167 512.784 
L 229.388167 42.8017 
" style="fill:none;stroke:#b0b0b0;stroke-linecap:square;stroke-width:0.8;"/>
     </g>
     <g id="line2d_6">
      <g>
       <use style="stroke:#000000;stroke-width:0.8;" x="229.388167" xlink:href="#m2d5a599ce8" y="512.784"/>
      </g>
     </g>
     <g id="text_3">
      <!-- −5 -->
      <g transform="translate(219.811604 532.077437)scale(0.18 -0.18)">
       <use xlink:href="#FreeSerif-8722"/>
       <use x="56.399994" xlink:href="#FreeSerif-53"/>
      </g>
     </g>
    </g>
    <g id="xtick_4">
     <g id="line2d_7">
      <path clip-path="url(#pd78b1adc99)" d="M 308.171125 512.784 
L 308.171125 42.8017 
" style="fill:none;stroke:#b0b0b0;stroke-linecap:square;stroke-width:0.8;"/>
     </g>
     <g id="line2d_8">
      <g>
       <use style="stroke:#000000;stroke-width:0.8;" x="308.171125" xlink:href="#m2d5a599ce8" y="512.784"/>
      </g>
     </g>
     <g id="text_4">
      <!-- 0 -->
      <g transform="translate(303.671125 532.077437)scale(0.18 -0.18)">
       <use xlink:href="#FreeSerif-48"/>
      </g>
     </g>
    </g>
    <g id="xtick_5">
     <g id="line2d_9">
      <path clip-path="url(#pd78b1adc99)" d="M 386.954083 512.784 
L 386.954083 42.8017 
" style="fill:none;stroke:#b0b0b0;stroke-linecap:square;stroke-width:0.8;"/>
     </g>
     <g id="line2d_10">
      <g>
       <use style="stroke:#000000;stroke-width:0.8;" x="386.954083" xlink:href="#m2d5a599ce8" y="512.784"/>
      </g>
     </g>
     <g id="text_5">
      <!-- 5 -->
      <g transform="translate(382.454083 532.077437)scale(0.18 -0.18)">
       <use xlink:href="#FreeSerif-53"/>
      </g>
     </g>
    </g>
    <g id="xtick_6">
     <g id="line2d_11">
      <path clip-path="url(#pd78b1adc99)" d="M 465.737042 512.784 
L 465.737042 42.8017 
" style="fill:none;stroke:#b0b0b0;stroke-linecap:square;stroke-width:0.8;"/>
     </g>
     <g id="line2d_12">
      <g>
       <use style="stroke:#000000;stroke-width:0.8;" x="465.737042" xlink:href="#m2d5a599ce8" y="512.784"/>
      </g>
     </g>
     <g id="text_6">
      <!-- 10 -->
      <g transform="translate(456.737042 532.077437)scale(0.18 -0.18)">
       <use xlink:href="#FreeSerif-49"/>
       <use x="49.999985" xlink:href="#FreeSerif-48"/>
      </g>
     </g>
    </g>
    <g id="xtick_7">
     <g id="line2d_13">
      <path clip-path="url(#pd78b1adc99)" d="M 544.52 512.784 
L 544.52 42.8017 
" style="fill:none;stroke:#b0b0b0;stroke-linecap:square;stroke-width:0.8;"/>
     </g>
     <g id="line2d_14">
      <g>
       <use style="stroke:#000000;stroke-width:0.8;" x="544.52" xlink:href="#m2d5a599ce8" y="512.784"/>
      </g>
     </g>
     <g id="text_7">
      <!-- 15 -->
      <g transform="translate(535.52 532.077437)scale(0.18 -0.18)">
       <use xlink:href="#FreeSerif-49"/>
       <use x="49.999985" xlink:href="#FreeSerif-53"/>
      </g>
     </g>
    </g>
    <g id="text_8">
     <!-- X coordinate error (cm) -->
     <defs>
      <path d="M 69.59375 66.203125 
L 69.59375 64.296875 
Q 64.703125 64 62.046875 62.34375 
Q 59.40625 60.703125 54.703125 54.90625 
L 40.09375 36.703125 
L 59.296875 9.296875 
Q 62.296875 5 64.296875 3.703125 
Q 66.296875 2.40625 70.40625 1.90625 
L 70.40625 0 
L 40.703125 0 
L 40.703125 1.90625 
Q 44.796875 2.296875 46.59375 2.9375 
Q 48.40625 3.59375 48.40625 5 
Q 48.40625 7.203125 43.296875 14.796875 
L 33.796875 28.796875 
L 21.90625 14 
Q 16.703125 7.5 16.703125 5.40625 
Q 16.703125 3.703125 18.296875 2.953125 
Q 19.90625 2.203125 24.296875 1.90625 
L 24.296875 0 
L 1 0 
L 1 1.90625 
Q 4.90625 2.203125 7 3.796875 
Q 9.09375 5.40625 15.5 13.296875 
L 31.203125 32.59375 
L 20.296875 48.59375 
Q 13.296875 58.90625 10.25 61.5 
Q 7.203125 64.09375 2.203125 64.296875 
L 2.203125 66.203125 
L 32.40625 66.203125 
L 32.40625 64.296875 
L 29.59375 64.203125 
Q 24.796875 64.09375 24.796875 61.296875 
Q 24.796875 58.09375 33.296875 46.296875 
L 37.5 40.40625 
L 48.796875 54.203125 
Q 52.796875 59.203125 52.796875 61.09375 
Q 52.796875 62.796875 51.34375 63.4375 
Q 49.90625 64.09375 45.796875 64.296875 
L 45.796875 66.203125 
z
" id="FreeSerif-88"/>
      <path id="FreeSerif-32"/>
      <path d="M 2.5 21.296875 
Q 2.5 32.40625 9.046875 39.203125 
Q 15.59375 46 24.40625 46 
Q 30.703125 46 35.25 42.953125 
Q 39.796875 39.90625 39.796875 35.703125 
Q 39.796875 34 38.390625 32.75 
Q 37 31.5 35 31.5 
Q 31.59375 31.5 30.296875 36.09375 
L 29.703125 38.296875 
Q 28.90625 41.09375 27.703125 42.09375 
Q 26.5 43.09375 23.796875 43.09375 
Q 17.703125 43.09375 13.953125 38.25 
Q 10.203125 33.40625 10.203125 25.703125 
Q 10.203125 17.09375 14.546875 11.640625 
Q 18.90625 6.203125 25.703125 6.203125 
Q 30 6.203125 33.09375 8.25 
Q 36.203125 10.296875 39.796875 15.59375 
L 41.203125 14.703125 
Q 40.203125 12.703125 39.453125 11.390625 
Q 38.703125 10.09375 36.75 7.5 
Q 34.796875 4.90625 32.890625 3.296875 
Q 31 1.703125 27.890625 0.34375 
Q 24.796875 -1 21.5 -1 
Q 13.203125 -1 7.84375 5.25 
Q 2.5 11.5 2.5 21.296875 
z
" id="FreeSerif-99"/>
      <path d="M 24.59375 46 
Q 34.203125 46 40.390625 39.59375 
Q 46.59375 33.203125 46.59375 23.40625 
Q 46.59375 13 40.1875 6 
Q 33.796875 -1 24.390625 -1 
Q 15 -1 8.75 5.75 
Q 2.5 12.5 2.5 22.59375 
Q 2.5 32.90625 8.640625 39.453125 
Q 14.796875 46 24.59375 46 
z
M 11.5 27.5 
Q 11.5 16.796875 15.390625 9.296875 
Q 19.296875 1.796875 25.59375 1.796875 
Q 31.203125 1.796875 34.390625 6.59375 
Q 37.59375 11.40625 37.59375 19.90625 
Q 37.59375 30.203125 33.59375 36.703125 
Q 29.59375 43.203125 23.296875 43.203125 
Q 18 43.203125 14.75 38.890625 
Q 11.5 34.59375 11.5 27.5 
z
" id="FreeSerif-111"/>
      <path d="M 30.09375 36.203125 
Q 28.59375 36.203125 26.390625 37.953125 
Q 24.203125 39.703125 23.5 39.703125 
Q 21.5 39.703125 19 36.796875 
Q 16.5 33.90625 16.5 31.5 
L 16.5 9 
Q 16.5 4.703125 18.203125 3.203125 
Q 19.90625 1.703125 25 1.5 
L 25 0 
L 1 0 
L 1 1.5 
Q 5.796875 2.40625 6.9375 3.5 
Q 8.09375 4.59375 8.09375 8.40625 
L 8.09375 33.40625 
Q 8.09375 36.703125 7.34375 38.046875 
Q 6.59375 39.40625 4.703125 39.40625 
Q 3.09375 39.40625 1.203125 39 
L 1.203125 40.59375 
Q 9.203125 43.203125 16 46 
L 16.5 45.796875 
L 16.5 36.59375 
Q 20.203125 41.90625 22.796875 43.953125 
Q 25.40625 46 28.5 46 
Q 31.09375 46 32.546875 44.59375 
Q 34 43.203125 34 40.703125 
Q 34 38.59375 32.953125 37.390625 
Q 31.90625 36.203125 30.09375 36.203125 
z
" id="FreeSerif-114"/>
      <path d="M 34.203125 -1 
L 33.796875 -0.703125 
L 33.796875 5.703125 
Q 29 -1 21 -1 
Q 12.703125 -1 7.59375 4.953125 
Q 2.5 10.90625 2.5 20.5 
Q 2.5 31.09375 8.59375 38.546875 
Q 14.703125 46 23.296875 46 
Q 28.703125 46 33.796875 41.703125 
L 33.796875 57.296875 
Q 33.796875 60.40625 32.890625 61.40625 
Q 32 62.40625 29.203125 62.40625 
Q 27.796875 62.40625 27 62.296875 
L 27 63.90625 
Q 36.09375 66.296875 41.703125 68.296875 
L 42.203125 68.09375 
L 42.203125 11.40625 
Q 42.203125 7.90625 43.046875 6.796875 
Q 43.90625 5.703125 46.59375 5.703125 
Q 47.09375 5.703125 48.90625 5.796875 
L 48.90625 4.203125 
z
M 24.90625 4.203125 
Q 28.703125 4.203125 31.25 6.34375 
Q 33.796875 8.5 33.796875 10.203125 
L 33.796875 33.203125 
Q 33.796875 37.203125 30.6875 40.203125 
Q 27.59375 43.203125 23.59375 43.203125 
Q 17.90625 43.203125 14.5 38.09375 
Q 11.09375 33 11.09375 24.5 
Q 11.09375 15.296875 14.890625 9.75 
Q 18.703125 4.203125 24.90625 4.203125 
z
" id="FreeSerif-100"/>
      <path d="M 6.203125 39.296875 
Q 4 39.296875 2 39 
L 2 40.5 
Q 9 42.5 17.5 46 
L 17.90625 45.703125 
L 17.90625 10.203125 
Q 17.90625 4.796875 19.15625 3.34375 
Q 20.40625 1.90625 25.296875 1.5 
L 25.296875 0 
L 1.59375 0 
L 1.59375 1.5 
Q 6.796875 1.796875 8.140625 3.296875 
Q 9.5 4.796875 9.5 10.203125 
L 9.5 33.40625 
Q 9.5 36.703125 8.75 38 
Q 8 39.296875 6.203125 39.296875 
z
M 12.796875 68.296875 
Q 15 68.296875 16.5 66.796875 
Q 18 65.296875 18 63.203125 
Q 18 61 16.5 59.546875 
Q 15 58.09375 12.796875 58.09375 
Q 10.703125 58.09375 9.25 59.59375 
Q 7.796875 61.09375 7.796875 63.1875 
Q 7.796875 65.296875 9.296875 66.796875 
Q 10.796875 68.296875 12.796875 68.296875 
z
" id="FreeSerif-105"/>
      <path d="M 1 39.796875 
L 1 41.5 
Q 8.40625 43.703125 14.796875 46 
L 15.5 45.796875 
L 15.5 37.90625 
Q 20.59375 42.703125 23.546875 44.34375 
Q 26.5 46 30 46 
Q 35.5 46 38.640625 42.046875 
Q 41.796875 38.09375 41.796875 31 
L 41.796875 8.09375 
Q 41.796875 4.40625 43 3.15625 
Q 44.203125 1.90625 47.90625 1.5 
L 47.90625 0 
L 27.09375 0 
L 27.09375 1.5 
Q 30.90625 1.796875 32.15625 3.5 
Q 33.40625 5.203125 33.40625 9.90625 
L 33.40625 30.796875 
Q 33.40625 40.5 26.09375 40.5 
Q 23.59375 40.5 21.5 39.34375 
Q 19.40625 38.203125 15.796875 34.796875 
L 15.796875 6.703125 
Q 15.796875 4 17.1875 2.890625 
Q 18.59375 1.796875 22.40625 1.5 
L 22.40625 0 
L 1.203125 0 
L 1.203125 1.5 
Q 5 1.796875 6.203125 3.25 
Q 7.40625 4.703125 7.40625 9 
L 7.40625 33.796875 
Q 7.40625 37.5 6.59375 38.84375 
Q 5.796875 40.203125 3.703125 40.203125 
Q 1.796875 40.203125 1 39.796875 
z
" id="FreeSerif-110"/>
      <path d="M 2.5 9.703125 
Q 2.5 11.5 2.890625 13.046875 
Q 3.296875 14.59375 4.296875 15.9375 
Q 5.296875 17.296875 6.1875 18.390625 
Q 7.09375 19.5 8.890625 20.640625 
Q 10.703125 21.796875 11.890625 22.546875 
Q 13.09375 23.296875 15.546875 24.34375 
Q 18 25.40625 19.296875 25.953125 
Q 20.59375 26.5 23.390625 27.59375 
Q 26.203125 28.703125 27.5 29.203125 
L 27.5 35.296875 
Q 27.5 43.59375 19.90625 43.59375 
Q 16.90625 43.59375 14.796875 42.140625 
Q 12.703125 40.703125 12.703125 38.703125 
Q 12.703125 37.90625 12.953125 36.5 
Q 13.203125 35.09375 13.203125 34.703125 
Q 13.203125 33 11.84375 31.75 
Q 10.5 30.5 8.703125 30.5 
Q 7 30.5 5.703125 31.796875 
Q 4.40625 33.09375 4.40625 34.796875 
Q 4.40625 39.5 9.25 42.75 
Q 14.09375 46 21.203125 46 
Q 29.40625 46 32.5 42.046875 
Q 35.59375 38.09375 35.59375 30 
L 35.59375 10.5 
Q 35.59375 7.203125 36.25 5.953125 
Q 36.90625 4.703125 38.59375 4.703125 
Q 40.703125 4.703125 43 6.59375 
L 43 4 
Q 40.40625 1.09375 38.453125 0.046875 
Q 36.5 -1 34 -1 
Q 30.90625 -1 29.453125 0.703125 
Q 28 2.40625 27.59375 6.296875 
Q 19 -1 13 -1 
Q 8.40625 -1 5.453125 2 
Q 2.5 5 2.5 9.703125 
z
M 27.5 12.296875 
L 27.5 26.796875 
Q 18.5 23.5 14.890625 20.390625 
Q 11.296875 17.296875 11.296875 12.90625 
Q 11.296875 8.796875 13.296875 6.796875 
Q 15.296875 4.796875 17.59375 4.796875 
Q 21 4.796875 24.90625 7.09375 
Q 26.5 8 27 9 
Q 27.5 10 27.5 12.296875 
z
" id="FreeSerif-97"/>
      <path d="M 25.90625 45 
L 25.90625 41.796875 
L 15.796875 41.796875 
L 15.796875 13.203125 
Q 15.796875 8.5 17 6.34375 
Q 18.203125 4.203125 21 4.203125 
Q 24.09375 4.203125 27 7.703125 
L 28.296875 6.59375 
Q 23.5 -1 16.296875 -1 
Q 7.40625 -1 7.40625 11.703125 
L 7.40625 41.796875 
L 2.09375 41.796875 
Q 1.703125 42.09375 1.703125 42.5 
Q 1.703125 43 2 43.296875 
Q 2.296875 43.59375 3.140625 44.140625 
Q 4 44.703125 5.203125 45.640625 
Q 6.40625 46.59375 8.5 49.09375 
Q 10.59375 51.59375 13.09375 55.09375 
Q 14.703125 57.40625 15.09375 57.90625 
Q 15.796875 57.90625 15.796875 56.59375 
L 15.796875 45 
z
" id="FreeSerif-116"/>
      <path d="M 9.703125 27.703125 
Q 9.90625 21.40625 11.40625 16.84375 
Q 12.90625 12.296875 15.296875 10.046875 
Q 17.703125 7.796875 20.140625 6.84375 
Q 22.59375 5.90625 25.296875 5.90625 
Q 30.09375 5.90625 33.640625 8.296875 
Q 37.203125 10.703125 40.796875 16.40625 
L 42.40625 15.703125 
Q 39.296875 7.59375 33.796875 3.296875 
Q 28.296875 -1 21.203125 -1 
Q 12.59375 -1 7.546875 5.046875 
Q 2.5 11.09375 2.5 21.40625 
Q 2.5 32.5 8.34375 39.25 
Q 14.203125 46 23.40625 46 
Q 31 46 35.203125 41.453125 
Q 39.40625 36.90625 40.5 27.703125 
z
M 9.90625 30.90625 
L 30.296875 30.90625 
Q 29.296875 37.40625 27.1875 39.90625 
Q 25.09375 42.40625 20.5 42.40625 
Q 11.5 42.40625 9.90625 30.90625 
z
" id="FreeSerif-101"/>
      <path d="M 29.203125 -17.703125 
Q 26.59375 -16.09375 23.796875 -13.84375 
Q 21 -11.59375 17.453125 -7.59375 
Q 13.90625 -3.59375 11.203125 0.953125 
Q 8.5 5.5 6.640625 11.890625 
Q 4.796875 18.296875 4.796875 25.203125 
Q 4.796875 32.40625 6.640625 38.84375 
Q 8.5 45.296875 11 49.546875 
Q 13.5 53.796875 17.34375 57.75 
Q 21.203125 61.703125 23.703125 63.59375 
Q 26.203125 65.5 29.5 67.59375 
L 30.40625 66 
Q 26 62.40625 23.296875 59.5 
Q 20.59375 56.59375 18.09375 51.9375 
Q 15.59375 47.296875 14.5 40.84375 
Q 13.40625 34.40625 13.40625 25.5 
Q 13.40625 16.203125 14.5 9.5 
Q 15.59375 2.796875 18.09375 -1.953125 
Q 20.59375 -6.703125 23.296875 -9.703125 
Q 26 -12.703125 30.40625 -16.09375 
z
" id="FreeSerif-40"/>
      <path d="M 1.296875 39.796875 
L 1.296875 41.5 
Q 8.5 43.5 15.296875 46 
L 16 45.796875 
L 16 38.296875 
Q 22.203125 43 25.203125 44.5 
Q 28.203125 46 31.5 46 
Q 39.40625 46 42.09375 37.59375 
Q 49.90625 46 58.40625 46 
Q 70 46 70 28.203125 
L 70 7.59375 
Q 70 2 74.296875 1.703125 
L 76.90625 1.5 
L 76.90625 0 
L 55 0 
L 55 1.5 
Q 59.40625 2 60.5 3.203125 
Q 61.59375 4.40625 61.59375 8.703125 
L 61.59375 29.796875 
Q 61.59375 36 60 38.390625 
Q 58.40625 40.796875 54.09375 40.796875 
Q 47.5 40.796875 43.203125 34.703125 
L 43.203125 9.5 
Q 43.203125 4.796875 44.640625 3.1875 
Q 46.09375 1.59375 50.40625 1.5 
L 50.40625 0 
L 28 0 
L 28 1.5 
Q 32.296875 1.796875 33.546875 3.09375 
Q 34.796875 4.40625 34.796875 8.59375 
L 34.796875 30.296875 
Q 34.796875 40.796875 28.203125 40.796875 
Q 25.40625 40.796875 21.953125 39.390625 
Q 18.5 38 16.40625 34.90625 
L 16.40625 6.703125 
Q 16.40625 3.796875 17.796875 2.75 
Q 19.203125 1.703125 23.203125 1.5 
L 23.203125 0 
L 1 0 
L 1 1.5 
Q 5.203125 1.59375 6.59375 3 
Q 8 4.40625 8 8.5 
L 8 33.796875 
Q 8 37.40625 7.25 38.796875 
Q 6.5 40.203125 4.5 40.203125 
Q 3 40.203125 1.296875 39.796875 
z
" id="FreeSerif-109"/>
      <path d="M 4.046875 67.703125 
Q 6.65625 66.09375 9.453125 63.84375 
Q 12.25 61.59375 15.796875 57.59375 
Q 19.34375 53.59375 22.046875 49.046875 
Q 24.75 44.5 26.59375 38.09375 
Q 28.453125 31.703125 28.453125 24.796875 
Q 28.453125 17.59375 26.59375 11.140625 
Q 24.75 4.703125 22.25 0.453125 
Q 19.75 -3.796875 15.890625 -7.75 
Q 12.046875 -11.703125 9.546875 -13.59375 
Q 7.046875 -15.5 3.75 -17.59375 
L 2.84375 -16 
Q 7.25 -12.40625 9.953125 -9.5 
Q 12.65625 -6.59375 15.15625 -1.9375 
Q 17.65625 2.703125 18.75 9.140625 
Q 19.84375 15.59375 19.84375 24.5 
Q 19.84375 33.796875 18.75 40.5 
Q 17.65625 47.203125 15.15625 51.953125 
Q 12.65625 56.703125 9.953125 59.703125 
Q 7.25 62.703125 2.84375 66.09375 
z
" id="FreeSerif-41"/>
     </defs>
     <g transform="translate(193.92175 556.37525)scale(0.24 -0.24)">
      <use xlink:href="#FreeSerif-88"/>
      <use x="71.399994" xlink:href="#FreeSerif-32"/>
      <use x="96.399979" xlink:href="#FreeSerif-99"/>
      <use x="140.784348" xlink:href="#FreeSerif-111"/>
      <use x="189.884338" xlink:href="#FreeSerif-111"/>
      <use x="238.968704" xlink:href="#FreeSerif-114"/>
      <use x="273.453064" xlink:href="#FreeSerif-100"/>
      <use x="323.353058" xlink:href="#FreeSerif-105"/>
      <use x="351.137421" xlink:href="#FreeSerif-110"/>
      <use x="400.037415" xlink:href="#FreeSerif-97"/>
      <use x="443.521774" xlink:href="#FreeSerif-116"/>
      <use x="471.821762" xlink:href="#FreeSerif-101"/>
      <use x="516.221756" xlink:href="#FreeSerif-32"/>
      <use x="541.221741" xlink:href="#FreeSerif-101"/>
      <use x="585.60611" xlink:href="#FreeSerif-114"/>
      <use x="620.106094" xlink:href="#FreeSerif-114"/>
      <use x="654.590454" xlink:href="#FreeSerif-111"/>
      <use x="703.67482" xlink:href="#FreeSerif-114"/>
      <use x="738.174805" xlink:href="#FreeSerif-32"/>
      <use x="763.174789" xlink:href="#FreeSerif-40"/>
      <use x="796.474777" xlink:href="#FreeSerif-99"/>
      <use x="840.859146" xlink:href="#FreeSerif-109"/>
      <use x="918.75914" xlink:href="#FreeSerif-41"/>
     </g>
    </g>
   </g>
   <g id="matplotlib.axis_2">
    <g id="ytick_1">
     <g id="line2d_15">
      <path clip-path="url(#pd78b1adc99)" d="M 71.82225 512.784 
L 544.52 512.784 
" style="fill:none;stroke:#b0b0b0;stroke-linecap:square;stroke-width:0.8;"/>
     </g>
     <g id="line2d_16">
      <defs>
       <path d="M 0 0 
L -3.5 0 
" id="m6c0118bb83" style="stroke:#000000;stroke-width:0.8;"/>
      </defs>
      <g>
       <use style="stroke:#000000;stroke-width:0.8;" x="71.82225" xlink:href="#m6c0118bb83" y="512.784"/>
      </g>
     </g>
     <g id="text_9">
      <!-- −15 -->
      <g transform="translate(36.669125 518.930719)scale(0.18 -0.18)">
       <use xlink:href="#FreeSerif-8722"/>
       <use x="56.399994" xlink:href="#FreeSerif-49"/>
       <use x="106.399979" xlink:href="#FreeSerif-53"/>
      </g>
     </g>
    </g>
    <g id="ytick_2">
     <g id="line2d_17">
      <path clip-path="url(#pd78b1adc99)" d="M 71.82225 434.453617 
L 544.52 434.453617 
" style="fill:none;stroke:#b0b0b0;stroke-linecap:square;stroke-width:0.8;"/>
     </g>
     <g id="line2d_18">
      <g>
       <use style="stroke:#000000;stroke-width:0.8;" x="71.82225" xlink:href="#m6c0118bb83" y="434.453617"/>
      </g>
     </g>
     <g id="text_10">
      <!-- −10 -->
      <g transform="translate(36.669125 440.600335)scale(0.18 -0.18)">
       <use xlink:href="#FreeSerif-8722"/>
       <use x="56.399994" xlink:href="#FreeSerif-49"/>
       <use x="106.399979" xlink:href="#FreeSerif-48"/>
      </g>
     </g>
    </g>
    <g id="ytick_3">
     <g id="line2d_19">
      <path clip-path="url(#pd78b1adc99)" d="M 71.82225 356.123233 
L 544.52 356.123233 
" style="fill:none;stroke:#b0b0b0;stroke-linecap:square;stroke-width:0.8;"/>
     </g>
     <g id="line2d_20">
      <g>
       <use style="stroke:#000000;stroke-width:0.8;" x="71.82225" xlink:href="#m6c0118bb83" y="356.123233"/>
      </g>
     </g>
     <g id="text_11">
      <!-- −5 -->
      <g transform="translate(45.669125 362.269952)scale(0.18 -0.18)">
       <use xlink:href="#FreeSerif-8722"/>
       <use x="56.399994" xlink:href="#FreeSerif-53"/>
      </g>
     </g>
    </g>
    <g id="ytick_4">
     <g id="line2d_21">
      <path clip-path="url(#pd78b1adc99)" d="M 71.82225 277.79285 
L 544.52 277.79285 
" style="fill:none;stroke:#b0b0b0;stroke-linecap:square;stroke-width:0.8;"/>
     </g>
     <g id="line2d_22">
      <g>
       <use style="stroke:#000000;stroke-width:0.8;" x="71.82225" xlink:href="#m6c0118bb83" y="277.79285"/>
      </g>
     </g>
     <g id="text_12">
      <!-- 0 -->
      <g transform="translate(55.82225 283.939569)scale(0.18 -0.18)">
       <use xlink:href="#FreeSerif-48"/>
      </g>
     </g>
    </g>
    <g id="ytick_5">
     <g id="line2d_23">
      <path clip-path="url(#pd78b1adc99)" d="M 71.82225 199.462467 
L 544.52 199.462467 
" style="fill:none;stroke:#b0b0b0;stroke-linecap:square;stroke-width:0.8;"/>
     </g>
     <g id="line2d_24">
      <g>
       <use style="stroke:#000000;stroke-width:0.8;" x="71.82225" xlink:href="#m6c0118bb83" y="199.462467"/>
      </g>
     </g>
     <g id="text_13">
      <!-- 5 -->
      <g transform="translate(55.82225 205.609185)scale(0.18 -0.18)">
       <use xlink:href="#FreeSerif-53"/>
      </g>
     </g>
    </g>
    <g id="ytick_6">
     <g id="line2d_25">
      <path clip-path="url(#pd78b1adc99)" d="M 71.82225 121.132083 
L 544.52 121.132083 
" style="fill:none;stroke:#b0b0b0;stroke-linecap:square;stroke-width:0.8;"/>
     </g>
     <g id="line2d_26">
      <g>
       <use style="stroke:#000000;stroke-width:0.8;" x="71.82225" xlink:href="#m6c0118bb83" y="121.132083"/>
      </g>
     </g>
     <g id="text_14">
      <!-- 10 -->
      <g transform="translate(46.82225 127.278802)scale(0.18 -0.18)">
       <use xlink:href="#FreeSerif-49"/>
       <use x="49.999985" xlink:href="#FreeSerif-48"/>
      </g>
     </g>
    </g>
    <g id="ytick_7">
     <g id="line2d_27">
      <path clip-path="url(#pd78b1adc99)" d="M 71.82225 42.8017 
L 544.52 42.8017 
" style="fill:none;stroke:#b0b0b0;stroke-linecap:square;stroke-width:0.8;"/>
     </g>
     <g id="line2d_28">
      <g>
       <use style="stroke:#000000;stroke-width:0.8;" x="71.82225" xlink:href="#m6c0118bb83" y="42.8017"/>
      </g>
     </g>
     <g id="text_15">
      <!-- 15 -->
      <g transform="translate(46.82225 48.948419)scale(0.18 -0.18)">
       <use xlink:href="#FreeSerif-49"/>
       <use x="49.999985" xlink:href="#FreeSerif-53"/>
      </g>
     </g>
    </g>
    <g id="text_16">
     <!-- Z coordinate error (cm) -->
     <defs>
      <path d="M 40.296875 3.796875 
Q 43.09375 3.796875 45.390625 4.296875 
Q 47.703125 4.796875 49.25 5.296875 
Q 50.796875 5.796875 52.140625 7.1875 
Q 53.5 8.59375 54.140625 9.296875 
Q 54.796875 10 55.59375 12.046875 
Q 56.40625 14.09375 56.59375 14.6875 
Q 56.796875 15.296875 57.5 17.59375 
L 59.796875 17.59375 
L 57.40625 0 
L 1 0 
L 1 1.5 
L 44.703125 62.40625 
L 22.59375 62.40625 
Q 17.5 62.40625 14.203125 61.40625 
Q 10.90625 60.40625 9.25 58.203125 
Q 7.59375 56 7 54.203125 
Q 6.40625 52.40625 5.796875 49.09375 
L 3.203125 49.09375 
L 5.203125 66.203125 
L 57.796875 66.203125 
L 57.796875 64.703125 
L 14.59375 3.796875 
z
" id="FreeSerif-90"/>
     </defs>
     <g transform="translate(27.460375 390.8291)rotate(-90)scale(0.24 -0.24)">
      <use xlink:href="#FreeSerif-90"/>
      <use x="61.299988" xlink:href="#FreeSerif-32"/>
      <use x="86.299973" xlink:href="#FreeSerif-99"/>
      <use x="130.684341" xlink:href="#FreeSerif-111"/>
      <use x="179.784332" xlink:href="#FreeSerif-111"/>
      <use x="228.868698" xlink:href="#FreeSerif-114"/>
      <use x="263.353058" xlink:href="#FreeSerif-100"/>
      <use x="313.253052" xlink:href="#FreeSerif-105"/>
      <use x="341.037415" xlink:href="#FreeSerif-110"/>
      <use x="389.937408" xlink:href="#FreeSerif-97"/>
      <use x="433.421768" xlink:href="#FreeSerif-116"/>
      <use x="461.721756" xlink:href="#FreeSerif-101"/>
      <use x="506.12175" xlink:href="#FreeSerif-32"/>
      <use x="531.121735" xlink:href="#FreeSerif-101"/>
      <use x="575.506104" xlink:href="#FreeSerif-114"/>
      <use x="610.006088" xlink:href="#FreeSerif-114"/>
      <use x="644.490448" xlink:href="#FreeSerif-111"/>
      <use x="693.574814" xlink:href="#FreeSerif-114"/>
      <use x="728.074799" xlink:href="#FreeSerif-32"/>
      <use x="753.074783" xlink:href="#FreeSerif-40"/>
      <use x="786.374771" xlink:href="#FreeSerif-99"/>
      <use x="830.75914" xlink:href="#FreeSerif-109"/>
      <use x="908.659134" xlink:href="#FreeSerif-41"/>
     </g>
    </g>
   </g>
   <g id="patch_4">
    <path d="M 71.82225 512.784 
L 71.82225 42.8017 
" style="fill:none;stroke:#000000;stroke-linecap:square;stroke-linejoin:miter;stroke-width:0.8;"/>
   </g>
   <g id="patch_5">
    <path d="M 544.52 512.784 
L 544.52 42.8017 
" style="fill:none;stroke:#000000;stroke-linecap:square;stroke-linejoin:miter;stroke-width:0.8;"/>
   </g>
   <g id="patch_6">
    <path d="M 71.82225 512.784 
L 544.52 512.784 
" style="fill:none;stroke:#000000;stroke-linecap:square;stroke-linejoin:miter;stroke-width:0.8;"/>
   </g>
   <g id="patch_7">
    <path d="M 71.82225 42.8017 
L 544.52 42.8017 
" style="fill:none;stroke:#000000;stroke-linecap:square;stroke-linejoin:miter;stroke-width:0.8;"/>
   </g>
   <g id="text_17">
    <!-- Probability = 94.1% -->
    <defs>
     <path d="M 54.09375 48.09375 
Q 54.09375 45.5 53.5 43.09375 
Q 52.90625 40.703125 51.15625 38 
Q 49.40625 35.296875 46.5 33.34375 
Q 43.59375 31.40625 38.59375 30.09375 
Q 33.59375 28.796875 27 28.796875 
Q 24 28.796875 20.09375 29.09375 
L 20.09375 10.90625 
Q 20.09375 5.40625 21.84375 3.75 
Q 23.59375 2.09375 29.5 1.90625 
L 29.5 0 
L 1.5 0 
L 1.5 1.90625 
Q 7.203125 2.40625 8.546875 4.046875 
Q 9.90625 5.703125 9.90625 12 
L 9.90625 55.296875 
Q 9.90625 60.703125 8.5 62.203125 
Q 7.09375 63.703125 1.5 64.296875 
L 1.5 66.203125 
L 27.90625 66.203125 
Q 32.40625 66.203125 36.59375 65.34375 
Q 40.796875 64.5 44.9375 62.59375 
Q 49.09375 60.703125 51.59375 57 
Q 54.09375 53.296875 54.09375 48.09375 
z
M 20.09375 59.09375 
L 20.09375 33.09375 
Q 23.59375 32.796875 25.796875 32.796875 
Q 43.203125 32.796875 43.203125 47.5 
Q 43.203125 55.203125 38.390625 58.84375 
Q 33.59375 62.5 23.5 62.5 
Q 21.5 62.5 20.796875 61.796875 
Q 20.09375 61.09375 20.09375 59.09375 
z
" id="FreeSerif-80"/>
     <path d="M 16 68.09375 
L 16 37.5 
Q 17.5 41.203125 21.390625 43.59375 
Q 25.296875 46 29.90625 46 
Q 37.40625 46 42.453125 39.75 
Q 47.5 33.5 47.5 24.296875 
Q 47.5 13.59375 40.75 6.296875 
Q 34 -1 24.09375 -1 
Q 18.09375 -1 12.84375 1.046875 
Q 7.59375 3.09375 7.59375 5.40625 
L 7.59375 57.296875 
Q 7.59375 60.40625 6.640625 61.40625 
Q 5.703125 62.40625 2.703125 62.40625 
Q 1.59375 62.40625 1 62.296875 
L 1 63.90625 
Q 8.703125 65.796875 15.5 68.296875 
z
M 16 32.203125 
L 16 7 
Q 16 5.09375 18.890625 3.640625 
Q 21.796875 2.203125 25.703125 2.203125 
Q 31.90625 2.203125 35.296875 6.796875 
Q 38.703125 11.40625 38.703125 19.703125 
Q 38.703125 28.796875 35.25 34.25 
Q 31.796875 39.703125 25.90625 39.703125 
Q 22 39.703125 19 37.390625 
Q 16 35.09375 16 32.203125 
z
" id="FreeSerif-98"/>
     <path d="M 1 62.296875 
L 1 63.90625 
Q 10.90625 66.296875 16.90625 68.296875 
L 17.296875 68.09375 
L 17.296875 8.40625 
Q 17.296875 4.296875 18.640625 3.046875 
Q 20 1.796875 24.796875 1.5 
L 24.796875 0 
L 1.203125 0 
L 1.203125 1.5 
Q 5.90625 1.90625 7.40625 3.296875 
Q 8.90625 4.703125 8.90625 8.703125 
L 8.90625 56.40625 
Q 8.90625 59.90625 8 61.203125 
Q 7.09375 62.5 4.703125 62.5 
Q 2.703125 62.5 1 62.296875 
z
" id="FreeSerif-108"/>
     <path d="M 14.203125 -13.40625 
Q 17 -13.40625 20.09375 -7.203125 
Q 23.203125 -1 23.203125 1.90625 
Q 23.203125 3.203125 18.796875 12 
L 5.59375 40.40625 
Q 4.40625 43 0.5 43.59375 
L 0.5 45 
L 21.09375 45 
L 21.09375 43.5 
Q 17.90625 43.40625 16.59375 42.796875 
Q 15.296875 42.203125 15.296875 40.796875 
Q 15.296875 39.296875 16.296875 37 
L 27.796875 11.703125 
L 37.5 39.296875 
Q 37.90625 40.203125 37.90625 41 
Q 37.90625 43.5 33.09375 43.5 
L 33.09375 45 
L 46.59375 45 
L 46.59375 43.5 
Q 44.796875 43.296875 43.75 42.34375 
Q 42.703125 41.40625 41.796875 39 
L 26.40625 -1.796875 
Q 22.40625 -12.59375 18.453125 -17.1875 
Q 14.5 -21.796875 9.5 -21.796875 
Q 6.296875 -21.796875 4.1875 -20.140625 
Q 2.09375 -18.5 2.09375 -16 
Q 2.09375 -14.203125 3.390625 -12.890625 
Q 4.703125 -11.59375 6.40625 -11.59375 
Q 8.59375 -11.59375 11.09375 -12.5 
Q 13.59375 -13.40625 14.203125 -13.40625 
z
" id="FreeSerif-121"/>
     <path d="M 53.40625 38.59375 
L 53.40625 32 
L 3 32 
L 3 38.59375 
z
M 53.40625 18.59375 
L 53.40625 12 
L 3 12 
L 3 18.59375 
z
" id="FreeSerif-61"/>
     <path d="M 5.90625 -2.203125 
L 5.59375 -0.203125 
Q 17 1.796875 24.953125 9.5 
Q 32.90625 17.203125 36 29.40625 
Q 28.59375 23.703125 21 23.703125 
Q 12.90625 23.703125 7.953125 29.296875 
Q 3 34.90625 3 44 
Q 3 54.09375 8.953125 60.84375 
Q 14.90625 67.59375 23.796875 67.59375 
Q 33.5 67.59375 39.703125 59.6875 
Q 45.90625 51.796875 45.90625 39.40625 
Q 45.90625 35.40625 45.203125 31.203125 
Q 44.5 27 41.953125 21.25 
Q 39.40625 15.5 35.296875 10.953125 
Q 31.203125 6.40625 23.59375 2.703125 
Q 16 -1 5.90625 -2.203125 
z
M 24.59375 28 
Q 26.5 28 28.890625 28.546875 
Q 31.296875 29.09375 33.75 30.9375 
Q 36.203125 32.796875 36.203125 35.5 
L 36.203125 39.40625 
Q 36.203125 64.796875 23 64.796875 
Q 19.90625 64.796875 17.703125 63.140625 
Q 15.5 61.5 14.34375 58.796875 
Q 13.203125 56.09375 12.703125 53.296875 
Q 12.203125 50.5 12.203125 47.40625 
Q 12.203125 38.5 15.546875 33.25 
Q 18.90625 28 24.59375 28 
z
" id="FreeSerif-57"/>
     <path d="M 47.203125 23.09375 
L 47.203125 16.703125 
L 37 16.703125 
L 37 0 
L 29.296875 0 
L 29.296875 16.703125 
L 1.203125 16.703125 
L 1.203125 23.09375 
L 32.59375 67.59375 
L 37 67.59375 
L 37 23.09375 
z
M 29.203125 23.09375 
L 29.203125 57.40625 
L 5.203125 23.09375 
z
" id="FreeSerif-52"/>
     <path d="M 12.5 10 
Q 14.796875 10 16.4375 8.296875 
Q 18.09375 6.59375 18.09375 4.296875 
Q 18.09375 2.09375 16.390625 0.5 
Q 14.703125 -1.09375 12.40625 -1.09375 
Q 10.203125 -1.09375 8.59375 0.5 
Q 7 2.09375 7 4.296875 
Q 7 6.59375 8.640625 8.296875 
Q 10.296875 10 12.5 10 
z
" id="FreeSerif-46"/>
     <path d="M 66.90625 37.09375 
Q 71.796875 37.09375 74.5 34.296875 
Q 77.203125 31.5 77.203125 26.40625 
Q 77.203125 20.59375 74.890625 14.890625 
Q 72.59375 9.203125 68.59375 5.09375 
Q 63.5 0 56.90625 0 
Q 51.5 0 48.203125 3.546875 
Q 44.90625 7.09375 44.90625 12.90625 
Q 44.90625 22.296875 51.65625 29.6875 
Q 58.40625 37.09375 66.90625 37.09375 
z
M 58.59375 3 
Q 62.90625 3 66.703125 6.796875 
Q 70.5 10.59375 72.546875 15.84375 
Q 74.59375 21.09375 74.59375 25.90625 
Q 74.59375 29.203125 72.546875 31.546875 
Q 70.5 33.90625 67.59375 33.90625 
Q 63 33.90625 59.296875 28.703125 
Q 55.59375 23.5 54.046875 18.046875 
Q 52.5 12.59375 52.5 9.40625 
Q 52.5 6.59375 54.203125 4.796875 
Q 55.90625 3 58.59375 3 
z
M 28.203125 66.203125 
Q 31.296875 66.203125 33.1875 64.84375 
Q 35.09375 63.5 37.4375 62.140625 
Q 39.796875 60.796875 43.90625 60.796875 
Q 48.59375 60.796875 52.046875 62.296875 
Q 55.5 63.796875 59.5 67.59375 
L 63.40625 67.59375 
L 24.90625 -1.296875 
L 20.09375 -1.296875 
L 55.203125 61.296875 
Q 50 58.296875 44.203125 58.296875 
Q 40.296875 58.296875 37.703125 59.296875 
Q 38.40625 56.796875 38.40625 54.90625 
Q 38.40625 45.59375 32.453125 37.25 
Q 26.5 28.90625 17.90625 28.90625 
Q 13 28.90625 9.546875 32.65625 
Q 6.09375 36.40625 6.09375 41.59375 
Q 6.09375 51.09375 12.84375 58.640625 
Q 19.59375 66.203125 28.203125 66.203125 
z
M 28.203125 63.203125 
Q 23.40625 63.203125 18.546875 54.453125 
Q 13.703125 45.703125 13.703125 38.40625 
Q 13.703125 35.703125 15.34375 34 
Q 17 32.296875 19.59375 32.296875 
Q 25.703125 32.296875 30.796875 39.4375 
Q 35.90625 46.59375 35.90625 55.09375 
Q 35.90625 57 35 60 
Q 33 60.5 31.640625 61.140625 
Q 30.296875 61.796875 29.84375 62.1875 
Q 29.40625 62.59375 29 62.890625 
Q 28.59375 63.203125 28.203125 63.203125 
z
" id="FreeSerif-37"/>
    </defs>
    <g transform="translate(85.392767 64.047777)scale(0.24 -0.24)">
     <use xlink:href="#FreeSerif-80"/>
     <use x="57.584366" xlink:href="#FreeSerif-114"/>
     <use x="92.068726" xlink:href="#FreeSerif-111"/>
     <use x="141.153091" xlink:href="#FreeSerif-98"/>
     <use x="191.153076" xlink:href="#FreeSerif-97"/>
     <use x="234.637436" xlink:href="#FreeSerif-98"/>
     <use x="284.621796" xlink:href="#FreeSerif-105"/>
     <use x="312.406158" xlink:href="#FreeSerif-108"/>
     <use x="338.206146" xlink:href="#FreeSerif-105"/>
     <use x="365.974884" xlink:href="#FreeSerif-116"/>
     <use x="394.274872" xlink:href="#FreeSerif-121"/>
     <use x="441.374863" xlink:href="#FreeSerif-32"/>
     <use x="466.374847" xlink:href="#FreeSerif-61"/>
     <use x="522.774841" xlink:href="#FreeSerif-32"/>
     <use x="547.774826" xlink:href="#FreeSerif-57"/>
     <use x="597.774811" xlink:href="#FreeSerif-52"/>
     <use x="647.774796" xlink:href="#FreeSerif-46"/>
     <use x="672.77478" xlink:href="#FreeSerif-49"/>
     <use x="722.774765" xlink:href="#FreeSerif-37"/>
    </g>
   </g>
   <g id="text_18">
    <!-- X Z hitting plane -->
    <defs>
     <path d="M 15.796875 34.296875 
L 15.796875 10.203125 
Q 15.796875 5 17 3.5 
Q 18.203125 2 22.59375 1.5 
L 22.59375 0 
L 1 0 
L 1 1.5 
Q 5.296875 2.09375 6.34375 3.5 
Q 7.40625 4.90625 7.40625 10.203125 
L 7.40625 57.296875 
Q 7.40625 60.5 6.546875 61.5 
Q 5.703125 62.5 2.796875 62.5 
Q 2.09375 62.5 1.09375 62.296875 
L 1.09375 63.90625 
Q 8.203125 65.796875 15.296875 68.296875 
L 15.796875 68 
L 15.796875 37.59375 
Q 19.203125 42.09375 22.640625 44.046875 
Q 26.09375 46 30.5 46 
Q 42.796875 46 42.796875 30.09375 
L 42.796875 10.203125 
Q 42.796875 5 43.75 3.640625 
Q 44.703125 2.296875 48.796875 1.5 
L 48.796875 0 
L 27.59375 0 
L 27.59375 1.5 
Q 31.90625 1.90625 33.15625 3.5 
Q 34.40625 5.09375 34.40625 10.203125 
L 34.40625 30 
Q 34.40625 40.59375 26.90625 40.59375 
Q 24 40.59375 21.453125 39.140625 
Q 18.90625 37.703125 15.796875 34.296875 
z
" id="FreeSerif-104"/>
     <path d="M 6 5.40625 
Q 6 7.296875 7.34375 8.890625 
Q 8.703125 10.5 14.90625 16.296875 
Q 9.90625 18.796875 7.75 21.890625 
Q 5.59375 25 5.59375 29.703125 
Q 5.59375 36.5 10.4375 41.25 
Q 15.296875 46 22.296875 46 
Q 26.203125 46 30.640625 44.34375 
Q 35.09375 42.703125 38 42.703125 
L 45.703125 42.703125 
L 45.703125 38.796875 
L 37.40625 38.796875 
Q 39.296875 34.5 39.296875 30.40625 
Q 39.296875 23.5 34.640625 19.203125 
Q 30 14.90625 23.703125 14.90625 
Q 22.5 14.90625 18 15.40625 
Q 16 14.796875 14 12.6875 
Q 12 10.59375 12 9.09375 
Q 12 6.703125 19.796875 6.40625 
L 32.703125 5.796875 
Q 38.203125 5.59375 41.5 2.6875 
Q 44.796875 -0.203125 44.796875 -4.90625 
Q 44.796875 -12.09375 36.546875 -16.9375 
Q 28.296875 -21.796875 18.796875 -21.796875 
Q 11.703125 -21.796875 6.59375 -18.9375 
Q 1.5 -16.09375 1.5 -12.09375 
Q 1.5 -9.296875 3.75 -6.546875 
Q 6 -3.796875 11.296875 0.09375 
Q 8.203125 1.59375 7.09375 2.6875 
Q 6 3.796875 6 5.40625 
z
M 13.40625 -0.203125 
Q 10.296875 -3.90625 9.390625 -5.5 
Q 8.5 -7.09375 8.5 -8.796875 
Q 8.5 -12.09375 12.5 -14.09375 
Q 16.5 -16.09375 23.09375 -16.09375 
Q 31.59375 -16.09375 36.796875 -13.390625 
Q 42 -10.703125 42 -6.40625 
Q 42 -3.703125 39.203125 -2.59375 
Q 36.40625 -1.5 29.59375 -1.5 
Q 19.5 -1.5 13.40625 -0.203125 
z
M 31.59375 26.5 
Q 31.59375 28.203125 31.1875 30.59375 
Q 30.796875 33 29.796875 36.046875 
Q 28.796875 39.09375 26.59375 41.140625 
Q 24.40625 43.203125 21.296875 43.203125 
Q 17.796875 43.203125 15.84375 40.703125 
Q 13.90625 38.203125 13.90625 33.796875 
Q 13.90625 25.203125 17.09375 21.296875 
Q 20.296875 17.40625 24.09375 17.40625 
Q 27.59375 17.40625 29.59375 19.84375 
Q 31.59375 22.296875 31.59375 26.5 
z
" id="FreeSerif-103"/>
     <path d="M 1.40625 39.296875 
L 1.40625 40.90625 
Q 7.703125 42.796875 15.796875 46 
L 16.40625 45.796875 
L 16.40625 38.09375 
Q 22.796875 46 30.796875 46 
Q 38.09375 46 42.796875 40 
Q 47.5 34 47.5 24.703125 
Q 47.5 13.796875 41.453125 6.390625 
Q 35.40625 -1 26.5 -1 
Q 23.296875 -1 21.140625 -0.09375 
Q 19 0.796875 16.40625 3.296875 
L 16.40625 -12.40625 
Q 16.40625 -17.09375 18 -18.4375 
Q 19.59375 -19.796875 25.203125 -19.90625 
L 25.203125 -21.703125 
L 1 -21.703125 
L 1 -20 
Q 5.40625 -19.59375 6.703125 -18.296875 
Q 8 -17 8 -13.09375 
L 8 33.703125 
Q 8 37.203125 7.203125 38.296875 
Q 6.40625 39.40625 3.90625 39.40625 
Q 2.296875 39.40625 1.40625 39.296875 
z
M 16.40625 33.40625 
L 16.40625 8.796875 
Q 16.40625 6.59375 19.84375 4.390625 
Q 23.296875 2.203125 26.796875 2.203125 
Q 32.203125 2.203125 35.546875 7.34375 
Q 38.90625 12.5 38.90625 20.796875 
Q 38.90625 29.5 35.546875 34.75 
Q 32.203125 40 26.59375 40 
Q 23.09375 40 19.75 37.796875 
Q 16.40625 35.59375 16.40625 33.40625 
z
" id="FreeSerif-112"/>
    </defs>
    <g transform="translate(226.83175 36.8017)scale(0.24 -0.24)">
     <use xlink:href="#FreeSerif-88"/>
     <use x="71.399994" xlink:href="#FreeSerif-32"/>
     <use x="96.399979" xlink:href="#FreeSerif-90"/>
     <use x="157.699966" xlink:href="#FreeSerif-32"/>
     <use x="182.699951" xlink:href="#FreeSerif-104"/>
     <use x="232.499939" xlink:href="#FreeSerif-105"/>
     <use x="260.268677" xlink:href="#FreeSerif-116"/>
     <use x="288.568665" xlink:href="#FreeSerif-116"/>
     <use x="316.868652" xlink:href="#FreeSerif-105"/>
     <use x="344.653015" xlink:href="#FreeSerif-110"/>
     <use x="393.553009" xlink:href="#FreeSerif-103"/>
     <use x="440.253006" xlink:href="#FreeSerif-32"/>
     <use x="465.252991" xlink:href="#FreeSerif-112"/>
     <use x="515.23735" xlink:href="#FreeSerif-108"/>
     <use x="541.037338" xlink:href="#FreeSerif-97"/>
     <use x="584.537323" xlink:href="#FreeSerif-110"/>
     <use x="633.421692" xlink:href="#FreeSerif-101"/>
    </g>
   </g>
   <g id="legend_1">
    <g id="patch_8">
     <path d="M 421.240312 80.15795 
L 537.52 80.15795 
Q 539.52 80.15795 539.52 78.15795 
L 539.52 49.8017 
Q 539.52 47.8017 537.52 47.8017 
L 421.240312 47.8017 
Q 419.240312 47.8017 419.240312 49.8017 
L 419.240312 78.15795 
Q 419.240312 80.15795 421.240312 80.15795 
z
" style="fill:#ffffff;opacity:0.8;stroke:#cccccc;stroke-linejoin:miter;"/>
    </g>
    <g id="PathCollection_3">
     <g>
      <use style="fill:#0000ff;stroke:#0000ff;stroke-width:1.5;" x="433.240312" xlink:href="#mbe83c35765" y="56.775138"/>
     </g>
    </g>
    <g id="text_19">
     <!-- prediction points -->
     <defs>
      <path d="M 18.109375 8.203125 
L 18.109375 -20.796875 
L 9.078125 -20.796875 
L 9.078125 54.6875 
L 18.109375 54.6875 
L 18.109375 46.390625 
Q 20.953125 51.265625 25.265625 53.625 
Q 29.59375 56 35.59375 56 
Q 45.5625 56 51.78125 48.09375 
Q 58.015625 40.1875 58.015625 27.296875 
Q 58.015625 14.40625 51.78125 6.484375 
Q 45.5625 -1.421875 35.59375 -1.421875 
Q 29.59375 -1.421875 25.265625 0.953125 
Q 20.953125 3.328125 18.109375 8.203125 
z
M 48.6875 27.296875 
Q 48.6875 37.203125 44.609375 42.84375 
Q 40.53125 48.484375 33.40625 48.484375 
Q 26.265625 48.484375 22.1875 42.84375 
Q 18.109375 37.203125 18.109375 27.296875 
Q 18.109375 17.390625 22.1875 11.75 
Q 26.265625 6.109375 33.40625 6.109375 
Q 40.53125 6.109375 44.609375 11.75 
Q 48.6875 17.390625 48.6875 27.296875 
z
" id="DejaVuSans-112"/>
      <path d="M 41.109375 46.296875 
Q 39.59375 47.171875 37.8125 47.578125 
Q 36.03125 48 33.890625 48 
Q 26.265625 48 22.1875 43.046875 
Q 18.109375 38.09375 18.109375 28.8125 
L 18.109375 0 
L 9.078125 0 
L 9.078125 54.6875 
L 18.109375 54.6875 
L 18.109375 46.1875 
Q 20.953125 51.171875 25.484375 53.578125 
Q 30.03125 56 36.53125 56 
Q 37.453125 56 38.578125 55.875 
Q 39.703125 55.765625 41.0625 55.515625 
z
" id="DejaVuSans-114"/>
      <path d="M 56.203125 29.59375 
L 56.203125 25.203125 
L 14.890625 25.203125 
Q 15.484375 15.921875 20.484375 11.0625 
Q 25.484375 6.203125 34.421875 6.203125 
Q 39.59375 6.203125 44.453125 7.46875 
Q 49.3125 8.734375 54.109375 11.28125 
L 54.109375 2.78125 
Q 49.265625 0.734375 44.1875 -0.34375 
Q 39.109375 -1.421875 33.890625 -1.421875 
Q 20.796875 -1.421875 13.15625 6.1875 
Q 5.515625 13.8125 5.515625 26.8125 
Q 5.515625 40.234375 12.765625 48.109375 
Q 20.015625 56 32.328125 56 
Q 43.359375 56 49.78125 48.890625 
Q 56.203125 41.796875 56.203125 29.59375 
z
M 47.21875 32.234375 
Q 47.125 39.59375 43.09375 43.984375 
Q 39.0625 48.390625 32.421875 48.390625 
Q 24.90625 48.390625 20.390625 44.140625 
Q 15.875 39.890625 15.1875 32.171875 
z
" id="DejaVuSans-101"/>
      <path d="M 45.40625 46.390625 
L 45.40625 75.984375 
L 54.390625 75.984375 
L 54.390625 0 
L 45.40625 0 
L 45.40625 8.203125 
Q 42.578125 3.328125 38.25 0.953125 
Q 33.9375 -1.421875 27.875 -1.421875 
Q 17.96875 -1.421875 11.734375 6.484375 
Q 5.515625 14.40625 5.515625 27.296875 
Q 5.515625 40.1875 11.734375 48.09375 
Q 17.96875 56 27.875 56 
Q 33.9375 56 38.25 53.625 
Q 42.578125 51.265625 45.40625 46.390625 
z
M 14.796875 27.296875 
Q 14.796875 17.390625 18.875 11.75 
Q 22.953125 6.109375 30.078125 6.109375 
Q 37.203125 6.109375 41.296875 11.75 
Q 45.40625 17.390625 45.40625 27.296875 
Q 45.40625 37.203125 41.296875 42.84375 
Q 37.203125 48.484375 30.078125 48.484375 
Q 22.953125 48.484375 18.875 42.84375 
Q 14.796875 37.203125 14.796875 27.296875 
z
" id="DejaVuSans-100"/>
      <path d="M 9.421875 54.6875 
L 18.40625 54.6875 
L 18.40625 0 
L 9.421875 0 
z
M 9.421875 75.984375 
L 18.40625 75.984375 
L 18.40625 64.59375 
L 9.421875 64.59375 
z
" id="DejaVuSans-105"/>
      <path d="M 48.78125 52.59375 
L 48.78125 44.1875 
Q 44.96875 46.296875 41.140625 47.34375 
Q 37.3125 48.390625 33.40625 48.390625 
Q 24.65625 48.390625 19.8125 42.84375 
Q 14.984375 37.3125 14.984375 27.296875 
Q 14.984375 17.28125 19.8125 11.734375 
Q 24.65625 6.203125 33.40625 6.203125 
Q 37.3125 6.203125 41.140625 7.25 
Q 44.96875 8.296875 48.78125 10.40625 
L 48.78125 2.09375 
Q 45.015625 0.34375 40.984375 -0.53125 
Q 36.96875 -1.421875 32.421875 -1.421875 
Q 20.0625 -1.421875 12.78125 6.34375 
Q 5.515625 14.109375 5.515625 27.296875 
Q 5.515625 40.671875 12.859375 48.328125 
Q 20.21875 56 33.015625 56 
Q 37.15625 56 41.109375 55.140625 
Q 45.0625 54.296875 48.78125 52.59375 
z
" id="DejaVuSans-99"/>
      <path d="M 18.3125 70.21875 
L 18.3125 54.6875 
L 36.8125 54.6875 
L 36.8125 47.703125 
L 18.3125 47.703125 
L 18.3125 18.015625 
Q 18.3125 11.328125 20.140625 9.421875 
Q 21.96875 7.515625 27.59375 7.515625 
L 36.8125 7.515625 
L 36.8125 0 
L 27.59375 0 
Q 17.1875 0 13.234375 3.875 
Q 9.28125 7.765625 9.28125 18.015625 
L 9.28125 47.703125 
L 2.6875 47.703125 
L 2.6875 54.6875 
L 9.28125 54.6875 
L 9.28125 70.21875 
z
" id="DejaVuSans-116"/>
      <path d="M 30.609375 48.390625 
Q 23.390625 48.390625 19.1875 42.75 
Q 14.984375 37.109375 14.984375 27.296875 
Q 14.984375 17.484375 19.15625 11.84375 
Q 23.34375 6.203125 30.609375 6.203125 
Q 37.796875 6.203125 41.984375 11.859375 
Q 46.1875 17.53125 46.1875 27.296875 
Q 46.1875 37.015625 41.984375 42.703125 
Q 37.796875 48.390625 30.609375 48.390625 
z
M 30.609375 56 
Q 42.328125 56 49.015625 48.375 
Q 55.71875 40.765625 55.71875 27.296875 
Q 55.71875 13.875 49.015625 6.21875 
Q 42.328125 -1.421875 30.609375 -1.421875 
Q 18.84375 -1.421875 12.171875 6.21875 
Q 5.515625 13.875 5.515625 27.296875 
Q 5.515625 40.765625 12.171875 48.375 
Q 18.84375 56 30.609375 56 
z
" id="DejaVuSans-111"/>
      <path d="M 54.890625 33.015625 
L 54.890625 0 
L 45.90625 0 
L 45.90625 32.71875 
Q 45.90625 40.484375 42.875 44.328125 
Q 39.84375 48.1875 33.796875 48.1875 
Q 26.515625 48.1875 22.3125 43.546875 
Q 18.109375 38.921875 18.109375 30.90625 
L 18.109375 0 
L 9.078125 0 
L 9.078125 54.6875 
L 18.109375 54.6875 
L 18.109375 46.1875 
Q 21.34375 51.125 25.703125 53.5625 
Q 30.078125 56 35.796875 56 
Q 45.21875 56 50.046875 50.171875 
Q 54.890625 44.34375 54.890625 33.015625 
z
" id="DejaVuSans-110"/>
      <path id="DejaVuSans-32"/>
      <path d="M 44.28125 53.078125 
L 44.28125 44.578125 
Q 40.484375 46.53125 36.375 47.5 
Q 32.28125 48.484375 27.875 48.484375 
Q 21.1875 48.484375 17.84375 46.4375 
Q 14.5 44.390625 14.5 40.28125 
Q 14.5 37.15625 16.890625 35.375 
Q 19.28125 33.59375 26.515625 31.984375 
L 29.59375 31.296875 
Q 39.15625 29.25 43.1875 25.515625 
Q 47.21875 21.78125 47.21875 15.09375 
Q 47.21875 7.46875 41.1875 3.015625 
Q 35.15625 -1.421875 24.609375 -1.421875 
Q 20.21875 -1.421875 15.453125 -0.5625 
Q 10.6875 0.296875 5.421875 2 
L 5.421875 11.28125 
Q 10.40625 8.6875 15.234375 7.390625 
Q 20.0625 6.109375 24.8125 6.109375 
Q 31.15625 6.109375 34.5625 8.28125 
Q 37.984375 10.453125 37.984375 14.40625 
Q 37.984375 18.0625 35.515625 20.015625 
Q 33.0625 21.96875 24.703125 23.78125 
L 21.578125 24.515625 
Q 13.234375 26.265625 9.515625 29.90625 
Q 5.8125 33.546875 5.8125 39.890625 
Q 5.8125 47.609375 11.28125 51.796875 
Q 16.75 56 26.8125 56 
Q 31.78125 56 36.171875 55.265625 
Q 40.578125 54.546875 44.28125 53.078125 
z
" id="DejaVuSans-115"/>
     </defs>
     <g transform="translate(451.240312 59.400138)scale(0.1 -0.1)">
      <use xlink:href="#DejaVuSans-112"/>
      <use x="63.476562" xlink:href="#DejaVuSans-114"/>
      <use x="104.558594" xlink:href="#DejaVuSans-101"/>
      <use x="166.082031" xlink:href="#DejaVuSans-100"/>
      <use x="229.558594" xlink:href="#DejaVuSans-105"/>
      <use x="257.341797" xlink:href="#DejaVuSans-99"/>
      <use x="312.322266" xlink:href="#DejaVuSans-116"/>
      <use x="351.53125" xlink:href="#DejaVuSans-105"/>
      <use x="379.314453" xlink:href="#DejaVuSans-111"/>
      <use x="440.496094" xlink:href="#DejaVuSans-110"/>
      <use x="503.875" xlink:href="#DejaVuSans-32"/>
      <use x="535.662109" xlink:href="#DejaVuSans-112"/>
      <use x="599.138672" xlink:href="#DejaVuSans-111"/>
      <use x="660.320312" xlink:href="#DejaVuSans-105"/>
      <use x="688.103516" xlink:href="#DejaVuSans-110"/>
      <use x="751.482422" xlink:href="#DejaVuSans-116"/>
      <use x="790.691406" xlink:href="#DejaVuSans-115"/>
     </g>
    </g>
    <g id="PathCollection_4">
     <g>
      <use style="fill:#ff0000;stroke:#ff0000;" x="433.240312" xlink:href="#mc779c20c42" y="71.453263"/>
     </g>
    </g>
    <g id="text_20">
     <!-- target point -->
     <defs>
      <path d="M 34.28125 27.484375 
Q 23.390625 27.484375 19.1875 25 
Q 14.984375 22.515625 14.984375 16.5 
Q 14.984375 11.71875 18.140625 8.90625 
Q 21.296875 6.109375 26.703125 6.109375 
Q 34.1875 6.109375 38.703125 11.40625 
Q 43.21875 16.703125 43.21875 25.484375 
L 43.21875 27.484375 
z
M 52.203125 31.203125 
L 52.203125 0 
L 43.21875 0 
L 43.21875 8.296875 
Q 40.140625 3.328125 35.546875 0.953125 
Q 30.953125 -1.421875 24.3125 -1.421875 
Q 15.921875 -1.421875 10.953125 3.296875 
Q 6 8.015625 6 15.921875 
Q 6 25.140625 12.171875 29.828125 
Q 18.359375 34.515625 30.609375 34.515625 
L 43.21875 34.515625 
L 43.21875 35.40625 
Q 43.21875 41.609375 39.140625 45 
Q 35.0625 48.390625 27.6875 48.390625 
Q 23 48.390625 18.546875 47.265625 
Q 14.109375 46.140625 10.015625 43.890625 
L 10.015625 52.203125 
Q 14.9375 54.109375 19.578125 55.046875 
Q 24.21875 56 28.609375 56 
Q 40.484375 56 46.34375 49.84375 
Q 52.203125 43.703125 52.203125 31.203125 
z
" id="DejaVuSans-97"/>
      <path d="M 45.40625 27.984375 
Q 45.40625 37.75 41.375 43.109375 
Q 37.359375 48.484375 30.078125 48.484375 
Q 22.859375 48.484375 18.828125 43.109375 
Q 14.796875 37.75 14.796875 27.984375 
Q 14.796875 18.265625 18.828125 12.890625 
Q 22.859375 7.515625 30.078125 7.515625 
Q 37.359375 7.515625 41.375 12.890625 
Q 45.40625 18.265625 45.40625 27.984375 
z
M 54.390625 6.78125 
Q 54.390625 -7.171875 48.1875 -13.984375 
Q 42 -20.796875 29.203125 -20.796875 
Q 24.46875 -20.796875 20.265625 -20.09375 
Q 16.0625 -19.390625 12.109375 -17.921875 
L 12.109375 -9.1875 
Q 16.0625 -11.328125 19.921875 -12.34375 
Q 23.78125 -13.375 27.78125 -13.375 
Q 36.625 -13.375 41.015625 -8.765625 
Q 45.40625 -4.15625 45.40625 5.171875 
L 45.40625 9.625 
Q 42.625 4.78125 38.28125 2.390625 
Q 33.9375 0 27.875 0 
Q 17.828125 0 11.671875 7.65625 
Q 5.515625 15.328125 5.515625 27.984375 
Q 5.515625 40.671875 11.671875 48.328125 
Q 17.828125 56 27.875 56 
Q 33.9375 56 38.28125 53.609375 
Q 42.625 51.21875 45.40625 46.390625 
L 45.40625 54.6875 
L 54.390625 54.6875 
z
" id="DejaVuSans-103"/>
     </defs>
     <g transform="translate(451.240312 74.078263)scale(0.1 -0.1)">
      <use xlink:href="#DejaVuSans-116"/>
      <use x="39.208984" xlink:href="#DejaVuSans-97"/>
      <use x="100.488281" xlink:href="#DejaVuSans-114"/>
      <use x="141.585938" xlink:href="#DejaVuSans-103"/>
      <use x="205.0625" xlink:href="#DejaVuSans-101"/>
      <use x="266.585938" xlink:href="#DejaVuSans-116"/>
      <use x="305.794922" xlink:href="#DejaVuSans-32"/>
      <use x="337.582031" xlink:href="#DejaVuSans-112"/>
      <use x="401.058594" xlink:href="#DejaVuSans-111"/>
      <use x="462.240234" xlink:href="#DejaVuSans-105"/>
      <use x="490.023438" xlink:href="#DejaVuSans-110"/>
      <use x="553.402344" xlink:href="#DejaVuSans-116"/>
     </g>
    </g>
   </g>
  </g>
 </g>
 <defs>
  <clipPath id="pd78b1adc99">
   <rect height="469.9823" width="472.69775" x="71.82225" y="42.8017"/>
  </clipPath>
 </defs>
</svg>
