<?xml version="1.0" encoding="utf-8" standalone="no"?>
<!DOCTYPE svg PUBLIC "-//W3C//DTD SVG 1.1//EN"
  "http://www.w3.org/Graphics/SVG/1.1/DTD/svg11.dtd">
<!-- Created with matplotlib (https://matplotlib.org/) -->
<svg height="576pt" version="1.1" viewBox="0 0 576 576" width="576pt" xmlns="http://www.w3.org/2000/svg" xmlns:xlink="http://www.w3.org/1999/xlink">
 <defs>
  <style type="text/css">
*{stroke-linecap:butt;stroke-linejoin:round;}
  </style>
 </defs>
 <g id="figure_1">
  <g id="patch_1">
   <path d="M 0 576 
L 576 576 
L 576 0 
L 0 0 
z
" style="fill:#ffffff;"/>
  </g>
  <g id="axes_1">
   <g id="patch_2">
    <path d="M 71.82225 512.784 
L 544.52 512.784 
L 544.52 42.8017 
L 71.82225 42.8017 
z
" style="fill:#ffffff;"/>
   </g>
   <g id="PathCollection_1">
    <defs>
     <path d="M -3 3 
L 3 -3 
M -3 -3 
L 3 3 
" id="m99e637f952" style="stroke:#0000ff;stroke-width:1.5;"/>
    </defs>
    <g clip-path="url(#p95869760eb)">
     <use style="fill:#0000ff;stroke:#0000ff;stroke-width:1.5;" x="262.763698" xlink:href="#m99e637f952" y="318.006657"/>
     <use style="fill:#0000ff;stroke:#0000ff;stroke-width:1.5;" x="220.809355" xlink:href="#m99e637f952" y="353.161018"/>
     <use style="fill:#0000ff;stroke:#0000ff;stroke-width:1.5;" x="348.206059" xlink:href="#m99e637f952" y="210.992675"/>
     <use style="fill:#0000ff;stroke:#0000ff;stroke-width:1.5;" x="321.125823" xlink:href="#m99e637f952" y="311.460728"/>
     <use style="fill:#0000ff;stroke:#0000ff;stroke-width:1.5;" x="323.987484" xlink:href="#m99e637f952" y="210.445964"/>
     <use style="fill:#0000ff;stroke:#0000ff;stroke-width:1.5;" x="277.370745" xlink:href="#m99e637f952" y="335.770543"/>
     <use style="fill:#0000ff;stroke:#0000ff;stroke-width:1.5;" x="280.807213" xlink:href="#m99e637f952" y="263.744634"/>
     <use style="fill:#0000ff;stroke:#0000ff;stroke-width:1.5;" x="254.611674" xlink:href="#m99e637f952" y="305.136339"/>
     <use style="fill:#0000ff;stroke:#0000ff;stroke-width:1.5;" x="200.007967" xlink:href="#m99e637f952" y="321.480822"/>
     <use style="fill:#0000ff;stroke:#0000ff;stroke-width:1.5;" x="323.93951" xlink:href="#m99e637f952" y="321.202081"/>
     <use style="fill:#0000ff;stroke:#0000ff;stroke-width:1.5;" x="237.747911" xlink:href="#m99e637f952" y="297.407602"/>
     <use style="fill:#0000ff;stroke:#0000ff;stroke-width:1.5;" x="431.915253" xlink:href="#m99e637f952" y="258.898517"/>
     <use style="fill:#0000ff;stroke:#0000ff;stroke-width:1.5;" x="285.663117" xlink:href="#m99e637f952" y="236.195124"/>
     <use style="fill:#0000ff;stroke:#0000ff;stroke-width:1.5;" x="244.121431" xlink:href="#m99e637f952" y="305.766633"/>
     <use style="fill:#0000ff;stroke:#0000ff;stroke-width:1.5;" x="367.702304" xlink:href="#m99e637f952" y="247.979471"/>
     <use style="fill:#0000ff;stroke:#0000ff;stroke-width:1.5;" x="247.498" xlink:href="#m99e637f952" y="277.87118"/>
     <use style="fill:#0000ff;stroke:#0000ff;stroke-width:1.5;" x="248.603931" xlink:href="#m99e637f952" y="264.609301"/>
     <use style="fill:#0000ff;stroke:#0000ff;stroke-width:1.5;" x="339.043167" xlink:href="#m99e637f952" y="225.831122"/>
     <use style="fill:#0000ff;stroke:#0000ff;stroke-width:1.5;" x="285.169996" xlink:href="#m99e637f952" y="296.428008"/>
     <use style="fill:#0000ff;stroke:#0000ff;stroke-width:1.5;" x="321.212992" xlink:href="#m99e637f952" y="236.292914"/>
     <use style="fill:#0000ff;stroke:#0000ff;stroke-width:1.5;" x="292.075751" xlink:href="#m99e637f952" y="246.161257"/>
     <use style="fill:#0000ff;stroke:#0000ff;stroke-width:1.5;" x="317.626798" xlink:href="#m99e637f952" y="249.270229"/>
     <use style="fill:#0000ff;stroke:#0000ff;stroke-width:1.5;" x="290.966272" xlink:href="#m99e637f952" y="247.681445"/>
     <use style="fill:#0000ff;stroke:#0000ff;stroke-width:1.5;" x="281.070446" xlink:href="#m99e637f952" y="296.610088"/>
     <use style="fill:#0000ff;stroke:#0000ff;stroke-width:1.5;" x="350.591788" xlink:href="#m99e637f952" y="312.524567"/>
     <use style="fill:#0000ff;stroke:#0000ff;stroke-width:1.5;" x="274.179507" xlink:href="#m99e637f952" y="283.827179"/>
     <use style="fill:#0000ff;stroke:#0000ff;stroke-width:1.5;" x="415.904987" xlink:href="#m99e637f952" y="252.065415"/>
     <use style="fill:#0000ff;stroke:#0000ff;stroke-width:1.5;" x="321.450881" xlink:href="#m99e637f952" y="301.953033"/>
     <use style="fill:#0000ff;stroke:#0000ff;stroke-width:1.5;" x="262.005638" xlink:href="#m99e637f952" y="317.385856"/>
     <use style="fill:#0000ff;stroke:#0000ff;stroke-width:1.5;" x="258.347207" xlink:href="#m99e637f952" y="349.368537"/>
     <use style="fill:#0000ff;stroke:#0000ff;stroke-width:1.5;" x="286.252243" xlink:href="#m99e637f952" y="225.004879"/>
     <use style="fill:#0000ff;stroke:#0000ff;stroke-width:1.5;" x="284.941567" xlink:href="#m99e637f952" y="263.324277"/>
     <use style="fill:#0000ff;stroke:#0000ff;stroke-width:1.5;" x="365.634705" xlink:href="#m99e637f952" y="227.132607"/>
     <use style="fill:#0000ff;stroke:#0000ff;stroke-width:1.5;" x="284.517706" xlink:href="#m99e637f952" y="246.252779"/>
     <use style="fill:#0000ff;stroke:#0000ff;stroke-width:1.5;" x="263.375419" xlink:href="#m99e637f952" y="362.008466"/>
     <use style="fill:#0000ff;stroke:#0000ff;stroke-width:1.5;" x="315.182388" xlink:href="#m99e637f952" y="239.497178"/>
     <use style="fill:#0000ff;stroke:#0000ff;stroke-width:1.5;" x="283.133798" xlink:href="#m99e637f952" y="215.39754"/>
     <use style="fill:#0000ff;stroke:#0000ff;stroke-width:1.5;" x="308.803532" xlink:href="#m99e637f952" y="296.943363"/>
     <use style="fill:#0000ff;stroke:#0000ff;stroke-width:1.5;" x="285.33542" xlink:href="#m99e637f952" y="291.685235"/>
     <use style="fill:#0000ff;stroke:#0000ff;stroke-width:1.5;" x="307.658131" xlink:href="#m99e637f952" y="237.575941"/>
     <use style="fill:#0000ff;stroke:#0000ff;stroke-width:1.5;" x="230.737365" xlink:href="#m99e637f952" y="295.128549"/>
     <use style="fill:#0000ff;stroke:#0000ff;stroke-width:1.5;" x="298.300261" xlink:href="#m99e637f952" y="275.692708"/>
     <use style="fill:#0000ff;stroke:#0000ff;stroke-width:1.5;" x="256.026194" xlink:href="#m99e637f952" y="273.023299"/>
     <use style="fill:#0000ff;stroke:#0000ff;stroke-width:1.5;" x="239.624241" xlink:href="#m99e637f952" y="304.748345"/>
     <use style="fill:#0000ff;stroke:#0000ff;stroke-width:1.5;" x="294.94082" xlink:href="#m99e637f952" y="252.888556"/>
     <use style="fill:#0000ff;stroke:#0000ff;stroke-width:1.5;" x="230.621549" xlink:href="#m99e637f952" y="355.498504"/>
     <use style="fill:#0000ff;stroke:#0000ff;stroke-width:1.5;" x="299.306791" xlink:href="#m99e637f952" y="289.825052"/>
     <use style="fill:#0000ff;stroke:#0000ff;stroke-width:1.5;" x="269.810546" xlink:href="#m99e637f952" y="263.600613"/>
     <use style="fill:#0000ff;stroke:#0000ff;stroke-width:1.5;" x="309.974151" xlink:href="#m99e637f952" y="233.42083"/>
     <use style="fill:#0000ff;stroke:#0000ff;stroke-width:1.5;" x="244.44715" xlink:href="#m99e637f952" y="271.111994"/>
     <use style="fill:#0000ff;stroke:#0000ff;stroke-width:1.5;" x="314.211328" xlink:href="#m99e637f952" y="276.106496"/>
     <use style="fill:#0000ff;stroke:#0000ff;stroke-width:1.5;" x="293.244938" xlink:href="#m99e637f952" y="269.011534"/>
     <use style="fill:#0000ff;stroke:#0000ff;stroke-width:1.5;" x="322.273251" xlink:href="#m99e637f952" y="264.524595"/>
     <use style="fill:#0000ff;stroke:#0000ff;stroke-width:1.5;" x="233.967021" xlink:href="#m99e637f952" y="386.758041"/>
     <use style="fill:#0000ff;stroke:#0000ff;stroke-width:1.5;" x="271.565317" xlink:href="#m99e637f952" y="277.873685"/>
     <use style="fill:#0000ff;stroke:#0000ff;stroke-width:1.5;" x="304.907441" xlink:href="#m99e637f952" y="278.372668"/>
     <use style="fill:#0000ff;stroke:#0000ff;stroke-width:1.5;" x="316.340758" xlink:href="#m99e637f952" y="267.716077"/>
     <use style="fill:#0000ff;stroke:#0000ff;stroke-width:1.5;" x="299.059212" xlink:href="#m99e637f952" y="255.623541"/>
     <use style="fill:#0000ff;stroke:#0000ff;stroke-width:1.5;" x="292.90202" xlink:href="#m99e637f952" y="284.509065"/>
     <use style="fill:#0000ff;stroke:#0000ff;stroke-width:1.5;" x="300.287976" xlink:href="#m99e637f952" y="226.97021"/>
     <use style="fill:#0000ff;stroke:#0000ff;stroke-width:1.5;" x="236.788141" xlink:href="#m99e637f952" y="224.549747"/>
     <use style="fill:#0000ff;stroke:#0000ff;stroke-width:1.5;" x="257.362306" xlink:href="#m99e637f952" y="361.461005"/>
     <use style="fill:#0000ff;stroke:#0000ff;stroke-width:1.5;" x="346.008968" xlink:href="#m99e637f952" y="270.073089"/>
     <use style="fill:#0000ff;stroke:#0000ff;stroke-width:1.5;" x="322.582675" xlink:href="#m99e637f952" y="267.993723"/>
     <use style="fill:#0000ff;stroke:#0000ff;stroke-width:1.5;" x="255.657837" xlink:href="#m99e637f952" y="278.110568"/>
     <use style="fill:#0000ff;stroke:#0000ff;stroke-width:1.5;" x="315.770801" xlink:href="#m99e637f952" y="284.4821"/>
     <use style="fill:#0000ff;stroke:#0000ff;stroke-width:1.5;" x="346.842778" xlink:href="#m99e637f952" y="322.276751"/>
     <use style="fill:#0000ff;stroke:#0000ff;stroke-width:1.5;" x="313.569854" xlink:href="#m99e637f952" y="252.323293"/>
     <use style="fill:#0000ff;stroke:#0000ff;stroke-width:1.5;" x="315.718294" xlink:href="#m99e637f952" y="267.651565"/>
     <use style="fill:#0000ff;stroke:#0000ff;stroke-width:1.5;" x="345.182376" xlink:href="#m99e637f952" y="299.572999"/>
     <use style="fill:#0000ff;stroke:#0000ff;stroke-width:1.5;" x="319.611871" xlink:href="#m99e637f952" y="317.751917"/>
     <use style="fill:#0000ff;stroke:#0000ff;stroke-width:1.5;" x="285.062252" xlink:href="#m99e637f952" y="330.649856"/>
     <use style="fill:#0000ff;stroke:#0000ff;stroke-width:1.5;" x="287.335646" xlink:href="#m99e637f952" y="273.046882"/>
     <use style="fill:#0000ff;stroke:#0000ff;stroke-width:1.5;" x="330.922563" xlink:href="#m99e637f952" y="308.073208"/>
     <use style="fill:#0000ff;stroke:#0000ff;stroke-width:1.5;" x="218.915492" xlink:href="#m99e637f952" y="286.343572"/>
     <use style="fill:#0000ff;stroke:#0000ff;stroke-width:1.5;" x="340.129117" xlink:href="#m99e637f952" y="320.328468"/>
     <use style="fill:#0000ff;stroke:#0000ff;stroke-width:1.5;" x="355.996241" xlink:href="#m99e637f952" y="257.579242"/>
     <use style="fill:#0000ff;stroke:#0000ff;stroke-width:1.5;" x="236.465545" xlink:href="#m99e637f952" y="209.007946"/>
     <use style="fill:#0000ff;stroke:#0000ff;stroke-width:1.5;" x="256.597277" xlink:href="#m99e637f952" y="331.993255"/>
     <use style="fill:#0000ff;stroke:#0000ff;stroke-width:1.5;" x="283.218057" xlink:href="#m99e637f952" y="313.887133"/>
     <use style="fill:#0000ff;stroke:#0000ff;stroke-width:1.5;" x="334.295965" xlink:href="#m99e637f952" y="268.113304"/>
     <use style="fill:#0000ff;stroke:#0000ff;stroke-width:1.5;" x="335.618687" xlink:href="#m99e637f952" y="221.418378"/>
     <use style="fill:#0000ff;stroke:#0000ff;stroke-width:1.5;" x="274.302922" xlink:href="#m99e637f952" y="211.7625"/>
     <use style="fill:#0000ff;stroke:#0000ff;stroke-width:1.5;" x="248.489242" xlink:href="#m99e637f952" y="281.841827"/>
     <use style="fill:#0000ff;stroke:#0000ff;stroke-width:1.5;" x="359.202668" xlink:href="#m99e637f952" y="261.950521"/>
     <use style="fill:#0000ff;stroke:#0000ff;stroke-width:1.5;" x="335.020093" xlink:href="#m99e637f952" y="206.460502"/>
     <use style="fill:#0000ff;stroke:#0000ff;stroke-width:1.5;" x="330.777306" xlink:href="#m99e637f952" y="286.760234"/>
     <use style="fill:#0000ff;stroke:#0000ff;stroke-width:1.5;" x="267.09154" xlink:href="#m99e637f952" y="228.249717"/>
     <use style="fill:#0000ff;stroke:#0000ff;stroke-width:1.5;" x="241.175752" xlink:href="#m99e637f952" y="229.450453"/>
     <use style="fill:#0000ff;stroke:#0000ff;stroke-width:1.5;" x="278.852513" xlink:href="#m99e637f952" y="320.879876"/>
     <use style="fill:#0000ff;stroke:#0000ff;stroke-width:1.5;" x="274.263679" xlink:href="#m99e637f952" y="192.209654"/>
     <use style="fill:#0000ff;stroke:#0000ff;stroke-width:1.5;" x="367.389775" xlink:href="#m99e637f952" y="266.990838"/>
     <use style="fill:#0000ff;stroke:#0000ff;stroke-width:1.5;" x="335.008381" xlink:href="#m99e637f952" y="286.035925"/>
     <use style="fill:#0000ff;stroke:#0000ff;stroke-width:1.5;" x="408.646558" xlink:href="#m99e637f952" y="254.212698"/>
     <use style="fill:#0000ff;stroke:#0000ff;stroke-width:1.5;" x="270.416619" xlink:href="#m99e637f952" y="298.750713"/>
     <use style="fill:#0000ff;stroke:#0000ff;stroke-width:1.5;" x="259.037485" xlink:href="#m99e637f952" y="231.69199"/>
     <use style="fill:#0000ff;stroke:#0000ff;stroke-width:1.5;" x="304.472016" xlink:href="#m99e637f952" y="314.318108"/>
     <use style="fill:#0000ff;stroke:#0000ff;stroke-width:1.5;" x="297.088035" xlink:href="#m99e637f952" y="292.234805"/>
     <use style="fill:#0000ff;stroke:#0000ff;stroke-width:1.5;" x="380.110409" xlink:href="#m99e637f952" y="276.666476"/>
     <use style="fill:#0000ff;stroke:#0000ff;stroke-width:1.5;" x="373.596108" xlink:href="#m99e637f952" y="246.571325"/>
     <use style="fill:#0000ff;stroke:#0000ff;stroke-width:1.5;" x="227.215218" xlink:href="#m99e637f952" y="331.190795"/>
     <use style="fill:#0000ff;stroke:#0000ff;stroke-width:1.5;" x="258.374629" xlink:href="#m99e637f952" y="297.792055"/>
     <use style="fill:#0000ff;stroke:#0000ff;stroke-width:1.5;" x="241.466007" xlink:href="#m99e637f952" y="254.689608"/>
     <use style="fill:#0000ff;stroke:#0000ff;stroke-width:1.5;" x="310.073721" xlink:href="#m99e637f952" y="267.090858"/>
     <use style="fill:#0000ff;stroke:#0000ff;stroke-width:1.5;" x="273.433061" xlink:href="#m99e637f952" y="243.34796"/>
     <use style="fill:#0000ff;stroke:#0000ff;stroke-width:1.5;" x="354.614964" xlink:href="#m99e637f952" y="278.425963"/>
     <use style="fill:#0000ff;stroke:#0000ff;stroke-width:1.5;" x="274.846572" xlink:href="#m99e637f952" y="266.521072"/>
     <use style="fill:#0000ff;stroke:#0000ff;stroke-width:1.5;" x="314.362268" xlink:href="#m99e637f952" y="294.589542"/>
     <use style="fill:#0000ff;stroke:#0000ff;stroke-width:1.5;" x="323.421079" xlink:href="#m99e637f952" y="289.691294"/>
     <use style="fill:#0000ff;stroke:#0000ff;stroke-width:1.5;" x="321.975017" xlink:href="#m99e637f952" y="238.022531"/>
     <use style="fill:#0000ff;stroke:#0000ff;stroke-width:1.5;" x="322.915795" xlink:href="#m99e637f952" y="244.156587"/>
     <use style="fill:#0000ff;stroke:#0000ff;stroke-width:1.5;" x="260.221744" xlink:href="#m99e637f952" y="300.87521"/>
     <use style="fill:#0000ff;stroke:#0000ff;stroke-width:1.5;" x="237.80501" xlink:href="#m99e637f952" y="288.82141"/>
     <use style="fill:#0000ff;stroke:#0000ff;stroke-width:1.5;" x="264.978647" xlink:href="#m99e637f952" y="328.953737"/>
     <use style="fill:#0000ff;stroke:#0000ff;stroke-width:1.5;" x="221.511764" xlink:href="#m99e637f952" y="301.808415"/>
     <use style="fill:#0000ff;stroke:#0000ff;stroke-width:1.5;" x="226.636185" xlink:href="#m99e637f952" y="305.154968"/>
     <use style="fill:#0000ff;stroke:#0000ff;stroke-width:1.5;" x="192.539321" xlink:href="#m99e637f952" y="284.042764"/>
     <use style="fill:#0000ff;stroke:#0000ff;stroke-width:1.5;" x="335.400352" xlink:href="#m99e637f952" y="269.5806"/>
     <use style="fill:#0000ff;stroke:#0000ff;stroke-width:1.5;" x="354.508844" xlink:href="#m99e637f952" y="230.244981"/>
     <use style="fill:#0000ff;stroke:#0000ff;stroke-width:1.5;" x="270.639993" xlink:href="#m99e637f952" y="249.547272"/>
     <use style="fill:#0000ff;stroke:#0000ff;stroke-width:1.5;" x="207.615817" xlink:href="#m99e637f952" y="208.357737"/>
     <use style="fill:#0000ff;stroke:#0000ff;stroke-width:1.5;" x="303.699069" xlink:href="#m99e637f952" y="306.439506"/>
     <use style="fill:#0000ff;stroke:#0000ff;stroke-width:1.5;" x="349.348565" xlink:href="#m99e637f952" y="249.296681"/>
     <use style="fill:#0000ff;stroke:#0000ff;stroke-width:1.5;" x="341.917704" xlink:href="#m99e637f952" y="262.488234"/>
     <use style="fill:#0000ff;stroke:#0000ff;stroke-width:1.5;" x="291.737431" xlink:href="#m99e637f952" y="331.048994"/>
     <use style="fill:#0000ff;stroke:#0000ff;stroke-width:1.5;" x="304.963512" xlink:href="#m99e637f952" y="315.256026"/>
     <use style="fill:#0000ff;stroke:#0000ff;stroke-width:1.5;" x="254.951039" xlink:href="#m99e637f952" y="282.582196"/>
     <use style="fill:#0000ff;stroke:#0000ff;stroke-width:1.5;" x="295.912225" xlink:href="#m99e637f952" y="254.182899"/>
     <use style="fill:#0000ff;stroke:#0000ff;stroke-width:1.5;" x="297.485243" xlink:href="#m99e637f952" y="295.358127"/>
     <use style="fill:#0000ff;stroke:#0000ff;stroke-width:1.5;" x="301.700748" xlink:href="#m99e637f952" y="280.542441"/>
     <use style="fill:#0000ff;stroke:#0000ff;stroke-width:1.5;" x="201.110805" xlink:href="#m99e637f952" y="301.543632"/>
     <use style="fill:#0000ff;stroke:#0000ff;stroke-width:1.5;" x="315.486973" xlink:href="#m99e637f952" y="227.774738"/>
     <use style="fill:#0000ff;stroke:#0000ff;stroke-width:1.5;" x="302.039247" xlink:href="#m99e637f952" y="276.958439"/>
     <use style="fill:#0000ff;stroke:#0000ff;stroke-width:1.5;" x="270.315733" xlink:href="#m99e637f952" y="241.977118"/>
     <use style="fill:#0000ff;stroke:#0000ff;stroke-width:1.5;" x="224.946406" xlink:href="#m99e637f952" y="204.681945"/>
     <use style="fill:#0000ff;stroke:#0000ff;stroke-width:1.5;" x="308.804075" xlink:href="#m99e637f952" y="289.187637"/>
     <use style="fill:#0000ff;stroke:#0000ff;stroke-width:1.5;" x="310.477834" xlink:href="#m99e637f952" y="221.11175"/>
     <use style="fill:#0000ff;stroke:#0000ff;stroke-width:1.5;" x="324.081542" xlink:href="#m99e637f952" y="250.455847"/>
     <use style="fill:#0000ff;stroke:#0000ff;stroke-width:1.5;" x="323.769038" xlink:href="#m99e637f952" y="306.837543"/>
     <use style="fill:#0000ff;stroke:#0000ff;stroke-width:1.5;" x="304.109218" xlink:href="#m99e637f952" y="261.696197"/>
     <use style="fill:#0000ff;stroke:#0000ff;stroke-width:1.5;" x="213.693402" xlink:href="#m99e637f952" y="292.234861"/>
     <use style="fill:#0000ff;stroke:#0000ff;stroke-width:1.5;" x="201.039676" xlink:href="#m99e637f952" y="240.5207"/>
     <use style="fill:#0000ff;stroke:#0000ff;stroke-width:1.5;" x="304.24781" xlink:href="#m99e637f952" y="237.538245"/>
     <use style="fill:#0000ff;stroke:#0000ff;stroke-width:1.5;" x="315.634928" xlink:href="#m99e637f952" y="253.590666"/>
     <use style="fill:#0000ff;stroke:#0000ff;stroke-width:1.5;" x="253.54374" xlink:href="#m99e637f952" y="283.621266"/>
     <use style="fill:#0000ff;stroke:#0000ff;stroke-width:1.5;" x="310.85312" xlink:href="#m99e637f952" y="203.004"/>
     <use style="fill:#0000ff;stroke:#0000ff;stroke-width:1.5;" x="279.446872" xlink:href="#m99e637f952" y="242.554305"/>
     <use style="fill:#0000ff;stroke:#0000ff;stroke-width:1.5;" x="289.307587" xlink:href="#m99e637f952" y="272.352002"/>
     <use style="fill:#0000ff;stroke:#0000ff;stroke-width:1.5;" x="360.107015" xlink:href="#m99e637f952" y="266.693229"/>
     <use style="fill:#0000ff;stroke:#0000ff;stroke-width:1.5;" x="300.522295" xlink:href="#m99e637f952" y="323.27186"/>
     <use style="fill:#0000ff;stroke:#0000ff;stroke-width:1.5;" x="289.045731" xlink:href="#m99e637f952" y="242.739841"/>
     <use style="fill:#0000ff;stroke:#0000ff;stroke-width:1.5;" x="324.76366" xlink:href="#m99e637f952" y="256.715162"/>
     <use style="fill:#0000ff;stroke:#0000ff;stroke-width:1.5;" x="301.608693" xlink:href="#m99e637f952" y="285.893665"/>
     <use style="fill:#0000ff;stroke:#0000ff;stroke-width:1.5;" x="310.912907" xlink:href="#m99e637f952" y="297.73454"/>
     <use style="fill:#0000ff;stroke:#0000ff;stroke-width:1.5;" x="355.569217" xlink:href="#m99e637f952" y="274.335586"/>
     <use style="fill:#0000ff;stroke:#0000ff;stroke-width:1.5;" x="323.490638" xlink:href="#m99e637f952" y="247.26956"/>
     <use style="fill:#0000ff;stroke:#0000ff;stroke-width:1.5;" x="301.680469" xlink:href="#m99e637f952" y="273.807095"/>
     <use style="fill:#0000ff;stroke:#0000ff;stroke-width:1.5;" x="259.08042" xlink:href="#m99e637f952" y="362.778279"/>
     <use style="fill:#0000ff;stroke:#0000ff;stroke-width:1.5;" x="387.454425" xlink:href="#m99e637f952" y="166.515195"/>
     <use style="fill:#0000ff;stroke:#0000ff;stroke-width:1.5;" x="357.233925" xlink:href="#m99e637f952" y="280.025025"/>
     <use style="fill:#0000ff;stroke:#0000ff;stroke-width:1.5;" x="293.996881" xlink:href="#m99e637f952" y="251.011694"/>
     <use style="fill:#0000ff;stroke:#0000ff;stroke-width:1.5;" x="241.867772" xlink:href="#m99e637f952" y="247.191165"/>
     <use style="fill:#0000ff;stroke:#0000ff;stroke-width:1.5;" x="228.942475" xlink:href="#m99e637f952" y="278.483681"/>
     <use style="fill:#0000ff;stroke:#0000ff;stroke-width:1.5;" x="373.623963" xlink:href="#m99e637f952" y="251.206793"/>
     <use style="fill:#0000ff;stroke:#0000ff;stroke-width:1.5;" x="266.033554" xlink:href="#m99e637f952" y="280.218467"/>
     <use style="fill:#0000ff;stroke:#0000ff;stroke-width:1.5;" x="247.179622" xlink:href="#m99e637f952" y="245.680006"/>
     <use style="fill:#0000ff;stroke:#0000ff;stroke-width:1.5;" x="277.357036" xlink:href="#m99e637f952" y="313.23305"/>
     <use style="fill:#0000ff;stroke:#0000ff;stroke-width:1.5;" x="270.661504" xlink:href="#m99e637f952" y="375.564324"/>
     <use style="fill:#0000ff;stroke:#0000ff;stroke-width:1.5;" x="267.947757" xlink:href="#m99e637f952" y="242.828563"/>
     <use style="fill:#0000ff;stroke:#0000ff;stroke-width:1.5;" x="302.008426" xlink:href="#m99e637f952" y="295.923691"/>
     <use style="fill:#0000ff;stroke:#0000ff;stroke-width:1.5;" x="322.943402" xlink:href="#m99e637f952" y="302.10052"/>
     <use style="fill:#0000ff;stroke:#0000ff;stroke-width:1.5;" x="289.20012" xlink:href="#m99e637f952" y="274.77415"/>
     <use style="fill:#0000ff;stroke:#0000ff;stroke-width:1.5;" x="242.789767" xlink:href="#m99e637f952" y="222.755123"/>
     <use style="fill:#0000ff;stroke:#0000ff;stroke-width:1.5;" x="335.24266" xlink:href="#m99e637f952" y="271.749849"/>
     <use style="fill:#0000ff;stroke:#0000ff;stroke-width:1.5;" x="225.145125" xlink:href="#m99e637f952" y="291.262659"/>
     <use style="fill:#0000ff;stroke:#0000ff;stroke-width:1.5;" x="384.076143" xlink:href="#m99e637f952" y="290.817602"/>
     <use style="fill:#0000ff;stroke:#0000ff;stroke-width:1.5;" x="274.383758" xlink:href="#m99e637f952" y="236.00249"/>
     <use style="fill:#0000ff;stroke:#0000ff;stroke-width:1.5;" x="294.355211" xlink:href="#m99e637f952" y="304.310782"/>
     <use style="fill:#0000ff;stroke:#0000ff;stroke-width:1.5;" x="213.816182" xlink:href="#m99e637f952" y="323.369312"/>
     <use style="fill:#0000ff;stroke:#0000ff;stroke-width:1.5;" x="339.37394" xlink:href="#m99e637f952" y="241.622556"/>
     <use style="fill:#0000ff;stroke:#0000ff;stroke-width:1.5;" x="327.387719" xlink:href="#m99e637f952" y="300.639404"/>
     <use style="fill:#0000ff;stroke:#0000ff;stroke-width:1.5;" x="270.965107" xlink:href="#m99e637f952" y="270.756657"/>
     <use style="fill:#0000ff;stroke:#0000ff;stroke-width:1.5;" x="307.175842" xlink:href="#m99e637f952" y="263.689853"/>
     <use style="fill:#0000ff;stroke:#0000ff;stroke-width:1.5;" x="359.252055" xlink:href="#m99e637f952" y="288.635025"/>
     <use style="fill:#0000ff;stroke:#0000ff;stroke-width:1.5;" x="277.701756" xlink:href="#m99e637f952" y="312.007993"/>
     <use style="fill:#0000ff;stroke:#0000ff;stroke-width:1.5;" x="343.832677" xlink:href="#m99e637f952" y="213.152586"/>
     <use style="fill:#0000ff;stroke:#0000ff;stroke-width:1.5;" x="315.442152" xlink:href="#m99e637f952" y="249.319872"/>
     <use style="fill:#0000ff;stroke:#0000ff;stroke-width:1.5;" x="248.261655" xlink:href="#m99e637f952" y="386.078673"/>
     <use style="fill:#0000ff;stroke:#0000ff;stroke-width:1.5;" x="255.565063" xlink:href="#m99e637f952" y="293.554426"/>
     <use style="fill:#0000ff;stroke:#0000ff;stroke-width:1.5;" x="292.880333" xlink:href="#m99e637f952" y="353.440744"/>
     <use style="fill:#0000ff;stroke:#0000ff;stroke-width:1.5;" x="285.043358" xlink:href="#m99e637f952" y="261.052241"/>
     <use style="fill:#0000ff;stroke:#0000ff;stroke-width:1.5;" x="359.586273" xlink:href="#m99e637f952" y="209.368688"/>
     <use style="fill:#0000ff;stroke:#0000ff;stroke-width:1.5;" x="306.435875" xlink:href="#m99e637f952" y="190.189625"/>
     <use style="fill:#0000ff;stroke:#0000ff;stroke-width:1.5;" x="291.353543" xlink:href="#m99e637f952" y="314.03983"/>
     <use style="fill:#0000ff;stroke:#0000ff;stroke-width:1.5;" x="320.735236" xlink:href="#m99e637f952" y="311.314837"/>
     <use style="fill:#0000ff;stroke:#0000ff;stroke-width:1.5;" x="234.063393" xlink:href="#m99e637f952" y="329.54067"/>
     <use style="fill:#0000ff;stroke:#0000ff;stroke-width:1.5;" x="375.540771" xlink:href="#m99e637f952" y="260.78496"/>
     <use style="fill:#0000ff;stroke:#0000ff;stroke-width:1.5;" x="259.657615" xlink:href="#m99e637f952" y="309.402196"/>
     <use style="fill:#0000ff;stroke:#0000ff;stroke-width:1.5;" x="297.232442" xlink:href="#m99e637f952" y="250.51456"/>
     <use style="fill:#0000ff;stroke:#0000ff;stroke-width:1.5;" x="219.271093" xlink:href="#m99e637f952" y="265.029968"/>
     <use style="fill:#0000ff;stroke:#0000ff;stroke-width:1.5;" x="183.810764" xlink:href="#m99e637f952" y="341.283325"/>
     <use style="fill:#0000ff;stroke:#0000ff;stroke-width:1.5;" x="312.892351" xlink:href="#m99e637f952" y="256.202612"/>
     <use style="fill:#0000ff;stroke:#0000ff;stroke-width:1.5;" x="282.923519" xlink:href="#m99e637f952" y="221.409706"/>
     <use style="fill:#0000ff;stroke:#0000ff;stroke-width:1.5;" x="285.875593" xlink:href="#m99e637f952" y="287.670578"/>
     <use style="fill:#0000ff;stroke:#0000ff;stroke-width:1.5;" x="331.198181" xlink:href="#m99e637f952" y="247.643043"/>
     <use style="fill:#0000ff;stroke:#0000ff;stroke-width:1.5;" x="230.420404" xlink:href="#m99e637f952" y="284.805738"/>
     <use style="fill:#0000ff;stroke:#0000ff;stroke-width:1.5;" x="315.229699" xlink:href="#m99e637f952" y="165.054611"/>
     <use style="fill:#0000ff;stroke:#0000ff;stroke-width:1.5;" x="324.525537" xlink:href="#m99e637f952" y="275.048581"/>
     <use style="fill:#0000ff;stroke:#0000ff;stroke-width:1.5;" x="274.156792" xlink:href="#m99e637f952" y="292.436434"/>
     <use style="fill:#0000ff;stroke:#0000ff;stroke-width:1.5;" x="315.087729" xlink:href="#m99e637f952" y="261.722275"/>
     <use style="fill:#0000ff;stroke:#0000ff;stroke-width:1.5;" x="268.508708" xlink:href="#m99e637f952" y="321.930394"/>
     <use style="fill:#0000ff;stroke:#0000ff;stroke-width:1.5;" x="276.193242" xlink:href="#m99e637f952" y="343.35098"/>
     <use style="fill:#0000ff;stroke:#0000ff;stroke-width:1.5;" x="313.302055" xlink:href="#m99e637f952" y="264.391798"/>
     <use style="fill:#0000ff;stroke:#0000ff;stroke-width:1.5;" x="263.646537" xlink:href="#m99e637f952" y="324.124784"/>
     <use style="fill:#0000ff;stroke:#0000ff;stroke-width:1.5;" x="270.119976" xlink:href="#m99e637f952" y="233.550016"/>
     <use style="fill:#0000ff;stroke:#0000ff;stroke-width:1.5;" x="320.026237" xlink:href="#m99e637f952" y="266.149415"/>
     <use style="fill:#0000ff;stroke:#0000ff;stroke-width:1.5;" x="241.676774" xlink:href="#m99e637f952" y="298.032504"/>
     <use style="fill:#0000ff;stroke:#0000ff;stroke-width:1.5;" x="308.619028" xlink:href="#m99e637f952" y="300.639851"/>
     <use style="fill:#0000ff;stroke:#0000ff;stroke-width:1.5;" x="289.275031" xlink:href="#m99e637f952" y="276.456411"/>
     <use style="fill:#0000ff;stroke:#0000ff;stroke-width:1.5;" x="291.320316" xlink:href="#m99e637f952" y="235.977959"/>
     <use style="fill:#0000ff;stroke:#0000ff;stroke-width:1.5;" x="338.093436" xlink:href="#m99e637f952" y="221.202949"/>
     <use style="fill:#0000ff;stroke:#0000ff;stroke-width:1.5;" x="230.289235" xlink:href="#m99e637f952" y="229.855427"/>
     <use style="fill:#0000ff;stroke:#0000ff;stroke-width:1.5;" x="303.264324" xlink:href="#m99e637f952" y="292.646077"/>
     <use style="fill:#0000ff;stroke:#0000ff;stroke-width:1.5;" x="264.207686" xlink:href="#m99e637f952" y="239.616392"/>
     <use style="fill:#0000ff;stroke:#0000ff;stroke-width:1.5;" x="301.183479" xlink:href="#m99e637f952" y="318.20309"/>
     <use style="fill:#0000ff;stroke:#0000ff;stroke-width:1.5;" x="358.004333" xlink:href="#m99e637f952" y="289.246513"/>
     <use style="fill:#0000ff;stroke:#0000ff;stroke-width:1.5;" x="217.569717" xlink:href="#m99e637f952" y="247.270124"/>
     <use style="fill:#0000ff;stroke:#0000ff;stroke-width:1.5;" x="275.960672" xlink:href="#m99e637f952" y="297.197926"/>
     <use style="fill:#0000ff;stroke:#0000ff;stroke-width:1.5;" x="322.682875" xlink:href="#m99e637f952" y="301.9752"/>
     <use style="fill:#0000ff;stroke:#0000ff;stroke-width:1.5;" x="283.12585" xlink:href="#m99e637f952" y="265.777941"/>
     <use style="fill:#0000ff;stroke:#0000ff;stroke-width:1.5;" x="258.444196" xlink:href="#m99e637f952" y="249.98403"/>
     <use style="fill:#0000ff;stroke:#0000ff;stroke-width:1.5;" x="219.628965" xlink:href="#m99e637f952" y="303.248715"/>
     <use style="fill:#0000ff;stroke:#0000ff;stroke-width:1.5;" x="148.945344" xlink:href="#m99e637f952" y="298.758593"/>
     <use style="fill:#0000ff;stroke:#0000ff;stroke-width:1.5;" x="238.509913" xlink:href="#m99e637f952" y="344.427655"/>
     <use style="fill:#0000ff;stroke:#0000ff;stroke-width:1.5;" x="466.56558" xlink:href="#m99e637f952" y="187.404276"/>
     <use style="fill:#0000ff;stroke:#0000ff;stroke-width:1.5;" x="324.217016" xlink:href="#m99e637f952" y="311.125446"/>
     <use style="fill:#0000ff;stroke:#0000ff;stroke-width:1.5;" x="281.054163" xlink:href="#m99e637f952" y="215.851981"/>
     <use style="fill:#0000ff;stroke:#0000ff;stroke-width:1.5;" x="260.00958" xlink:href="#m99e637f952" y="251.304218"/>
     <use style="fill:#0000ff;stroke:#0000ff;stroke-width:1.5;" x="324.048654" xlink:href="#m99e637f952" y="232.743213"/>
     <use style="fill:#0000ff;stroke:#0000ff;stroke-width:1.5;" x="342.809895" xlink:href="#m99e637f952" y="259.697235"/>
     <use style="fill:#0000ff;stroke:#0000ff;stroke-width:1.5;" x="262.101687" xlink:href="#m99e637f952" y="295.213742"/>
     <use style="fill:#0000ff;stroke:#0000ff;stroke-width:1.5;" x="350.436715" xlink:href="#m99e637f952" y="298.777014"/>
     <use style="fill:#0000ff;stroke:#0000ff;stroke-width:1.5;" x="-1" xlink:href="#m99e637f952" y="524.306349"/>
     <use style="fill:#0000ff;stroke:#0000ff;stroke-width:1.5;" x="-1" xlink:href="#m99e637f952" y="510.130719"/>
     <use style="fill:#0000ff;stroke:#0000ff;stroke-width:1.5;" x="265.605024" xlink:href="#m99e637f952" y="303.47157"/>
     <use style="fill:#0000ff;stroke:#0000ff;stroke-width:1.5;" x="339.163706" xlink:href="#m99e637f952" y="260.324921"/>
    </g>
   </g>
   <g id="PathCollection_2">
    <defs>
     <path d="M 0 3 
C 0.795609 3 1.55874 2.683901 2.12132 2.12132 
C 2.683901 1.55874 3 0.795609 3 0 
C 3 -0.795609 2.683901 -1.55874 2.12132 -2.12132 
C 1.55874 -2.683901 0.795609 -3 0 -3 
C -0.795609 -3 -1.55874 -2.683901 -2.12132 -2.12132 
C -2.683901 -1.55874 -3 -0.795609 -3 0 
C -3 0.795609 -2.683901 1.55874 -2.12132 2.12132 
C -1.55874 2.683901 -0.795609 3 0 3 
z
" id="m1e6c36fd8c" style="stroke:#ff0000;"/>
    </defs>
    <g clip-path="url(#p95869760eb)">
     <use style="fill:#ff0000;stroke:#ff0000;" x="308.171125" xlink:href="#m1e6c36fd8c" y="277.79285"/>
    </g>
   </g>
   <g id="patch_3">
    <path clip-path="url(#p95869760eb)" d="M 308.171125 395.288425 
C 339.511352 395.288425 369.572184 382.90835 391.733071 360.874768 
C 413.893958 338.841186 426.345563 308.953041 426.345563 277.79285 
C 426.345563 246.632659 413.893958 216.744514 391.733071 194.710932 
C 369.572184 172.67735 339.511352 160.297275 308.171125 160.297275 
C 276.830898 160.297275 246.770066 172.67735 224.609179 194.710932 
C 202.448292 216.744514 189.996688 246.632659 189.996688 277.79285 
C 189.996688 308.953041 202.448292 338.841186 224.609179 360.874768 
C 246.770066 382.90835 276.830898 395.288425 308.171125 395.288425 
z
" style="fill:none;stroke:#ff0000;stroke-linejoin:miter;"/>
   </g>
   <g id="matplotlib.axis_1">
    <g id="xtick_1">
     <g id="line2d_1">
      <path clip-path="url(#p95869760eb)" d="M 71.82225 512.784 
L 71.82225 42.8017 
" style="fill:none;stroke:#b0b0b0;stroke-linecap:square;stroke-width:0.8;"/>
     </g>
     <g id="line2d_2">
      <defs>
       <path d="M 0 0 
L 0 3.5 
" id="m8ad3074f78" style="stroke:#000000;stroke-width:0.8;"/>
      </defs>
      <g>
       <use style="stroke:#000000;stroke-width:0.8;" x="71.82225" xlink:href="#m8ad3074f78" y="512.784"/>
      </g>
     </g>
     <g id="text_1">
      <!-- −15 -->
      <defs>
       <path d="M 3 22 
L 3 28.59375 
L 53.40625 28.59375 
L 53.40625 22 
z
" id="FreeSerif-8722"/>
       <path d="M 18.296875 59.296875 
Q 16.5 59.296875 11.09375 57.09375 
L 11.09375 58.5 
L 29.09375 67.59375 
L 29.90625 67.40625 
L 29.90625 7.40625 
Q 29.90625 3.796875 31.703125 2.6875 
Q 33.5 1.59375 39.40625 1.5 
L 39.40625 0 
L 11.796875 0 
L 11.796875 1.5 
Q 17.40625 1.703125 19.34375 3.140625 
Q 21.296875 4.59375 21.296875 9.296875 
L 21.296875 54.59375 
Q 21.296875 59.296875 18.296875 59.296875 
z
" id="FreeSerif-49"/>
       <path d="M 35.703125 19.40625 
Q 35.703125 24.703125 33.34375 28.796875 
Q 31 32.90625 27.640625 35.15625 
Q 24.296875 37.40625 20.140625 38.84375 
Q 16 40.296875 12.953125 40.75 
Q 9.90625 41.203125 7.59375 41.203125 
Q 6.40625 41.203125 6.40625 42 
Q 6.40625 42.296875 6.5 42.5 
L 17.40625 66.203125 
L 38.296875 66.203125 
Q 39.90625 66.203125 40.84375 66.703125 
Q 41.796875 67.203125 42.90625 68.796875 
L 43.796875 68.09375 
L 40 59.203125 
Q 39.59375 58.296875 37.703125 58.296875 
L 18.09375 58.296875 
L 13.90625 49.796875 
Q 28.5 47.203125 35.59375 41.34375 
Q 42.703125 35.5 42.703125 24.203125 
Q 42.703125 18.296875 40.84375 13.6875 
Q 39 9.09375 36.140625 6.296875 
Q 33.296875 3.5 29.546875 1.703125 
Q 25.796875 -0.09375 22.34375 -0.75 
Q 18.90625 -1.40625 15.40625 -1.40625 
Q 9.796875 -1.40625 6.5 0.25 
Q 3.203125 1.90625 3.203125 4.796875 
Q 3.203125 8.5 7.5 8.5 
Q 10.296875 8.5 14.75 5.390625 
Q 19.203125 2.296875 21.796875 2.296875 
Q 27.703125 2.296875 31.703125 7.25 
Q 35.703125 12.203125 35.703125 19.40625 
z
" id="FreeSerif-53"/>
      </defs>
      <g transform="translate(57.745688 532.077437)scale(0.18 -0.18)">
       <use xlink:href="#FreeSerif-8722"/>
       <use x="56.399994" xlink:href="#FreeSerif-49"/>
       <use x="106.399979" xlink:href="#FreeSerif-53"/>
      </g>
     </g>
    </g>
    <g id="xtick_2">
     <g id="line2d_3">
      <path clip-path="url(#p95869760eb)" d="M 150.605208 512.784 
L 150.605208 42.8017 
" style="fill:none;stroke:#b0b0b0;stroke-linecap:square;stroke-width:0.8;"/>
     </g>
     <g id="line2d_4">
      <g>
       <use style="stroke:#000000;stroke-width:0.8;" x="150.605208" xlink:href="#m8ad3074f78" y="512.784"/>
      </g>
     </g>
     <g id="text_2">
      <!-- −10 -->
      <defs>
       <path d="M 47.59375 17.796875 
Q 35.203125 -1.40625 25 -1.40625 
Q 14.796875 -1.40625 8.59375 8.390625 
Q 2.40625 18.203125 2.40625 33.59375 
Q 2.40625 48.09375 8.59375 57.84375 
Q 14.796875 67.59375 25.40625 67.59375 
Q 35.203125 67.59375 41.390625 58 
Q 47.59375 48.40625 47.59375 33 
Q 47.59375 17.796875 35.203125 -1.40625 
z
M 25.09375 65 
Q 12 65 12 32.703125 
Q 12 1.203125 25 1.203125 
Q 38 1.203125 38 32.796875 
Q 38 48.5 34.703125 56.75 
Q 31.40625 65 25.09375 65 
z
" id="FreeSerif-48"/>
      </defs>
      <g transform="translate(136.528646 532.077437)scale(0.18 -0.18)">
       <use xlink:href="#FreeSerif-8722"/>
       <use x="56.399994" xlink:href="#FreeSerif-49"/>
       <use x="106.399979" xlink:href="#FreeSerif-48"/>
      </g>
     </g>
    </g>
    <g id="xtick_3">
     <g id="line2d_5">
      <path clip-path="url(#p95869760eb)" d="M 229.388167 512.784 
L 229.388167 42.8017 
" style="fill:none;stroke:#b0b0b0;stroke-linecap:square;stroke-width:0.8;"/>
     </g>
     <g id="line2d_6">
      <g>
       <use style="stroke:#000000;stroke-width:0.8;" x="229.388167" xlink:href="#m8ad3074f78" y="512.784"/>
      </g>
     </g>
     <g id="text_3">
      <!-- −5 -->
      <g transform="translate(219.811604 532.077437)scale(0.18 -0.18)">
       <use xlink:href="#FreeSerif-8722"/>
       <use x="56.399994" xlink:href="#FreeSerif-53"/>
      </g>
     </g>
    </g>
    <g id="xtick_4">
     <g id="line2d_7">
      <path clip-path="url(#p95869760eb)" d="M 308.171125 512.784 
L 308.171125 42.8017 
" style="fill:none;stroke:#b0b0b0;stroke-linecap:square;stroke-width:0.8;"/>
     </g>
     <g id="line2d_8">
      <g>
       <use style="stroke:#000000;stroke-width:0.8;" x="308.171125" xlink:href="#m8ad3074f78" y="512.784"/>
      </g>
     </g>
     <g id="text_4">
      <!-- 0 -->
      <g transform="translate(303.671125 532.077437)scale(0.18 -0.18)">
       <use xlink:href="#FreeSerif-48"/>
      </g>
     </g>
    </g>
    <g id="xtick_5">
     <g id="line2d_9">
      <path clip-path="url(#p95869760eb)" d="M 386.954083 512.784 
L 386.954083 42.8017 
" style="fill:none;stroke:#b0b0b0;stroke-linecap:square;stroke-width:0.8;"/>
     </g>
     <g id="line2d_10">
      <g>
       <use style="stroke:#000000;stroke-width:0.8;" x="386.954083" xlink:href="#m8ad3074f78" y="512.784"/>
      </g>
     </g>
     <g id="text_5">
      <!-- 5 -->
      <g transform="translate(382.454083 532.077437)scale(0.18 -0.18)">
       <use xlink:href="#FreeSerif-53"/>
      </g>
     </g>
    </g>
    <g id="xtick_6">
     <g id="line2d_11">
      <path clip-path="url(#p95869760eb)" d="M 465.737042 512.784 
L 465.737042 42.8017 
" style="fill:none;stroke:#b0b0b0;stroke-linecap:square;stroke-width:0.8;"/>
     </g>
     <g id="line2d_12">
      <g>
       <use style="stroke:#000000;stroke-width:0.8;" x="465.737042" xlink:href="#m8ad3074f78" y="512.784"/>
      </g>
     </g>
     <g id="text_6">
      <!-- 10 -->
      <g transform="translate(456.737042 532.077437)scale(0.18 -0.18)">
       <use xlink:href="#FreeSerif-49"/>
       <use x="49.999985" xlink:href="#FreeSerif-48"/>
      </g>
     </g>
    </g>
    <g id="xtick_7">
     <g id="line2d_13">
      <path clip-path="url(#p95869760eb)" d="M 544.52 512.784 
L 544.52 42.8017 
" style="fill:none;stroke:#b0b0b0;stroke-linecap:square;stroke-width:0.8;"/>
     </g>
     <g id="line2d_14">
      <g>
       <use style="stroke:#000000;stroke-width:0.8;" x="544.52" xlink:href="#m8ad3074f78" y="512.784"/>
      </g>
     </g>
     <g id="text_7">
      <!-- 15 -->
      <g transform="translate(535.52 532.077437)scale(0.18 -0.18)">
       <use xlink:href="#FreeSerif-49"/>
       <use x="49.999985" xlink:href="#FreeSerif-53"/>
      </g>
     </g>
    </g>
    <g id="text_8">
     <!-- X coordinate error (cm) -->
     <defs>
      <path d="M 69.59375 66.203125 
L 69.59375 64.296875 
Q 64.703125 64 62.046875 62.34375 
Q 59.40625 60.703125 54.703125 54.90625 
L 40.09375 36.703125 
L 59.296875 9.296875 
Q 62.296875 5 64.296875 3.703125 
Q 66.296875 2.40625 70.40625 1.90625 
L 70.40625 0 
L 40.703125 0 
L 40.703125 1.90625 
Q 44.796875 2.296875 46.59375 2.9375 
Q 48.40625 3.59375 48.40625 5 
Q 48.40625 7.203125 43.296875 14.796875 
L 33.796875 28.796875 
L 21.90625 14 
Q 16.703125 7.5 16.703125 5.40625 
Q 16.703125 3.703125 18.296875 2.953125 
Q 19.90625 2.203125 24.296875 1.90625 
L 24.296875 0 
L 1 0 
L 1 1.90625 
Q 4.90625 2.203125 7 3.796875 
Q 9.09375 5.40625 15.5 13.296875 
L 31.203125 32.59375 
L 20.296875 48.59375 
Q 13.296875 58.90625 10.25 61.5 
Q 7.203125 64.09375 2.203125 64.296875 
L 2.203125 66.203125 
L 32.40625 66.203125 
L 32.40625 64.296875 
L 29.59375 64.203125 
Q 24.796875 64.09375 24.796875 61.296875 
Q 24.796875 58.09375 33.296875 46.296875 
L 37.5 40.40625 
L 48.796875 54.203125 
Q 52.796875 59.203125 52.796875 61.09375 
Q 52.796875 62.796875 51.34375 63.4375 
Q 49.90625 64.09375 45.796875 64.296875 
L 45.796875 66.203125 
z
" id="FreeSerif-88"/>
      <path id="FreeSerif-32"/>
      <path d="M 2.5 21.296875 
Q 2.5 32.40625 9.046875 39.203125 
Q 15.59375 46 24.40625 46 
Q 30.703125 46 35.25 42.953125 
Q 39.796875 39.90625 39.796875 35.703125 
Q 39.796875 34 38.390625 32.75 
Q 37 31.5 35 31.5 
Q 31.59375 31.5 30.296875 36.09375 
L 29.703125 38.296875 
Q 28.90625 41.09375 27.703125 42.09375 
Q 26.5 43.09375 23.796875 43.09375 
Q 17.703125 43.09375 13.953125 38.25 
Q 10.203125 33.40625 10.203125 25.703125 
Q 10.203125 17.09375 14.546875 11.640625 
Q 18.90625 6.203125 25.703125 6.203125 
Q 30 6.203125 33.09375 8.25 
Q 36.203125 10.296875 39.796875 15.59375 
L 41.203125 14.703125 
Q 40.203125 12.703125 39.453125 11.390625 
Q 38.703125 10.09375 36.75 7.5 
Q 34.796875 4.90625 32.890625 3.296875 
Q 31 1.703125 27.890625 0.34375 
Q 24.796875 -1 21.5 -1 
Q 13.203125 -1 7.84375 5.25 
Q 2.5 11.5 2.5 21.296875 
z
" id="FreeSerif-99"/>
      <path d="M 24.59375 46 
Q 34.203125 46 40.390625 39.59375 
Q 46.59375 33.203125 46.59375 23.40625 
Q 46.59375 13 40.1875 6 
Q 33.796875 -1 24.390625 -1 
Q 15 -1 8.75 5.75 
Q 2.5 12.5 2.5 22.59375 
Q 2.5 32.90625 8.640625 39.453125 
Q 14.796875 46 24.59375 46 
z
M 11.5 27.5 
Q 11.5 16.796875 15.390625 9.296875 
Q 19.296875 1.796875 25.59375 1.796875 
Q 31.203125 1.796875 34.390625 6.59375 
Q 37.59375 11.40625 37.59375 19.90625 
Q 37.59375 30.203125 33.59375 36.703125 
Q 29.59375 43.203125 23.296875 43.203125 
Q 18 43.203125 14.75 38.890625 
Q 11.5 34.59375 11.5 27.5 
z
" id="FreeSerif-111"/>
      <path d="M 30.09375 36.203125 
Q 28.59375 36.203125 26.390625 37.953125 
Q 24.203125 39.703125 23.5 39.703125 
Q 21.5 39.703125 19 36.796875 
Q 16.5 33.90625 16.5 31.5 
L 16.5 9 
Q 16.5 4.703125 18.203125 3.203125 
Q 19.90625 1.703125 25 1.5 
L 25 0 
L 1 0 
L 1 1.5 
Q 5.796875 2.40625 6.9375 3.5 
Q 8.09375 4.59375 8.09375 8.40625 
L 8.09375 33.40625 
Q 8.09375 36.703125 7.34375 38.046875 
Q 6.59375 39.40625 4.703125 39.40625 
Q 3.09375 39.40625 1.203125 39 
L 1.203125 40.59375 
Q 9.203125 43.203125 16 46 
L 16.5 45.796875 
L 16.5 36.59375 
Q 20.203125 41.90625 22.796875 43.953125 
Q 25.40625 46 28.5 46 
Q 31.09375 46 32.546875 44.59375 
Q 34 43.203125 34 40.703125 
Q 34 38.59375 32.953125 37.390625 
Q 31.90625 36.203125 30.09375 36.203125 
z
" id="FreeSerif-114"/>
      <path d="M 34.203125 -1 
L 33.796875 -0.703125 
L 33.796875 5.703125 
Q 29 -1 21 -1 
Q 12.703125 -1 7.59375 4.953125 
Q 2.5 10.90625 2.5 20.5 
Q 2.5 31.09375 8.59375 38.546875 
Q 14.703125 46 23.296875 46 
Q 28.703125 46 33.796875 41.703125 
L 33.796875 57.296875 
Q 33.796875 60.40625 32.890625 61.40625 
Q 32 62.40625 29.203125 62.40625 
Q 27.796875 62.40625 27 62.296875 
L 27 63.90625 
Q 36.09375 66.296875 41.703125 68.296875 
L 42.203125 68.09375 
L 42.203125 11.40625 
Q 42.203125 7.90625 43.046875 6.796875 
Q 43.90625 5.703125 46.59375 5.703125 
Q 47.09375 5.703125 48.90625 5.796875 
L 48.90625 4.203125 
z
M 24.90625 4.203125 
Q 28.703125 4.203125 31.25 6.34375 
Q 33.796875 8.5 33.796875 10.203125 
L 33.796875 33.203125 
Q 33.796875 37.203125 30.6875 40.203125 
Q 27.59375 43.203125 23.59375 43.203125 
Q 17.90625 43.203125 14.5 38.09375 
Q 11.09375 33 11.09375 24.5 
Q 11.09375 15.296875 14.890625 9.75 
Q 18.703125 4.203125 24.90625 4.203125 
z
" id="FreeSerif-100"/>
      <path d="M 6.203125 39.296875 
Q 4 39.296875 2 39 
L 2 40.5 
Q 9 42.5 17.5 46 
L 17.90625 45.703125 
L 17.90625 10.203125 
Q 17.90625 4.796875 19.15625 3.34375 
Q 20.40625 1.90625 25.296875 1.5 
L 25.296875 0 
L 1.59375 0 
L 1.59375 1.5 
Q 6.796875 1.796875 8.140625 3.296875 
Q 9.5 4.796875 9.5 10.203125 
L 9.5 33.40625 
Q 9.5 36.703125 8.75 38 
Q 8 39.296875 6.203125 39.296875 
z
M 12.796875 68.296875 
Q 15 68.296875 16.5 66.796875 
Q 18 65.296875 18 63.203125 
Q 18 61 16.5 59.546875 
Q 15 58.09375 12.796875 58.09375 
Q 10.703125 58.09375 9.25 59.59375 
Q 7.796875 61.09375 7.796875 63.1875 
Q 7.796875 65.296875 9.296875 66.796875 
Q 10.796875 68.296875 12.796875 68.296875 
z
" id="FreeSerif-105"/>
      <path d="M 1 39.796875 
L 1 41.5 
Q 8.40625 43.703125 14.796875 46 
L 15.5 45.796875 
L 15.5 37.90625 
Q 20.59375 42.703125 23.546875 44.34375 
Q 26.5 46 30 46 
Q 35.5 46 38.640625 42.046875 
Q 41.796875 38.09375 41.796875 31 
L 41.796875 8.09375 
Q 41.796875 4.40625 43 3.15625 
Q 44.203125 1.90625 47.90625 1.5 
L 47.90625 0 
L 27.09375 0 
L 27.09375 1.5 
Q 30.90625 1.796875 32.15625 3.5 
Q 33.40625 5.203125 33.40625 9.90625 
L 33.40625 30.796875 
Q 33.40625 40.5 26.09375 40.5 
Q 23.59375 40.5 21.5 39.34375 
Q 19.40625 38.203125 15.796875 34.796875 
L 15.796875 6.703125 
Q 15.796875 4 17.1875 2.890625 
Q 18.59375 1.796875 22.40625 1.5 
L 22.40625 0 
L 1.203125 0 
L 1.203125 1.5 
Q 5 1.796875 6.203125 3.25 
Q 7.40625 4.703125 7.40625 9 
L 7.40625 33.796875 
Q 7.40625 37.5 6.59375 38.84375 
Q 5.796875 40.203125 3.703125 40.203125 
Q 1.796875 40.203125 1 39.796875 
z
" id="FreeSerif-110"/>
      <path d="M 2.5 9.703125 
Q 2.5 11.5 2.890625 13.046875 
Q 3.296875 14.59375 4.296875 15.9375 
Q 5.296875 17.296875 6.1875 18.390625 
Q 7.09375 19.5 8.890625 20.640625 
Q 10.703125 21.796875 11.890625 22.546875 
Q 13.09375 23.296875 15.546875 24.34375 
Q 18 25.40625 19.296875 25.953125 
Q 20.59375 26.5 23.390625 27.59375 
Q 26.203125 28.703125 27.5 29.203125 
L 27.5 35.296875 
Q 27.5 43.59375 19.90625 43.59375 
Q 16.90625 43.59375 14.796875 42.140625 
Q 12.703125 40.703125 12.703125 38.703125 
Q 12.703125 37.90625 12.953125 36.5 
Q 13.203125 35.09375 13.203125 34.703125 
Q 13.203125 33 11.84375 31.75 
Q 10.5 30.5 8.703125 30.5 
Q 7 30.5 5.703125 31.796875 
Q 4.40625 33.09375 4.40625 34.796875 
Q 4.40625 39.5 9.25 42.75 
Q 14.09375 46 21.203125 46 
Q 29.40625 46 32.5 42.046875 
Q 35.59375 38.09375 35.59375 30 
L 35.59375 10.5 
Q 35.59375 7.203125 36.25 5.953125 
Q 36.90625 4.703125 38.59375 4.703125 
Q 40.703125 4.703125 43 6.59375 
L 43 4 
Q 40.40625 1.09375 38.453125 0.046875 
Q 36.5 -1 34 -1 
Q 30.90625 -1 29.453125 0.703125 
Q 28 2.40625 27.59375 6.296875 
Q 19 -1 13 -1 
Q 8.40625 -1 5.453125 2 
Q 2.5 5 2.5 9.703125 
z
M 27.5 12.296875 
L 27.5 26.796875 
Q 18.5 23.5 14.890625 20.390625 
Q 11.296875 17.296875 11.296875 12.90625 
Q 11.296875 8.796875 13.296875 6.796875 
Q 15.296875 4.796875 17.59375 4.796875 
Q 21 4.796875 24.90625 7.09375 
Q 26.5 8 27 9 
Q 27.5 10 27.5 12.296875 
z
" id="FreeSerif-97"/>
      <path d="M 25.90625 45 
L 25.90625 41.796875 
L 15.796875 41.796875 
L 15.796875 13.203125 
Q 15.796875 8.5 17 6.34375 
Q 18.203125 4.203125 21 4.203125 
Q 24.09375 4.203125 27 7.703125 
L 28.296875 6.59375 
Q 23.5 -1 16.296875 -1 
Q 7.40625 -1 7.40625 11.703125 
L 7.40625 41.796875 
L 2.09375 41.796875 
Q 1.703125 42.09375 1.703125 42.5 
Q 1.703125 43 2 43.296875 
Q 2.296875 43.59375 3.140625 44.140625 
Q 4 44.703125 5.203125 45.640625 
Q 6.40625 46.59375 8.5 49.09375 
Q 10.59375 51.59375 13.09375 55.09375 
Q 14.703125 57.40625 15.09375 57.90625 
Q 15.796875 57.90625 15.796875 56.59375 
L 15.796875 45 
z
" id="FreeSerif-116"/>
      <path d="M 9.703125 27.703125 
Q 9.90625 21.40625 11.40625 16.84375 
Q 12.90625 12.296875 15.296875 10.046875 
Q 17.703125 7.796875 20.140625 6.84375 
Q 22.59375 5.90625 25.296875 5.90625 
Q 30.09375 5.90625 33.640625 8.296875 
Q 37.203125 10.703125 40.796875 16.40625 
L 42.40625 15.703125 
Q 39.296875 7.59375 33.796875 3.296875 
Q 28.296875 -1 21.203125 -1 
Q 12.59375 -1 7.546875 5.046875 
Q 2.5 11.09375 2.5 21.40625 
Q 2.5 32.5 8.34375 39.25 
Q 14.203125 46 23.40625 46 
Q 31 46 35.203125 41.453125 
Q 39.40625 36.90625 40.5 27.703125 
z
M 9.90625 30.90625 
L 30.296875 30.90625 
Q 29.296875 37.40625 27.1875 39.90625 
Q 25.09375 42.40625 20.5 42.40625 
Q 11.5 42.40625 9.90625 30.90625 
z
" id="FreeSerif-101"/>
      <path d="M 29.203125 -17.703125 
Q 26.59375 -16.09375 23.796875 -13.84375 
Q 21 -11.59375 17.453125 -7.59375 
Q 13.90625 -3.59375 11.203125 0.953125 
Q 8.5 5.5 6.640625 11.890625 
Q 4.796875 18.296875 4.796875 25.203125 
Q 4.796875 32.40625 6.640625 38.84375 
Q 8.5 45.296875 11 49.546875 
Q 13.5 53.796875 17.34375 57.75 
Q 21.203125 61.703125 23.703125 63.59375 
Q 26.203125 65.5 29.5 67.59375 
L 30.40625 66 
Q 26 62.40625 23.296875 59.5 
Q 20.59375 56.59375 18.09375 51.9375 
Q 15.59375 47.296875 14.5 40.84375 
Q 13.40625 34.40625 13.40625 25.5 
Q 13.40625 16.203125 14.5 9.5 
Q 15.59375 2.796875 18.09375 -1.953125 
Q 20.59375 -6.703125 23.296875 -9.703125 
Q 26 -12.703125 30.40625 -16.09375 
z
" id="FreeSerif-40"/>
      <path d="M 1.296875 39.796875 
L 1.296875 41.5 
Q 8.5 43.5 15.296875 46 
L 16 45.796875 
L 16 38.296875 
Q 22.203125 43 25.203125 44.5 
Q 28.203125 46 31.5 46 
Q 39.40625 46 42.09375 37.59375 
Q 49.90625 46 58.40625 46 
Q 70 46 70 28.203125 
L 70 7.59375 
Q 70 2 74.296875 1.703125 
L 76.90625 1.5 
L 76.90625 0 
L 55 0 
L 55 1.5 
Q 59.40625 2 60.5 3.203125 
Q 61.59375 4.40625 61.59375 8.703125 
L 61.59375 29.796875 
Q 61.59375 36 60 38.390625 
Q 58.40625 40.796875 54.09375 40.796875 
Q 47.5 40.796875 43.203125 34.703125 
L 43.203125 9.5 
Q 43.203125 4.796875 44.640625 3.1875 
Q 46.09375 1.59375 50.40625 1.5 
L 50.40625 0 
L 28 0 
L 28 1.5 
Q 32.296875 1.796875 33.546875 3.09375 
Q 34.796875 4.40625 34.796875 8.59375 
L 34.796875 30.296875 
Q 34.796875 40.796875 28.203125 40.796875 
Q 25.40625 40.796875 21.953125 39.390625 
Q 18.5 38 16.40625 34.90625 
L 16.40625 6.703125 
Q 16.40625 3.796875 17.796875 2.75 
Q 19.203125 1.703125 23.203125 1.5 
L 23.203125 0 
L 1 0 
L 1 1.5 
Q 5.203125 1.59375 6.59375 3 
Q 8 4.40625 8 8.5 
L 8 33.796875 
Q 8 37.40625 7.25 38.796875 
Q 6.5 40.203125 4.5 40.203125 
Q 3 40.203125 1.296875 39.796875 
z
" id="FreeSerif-109"/>
      <path d="M 4.046875 67.703125 
Q 6.65625 66.09375 9.453125 63.84375 
Q 12.25 61.59375 15.796875 57.59375 
Q 19.34375 53.59375 22.046875 49.046875 
Q 24.75 44.5 26.59375 38.09375 
Q 28.453125 31.703125 28.453125 24.796875 
Q 28.453125 17.59375 26.59375 11.140625 
Q 24.75 4.703125 22.25 0.453125 
Q 19.75 -3.796875 15.890625 -7.75 
Q 12.046875 -11.703125 9.546875 -13.59375 
Q 7.046875 -15.5 3.75 -17.59375 
L 2.84375 -16 
Q 7.25 -12.40625 9.953125 -9.5 
Q 12.65625 -6.59375 15.15625 -1.9375 
Q 17.65625 2.703125 18.75 9.140625 
Q 19.84375 15.59375 19.84375 24.5 
Q 19.84375 33.796875 18.75 40.5 
Q 17.65625 47.203125 15.15625 51.953125 
Q 12.65625 56.703125 9.953125 59.703125 
Q 7.25 62.703125 2.84375 66.09375 
z
" id="FreeSerif-41"/>
     </defs>
     <g transform="translate(193.92175 556.37525)scale(0.24 -0.24)">
      <use xlink:href="#FreeSerif-88"/>
      <use x="71.399994" xlink:href="#FreeSerif-32"/>
      <use x="96.399979" xlink:href="#FreeSerif-99"/>
      <use x="140.784348" xlink:href="#FreeSerif-111"/>
      <use x="189.884338" xlink:href="#FreeSerif-111"/>
      <use x="238.968704" xlink:href="#FreeSerif-114"/>
      <use x="273.453064" xlink:href="#FreeSerif-100"/>
      <use x="323.353058" xlink:href="#FreeSerif-105"/>
      <use x="351.137421" xlink:href="#FreeSerif-110"/>
      <use x="400.037415" xlink:href="#FreeSerif-97"/>
      <use x="443.521774" xlink:href="#FreeSerif-116"/>
      <use x="471.821762" xlink:href="#FreeSerif-101"/>
      <use x="516.221756" xlink:href="#FreeSerif-32"/>
      <use x="541.221741" xlink:href="#FreeSerif-101"/>
      <use x="585.60611" xlink:href="#FreeSerif-114"/>
      <use x="620.106094" xlink:href="#FreeSerif-114"/>
      <use x="654.590454" xlink:href="#FreeSerif-111"/>
      <use x="703.67482" xlink:href="#FreeSerif-114"/>
      <use x="738.174805" xlink:href="#FreeSerif-32"/>
      <use x="763.174789" xlink:href="#FreeSerif-40"/>
      <use x="796.474777" xlink:href="#FreeSerif-99"/>
      <use x="840.859146" xlink:href="#FreeSerif-109"/>
      <use x="918.75914" xlink:href="#FreeSerif-41"/>
     </g>
    </g>
   </g>
   <g id="matplotlib.axis_2">
    <g id="ytick_1">
     <g id="line2d_15">
      <path clip-path="url(#p95869760eb)" d="M 71.82225 512.784 
L 544.52 512.784 
" style="fill:none;stroke:#b0b0b0;stroke-linecap:square;stroke-width:0.8;"/>
     </g>
     <g id="line2d_16">
      <defs>
       <path d="M 0 0 
L -3.5 0 
" id="m54d60ec2a0" style="stroke:#000000;stroke-width:0.8;"/>
      </defs>
      <g>
       <use style="stroke:#000000;stroke-width:0.8;" x="71.82225" xlink:href="#m54d60ec2a0" y="512.784"/>
      </g>
     </g>
     <g id="text_9">
      <!-- −15 -->
      <g transform="translate(36.669125 518.930719)scale(0.18 -0.18)">
       <use xlink:href="#FreeSerif-8722"/>
       <use x="56.399994" xlink:href="#FreeSerif-49"/>
       <use x="106.399979" xlink:href="#FreeSerif-53"/>
      </g>
     </g>
    </g>
    <g id="ytick_2">
     <g id="line2d_17">
      <path clip-path="url(#p95869760eb)" d="M 71.82225 434.453617 
L 544.52 434.453617 
" style="fill:none;stroke:#b0b0b0;stroke-linecap:square;stroke-width:0.8;"/>
     </g>
     <g id="line2d_18">
      <g>
       <use style="stroke:#000000;stroke-width:0.8;" x="71.82225" xlink:href="#m54d60ec2a0" y="434.453617"/>
      </g>
     </g>
     <g id="text_10">
      <!-- −10 -->
      <g transform="translate(36.669125 440.600335)scale(0.18 -0.18)">
       <use xlink:href="#FreeSerif-8722"/>
       <use x="56.399994" xlink:href="#FreeSerif-49"/>
       <use x="106.399979" xlink:href="#FreeSerif-48"/>
      </g>
     </g>
    </g>
    <g id="ytick_3">
     <g id="line2d_19">
      <path clip-path="url(#p95869760eb)" d="M 71.82225 356.123233 
L 544.52 356.123233 
" style="fill:none;stroke:#b0b0b0;stroke-linecap:square;stroke-width:0.8;"/>
     </g>
     <g id="line2d_20">
      <g>
       <use style="stroke:#000000;stroke-width:0.8;" x="71.82225" xlink:href="#m54d60ec2a0" y="356.123233"/>
      </g>
     </g>
     <g id="text_11">
      <!-- −5 -->
      <g transform="translate(45.669125 362.269952)scale(0.18 -0.18)">
       <use xlink:href="#FreeSerif-8722"/>
       <use x="56.399994" xlink:href="#FreeSerif-53"/>
      </g>
     </g>
    </g>
    <g id="ytick_4">
     <g id="line2d_21">
      <path clip-path="url(#p95869760eb)" d="M 71.82225 277.79285 
L 544.52 277.79285 
" style="fill:none;stroke:#b0b0b0;stroke-linecap:square;stroke-width:0.8;"/>
     </g>
     <g id="line2d_22">
      <g>
       <use style="stroke:#000000;stroke-width:0.8;" x="71.82225" xlink:href="#m54d60ec2a0" y="277.79285"/>
      </g>
     </g>
     <g id="text_12">
      <!-- 0 -->
      <g transform="translate(55.82225 283.939569)scale(0.18 -0.18)">
       <use xlink:href="#FreeSerif-48"/>
      </g>
     </g>
    </g>
    <g id="ytick_5">
     <g id="line2d_23">
      <path clip-path="url(#p95869760eb)" d="M 71.82225 199.462467 
L 544.52 199.462467 
" style="fill:none;stroke:#b0b0b0;stroke-linecap:square;stroke-width:0.8;"/>
     </g>
     <g id="line2d_24">
      <g>
       <use style="stroke:#000000;stroke-width:0.8;" x="71.82225" xlink:href="#m54d60ec2a0" y="199.462467"/>
      </g>
     </g>
     <g id="text_13">
      <!-- 5 -->
      <g transform="translate(55.82225 205.609185)scale(0.18 -0.18)">
       <use xlink:href="#FreeSerif-53"/>
      </g>
     </g>
    </g>
    <g id="ytick_6">
     <g id="line2d_25">
      <path clip-path="url(#p95869760eb)" d="M 71.82225 121.132083 
L 544.52 121.132083 
" style="fill:none;stroke:#b0b0b0;stroke-linecap:square;stroke-width:0.8;"/>
     </g>
     <g id="line2d_26">
      <g>
       <use style="stroke:#000000;stroke-width:0.8;" x="71.82225" xlink:href="#m54d60ec2a0" y="121.132083"/>
      </g>
     </g>
     <g id="text_14">
      <!-- 10 -->
      <g transform="translate(46.82225 127.278802)scale(0.18 -0.18)">
       <use xlink:href="#FreeSerif-49"/>
       <use x="49.999985" xlink:href="#FreeSerif-48"/>
      </g>
     </g>
    </g>
    <g id="ytick_7">
     <g id="line2d_27">
      <path clip-path="url(#p95869760eb)" d="M 71.82225 42.8017 
L 544.52 42.8017 
" style="fill:none;stroke:#b0b0b0;stroke-linecap:square;stroke-width:0.8;"/>
     </g>
     <g id="line2d_28">
      <g>
       <use style="stroke:#000000;stroke-width:0.8;" x="71.82225" xlink:href="#m54d60ec2a0" y="42.8017"/>
      </g>
     </g>
     <g id="text_15">
      <!-- 15 -->
      <g transform="translate(46.82225 48.948419)scale(0.18 -0.18)">
       <use xlink:href="#FreeSerif-49"/>
       <use x="49.999985" xlink:href="#FreeSerif-53"/>
      </g>
     </g>
    </g>
    <g id="text_16">
     <!-- Z coordinate error (cm) -->
     <defs>
      <path d="M 40.296875 3.796875 
Q 43.09375 3.796875 45.390625 4.296875 
Q 47.703125 4.796875 49.25 5.296875 
Q 50.796875 5.796875 52.140625 7.1875 
Q 53.5 8.59375 54.140625 9.296875 
Q 54.796875 10 55.59375 12.046875 
Q 56.40625 14.09375 56.59375 14.6875 
Q 56.796875 15.296875 57.5 17.59375 
L 59.796875 17.59375 
L 57.40625 0 
L 1 0 
L 1 1.5 
L 44.703125 62.40625 
L 22.59375 62.40625 
Q 17.5 62.40625 14.203125 61.40625 
Q 10.90625 60.40625 9.25 58.203125 
Q 7.59375 56 7 54.203125 
Q 6.40625 52.40625 5.796875 49.09375 
L 3.203125 49.09375 
L 5.203125 66.203125 
L 57.796875 66.203125 
L 57.796875 64.703125 
L 14.59375 3.796875 
z
" id="FreeSerif-90"/>
     </defs>
     <g transform="translate(27.460375 390.8291)rotate(-90)scale(0.24 -0.24)">
      <use xlink:href="#FreeSerif-90"/>
      <use x="61.299988" xlink:href="#FreeSerif-32"/>
      <use x="86.299973" xlink:href="#FreeSerif-99"/>
      <use x="130.684341" xlink:href="#FreeSerif-111"/>
      <use x="179.784332" xlink:href="#FreeSerif-111"/>
      <use x="228.868698" xlink:href="#FreeSerif-114"/>
      <use x="263.353058" xlink:href="#FreeSerif-100"/>
      <use x="313.253052" xlink:href="#FreeSerif-105"/>
      <use x="341.037415" xlink:href="#FreeSerif-110"/>
      <use x="389.937408" xlink:href="#FreeSerif-97"/>
      <use x="433.421768" xlink:href="#FreeSerif-116"/>
      <use x="461.721756" xlink:href="#FreeSerif-101"/>
      <use x="506.12175" xlink:href="#FreeSerif-32"/>
      <use x="531.121735" xlink:href="#FreeSerif-101"/>
      <use x="575.506104" xlink:href="#FreeSerif-114"/>
      <use x="610.006088" xlink:href="#FreeSerif-114"/>
      <use x="644.490448" xlink:href="#FreeSerif-111"/>
      <use x="693.574814" xlink:href="#FreeSerif-114"/>
      <use x="728.074799" xlink:href="#FreeSerif-32"/>
      <use x="753.074783" xlink:href="#FreeSerif-40"/>
      <use x="786.374771" xlink:href="#FreeSerif-99"/>
      <use x="830.75914" xlink:href="#FreeSerif-109"/>
      <use x="908.659134" xlink:href="#FreeSerif-41"/>
     </g>
    </g>
   </g>
   <g id="patch_4">
    <path d="M 71.82225 512.784 
L 71.82225 42.8017 
" style="fill:none;stroke:#000000;stroke-linecap:square;stroke-linejoin:miter;stroke-width:0.8;"/>
   </g>
   <g id="patch_5">
    <path d="M 544.52 512.784 
L 544.52 42.8017 
" style="fill:none;stroke:#000000;stroke-linecap:square;stroke-linejoin:miter;stroke-width:0.8;"/>
   </g>
   <g id="patch_6">
    <path d="M 71.82225 512.784 
L 544.52 512.784 
" style="fill:none;stroke:#000000;stroke-linecap:square;stroke-linejoin:miter;stroke-width:0.8;"/>
   </g>
   <g id="patch_7">
    <path d="M 71.82225 42.8017 
L 544.52 42.8017 
" style="fill:none;stroke:#000000;stroke-linecap:square;stroke-linejoin:miter;stroke-width:0.8;"/>
   </g>
   <g id="text_17">
    <!-- Probability = 96.3% -->
    <defs>
     <path d="M 54.09375 48.09375 
Q 54.09375 45.5 53.5 43.09375 
Q 52.90625 40.703125 51.15625 38 
Q 49.40625 35.296875 46.5 33.34375 
Q 43.59375 31.40625 38.59375 30.09375 
Q 33.59375 28.796875 27 28.796875 
Q 24 28.796875 20.09375 29.09375 
L 20.09375 10.90625 
Q 20.09375 5.40625 21.84375 3.75 
Q 23.59375 2.09375 29.5 1.90625 
L 29.5 0 
L 1.5 0 
L 1.5 1.90625 
Q 7.203125 2.40625 8.546875 4.046875 
Q 9.90625 5.703125 9.90625 12 
L 9.90625 55.296875 
Q 9.90625 60.703125 8.5 62.203125 
Q 7.09375 63.703125 1.5 64.296875 
L 1.5 66.203125 
L 27.90625 66.203125 
Q 32.40625 66.203125 36.59375 65.34375 
Q 40.796875 64.5 44.9375 62.59375 
Q 49.09375 60.703125 51.59375 57 
Q 54.09375 53.296875 54.09375 48.09375 
z
M 20.09375 59.09375 
L 20.09375 33.09375 
Q 23.59375 32.796875 25.796875 32.796875 
Q 43.203125 32.796875 43.203125 47.5 
Q 43.203125 55.203125 38.390625 58.84375 
Q 33.59375 62.5 23.5 62.5 
Q 21.5 62.5 20.796875 61.796875 
Q 20.09375 61.09375 20.09375 59.09375 
z
" id="FreeSerif-80"/>
     <path d="M 16 68.09375 
L 16 37.5 
Q 17.5 41.203125 21.390625 43.59375 
Q 25.296875 46 29.90625 46 
Q 37.40625 46 42.453125 39.75 
Q 47.5 33.5 47.5 24.296875 
Q 47.5 13.59375 40.75 6.296875 
Q 34 -1 24.09375 -1 
Q 18.09375 -1 12.84375 1.046875 
Q 7.59375 3.09375 7.59375 5.40625 
L 7.59375 57.296875 
Q 7.59375 60.40625 6.640625 61.40625 
Q 5.703125 62.40625 2.703125 62.40625 
Q 1.59375 62.40625 1 62.296875 
L 1 63.90625 
Q 8.703125 65.796875 15.5 68.296875 
z
M 16 32.203125 
L 16 7 
Q 16 5.09375 18.890625 3.640625 
Q 21.796875 2.203125 25.703125 2.203125 
Q 31.90625 2.203125 35.296875 6.796875 
Q 38.703125 11.40625 38.703125 19.703125 
Q 38.703125 28.796875 35.25 34.25 
Q 31.796875 39.703125 25.90625 39.703125 
Q 22 39.703125 19 37.390625 
Q 16 35.09375 16 32.203125 
z
" id="FreeSerif-98"/>
     <path d="M 1 62.296875 
L 1 63.90625 
Q 10.90625 66.296875 16.90625 68.296875 
L 17.296875 68.09375 
L 17.296875 8.40625 
Q 17.296875 4.296875 18.640625 3.046875 
Q 20 1.796875 24.796875 1.5 
L 24.796875 0 
L 1.203125 0 
L 1.203125 1.5 
Q 5.90625 1.90625 7.40625 3.296875 
Q 8.90625 4.703125 8.90625 8.703125 
L 8.90625 56.40625 
Q 8.90625 59.90625 8 61.203125 
Q 7.09375 62.5 4.703125 62.5 
Q 2.703125 62.5 1 62.296875 
z
" id="FreeSerif-108"/>
     <path d="M 14.203125 -13.40625 
Q 17 -13.40625 20.09375 -7.203125 
Q 23.203125 -1 23.203125 1.90625 
Q 23.203125 3.203125 18.796875 12 
L 5.59375 40.40625 
Q 4.40625 43 0.5 43.59375 
L 0.5 45 
L 21.09375 45 
L 21.09375 43.5 
Q 17.90625 43.40625 16.59375 42.796875 
Q 15.296875 42.203125 15.296875 40.796875 
Q 15.296875 39.296875 16.296875 37 
L 27.796875 11.703125 
L 37.5 39.296875 
Q 37.90625 40.203125 37.90625 41 
Q 37.90625 43.5 33.09375 43.5 
L 33.09375 45 
L 46.59375 45 
L 46.59375 43.5 
Q 44.796875 43.296875 43.75 42.34375 
Q 42.703125 41.40625 41.796875 39 
L 26.40625 -1.796875 
Q 22.40625 -12.59375 18.453125 -17.1875 
Q 14.5 -21.796875 9.5 -21.796875 
Q 6.296875 -21.796875 4.1875 -20.140625 
Q 2.09375 -18.5 2.09375 -16 
Q 2.09375 -14.203125 3.390625 -12.890625 
Q 4.703125 -11.59375 6.40625 -11.59375 
Q 8.59375 -11.59375 11.09375 -12.5 
Q 13.59375 -13.40625 14.203125 -13.40625 
z
" id="FreeSerif-121"/>
     <path d="M 53.40625 38.59375 
L 53.40625 32 
L 3 32 
L 3 38.59375 
z
M 53.40625 18.59375 
L 53.40625 12 
L 3 12 
L 3 18.59375 
z
" id="FreeSerif-61"/>
     <path d="M 5.90625 -2.203125 
L 5.59375 -0.203125 
Q 17 1.796875 24.953125 9.5 
Q 32.90625 17.203125 36 29.40625 
Q 28.59375 23.703125 21 23.703125 
Q 12.90625 23.703125 7.953125 29.296875 
Q 3 34.90625 3 44 
Q 3 54.09375 8.953125 60.84375 
Q 14.90625 67.59375 23.796875 67.59375 
Q 33.5 67.59375 39.703125 59.6875 
Q 45.90625 51.796875 45.90625 39.40625 
Q 45.90625 35.40625 45.203125 31.203125 
Q 44.5 27 41.953125 21.25 
Q 39.40625 15.5 35.296875 10.953125 
Q 31.203125 6.40625 23.59375 2.703125 
Q 16 -1 5.90625 -2.203125 
z
M 24.59375 28 
Q 26.5 28 28.890625 28.546875 
Q 31.296875 29.09375 33.75 30.9375 
Q 36.203125 32.796875 36.203125 35.5 
L 36.203125 39.40625 
Q 36.203125 64.796875 23 64.796875 
Q 19.90625 64.796875 17.703125 63.140625 
Q 15.5 61.5 14.34375 58.796875 
Q 13.203125 56.09375 12.703125 53.296875 
Q 12.203125 50.5 12.203125 47.40625 
Q 12.203125 38.5 15.546875 33.25 
Q 18.90625 28 24.59375 28 
z
" id="FreeSerif-57"/>
     <path d="M 25.796875 -1.40625 
Q 15.703125 -1.40625 9.546875 6.640625 
Q 3.40625 14.703125 3.40625 27.90625 
Q 3.40625 32 4.203125 36.34375 
Q 5 40.703125 7.703125 46.25 
Q 10.40625 51.796875 14.703125 56.1875 
Q 19 60.59375 26.75 64.046875 
Q 34.5 67.5 44.59375 68.40625 
L 44.796875 66.796875 
Q 33 64.90625 25.09375 57.25 
Q 17.203125 49.59375 15.203125 38.296875 
Q 19.90625 41.09375 22.296875 41.9375 
Q 24.703125 42.796875 28 42.796875 
Q 36.59375 42.796875 41.6875 37.140625 
Q 46.796875 31.5 46.796875 21.90625 
Q 46.796875 11.59375 40.9375 5.09375 
Q 35.09375 -1.40625 25.796875 -1.40625 
z
M 24.203125 38.203125 
Q 17.40625 38.203125 15.046875 35.203125 
Q 12.703125 32.203125 12.703125 26.296875 
Q 12.703125 14.703125 16.5 8.046875 
Q 20.296875 1.40625 26.90625 1.40625 
Q 32.203125 1.40625 35 5.84375 
Q 37.796875 10.296875 37.796875 18.5 
Q 37.796875 27.90625 34.25 33.046875 
Q 30.703125 38.203125 24.203125 38.203125 
z
" id="FreeSerif-54"/>
     <path d="M 12.5 10 
Q 14.796875 10 16.4375 8.296875 
Q 18.09375 6.59375 18.09375 4.296875 
Q 18.09375 2.09375 16.390625 0.5 
Q 14.703125 -1.09375 12.40625 -1.09375 
Q 10.203125 -1.09375 8.59375 0.5 
Q 7 2.09375 7 4.296875 
Q 7 6.59375 8.640625 8.296875 
Q 10.296875 10 12.5 10 
z
" id="FreeSerif-46"/>
     <path d="M 8.09375 7.796875 
Q 10.40625 7.796875 14.953125 5 
Q 19.5 2.203125 22.90625 2.203125 
Q 28.40625 2.203125 32.203125 6.5 
Q 36 10.796875 36 17.09375 
Q 36 21 34.640625 24 
Q 33.296875 27 31.1875 28.640625 
Q 29.09375 30.296875 26.1875 31.34375 
Q 23.296875 32.40625 20.75 32.703125 
Q 18.203125 33 15.296875 33 
L 15.296875 34.296875 
Q 18.703125 35.5 21.140625 36.640625 
Q 23.59375 37.796875 26.296875 39.75 
Q 29 41.703125 30.453125 44.5 
Q 31.90625 47.296875 31.90625 50.90625 
Q 31.90625 55.59375 28.84375 58.59375 
Q 25.796875 61.59375 20.90625 61.59375 
Q 16.203125 61.59375 12.640625 59.046875 
Q 9.09375 56.5 6 51 
L 4.5 51.40625 
Q 7.09375 58.5 11.546875 63.046875 
Q 16 67.59375 24.203125 67.59375 
Q 31.09375 67.59375 35.4375 63.796875 
Q 39.796875 60 39.796875 53.90625 
Q 39.796875 49.796875 37.6875 46.6875 
Q 35.59375 43.59375 30.40625 40.09375 
Q 36.40625 37.5 39.796875 33.453125 
Q 43.203125 29.40625 43.203125 21.90625 
Q 43.203125 11.296875 35.34375 4.9375 
Q 27.5 -1.40625 15.59375 -1.40625 
Q 10.40625 -1.40625 7.34375 0.140625 
Q 4.296875 1.703125 4.296875 4.296875 
Q 4.296875 5.90625 5.34375 6.84375 
Q 6.40625 7.796875 8.09375 7.796875 
z
" id="FreeSerif-51"/>
     <path d="M 66.90625 37.09375 
Q 71.796875 37.09375 74.5 34.296875 
Q 77.203125 31.5 77.203125 26.40625 
Q 77.203125 20.59375 74.890625 14.890625 
Q 72.59375 9.203125 68.59375 5.09375 
Q 63.5 0 56.90625 0 
Q 51.5 0 48.203125 3.546875 
Q 44.90625 7.09375 44.90625 12.90625 
Q 44.90625 22.296875 51.65625 29.6875 
Q 58.40625 37.09375 66.90625 37.09375 
z
M 58.59375 3 
Q 62.90625 3 66.703125 6.796875 
Q 70.5 10.59375 72.546875 15.84375 
Q 74.59375 21.09375 74.59375 25.90625 
Q 74.59375 29.203125 72.546875 31.546875 
Q 70.5 33.90625 67.59375 33.90625 
Q 63 33.90625 59.296875 28.703125 
Q 55.59375 23.5 54.046875 18.046875 
Q 52.5 12.59375 52.5 9.40625 
Q 52.5 6.59375 54.203125 4.796875 
Q 55.90625 3 58.59375 3 
z
M 28.203125 66.203125 
Q 31.296875 66.203125 33.1875 64.84375 
Q 35.09375 63.5 37.4375 62.140625 
Q 39.796875 60.796875 43.90625 60.796875 
Q 48.59375 60.796875 52.046875 62.296875 
Q 55.5 63.796875 59.5 67.59375 
L 63.40625 67.59375 
L 24.90625 -1.296875 
L 20.09375 -1.296875 
L 55.203125 61.296875 
Q 50 58.296875 44.203125 58.296875 
Q 40.296875 58.296875 37.703125 59.296875 
Q 38.40625 56.796875 38.40625 54.90625 
Q 38.40625 45.59375 32.453125 37.25 
Q 26.5 28.90625 17.90625 28.90625 
Q 13 28.90625 9.546875 32.65625 
Q 6.09375 36.40625 6.09375 41.59375 
Q 6.09375 51.09375 12.84375 58.640625 
Q 19.59375 66.203125 28.203125 66.203125 
z
M 28.203125 63.203125 
Q 23.40625 63.203125 18.546875 54.453125 
Q 13.703125 45.703125 13.703125 38.40625 
Q 13.703125 35.703125 15.34375 34 
Q 17 32.296875 19.59375 32.296875 
Q 25.703125 32.296875 30.796875 39.4375 
Q 35.90625 46.59375 35.90625 55.09375 
Q 35.90625 57 35 60 
Q 33 60.5 31.640625 61.140625 
Q 30.296875 61.796875 29.84375 62.1875 
Q 29.40625 62.59375 29 62.890625 
Q 28.59375 63.203125 28.203125 63.203125 
z
" id="FreeSerif-37"/>
    </defs>
    <g transform="translate(85.392767 64.060902)scale(0.24 -0.24)">
     <use xlink:href="#FreeSerif-80"/>
     <use x="57.584366" xlink:href="#FreeSerif-114"/>
     <use x="92.068726" xlink:href="#FreeSerif-111"/>
     <use x="141.153091" xlink:href="#FreeSerif-98"/>
     <use x="191.153076" xlink:href="#FreeSerif-97"/>
     <use x="234.637436" xlink:href="#FreeSerif-98"/>
     <use x="284.621796" xlink:href="#FreeSerif-105"/>
     <use x="312.406158" xlink:href="#FreeSerif-108"/>
     <use x="338.206146" xlink:href="#FreeSerif-105"/>
     <use x="365.974884" xlink:href="#FreeSerif-116"/>
     <use x="394.274872" xlink:href="#FreeSerif-121"/>
     <use x="441.374863" xlink:href="#FreeSerif-32"/>
     <use x="466.374847" xlink:href="#FreeSerif-61"/>
     <use x="522.774841" xlink:href="#FreeSerif-32"/>
     <use x="547.774826" xlink:href="#FreeSerif-57"/>
     <use x="597.774811" xlink:href="#FreeSerif-54"/>
     <use x="647.774796" xlink:href="#FreeSerif-46"/>
     <use x="672.77478" xlink:href="#FreeSerif-51"/>
     <use x="722.774765" xlink:href="#FreeSerif-37"/>
    </g>
   </g>
   <g id="text_18">
    <!-- X Z hitting plane -->
    <defs>
     <path d="M 15.796875 34.296875 
L 15.796875 10.203125 
Q 15.796875 5 17 3.5 
Q 18.203125 2 22.59375 1.5 
L 22.59375 0 
L 1 0 
L 1 1.5 
Q 5.296875 2.09375 6.34375 3.5 
Q 7.40625 4.90625 7.40625 10.203125 
L 7.40625 57.296875 
Q 7.40625 60.5 6.546875 61.5 
Q 5.703125 62.5 2.796875 62.5 
Q 2.09375 62.5 1.09375 62.296875 
L 1.09375 63.90625 
Q 8.203125 65.796875 15.296875 68.296875 
L 15.796875 68 
L 15.796875 37.59375 
Q 19.203125 42.09375 22.640625 44.046875 
Q 26.09375 46 30.5 46 
Q 42.796875 46 42.796875 30.09375 
L 42.796875 10.203125 
Q 42.796875 5 43.75 3.640625 
Q 44.703125 2.296875 48.796875 1.5 
L 48.796875 0 
L 27.59375 0 
L 27.59375 1.5 
Q 31.90625 1.90625 33.15625 3.5 
Q 34.40625 5.09375 34.40625 10.203125 
L 34.40625 30 
Q 34.40625 40.59375 26.90625 40.59375 
Q 24 40.59375 21.453125 39.140625 
Q 18.90625 37.703125 15.796875 34.296875 
z
" id="FreeSerif-104"/>
     <path d="M 6 5.40625 
Q 6 7.296875 7.34375 8.890625 
Q 8.703125 10.5 14.90625 16.296875 
Q 9.90625 18.796875 7.75 21.890625 
Q 5.59375 25 5.59375 29.703125 
Q 5.59375 36.5 10.4375 41.25 
Q 15.296875 46 22.296875 46 
Q 26.203125 46 30.640625 44.34375 
Q 35.09375 42.703125 38 42.703125 
L 45.703125 42.703125 
L 45.703125 38.796875 
L 37.40625 38.796875 
Q 39.296875 34.5 39.296875 30.40625 
Q 39.296875 23.5 34.640625 19.203125 
Q 30 14.90625 23.703125 14.90625 
Q 22.5 14.90625 18 15.40625 
Q 16 14.796875 14 12.6875 
Q 12 10.59375 12 9.09375 
Q 12 6.703125 19.796875 6.40625 
L 32.703125 5.796875 
Q 38.203125 5.59375 41.5 2.6875 
Q 44.796875 -0.203125 44.796875 -4.90625 
Q 44.796875 -12.09375 36.546875 -16.9375 
Q 28.296875 -21.796875 18.796875 -21.796875 
Q 11.703125 -21.796875 6.59375 -18.9375 
Q 1.5 -16.09375 1.5 -12.09375 
Q 1.5 -9.296875 3.75 -6.546875 
Q 6 -3.796875 11.296875 0.09375 
Q 8.203125 1.59375 7.09375 2.6875 
Q 6 3.796875 6 5.40625 
z
M 13.40625 -0.203125 
Q 10.296875 -3.90625 9.390625 -5.5 
Q 8.5 -7.09375 8.5 -8.796875 
Q 8.5 -12.09375 12.5 -14.09375 
Q 16.5 -16.09375 23.09375 -16.09375 
Q 31.59375 -16.09375 36.796875 -13.390625 
Q 42 -10.703125 42 -6.40625 
Q 42 -3.703125 39.203125 -2.59375 
Q 36.40625 -1.5 29.59375 -1.5 
Q 19.5 -1.5 13.40625 -0.203125 
z
M 31.59375 26.5 
Q 31.59375 28.203125 31.1875 30.59375 
Q 30.796875 33 29.796875 36.046875 
Q 28.796875 39.09375 26.59375 41.140625 
Q 24.40625 43.203125 21.296875 43.203125 
Q 17.796875 43.203125 15.84375 40.703125 
Q 13.90625 38.203125 13.90625 33.796875 
Q 13.90625 25.203125 17.09375 21.296875 
Q 20.296875 17.40625 24.09375 17.40625 
Q 27.59375 17.40625 29.59375 19.84375 
Q 31.59375 22.296875 31.59375 26.5 
z
" id="FreeSerif-103"/>
     <path d="M 1.40625 39.296875 
L 1.40625 40.90625 
Q 7.703125 42.796875 15.796875 46 
L 16.40625 45.796875 
L 16.40625 38.09375 
Q 22.796875 46 30.796875 46 
Q 38.09375 46 42.796875 40 
Q 47.5 34 47.5 24.703125 
Q 47.5 13.796875 41.453125 6.390625 
Q 35.40625 -1 26.5 -1 
Q 23.296875 -1 21.140625 -0.09375 
Q 19 0.796875 16.40625 3.296875 
L 16.40625 -12.40625 
Q 16.40625 -17.09375 18 -18.4375 
Q 19.59375 -19.796875 25.203125 -19.90625 
L 25.203125 -21.703125 
L 1 -21.703125 
L 1 -20 
Q 5.40625 -19.59375 6.703125 -18.296875 
Q 8 -17 8 -13.09375 
L 8 33.703125 
Q 8 37.203125 7.203125 38.296875 
Q 6.40625 39.40625 3.90625 39.40625 
Q 2.296875 39.40625 1.40625 39.296875 
z
M 16.40625 33.40625 
L 16.40625 8.796875 
Q 16.40625 6.59375 19.84375 4.390625 
Q 23.296875 2.203125 26.796875 2.203125 
Q 32.203125 2.203125 35.546875 7.34375 
Q 38.90625 12.5 38.90625 20.796875 
Q 38.90625 29.5 35.546875 34.75 
Q 32.203125 40 26.59375 40 
Q 23.09375 40 19.75 37.796875 
Q 16.40625 35.59375 16.40625 33.40625 
z
" id="FreeSerif-112"/>
    </defs>
    <g transform="translate(226.83175 36.8017)scale(0.24 -0.24)">
     <use xlink:href="#FreeSerif-88"/>
     <use x="71.399994" xlink:href="#FreeSerif-32"/>
     <use x="96.399979" xlink:href="#FreeSerif-90"/>
     <use x="157.699966" xlink:href="#FreeSerif-32"/>
     <use x="182.699951" xlink:href="#FreeSerif-104"/>
     <use x="232.499939" xlink:href="#FreeSerif-105"/>
     <use x="260.268677" xlink:href="#FreeSerif-116"/>
     <use x="288.568665" xlink:href="#FreeSerif-116"/>
     <use x="316.868652" xlink:href="#FreeSerif-105"/>
     <use x="344.653015" xlink:href="#FreeSerif-110"/>
     <use x="393.553009" xlink:href="#FreeSerif-103"/>
     <use x="440.253006" xlink:href="#FreeSerif-32"/>
     <use x="465.252991" xlink:href="#FreeSerif-112"/>
     <use x="515.23735" xlink:href="#FreeSerif-108"/>
     <use x="541.037338" xlink:href="#FreeSerif-97"/>
     <use x="584.537323" xlink:href="#FreeSerif-110"/>
     <use x="633.421692" xlink:href="#FreeSerif-101"/>
    </g>
   </g>
   <g id="legend_1">
    <g id="patch_8">
     <path d="M 421.240312 80.15795 
L 537.52 80.15795 
Q 539.52 80.15795 539.52 78.15795 
L 539.52 49.8017 
Q 539.52 47.8017 537.52 47.8017 
L 421.240312 47.8017 
Q 419.240312 47.8017 419.240312 49.8017 
L 419.240312 78.15795 
Q 419.240312 80.15795 421.240312 80.15795 
z
" style="fill:#ffffff;opacity:0.8;stroke:#cccccc;stroke-linejoin:miter;"/>
    </g>
    <g id="PathCollection_3">
     <g>
      <use style="fill:#0000ff;stroke:#0000ff;stroke-width:1.5;" x="433.240312" xlink:href="#m99e637f952" y="56.775138"/>
     </g>
    </g>
    <g id="text_19">
     <!-- prediction points -->
     <defs>
      <path d="M 18.109375 8.203125 
L 18.109375 -20.796875 
L 9.078125 -20.796875 
L 9.078125 54.6875 
L 18.109375 54.6875 
L 18.109375 46.390625 
Q 20.953125 51.265625 25.265625 53.625 
Q 29.59375 56 35.59375 56 
Q 45.5625 56 51.78125 48.09375 
Q 58.015625 40.1875 58.015625 27.296875 
Q 58.015625 14.40625 51.78125 6.484375 
Q 45.5625 -1.421875 35.59375 -1.421875 
Q 29.59375 -1.421875 25.265625 0.953125 
Q 20.953125 3.328125 18.109375 8.203125 
z
M 48.6875 27.296875 
Q 48.6875 37.203125 44.609375 42.84375 
Q 40.53125 48.484375 33.40625 48.484375 
Q 26.265625 48.484375 22.1875 42.84375 
Q 18.109375 37.203125 18.109375 27.296875 
Q 18.109375 17.390625 22.1875 11.75 
Q 26.265625 6.109375 33.40625 6.109375 
Q 40.53125 6.109375 44.609375 11.75 
Q 48.6875 17.390625 48.6875 27.296875 
z
" id="DejaVuSans-112"/>
      <path d="M 41.109375 46.296875 
Q 39.59375 47.171875 37.8125 47.578125 
Q 36.03125 48 33.890625 48 
Q 26.265625 48 22.1875 43.046875 
Q 18.109375 38.09375 18.109375 28.8125 
L 18.109375 0 
L 9.078125 0 
L 9.078125 54.6875 
L 18.109375 54.6875 
L 18.109375 46.1875 
Q 20.953125 51.171875 25.484375 53.578125 
Q 30.03125 56 36.53125 56 
Q 37.453125 56 38.578125 55.875 
Q 39.703125 55.765625 41.0625 55.515625 
z
" id="DejaVuSans-114"/>
      <path d="M 56.203125 29.59375 
L 56.203125 25.203125 
L 14.890625 25.203125 
Q 15.484375 15.921875 20.484375 11.0625 
Q 25.484375 6.203125 34.421875 6.203125 
Q 39.59375 6.203125 44.453125 7.46875 
Q 49.3125 8.734375 54.109375 11.28125 
L 54.109375 2.78125 
Q 49.265625 0.734375 44.1875 -0.34375 
Q 39.109375 -1.421875 33.890625 -1.421875 
Q 20.796875 -1.421875 13.15625 6.1875 
Q 5.515625 13.8125 5.515625 26.8125 
Q 5.515625 40.234375 12.765625 48.109375 
Q 20.015625 56 32.328125 56 
Q 43.359375 56 49.78125 48.890625 
Q 56.203125 41.796875 56.203125 29.59375 
z
M 47.21875 32.234375 
Q 47.125 39.59375 43.09375 43.984375 
Q 39.0625 48.390625 32.421875 48.390625 
Q 24.90625 48.390625 20.390625 44.140625 
Q 15.875 39.890625 15.1875 32.171875 
z
" id="DejaVuSans-101"/>
      <path d="M 45.40625 46.390625 
L 45.40625 75.984375 
L 54.390625 75.984375 
L 54.390625 0 
L 45.40625 0 
L 45.40625 8.203125 
Q 42.578125 3.328125 38.25 0.953125 
Q 33.9375 -1.421875 27.875 -1.421875 
Q 17.96875 -1.421875 11.734375 6.484375 
Q 5.515625 14.40625 5.515625 27.296875 
Q 5.515625 40.1875 11.734375 48.09375 
Q 17.96875 56 27.875 56 
Q 33.9375 56 38.25 53.625 
Q 42.578125 51.265625 45.40625 46.390625 
z
M 14.796875 27.296875 
Q 14.796875 17.390625 18.875 11.75 
Q 22.953125 6.109375 30.078125 6.109375 
Q 37.203125 6.109375 41.296875 11.75 
Q 45.40625 17.390625 45.40625 27.296875 
Q 45.40625 37.203125 41.296875 42.84375 
Q 37.203125 48.484375 30.078125 48.484375 
Q 22.953125 48.484375 18.875 42.84375 
Q 14.796875 37.203125 14.796875 27.296875 
z
" id="DejaVuSans-100"/>
      <path d="M 9.421875 54.6875 
L 18.40625 54.6875 
L 18.40625 0 
L 9.421875 0 
z
M 9.421875 75.984375 
L 18.40625 75.984375 
L 18.40625 64.59375 
L 9.421875 64.59375 
z
" id="DejaVuSans-105"/>
      <path d="M 48.78125 52.59375 
L 48.78125 44.1875 
Q 44.96875 46.296875 41.140625 47.34375 
Q 37.3125 48.390625 33.40625 48.390625 
Q 24.65625 48.390625 19.8125 42.84375 
Q 14.984375 37.3125 14.984375 27.296875 
Q 14.984375 17.28125 19.8125 11.734375 
Q 24.65625 6.203125 33.40625 6.203125 
Q 37.3125 6.203125 41.140625 7.25 
Q 44.96875 8.296875 48.78125 10.40625 
L 48.78125 2.09375 
Q 45.015625 0.34375 40.984375 -0.53125 
Q 36.96875 -1.421875 32.421875 -1.421875 
Q 20.0625 -1.421875 12.78125 6.34375 
Q 5.515625 14.109375 5.515625 27.296875 
Q 5.515625 40.671875 12.859375 48.328125 
Q 20.21875 56 33.015625 56 
Q 37.15625 56 41.109375 55.140625 
Q 45.0625 54.296875 48.78125 52.59375 
z
" id="DejaVuSans-99"/>
      <path d="M 18.3125 70.21875 
L 18.3125 54.6875 
L 36.8125 54.6875 
L 36.8125 47.703125 
L 18.3125 47.703125 
L 18.3125 18.015625 
Q 18.3125 11.328125 20.140625 9.421875 
Q 21.96875 7.515625 27.59375 7.515625 
L 36.8125 7.515625 
L 36.8125 0 
L 27.59375 0 
Q 17.1875 0 13.234375 3.875 
Q 9.28125 7.765625 9.28125 18.015625 
L 9.28125 47.703125 
L 2.6875 47.703125 
L 2.6875 54.6875 
L 9.28125 54.6875 
L 9.28125 70.21875 
z
" id="DejaVuSans-116"/>
      <path d="M 30.609375 48.390625 
Q 23.390625 48.390625 19.1875 42.75 
Q 14.984375 37.109375 14.984375 27.296875 
Q 14.984375 17.484375 19.15625 11.84375 
Q 23.34375 6.203125 30.609375 6.203125 
Q 37.796875 6.203125 41.984375 11.859375 
Q 46.1875 17.53125 46.1875 27.296875 
Q 46.1875 37.015625 41.984375 42.703125 
Q 37.796875 48.390625 30.609375 48.390625 
z
M 30.609375 56 
Q 42.328125 56 49.015625 48.375 
Q 55.71875 40.765625 55.71875 27.296875 
Q 55.71875 13.875 49.015625 6.21875 
Q 42.328125 -1.421875 30.609375 -1.421875 
Q 18.84375 -1.421875 12.171875 6.21875 
Q 5.515625 13.875 5.515625 27.296875 
Q 5.515625 40.765625 12.171875 48.375 
Q 18.84375 56 30.609375 56 
z
" id="DejaVuSans-111"/>
      <path d="M 54.890625 33.015625 
L 54.890625 0 
L 45.90625 0 
L 45.90625 32.71875 
Q 45.90625 40.484375 42.875 44.328125 
Q 39.84375 48.1875 33.796875 48.1875 
Q 26.515625 48.1875 22.3125 43.546875 
Q 18.109375 38.921875 18.109375 30.90625 
L 18.109375 0 
L 9.078125 0 
L 9.078125 54.6875 
L 18.109375 54.6875 
L 18.109375 46.1875 
Q 21.34375 51.125 25.703125 53.5625 
Q 30.078125 56 35.796875 56 
Q 45.21875 56 50.046875 50.171875 
Q 54.890625 44.34375 54.890625 33.015625 
z
" id="DejaVuSans-110"/>
      <path id="DejaVuSans-32"/>
      <path d="M 44.28125 53.078125 
L 44.28125 44.578125 
Q 40.484375 46.53125 36.375 47.5 
Q 32.28125 48.484375 27.875 48.484375 
Q 21.1875 48.484375 17.84375 46.4375 
Q 14.5 44.390625 14.5 40.28125 
Q 14.5 37.15625 16.890625 35.375 
Q 19.28125 33.59375 26.515625 31.984375 
L 29.59375 31.296875 
Q 39.15625 29.25 43.1875 25.515625 
Q 47.21875 21.78125 47.21875 15.09375 
Q 47.21875 7.46875 41.1875 3.015625 
Q 35.15625 -1.421875 24.609375 -1.421875 
Q 20.21875 -1.421875 15.453125 -0.5625 
Q 10.6875 0.296875 5.421875 2 
L 5.421875 11.28125 
Q 10.40625 8.6875 15.234375 7.390625 
Q 20.0625 6.109375 24.8125 6.109375 
Q 31.15625 6.109375 34.5625 8.28125 
Q 37.984375 10.453125 37.984375 14.40625 
Q 37.984375 18.0625 35.515625 20.015625 
Q 33.0625 21.96875 24.703125 23.78125 
L 21.578125 24.515625 
Q 13.234375 26.265625 9.515625 29.90625 
Q 5.8125 33.546875 5.8125 39.890625 
Q 5.8125 47.609375 11.28125 51.796875 
Q 16.75 56 26.8125 56 
Q 31.78125 56 36.171875 55.265625 
Q 40.578125 54.546875 44.28125 53.078125 
z
" id="DejaVuSans-115"/>
     </defs>
     <g transform="translate(451.240312 59.400138)scale(0.1 -0.1)">
      <use xlink:href="#DejaVuSans-112"/>
      <use x="63.476562" xlink:href="#DejaVuSans-114"/>
      <use x="104.558594" xlink:href="#DejaVuSans-101"/>
      <use x="166.082031" xlink:href="#DejaVuSans-100"/>
      <use x="229.558594" xlink:href="#DejaVuSans-105"/>
      <use x="257.341797" xlink:href="#DejaVuSans-99"/>
      <use x="312.322266" xlink:href="#DejaVuSans-116"/>
      <use x="351.53125" xlink:href="#DejaVuSans-105"/>
      <use x="379.314453" xlink:href="#DejaVuSans-111"/>
      <use x="440.496094" xlink:href="#DejaVuSans-110"/>
      <use x="503.875" xlink:href="#DejaVuSans-32"/>
      <use x="535.662109" xlink:href="#DejaVuSans-112"/>
      <use x="599.138672" xlink:href="#DejaVuSans-111"/>
      <use x="660.320312" xlink:href="#DejaVuSans-105"/>
      <use x="688.103516" xlink:href="#DejaVuSans-110"/>
      <use x="751.482422" xlink:href="#DejaVuSans-116"/>
      <use x="790.691406" xlink:href="#DejaVuSans-115"/>
     </g>
    </g>
    <g id="PathCollection_4">
     <g>
      <use style="fill:#ff0000;stroke:#ff0000;" x="433.240312" xlink:href="#m1e6c36fd8c" y="71.453263"/>
     </g>
    </g>
    <g id="text_20">
     <!-- target point -->
     <defs>
      <path d="M 34.28125 27.484375 
Q 23.390625 27.484375 19.1875 25 
Q 14.984375 22.515625 14.984375 16.5 
Q 14.984375 11.71875 18.140625 8.90625 
Q 21.296875 6.109375 26.703125 6.109375 
Q 34.1875 6.109375 38.703125 11.40625 
Q 43.21875 16.703125 43.21875 25.484375 
L 43.21875 27.484375 
z
M 52.203125 31.203125 
L 52.203125 0 
L 43.21875 0 
L 43.21875 8.296875 
Q 40.140625 3.328125 35.546875 0.953125 
Q 30.953125 -1.421875 24.3125 -1.421875 
Q 15.921875 -1.421875 10.953125 3.296875 
Q 6 8.015625 6 15.921875 
Q 6 25.140625 12.171875 29.828125 
Q 18.359375 34.515625 30.609375 34.515625 
L 43.21875 34.515625 
L 43.21875 35.40625 
Q 43.21875 41.609375 39.140625 45 
Q 35.0625 48.390625 27.6875 48.390625 
Q 23 48.390625 18.546875 47.265625 
Q 14.109375 46.140625 10.015625 43.890625 
L 10.015625 52.203125 
Q 14.9375 54.109375 19.578125 55.046875 
Q 24.21875 56 28.609375 56 
Q 40.484375 56 46.34375 49.84375 
Q 52.203125 43.703125 52.203125 31.203125 
z
" id="DejaVuSans-97"/>
      <path d="M 45.40625 27.984375 
Q 45.40625 37.75 41.375 43.109375 
Q 37.359375 48.484375 30.078125 48.484375 
Q 22.859375 48.484375 18.828125 43.109375 
Q 14.796875 37.75 14.796875 27.984375 
Q 14.796875 18.265625 18.828125 12.890625 
Q 22.859375 7.515625 30.078125 7.515625 
Q 37.359375 7.515625 41.375 12.890625 
Q 45.40625 18.265625 45.40625 27.984375 
z
M 54.390625 6.78125 
Q 54.390625 -7.171875 48.1875 -13.984375 
Q 42 -20.796875 29.203125 -20.796875 
Q 24.46875 -20.796875 20.265625 -20.09375 
Q 16.0625 -19.390625 12.109375 -17.921875 
L 12.109375 -9.1875 
Q 16.0625 -11.328125 19.921875 -12.34375 
Q 23.78125 -13.375 27.78125 -13.375 
Q 36.625 -13.375 41.015625 -8.765625 
Q 45.40625 -4.15625 45.40625 5.171875 
L 45.40625 9.625 
Q 42.625 4.78125 38.28125 2.390625 
Q 33.9375 0 27.875 0 
Q 17.828125 0 11.671875 7.65625 
Q 5.515625 15.328125 5.515625 27.984375 
Q 5.515625 40.671875 11.671875 48.328125 
Q 17.828125 56 27.875 56 
Q 33.9375 56 38.28125 53.609375 
Q 42.625 51.21875 45.40625 46.390625 
L 45.40625 54.6875 
L 54.390625 54.6875 
z
" id="DejaVuSans-103"/>
     </defs>
     <g transform="translate(451.240312 74.078263)scale(0.1 -0.1)">
      <use xlink:href="#DejaVuSans-116"/>
      <use x="39.208984" xlink:href="#DejaVuSans-97"/>
      <use x="100.488281" xlink:href="#DejaVuSans-114"/>
      <use x="141.585938" xlink:href="#DejaVuSans-103"/>
      <use x="205.0625" xlink:href="#DejaVuSans-101"/>
      <use x="266.585938" xlink:href="#DejaVuSans-116"/>
      <use x="305.794922" xlink:href="#DejaVuSans-32"/>
      <use x="337.582031" xlink:href="#DejaVuSans-112"/>
      <use x="401.058594" xlink:href="#DejaVuSans-111"/>
      <use x="462.240234" xlink:href="#DejaVuSans-105"/>
      <use x="490.023438" xlink:href="#DejaVuSans-110"/>
      <use x="553.402344" xlink:href="#DejaVuSans-116"/>
     </g>
    </g>
   </g>
  </g>
 </g>
 <defs>
  <clipPath id="p95869760eb">
   <rect height="469.9823" width="472.69775" x="71.82225" y="42.8017"/>
  </clipPath>
 </defs>
</svg>
