<?xml version="1.0" encoding="utf-8" standalone="no"?>
<!DOCTYPE svg PUBLIC "-//W3C//DTD SVG 1.1//EN"
  "http://www.w3.org/Graphics/SVG/1.1/DTD/svg11.dtd">
<!-- Created with matplotlib (https://matplotlib.org/) -->
<svg height="576pt" version="1.1" viewBox="0 0 576 576" width="576pt" xmlns="http://www.w3.org/2000/svg" xmlns:xlink="http://www.w3.org/1999/xlink">
 <defs>
  <style type="text/css">
*{stroke-linecap:butt;stroke-linejoin:round;}
  </style>
 </defs>
 <g id="figure_1">
  <g id="patch_1">
   <path d="M 0 576 
L 576 576 
L 576 0 
L 0 0 
z
" style="fill:#ffffff;"/>
  </g>
  <g id="axes_1">
   <g id="patch_2">
    <path d="M 71.82225 512.784 
L 544.52 512.784 
L 544.52 42.8017 
L 71.82225 42.8017 
z
" style="fill:#ffffff;"/>
   </g>
   <g id="PathCollection_1">
    <defs>
     <path d="M -3 3 
L 3 -3 
M -3 -3 
L 3 3 
" id="m17f7a3920a" style="stroke:#0000ff;stroke-width:1.5;"/>
    </defs>
    <g clip-path="url(#pea4abc6b7b)">
     <use style="fill:#0000ff;stroke:#0000ff;stroke-width:1.5;" x="205.633411" xlink:href="#m17f7a3920a" y="353.408799"/>
     <use style="fill:#0000ff;stroke:#0000ff;stroke-width:1.5;" x="132.483033" xlink:href="#m17f7a3920a" y="355.506531"/>
     <use style="fill:#0000ff;stroke:#0000ff;stroke-width:1.5;" x="269.248098" xlink:href="#m17f7a3920a" y="196.090541"/>
     <use style="fill:#0000ff;stroke:#0000ff;stroke-width:1.5;" x="311.000558" xlink:href="#m17f7a3920a" y="327.766325"/>
     <use style="fill:#0000ff;stroke:#0000ff;stroke-width:1.5;" x="333.933234" xlink:href="#m17f7a3920a" y="236.081389"/>
     <use style="fill:#0000ff;stroke:#0000ff;stroke-width:1.5;" x="245.668728" xlink:href="#m17f7a3920a" y="360.902989"/>
     <use style="fill:#0000ff;stroke:#0000ff;stroke-width:1.5;" x="-1" xlink:href="#m17f7a3920a" y="351.266638"/>
     <use style="fill:#0000ff;stroke:#0000ff;stroke-width:1.5;" x="-1" xlink:href="#m17f7a3920a" y="323.704576"/>
     <use style="fill:#0000ff;stroke:#0000ff;stroke-width:1.5;" x="229.943454" xlink:href="#m17f7a3920a" y="261.390121"/>
     <use style="fill:#0000ff;stroke:#0000ff;stroke-width:1.5;" x="145.69941" xlink:href="#m17f7a3920a" y="333.248092"/>
     <use style="fill:#0000ff;stroke:#0000ff;stroke-width:1.5;" x="295.924766" xlink:href="#m17f7a3920a" y="324.887974"/>
     <use style="fill:#0000ff;stroke:#0000ff;stroke-width:1.5;" x="173.871666" xlink:href="#m17f7a3920a" y="330.82157"/>
     <use style="fill:#0000ff;stroke:#0000ff;stroke-width:1.5;" x="345.256499" xlink:href="#m17f7a3920a" y="302.986269"/>
     <use style="fill:#0000ff;stroke:#0000ff;stroke-width:1.5;" x="205.894496" xlink:href="#m17f7a3920a" y="261.820517"/>
     <use style="fill:#0000ff;stroke:#0000ff;stroke-width:1.5;" x="274.289954" xlink:href="#m17f7a3920a" y="304.176454"/>
     <use style="fill:#0000ff;stroke:#0000ff;stroke-width:1.5;" x="244.931813" xlink:href="#m17f7a3920a" y="289.753907"/>
     <use style="fill:#0000ff;stroke:#0000ff;stroke-width:1.5;" x="26.656306" xlink:href="#m17f7a3920a" y="403.802806"/>
     <use style="fill:#0000ff;stroke:#0000ff;stroke-width:1.5;" x="251.711974" xlink:href="#m17f7a3920a" y="264.57785"/>
     <use style="fill:#0000ff;stroke:#0000ff;stroke-width:1.5;" x="283.935041" xlink:href="#m17f7a3920a" y="241.86758"/>
     <use style="fill:#0000ff;stroke:#0000ff;stroke-width:1.5;" x="230.157532" xlink:href="#m17f7a3920a" y="331.934756"/>
     <use style="fill:#0000ff;stroke:#0000ff;stroke-width:1.5;" x="289.902399" xlink:href="#m17f7a3920a" y="253.287726"/>
     <use style="fill:#0000ff;stroke:#0000ff;stroke-width:1.5;" x="177.867901" xlink:href="#m17f7a3920a" y="201.611429"/>
     <use style="fill:#0000ff;stroke:#0000ff;stroke-width:1.5;" x="276.752154" xlink:href="#m17f7a3920a" y="262.823936"/>
     <use style="fill:#0000ff;stroke:#0000ff;stroke-width:1.5;" x="282.614942" xlink:href="#m17f7a3920a" y="306.499528"/>
     <use style="fill:#0000ff;stroke:#0000ff;stroke-width:1.5;" x="204.71284" xlink:href="#m17f7a3920a" y="304.598856"/>
     <use style="fill:#0000ff;stroke:#0000ff;stroke-width:1.5;" x="290.165474" xlink:href="#m17f7a3920a" y="339.104597"/>
     <use style="fill:#0000ff;stroke:#0000ff;stroke-width:1.5;" x="204.191421" xlink:href="#m17f7a3920a" y="295.834816"/>
     <use style="fill:#0000ff;stroke:#0000ff;stroke-width:1.5;" x="332.618618" xlink:href="#m17f7a3920a" y="263.058182"/>
     <use style="fill:#0000ff;stroke:#0000ff;stroke-width:1.5;" x="246.235638" xlink:href="#m17f7a3920a" y="314.562609"/>
     <use style="fill:#0000ff;stroke:#0000ff;stroke-width:1.5;" x="241.160048" xlink:href="#m17f7a3920a" y="287.216285"/>
     <use style="fill:#0000ff;stroke:#0000ff;stroke-width:1.5;" x="197.052794" xlink:href="#m17f7a3920a" y="368.97715"/>
     <use style="fill:#0000ff;stroke:#0000ff;stroke-width:1.5;" x="316.678615" xlink:href="#m17f7a3920a" y="252.587679"/>
     <use style="fill:#0000ff;stroke:#0000ff;stroke-width:1.5;" x="272.946076" xlink:href="#m17f7a3920a" y="241.967136"/>
     <use style="fill:#0000ff;stroke:#0000ff;stroke-width:1.5;" x="261.764855" xlink:href="#m17f7a3920a" y="248.539716"/>
     <use style="fill:#0000ff;stroke:#0000ff;stroke-width:1.5;" x="291.351579" xlink:href="#m17f7a3920a" y="280.373646"/>
     <use style="fill:#0000ff;stroke:#0000ff;stroke-width:1.5;" x="231.656137" xlink:href="#m17f7a3920a" y="357.335688"/>
     <use style="fill:#0000ff;stroke:#0000ff;stroke-width:1.5;" x="193.366572" xlink:href="#m17f7a3920a" y="271.985345"/>
     <use style="fill:#0000ff;stroke:#0000ff;stroke-width:1.5;" x="98.93188" xlink:href="#m17f7a3920a" y="-1"/>
     <use style="fill:#0000ff;stroke:#0000ff;stroke-width:1.5;" x="131.901811" xlink:href="#m17f7a3920a" y="-1"/>
     <use style="fill:#0000ff;stroke:#0000ff;stroke-width:1.5;" x="274.360486" xlink:href="#m17f7a3920a" y="294.779884"/>
     <use style="fill:#0000ff;stroke:#0000ff;stroke-width:1.5;" x="247.042296" xlink:href="#m17f7a3920a" y="326.232602"/>
     <use style="fill:#0000ff;stroke:#0000ff;stroke-width:1.5;" x="247.061747" xlink:href="#m17f7a3920a" y="219.498571"/>
     <use style="fill:#0000ff;stroke:#0000ff;stroke-width:1.5;" x="224.934803" xlink:href="#m17f7a3920a" y="271.590317"/>
     <use style="fill:#0000ff;stroke:#0000ff;stroke-width:1.5;" x="311.504367" xlink:href="#m17f7a3920a" y="261.569351"/>
     <use style="fill:#0000ff;stroke:#0000ff;stroke-width:1.5;" x="238.728992" xlink:href="#m17f7a3920a" y="280.252655"/>
     <use style="fill:#0000ff;stroke:#0000ff;stroke-width:1.5;" x="184.697475" xlink:href="#m17f7a3920a" y="370.185676"/>
     <use style="fill:#0000ff;stroke:#0000ff;stroke-width:1.5;" x="270.36366" xlink:href="#m17f7a3920a" y="272.088301"/>
     <use style="fill:#0000ff;stroke:#0000ff;stroke-width:1.5;" x="160.438209" xlink:href="#m17f7a3920a" y="389.007107"/>
     <use style="fill:#0000ff;stroke:#0000ff;stroke-width:1.5;" x="239.031538" xlink:href="#m17f7a3920a" y="339.885502"/>
     <use style="fill:#0000ff;stroke:#0000ff;stroke-width:1.5;" x="182.349808" xlink:href="#m17f7a3920a" y="315.472434"/>
     <use style="fill:#0000ff;stroke:#0000ff;stroke-width:1.5;" x="214.604002" xlink:href="#m17f7a3920a" y="274.269851"/>
     <use style="fill:#0000ff;stroke:#0000ff;stroke-width:1.5;" x="228.145038" xlink:href="#m17f7a3920a" y="323.891989"/>
     <use style="fill:#0000ff;stroke:#0000ff;stroke-width:1.5;" x="261.261976" xlink:href="#m17f7a3920a" y="293.786321"/>
     <use style="fill:#0000ff;stroke:#0000ff;stroke-width:1.5;" x="314.073737" xlink:href="#m17f7a3920a" y="275.460718"/>
     <use style="fill:#0000ff;stroke:#0000ff;stroke-width:1.5;" x="412.753015" xlink:href="#m17f7a3920a" y="237.168414"/>
     <use style="fill:#0000ff;stroke:#0000ff;stroke-width:1.5;" x="276.137625" xlink:href="#m17f7a3920a" y="430.714981"/>
     <use style="fill:#0000ff;stroke:#0000ff;stroke-width:1.5;" x="208.22318" xlink:href="#m17f7a3920a" y="289.094293"/>
     <use style="fill:#0000ff;stroke:#0000ff;stroke-width:1.5;" x="252.253418" xlink:href="#m17f7a3920a" y="301.572391"/>
     <use style="fill:#0000ff;stroke:#0000ff;stroke-width:1.5;" x="237.064831" xlink:href="#m17f7a3920a" y="282.210666"/>
     <use style="fill:#0000ff;stroke:#0000ff;stroke-width:1.5;" x="146.620127" xlink:href="#m17f7a3920a" y="260.850672"/>
     <use style="fill:#0000ff;stroke:#0000ff;stroke-width:1.5;" x="216.047997" xlink:href="#m17f7a3920a" y="237.438502"/>
     <use style="fill:#0000ff;stroke:#0000ff;stroke-width:1.5;" x="279.538104" xlink:href="#m17f7a3920a" y="261.814448"/>
     <use style="fill:#0000ff;stroke:#0000ff;stroke-width:1.5;" x="177.202629" xlink:href="#m17f7a3920a" y="260.495613"/>
     <use style="fill:#0000ff;stroke:#0000ff;stroke-width:1.5;" x="288.53563" xlink:href="#m17f7a3920a" y="406.901706"/>
     <use style="fill:#0000ff;stroke:#0000ff;stroke-width:1.5;" x="289.36676" xlink:href="#m17f7a3920a" y="294.23299"/>
     <use style="fill:#0000ff;stroke:#0000ff;stroke-width:1.5;" x="330.243065" xlink:href="#m17f7a3920a" y="213.473378"/>
     <use style="fill:#0000ff;stroke:#0000ff;stroke-width:1.5;" x="217.535992" xlink:href="#m17f7a3920a" y="277.123687"/>
     <use style="fill:#0000ff;stroke:#0000ff;stroke-width:1.5;" x="272.083065" xlink:href="#m17f7a3920a" y="327.074661"/>
     <use style="fill:#0000ff;stroke:#0000ff;stroke-width:1.5;" x="300.580955" xlink:href="#m17f7a3920a" y="331.677199"/>
     <use style="fill:#0000ff;stroke:#0000ff;stroke-width:1.5;" x="348.594304" xlink:href="#m17f7a3920a" y="275.550734"/>
     <use style="fill:#0000ff;stroke:#0000ff;stroke-width:1.5;" x="254.235061" xlink:href="#m17f7a3920a" y="268.578705"/>
     <use style="fill:#0000ff;stroke:#0000ff;stroke-width:1.5;" x="273.780495" xlink:href="#m17f7a3920a" y="235.777852"/>
     <use style="fill:#0000ff;stroke:#0000ff;stroke-width:1.5;" x="276.026508" xlink:href="#m17f7a3920a" y="335.418842"/>
     <use style="fill:#0000ff;stroke:#0000ff;stroke-width:1.5;" x="248.722922" xlink:href="#m17f7a3920a" y="266.138197"/>
     <use style="fill:#0000ff;stroke:#0000ff;stroke-width:1.5;" x="213.723218" xlink:href="#m17f7a3920a" y="258.693664"/>
     <use style="fill:#0000ff;stroke:#0000ff;stroke-width:1.5;" x="319.749453" xlink:href="#m17f7a3920a" y="318.952151"/>
     <use style="fill:#0000ff;stroke:#0000ff;stroke-width:1.5;" x="232.632107" xlink:href="#m17f7a3920a" y="342.308013"/>
     <use style="fill:#0000ff;stroke:#0000ff;stroke-width:1.5;" x="307.05242" xlink:href="#m17f7a3920a" y="332.271614"/>
     <use style="fill:#0000ff;stroke:#0000ff;stroke-width:1.5;" x="303.144161" xlink:href="#m17f7a3920a" y="215.757958"/>
     <use style="fill:#0000ff;stroke:#0000ff;stroke-width:1.5;" x="68.602622" xlink:href="#m17f7a3920a" y="211.658574"/>
     <use style="fill:#0000ff;stroke:#0000ff;stroke-width:1.5;" x="285.517617" xlink:href="#m17f7a3920a" y="313.178269"/>
     <use style="fill:#0000ff;stroke:#0000ff;stroke-width:1.5;" x="277.939717" xlink:href="#m17f7a3920a" y="344.251077"/>
     <use style="fill:#0000ff;stroke:#0000ff;stroke-width:1.5;" x="281.842033" xlink:href="#m17f7a3920a" y="298.287079"/>
     <use style="fill:#0000ff;stroke:#0000ff;stroke-width:1.5;" x="266.76431" xlink:href="#m17f7a3920a" y="246.885194"/>
     <use style="fill:#0000ff;stroke:#0000ff;stroke-width:1.5;" x="126.248063" xlink:href="#m17f7a3920a" y="251.218332"/>
     <use style="fill:#0000ff;stroke:#0000ff;stroke-width:1.5;" x="45.322289" xlink:href="#m17f7a3920a" y="211.8968"/>
     <use style="fill:#0000ff;stroke:#0000ff;stroke-width:1.5;" x="357.049182" xlink:href="#m17f7a3920a" y="238.215237"/>
     <use style="fill:#0000ff;stroke:#0000ff;stroke-width:1.5;" x="258.484293" xlink:href="#m17f7a3920a" y="242.98431"/>
     <use style="fill:#0000ff;stroke:#0000ff;stroke-width:1.5;" x="225.74536" xlink:href="#m17f7a3920a" y="301.092726"/>
     <use style="fill:#0000ff;stroke:#0000ff;stroke-width:1.5;" x="289.643123" xlink:href="#m17f7a3920a" y="283.420671"/>
     <use style="fill:#0000ff;stroke:#0000ff;stroke-width:1.5;" x="7.951786" xlink:href="#m17f7a3920a" y="294.01927"/>
     <use style="fill:#0000ff;stroke:#0000ff;stroke-width:1.5;" x="280.057065" xlink:href="#m17f7a3920a" y="323.466793"/>
     <use style="fill:#0000ff;stroke:#0000ff;stroke-width:1.5;" x="144.151161" xlink:href="#m17f7a3920a" y="243.689752"/>
     <use style="fill:#0000ff;stroke:#0000ff;stroke-width:1.5;" x="290.060597" xlink:href="#m17f7a3920a" y="297.800221"/>
     <use style="fill:#0000ff;stroke:#0000ff;stroke-width:1.5;" x="277.025743" xlink:href="#m17f7a3920a" y="290.526436"/>
     <use style="fill:#0000ff;stroke:#0000ff;stroke-width:1.5;" x="334.710791" xlink:href="#m17f7a3920a" y="242.964854"/>
     <use style="fill:#0000ff;stroke:#0000ff;stroke-width:1.5;" x="182.205765" xlink:href="#m17f7a3920a" y="329.971532"/>
     <use style="fill:#0000ff;stroke:#0000ff;stroke-width:1.5;" x="151.211239" xlink:href="#m17f7a3920a" y="251.686397"/>
     <use style="fill:#0000ff;stroke:#0000ff;stroke-width:1.5;" x="256.565183" xlink:href="#m17f7a3920a" y="323.448823"/>
     <use style="fill:#0000ff;stroke:#0000ff;stroke-width:1.5;" x="305.592976" xlink:href="#m17f7a3920a" y="304.902914"/>
     <use style="fill:#0000ff;stroke:#0000ff;stroke-width:1.5;" x="319.183965" xlink:href="#m17f7a3920a" y="305.291421"/>
     <use style="fill:#0000ff;stroke:#0000ff;stroke-width:1.5;" x="365.306332" xlink:href="#m17f7a3920a" y="256.453559"/>
     <use style="fill:#0000ff;stroke:#0000ff;stroke-width:1.5;" x="276.380543" xlink:href="#m17f7a3920a" y="377.824831"/>
     <use style="fill:#0000ff;stroke:#0000ff;stroke-width:1.5;" x="236.962419" xlink:href="#m17f7a3920a" y="311.152612"/>
     <use style="fill:#0000ff;stroke:#0000ff;stroke-width:1.5;" x="272.05403" xlink:href="#m17f7a3920a" y="288.276129"/>
     <use style="fill:#0000ff;stroke:#0000ff;stroke-width:1.5;" x="173.923852" xlink:href="#m17f7a3920a" y="277.893928"/>
     <use style="fill:#0000ff;stroke:#0000ff;stroke-width:1.5;" x="293.107743" xlink:href="#m17f7a3920a" y="250.334122"/>
     <use style="fill:#0000ff;stroke:#0000ff;stroke-width:1.5;" x="302.966752" xlink:href="#m17f7a3920a" y="298.466995"/>
     <use style="fill:#0000ff;stroke:#0000ff;stroke-width:1.5;" x="90.715492" xlink:href="#m17f7a3920a" y="-1"/>
     <use style="fill:#0000ff;stroke:#0000ff;stroke-width:1.5;" x="89.041127" xlink:href="#m17f7a3920a" y="-1"/>
     <use style="fill:#0000ff;stroke:#0000ff;stroke-width:1.5;" x="272.555069" xlink:href="#m17f7a3920a" y="272.596718"/>
     <use style="fill:#0000ff;stroke:#0000ff;stroke-width:1.5;" x="344.07169" xlink:href="#m17f7a3920a" y="290.055886"/>
     <use style="fill:#0000ff;stroke:#0000ff;stroke-width:1.5;" x="235.601606" xlink:href="#m17f7a3920a" y="221.918227"/>
     <use style="fill:#0000ff;stroke:#0000ff;stroke-width:1.5;" x="274.978277" xlink:href="#m17f7a3920a" y="232.372798"/>
     <use style="fill:#0000ff;stroke:#0000ff;stroke-width:1.5;" x="314.593261" xlink:href="#m17f7a3920a" y="315.686025"/>
     <use style="fill:#0000ff;stroke:#0000ff;stroke-width:1.5;" x="186.101084" xlink:href="#m17f7a3920a" y="347.732235"/>
     <use style="fill:#0000ff;stroke:#0000ff;stroke-width:1.5;" x="253.165029" xlink:href="#m17f7a3920a" y="319.13555"/>
     <use style="fill:#0000ff;stroke:#0000ff;stroke-width:1.5;" x="167.07315" xlink:href="#m17f7a3920a" y="300.48071"/>
     <use style="fill:#0000ff;stroke:#0000ff;stroke-width:1.5;" x="222.077814" xlink:href="#m17f7a3920a" y="379.078909"/>
     <use style="fill:#0000ff;stroke:#0000ff;stroke-width:1.5;" x="96.562788" xlink:href="#m17f7a3920a" y="310.110578"/>
     <use style="fill:#0000ff;stroke:#0000ff;stroke-width:1.5;" x="286.97931" xlink:href="#m17f7a3920a" y="271.783419"/>
     <use style="fill:#0000ff;stroke:#0000ff;stroke-width:1.5;" x="334.75816" xlink:href="#m17f7a3920a" y="278.550978"/>
     <use style="fill:#0000ff;stroke:#0000ff;stroke-width:1.5;" x="231.471799" xlink:href="#m17f7a3920a" y="261.780352"/>
     <use style="fill:#0000ff;stroke:#0000ff;stroke-width:1.5;" x="310.582413" xlink:href="#m17f7a3920a" y="295.734083"/>
     <use style="fill:#0000ff;stroke:#0000ff;stroke-width:1.5;" x="324.759027" xlink:href="#m17f7a3920a" y="287.259324"/>
     <use style="fill:#0000ff;stroke:#0000ff;stroke-width:1.5;" x="305.737008" xlink:href="#m17f7a3920a" y="280.727462"/>
     <use style="fill:#0000ff;stroke:#0000ff;stroke-width:1.5;" x="277.804288" xlink:href="#m17f7a3920a" y="295.682938"/>
     <use style="fill:#0000ff;stroke:#0000ff;stroke-width:1.5;" x="306.974225" xlink:href="#m17f7a3920a" y="355.159677"/>
     <use style="fill:#0000ff;stroke:#0000ff;stroke-width:1.5;" x="259.379814" xlink:href="#m17f7a3920a" y="330.740943"/>
     <use style="fill:#0000ff;stroke:#0000ff;stroke-width:1.5;" x="192.503213" xlink:href="#m17f7a3920a" y="352.224899"/>
     <use style="fill:#0000ff;stroke:#0000ff;stroke-width:1.5;" x="190.279505" xlink:href="#m17f7a3920a" y="256.753874"/>
     <use style="fill:#0000ff;stroke:#0000ff;stroke-width:1.5;" x="311.956434" xlink:href="#m17f7a3920a" y="305.989132"/>
     <use style="fill:#0000ff;stroke:#0000ff;stroke-width:1.5;" x="314.174511" xlink:href="#m17f7a3920a" y="239.993012"/>
     <use style="fill:#0000ff;stroke:#0000ff;stroke-width:1.5;" x="230.399374" xlink:href="#m17f7a3920a" y="354.620947"/>
     <use style="fill:#0000ff;stroke:#0000ff;stroke-width:1.5;" x="297.886495" xlink:href="#m17f7a3920a" y="266.865586"/>
     <use style="fill:#0000ff;stroke:#0000ff;stroke-width:1.5;" x="226.199683" xlink:href="#m17f7a3920a" y="352.406087"/>
     <use style="fill:#0000ff;stroke:#0000ff;stroke-width:1.5;" x="119.280976" xlink:href="#m17f7a3920a" y="262.334077"/>
     <use style="fill:#0000ff;stroke:#0000ff;stroke-width:1.5;" x="32.031605" xlink:href="#m17f7a3920a" y="239.50236"/>
     <use style="fill:#0000ff;stroke:#0000ff;stroke-width:1.5;" x="274.345487" xlink:href="#m17f7a3920a" y="300.29395"/>
     <use style="fill:#0000ff;stroke:#0000ff;stroke-width:1.5;" x="289.794995" xlink:href="#m17f7a3920a" y="291.730393"/>
     <use style="fill:#0000ff;stroke:#0000ff;stroke-width:1.5;" x="343.948492" xlink:href="#m17f7a3920a" y="255.252023"/>
     <use style="fill:#0000ff;stroke:#0000ff;stroke-width:1.5;" x="342.993903" xlink:href="#m17f7a3920a" y="330.969884"/>
     <use style="fill:#0000ff;stroke:#0000ff;stroke-width:1.5;" x="334.687153" xlink:href="#m17f7a3920a" y="288.435594"/>
     <use style="fill:#0000ff;stroke:#0000ff;stroke-width:1.5;" x="152.515235" xlink:href="#m17f7a3920a" y="288.284834"/>
     <use style="fill:#0000ff;stroke:#0000ff;stroke-width:1.5;" x="175.166645" xlink:href="#m17f7a3920a" y="270.806604"/>
     <use style="fill:#0000ff;stroke:#0000ff;stroke-width:1.5;" x="224.982372" xlink:href="#m17f7a3920a" y="254.291069"/>
     <use style="fill:#0000ff;stroke:#0000ff;stroke-width:1.5;" x="256.170442" xlink:href="#m17f7a3920a" y="277.022204"/>
     <use style="fill:#0000ff;stroke:#0000ff;stroke-width:1.5;" x="210.857019" xlink:href="#m17f7a3920a" y="322.024221"/>
     <use style="fill:#0000ff;stroke:#0000ff;stroke-width:1.5;" x="231.475221" xlink:href="#m17f7a3920a" y="219.353176"/>
     <use style="fill:#0000ff;stroke:#0000ff;stroke-width:1.5;" x="223.119528" xlink:href="#m17f7a3920a" y="237.338751"/>
     <use style="fill:#0000ff;stroke:#0000ff;stroke-width:1.5;" x="220.929774" xlink:href="#m17f7a3920a" y="292.796484"/>
     <use style="fill:#0000ff;stroke:#0000ff;stroke-width:1.5;" x="239.892527" xlink:href="#m17f7a3920a" y="283.923221"/>
     <use style="fill:#0000ff;stroke:#0000ff;stroke-width:1.5;" x="243.588996" xlink:href="#m17f7a3920a" y="345.288969"/>
     <use style="fill:#0000ff;stroke:#0000ff;stroke-width:1.5;" x="299.16406" xlink:href="#m17f7a3920a" y="250.090343"/>
     <use style="fill:#0000ff;stroke:#0000ff;stroke-width:1.5;" x="225.936192" xlink:href="#m17f7a3920a" y="312.115312"/>
     <use style="fill:#0000ff;stroke:#0000ff;stroke-width:1.5;" x="270.624305" xlink:href="#m17f7a3920a" y="297.763553"/>
     <use style="fill:#0000ff;stroke:#0000ff;stroke-width:1.5;" x="274.807782" xlink:href="#m17f7a3920a" y="317.237841"/>
     <use style="fill:#0000ff;stroke:#0000ff;stroke-width:1.5;" x="236.970639" xlink:href="#m17f7a3920a" y="197.179445"/>
     <use style="fill:#0000ff;stroke:#0000ff;stroke-width:1.5;" x="296.957669" xlink:href="#m17f7a3920a" y="264.33322"/>
     <use style="fill:#0000ff;stroke:#0000ff;stroke-width:1.5;" x="225.273473" xlink:href="#m17f7a3920a" y="248.121578"/>
     <use style="fill:#0000ff;stroke:#0000ff;stroke-width:1.5;" x="296.317669" xlink:href="#m17f7a3920a" y="316.276317"/>
     <use style="fill:#0000ff;stroke:#0000ff;stroke-width:1.5;" x="401.673912" xlink:href="#m17f7a3920a" y="174.01823"/>
     <use style="fill:#0000ff;stroke:#0000ff;stroke-width:1.5;" x="340.836436" xlink:href="#m17f7a3920a" y="301.080875"/>
     <use style="fill:#0000ff;stroke:#0000ff;stroke-width:1.5;" x="240.301733" xlink:href="#m17f7a3920a" y="288.334782"/>
     <use style="fill:#0000ff;stroke:#0000ff;stroke-width:1.5;" x="210.940551" xlink:href="#m17f7a3920a" y="254.346433"/>
     <use style="fill:#0000ff;stroke:#0000ff;stroke-width:1.5;" x="125.267405" xlink:href="#m17f7a3920a" y="321.804185"/>
     <use style="fill:#0000ff;stroke:#0000ff;stroke-width:1.5;" x="290.637314" xlink:href="#m17f7a3920a" y="260.540071"/>
     <use style="fill:#0000ff;stroke:#0000ff;stroke-width:1.5;" x="261.615947" xlink:href="#m17f7a3920a" y="329.753678"/>
     <use style="fill:#0000ff;stroke:#0000ff;stroke-width:1.5;" x="195.971061" xlink:href="#m17f7a3920a" y="234.852694"/>
     <use style="fill:#0000ff;stroke:#0000ff;stroke-width:1.5;" x="261.839461" xlink:href="#m17f7a3920a" y="301.353852"/>
     <use style="fill:#0000ff;stroke:#0000ff;stroke-width:1.5;" x="196.130179" xlink:href="#m17f7a3920a" y="384.061499"/>
     <use style="fill:#0000ff;stroke:#0000ff;stroke-width:1.5;" x="235.816626" xlink:href="#m17f7a3920a" y="235.837071"/>
     <use style="fill:#0000ff;stroke:#0000ff;stroke-width:1.5;" x="349.839555" xlink:href="#m17f7a3920a" y="269.987246"/>
     <use style="fill:#0000ff;stroke:#0000ff;stroke-width:1.5;" x="291.152929" xlink:href="#m17f7a3920a" y="327.033149"/>
     <use style="fill:#0000ff;stroke:#0000ff;stroke-width:1.5;" x="217.840597" xlink:href="#m17f7a3920a" y="294.157526"/>
     <use style="fill:#0000ff;stroke:#0000ff;stroke-width:1.5;" x="286.037794" xlink:href="#m17f7a3920a" y="296.904324"/>
     <use style="fill:#0000ff;stroke:#0000ff;stroke-width:1.5;" x="149.005326" xlink:href="#m17f7a3920a" y="128.95818"/>
     <use style="fill:#0000ff;stroke:#0000ff;stroke-width:1.5;" x="-1" xlink:href="#m17f7a3920a" y="226.636502"/>
     <use style="fill:#0000ff;stroke:#0000ff;stroke-width:1.5;" x="-1" xlink:href="#m17f7a3920a" y="308.868238"/>
     <use style="fill:#0000ff;stroke:#0000ff;stroke-width:1.5;" x="317.759723" xlink:href="#m17f7a3920a" y="323.642153"/>
     <use style="fill:#0000ff;stroke:#0000ff;stroke-width:1.5;" x="220.937949" xlink:href="#m17f7a3920a" y="215.602739"/>
     <use style="fill:#0000ff;stroke:#0000ff;stroke-width:1.5;" x="373.452048" xlink:href="#m17f7a3920a" y="259.220197"/>
     <use style="fill:#0000ff;stroke:#0000ff;stroke-width:1.5;" x="155.194252" xlink:href="#m17f7a3920a" y="329.0422"/>
     <use style="fill:#0000ff;stroke:#0000ff;stroke-width:1.5;" x="287.33933" xlink:href="#m17f7a3920a" y="219.735931"/>
     <use style="fill:#0000ff;stroke:#0000ff;stroke-width:1.5;" x="271.120787" xlink:href="#m17f7a3920a" y="269.926407"/>
     <use style="fill:#0000ff;stroke:#0000ff;stroke-width:1.5;" x="206.988656" xlink:href="#m17f7a3920a" y="265.2519"/>
     <use style="fill:#0000ff;stroke:#0000ff;stroke-width:1.5;" x="287.044371" xlink:href="#m17f7a3920a" y="285.396119"/>
     <use style="fill:#0000ff;stroke:#0000ff;stroke-width:1.5;" x="354.943707" xlink:href="#m17f7a3920a" y="316.64644"/>
     <use style="fill:#0000ff;stroke:#0000ff;stroke-width:1.5;" x="295.397036" xlink:href="#m17f7a3920a" y="311.367163"/>
     <use style="fill:#0000ff;stroke:#0000ff;stroke-width:1.5;" x="242.964827" xlink:href="#m17f7a3920a" y="231.907382"/>
     <use style="fill:#0000ff;stroke:#0000ff;stroke-width:1.5;" x="263.692027" xlink:href="#m17f7a3920a" y="303.530646"/>
     <use style="fill:#0000ff;stroke:#0000ff;stroke-width:1.5;" x="172.894287" xlink:href="#m17f7a3920a" y="373.723967"/>
     <use style="fill:#0000ff;stroke:#0000ff;stroke-width:1.5;" x="35.02802" xlink:href="#m17f7a3920a" y="434.176358"/>
     <use style="fill:#0000ff;stroke:#0000ff;stroke-width:1.5;" x="253.750335" xlink:href="#m17f7a3920a" y="357.081558"/>
     <use style="fill:#0000ff;stroke:#0000ff;stroke-width:1.5;" x="253.613319" xlink:href="#m17f7a3920a" y="262.215716"/>
     <use style="fill:#0000ff;stroke:#0000ff;stroke-width:1.5;" x="240.01492" xlink:href="#m17f7a3920a" y="207.730936"/>
     <use style="fill:#0000ff;stroke:#0000ff;stroke-width:1.5;" x="320.322198" xlink:href="#m17f7a3920a" y="165.010291"/>
     <use style="fill:#0000ff;stroke:#0000ff;stroke-width:1.5;" x="294.662473" xlink:href="#m17f7a3920a" y="325.177629"/>
     <use style="fill:#0000ff;stroke:#0000ff;stroke-width:1.5;" x="286.210756" xlink:href="#m17f7a3920a" y="305.131024"/>
     <use style="fill:#0000ff;stroke:#0000ff;stroke-width:1.5;" x="257.936373" xlink:href="#m17f7a3920a" y="310.614307"/>
     <use style="fill:#0000ff;stroke:#0000ff;stroke-width:1.5;" x="309.732366" xlink:href="#m17f7a3920a" y="264.270465"/>
     <use style="fill:#0000ff;stroke:#0000ff;stroke-width:1.5;" x="198.854368" xlink:href="#m17f7a3920a" y="339.242165"/>
     <use style="fill:#0000ff;stroke:#0000ff;stroke-width:1.5;" x="287.159974" xlink:href="#m17f7a3920a" y="245.263556"/>
     <use style="fill:#0000ff;stroke:#0000ff;stroke-width:1.5;" x="238.602838" xlink:href="#m17f7a3920a" y="271.556757"/>
     <use style="fill:#0000ff;stroke:#0000ff;stroke-width:1.5;" x="209.495733" xlink:href="#m17f7a3920a" y="373.805678"/>
     <use style="fill:#0000ff;stroke:#0000ff;stroke-width:1.5;" x="302.425414" xlink:href="#m17f7a3920a" y="286.154772"/>
     <use style="fill:#0000ff;stroke:#0000ff;stroke-width:1.5;" x="236.679713" xlink:href="#m17f7a3920a" y="250.852114"/>
     <use style="fill:#0000ff;stroke:#0000ff;stroke-width:1.5;" x="260.292218" xlink:href="#m17f7a3920a" y="283.902126"/>
     <use style="fill:#0000ff;stroke:#0000ff;stroke-width:1.5;" x="228.037826" xlink:href="#m17f7a3920a" y="276.030662"/>
     <use style="fill:#0000ff;stroke:#0000ff;stroke-width:1.5;" x="159.188855" xlink:href="#m17f7a3920a" y="331.826276"/>
     <use style="fill:#0000ff;stroke:#0000ff;stroke-width:1.5;" x="183.209314" xlink:href="#m17f7a3920a" y="260.048758"/>
     <use style="fill:#0000ff;stroke:#0000ff;stroke-width:1.5;" x="322.941797" xlink:href="#m17f7a3920a" y="229.905645"/>
     <use style="fill:#0000ff;stroke:#0000ff;stroke-width:1.5;" x="125.187939" xlink:href="#m17f7a3920a" y="259.221483"/>
     <use style="fill:#0000ff;stroke:#0000ff;stroke-width:1.5;" x="281.158876" xlink:href="#m17f7a3920a" y="257.587938"/>
     <use style="fill:#0000ff;stroke:#0000ff;stroke-width:1.5;" x="183.487481" xlink:href="#m17f7a3920a" y="333.306379"/>
     <use style="fill:#0000ff;stroke:#0000ff;stroke-width:1.5;" x="208.407539" xlink:href="#m17f7a3920a" y="410.619254"/>
     <use style="fill:#0000ff;stroke:#0000ff;stroke-width:1.5;" x="226.202065" xlink:href="#m17f7a3920a" y="284.22172"/>
     <use style="fill:#0000ff;stroke:#0000ff;stroke-width:1.5;" x="152.078874" xlink:href="#m17f7a3920a" y="356.25179"/>
     <use style="fill:#0000ff;stroke:#0000ff;stroke-width:1.5;" x="221.14669" xlink:href="#m17f7a3920a" y="212.637323"/>
     <use style="fill:#0000ff;stroke:#0000ff;stroke-width:1.5;" x="263.269489" xlink:href="#m17f7a3920a" y="292.825666"/>
     <use style="fill:#0000ff;stroke:#0000ff;stroke-width:1.5;" x="180.889697" xlink:href="#m17f7a3920a" y="383.711272"/>
     <use style="fill:#0000ff;stroke:#0000ff;stroke-width:1.5;" x="213.096697" xlink:href="#m17f7a3920a" y="364.584259"/>
     <use style="fill:#0000ff;stroke:#0000ff;stroke-width:1.5;" x="255.554594" xlink:href="#m17f7a3920a" y="285.185087"/>
     <use style="fill:#0000ff;stroke:#0000ff;stroke-width:1.5;" x="288.339527" xlink:href="#m17f7a3920a" y="220.250037"/>
     <use style="fill:#0000ff;stroke:#0000ff;stroke-width:1.5;" x="287.051796" xlink:href="#m17f7a3920a" y="240.91675"/>
     <use style="fill:#0000ff;stroke:#0000ff;stroke-width:1.5;" x="48.965317" xlink:href="#m17f7a3920a" y="265.748042"/>
     <use style="fill:#0000ff;stroke:#0000ff;stroke-width:1.5;" x="306.491523" xlink:href="#m17f7a3920a" y="254.370806"/>
     <use style="fill:#0000ff;stroke:#0000ff;stroke-width:1.5;" x="36.204624" xlink:href="#m17f7a3920a" y="42.231657"/>
     <use style="fill:#0000ff;stroke:#0000ff;stroke-width:1.5;" x="291.822043" xlink:href="#m17f7a3920a" y="342.862391"/>
     <use style="fill:#0000ff;stroke:#0000ff;stroke-width:1.5;" x="250.008854" xlink:href="#m17f7a3920a" y="323.772836"/>
     <use style="fill:#0000ff;stroke:#0000ff;stroke-width:1.5;" x="169.892743" xlink:href="#m17f7a3920a" y="236.094615"/>
     <use style="fill:#0000ff;stroke:#0000ff;stroke-width:1.5;" x="170.203134" xlink:href="#m17f7a3920a" y="249.093994"/>
     <use style="fill:#0000ff;stroke:#0000ff;stroke-width:1.5;" x="242.185953" xlink:href="#m17f7a3920a" y="298.491493"/>
     <use style="fill:#0000ff;stroke:#0000ff;stroke-width:1.5;" x="258.56497" xlink:href="#m17f7a3920a" y="281.366516"/>
     <use style="fill:#0000ff;stroke:#0000ff;stroke-width:1.5;" x="136.136228" xlink:href="#m17f7a3920a" y="219.053731"/>
     <use style="fill:#0000ff;stroke:#0000ff;stroke-width:1.5;" x="273.814597" xlink:href="#m17f7a3920a" y="323.541084"/>
     <use style="fill:#0000ff;stroke:#0000ff;stroke-width:1.5;" x="337.41732" xlink:href="#m17f7a3920a" y="258.512476"/>
     <use style="fill:#0000ff;stroke:#0000ff;stroke-width:1.5;" x="207.336618" xlink:href="#m17f7a3920a" y="357.556306"/>
     <use style="fill:#0000ff;stroke:#0000ff;stroke-width:1.5;" x="185.477611" xlink:href="#m17f7a3920a" y="277.019574"/>
     <use style="fill:#0000ff;stroke:#0000ff;stroke-width:1.5;" x="407.577082" xlink:href="#m17f7a3920a" y="272.07013"/>
     <use style="fill:#0000ff;stroke:#0000ff;stroke-width:1.5;" x="221.098603" xlink:href="#m17f7a3920a" y="226.219861"/>
     <use style="fill:#0000ff;stroke:#0000ff;stroke-width:1.5;" x="298.16333" xlink:href="#m17f7a3920a" y="285.219193"/>
     <use style="fill:#0000ff;stroke:#0000ff;stroke-width:1.5;" x="345.654068" xlink:href="#m17f7a3920a" y="266.270305"/>
     <use style="fill:#0000ff;stroke:#0000ff;stroke-width:1.5;" x="255.274589" xlink:href="#m17f7a3920a" y="283.88808"/>
     <use style="fill:#0000ff;stroke:#0000ff;stroke-width:1.5;" x="26.618152" xlink:href="#m17f7a3920a" y="384.339819"/>
     <use style="fill:#0000ff;stroke:#0000ff;stroke-width:1.5;" x="319.804092" xlink:href="#m17f7a3920a" y="317.220466"/>
     <use style="fill:#0000ff;stroke:#0000ff;stroke-width:1.5;" x="314.368626" xlink:href="#m17f7a3920a" y="273.805512"/>
     <use style="fill:#0000ff;stroke:#0000ff;stroke-width:1.5;" x="256.052836" xlink:href="#m17f7a3920a" y="265.390921"/>
     <use style="fill:#0000ff;stroke:#0000ff;stroke-width:1.5;" x="321.414764" xlink:href="#m17f7a3920a" y="345.923019"/>
    </g>
   </g>
   <g id="PathCollection_2">
    <defs>
     <path d="M 0 3 
C 0.795609 3 1.55874 2.683901 2.12132 2.12132 
C 2.683901 1.55874 3 0.795609 3 0 
C 3 -0.795609 2.683901 -1.55874 2.12132 -2.12132 
C 1.55874 -2.683901 0.795609 -3 0 -3 
C -0.795609 -3 -1.55874 -2.683901 -2.12132 -2.12132 
C -2.683901 -1.55874 -3 -0.795609 -3 0 
C -3 0.795609 -2.683901 1.55874 -2.12132 2.12132 
C -1.55874 2.683901 -0.795609 3 0 3 
z
" id="m39ed60b7cf" style="stroke:#ff0000;"/>
    </defs>
    <g clip-path="url(#pea4abc6b7b)">
     <use style="fill:#ff0000;stroke:#ff0000;" x="308.171125" xlink:href="#m39ed60b7cf" y="277.79285"/>
    </g>
   </g>
   <g id="patch_3">
    <path clip-path="url(#pea4abc6b7b)" d="M 308.171125 395.288425 
C 339.511352 395.288425 369.572184 382.90835 391.733071 360.874768 
C 413.893958 338.841186 426.345563 308.953041 426.345563 277.79285 
C 426.345563 246.632659 413.893958 216.744514 391.733071 194.710932 
C 369.572184 172.67735 339.511352 160.297275 308.171125 160.297275 
C 276.830898 160.297275 246.770066 172.67735 224.609179 194.710932 
C 202.448292 216.744514 189.996688 246.632659 189.996688 277.79285 
C 189.996688 308.953041 202.448292 338.841186 224.609179 360.874768 
C 246.770066 382.90835 276.830898 395.288425 308.171125 395.288425 
z
" style="fill:none;stroke:#ff0000;stroke-linejoin:miter;"/>
   </g>
   <g id="matplotlib.axis_1">
    <g id="xtick_1">
     <g id="line2d_1">
      <path clip-path="url(#pea4abc6b7b)" d="M 71.82225 512.784 
L 71.82225 42.8017 
" style="fill:none;stroke:#b0b0b0;stroke-linecap:square;stroke-width:0.8;"/>
     </g>
     <g id="line2d_2">
      <defs>
       <path d="M 0 0 
L 0 3.5 
" id="m0751d2b2de" style="stroke:#000000;stroke-width:0.8;"/>
      </defs>
      <g>
       <use style="stroke:#000000;stroke-width:0.8;" x="71.82225" xlink:href="#m0751d2b2de" y="512.784"/>
      </g>
     </g>
     <g id="text_1">
      <!-- −15 -->
      <defs>
       <path d="M 3 22 
L 3 28.59375 
L 53.40625 28.59375 
L 53.40625 22 
z
" id="FreeSerif-8722"/>
       <path d="M 18.296875 59.296875 
Q 16.5 59.296875 11.09375 57.09375 
L 11.09375 58.5 
L 29.09375 67.59375 
L 29.90625 67.40625 
L 29.90625 7.40625 
Q 29.90625 3.796875 31.703125 2.6875 
Q 33.5 1.59375 39.40625 1.5 
L 39.40625 0 
L 11.796875 0 
L 11.796875 1.5 
Q 17.40625 1.703125 19.34375 3.140625 
Q 21.296875 4.59375 21.296875 9.296875 
L 21.296875 54.59375 
Q 21.296875 59.296875 18.296875 59.296875 
z
" id="FreeSerif-49"/>
       <path d="M 35.703125 19.40625 
Q 35.703125 24.703125 33.34375 28.796875 
Q 31 32.90625 27.640625 35.15625 
Q 24.296875 37.40625 20.140625 38.84375 
Q 16 40.296875 12.953125 40.75 
Q 9.90625 41.203125 7.59375 41.203125 
Q 6.40625 41.203125 6.40625 42 
Q 6.40625 42.296875 6.5 42.5 
L 17.40625 66.203125 
L 38.296875 66.203125 
Q 39.90625 66.203125 40.84375 66.703125 
Q 41.796875 67.203125 42.90625 68.796875 
L 43.796875 68.09375 
L 40 59.203125 
Q 39.59375 58.296875 37.703125 58.296875 
L 18.09375 58.296875 
L 13.90625 49.796875 
Q 28.5 47.203125 35.59375 41.34375 
Q 42.703125 35.5 42.703125 24.203125 
Q 42.703125 18.296875 40.84375 13.6875 
Q 39 9.09375 36.140625 6.296875 
Q 33.296875 3.5 29.546875 1.703125 
Q 25.796875 -0.09375 22.34375 -0.75 
Q 18.90625 -1.40625 15.40625 -1.40625 
Q 9.796875 -1.40625 6.5 0.25 
Q 3.203125 1.90625 3.203125 4.796875 
Q 3.203125 8.5 7.5 8.5 
Q 10.296875 8.5 14.75 5.390625 
Q 19.203125 2.296875 21.796875 2.296875 
Q 27.703125 2.296875 31.703125 7.25 
Q 35.703125 12.203125 35.703125 19.40625 
z
" id="FreeSerif-53"/>
      </defs>
      <g transform="translate(57.745688 532.077437)scale(0.18 -0.18)">
       <use xlink:href="#FreeSerif-8722"/>
       <use x="56.399994" xlink:href="#FreeSerif-49"/>
       <use x="106.399979" xlink:href="#FreeSerif-53"/>
      </g>
     </g>
    </g>
    <g id="xtick_2">
     <g id="line2d_3">
      <path clip-path="url(#pea4abc6b7b)" d="M 150.605208 512.784 
L 150.605208 42.8017 
" style="fill:none;stroke:#b0b0b0;stroke-linecap:square;stroke-width:0.8;"/>
     </g>
     <g id="line2d_4">
      <g>
       <use style="stroke:#000000;stroke-width:0.8;" x="150.605208" xlink:href="#m0751d2b2de" y="512.784"/>
      </g>
     </g>
     <g id="text_2">
      <!-- −10 -->
      <defs>
       <path d="M 47.59375 17.796875 
Q 35.203125 -1.40625 25 -1.40625 
Q 14.796875 -1.40625 8.59375 8.390625 
Q 2.40625 18.203125 2.40625 33.59375 
Q 2.40625 48.09375 8.59375 57.84375 
Q 14.796875 67.59375 25.40625 67.59375 
Q 35.203125 67.59375 41.390625 58 
Q 47.59375 48.40625 47.59375 33 
Q 47.59375 17.796875 35.203125 -1.40625 
z
M 25.09375 65 
Q 12 65 12 32.703125 
Q 12 1.203125 25 1.203125 
Q 38 1.203125 38 32.796875 
Q 38 48.5 34.703125 56.75 
Q 31.40625 65 25.09375 65 
z
" id="FreeSerif-48"/>
      </defs>
      <g transform="translate(136.528646 532.077437)scale(0.18 -0.18)">
       <use xlink:href="#FreeSerif-8722"/>
       <use x="56.399994" xlink:href="#FreeSerif-49"/>
       <use x="106.399979" xlink:href="#FreeSerif-48"/>
      </g>
     </g>
    </g>
    <g id="xtick_3">
     <g id="line2d_5">
      <path clip-path="url(#pea4abc6b7b)" d="M 229.388167 512.784 
L 229.388167 42.8017 
" style="fill:none;stroke:#b0b0b0;stroke-linecap:square;stroke-width:0.8;"/>
     </g>
     <g id="line2d_6">
      <g>
       <use style="stroke:#000000;stroke-width:0.8;" x="229.388167" xlink:href="#m0751d2b2de" y="512.784"/>
      </g>
     </g>
     <g id="text_3">
      <!-- −5 -->
      <g transform="translate(219.811604 532.077437)scale(0.18 -0.18)">
       <use xlink:href="#FreeSerif-8722"/>
       <use x="56.399994" xlink:href="#FreeSerif-53"/>
      </g>
     </g>
    </g>
    <g id="xtick_4">
     <g id="line2d_7">
      <path clip-path="url(#pea4abc6b7b)" d="M 308.171125 512.784 
L 308.171125 42.8017 
" style="fill:none;stroke:#b0b0b0;stroke-linecap:square;stroke-width:0.8;"/>
     </g>
     <g id="line2d_8">
      <g>
       <use style="stroke:#000000;stroke-width:0.8;" x="308.171125" xlink:href="#m0751d2b2de" y="512.784"/>
      </g>
     </g>
     <g id="text_4">
      <!-- 0 -->
      <g transform="translate(303.671125 532.077437)scale(0.18 -0.18)">
       <use xlink:href="#FreeSerif-48"/>
      </g>
     </g>
    </g>
    <g id="xtick_5">
     <g id="line2d_9">
      <path clip-path="url(#pea4abc6b7b)" d="M 386.954083 512.784 
L 386.954083 42.8017 
" style="fill:none;stroke:#b0b0b0;stroke-linecap:square;stroke-width:0.8;"/>
     </g>
     <g id="line2d_10">
      <g>
       <use style="stroke:#000000;stroke-width:0.8;" x="386.954083" xlink:href="#m0751d2b2de" y="512.784"/>
      </g>
     </g>
     <g id="text_5">
      <!-- 5 -->
      <g transform="translate(382.454083 532.077437)scale(0.18 -0.18)">
       <use xlink:href="#FreeSerif-53"/>
      </g>
     </g>
    </g>
    <g id="xtick_6">
     <g id="line2d_11">
      <path clip-path="url(#pea4abc6b7b)" d="M 465.737042 512.784 
L 465.737042 42.8017 
" style="fill:none;stroke:#b0b0b0;stroke-linecap:square;stroke-width:0.8;"/>
     </g>
     <g id="line2d_12">
      <g>
       <use style="stroke:#000000;stroke-width:0.8;" x="465.737042" xlink:href="#m0751d2b2de" y="512.784"/>
      </g>
     </g>
     <g id="text_6">
      <!-- 10 -->
      <g transform="translate(456.737042 532.077437)scale(0.18 -0.18)">
       <use xlink:href="#FreeSerif-49"/>
       <use x="49.999985" xlink:href="#FreeSerif-48"/>
      </g>
     </g>
    </g>
    <g id="xtick_7">
     <g id="line2d_13">
      <path clip-path="url(#pea4abc6b7b)" d="M 544.52 512.784 
L 544.52 42.8017 
" style="fill:none;stroke:#b0b0b0;stroke-linecap:square;stroke-width:0.8;"/>
     </g>
     <g id="line2d_14">
      <g>
       <use style="stroke:#000000;stroke-width:0.8;" x="544.52" xlink:href="#m0751d2b2de" y="512.784"/>
      </g>
     </g>
     <g id="text_7">
      <!-- 15 -->
      <g transform="translate(535.52 532.077437)scale(0.18 -0.18)">
       <use xlink:href="#FreeSerif-49"/>
       <use x="49.999985" xlink:href="#FreeSerif-53"/>
      </g>
     </g>
    </g>
    <g id="text_8">
     <!-- X coordinate error (cm) -->
     <defs>
      <path d="M 69.59375 66.203125 
L 69.59375 64.296875 
Q 64.703125 64 62.046875 62.34375 
Q 59.40625 60.703125 54.703125 54.90625 
L 40.09375 36.703125 
L 59.296875 9.296875 
Q 62.296875 5 64.296875 3.703125 
Q 66.296875 2.40625 70.40625 1.90625 
L 70.40625 0 
L 40.703125 0 
L 40.703125 1.90625 
Q 44.796875 2.296875 46.59375 2.9375 
Q 48.40625 3.59375 48.40625 5 
Q 48.40625 7.203125 43.296875 14.796875 
L 33.796875 28.796875 
L 21.90625 14 
Q 16.703125 7.5 16.703125 5.40625 
Q 16.703125 3.703125 18.296875 2.953125 
Q 19.90625 2.203125 24.296875 1.90625 
L 24.296875 0 
L 1 0 
L 1 1.90625 
Q 4.90625 2.203125 7 3.796875 
Q 9.09375 5.40625 15.5 13.296875 
L 31.203125 32.59375 
L 20.296875 48.59375 
Q 13.296875 58.90625 10.25 61.5 
Q 7.203125 64.09375 2.203125 64.296875 
L 2.203125 66.203125 
L 32.40625 66.203125 
L 32.40625 64.296875 
L 29.59375 64.203125 
Q 24.796875 64.09375 24.796875 61.296875 
Q 24.796875 58.09375 33.296875 46.296875 
L 37.5 40.40625 
L 48.796875 54.203125 
Q 52.796875 59.203125 52.796875 61.09375 
Q 52.796875 62.796875 51.34375 63.4375 
Q 49.90625 64.09375 45.796875 64.296875 
L 45.796875 66.203125 
z
" id="FreeSerif-88"/>
      <path id="FreeSerif-32"/>
      <path d="M 2.5 21.296875 
Q 2.5 32.40625 9.046875 39.203125 
Q 15.59375 46 24.40625 46 
Q 30.703125 46 35.25 42.953125 
Q 39.796875 39.90625 39.796875 35.703125 
Q 39.796875 34 38.390625 32.75 
Q 37 31.5 35 31.5 
Q 31.59375 31.5 30.296875 36.09375 
L 29.703125 38.296875 
Q 28.90625 41.09375 27.703125 42.09375 
Q 26.5 43.09375 23.796875 43.09375 
Q 17.703125 43.09375 13.953125 38.25 
Q 10.203125 33.40625 10.203125 25.703125 
Q 10.203125 17.09375 14.546875 11.640625 
Q 18.90625 6.203125 25.703125 6.203125 
Q 30 6.203125 33.09375 8.25 
Q 36.203125 10.296875 39.796875 15.59375 
L 41.203125 14.703125 
Q 40.203125 12.703125 39.453125 11.390625 
Q 38.703125 10.09375 36.75 7.5 
Q 34.796875 4.90625 32.890625 3.296875 
Q 31 1.703125 27.890625 0.34375 
Q 24.796875 -1 21.5 -1 
Q 13.203125 -1 7.84375 5.25 
Q 2.5 11.5 2.5 21.296875 
z
" id="FreeSerif-99"/>
      <path d="M 24.59375 46 
Q 34.203125 46 40.390625 39.59375 
Q 46.59375 33.203125 46.59375 23.40625 
Q 46.59375 13 40.1875 6 
Q 33.796875 -1 24.390625 -1 
Q 15 -1 8.75 5.75 
Q 2.5 12.5 2.5 22.59375 
Q 2.5 32.90625 8.640625 39.453125 
Q 14.796875 46 24.59375 46 
z
M 11.5 27.5 
Q 11.5 16.796875 15.390625 9.296875 
Q 19.296875 1.796875 25.59375 1.796875 
Q 31.203125 1.796875 34.390625 6.59375 
Q 37.59375 11.40625 37.59375 19.90625 
Q 37.59375 30.203125 33.59375 36.703125 
Q 29.59375 43.203125 23.296875 43.203125 
Q 18 43.203125 14.75 38.890625 
Q 11.5 34.59375 11.5 27.5 
z
" id="FreeSerif-111"/>
      <path d="M 30.09375 36.203125 
Q 28.59375 36.203125 26.390625 37.953125 
Q 24.203125 39.703125 23.5 39.703125 
Q 21.5 39.703125 19 36.796875 
Q 16.5 33.90625 16.5 31.5 
L 16.5 9 
Q 16.5 4.703125 18.203125 3.203125 
Q 19.90625 1.703125 25 1.5 
L 25 0 
L 1 0 
L 1 1.5 
Q 5.796875 2.40625 6.9375 3.5 
Q 8.09375 4.59375 8.09375 8.40625 
L 8.09375 33.40625 
Q 8.09375 36.703125 7.34375 38.046875 
Q 6.59375 39.40625 4.703125 39.40625 
Q 3.09375 39.40625 1.203125 39 
L 1.203125 40.59375 
Q 9.203125 43.203125 16 46 
L 16.5 45.796875 
L 16.5 36.59375 
Q 20.203125 41.90625 22.796875 43.953125 
Q 25.40625 46 28.5 46 
Q 31.09375 46 32.546875 44.59375 
Q 34 43.203125 34 40.703125 
Q 34 38.59375 32.953125 37.390625 
Q 31.90625 36.203125 30.09375 36.203125 
z
" id="FreeSerif-114"/>
      <path d="M 34.203125 -1 
L 33.796875 -0.703125 
L 33.796875 5.703125 
Q 29 -1 21 -1 
Q 12.703125 -1 7.59375 4.953125 
Q 2.5 10.90625 2.5 20.5 
Q 2.5 31.09375 8.59375 38.546875 
Q 14.703125 46 23.296875 46 
Q 28.703125 46 33.796875 41.703125 
L 33.796875 57.296875 
Q 33.796875 60.40625 32.890625 61.40625 
Q 32 62.40625 29.203125 62.40625 
Q 27.796875 62.40625 27 62.296875 
L 27 63.90625 
Q 36.09375 66.296875 41.703125 68.296875 
L 42.203125 68.09375 
L 42.203125 11.40625 
Q 42.203125 7.90625 43.046875 6.796875 
Q 43.90625 5.703125 46.59375 5.703125 
Q 47.09375 5.703125 48.90625 5.796875 
L 48.90625 4.203125 
z
M 24.90625 4.203125 
Q 28.703125 4.203125 31.25 6.34375 
Q 33.796875 8.5 33.796875 10.203125 
L 33.796875 33.203125 
Q 33.796875 37.203125 30.6875 40.203125 
Q 27.59375 43.203125 23.59375 43.203125 
Q 17.90625 43.203125 14.5 38.09375 
Q 11.09375 33 11.09375 24.5 
Q 11.09375 15.296875 14.890625 9.75 
Q 18.703125 4.203125 24.90625 4.203125 
z
" id="FreeSerif-100"/>
      <path d="M 6.203125 39.296875 
Q 4 39.296875 2 39 
L 2 40.5 
Q 9 42.5 17.5 46 
L 17.90625 45.703125 
L 17.90625 10.203125 
Q 17.90625 4.796875 19.15625 3.34375 
Q 20.40625 1.90625 25.296875 1.5 
L 25.296875 0 
L 1.59375 0 
L 1.59375 1.5 
Q 6.796875 1.796875 8.140625 3.296875 
Q 9.5 4.796875 9.5 10.203125 
L 9.5 33.40625 
Q 9.5 36.703125 8.75 38 
Q 8 39.296875 6.203125 39.296875 
z
M 12.796875 68.296875 
Q 15 68.296875 16.5 66.796875 
Q 18 65.296875 18 63.203125 
Q 18 61 16.5 59.546875 
Q 15 58.09375 12.796875 58.09375 
Q 10.703125 58.09375 9.25 59.59375 
Q 7.796875 61.09375 7.796875 63.1875 
Q 7.796875 65.296875 9.296875 66.796875 
Q 10.796875 68.296875 12.796875 68.296875 
z
" id="FreeSerif-105"/>
      <path d="M 1 39.796875 
L 1 41.5 
Q 8.40625 43.703125 14.796875 46 
L 15.5 45.796875 
L 15.5 37.90625 
Q 20.59375 42.703125 23.546875 44.34375 
Q 26.5 46 30 46 
Q 35.5 46 38.640625 42.046875 
Q 41.796875 38.09375 41.796875 31 
L 41.796875 8.09375 
Q 41.796875 4.40625 43 3.15625 
Q 44.203125 1.90625 47.90625 1.5 
L 47.90625 0 
L 27.09375 0 
L 27.09375 1.5 
Q 30.90625 1.796875 32.15625 3.5 
Q 33.40625 5.203125 33.40625 9.90625 
L 33.40625 30.796875 
Q 33.40625 40.5 26.09375 40.5 
Q 23.59375 40.5 21.5 39.34375 
Q 19.40625 38.203125 15.796875 34.796875 
L 15.796875 6.703125 
Q 15.796875 4 17.1875 2.890625 
Q 18.59375 1.796875 22.40625 1.5 
L 22.40625 0 
L 1.203125 0 
L 1.203125 1.5 
Q 5 1.796875 6.203125 3.25 
Q 7.40625 4.703125 7.40625 9 
L 7.40625 33.796875 
Q 7.40625 37.5 6.59375 38.84375 
Q 5.796875 40.203125 3.703125 40.203125 
Q 1.796875 40.203125 1 39.796875 
z
" id="FreeSerif-110"/>
      <path d="M 2.5 9.703125 
Q 2.5 11.5 2.890625 13.046875 
Q 3.296875 14.59375 4.296875 15.9375 
Q 5.296875 17.296875 6.1875 18.390625 
Q 7.09375 19.5 8.890625 20.640625 
Q 10.703125 21.796875 11.890625 22.546875 
Q 13.09375 23.296875 15.546875 24.34375 
Q 18 25.40625 19.296875 25.953125 
Q 20.59375 26.5 23.390625 27.59375 
Q 26.203125 28.703125 27.5 29.203125 
L 27.5 35.296875 
Q 27.5 43.59375 19.90625 43.59375 
Q 16.90625 43.59375 14.796875 42.140625 
Q 12.703125 40.703125 12.703125 38.703125 
Q 12.703125 37.90625 12.953125 36.5 
Q 13.203125 35.09375 13.203125 34.703125 
Q 13.203125 33 11.84375 31.75 
Q 10.5 30.5 8.703125 30.5 
Q 7 30.5 5.703125 31.796875 
Q 4.40625 33.09375 4.40625 34.796875 
Q 4.40625 39.5 9.25 42.75 
Q 14.09375 46 21.203125 46 
Q 29.40625 46 32.5 42.046875 
Q 35.59375 38.09375 35.59375 30 
L 35.59375 10.5 
Q 35.59375 7.203125 36.25 5.953125 
Q 36.90625 4.703125 38.59375 4.703125 
Q 40.703125 4.703125 43 6.59375 
L 43 4 
Q 40.40625 1.09375 38.453125 0.046875 
Q 36.5 -1 34 -1 
Q 30.90625 -1 29.453125 0.703125 
Q 28 2.40625 27.59375 6.296875 
Q 19 -1 13 -1 
Q 8.40625 -1 5.453125 2 
Q 2.5 5 2.5 9.703125 
z
M 27.5 12.296875 
L 27.5 26.796875 
Q 18.5 23.5 14.890625 20.390625 
Q 11.296875 17.296875 11.296875 12.90625 
Q 11.296875 8.796875 13.296875 6.796875 
Q 15.296875 4.796875 17.59375 4.796875 
Q 21 4.796875 24.90625 7.09375 
Q 26.5 8 27 9 
Q 27.5 10 27.5 12.296875 
z
" id="FreeSerif-97"/>
      <path d="M 25.90625 45 
L 25.90625 41.796875 
L 15.796875 41.796875 
L 15.796875 13.203125 
Q 15.796875 8.5 17 6.34375 
Q 18.203125 4.203125 21 4.203125 
Q 24.09375 4.203125 27 7.703125 
L 28.296875 6.59375 
Q 23.5 -1 16.296875 -1 
Q 7.40625 -1 7.40625 11.703125 
L 7.40625 41.796875 
L 2.09375 41.796875 
Q 1.703125 42.09375 1.703125 42.5 
Q 1.703125 43 2 43.296875 
Q 2.296875 43.59375 3.140625 44.140625 
Q 4 44.703125 5.203125 45.640625 
Q 6.40625 46.59375 8.5 49.09375 
Q 10.59375 51.59375 13.09375 55.09375 
Q 14.703125 57.40625 15.09375 57.90625 
Q 15.796875 57.90625 15.796875 56.59375 
L 15.796875 45 
z
" id="FreeSerif-116"/>
      <path d="M 9.703125 27.703125 
Q 9.90625 21.40625 11.40625 16.84375 
Q 12.90625 12.296875 15.296875 10.046875 
Q 17.703125 7.796875 20.140625 6.84375 
Q 22.59375 5.90625 25.296875 5.90625 
Q 30.09375 5.90625 33.640625 8.296875 
Q 37.203125 10.703125 40.796875 16.40625 
L 42.40625 15.703125 
Q 39.296875 7.59375 33.796875 3.296875 
Q 28.296875 -1 21.203125 -1 
Q 12.59375 -1 7.546875 5.046875 
Q 2.5 11.09375 2.5 21.40625 
Q 2.5 32.5 8.34375 39.25 
Q 14.203125 46 23.40625 46 
Q 31 46 35.203125 41.453125 
Q 39.40625 36.90625 40.5 27.703125 
z
M 9.90625 30.90625 
L 30.296875 30.90625 
Q 29.296875 37.40625 27.1875 39.90625 
Q 25.09375 42.40625 20.5 42.40625 
Q 11.5 42.40625 9.90625 30.90625 
z
" id="FreeSerif-101"/>
      <path d="M 29.203125 -17.703125 
Q 26.59375 -16.09375 23.796875 -13.84375 
Q 21 -11.59375 17.453125 -7.59375 
Q 13.90625 -3.59375 11.203125 0.953125 
Q 8.5 5.5 6.640625 11.890625 
Q 4.796875 18.296875 4.796875 25.203125 
Q 4.796875 32.40625 6.640625 38.84375 
Q 8.5 45.296875 11 49.546875 
Q 13.5 53.796875 17.34375 57.75 
Q 21.203125 61.703125 23.703125 63.59375 
Q 26.203125 65.5 29.5 67.59375 
L 30.40625 66 
Q 26 62.40625 23.296875 59.5 
Q 20.59375 56.59375 18.09375 51.9375 
Q 15.59375 47.296875 14.5 40.84375 
Q 13.40625 34.40625 13.40625 25.5 
Q 13.40625 16.203125 14.5 9.5 
Q 15.59375 2.796875 18.09375 -1.953125 
Q 20.59375 -6.703125 23.296875 -9.703125 
Q 26 -12.703125 30.40625 -16.09375 
z
" id="FreeSerif-40"/>
      <path d="M 1.296875 39.796875 
L 1.296875 41.5 
Q 8.5 43.5 15.296875 46 
L 16 45.796875 
L 16 38.296875 
Q 22.203125 43 25.203125 44.5 
Q 28.203125 46 31.5 46 
Q 39.40625 46 42.09375 37.59375 
Q 49.90625 46 58.40625 46 
Q 70 46 70 28.203125 
L 70 7.59375 
Q 70 2 74.296875 1.703125 
L 76.90625 1.5 
L 76.90625 0 
L 55 0 
L 55 1.5 
Q 59.40625 2 60.5 3.203125 
Q 61.59375 4.40625 61.59375 8.703125 
L 61.59375 29.796875 
Q 61.59375 36 60 38.390625 
Q 58.40625 40.796875 54.09375 40.796875 
Q 47.5 40.796875 43.203125 34.703125 
L 43.203125 9.5 
Q 43.203125 4.796875 44.640625 3.1875 
Q 46.09375 1.59375 50.40625 1.5 
L 50.40625 0 
L 28 0 
L 28 1.5 
Q 32.296875 1.796875 33.546875 3.09375 
Q 34.796875 4.40625 34.796875 8.59375 
L 34.796875 30.296875 
Q 34.796875 40.796875 28.203125 40.796875 
Q 25.40625 40.796875 21.953125 39.390625 
Q 18.5 38 16.40625 34.90625 
L 16.40625 6.703125 
Q 16.40625 3.796875 17.796875 2.75 
Q 19.203125 1.703125 23.203125 1.5 
L 23.203125 0 
L 1 0 
L 1 1.5 
Q 5.203125 1.59375 6.59375 3 
Q 8 4.40625 8 8.5 
L 8 33.796875 
Q 8 37.40625 7.25 38.796875 
Q 6.5 40.203125 4.5 40.203125 
Q 3 40.203125 1.296875 39.796875 
z
" id="FreeSerif-109"/>
      <path d="M 4.046875 67.703125 
Q 6.65625 66.09375 9.453125 63.84375 
Q 12.25 61.59375 15.796875 57.59375 
Q 19.34375 53.59375 22.046875 49.046875 
Q 24.75 44.5 26.59375 38.09375 
Q 28.453125 31.703125 28.453125 24.796875 
Q 28.453125 17.59375 26.59375 11.140625 
Q 24.75 4.703125 22.25 0.453125 
Q 19.75 -3.796875 15.890625 -7.75 
Q 12.046875 -11.703125 9.546875 -13.59375 
Q 7.046875 -15.5 3.75 -17.59375 
L 2.84375 -16 
Q 7.25 -12.40625 9.953125 -9.5 
Q 12.65625 -6.59375 15.15625 -1.9375 
Q 17.65625 2.703125 18.75 9.140625 
Q 19.84375 15.59375 19.84375 24.5 
Q 19.84375 33.796875 18.75 40.5 
Q 17.65625 47.203125 15.15625 51.953125 
Q 12.65625 56.703125 9.953125 59.703125 
Q 7.25 62.703125 2.84375 66.09375 
z
" id="FreeSerif-41"/>
     </defs>
     <g transform="translate(193.92175 556.37525)scale(0.24 -0.24)">
      <use xlink:href="#FreeSerif-88"/>
      <use x="71.399994" xlink:href="#FreeSerif-32"/>
      <use x="96.399979" xlink:href="#FreeSerif-99"/>
      <use x="140.784348" xlink:href="#FreeSerif-111"/>
      <use x="189.884338" xlink:href="#FreeSerif-111"/>
      <use x="238.968704" xlink:href="#FreeSerif-114"/>
      <use x="273.453064" xlink:href="#FreeSerif-100"/>
      <use x="323.353058" xlink:href="#FreeSerif-105"/>
      <use x="351.137421" xlink:href="#FreeSerif-110"/>
      <use x="400.037415" xlink:href="#FreeSerif-97"/>
      <use x="443.521774" xlink:href="#FreeSerif-116"/>
      <use x="471.821762" xlink:href="#FreeSerif-101"/>
      <use x="516.221756" xlink:href="#FreeSerif-32"/>
      <use x="541.221741" xlink:href="#FreeSerif-101"/>
      <use x="585.60611" xlink:href="#FreeSerif-114"/>
      <use x="620.106094" xlink:href="#FreeSerif-114"/>
      <use x="654.590454" xlink:href="#FreeSerif-111"/>
      <use x="703.67482" xlink:href="#FreeSerif-114"/>
      <use x="738.174805" xlink:href="#FreeSerif-32"/>
      <use x="763.174789" xlink:href="#FreeSerif-40"/>
      <use x="796.474777" xlink:href="#FreeSerif-99"/>
      <use x="840.859146" xlink:href="#FreeSerif-109"/>
      <use x="918.75914" xlink:href="#FreeSerif-41"/>
     </g>
    </g>
   </g>
   <g id="matplotlib.axis_2">
    <g id="ytick_1">
     <g id="line2d_15">
      <path clip-path="url(#pea4abc6b7b)" d="M 71.82225 512.784 
L 544.52 512.784 
" style="fill:none;stroke:#b0b0b0;stroke-linecap:square;stroke-width:0.8;"/>
     </g>
     <g id="line2d_16">
      <defs>
       <path d="M 0 0 
L -3.5 0 
" id="md3ccb5126a" style="stroke:#000000;stroke-width:0.8;"/>
      </defs>
      <g>
       <use style="stroke:#000000;stroke-width:0.8;" x="71.82225" xlink:href="#md3ccb5126a" y="512.784"/>
      </g>
     </g>
     <g id="text_9">
      <!-- −15 -->
      <g transform="translate(36.669125 518.930719)scale(0.18 -0.18)">
       <use xlink:href="#FreeSerif-8722"/>
       <use x="56.399994" xlink:href="#FreeSerif-49"/>
       <use x="106.399979" xlink:href="#FreeSerif-53"/>
      </g>
     </g>
    </g>
    <g id="ytick_2">
     <g id="line2d_17">
      <path clip-path="url(#pea4abc6b7b)" d="M 71.82225 434.453617 
L 544.52 434.453617 
" style="fill:none;stroke:#b0b0b0;stroke-linecap:square;stroke-width:0.8;"/>
     </g>
     <g id="line2d_18">
      <g>
       <use style="stroke:#000000;stroke-width:0.8;" x="71.82225" xlink:href="#md3ccb5126a" y="434.453617"/>
      </g>
     </g>
     <g id="text_10">
      <!-- −10 -->
      <g transform="translate(36.669125 440.600335)scale(0.18 -0.18)">
       <use xlink:href="#FreeSerif-8722"/>
       <use x="56.399994" xlink:href="#FreeSerif-49"/>
       <use x="106.399979" xlink:href="#FreeSerif-48"/>
      </g>
     </g>
    </g>
    <g id="ytick_3">
     <g id="line2d_19">
      <path clip-path="url(#pea4abc6b7b)" d="M 71.82225 356.123233 
L 544.52 356.123233 
" style="fill:none;stroke:#b0b0b0;stroke-linecap:square;stroke-width:0.8;"/>
     </g>
     <g id="line2d_20">
      <g>
       <use style="stroke:#000000;stroke-width:0.8;" x="71.82225" xlink:href="#md3ccb5126a" y="356.123233"/>
      </g>
     </g>
     <g id="text_11">
      <!-- −5 -->
      <g transform="translate(45.669125 362.269952)scale(0.18 -0.18)">
       <use xlink:href="#FreeSerif-8722"/>
       <use x="56.399994" xlink:href="#FreeSerif-53"/>
      </g>
     </g>
    </g>
    <g id="ytick_4">
     <g id="line2d_21">
      <path clip-path="url(#pea4abc6b7b)" d="M 71.82225 277.79285 
L 544.52 277.79285 
" style="fill:none;stroke:#b0b0b0;stroke-linecap:square;stroke-width:0.8;"/>
     </g>
     <g id="line2d_22">
      <g>
       <use style="stroke:#000000;stroke-width:0.8;" x="71.82225" xlink:href="#md3ccb5126a" y="277.79285"/>
      </g>
     </g>
     <g id="text_12">
      <!-- 0 -->
      <g transform="translate(55.82225 283.939569)scale(0.18 -0.18)">
       <use xlink:href="#FreeSerif-48"/>
      </g>
     </g>
    </g>
    <g id="ytick_5">
     <g id="line2d_23">
      <path clip-path="url(#pea4abc6b7b)" d="M 71.82225 199.462467 
L 544.52 199.462467 
" style="fill:none;stroke:#b0b0b0;stroke-linecap:square;stroke-width:0.8;"/>
     </g>
     <g id="line2d_24">
      <g>
       <use style="stroke:#000000;stroke-width:0.8;" x="71.82225" xlink:href="#md3ccb5126a" y="199.462467"/>
      </g>
     </g>
     <g id="text_13">
      <!-- 5 -->
      <g transform="translate(55.82225 205.609185)scale(0.18 -0.18)">
       <use xlink:href="#FreeSerif-53"/>
      </g>
     </g>
    </g>
    <g id="ytick_6">
     <g id="line2d_25">
      <path clip-path="url(#pea4abc6b7b)" d="M 71.82225 121.132083 
L 544.52 121.132083 
" style="fill:none;stroke:#b0b0b0;stroke-linecap:square;stroke-width:0.8;"/>
     </g>
     <g id="line2d_26">
      <g>
       <use style="stroke:#000000;stroke-width:0.8;" x="71.82225" xlink:href="#md3ccb5126a" y="121.132083"/>
      </g>
     </g>
     <g id="text_14">
      <!-- 10 -->
      <g transform="translate(46.82225 127.278802)scale(0.18 -0.18)">
       <use xlink:href="#FreeSerif-49"/>
       <use x="49.999985" xlink:href="#FreeSerif-48"/>
      </g>
     </g>
    </g>
    <g id="ytick_7">
     <g id="line2d_27">
      <path clip-path="url(#pea4abc6b7b)" d="M 71.82225 42.8017 
L 544.52 42.8017 
" style="fill:none;stroke:#b0b0b0;stroke-linecap:square;stroke-width:0.8;"/>
     </g>
     <g id="line2d_28">
      <g>
       <use style="stroke:#000000;stroke-width:0.8;" x="71.82225" xlink:href="#md3ccb5126a" y="42.8017"/>
      </g>
     </g>
     <g id="text_15">
      <!-- 15 -->
      <g transform="translate(46.82225 48.948419)scale(0.18 -0.18)">
       <use xlink:href="#FreeSerif-49"/>
       <use x="49.999985" xlink:href="#FreeSerif-53"/>
      </g>
     </g>
    </g>
    <g id="text_16">
     <!-- Z coordinate error (cm) -->
     <defs>
      <path d="M 40.296875 3.796875 
Q 43.09375 3.796875 45.390625 4.296875 
Q 47.703125 4.796875 49.25 5.296875 
Q 50.796875 5.796875 52.140625 7.1875 
Q 53.5 8.59375 54.140625 9.296875 
Q 54.796875 10 55.59375 12.046875 
Q 56.40625 14.09375 56.59375 14.6875 
Q 56.796875 15.296875 57.5 17.59375 
L 59.796875 17.59375 
L 57.40625 0 
L 1 0 
L 1 1.5 
L 44.703125 62.40625 
L 22.59375 62.40625 
Q 17.5 62.40625 14.203125 61.40625 
Q 10.90625 60.40625 9.25 58.203125 
Q 7.59375 56 7 54.203125 
Q 6.40625 52.40625 5.796875 49.09375 
L 3.203125 49.09375 
L 5.203125 66.203125 
L 57.796875 66.203125 
L 57.796875 64.703125 
L 14.59375 3.796875 
z
" id="FreeSerif-90"/>
     </defs>
     <g transform="translate(27.460375 390.8291)rotate(-90)scale(0.24 -0.24)">
      <use xlink:href="#FreeSerif-90"/>
      <use x="61.299988" xlink:href="#FreeSerif-32"/>
      <use x="86.299973" xlink:href="#FreeSerif-99"/>
      <use x="130.684341" xlink:href="#FreeSerif-111"/>
      <use x="179.784332" xlink:href="#FreeSerif-111"/>
      <use x="228.868698" xlink:href="#FreeSerif-114"/>
      <use x="263.353058" xlink:href="#FreeSerif-100"/>
      <use x="313.253052" xlink:href="#FreeSerif-105"/>
      <use x="341.037415" xlink:href="#FreeSerif-110"/>
      <use x="389.937408" xlink:href="#FreeSerif-97"/>
      <use x="433.421768" xlink:href="#FreeSerif-116"/>
      <use x="461.721756" xlink:href="#FreeSerif-101"/>
      <use x="506.12175" xlink:href="#FreeSerif-32"/>
      <use x="531.121735" xlink:href="#FreeSerif-101"/>
      <use x="575.506104" xlink:href="#FreeSerif-114"/>
      <use x="610.006088" xlink:href="#FreeSerif-114"/>
      <use x="644.490448" xlink:href="#FreeSerif-111"/>
      <use x="693.574814" xlink:href="#FreeSerif-114"/>
      <use x="728.074799" xlink:href="#FreeSerif-32"/>
      <use x="753.074783" xlink:href="#FreeSerif-40"/>
      <use x="786.374771" xlink:href="#FreeSerif-99"/>
      <use x="830.75914" xlink:href="#FreeSerif-109"/>
      <use x="908.659134" xlink:href="#FreeSerif-41"/>
     </g>
    </g>
   </g>
   <g id="patch_4">
    <path d="M 71.82225 512.784 
L 71.82225 42.8017 
" style="fill:none;stroke:#000000;stroke-linecap:square;stroke-linejoin:miter;stroke-width:0.8;"/>
   </g>
   <g id="patch_5">
    <path d="M 544.52 512.784 
L 544.52 42.8017 
" style="fill:none;stroke:#000000;stroke-linecap:square;stroke-linejoin:miter;stroke-width:0.8;"/>
   </g>
   <g id="patch_6">
    <path d="M 71.82225 512.784 
L 544.52 512.784 
" style="fill:none;stroke:#000000;stroke-linecap:square;stroke-linejoin:miter;stroke-width:0.8;"/>
   </g>
   <g id="patch_7">
    <path d="M 71.82225 42.8017 
L 544.52 42.8017 
" style="fill:none;stroke:#000000;stroke-linecap:square;stroke-linejoin:miter;stroke-width:0.8;"/>
   </g>
   <g id="text_17">
    <!-- Probability = 74.7% -->
    <defs>
     <path d="M 54.09375 48.09375 
Q 54.09375 45.5 53.5 43.09375 
Q 52.90625 40.703125 51.15625 38 
Q 49.40625 35.296875 46.5 33.34375 
Q 43.59375 31.40625 38.59375 30.09375 
Q 33.59375 28.796875 27 28.796875 
Q 24 28.796875 20.09375 29.09375 
L 20.09375 10.90625 
Q 20.09375 5.40625 21.84375 3.75 
Q 23.59375 2.09375 29.5 1.90625 
L 29.5 0 
L 1.5 0 
L 1.5 1.90625 
Q 7.203125 2.40625 8.546875 4.046875 
Q 9.90625 5.703125 9.90625 12 
L 9.90625 55.296875 
Q 9.90625 60.703125 8.5 62.203125 
Q 7.09375 63.703125 1.5 64.296875 
L 1.5 66.203125 
L 27.90625 66.203125 
Q 32.40625 66.203125 36.59375 65.34375 
Q 40.796875 64.5 44.9375 62.59375 
Q 49.09375 60.703125 51.59375 57 
Q 54.09375 53.296875 54.09375 48.09375 
z
M 20.09375 59.09375 
L 20.09375 33.09375 
Q 23.59375 32.796875 25.796875 32.796875 
Q 43.203125 32.796875 43.203125 47.5 
Q 43.203125 55.203125 38.390625 58.84375 
Q 33.59375 62.5 23.5 62.5 
Q 21.5 62.5 20.796875 61.796875 
Q 20.09375 61.09375 20.09375 59.09375 
z
" id="FreeSerif-80"/>
     <path d="M 16 68.09375 
L 16 37.5 
Q 17.5 41.203125 21.390625 43.59375 
Q 25.296875 46 29.90625 46 
Q 37.40625 46 42.453125 39.75 
Q 47.5 33.5 47.5 24.296875 
Q 47.5 13.59375 40.75 6.296875 
Q 34 -1 24.09375 -1 
Q 18.09375 -1 12.84375 1.046875 
Q 7.59375 3.09375 7.59375 5.40625 
L 7.59375 57.296875 
Q 7.59375 60.40625 6.640625 61.40625 
Q 5.703125 62.40625 2.703125 62.40625 
Q 1.59375 62.40625 1 62.296875 
L 1 63.90625 
Q 8.703125 65.796875 15.5 68.296875 
z
M 16 32.203125 
L 16 7 
Q 16 5.09375 18.890625 3.640625 
Q 21.796875 2.203125 25.703125 2.203125 
Q 31.90625 2.203125 35.296875 6.796875 
Q 38.703125 11.40625 38.703125 19.703125 
Q 38.703125 28.796875 35.25 34.25 
Q 31.796875 39.703125 25.90625 39.703125 
Q 22 39.703125 19 37.390625 
Q 16 35.09375 16 32.203125 
z
" id="FreeSerif-98"/>
     <path d="M 1 62.296875 
L 1 63.90625 
Q 10.90625 66.296875 16.90625 68.296875 
L 17.296875 68.09375 
L 17.296875 8.40625 
Q 17.296875 4.296875 18.640625 3.046875 
Q 20 1.796875 24.796875 1.5 
L 24.796875 0 
L 1.203125 0 
L 1.203125 1.5 
Q 5.90625 1.90625 7.40625 3.296875 
Q 8.90625 4.703125 8.90625 8.703125 
L 8.90625 56.40625 
Q 8.90625 59.90625 8 61.203125 
Q 7.09375 62.5 4.703125 62.5 
Q 2.703125 62.5 1 62.296875 
z
" id="FreeSerif-108"/>
     <path d="M 14.203125 -13.40625 
Q 17 -13.40625 20.09375 -7.203125 
Q 23.203125 -1 23.203125 1.90625 
Q 23.203125 3.203125 18.796875 12 
L 5.59375 40.40625 
Q 4.40625 43 0.5 43.59375 
L 0.5 45 
L 21.09375 45 
L 21.09375 43.5 
Q 17.90625 43.40625 16.59375 42.796875 
Q 15.296875 42.203125 15.296875 40.796875 
Q 15.296875 39.296875 16.296875 37 
L 27.796875 11.703125 
L 37.5 39.296875 
Q 37.90625 40.203125 37.90625 41 
Q 37.90625 43.5 33.09375 43.5 
L 33.09375 45 
L 46.59375 45 
L 46.59375 43.5 
Q 44.796875 43.296875 43.75 42.34375 
Q 42.703125 41.40625 41.796875 39 
L 26.40625 -1.796875 
Q 22.40625 -12.59375 18.453125 -17.1875 
Q 14.5 -21.796875 9.5 -21.796875 
Q 6.296875 -21.796875 4.1875 -20.140625 
Q 2.09375 -18.5 2.09375 -16 
Q 2.09375 -14.203125 3.390625 -12.890625 
Q 4.703125 -11.59375 6.40625 -11.59375 
Q 8.59375 -11.59375 11.09375 -12.5 
Q 13.59375 -13.40625 14.203125 -13.40625 
z
" id="FreeSerif-121"/>
     <path d="M 53.40625 38.59375 
L 53.40625 32 
L 3 32 
L 3 38.59375 
z
M 53.40625 18.59375 
L 53.40625 12 
L 3 12 
L 3 18.59375 
z
" id="FreeSerif-61"/>
     <path d="M 44.90625 66.203125 
L 44.90625 64.59375 
L 23.703125 -0.796875 
L 17.203125 -0.796875 
L 37 58.796875 
L 15.296875 58.796875 
Q 11.203125 58.796875 9.046875 57.296875 
Q 6.90625 55.796875 3.703125 50.703125 
L 2 51.5 
L 7.90625 66.203125 
z
" id="FreeSerif-55"/>
     <path d="M 47.203125 23.09375 
L 47.203125 16.703125 
L 37 16.703125 
L 37 0 
L 29.296875 0 
L 29.296875 16.703125 
L 1.203125 16.703125 
L 1.203125 23.09375 
L 32.59375 67.59375 
L 37 67.59375 
L 37 23.09375 
z
M 29.203125 23.09375 
L 29.203125 57.40625 
L 5.203125 23.09375 
z
" id="FreeSerif-52"/>
     <path d="M 12.5 10 
Q 14.796875 10 16.4375 8.296875 
Q 18.09375 6.59375 18.09375 4.296875 
Q 18.09375 2.09375 16.390625 0.5 
Q 14.703125 -1.09375 12.40625 -1.09375 
Q 10.203125 -1.09375 8.59375 0.5 
Q 7 2.09375 7 4.296875 
Q 7 6.59375 8.640625 8.296875 
Q 10.296875 10 12.5 10 
z
" id="FreeSerif-46"/>
     <path d="M 66.90625 37.09375 
Q 71.796875 37.09375 74.5 34.296875 
Q 77.203125 31.5 77.203125 26.40625 
Q 77.203125 20.59375 74.890625 14.890625 
Q 72.59375 9.203125 68.59375 5.09375 
Q 63.5 0 56.90625 0 
Q 51.5 0 48.203125 3.546875 
Q 44.90625 7.09375 44.90625 12.90625 
Q 44.90625 22.296875 51.65625 29.6875 
Q 58.40625 37.09375 66.90625 37.09375 
z
M 58.59375 3 
Q 62.90625 3 66.703125 6.796875 
Q 70.5 10.59375 72.546875 15.84375 
Q 74.59375 21.09375 74.59375 25.90625 
Q 74.59375 29.203125 72.546875 31.546875 
Q 70.5 33.90625 67.59375 33.90625 
Q 63 33.90625 59.296875 28.703125 
Q 55.59375 23.5 54.046875 18.046875 
Q 52.5 12.59375 52.5 9.40625 
Q 52.5 6.59375 54.203125 4.796875 
Q 55.90625 3 58.59375 3 
z
M 28.203125 66.203125 
Q 31.296875 66.203125 33.1875 64.84375 
Q 35.09375 63.5 37.4375 62.140625 
Q 39.796875 60.796875 43.90625 60.796875 
Q 48.59375 60.796875 52.046875 62.296875 
Q 55.5 63.796875 59.5 67.59375 
L 63.40625 67.59375 
L 24.90625 -1.296875 
L 20.09375 -1.296875 
L 55.203125 61.296875 
Q 50 58.296875 44.203125 58.296875 
Q 40.296875 58.296875 37.703125 59.296875 
Q 38.40625 56.796875 38.40625 54.90625 
Q 38.40625 45.59375 32.453125 37.25 
Q 26.5 28.90625 17.90625 28.90625 
Q 13 28.90625 9.546875 32.65625 
Q 6.09375 36.40625 6.09375 41.59375 
Q 6.09375 51.09375 12.84375 58.640625 
Q 19.59375 66.203125 28.203125 66.203125 
z
M 28.203125 63.203125 
Q 23.40625 63.203125 18.546875 54.453125 
Q 13.703125 45.703125 13.703125 38.40625 
Q 13.703125 35.703125 15.34375 34 
Q 17 32.296875 19.59375 32.296875 
Q 25.703125 32.296875 30.796875 39.4375 
Q 35.90625 46.59375 35.90625 55.09375 
Q 35.90625 57 35 60 
Q 33 60.5 31.640625 61.140625 
Q 30.296875 61.796875 29.84375 62.1875 
Q 29.40625 62.59375 29 62.890625 
Q 28.59375 63.203125 28.203125 63.203125 
z
" id="FreeSerif-37"/>
    </defs>
    <g transform="translate(85.392767 64.047777)scale(0.24 -0.24)">
     <use xlink:href="#FreeSerif-80"/>
     <use x="57.584366" xlink:href="#FreeSerif-114"/>
     <use x="92.068726" xlink:href="#FreeSerif-111"/>
     <use x="141.153091" xlink:href="#FreeSerif-98"/>
     <use x="191.153076" xlink:href="#FreeSerif-97"/>
     <use x="234.637436" xlink:href="#FreeSerif-98"/>
     <use x="284.621796" xlink:href="#FreeSerif-105"/>
     <use x="312.406158" xlink:href="#FreeSerif-108"/>
     <use x="338.206146" xlink:href="#FreeSerif-105"/>
     <use x="365.974884" xlink:href="#FreeSerif-116"/>
     <use x="394.274872" xlink:href="#FreeSerif-121"/>
     <use x="441.374863" xlink:href="#FreeSerif-32"/>
     <use x="466.374847" xlink:href="#FreeSerif-61"/>
     <use x="522.774841" xlink:href="#FreeSerif-32"/>
     <use x="547.774826" xlink:href="#FreeSerif-55"/>
     <use x="597.774811" xlink:href="#FreeSerif-52"/>
     <use x="647.774796" xlink:href="#FreeSerif-46"/>
     <use x="672.77478" xlink:href="#FreeSerif-55"/>
     <use x="722.774765" xlink:href="#FreeSerif-37"/>
    </g>
   </g>
   <g id="text_18">
    <!-- X Z hitting plane -->
    <defs>
     <path d="M 15.796875 34.296875 
L 15.796875 10.203125 
Q 15.796875 5 17 3.5 
Q 18.203125 2 22.59375 1.5 
L 22.59375 0 
L 1 0 
L 1 1.5 
Q 5.296875 2.09375 6.34375 3.5 
Q 7.40625 4.90625 7.40625 10.203125 
L 7.40625 57.296875 
Q 7.40625 60.5 6.546875 61.5 
Q 5.703125 62.5 2.796875 62.5 
Q 2.09375 62.5 1.09375 62.296875 
L 1.09375 63.90625 
Q 8.203125 65.796875 15.296875 68.296875 
L 15.796875 68 
L 15.796875 37.59375 
Q 19.203125 42.09375 22.640625 44.046875 
Q 26.09375 46 30.5 46 
Q 42.796875 46 42.796875 30.09375 
L 42.796875 10.203125 
Q 42.796875 5 43.75 3.640625 
Q 44.703125 2.296875 48.796875 1.5 
L 48.796875 0 
L 27.59375 0 
L 27.59375 1.5 
Q 31.90625 1.90625 33.15625 3.5 
Q 34.40625 5.09375 34.40625 10.203125 
L 34.40625 30 
Q 34.40625 40.59375 26.90625 40.59375 
Q 24 40.59375 21.453125 39.140625 
Q 18.90625 37.703125 15.796875 34.296875 
z
" id="FreeSerif-104"/>
     <path d="M 6 5.40625 
Q 6 7.296875 7.34375 8.890625 
Q 8.703125 10.5 14.90625 16.296875 
Q 9.90625 18.796875 7.75 21.890625 
Q 5.59375 25 5.59375 29.703125 
Q 5.59375 36.5 10.4375 41.25 
Q 15.296875 46 22.296875 46 
Q 26.203125 46 30.640625 44.34375 
Q 35.09375 42.703125 38 42.703125 
L 45.703125 42.703125 
L 45.703125 38.796875 
L 37.40625 38.796875 
Q 39.296875 34.5 39.296875 30.40625 
Q 39.296875 23.5 34.640625 19.203125 
Q 30 14.90625 23.703125 14.90625 
Q 22.5 14.90625 18 15.40625 
Q 16 14.796875 14 12.6875 
Q 12 10.59375 12 9.09375 
Q 12 6.703125 19.796875 6.40625 
L 32.703125 5.796875 
Q 38.203125 5.59375 41.5 2.6875 
Q 44.796875 -0.203125 44.796875 -4.90625 
Q 44.796875 -12.09375 36.546875 -16.9375 
Q 28.296875 -21.796875 18.796875 -21.796875 
Q 11.703125 -21.796875 6.59375 -18.9375 
Q 1.5 -16.09375 1.5 -12.09375 
Q 1.5 -9.296875 3.75 -6.546875 
Q 6 -3.796875 11.296875 0.09375 
Q 8.203125 1.59375 7.09375 2.6875 
Q 6 3.796875 6 5.40625 
z
M 13.40625 -0.203125 
Q 10.296875 -3.90625 9.390625 -5.5 
Q 8.5 -7.09375 8.5 -8.796875 
Q 8.5 -12.09375 12.5 -14.09375 
Q 16.5 -16.09375 23.09375 -16.09375 
Q 31.59375 -16.09375 36.796875 -13.390625 
Q 42 -10.703125 42 -6.40625 
Q 42 -3.703125 39.203125 -2.59375 
Q 36.40625 -1.5 29.59375 -1.5 
Q 19.5 -1.5 13.40625 -0.203125 
z
M 31.59375 26.5 
Q 31.59375 28.203125 31.1875 30.59375 
Q 30.796875 33 29.796875 36.046875 
Q 28.796875 39.09375 26.59375 41.140625 
Q 24.40625 43.203125 21.296875 43.203125 
Q 17.796875 43.203125 15.84375 40.703125 
Q 13.90625 38.203125 13.90625 33.796875 
Q 13.90625 25.203125 17.09375 21.296875 
Q 20.296875 17.40625 24.09375 17.40625 
Q 27.59375 17.40625 29.59375 19.84375 
Q 31.59375 22.296875 31.59375 26.5 
z
" id="FreeSerif-103"/>
     <path d="M 1.40625 39.296875 
L 1.40625 40.90625 
Q 7.703125 42.796875 15.796875 46 
L 16.40625 45.796875 
L 16.40625 38.09375 
Q 22.796875 46 30.796875 46 
Q 38.09375 46 42.796875 40 
Q 47.5 34 47.5 24.703125 
Q 47.5 13.796875 41.453125 6.390625 
Q 35.40625 -1 26.5 -1 
Q 23.296875 -1 21.140625 -0.09375 
Q 19 0.796875 16.40625 3.296875 
L 16.40625 -12.40625 
Q 16.40625 -17.09375 18 -18.4375 
Q 19.59375 -19.796875 25.203125 -19.90625 
L 25.203125 -21.703125 
L 1 -21.703125 
L 1 -20 
Q 5.40625 -19.59375 6.703125 -18.296875 
Q 8 -17 8 -13.09375 
L 8 33.703125 
Q 8 37.203125 7.203125 38.296875 
Q 6.40625 39.40625 3.90625 39.40625 
Q 2.296875 39.40625 1.40625 39.296875 
z
M 16.40625 33.40625 
L 16.40625 8.796875 
Q 16.40625 6.59375 19.84375 4.390625 
Q 23.296875 2.203125 26.796875 2.203125 
Q 32.203125 2.203125 35.546875 7.34375 
Q 38.90625 12.5 38.90625 20.796875 
Q 38.90625 29.5 35.546875 34.75 
Q 32.203125 40 26.59375 40 
Q 23.09375 40 19.75 37.796875 
Q 16.40625 35.59375 16.40625 33.40625 
z
" id="FreeSerif-112"/>
    </defs>
    <g transform="translate(226.83175 36.8017)scale(0.24 -0.24)">
     <use xlink:href="#FreeSerif-88"/>
     <use x="71.399994" xlink:href="#FreeSerif-32"/>
     <use x="96.399979" xlink:href="#FreeSerif-90"/>
     <use x="157.699966" xlink:href="#FreeSerif-32"/>
     <use x="182.699951" xlink:href="#FreeSerif-104"/>
     <use x="232.499939" xlink:href="#FreeSerif-105"/>
     <use x="260.268677" xlink:href="#FreeSerif-116"/>
     <use x="288.568665" xlink:href="#FreeSerif-116"/>
     <use x="316.868652" xlink:href="#FreeSerif-105"/>
     <use x="344.653015" xlink:href="#FreeSerif-110"/>
     <use x="393.553009" xlink:href="#FreeSerif-103"/>
     <use x="440.253006" xlink:href="#FreeSerif-32"/>
     <use x="465.252991" xlink:href="#FreeSerif-112"/>
     <use x="515.23735" xlink:href="#FreeSerif-108"/>
     <use x="541.037338" xlink:href="#FreeSerif-97"/>
     <use x="584.537323" xlink:href="#FreeSerif-110"/>
     <use x="633.421692" xlink:href="#FreeSerif-101"/>
    </g>
   </g>
   <g id="legend_1">
    <g id="patch_8">
     <path d="M 421.240312 80.15795 
L 537.52 80.15795 
Q 539.52 80.15795 539.52 78.15795 
L 539.52 49.8017 
Q 539.52 47.8017 537.52 47.8017 
L 421.240312 47.8017 
Q 419.240312 47.8017 419.240312 49.8017 
L 419.240312 78.15795 
Q 419.240312 80.15795 421.240312 80.15795 
z
" style="fill:#ffffff;opacity:0.8;stroke:#cccccc;stroke-linejoin:miter;"/>
    </g>
    <g id="PathCollection_3">
     <g>
      <use style="fill:#0000ff;stroke:#0000ff;stroke-width:1.5;" x="433.240312" xlink:href="#m17f7a3920a" y="56.775138"/>
     </g>
    </g>
    <g id="text_19">
     <!-- prediction points -->
     <defs>
      <path d="M 18.109375 8.203125 
L 18.109375 -20.796875 
L 9.078125 -20.796875 
L 9.078125 54.6875 
L 18.109375 54.6875 
L 18.109375 46.390625 
Q 20.953125 51.265625 25.265625 53.625 
Q 29.59375 56 35.59375 56 
Q 45.5625 56 51.78125 48.09375 
Q 58.015625 40.1875 58.015625 27.296875 
Q 58.015625 14.40625 51.78125 6.484375 
Q 45.5625 -1.421875 35.59375 -1.421875 
Q 29.59375 -1.421875 25.265625 0.953125 
Q 20.953125 3.328125 18.109375 8.203125 
z
M 48.6875 27.296875 
Q 48.6875 37.203125 44.609375 42.84375 
Q 40.53125 48.484375 33.40625 48.484375 
Q 26.265625 48.484375 22.1875 42.84375 
Q 18.109375 37.203125 18.109375 27.296875 
Q 18.109375 17.390625 22.1875 11.75 
Q 26.265625 6.109375 33.40625 6.109375 
Q 40.53125 6.109375 44.609375 11.75 
Q 48.6875 17.390625 48.6875 27.296875 
z
" id="DejaVuSans-112"/>
      <path d="M 41.109375 46.296875 
Q 39.59375 47.171875 37.8125 47.578125 
Q 36.03125 48 33.890625 48 
Q 26.265625 48 22.1875 43.046875 
Q 18.109375 38.09375 18.109375 28.8125 
L 18.109375 0 
L 9.078125 0 
L 9.078125 54.6875 
L 18.109375 54.6875 
L 18.109375 46.1875 
Q 20.953125 51.171875 25.484375 53.578125 
Q 30.03125 56 36.53125 56 
Q 37.453125 56 38.578125 55.875 
Q 39.703125 55.765625 41.0625 55.515625 
z
" id="DejaVuSans-114"/>
      <path d="M 56.203125 29.59375 
L 56.203125 25.203125 
L 14.890625 25.203125 
Q 15.484375 15.921875 20.484375 11.0625 
Q 25.484375 6.203125 34.421875 6.203125 
Q 39.59375 6.203125 44.453125 7.46875 
Q 49.3125 8.734375 54.109375 11.28125 
L 54.109375 2.78125 
Q 49.265625 0.734375 44.1875 -0.34375 
Q 39.109375 -1.421875 33.890625 -1.421875 
Q 20.796875 -1.421875 13.15625 6.1875 
Q 5.515625 13.8125 5.515625 26.8125 
Q 5.515625 40.234375 12.765625 48.109375 
Q 20.015625 56 32.328125 56 
Q 43.359375 56 49.78125 48.890625 
Q 56.203125 41.796875 56.203125 29.59375 
z
M 47.21875 32.234375 
Q 47.125 39.59375 43.09375 43.984375 
Q 39.0625 48.390625 32.421875 48.390625 
Q 24.90625 48.390625 20.390625 44.140625 
Q 15.875 39.890625 15.1875 32.171875 
z
" id="DejaVuSans-101"/>
      <path d="M 45.40625 46.390625 
L 45.40625 75.984375 
L 54.390625 75.984375 
L 54.390625 0 
L 45.40625 0 
L 45.40625 8.203125 
Q 42.578125 3.328125 38.25 0.953125 
Q 33.9375 -1.421875 27.875 -1.421875 
Q 17.96875 -1.421875 11.734375 6.484375 
Q 5.515625 14.40625 5.515625 27.296875 
Q 5.515625 40.1875 11.734375 48.09375 
Q 17.96875 56 27.875 56 
Q 33.9375 56 38.25 53.625 
Q 42.578125 51.265625 45.40625 46.390625 
z
M 14.796875 27.296875 
Q 14.796875 17.390625 18.875 11.75 
Q 22.953125 6.109375 30.078125 6.109375 
Q 37.203125 6.109375 41.296875 11.75 
Q 45.40625 17.390625 45.40625 27.296875 
Q 45.40625 37.203125 41.296875 42.84375 
Q 37.203125 48.484375 30.078125 48.484375 
Q 22.953125 48.484375 18.875 42.84375 
Q 14.796875 37.203125 14.796875 27.296875 
z
" id="DejaVuSans-100"/>
      <path d="M 9.421875 54.6875 
L 18.40625 54.6875 
L 18.40625 0 
L 9.421875 0 
z
M 9.421875 75.984375 
L 18.40625 75.984375 
L 18.40625 64.59375 
L 9.421875 64.59375 
z
" id="DejaVuSans-105"/>
      <path d="M 48.78125 52.59375 
L 48.78125 44.1875 
Q 44.96875 46.296875 41.140625 47.34375 
Q 37.3125 48.390625 33.40625 48.390625 
Q 24.65625 48.390625 19.8125 42.84375 
Q 14.984375 37.3125 14.984375 27.296875 
Q 14.984375 17.28125 19.8125 11.734375 
Q 24.65625 6.203125 33.40625 6.203125 
Q 37.3125 6.203125 41.140625 7.25 
Q 44.96875 8.296875 48.78125 10.40625 
L 48.78125 2.09375 
Q 45.015625 0.34375 40.984375 -0.53125 
Q 36.96875 -1.421875 32.421875 -1.421875 
Q 20.0625 -1.421875 12.78125 6.34375 
Q 5.515625 14.109375 5.515625 27.296875 
Q 5.515625 40.671875 12.859375 48.328125 
Q 20.21875 56 33.015625 56 
Q 37.15625 56 41.109375 55.140625 
Q 45.0625 54.296875 48.78125 52.59375 
z
" id="DejaVuSans-99"/>
      <path d="M 18.3125 70.21875 
L 18.3125 54.6875 
L 36.8125 54.6875 
L 36.8125 47.703125 
L 18.3125 47.703125 
L 18.3125 18.015625 
Q 18.3125 11.328125 20.140625 9.421875 
Q 21.96875 7.515625 27.59375 7.515625 
L 36.8125 7.515625 
L 36.8125 0 
L 27.59375 0 
Q 17.1875 0 13.234375 3.875 
Q 9.28125 7.765625 9.28125 18.015625 
L 9.28125 47.703125 
L 2.6875 47.703125 
L 2.6875 54.6875 
L 9.28125 54.6875 
L 9.28125 70.21875 
z
" id="DejaVuSans-116"/>
      <path d="M 30.609375 48.390625 
Q 23.390625 48.390625 19.1875 42.75 
Q 14.984375 37.109375 14.984375 27.296875 
Q 14.984375 17.484375 19.15625 11.84375 
Q 23.34375 6.203125 30.609375 6.203125 
Q 37.796875 6.203125 41.984375 11.859375 
Q 46.1875 17.53125 46.1875 27.296875 
Q 46.1875 37.015625 41.984375 42.703125 
Q 37.796875 48.390625 30.609375 48.390625 
z
M 30.609375 56 
Q 42.328125 56 49.015625 48.375 
Q 55.71875 40.765625 55.71875 27.296875 
Q 55.71875 13.875 49.015625 6.21875 
Q 42.328125 -1.421875 30.609375 -1.421875 
Q 18.84375 -1.421875 12.171875 6.21875 
Q 5.515625 13.875 5.515625 27.296875 
Q 5.515625 40.765625 12.171875 48.375 
Q 18.84375 56 30.609375 56 
z
" id="DejaVuSans-111"/>
      <path d="M 54.890625 33.015625 
L 54.890625 0 
L 45.90625 0 
L 45.90625 32.71875 
Q 45.90625 40.484375 42.875 44.328125 
Q 39.84375 48.1875 33.796875 48.1875 
Q 26.515625 48.1875 22.3125 43.546875 
Q 18.109375 38.921875 18.109375 30.90625 
L 18.109375 0 
L 9.078125 0 
L 9.078125 54.6875 
L 18.109375 54.6875 
L 18.109375 46.1875 
Q 21.34375 51.125 25.703125 53.5625 
Q 30.078125 56 35.796875 56 
Q 45.21875 56 50.046875 50.171875 
Q 54.890625 44.34375 54.890625 33.015625 
z
" id="DejaVuSans-110"/>
      <path id="DejaVuSans-32"/>
      <path d="M 44.28125 53.078125 
L 44.28125 44.578125 
Q 40.484375 46.53125 36.375 47.5 
Q 32.28125 48.484375 27.875 48.484375 
Q 21.1875 48.484375 17.84375 46.4375 
Q 14.5 44.390625 14.5 40.28125 
Q 14.5 37.15625 16.890625 35.375 
Q 19.28125 33.59375 26.515625 31.984375 
L 29.59375 31.296875 
Q 39.15625 29.25 43.1875 25.515625 
Q 47.21875 21.78125 47.21875 15.09375 
Q 47.21875 7.46875 41.1875 3.015625 
Q 35.15625 -1.421875 24.609375 -1.421875 
Q 20.21875 -1.421875 15.453125 -0.5625 
Q 10.6875 0.296875 5.421875 2 
L 5.421875 11.28125 
Q 10.40625 8.6875 15.234375 7.390625 
Q 20.0625 6.109375 24.8125 6.109375 
Q 31.15625 6.109375 34.5625 8.28125 
Q 37.984375 10.453125 37.984375 14.40625 
Q 37.984375 18.0625 35.515625 20.015625 
Q 33.0625 21.96875 24.703125 23.78125 
L 21.578125 24.515625 
Q 13.234375 26.265625 9.515625 29.90625 
Q 5.8125 33.546875 5.8125 39.890625 
Q 5.8125 47.609375 11.28125 51.796875 
Q 16.75 56 26.8125 56 
Q 31.78125 56 36.171875 55.265625 
Q 40.578125 54.546875 44.28125 53.078125 
z
" id="DejaVuSans-115"/>
     </defs>
     <g transform="translate(451.240312 59.400138)scale(0.1 -0.1)">
      <use xlink:href="#DejaVuSans-112"/>
      <use x="63.476562" xlink:href="#DejaVuSans-114"/>
      <use x="104.558594" xlink:href="#DejaVuSans-101"/>
      <use x="166.082031" xlink:href="#DejaVuSans-100"/>
      <use x="229.558594" xlink:href="#DejaVuSans-105"/>
      <use x="257.341797" xlink:href="#DejaVuSans-99"/>
      <use x="312.322266" xlink:href="#DejaVuSans-116"/>
      <use x="351.53125" xlink:href="#DejaVuSans-105"/>
      <use x="379.314453" xlink:href="#DejaVuSans-111"/>
      <use x="440.496094" xlink:href="#DejaVuSans-110"/>
      <use x="503.875" xlink:href="#DejaVuSans-32"/>
      <use x="535.662109" xlink:href="#DejaVuSans-112"/>
      <use x="599.138672" xlink:href="#DejaVuSans-111"/>
      <use x="660.320312" xlink:href="#DejaVuSans-105"/>
      <use x="688.103516" xlink:href="#DejaVuSans-110"/>
      <use x="751.482422" xlink:href="#DejaVuSans-116"/>
      <use x="790.691406" xlink:href="#DejaVuSans-115"/>
     </g>
    </g>
    <g id="PathCollection_4">
     <g>
      <use style="fill:#ff0000;stroke:#ff0000;" x="433.240312" xlink:href="#m39ed60b7cf" y="71.453263"/>
     </g>
    </g>
    <g id="text_20">
     <!-- target point -->
     <defs>
      <path d="M 34.28125 27.484375 
Q 23.390625 27.484375 19.1875 25 
Q 14.984375 22.515625 14.984375 16.5 
Q 14.984375 11.71875 18.140625 8.90625 
Q 21.296875 6.109375 26.703125 6.109375 
Q 34.1875 6.109375 38.703125 11.40625 
Q 43.21875 16.703125 43.21875 25.484375 
L 43.21875 27.484375 
z
M 52.203125 31.203125 
L 52.203125 0 
L 43.21875 0 
L 43.21875 8.296875 
Q 40.140625 3.328125 35.546875 0.953125 
Q 30.953125 -1.421875 24.3125 -1.421875 
Q 15.921875 -1.421875 10.953125 3.296875 
Q 6 8.015625 6 15.921875 
Q 6 25.140625 12.171875 29.828125 
Q 18.359375 34.515625 30.609375 34.515625 
L 43.21875 34.515625 
L 43.21875 35.40625 
Q 43.21875 41.609375 39.140625 45 
Q 35.0625 48.390625 27.6875 48.390625 
Q 23 48.390625 18.546875 47.265625 
Q 14.109375 46.140625 10.015625 43.890625 
L 10.015625 52.203125 
Q 14.9375 54.109375 19.578125 55.046875 
Q 24.21875 56 28.609375 56 
Q 40.484375 56 46.34375 49.84375 
Q 52.203125 43.703125 52.203125 31.203125 
z
" id="DejaVuSans-97"/>
      <path d="M 45.40625 27.984375 
Q 45.40625 37.75 41.375 43.109375 
Q 37.359375 48.484375 30.078125 48.484375 
Q 22.859375 48.484375 18.828125 43.109375 
Q 14.796875 37.75 14.796875 27.984375 
Q 14.796875 18.265625 18.828125 12.890625 
Q 22.859375 7.515625 30.078125 7.515625 
Q 37.359375 7.515625 41.375 12.890625 
Q 45.40625 18.265625 45.40625 27.984375 
z
M 54.390625 6.78125 
Q 54.390625 -7.171875 48.1875 -13.984375 
Q 42 -20.796875 29.203125 -20.796875 
Q 24.46875 -20.796875 20.265625 -20.09375 
Q 16.0625 -19.390625 12.109375 -17.921875 
L 12.109375 -9.1875 
Q 16.0625 -11.328125 19.921875 -12.34375 
Q 23.78125 -13.375 27.78125 -13.375 
Q 36.625 -13.375 41.015625 -8.765625 
Q 45.40625 -4.15625 45.40625 5.171875 
L 45.40625 9.625 
Q 42.625 4.78125 38.28125 2.390625 
Q 33.9375 0 27.875 0 
Q 17.828125 0 11.671875 7.65625 
Q 5.515625 15.328125 5.515625 27.984375 
Q 5.515625 40.671875 11.671875 48.328125 
Q 17.828125 56 27.875 56 
Q 33.9375 56 38.28125 53.609375 
Q 42.625 51.21875 45.40625 46.390625 
L 45.40625 54.6875 
L 54.390625 54.6875 
z
" id="DejaVuSans-103"/>
     </defs>
     <g transform="translate(451.240312 74.078263)scale(0.1 -0.1)">
      <use xlink:href="#DejaVuSans-116"/>
      <use x="39.208984" xlink:href="#DejaVuSans-97"/>
      <use x="100.488281" xlink:href="#DejaVuSans-114"/>
      <use x="141.585938" xlink:href="#DejaVuSans-103"/>
      <use x="205.0625" xlink:href="#DejaVuSans-101"/>
      <use x="266.585938" xlink:href="#DejaVuSans-116"/>
      <use x="305.794922" xlink:href="#DejaVuSans-32"/>
      <use x="337.582031" xlink:href="#DejaVuSans-112"/>
      <use x="401.058594" xlink:href="#DejaVuSans-111"/>
      <use x="462.240234" xlink:href="#DejaVuSans-105"/>
      <use x="490.023438" xlink:href="#DejaVuSans-110"/>
      <use x="553.402344" xlink:href="#DejaVuSans-116"/>
     </g>
    </g>
   </g>
  </g>
 </g>
 <defs>
  <clipPath id="pea4abc6b7b">
   <rect height="469.9823" width="472.69775" x="71.82225" y="42.8017"/>
  </clipPath>
 </defs>
</svg>
