<?xml version="1.0" encoding="utf-8" standalone="no"?>
<!DOCTYPE svg PUBLIC "-//W3C//DTD SVG 1.1//EN"
  "http://www.w3.org/Graphics/SVG/1.1/DTD/svg11.dtd">
<!-- Created with matplotlib (https://matplotlib.org/) -->
<svg height="648pt" version="1.1" viewBox="0 0 864 648" width="864pt" xmlns="http://www.w3.org/2000/svg" xmlns:xlink="http://www.w3.org/1999/xlink">
 <defs>
  <style type="text/css">
*{stroke-linecap:butt;stroke-linejoin:round;}
  </style>
 </defs>
 <g id="figure_1">
  <g id="patch_1">
   <path d="M 0 648 
L 864 648 
L 864 0 
L 0 0 
z
" style="fill:#ffffff;"/>
  </g>
  <g id="axes_1">
   <g id="patch_2">
    <path d="M 69.75 581 
L 814 581 
L 814 50 
L 69.75 50 
z
" style="fill:#ffffff;"/>
   </g>
   <g id="matplotlib.axis_1">
    <g id="xtick_1">
     <g id="line2d_1">
      <path clip-path="url(#p83c591349c)" d="M 103.579545 581 
L 103.579545 50 
" style="fill:none;stroke:#b0b0b0;stroke-linecap:square;stroke-width:0.8;"/>
     </g>
     <g id="line2d_2">
      <defs>
       <path d="M 0 0 
L 0 3.5 
" id="m2a4113b284" style="stroke:#000000;stroke-width:0.8;"/>
      </defs>
      <g>
       <use style="stroke:#000000;stroke-width:0.8;" x="103.579545" xlink:href="#m2a4113b284" y="581"/>
      </g>
     </g>
     <g id="text_1">
      <!-- 0 -->
      <defs>
       <path d="M 47.59375 17.796875 
Q 35.203125 -1.40625 25 -1.40625 
Q 14.796875 -1.40625 8.59375 8.390625 
Q 2.40625 18.203125 2.40625 33.59375 
Q 2.40625 48.09375 8.59375 57.84375 
Q 14.796875 67.59375 25.40625 67.59375 
Q 35.203125 67.59375 41.390625 58 
Q 47.59375 48.40625 47.59375 33 
Q 47.59375 17.796875 35.203125 -1.40625 
z
M 25.09375 65 
Q 12 65 12 32.703125 
Q 12 1.203125 25 1.203125 
Q 38 1.203125 38 32.796875 
Q 38 48.5 34.703125 56.75 
Q 31.40625 65 25.09375 65 
z
" id="FreeSerif-48"/>
      </defs>
      <g transform="translate(99.579545 598.9275)scale(0.16 -0.16)">
       <use xlink:href="#FreeSerif-48"/>
      </g>
     </g>
    </g>
    <g id="xtick_2">
     <g id="line2d_3">
      <path clip-path="url(#p83c591349c)" d="M 137.409091 581 
L 137.409091 50 
" style="fill:none;stroke:#b0b0b0;stroke-linecap:square;stroke-width:0.8;"/>
     </g>
     <g id="line2d_4">
      <g>
       <use style="stroke:#000000;stroke-width:0.8;" x="137.409091" xlink:href="#m2a4113b284" y="581"/>
      </g>
     </g>
     <g id="text_2">
      <!-- 1 -->
      <defs>
       <path d="M 18.296875 59.296875 
Q 16.5 59.296875 11.09375 57.09375 
L 11.09375 58.5 
L 29.09375 67.59375 
L 29.90625 67.40625 
L 29.90625 7.40625 
Q 29.90625 3.796875 31.703125 2.6875 
Q 33.5 1.59375 39.40625 1.5 
L 39.40625 0 
L 11.796875 0 
L 11.796875 1.5 
Q 17.40625 1.703125 19.34375 3.140625 
Q 21.296875 4.59375 21.296875 9.296875 
L 21.296875 54.59375 
Q 21.296875 59.296875 18.296875 59.296875 
z
" id="FreeSerif-49"/>
      </defs>
      <g transform="translate(133.409091 598.9275)scale(0.16 -0.16)">
       <use xlink:href="#FreeSerif-49"/>
      </g>
     </g>
    </g>
    <g id="xtick_3">
     <g id="line2d_5">
      <path clip-path="url(#p83c591349c)" d="M 171.238636 581 
L 171.238636 50 
" style="fill:none;stroke:#b0b0b0;stroke-linecap:square;stroke-width:0.8;"/>
     </g>
     <g id="line2d_6">
      <g>
       <use style="stroke:#000000;stroke-width:0.8;" x="171.238636" xlink:href="#m2a4113b284" y="581"/>
      </g>
     </g>
     <g id="text_3">
      <!-- 2 -->
      <defs>
       <path d="M 3.09375 47.703125 
Q 3.59375 50 4.09375 51.703125 
Q 4.59375 53.40625 6.25 56.65625 
Q 7.90625 59.90625 9.953125 62.046875 
Q 12 64.203125 15.640625 65.890625 
Q 19.296875 67.59375 23.90625 67.59375 
Q 31.703125 67.59375 37.046875 62.5 
Q 42.40625 57.40625 42.40625 49.90625 
Q 42.40625 38.59375 29.59375 25.203125 
L 12.796875 7.59375 
L 36.703125 7.59375 
Q 40.09375 7.59375 41.75 8.75 
Q 43.40625 9.90625 46.203125 14.203125 
L 47.5 13.703125 
L 42 0 
L 3 0 
L 3 1.203125 
L 20.796875 20.09375 
Q 33.796875 33.90625 33.796875 46.09375 
Q 33.796875 52.40625 29.890625 56.296875 
Q 26 60.203125 19.703125 60.203125 
Q 14.5 60.203125 11.34375 57.34375 
Q 8.203125 54.5 5.203125 47.203125 
z
" id="FreeSerif-50"/>
      </defs>
      <g transform="translate(167.238636 598.9275)scale(0.16 -0.16)">
       <use xlink:href="#FreeSerif-50"/>
      </g>
     </g>
    </g>
    <g id="xtick_4">
     <g id="line2d_7">
      <path clip-path="url(#p83c591349c)" d="M 205.068182 581 
L 205.068182 50 
" style="fill:none;stroke:#b0b0b0;stroke-linecap:square;stroke-width:0.8;"/>
     </g>
     <g id="line2d_8">
      <g>
       <use style="stroke:#000000;stroke-width:0.8;" x="205.068182" xlink:href="#m2a4113b284" y="581"/>
      </g>
     </g>
     <g id="text_4">
      <!-- 3 -->
      <defs>
       <path d="M 8.09375 7.796875 
Q 10.40625 7.796875 14.953125 5 
Q 19.5 2.203125 22.90625 2.203125 
Q 28.40625 2.203125 32.203125 6.5 
Q 36 10.796875 36 17.09375 
Q 36 21 34.640625 24 
Q 33.296875 27 31.1875 28.640625 
Q 29.09375 30.296875 26.1875 31.34375 
Q 23.296875 32.40625 20.75 32.703125 
Q 18.203125 33 15.296875 33 
L 15.296875 34.296875 
Q 18.703125 35.5 21.140625 36.640625 
Q 23.59375 37.796875 26.296875 39.75 
Q 29 41.703125 30.453125 44.5 
Q 31.90625 47.296875 31.90625 50.90625 
Q 31.90625 55.59375 28.84375 58.59375 
Q 25.796875 61.59375 20.90625 61.59375 
Q 16.203125 61.59375 12.640625 59.046875 
Q 9.09375 56.5 6 51 
L 4.5 51.40625 
Q 7.09375 58.5 11.546875 63.046875 
Q 16 67.59375 24.203125 67.59375 
Q 31.09375 67.59375 35.4375 63.796875 
Q 39.796875 60 39.796875 53.90625 
Q 39.796875 49.796875 37.6875 46.6875 
Q 35.59375 43.59375 30.40625 40.09375 
Q 36.40625 37.5 39.796875 33.453125 
Q 43.203125 29.40625 43.203125 21.90625 
Q 43.203125 11.296875 35.34375 4.9375 
Q 27.5 -1.40625 15.59375 -1.40625 
Q 10.40625 -1.40625 7.34375 0.140625 
Q 4.296875 1.703125 4.296875 4.296875 
Q 4.296875 5.90625 5.34375 6.84375 
Q 6.40625 7.796875 8.09375 7.796875 
z
" id="FreeSerif-51"/>
      </defs>
      <g transform="translate(201.068182 598.9275)scale(0.16 -0.16)">
       <use xlink:href="#FreeSerif-51"/>
      </g>
     </g>
    </g>
    <g id="xtick_5">
     <g id="line2d_9">
      <path clip-path="url(#p83c591349c)" d="M 238.897727 581 
L 238.897727 50 
" style="fill:none;stroke:#b0b0b0;stroke-linecap:square;stroke-width:0.8;"/>
     </g>
     <g id="line2d_10">
      <g>
       <use style="stroke:#000000;stroke-width:0.8;" x="238.897727" xlink:href="#m2a4113b284" y="581"/>
      </g>
     </g>
     <g id="text_5">
      <!-- 4 -->
      <defs>
       <path d="M 47.203125 23.09375 
L 47.203125 16.703125 
L 37 16.703125 
L 37 0 
L 29.296875 0 
L 29.296875 16.703125 
L 1.203125 16.703125 
L 1.203125 23.09375 
L 32.59375 67.59375 
L 37 67.59375 
L 37 23.09375 
z
M 29.203125 23.09375 
L 29.203125 57.40625 
L 5.203125 23.09375 
z
" id="FreeSerif-52"/>
      </defs>
      <g transform="translate(234.897727 598.9275)scale(0.16 -0.16)">
       <use xlink:href="#FreeSerif-52"/>
      </g>
     </g>
    </g>
    <g id="xtick_6">
     <g id="line2d_11">
      <path clip-path="url(#p83c591349c)" d="M 272.727273 581 
L 272.727273 50 
" style="fill:none;stroke:#b0b0b0;stroke-linecap:square;stroke-width:0.8;"/>
     </g>
     <g id="line2d_12">
      <g>
       <use style="stroke:#000000;stroke-width:0.8;" x="272.727273" xlink:href="#m2a4113b284" y="581"/>
      </g>
     </g>
     <g id="text_6">
      <!-- 5 -->
      <defs>
       <path d="M 35.703125 19.40625 
Q 35.703125 24.703125 33.34375 28.796875 
Q 31 32.90625 27.640625 35.15625 
Q 24.296875 37.40625 20.140625 38.84375 
Q 16 40.296875 12.953125 40.75 
Q 9.90625 41.203125 7.59375 41.203125 
Q 6.40625 41.203125 6.40625 42 
Q 6.40625 42.296875 6.5 42.5 
L 17.40625 66.203125 
L 38.296875 66.203125 
Q 39.90625 66.203125 40.84375 66.703125 
Q 41.796875 67.203125 42.90625 68.796875 
L 43.796875 68.09375 
L 40 59.203125 
Q 39.59375 58.296875 37.703125 58.296875 
L 18.09375 58.296875 
L 13.90625 49.796875 
Q 28.5 47.203125 35.59375 41.34375 
Q 42.703125 35.5 42.703125 24.203125 
Q 42.703125 18.296875 40.84375 13.6875 
Q 39 9.09375 36.140625 6.296875 
Q 33.296875 3.5 29.546875 1.703125 
Q 25.796875 -0.09375 22.34375 -0.75 
Q 18.90625 -1.40625 15.40625 -1.40625 
Q 9.796875 -1.40625 6.5 0.25 
Q 3.203125 1.90625 3.203125 4.796875 
Q 3.203125 8.5 7.5 8.5 
Q 10.296875 8.5 14.75 5.390625 
Q 19.203125 2.296875 21.796875 2.296875 
Q 27.703125 2.296875 31.703125 7.25 
Q 35.703125 12.203125 35.703125 19.40625 
z
" id="FreeSerif-53"/>
      </defs>
      <g transform="translate(268.727273 598.9275)scale(0.16 -0.16)">
       <use xlink:href="#FreeSerif-53"/>
      </g>
     </g>
    </g>
    <g id="xtick_7">
     <g id="line2d_13">
      <path clip-path="url(#p83c591349c)" d="M 306.556818 581 
L 306.556818 50 
" style="fill:none;stroke:#b0b0b0;stroke-linecap:square;stroke-width:0.8;"/>
     </g>
     <g id="line2d_14">
      <g>
       <use style="stroke:#000000;stroke-width:0.8;" x="306.556818" xlink:href="#m2a4113b284" y="581"/>
      </g>
     </g>
     <g id="text_7">
      <!-- 6 -->
      <defs>
       <path d="M 25.796875 -1.40625 
Q 15.703125 -1.40625 9.546875 6.640625 
Q 3.40625 14.703125 3.40625 27.90625 
Q 3.40625 32 4.203125 36.34375 
Q 5 40.703125 7.703125 46.25 
Q 10.40625 51.796875 14.703125 56.1875 
Q 19 60.59375 26.75 64.046875 
Q 34.5 67.5 44.59375 68.40625 
L 44.796875 66.796875 
Q 33 64.90625 25.09375 57.25 
Q 17.203125 49.59375 15.203125 38.296875 
Q 19.90625 41.09375 22.296875 41.9375 
Q 24.703125 42.796875 28 42.796875 
Q 36.59375 42.796875 41.6875 37.140625 
Q 46.796875 31.5 46.796875 21.90625 
Q 46.796875 11.59375 40.9375 5.09375 
Q 35.09375 -1.40625 25.796875 -1.40625 
z
M 24.203125 38.203125 
Q 17.40625 38.203125 15.046875 35.203125 
Q 12.703125 32.203125 12.703125 26.296875 
Q 12.703125 14.703125 16.5 8.046875 
Q 20.296875 1.40625 26.90625 1.40625 
Q 32.203125 1.40625 35 5.84375 
Q 37.796875 10.296875 37.796875 18.5 
Q 37.796875 27.90625 34.25 33.046875 
Q 30.703125 38.203125 24.203125 38.203125 
z
" id="FreeSerif-54"/>
      </defs>
      <g transform="translate(302.556818 598.9275)scale(0.16 -0.16)">
       <use xlink:href="#FreeSerif-54"/>
      </g>
     </g>
    </g>
    <g id="xtick_8">
     <g id="line2d_15">
      <path clip-path="url(#p83c591349c)" d="M 340.386364 581 
L 340.386364 50 
" style="fill:none;stroke:#b0b0b0;stroke-linecap:square;stroke-width:0.8;"/>
     </g>
     <g id="line2d_16">
      <g>
       <use style="stroke:#000000;stroke-width:0.8;" x="340.386364" xlink:href="#m2a4113b284" y="581"/>
      </g>
     </g>
     <g id="text_8">
      <!-- 7 -->
      <defs>
       <path d="M 44.90625 66.203125 
L 44.90625 64.59375 
L 23.703125 -0.796875 
L 17.203125 -0.796875 
L 37 58.796875 
L 15.296875 58.796875 
Q 11.203125 58.796875 9.046875 57.296875 
Q 6.90625 55.796875 3.703125 50.703125 
L 2 51.5 
L 7.90625 66.203125 
z
" id="FreeSerif-55"/>
      </defs>
      <g transform="translate(336.386364 598.9275)scale(0.16 -0.16)">
       <use xlink:href="#FreeSerif-55"/>
      </g>
     </g>
    </g>
    <g id="xtick_9">
     <g id="line2d_17">
      <path clip-path="url(#p83c591349c)" d="M 374.215909 581 
L 374.215909 50 
" style="fill:none;stroke:#b0b0b0;stroke-linecap:square;stroke-width:0.8;"/>
     </g>
     <g id="line2d_18">
      <g>
       <use style="stroke:#000000;stroke-width:0.8;" x="374.215909" xlink:href="#m2a4113b284" y="581"/>
      </g>
     </g>
     <g id="text_9">
      <!-- 8 -->
      <defs>
       <path d="M 29 37.09375 
Q 38 30.40625 41.25 25.84375 
Q 44.5 21.296875 44.5 15.5 
Q 44.5 7.796875 39.140625 3.1875 
Q 33.796875 -1.40625 24.796875 -1.40625 
Q 16.296875 -1.40625 10.9375 3.1875 
Q 5.59375 7.796875 5.59375 15.09375 
Q 5.59375 20.203125 8.046875 23.640625 
Q 10.5 27.09375 18.59375 33.203125 
Q 10.703125 40.09375 8.453125 43.5 
Q 6.203125 46.90625 6.203125 51.796875 
Q 6.203125 58.59375 11.59375 63.09375 
Q 17 67.59375 25.203125 67.59375 
Q 32.703125 67.59375 37.546875 63.59375 
Q 42.40625 59.59375 42.40625 53.40625 
Q 42.40625 48.296875 39.40625 44.6875 
Q 36.40625 41.09375 29 37.09375 
z
M 21.203125 31.203125 
Q 16.796875 27.703125 15 24.203125 
Q 13.203125 20.703125 13.203125 15.90625 
Q 13.203125 9.40625 16.703125 5.40625 
Q 20.203125 1.40625 25.90625 1.40625 
Q 30.796875 1.40625 33.84375 4.453125 
Q 36.90625 7.5 36.90625 12.40625 
Q 36.90625 14 36.546875 15.390625 
Q 36.203125 16.796875 35.84375 17.84375 
Q 35.5 18.90625 34.453125 20.203125 
Q 33.40625 21.5 32.75 22.25 
Q 32.09375 23 30.390625 24.390625 
Q 28.703125 25.796875 27.84375 26.390625 
Q 27 27 24.640625 28.703125 
Q 22.296875 30.40625 21.203125 31.203125 
z
M 26.09375 38.90625 
Q 26.203125 39 27.453125 39.84375 
Q 28.703125 40.703125 29.25 41.203125 
Q 29.796875 41.703125 30.9375 42.75 
Q 32.09375 43.796875 32.6875 44.75 
Q 33.296875 45.703125 34.046875 47.046875 
Q 34.796875 48.40625 35.140625 50.046875 
Q 35.5 51.703125 35.5 53.5 
Q 35.5 58.703125 32.5 61.75 
Q 29.5 64.796875 24.40625 64.796875 
Q 19.703125 64.796875 16.640625 62 
Q 13.59375 59.203125 13.59375 54.90625 
Q 13.59375 50.703125 16.5 47 
Q 19.40625 43.296875 26.09375 38.90625 
z
" id="FreeSerif-56"/>
      </defs>
      <g transform="translate(370.215909 598.9275)scale(0.16 -0.16)">
       <use xlink:href="#FreeSerif-56"/>
      </g>
     </g>
    </g>
    <g id="xtick_10">
     <g id="line2d_19">
      <path clip-path="url(#p83c591349c)" d="M 408.045455 581 
L 408.045455 50 
" style="fill:none;stroke:#b0b0b0;stroke-linecap:square;stroke-width:0.8;"/>
     </g>
     <g id="line2d_20">
      <g>
       <use style="stroke:#000000;stroke-width:0.8;" x="408.045455" xlink:href="#m2a4113b284" y="581"/>
      </g>
     </g>
     <g id="text_10">
      <!-- 9 -->
      <defs>
       <path d="M 5.90625 -2.203125 
L 5.59375 -0.203125 
Q 17 1.796875 24.953125 9.5 
Q 32.90625 17.203125 36 29.40625 
Q 28.59375 23.703125 21 23.703125 
Q 12.90625 23.703125 7.953125 29.296875 
Q 3 34.90625 3 44 
Q 3 54.09375 8.953125 60.84375 
Q 14.90625 67.59375 23.796875 67.59375 
Q 33.5 67.59375 39.703125 59.6875 
Q 45.90625 51.796875 45.90625 39.40625 
Q 45.90625 35.40625 45.203125 31.203125 
Q 44.5 27 41.953125 21.25 
Q 39.40625 15.5 35.296875 10.953125 
Q 31.203125 6.40625 23.59375 2.703125 
Q 16 -1 5.90625 -2.203125 
z
M 24.59375 28 
Q 26.5 28 28.890625 28.546875 
Q 31.296875 29.09375 33.75 30.9375 
Q 36.203125 32.796875 36.203125 35.5 
L 36.203125 39.40625 
Q 36.203125 64.796875 23 64.796875 
Q 19.90625 64.796875 17.703125 63.140625 
Q 15.5 61.5 14.34375 58.796875 
Q 13.203125 56.09375 12.703125 53.296875 
Q 12.203125 50.5 12.203125 47.40625 
Q 12.203125 38.5 15.546875 33.25 
Q 18.90625 28 24.59375 28 
z
" id="FreeSerif-57"/>
      </defs>
      <g transform="translate(404.045455 598.9275)scale(0.16 -0.16)">
       <use xlink:href="#FreeSerif-57"/>
      </g>
     </g>
    </g>
    <g id="xtick_11">
     <g id="line2d_21">
      <path clip-path="url(#p83c591349c)" d="M 441.875 581 
L 441.875 50 
" style="fill:none;stroke:#b0b0b0;stroke-linecap:square;stroke-width:0.8;"/>
     </g>
     <g id="line2d_22">
      <g>
       <use style="stroke:#000000;stroke-width:0.8;" x="441.875" xlink:href="#m2a4113b284" y="581"/>
      </g>
     </g>
     <g id="text_11">
      <!-- 10 -->
      <g transform="translate(433.875 598.9275)scale(0.16 -0.16)">
       <use xlink:href="#FreeSerif-49"/>
       <use x="49.999985" xlink:href="#FreeSerif-48"/>
      </g>
     </g>
    </g>
    <g id="xtick_12">
     <g id="line2d_23">
      <path clip-path="url(#p83c591349c)" d="M 475.704545 581 
L 475.704545 50 
" style="fill:none;stroke:#b0b0b0;stroke-linecap:square;stroke-width:0.8;"/>
     </g>
     <g id="line2d_24">
      <g>
       <use style="stroke:#000000;stroke-width:0.8;" x="475.704545" xlink:href="#m2a4113b284" y="581"/>
      </g>
     </g>
     <g id="text_12">
      <!-- 11 -->
      <g transform="translate(467.704545 598.9275)scale(0.16 -0.16)">
       <use xlink:href="#FreeSerif-49"/>
       <use x="49.999985" xlink:href="#FreeSerif-49"/>
      </g>
     </g>
    </g>
    <g id="xtick_13">
     <g id="line2d_25">
      <path clip-path="url(#p83c591349c)" d="M 509.534091 581 
L 509.534091 50 
" style="fill:none;stroke:#b0b0b0;stroke-linecap:square;stroke-width:0.8;"/>
     </g>
     <g id="line2d_26">
      <g>
       <use style="stroke:#000000;stroke-width:0.8;" x="509.534091" xlink:href="#m2a4113b284" y="581"/>
      </g>
     </g>
     <g id="text_13">
      <!-- 12 -->
      <g transform="translate(501.534091 598.9275)scale(0.16 -0.16)">
       <use xlink:href="#FreeSerif-49"/>
       <use x="49.999985" xlink:href="#FreeSerif-50"/>
      </g>
     </g>
    </g>
    <g id="xtick_14">
     <g id="line2d_27">
      <path clip-path="url(#p83c591349c)" d="M 543.363636 581 
L 543.363636 50 
" style="fill:none;stroke:#b0b0b0;stroke-linecap:square;stroke-width:0.8;"/>
     </g>
     <g id="line2d_28">
      <g>
       <use style="stroke:#000000;stroke-width:0.8;" x="543.363636" xlink:href="#m2a4113b284" y="581"/>
      </g>
     </g>
     <g id="text_14">
      <!-- 13 -->
      <g transform="translate(535.363636 598.9275)scale(0.16 -0.16)">
       <use xlink:href="#FreeSerif-49"/>
       <use x="49.999985" xlink:href="#FreeSerif-51"/>
      </g>
     </g>
    </g>
    <g id="xtick_15">
     <g id="line2d_29">
      <path clip-path="url(#p83c591349c)" d="M 577.193182 581 
L 577.193182 50 
" style="fill:none;stroke:#b0b0b0;stroke-linecap:square;stroke-width:0.8;"/>
     </g>
     <g id="line2d_30">
      <g>
       <use style="stroke:#000000;stroke-width:0.8;" x="577.193182" xlink:href="#m2a4113b284" y="581"/>
      </g>
     </g>
     <g id="text_15">
      <!-- 14 -->
      <g transform="translate(569.193182 598.9275)scale(0.16 -0.16)">
       <use xlink:href="#FreeSerif-49"/>
       <use x="49.999985" xlink:href="#FreeSerif-52"/>
      </g>
     </g>
    </g>
    <g id="xtick_16">
     <g id="line2d_31">
      <path clip-path="url(#p83c591349c)" d="M 611.022727 581 
L 611.022727 50 
" style="fill:none;stroke:#b0b0b0;stroke-linecap:square;stroke-width:0.8;"/>
     </g>
     <g id="line2d_32">
      <g>
       <use style="stroke:#000000;stroke-width:0.8;" x="611.022727" xlink:href="#m2a4113b284" y="581"/>
      </g>
     </g>
     <g id="text_16">
      <!-- 15 -->
      <g transform="translate(603.022727 598.9275)scale(0.16 -0.16)">
       <use xlink:href="#FreeSerif-49"/>
       <use x="49.999985" xlink:href="#FreeSerif-53"/>
      </g>
     </g>
    </g>
    <g id="xtick_17">
     <g id="line2d_33">
      <path clip-path="url(#p83c591349c)" d="M 644.852273 581 
L 644.852273 50 
" style="fill:none;stroke:#b0b0b0;stroke-linecap:square;stroke-width:0.8;"/>
     </g>
     <g id="line2d_34">
      <g>
       <use style="stroke:#000000;stroke-width:0.8;" x="644.852273" xlink:href="#m2a4113b284" y="581"/>
      </g>
     </g>
     <g id="text_17">
      <!-- 16 -->
      <g transform="translate(636.852273 598.9275)scale(0.16 -0.16)">
       <use xlink:href="#FreeSerif-49"/>
       <use x="49.999985" xlink:href="#FreeSerif-54"/>
      </g>
     </g>
    </g>
    <g id="xtick_18">
     <g id="line2d_35">
      <path clip-path="url(#p83c591349c)" d="M 678.681818 581 
L 678.681818 50 
" style="fill:none;stroke:#b0b0b0;stroke-linecap:square;stroke-width:0.8;"/>
     </g>
     <g id="line2d_36">
      <g>
       <use style="stroke:#000000;stroke-width:0.8;" x="678.681818" xlink:href="#m2a4113b284" y="581"/>
      </g>
     </g>
     <g id="text_18">
      <!-- 17 -->
      <g transform="translate(670.681818 598.9275)scale(0.16 -0.16)">
       <use xlink:href="#FreeSerif-49"/>
       <use x="49.999985" xlink:href="#FreeSerif-55"/>
      </g>
     </g>
    </g>
    <g id="xtick_19">
     <g id="line2d_37">
      <path clip-path="url(#p83c591349c)" d="M 712.511364 581 
L 712.511364 50 
" style="fill:none;stroke:#b0b0b0;stroke-linecap:square;stroke-width:0.8;"/>
     </g>
     <g id="line2d_38">
      <g>
       <use style="stroke:#000000;stroke-width:0.8;" x="712.511364" xlink:href="#m2a4113b284" y="581"/>
      </g>
     </g>
     <g id="text_19">
      <!-- 18 -->
      <g transform="translate(704.511364 598.9275)scale(0.16 -0.16)">
       <use xlink:href="#FreeSerif-49"/>
       <use x="49.999985" xlink:href="#FreeSerif-56"/>
      </g>
     </g>
    </g>
    <g id="xtick_20">
     <g id="line2d_39">
      <path clip-path="url(#p83c591349c)" d="M 746.340909 581 
L 746.340909 50 
" style="fill:none;stroke:#b0b0b0;stroke-linecap:square;stroke-width:0.8;"/>
     </g>
     <g id="line2d_40">
      <g>
       <use style="stroke:#000000;stroke-width:0.8;" x="746.340909" xlink:href="#m2a4113b284" y="581"/>
      </g>
     </g>
     <g id="text_20">
      <!-- 19 -->
      <g transform="translate(738.340909 598.9275)scale(0.16 -0.16)">
       <use xlink:href="#FreeSerif-49"/>
       <use x="49.999985" xlink:href="#FreeSerif-57"/>
      </g>
     </g>
    </g>
    <g id="xtick_21">
     <g id="line2d_41">
      <path clip-path="url(#p83c591349c)" d="M 780.170455 581 
L 780.170455 50 
" style="fill:none;stroke:#b0b0b0;stroke-linecap:square;stroke-width:0.8;"/>
     </g>
     <g id="line2d_42">
      <g>
       <use style="stroke:#000000;stroke-width:0.8;" x="780.170455" xlink:href="#m2a4113b284" y="581"/>
      </g>
     </g>
     <g id="text_21">
      <!-- 20 -->
      <g transform="translate(772.170455 598.9275)scale(0.16 -0.16)">
       <use xlink:href="#FreeSerif-50"/>
       <use x="49.999985" xlink:href="#FreeSerif-48"/>
      </g>
     </g>
    </g>
    <g id="text_22">
     <!-- update times -->
     <defs>
      <path d="M 48 5 
L 48 3.59375 
Q 40.203125 1.5 34.296875 -0.90625 
L 33.90625 -0.703125 
L 33.90625 7.59375 
Q 33.59375 7.296875 32.140625 5.796875 
Q 30.703125 4.296875 30.09375 3.75 
Q 29.5 3.203125 28.046875 2.046875 
Q 26.59375 0.90625 25.5 0.40625 
Q 24.40625 -0.09375 22.703125 -0.546875 
Q 21 -1 19.296875 -1 
Q 13.796875 -1 10.5 2.546875 
Q 7.203125 6.09375 7.203125 12 
L 7.203125 37.203125 
Q 7.203125 40.703125 5.890625 42.046875 
Q 4.59375 43.40625 1 43.59375 
L 1 45 
L 15.59375 45 
L 15.59375 12.40625 
Q 15.59375 9.296875 17.6875 7.046875 
Q 19.796875 4.796875 22.703125 4.796875 
Q 23.796875 4.796875 25.296875 5.09375 
Q 26.796875 5.40625 28.75 6.25 
Q 30.703125 7.09375 32.046875 8.9375 
Q 33.40625 10.796875 33.40625 13.5 
L 33.40625 37 
Q 33.40625 40.703125 32.046875 41.890625 
Q 30.703125 43.09375 26 43.296875 
L 26 45 
L 41.796875 45 
L 41.796875 10.703125 
Q 41.796875 7.203125 42.890625 6.09375 
Q 44 5 47.5 5 
z
" id="FreeSerif-117"/>
      <path d="M 1.40625 39.296875 
L 1.40625 40.90625 
Q 7.703125 42.796875 15.796875 46 
L 16.40625 45.796875 
L 16.40625 38.09375 
Q 22.796875 46 30.796875 46 
Q 38.09375 46 42.796875 40 
Q 47.5 34 47.5 24.703125 
Q 47.5 13.796875 41.453125 6.390625 
Q 35.40625 -1 26.5 -1 
Q 23.296875 -1 21.140625 -0.09375 
Q 19 0.796875 16.40625 3.296875 
L 16.40625 -12.40625 
Q 16.40625 -17.09375 18 -18.4375 
Q 19.59375 -19.796875 25.203125 -19.90625 
L 25.203125 -21.703125 
L 1 -21.703125 
L 1 -20 
Q 5.40625 -19.59375 6.703125 -18.296875 
Q 8 -17 8 -13.09375 
L 8 33.703125 
Q 8 37.203125 7.203125 38.296875 
Q 6.40625 39.40625 3.90625 39.40625 
Q 2.296875 39.40625 1.40625 39.296875 
z
M 16.40625 33.40625 
L 16.40625 8.796875 
Q 16.40625 6.59375 19.84375 4.390625 
Q 23.296875 2.203125 26.796875 2.203125 
Q 32.203125 2.203125 35.546875 7.34375 
Q 38.90625 12.5 38.90625 20.796875 
Q 38.90625 29.5 35.546875 34.75 
Q 32.203125 40 26.59375 40 
Q 23.09375 40 19.75 37.796875 
Q 16.40625 35.59375 16.40625 33.40625 
z
" id="FreeSerif-112"/>
      <path d="M 34.203125 -1 
L 33.796875 -0.703125 
L 33.796875 5.703125 
Q 29 -1 21 -1 
Q 12.703125 -1 7.59375 4.953125 
Q 2.5 10.90625 2.5 20.5 
Q 2.5 31.09375 8.59375 38.546875 
Q 14.703125 46 23.296875 46 
Q 28.703125 46 33.796875 41.703125 
L 33.796875 57.296875 
Q 33.796875 60.40625 32.890625 61.40625 
Q 32 62.40625 29.203125 62.40625 
Q 27.796875 62.40625 27 62.296875 
L 27 63.90625 
Q 36.09375 66.296875 41.703125 68.296875 
L 42.203125 68.09375 
L 42.203125 11.40625 
Q 42.203125 7.90625 43.046875 6.796875 
Q 43.90625 5.703125 46.59375 5.703125 
Q 47.09375 5.703125 48.90625 5.796875 
L 48.90625 4.203125 
z
M 24.90625 4.203125 
Q 28.703125 4.203125 31.25 6.34375 
Q 33.796875 8.5 33.796875 10.203125 
L 33.796875 33.203125 
Q 33.796875 37.203125 30.6875 40.203125 
Q 27.59375 43.203125 23.59375 43.203125 
Q 17.90625 43.203125 14.5 38.09375 
Q 11.09375 33 11.09375 24.5 
Q 11.09375 15.296875 14.890625 9.75 
Q 18.703125 4.203125 24.90625 4.203125 
z
" id="FreeSerif-100"/>
      <path d="M 2.5 9.703125 
Q 2.5 11.5 2.890625 13.046875 
Q 3.296875 14.59375 4.296875 15.9375 
Q 5.296875 17.296875 6.1875 18.390625 
Q 7.09375 19.5 8.890625 20.640625 
Q 10.703125 21.796875 11.890625 22.546875 
Q 13.09375 23.296875 15.546875 24.34375 
Q 18 25.40625 19.296875 25.953125 
Q 20.59375 26.5 23.390625 27.59375 
Q 26.203125 28.703125 27.5 29.203125 
L 27.5 35.296875 
Q 27.5 43.59375 19.90625 43.59375 
Q 16.90625 43.59375 14.796875 42.140625 
Q 12.703125 40.703125 12.703125 38.703125 
Q 12.703125 37.90625 12.953125 36.5 
Q 13.203125 35.09375 13.203125 34.703125 
Q 13.203125 33 11.84375 31.75 
Q 10.5 30.5 8.703125 30.5 
Q 7 30.5 5.703125 31.796875 
Q 4.40625 33.09375 4.40625 34.796875 
Q 4.40625 39.5 9.25 42.75 
Q 14.09375 46 21.203125 46 
Q 29.40625 46 32.5 42.046875 
Q 35.59375 38.09375 35.59375 30 
L 35.59375 10.5 
Q 35.59375 7.203125 36.25 5.953125 
Q 36.90625 4.703125 38.59375 4.703125 
Q 40.703125 4.703125 43 6.59375 
L 43 4 
Q 40.40625 1.09375 38.453125 0.046875 
Q 36.5 -1 34 -1 
Q 30.90625 -1 29.453125 0.703125 
Q 28 2.40625 27.59375 6.296875 
Q 19 -1 13 -1 
Q 8.40625 -1 5.453125 2 
Q 2.5 5 2.5 9.703125 
z
M 27.5 12.296875 
L 27.5 26.796875 
Q 18.5 23.5 14.890625 20.390625 
Q 11.296875 17.296875 11.296875 12.90625 
Q 11.296875 8.796875 13.296875 6.796875 
Q 15.296875 4.796875 17.59375 4.796875 
Q 21 4.796875 24.90625 7.09375 
Q 26.5 8 27 9 
Q 27.5 10 27.5 12.296875 
z
" id="FreeSerif-97"/>
      <path d="M 25.90625 45 
L 25.90625 41.796875 
L 15.796875 41.796875 
L 15.796875 13.203125 
Q 15.796875 8.5 17 6.34375 
Q 18.203125 4.203125 21 4.203125 
Q 24.09375 4.203125 27 7.703125 
L 28.296875 6.59375 
Q 23.5 -1 16.296875 -1 
Q 7.40625 -1 7.40625 11.703125 
L 7.40625 41.796875 
L 2.09375 41.796875 
Q 1.703125 42.09375 1.703125 42.5 
Q 1.703125 43 2 43.296875 
Q 2.296875 43.59375 3.140625 44.140625 
Q 4 44.703125 5.203125 45.640625 
Q 6.40625 46.59375 8.5 49.09375 
Q 10.59375 51.59375 13.09375 55.09375 
Q 14.703125 57.40625 15.09375 57.90625 
Q 15.796875 57.90625 15.796875 56.59375 
L 15.796875 45 
z
" id="FreeSerif-116"/>
      <path d="M 9.703125 27.703125 
Q 9.90625 21.40625 11.40625 16.84375 
Q 12.90625 12.296875 15.296875 10.046875 
Q 17.703125 7.796875 20.140625 6.84375 
Q 22.59375 5.90625 25.296875 5.90625 
Q 30.09375 5.90625 33.640625 8.296875 
Q 37.203125 10.703125 40.796875 16.40625 
L 42.40625 15.703125 
Q 39.296875 7.59375 33.796875 3.296875 
Q 28.296875 -1 21.203125 -1 
Q 12.59375 -1 7.546875 5.046875 
Q 2.5 11.09375 2.5 21.40625 
Q 2.5 32.5 8.34375 39.25 
Q 14.203125 46 23.40625 46 
Q 31 46 35.203125 41.453125 
Q 39.40625 36.90625 40.5 27.703125 
z
M 9.90625 30.90625 
L 30.296875 30.90625 
Q 29.296875 37.40625 27.1875 39.90625 
Q 25.09375 42.40625 20.5 42.40625 
Q 11.5 42.40625 9.90625 30.90625 
z
" id="FreeSerif-101"/>
      <path id="FreeSerif-32"/>
      <path d="M 6.203125 39.296875 
Q 4 39.296875 2 39 
L 2 40.5 
Q 9 42.5 17.5 46 
L 17.90625 45.703125 
L 17.90625 10.203125 
Q 17.90625 4.796875 19.15625 3.34375 
Q 20.40625 1.90625 25.296875 1.5 
L 25.296875 0 
L 1.59375 0 
L 1.59375 1.5 
Q 6.796875 1.796875 8.140625 3.296875 
Q 9.5 4.796875 9.5 10.203125 
L 9.5 33.40625 
Q 9.5 36.703125 8.75 38 
Q 8 39.296875 6.203125 39.296875 
z
M 12.796875 68.296875 
Q 15 68.296875 16.5 66.796875 
Q 18 65.296875 18 63.203125 
Q 18 61 16.5 59.546875 
Q 15 58.09375 12.796875 58.09375 
Q 10.703125 58.09375 9.25 59.59375 
Q 7.796875 61.09375 7.796875 63.1875 
Q 7.796875 65.296875 9.296875 66.796875 
Q 10.796875 68.296875 12.796875 68.296875 
z
" id="FreeSerif-105"/>
      <path d="M 1.296875 39.796875 
L 1.296875 41.5 
Q 8.5 43.5 15.296875 46 
L 16 45.796875 
L 16 38.296875 
Q 22.203125 43 25.203125 44.5 
Q 28.203125 46 31.5 46 
Q 39.40625 46 42.09375 37.59375 
Q 49.90625 46 58.40625 46 
Q 70 46 70 28.203125 
L 70 7.59375 
Q 70 2 74.296875 1.703125 
L 76.90625 1.5 
L 76.90625 0 
L 55 0 
L 55 1.5 
Q 59.40625 2 60.5 3.203125 
Q 61.59375 4.40625 61.59375 8.703125 
L 61.59375 29.796875 
Q 61.59375 36 60 38.390625 
Q 58.40625 40.796875 54.09375 40.796875 
Q 47.5 40.796875 43.203125 34.703125 
L 43.203125 9.5 
Q 43.203125 4.796875 44.640625 3.1875 
Q 46.09375 1.59375 50.40625 1.5 
L 50.40625 0 
L 28 0 
L 28 1.5 
Q 32.296875 1.796875 33.546875 3.09375 
Q 34.796875 4.40625 34.796875 8.59375 
L 34.796875 30.296875 
Q 34.796875 40.796875 28.203125 40.796875 
Q 25.40625 40.796875 21.953125 39.390625 
Q 18.5 38 16.40625 34.90625 
L 16.40625 6.703125 
Q 16.40625 3.796875 17.796875 2.75 
Q 19.203125 1.703125 23.203125 1.5 
L 23.203125 0 
L 1 0 
L 1 1.5 
Q 5.203125 1.59375 6.59375 3 
Q 8 4.40625 8 8.5 
L 8 33.796875 
Q 8 37.40625 7.25 38.796875 
Q 6.5 40.203125 4.5 40.203125 
Q 3 40.203125 1.296875 39.796875 
z
" id="FreeSerif-109"/>
      <path d="M 26.796875 44 
Q 26.90625 44 28.40625 45 
L 29.5 45 
L 29.90625 31.40625 
L 28.40625 31.40625 
Q 26.703125 38.09375 24.203125 40.890625 
Q 21.703125 43.703125 17.40625 43.703125 
Q 14 43.703125 11.84375 41.796875 
Q 9.703125 39.90625 9.703125 36.90625 
Q 9.703125 32.59375 14 30.09375 
L 24.796875 23.703125 
Q 29.296875 21 31.25 18.25 
Q 33.203125 15.5 33.203125 11.796875 
Q 33.203125 6.59375 29.046875 2.796875 
Q 24.90625 -1 19.09375 -1 
Q 16.59375 -1 12.390625 -0.09375 
Q 8.203125 0.796875 7.203125 0.796875 
Q 5.703125 0.796875 4.90625 -0.40625 
L 3.59375 -0.40625 
L 3.59375 15.203125 
L 5.203125 15.203125 
Q 6.796875 8.203125 9 5.296875 
Q 12.203125 1.203125 17.90625 1.203125 
Q 21.703125 1.203125 23.953125 3.140625 
Q 26.203125 5.09375 26.203125 8.40625 
Q 26.203125 12.90625 21 15.90625 
L 15.203125 19.203125 
Q 8.796875 22.796875 6.140625 26.09375 
Q 3.5 29.40625 3.5 33.59375 
Q 3.5 39 7.34375 42.453125 
Q 11.203125 45.90625 17.09375 45.90625 
Q 20.40625 45.90625 23.296875 44.953125 
Q 26.203125 44 26.796875 44 
z
" id="FreeSerif-115"/>
     </defs>
     <g transform="translate(391.360937 620.059375)scale(0.2 -0.2)">
      <use xlink:href="#FreeSerif-117"/>
      <use x="48.98436" xlink:href="#FreeSerif-112"/>
      <use x="98.984344" xlink:href="#FreeSerif-100"/>
      <use x="148.884338" xlink:href="#FreeSerif-97"/>
      <use x="192.368698" xlink:href="#FreeSerif-116"/>
      <use x="220.668686" xlink:href="#FreeSerif-101"/>
      <use x="265.06868" xlink:href="#FreeSerif-32"/>
      <use x="290.068665" xlink:href="#FreeSerif-116"/>
      <use x="318.368652" xlink:href="#FreeSerif-105"/>
      <use x="346.153015" xlink:href="#FreeSerif-109"/>
      <use x="424.037384" xlink:href="#FreeSerif-101"/>
      <use x="468.421753" xlink:href="#FreeSerif-115"/>
     </g>
    </g>
   </g>
   <g id="matplotlib.axis_2">
    <g id="ytick_1">
     <g id="line2d_43">
      <path clip-path="url(#p83c591349c)" d="M 69.75 480.762216 
L 814 480.762216 
" style="fill:none;stroke:#b0b0b0;stroke-linecap:square;stroke-width:0.8;"/>
     </g>
     <g id="line2d_44">
      <defs>
       <path d="M 0 0 
L -3.5 0 
" id="m2a84b84183" style="stroke:#000000;stroke-width:0.8;"/>
      </defs>
      <g>
       <use style="stroke:#000000;stroke-width:0.8;" x="69.75" xlink:href="#m2a84b84183" y="480.762216"/>
      </g>
     </g>
     <g id="text_23">
      <!-- 5 -->
      <g transform="translate(54.75 486.225966)scale(0.16 -0.16)">
       <use xlink:href="#FreeSerif-53"/>
      </g>
     </g>
    </g>
    <g id="ytick_2">
     <g id="line2d_45">
      <path clip-path="url(#p83c591349c)" d="M 69.75 364.089509 
L 814 364.089509 
" style="fill:none;stroke:#b0b0b0;stroke-linecap:square;stroke-width:0.8;"/>
     </g>
     <g id="line2d_46">
      <g>
       <use style="stroke:#000000;stroke-width:0.8;" x="69.75" xlink:href="#m2a84b84183" y="364.089509"/>
      </g>
     </g>
     <g id="text_24">
      <!-- 10 -->
      <g transform="translate(46.75 369.553259)scale(0.16 -0.16)">
       <use xlink:href="#FreeSerif-49"/>
       <use x="49.999985" xlink:href="#FreeSerif-48"/>
      </g>
     </g>
    </g>
    <g id="ytick_3">
     <g id="line2d_47">
      <path clip-path="url(#p83c591349c)" d="M 69.75 247.416803 
L 814 247.416803 
" style="fill:none;stroke:#b0b0b0;stroke-linecap:square;stroke-width:0.8;"/>
     </g>
     <g id="line2d_48">
      <g>
       <use style="stroke:#000000;stroke-width:0.8;" x="69.75" xlink:href="#m2a84b84183" y="247.416803"/>
      </g>
     </g>
     <g id="text_25">
      <!-- 15 -->
      <g transform="translate(46.75 252.880553)scale(0.16 -0.16)">
       <use xlink:href="#FreeSerif-49"/>
       <use x="49.999985" xlink:href="#FreeSerif-53"/>
      </g>
     </g>
    </g>
    <g id="ytick_4">
     <g id="line2d_49">
      <path clip-path="url(#p83c591349c)" d="M 69.75 130.744096 
L 814 130.744096 
" style="fill:none;stroke:#b0b0b0;stroke-linecap:square;stroke-width:0.8;"/>
     </g>
     <g id="line2d_50">
      <g>
       <use style="stroke:#000000;stroke-width:0.8;" x="69.75" xlink:href="#m2a84b84183" y="130.744096"/>
      </g>
     </g>
     <g id="text_26">
      <!-- 20 -->
      <g transform="translate(46.75 136.207846)scale(0.16 -0.16)">
       <use xlink:href="#FreeSerif-50"/>
       <use x="49.999985" xlink:href="#FreeSerif-48"/>
      </g>
     </g>
    </g>
    <g id="text_27">
     <!-- error (cm) -->
     <defs>
      <path d="M 30.09375 36.203125 
Q 28.59375 36.203125 26.390625 37.953125 
Q 24.203125 39.703125 23.5 39.703125 
Q 21.5 39.703125 19 36.796875 
Q 16.5 33.90625 16.5 31.5 
L 16.5 9 
Q 16.5 4.703125 18.203125 3.203125 
Q 19.90625 1.703125 25 1.5 
L 25 0 
L 1 0 
L 1 1.5 
Q 5.796875 2.40625 6.9375 3.5 
Q 8.09375 4.59375 8.09375 8.40625 
L 8.09375 33.40625 
Q 8.09375 36.703125 7.34375 38.046875 
Q 6.59375 39.40625 4.703125 39.40625 
Q 3.09375 39.40625 1.203125 39 
L 1.203125 40.59375 
Q 9.203125 43.203125 16 46 
L 16.5 45.796875 
L 16.5 36.59375 
Q 20.203125 41.90625 22.796875 43.953125 
Q 25.40625 46 28.5 46 
Q 31.09375 46 32.546875 44.59375 
Q 34 43.203125 34 40.703125 
Q 34 38.59375 32.953125 37.390625 
Q 31.90625 36.203125 30.09375 36.203125 
z
" id="FreeSerif-114"/>
      <path d="M 24.59375 46 
Q 34.203125 46 40.390625 39.59375 
Q 46.59375 33.203125 46.59375 23.40625 
Q 46.59375 13 40.1875 6 
Q 33.796875 -1 24.390625 -1 
Q 15 -1 8.75 5.75 
Q 2.5 12.5 2.5 22.59375 
Q 2.5 32.90625 8.640625 39.453125 
Q 14.796875 46 24.59375 46 
z
M 11.5 27.5 
Q 11.5 16.796875 15.390625 9.296875 
Q 19.296875 1.796875 25.59375 1.796875 
Q 31.203125 1.796875 34.390625 6.59375 
Q 37.59375 11.40625 37.59375 19.90625 
Q 37.59375 30.203125 33.59375 36.703125 
Q 29.59375 43.203125 23.296875 43.203125 
Q 18 43.203125 14.75 38.890625 
Q 11.5 34.59375 11.5 27.5 
z
" id="FreeSerif-111"/>
      <path d="M 29.203125 -17.703125 
Q 26.59375 -16.09375 23.796875 -13.84375 
Q 21 -11.59375 17.453125 -7.59375 
Q 13.90625 -3.59375 11.203125 0.953125 
Q 8.5 5.5 6.640625 11.890625 
Q 4.796875 18.296875 4.796875 25.203125 
Q 4.796875 32.40625 6.640625 38.84375 
Q 8.5 45.296875 11 49.546875 
Q 13.5 53.796875 17.34375 57.75 
Q 21.203125 61.703125 23.703125 63.59375 
Q 26.203125 65.5 29.5 67.59375 
L 30.40625 66 
Q 26 62.40625 23.296875 59.5 
Q 20.59375 56.59375 18.09375 51.9375 
Q 15.59375 47.296875 14.5 40.84375 
Q 13.40625 34.40625 13.40625 25.5 
Q 13.40625 16.203125 14.5 9.5 
Q 15.59375 2.796875 18.09375 -1.953125 
Q 20.59375 -6.703125 23.296875 -9.703125 
Q 26 -12.703125 30.40625 -16.09375 
z
" id="FreeSerif-40"/>
      <path d="M 2.5 21.296875 
Q 2.5 32.40625 9.046875 39.203125 
Q 15.59375 46 24.40625 46 
Q 30.703125 46 35.25 42.953125 
Q 39.796875 39.90625 39.796875 35.703125 
Q 39.796875 34 38.390625 32.75 
Q 37 31.5 35 31.5 
Q 31.59375 31.5 30.296875 36.09375 
L 29.703125 38.296875 
Q 28.90625 41.09375 27.703125 42.09375 
Q 26.5 43.09375 23.796875 43.09375 
Q 17.703125 43.09375 13.953125 38.25 
Q 10.203125 33.40625 10.203125 25.703125 
Q 10.203125 17.09375 14.546875 11.640625 
Q 18.90625 6.203125 25.703125 6.203125 
Q 30 6.203125 33.09375 8.25 
Q 36.203125 10.296875 39.796875 15.59375 
L 41.203125 14.703125 
Q 40.203125 12.703125 39.453125 11.390625 
Q 38.703125 10.09375 36.75 7.5 
Q 34.796875 4.90625 32.890625 3.296875 
Q 31 1.703125 27.890625 0.34375 
Q 24.796875 -1 21.5 -1 
Q 13.203125 -1 7.84375 5.25 
Q 2.5 11.5 2.5 21.296875 
z
" id="FreeSerif-99"/>
      <path d="M 4.046875 67.703125 
Q 6.65625 66.09375 9.453125 63.84375 
Q 12.25 61.59375 15.796875 57.59375 
Q 19.34375 53.59375 22.046875 49.046875 
Q 24.75 44.5 26.59375 38.09375 
Q 28.453125 31.703125 28.453125 24.796875 
Q 28.453125 17.59375 26.59375 11.140625 
Q 24.75 4.703125 22.25 0.453125 
Q 19.75 -3.796875 15.890625 -7.75 
Q 12.046875 -11.703125 9.546875 -13.59375 
Q 7.046875 -15.5 3.75 -17.59375 
L 2.84375 -16 
Q 7.25 -12.40625 9.953125 -9.5 
Q 12.65625 -6.59375 15.15625 -1.9375 
Q 17.65625 2.703125 18.75 9.140625 
Q 19.84375 15.59375 19.84375 24.5 
Q 19.84375 33.796875 18.75 40.5 
Q 17.65625 47.203125 15.15625 51.953125 
Q 12.65625 56.703125 9.953125 59.703125 
Q 7.25 62.703125 2.84375 66.09375 
z
" id="FreeSerif-41"/>
     </defs>
     <g transform="translate(38.409375 356.584375)rotate(-90)scale(0.2 -0.2)">
      <use xlink:href="#FreeSerif-101"/>
      <use x="44.384369" xlink:href="#FreeSerif-114"/>
      <use x="78.884354" xlink:href="#FreeSerif-114"/>
      <use x="113.368713" xlink:href="#FreeSerif-111"/>
      <use x="162.453079" xlink:href="#FreeSerif-114"/>
      <use x="196.953064" xlink:href="#FreeSerif-32"/>
      <use x="221.953049" xlink:href="#FreeSerif-40"/>
      <use x="255.253036" xlink:href="#FreeSerif-99"/>
      <use x="299.637405" xlink:href="#FreeSerif-109"/>
      <use x="377.537399" xlink:href="#FreeSerif-41"/>
     </g>
    </g>
   </g>
   <g id="LineCollection_1">
    <path clip-path="url(#p83c591349c)" d="M 103.579545 393.355445 
L 103.579545 230.983209 
" style="fill:none;stroke:#ff0000;stroke-width:1.5;"/>
    <path clip-path="url(#p83c591349c)" d="M 137.409091 369.372116 
L 137.409091 199.529705 
" style="fill:none;stroke:#ff0000;stroke-width:1.5;"/>
    <path clip-path="url(#p83c591349c)" d="M 171.238636 378.084262 
L 171.238636 210.793535 
" style="fill:none;stroke:#ff0000;stroke-width:1.5;"/>
    <path clip-path="url(#p83c591349c)" d="M 205.068182 377.84928 
L 205.068182 210.517517 
" style="fill:none;stroke:#ff0000;stroke-width:1.5;"/>
    <path clip-path="url(#p83c591349c)" d="M 238.897727 389.621292 
L 238.897727 225.439508 
" style="fill:none;stroke:#ff0000;stroke-width:1.5;"/>
    <path clip-path="url(#p83c591349c)" d="M 272.727273 384.607373 
L 272.727273 218.549093 
" style="fill:none;stroke:#ff0000;stroke-width:1.5;"/>
    <path clip-path="url(#p83c591349c)" d="M 306.556818 389.106499 
L 306.556818 224.402557 
" style="fill:none;stroke:#ff0000;stroke-width:1.5;"/>
    <path clip-path="url(#p83c591349c)" d="M 340.386364 382.535611 
L 340.386364 215.817716 
" style="fill:none;stroke:#ff0000;stroke-width:1.5;"/>
    <path clip-path="url(#p83c591349c)" d="M 374.215909 400.238016 
L 374.215909 239.419853 
" style="fill:none;stroke:#ff0000;stroke-width:1.5;"/>
    <path clip-path="url(#p83c591349c)" d="M 408.045455 402.730116 
L 408.045455 242.5913 
" style="fill:none;stroke:#ff0000;stroke-width:1.5;"/>
    <path clip-path="url(#p83c591349c)" d="M 441.875 393.446272 
L 441.875 230.170461 
" style="fill:none;stroke:#ff0000;stroke-width:1.5;"/>
    <path clip-path="url(#p83c591349c)" d="M 475.704545 392.586637 
L 475.704545 229.392759 
" style="fill:none;stroke:#ff0000;stroke-width:1.5;"/>
    <path clip-path="url(#p83c591349c)" d="M 509.534091 400.905771 
L 509.534091 240.226387 
" style="fill:none;stroke:#ff0000;stroke-width:1.5;"/>
    <path clip-path="url(#p83c591349c)" d="M 543.363636 420.307503 
L 543.363636 266.308745 
" style="fill:none;stroke:#ff0000;stroke-width:1.5;"/>
    <path clip-path="url(#p83c591349c)" d="M 577.193182 422.372996 
L 577.193182 269.118532 
" style="fill:none;stroke:#ff0000;stroke-width:1.5;"/>
    <path clip-path="url(#p83c591349c)" d="M 611.022727 433.673977 
L 611.022727 284.754624 
" style="fill:none;stroke:#ff0000;stroke-width:1.5;"/>
    <path clip-path="url(#p83c591349c)" d="M 644.852273 438.324841 
L 644.852273 292.632516 
" style="fill:none;stroke:#ff0000;stroke-width:1.5;"/>
    <path clip-path="url(#p83c591349c)" d="M 678.681818 482.840205 
L 678.681818 355.153137 
" style="fill:none;stroke:#ff0000;stroke-width:1.5;"/>
    <path clip-path="url(#p83c591349c)" d="M 712.511364 509.280457 
L 712.511364 393.600193 
" style="fill:none;stroke:#ff0000;stroke-width:1.5;"/>
    <path clip-path="url(#p83c591349c)" d="M 746.340909 535.694744 
L 746.340909 435.586048 
" style="fill:none;stroke:#ff0000;stroke-width:1.5;"/>
    <path clip-path="url(#p83c591349c)" d="M 780.170455 549.467979 
L 780.170455 458.046952 
" style="fill:none;stroke:#ff0000;stroke-width:1.5;"/>
   </g>
   <g id="LineCollection_2">
    <path clip-path="url(#p83c591349c)" d="M 103.579545 278.983287 
L 103.579545 82.07625 
" style="fill:none;stroke:#0000ff;stroke-width:1.5;"/>
    <path clip-path="url(#p83c591349c)" d="M 137.409091 319.331243 
L 137.409091 133.251671 
" style="fill:none;stroke:#0000ff;stroke-width:1.5;"/>
    <path clip-path="url(#p83c591349c)" d="M 171.238636 327.689042 
L 171.238636 144.321285 
" style="fill:none;stroke:#0000ff;stroke-width:1.5;"/>
    <path clip-path="url(#p83c591349c)" d="M 205.068182 307.776061 
L 205.068182 118.41707 
" style="fill:none;stroke:#0000ff;stroke-width:1.5;"/>
    <path clip-path="url(#p83c591349c)" d="M 238.897727 315.954049 
L 238.897727 129.184904 
" style="fill:none;stroke:#0000ff;stroke-width:1.5;"/>
    <path clip-path="url(#p83c591349c)" d="M 272.727273 319.831337 
L 272.727273 133.853532 
" style="fill:none;stroke:#0000ff;stroke-width:1.5;"/>
    <path clip-path="url(#p83c591349c)" d="M 306.556818 301.657676 
L 306.556818 110.556762 
" style="fill:none;stroke:#0000ff;stroke-width:1.5;"/>
    <path clip-path="url(#p83c591349c)" d="M 340.386364 279.482383 
L 340.386364 82.304808 
" style="fill:none;stroke:#0000ff;stroke-width:1.5;"/>
    <path clip-path="url(#p83c591349c)" d="M 374.215909 291.033642 
L 374.215909 97.06502 
" style="fill:none;stroke:#0000ff;stroke-width:1.5;"/>
    <path clip-path="url(#p83c591349c)" d="M 408.045455 273.002571 
L 408.045455 74.136364 
" style="fill:none;stroke:#0000ff;stroke-width:1.5;"/>
    <path clip-path="url(#p83c591349c)" d="M 441.875 333.502887 
L 441.875 151.542168 
" style="fill:none;stroke:#0000ff;stroke-width:1.5;"/>
    <path clip-path="url(#p83c591349c)" d="M 475.704545 332.984013 
L 475.704545 151.282748 
" style="fill:none;stroke:#0000ff;stroke-width:1.5;"/>
    <path clip-path="url(#p83c591349c)" d="M 509.534091 316.43979 
L 509.534091 129.590242 
" style="fill:none;stroke:#0000ff;stroke-width:1.5;"/>
    <path clip-path="url(#p83c591349c)" d="M 543.363636 358.286557 
L 543.363636 183.82294 
" style="fill:none;stroke:#0000ff;stroke-width:1.5;"/>
    <path clip-path="url(#p83c591349c)" d="M 577.193182 380.449039 
L 577.193182 213.035486 
" style="fill:none;stroke:#0000ff;stroke-width:1.5;"/>
    <path clip-path="url(#p83c591349c)" d="M 611.022727 396.545536 
L 611.022727 234.311119 
" style="fill:none;stroke:#0000ff;stroke-width:1.5;"/>
    <path clip-path="url(#p83c591349c)" d="M 644.852273 424.799772 
L 644.852273 272.483887 
" style="fill:none;stroke:#0000ff;stroke-width:1.5;"/>
    <path clip-path="url(#p83c591349c)" d="M 678.681818 456.018867 
L 678.681818 315.684873 
" style="fill:none;stroke:#0000ff;stroke-width:1.5;"/>
    <path clip-path="url(#p83c591349c)" d="M 712.511364 481.171418 
L 712.511364 351.091859 
" style="fill:none;stroke:#0000ff;stroke-width:1.5;"/>
    <path clip-path="url(#p83c591349c)" d="M 746.340909 537.254537 
L 746.340909 435.550039 
" style="fill:none;stroke:#0000ff;stroke-width:1.5;"/>
    <path clip-path="url(#p83c591349c)" d="M 780.170455 556.863636 
L 780.170455 468.409461 
" style="fill:none;stroke:#0000ff;stroke-width:1.5;"/>
   </g>
   <g id="LineCollection_3">
    <path clip-path="url(#p83c591349c)" d="M 103.579545 304.884392 
L 103.579545 115.863544 
" style="fill:none;stroke:#008000;stroke-width:1.5;"/>
    <path clip-path="url(#p83c591349c)" d="M 137.409091 353.609191 
L 137.409091 178.106839 
" style="fill:none;stroke:#008000;stroke-width:1.5;"/>
    <path clip-path="url(#p83c591349c)" d="M 171.238636 361.902611 
L 171.238636 188.474262 
" style="fill:none;stroke:#008000;stroke-width:1.5;"/>
    <path clip-path="url(#p83c591349c)" d="M 205.068182 341.565798 
L 205.068182 161.973654 
" style="fill:none;stroke:#008000;stroke-width:1.5;"/>
    <path clip-path="url(#p83c591349c)" d="M 238.897727 353.373938 
L 238.897727 177.340977 
" style="fill:none;stroke:#008000;stroke-width:1.5;"/>
    <path clip-path="url(#p83c591349c)" d="M 272.727273 344.302219 
L 272.727273 165.56451 
" style="fill:none;stroke:#008000;stroke-width:1.5;"/>
    <path clip-path="url(#p83c591349c)" d="M 306.556818 332.623069 
L 306.556818 150.381292 
" style="fill:none;stroke:#008000;stroke-width:1.5;"/>
    <path clip-path="url(#p83c591349c)" d="M 340.386364 327.964096 
L 340.386364 144.576835 
" style="fill:none;stroke:#008000;stroke-width:1.5;"/>
    <path clip-path="url(#p83c591349c)" d="M 374.215909 323.097402 
L 374.215909 138.795155 
" style="fill:none;stroke:#008000;stroke-width:1.5;"/>
    <path clip-path="url(#p83c591349c)" d="M 408.045455 304.474416 
L 408.045455 114.786865 
" style="fill:none;stroke:#008000;stroke-width:1.5;"/>
    <path clip-path="url(#p83c591349c)" d="M 441.875 350.777491 
L 441.875 174.33389 
" style="fill:none;stroke:#008000;stroke-width:1.5;"/>
    <path clip-path="url(#p83c591349c)" d="M 475.704545 361.40764 
L 475.704545 187.887095 
" style="fill:none;stroke:#008000;stroke-width:1.5;"/>
    <path clip-path="url(#p83c591349c)" d="M 509.534091 369.887089 
L 509.534091 199.015369 
" style="fill:none;stroke:#008000;stroke-width:1.5;"/>
    <path clip-path="url(#p83c591349c)" d="M 543.363636 403.036541 
L 543.363636 243.013115 
" style="fill:none;stroke:#008000;stroke-width:1.5;"/>
    <path clip-path="url(#p83c591349c)" d="M 577.193182 409.213869 
L 577.193182 251.29588 
" style="fill:none;stroke:#008000;stroke-width:1.5;"/>
    <path clip-path="url(#p83c591349c)" d="M 611.022727 412.570933 
L 611.022727 255.988256 
" style="fill:none;stroke:#008000;stroke-width:1.5;"/>
    <path clip-path="url(#p83c591349c)" d="M 644.852273 436.292602 
L 644.852273 288.509837 
" style="fill:none;stroke:#008000;stroke-width:1.5;"/>
    <path clip-path="url(#p83c591349c)" d="M 678.681818 460.503075 
L 678.681818 322.387445 
" style="fill:none;stroke:#008000;stroke-width:1.5;"/>
    <path clip-path="url(#p83c591349c)" d="M 712.511364 482.426332 
L 712.511364 353.035932 
" style="fill:none;stroke:#008000;stroke-width:1.5;"/>
    <path clip-path="url(#p83c591349c)" d="M 746.340909 534.610694 
L 746.340909 431.465784 
" style="fill:none;stroke:#008000;stroke-width:1.5;"/>
    <path clip-path="url(#p83c591349c)" d="M 780.170455 554.425921 
L 780.170455 464.616478 
" style="fill:none;stroke:#008000;stroke-width:1.5;"/>
   </g>
   <g id="line2d_51">
    <defs>
     <path d="M 0 3 
C 0.795609 3 1.55874 2.683901 2.12132 2.12132 
C 2.683901 1.55874 3 0.795609 3 0 
C 3 -0.795609 2.683901 -1.55874 2.12132 -2.12132 
C 1.55874 -2.683901 0.795609 -3 0 -3 
C -0.795609 -3 -1.55874 -2.683901 -2.12132 -2.12132 
C -2.683901 -1.55874 -3 -0.795609 -3 0 
C -3 0.795609 -2.683901 1.55874 -2.12132 2.12132 
C -1.55874 2.683901 -0.795609 3 0 3 
z
" id="mc6d7b33c4b" style="stroke:#ff0000;"/>
    </defs>
    <g clip-path="url(#p83c591349c)">
     <use style="fill:#ff0000;stroke:#ff0000;" x="103.579545" xlink:href="#mc6d7b33c4b" y="312.169327"/>
     <use style="fill:#ff0000;stroke:#ff0000;" x="137.409091" xlink:href="#mc6d7b33c4b" y="284.45091"/>
     <use style="fill:#ff0000;stroke:#ff0000;" x="171.238636" xlink:href="#mc6d7b33c4b" y="294.438898"/>
     <use style="fill:#ff0000;stroke:#ff0000;" x="205.068182" xlink:href="#mc6d7b33c4b" y="294.183399"/>
     <use style="fill:#ff0000;stroke:#ff0000;" x="238.897727" xlink:href="#mc6d7b33c4b" y="307.5304"/>
     <use style="fill:#ff0000;stroke:#ff0000;" x="272.727273" xlink:href="#mc6d7b33c4b" y="301.578233"/>
     <use style="fill:#ff0000;stroke:#ff0000;" x="306.556818" xlink:href="#mc6d7b33c4b" y="306.754528"/>
     <use style="fill:#ff0000;stroke:#ff0000;" x="340.386364" xlink:href="#mc6d7b33c4b" y="299.176663"/>
     <use style="fill:#ff0000;stroke:#ff0000;" x="374.215909" xlink:href="#mc6d7b33c4b" y="319.828935"/>
     <use style="fill:#ff0000;stroke:#ff0000;" x="408.045455" xlink:href="#mc6d7b33c4b" y="322.660708"/>
     <use style="fill:#ff0000;stroke:#ff0000;" x="441.875" xlink:href="#mc6d7b33c4b" y="311.808367"/>
     <use style="fill:#ff0000;stroke:#ff0000;" x="475.704545" xlink:href="#mc6d7b33c4b" y="310.989698"/>
     <use style="fill:#ff0000;stroke:#ff0000;" x="509.534091" xlink:href="#mc6d7b33c4b" y="320.566079"/>
     <use style="fill:#ff0000;stroke:#ff0000;" x="543.363636" xlink:href="#mc6d7b33c4b" y="343.308124"/>
     <use style="fill:#ff0000;stroke:#ff0000;" x="577.193182" xlink:href="#mc6d7b33c4b" y="345.745764"/>
     <use style="fill:#ff0000;stroke:#ff0000;" x="611.022727" xlink:href="#mc6d7b33c4b" y="359.214301"/>
     <use style="fill:#ff0000;stroke:#ff0000;" x="644.852273" xlink:href="#mc6d7b33c4b" y="365.478679"/>
     <use style="fill:#ff0000;stroke:#ff0000;" x="678.681818" xlink:href="#mc6d7b33c4b" y="418.996671"/>
     <use style="fill:#ff0000;stroke:#ff0000;" x="712.511364" xlink:href="#mc6d7b33c4b" y="451.440325"/>
     <use style="fill:#ff0000;stroke:#ff0000;" x="746.340909" xlink:href="#mc6d7b33c4b" y="485.640396"/>
     <use style="fill:#ff0000;stroke:#ff0000;" x="780.170455" xlink:href="#mc6d7b33c4b" y="503.757466"/>
    </g>
   </g>
   <g id="line2d_52">
    <defs>
     <path d="M -0 4.242641 
L 4.242641 0 
L 0 -4.242641 
L -4.242641 -0 
z
" id="m991df66653" style="stroke:#0000ff;stroke-linejoin:miter;"/>
    </defs>
    <g clip-path="url(#p83c591349c)">
     <use style="fill:#0000ff;stroke:#0000ff;stroke-linejoin:miter;" x="103.579545" xlink:href="#m991df66653" y="180.529769"/>
     <use style="fill:#0000ff;stroke:#0000ff;stroke-linejoin:miter;" x="137.409091" xlink:href="#m991df66653" y="226.291457"/>
     <use style="fill:#0000ff;stroke:#0000ff;stroke-linejoin:miter;" x="171.238636" xlink:href="#m991df66653" y="236.005164"/>
     <use style="fill:#0000ff;stroke:#0000ff;stroke-linejoin:miter;" x="205.068182" xlink:href="#m991df66653" y="213.096566"/>
     <use style="fill:#0000ff;stroke:#0000ff;stroke-linejoin:miter;" x="238.897727" xlink:href="#m991df66653" y="222.569476"/>
     <use style="fill:#0000ff;stroke:#0000ff;stroke-linejoin:miter;" x="272.727273" xlink:href="#m991df66653" y="226.842435"/>
     <use style="fill:#0000ff;stroke:#0000ff;stroke-linejoin:miter;" x="306.556818" xlink:href="#m991df66653" y="206.107219"/>
     <use style="fill:#0000ff;stroke:#0000ff;stroke-linejoin:miter;" x="340.386364" xlink:href="#m991df66653" y="180.893595"/>
     <use style="fill:#0000ff;stroke:#0000ff;stroke-linejoin:miter;" x="374.215909" xlink:href="#m991df66653" y="194.049331"/>
     <use style="fill:#0000ff;stroke:#0000ff;stroke-linejoin:miter;" x="408.045455" xlink:href="#m991df66653" y="173.569467"/>
     <use style="fill:#0000ff;stroke:#0000ff;stroke-linejoin:miter;" x="441.875" xlink:href="#m991df66653" y="242.522528"/>
     <use style="fill:#0000ff;stroke:#0000ff;stroke-linejoin:miter;" x="475.704545" xlink:href="#m991df66653" y="242.13338"/>
     <use style="fill:#0000ff;stroke:#0000ff;stroke-linejoin:miter;" x="509.534091" xlink:href="#m991df66653" y="223.015016"/>
     <use style="fill:#0000ff;stroke:#0000ff;stroke-linejoin:miter;" x="543.363636" xlink:href="#m991df66653" y="271.054749"/>
     <use style="fill:#0000ff;stroke:#0000ff;stroke-linejoin:miter;" x="577.193182" xlink:href="#m991df66653" y="296.742263"/>
     <use style="fill:#0000ff;stroke:#0000ff;stroke-linejoin:miter;" x="611.022727" xlink:href="#m991df66653" y="315.428327"/>
     <use style="fill:#0000ff;stroke:#0000ff;stroke-linejoin:miter;" x="644.852273" xlink:href="#m991df66653" y="348.641829"/>
     <use style="fill:#0000ff;stroke:#0000ff;stroke-linejoin:miter;" x="678.681818" xlink:href="#m991df66653" y="385.85187"/>
     <use style="fill:#0000ff;stroke:#0000ff;stroke-linejoin:miter;" x="712.511364" xlink:href="#m991df66653" y="416.131638"/>
     <use style="fill:#0000ff;stroke:#0000ff;stroke-linejoin:miter;" x="746.340909" xlink:href="#m991df66653" y="486.402288"/>
     <use style="fill:#0000ff;stroke:#0000ff;stroke-linejoin:miter;" x="780.170455" xlink:href="#m991df66653" y="512.636548"/>
    </g>
   </g>
   <g id="line2d_53">
    <defs>
     <path d="M -3 3 
L 3 3 
L 3 -3 
L -3 -3 
z
" id="m232daeb0e3" style="stroke:#008000;stroke-linejoin:miter;"/>
    </defs>
    <g clip-path="url(#p83c591349c)">
     <use style="fill:#008000;stroke:#008000;stroke-linejoin:miter;" x="103.579545" xlink:href="#m232daeb0e3" y="210.373968"/>
     <use style="fill:#008000;stroke:#008000;stroke-linejoin:miter;" x="137.409091" xlink:href="#m232daeb0e3" y="265.858015"/>
     <use style="fill:#008000;stroke:#008000;stroke-linejoin:miter;" x="171.238636" xlink:href="#m232daeb0e3" y="275.188436"/>
     <use style="fill:#008000;stroke:#008000;stroke-linejoin:miter;" x="205.068182" xlink:href="#m232daeb0e3" y="251.769726"/>
     <use style="fill:#008000;stroke:#008000;stroke-linejoin:miter;" x="238.897727" xlink:href="#m232daeb0e3" y="265.357457"/>
     <use style="fill:#008000;stroke:#008000;stroke-linejoin:miter;" x="272.727273" xlink:href="#m232daeb0e3" y="254.933364"/>
     <use style="fill:#008000;stroke:#008000;stroke-linejoin:miter;" x="306.556818" xlink:href="#m232daeb0e3" y="241.50218"/>
     <use style="fill:#008000;stroke:#008000;stroke-linejoin:miter;" x="340.386364" xlink:href="#m232daeb0e3" y="236.270466"/>
     <use style="fill:#008000;stroke:#008000;stroke-linejoin:miter;" x="374.215909" xlink:href="#m232daeb0e3" y="230.946278"/>
     <use style="fill:#008000;stroke:#008000;stroke-linejoin:miter;" x="408.045455" xlink:href="#m232daeb0e3" y="209.63064"/>
     <use style="fill:#008000;stroke:#008000;stroke-linejoin:miter;" x="441.875" xlink:href="#m232daeb0e3" y="262.55569"/>
     <use style="fill:#008000;stroke:#008000;stroke-linejoin:miter;" x="475.704545" xlink:href="#m232daeb0e3" y="274.647368"/>
     <use style="fill:#008000;stroke:#008000;stroke-linejoin:miter;" x="509.534091" xlink:href="#m232daeb0e3" y="284.451229"/>
     <use style="fill:#008000;stroke:#008000;stroke-linejoin:miter;" x="543.363636" xlink:href="#m232daeb0e3" y="323.024828"/>
     <use style="fill:#008000;stroke:#008000;stroke-linejoin:miter;" x="577.193182" xlink:href="#m232daeb0e3" y="330.254874"/>
     <use style="fill:#008000;stroke:#008000;stroke-linejoin:miter;" x="611.022727" xlink:href="#m232daeb0e3" y="334.279595"/>
     <use style="fill:#008000;stroke:#008000;stroke-linejoin:miter;" x="644.852273" xlink:href="#m232daeb0e3" y="362.401219"/>
     <use style="fill:#008000;stroke:#008000;stroke-linejoin:miter;" x="678.681818" xlink:href="#m232daeb0e3" y="391.44526"/>
     <use style="fill:#008000;stroke:#008000;stroke-linejoin:miter;" x="712.511364" xlink:href="#m232daeb0e3" y="417.731132"/>
     <use style="fill:#008000;stroke:#008000;stroke-linejoin:miter;" x="746.340909" xlink:href="#m232daeb0e3" y="483.038239"/>
     <use style="fill:#008000;stroke:#008000;stroke-linejoin:miter;" x="780.170455" xlink:href="#m232daeb0e3" y="509.521199"/>
    </g>
   </g>
   <g id="patch_3">
    <path d="M 69.75 581 
L 69.75 50 
" style="fill:none;stroke:#000000;stroke-linecap:square;stroke-linejoin:miter;stroke-width:0.8;"/>
   </g>
   <g id="patch_4">
    <path d="M 814 581 
L 814 50 
" style="fill:none;stroke:#000000;stroke-linecap:square;stroke-linejoin:miter;stroke-width:0.8;"/>
   </g>
   <g id="patch_5">
    <path d="M 69.75 581 
L 814 581 
" style="fill:none;stroke:#000000;stroke-linecap:square;stroke-linejoin:miter;stroke-width:0.8;"/>
   </g>
   <g id="patch_6">
    <path d="M 69.75 50 
L 814 50 
" style="fill:none;stroke:#000000;stroke-linecap:square;stroke-linejoin:miter;stroke-width:0.8;"/>
   </g>
   <g id="text_28">
    <!-- z error bar -->
    <defs>
     <path d="M 25.5 3 
Q 29.40625 3 31.703125 3.5 
Q 34 4 35.296875 5.703125 
Q 36.59375 7.40625 37.09375 8.90625 
Q 37.59375 10.40625 38.296875 13.90625 
L 40.09375 13.5 
L 38.703125 0 
L 1 0 
L 1 1.5 
L 27.59375 42 
L 13.796875 42 
Q 9.296875 42 7.6875 40.34375 
Q 6.09375 38.703125 5.40625 33.203125 
L 3.59375 33.203125 
L 3.90625 45 
L 38.59375 45 
L 38.59375 43.5 
L 11.703125 3 
z
" id="FreeSerif-122"/>
     <path d="M 16 68.09375 
L 16 37.5 
Q 17.5 41.203125 21.390625 43.59375 
Q 25.296875 46 29.90625 46 
Q 37.40625 46 42.453125 39.75 
Q 47.5 33.5 47.5 24.296875 
Q 47.5 13.59375 40.75 6.296875 
Q 34 -1 24.09375 -1 
Q 18.09375 -1 12.84375 1.046875 
Q 7.59375 3.09375 7.59375 5.40625 
L 7.59375 57.296875 
Q 7.59375 60.40625 6.640625 61.40625 
Q 5.703125 62.40625 2.703125 62.40625 
Q 1.59375 62.40625 1 62.296875 
L 1 63.90625 
Q 8.703125 65.796875 15.5 68.296875 
z
M 16 32.203125 
L 16 7 
Q 16 5.09375 18.890625 3.640625 
Q 21.796875 2.203125 25.703125 2.203125 
Q 31.90625 2.203125 35.296875 6.796875 
Q 38.703125 11.40625 38.703125 19.703125 
Q 38.703125 28.796875 35.25 34.25 
Q 31.796875 39.703125 25.90625 39.703125 
Q 22 39.703125 19 37.390625 
Q 16 35.09375 16 32.203125 
z
" id="FreeSerif-98"/>
    </defs>
    <g transform="translate(400.209375 44)scale(0.2 -0.2)">
     <use xlink:href="#FreeSerif-122"/>
     <use x="41.699997" xlink:href="#FreeSerif-32"/>
     <use x="66.699982" xlink:href="#FreeSerif-101"/>
     <use x="111.084351" xlink:href="#FreeSerif-114"/>
     <use x="145.584335" xlink:href="#FreeSerif-114"/>
     <use x="180.068695" xlink:href="#FreeSerif-111"/>
     <use x="229.153061" xlink:href="#FreeSerif-114"/>
     <use x="263.653046" xlink:href="#FreeSerif-32"/>
     <use x="288.65303" xlink:href="#FreeSerif-98"/>
     <use x="338.653015" xlink:href="#FreeSerif-97"/>
     <use x="382.153" xlink:href="#FreeSerif-114"/>
    </g>
   </g>
   <g id="legend_1">
    <g id="patch_7">
     <path d="M 733.7 102.034375 
L 807 102.034375 
Q 809 102.034375 809 100.034375 
L 809 57 
Q 809 55 807 55 
L 733.7 55 
Q 731.7 55 731.7 57 
L 731.7 100.034375 
Q 731.7 102.034375 733.7 102.034375 
z
" style="fill:#ffffff;opacity:0.8;stroke:#cccccc;stroke-linejoin:miter;"/>
    </g>
    <g id="LineCollection_4">
     <path d="M 745.7 68.098437 
L 745.7 58.098437 
" style="fill:none;stroke:#ff0000;stroke-width:1.5;"/>
    </g>
    <g id="line2d_54"/>
    <g id="line2d_55">
     <g>
      <use style="fill:#ff0000;stroke:#ff0000;" x="745.7" xlink:href="#mc6d7b33c4b" y="63.098437"/>
     </g>
    </g>
    <g id="text_29">
     <!-- model A -->
     <defs>
      <path d="M 52 44.1875 
Q 55.375 50.25 60.0625 53.125 
Q 64.75 56 71.09375 56 
Q 79.640625 56 84.28125 50.015625 
Q 88.921875 44.046875 88.921875 33.015625 
L 88.921875 0 
L 79.890625 0 
L 79.890625 32.71875 
Q 79.890625 40.578125 77.09375 44.375 
Q 74.3125 48.1875 68.609375 48.1875 
Q 61.625 48.1875 57.5625 43.546875 
Q 53.515625 38.921875 53.515625 30.90625 
L 53.515625 0 
L 44.484375 0 
L 44.484375 32.71875 
Q 44.484375 40.625 41.703125 44.40625 
Q 38.921875 48.1875 33.109375 48.1875 
Q 26.21875 48.1875 22.15625 43.53125 
Q 18.109375 38.875 18.109375 30.90625 
L 18.109375 0 
L 9.078125 0 
L 9.078125 54.6875 
L 18.109375 54.6875 
L 18.109375 46.1875 
Q 21.1875 51.21875 25.484375 53.609375 
Q 29.78125 56 35.6875 56 
Q 41.65625 56 45.828125 52.96875 
Q 50 49.953125 52 44.1875 
z
" id="DejaVuSans-109"/>
      <path d="M 30.609375 48.390625 
Q 23.390625 48.390625 19.1875 42.75 
Q 14.984375 37.109375 14.984375 27.296875 
Q 14.984375 17.484375 19.15625 11.84375 
Q 23.34375 6.203125 30.609375 6.203125 
Q 37.796875 6.203125 41.984375 11.859375 
Q 46.1875 17.53125 46.1875 27.296875 
Q 46.1875 37.015625 41.984375 42.703125 
Q 37.796875 48.390625 30.609375 48.390625 
z
M 30.609375 56 
Q 42.328125 56 49.015625 48.375 
Q 55.71875 40.765625 55.71875 27.296875 
Q 55.71875 13.875 49.015625 6.21875 
Q 42.328125 -1.421875 30.609375 -1.421875 
Q 18.84375 -1.421875 12.171875 6.21875 
Q 5.515625 13.875 5.515625 27.296875 
Q 5.515625 40.765625 12.171875 48.375 
Q 18.84375 56 30.609375 56 
z
" id="DejaVuSans-111"/>
      <path d="M 45.40625 46.390625 
L 45.40625 75.984375 
L 54.390625 75.984375 
L 54.390625 0 
L 45.40625 0 
L 45.40625 8.203125 
Q 42.578125 3.328125 38.25 0.953125 
Q 33.9375 -1.421875 27.875 -1.421875 
Q 17.96875 -1.421875 11.734375 6.484375 
Q 5.515625 14.40625 5.515625 27.296875 
Q 5.515625 40.1875 11.734375 48.09375 
Q 17.96875 56 27.875 56 
Q 33.9375 56 38.25 53.625 
Q 42.578125 51.265625 45.40625 46.390625 
z
M 14.796875 27.296875 
Q 14.796875 17.390625 18.875 11.75 
Q 22.953125 6.109375 30.078125 6.109375 
Q 37.203125 6.109375 41.296875 11.75 
Q 45.40625 17.390625 45.40625 27.296875 
Q 45.40625 37.203125 41.296875 42.84375 
Q 37.203125 48.484375 30.078125 48.484375 
Q 22.953125 48.484375 18.875 42.84375 
Q 14.796875 37.203125 14.796875 27.296875 
z
" id="DejaVuSans-100"/>
      <path d="M 56.203125 29.59375 
L 56.203125 25.203125 
L 14.890625 25.203125 
Q 15.484375 15.921875 20.484375 11.0625 
Q 25.484375 6.203125 34.421875 6.203125 
Q 39.59375 6.203125 44.453125 7.46875 
Q 49.3125 8.734375 54.109375 11.28125 
L 54.109375 2.78125 
Q 49.265625 0.734375 44.1875 -0.34375 
Q 39.109375 -1.421875 33.890625 -1.421875 
Q 20.796875 -1.421875 13.15625 6.1875 
Q 5.515625 13.8125 5.515625 26.8125 
Q 5.515625 40.234375 12.765625 48.109375 
Q 20.015625 56 32.328125 56 
Q 43.359375 56 49.78125 48.890625 
Q 56.203125 41.796875 56.203125 29.59375 
z
M 47.21875 32.234375 
Q 47.125 39.59375 43.09375 43.984375 
Q 39.0625 48.390625 32.421875 48.390625 
Q 24.90625 48.390625 20.390625 44.140625 
Q 15.875 39.890625 15.1875 32.171875 
z
" id="DejaVuSans-101"/>
      <path d="M 9.421875 75.984375 
L 18.40625 75.984375 
L 18.40625 0 
L 9.421875 0 
z
" id="DejaVuSans-108"/>
      <path id="DejaVuSans-32"/>
      <path d="M 34.1875 63.1875 
L 20.796875 26.90625 
L 47.609375 26.90625 
z
M 28.609375 72.90625 
L 39.796875 72.90625 
L 67.578125 0 
L 57.328125 0 
L 50.6875 18.703125 
L 17.828125 18.703125 
L 11.1875 0 
L 0.78125 0 
z
" id="DejaVuSans-65"/>
     </defs>
     <g transform="translate(763.7 66.598437)scale(0.1 -0.1)">
      <use xlink:href="#DejaVuSans-109"/>
      <use x="97.412109" xlink:href="#DejaVuSans-111"/>
      <use x="158.59375" xlink:href="#DejaVuSans-100"/>
      <use x="222.070312" xlink:href="#DejaVuSans-101"/>
      <use x="283.59375" xlink:href="#DejaVuSans-108"/>
      <use x="311.376953" xlink:href="#DejaVuSans-32"/>
      <use x="343.164062" xlink:href="#DejaVuSans-65"/>
     </g>
    </g>
    <g id="LineCollection_5">
     <path d="M 745.7 82.776562 
L 745.7 72.776562 
" style="fill:none;stroke:#0000ff;stroke-width:1.5;"/>
    </g>
    <g id="line2d_56"/>
    <g id="line2d_57">
     <g>
      <use style="fill:#0000ff;stroke:#0000ff;stroke-linejoin:miter;" x="745.7" xlink:href="#m991df66653" y="77.776562"/>
     </g>
    </g>
    <g id="text_30">
     <!-- model B -->
     <defs>
      <path d="M 19.671875 34.8125 
L 19.671875 8.109375 
L 35.5 8.109375 
Q 43.453125 8.109375 47.28125 11.40625 
Q 51.125 14.703125 51.125 21.484375 
Q 51.125 28.328125 47.28125 31.5625 
Q 43.453125 34.8125 35.5 34.8125 
z
M 19.671875 64.796875 
L 19.671875 42.828125 
L 34.28125 42.828125 
Q 41.5 42.828125 45.03125 45.53125 
Q 48.578125 48.25 48.578125 53.8125 
Q 48.578125 59.328125 45.03125 62.0625 
Q 41.5 64.796875 34.28125 64.796875 
z
M 9.8125 72.90625 
L 35.015625 72.90625 
Q 46.296875 72.90625 52.390625 68.21875 
Q 58.5 63.53125 58.5 54.890625 
Q 58.5 48.1875 55.375 44.234375 
Q 52.25 40.28125 46.1875 39.3125 
Q 53.46875 37.75 57.5 32.78125 
Q 61.53125 27.828125 61.53125 20.40625 
Q 61.53125 10.640625 54.890625 5.3125 
Q 48.25 0 35.984375 0 
L 9.8125 0 
z
" id="DejaVuSans-66"/>
     </defs>
     <g transform="translate(763.7 81.276562)scale(0.1 -0.1)">
      <use xlink:href="#DejaVuSans-109"/>
      <use x="97.412109" xlink:href="#DejaVuSans-111"/>
      <use x="158.59375" xlink:href="#DejaVuSans-100"/>
      <use x="222.070312" xlink:href="#DejaVuSans-101"/>
      <use x="283.59375" xlink:href="#DejaVuSans-108"/>
      <use x="311.376953" xlink:href="#DejaVuSans-32"/>
      <use x="343.164062" xlink:href="#DejaVuSans-66"/>
     </g>
    </g>
    <g id="LineCollection_6">
     <path d="M 745.7 97.454687 
L 745.7 87.454687 
" style="fill:none;stroke:#008000;stroke-width:1.5;"/>
    </g>
    <g id="line2d_58"/>
    <g id="line2d_59">
     <g>
      <use style="fill:#008000;stroke:#008000;stroke-linejoin:miter;" x="745.7" xlink:href="#m232daeb0e3" y="92.454687"/>
     </g>
    </g>
    <g id="text_31">
     <!-- model C -->
     <defs>
      <path d="M 64.40625 67.28125 
L 64.40625 56.890625 
Q 59.421875 61.53125 53.78125 63.8125 
Q 48.140625 66.109375 41.796875 66.109375 
Q 29.296875 66.109375 22.65625 58.46875 
Q 16.015625 50.828125 16.015625 36.375 
Q 16.015625 21.96875 22.65625 14.328125 
Q 29.296875 6.6875 41.796875 6.6875 
Q 48.140625 6.6875 53.78125 8.984375 
Q 59.421875 11.28125 64.40625 15.921875 
L 64.40625 5.609375 
Q 59.234375 2.09375 53.4375 0.328125 
Q 47.65625 -1.421875 41.21875 -1.421875 
Q 24.65625 -1.421875 15.125 8.703125 
Q 5.609375 18.84375 5.609375 36.375 
Q 5.609375 53.953125 15.125 64.078125 
Q 24.65625 74.21875 41.21875 74.21875 
Q 47.75 74.21875 53.53125 72.484375 
Q 59.328125 70.75 64.40625 67.28125 
z
" id="DejaVuSans-67"/>
     </defs>
     <g transform="translate(763.7 95.954687)scale(0.1 -0.1)">
      <use xlink:href="#DejaVuSans-109"/>
      <use x="97.412109" xlink:href="#DejaVuSans-111"/>
      <use x="158.59375" xlink:href="#DejaVuSans-100"/>
      <use x="222.070312" xlink:href="#DejaVuSans-101"/>
      <use x="283.59375" xlink:href="#DejaVuSans-108"/>
      <use x="311.376953" xlink:href="#DejaVuSans-32"/>
      <use x="343.164062" xlink:href="#DejaVuSans-67"/>
     </g>
    </g>
   </g>
  </g>
 </g>
 <defs>
  <clipPath id="p83c591349c">
   <rect height="531" width="744.25" x="69.75" y="50"/>
  </clipPath>
 </defs>
</svg>
