<?xml version="1.0" encoding="utf-8" standalone="no"?>
<!DOCTYPE svg PUBLIC "-//W3C//DTD SVG 1.1//EN"
  "http://www.w3.org/Graphics/SVG/1.1/DTD/svg11.dtd">
<!-- Created with matplotlib (https://matplotlib.org/) -->
<svg height="576pt" version="1.1" viewBox="0 0 576 576" width="576pt" xmlns="http://www.w3.org/2000/svg" xmlns:xlink="http://www.w3.org/1999/xlink">
 <defs>
  <style type="text/css">
*{stroke-linecap:butt;stroke-linejoin:round;}
  </style>
 </defs>
 <g id="figure_1">
  <g id="patch_1">
   <path d="M 0 576 
L 576 576 
L 576 0 
L 0 0 
z
" style="fill:#ffffff;"/>
  </g>
  <g id="axes_1">
   <g id="patch_2">
    <path d="M 71.82225 512.784 
L 544.52 512.784 
L 544.52 42.8017 
L 71.82225 42.8017 
z
" style="fill:#ffffff;"/>
   </g>
   <g id="PathCollection_1">
    <defs>
     <path d="M -3 3 
L 3 -3 
M -3 -3 
L 3 3 
" id="mcb35028023" style="stroke:#0000ff;stroke-width:1.5;"/>
    </defs>
    <g clip-path="url(#pdad1eefc55)">
     <use style="fill:#0000ff;stroke:#0000ff;stroke-width:1.5;" x="252.056285" xlink:href="#mcb35028023" y="299.052314"/>
     <use style="fill:#0000ff;stroke:#0000ff;stroke-width:1.5;" x="245.376144" xlink:href="#mcb35028023" y="328.752923"/>
     <use style="fill:#0000ff;stroke:#0000ff;stroke-width:1.5;" x="387.501429" xlink:href="#mcb35028023" y="212.916924"/>
     <use style="fill:#0000ff;stroke:#0000ff;stroke-width:1.5;" x="302.563215" xlink:href="#mcb35028023" y="287.559665"/>
     <use style="fill:#0000ff;stroke:#0000ff;stroke-width:1.5;" x="340.414662" xlink:href="#mcb35028023" y="276.355419"/>
     <use style="fill:#0000ff;stroke:#0000ff;stroke-width:1.5;" x="379.990307" xlink:href="#mcb35028023" y="170.05447"/>
     <use style="fill:#0000ff;stroke:#0000ff;stroke-width:1.5;" x="297.113114" xlink:href="#mcb35028023" y="314.307284"/>
     <use style="fill:#0000ff;stroke:#0000ff;stroke-width:1.5;" x="284.832899" xlink:href="#mcb35028023" y="235.876302"/>
     <use style="fill:#0000ff;stroke:#0000ff;stroke-width:1.5;" x="275.05118" xlink:href="#mcb35028023" y="277.808644"/>
     <use style="fill:#0000ff;stroke:#0000ff;stroke-width:1.5;" x="179.050964" xlink:href="#mcb35028023" y="319.487903"/>
     <use style="fill:#0000ff;stroke:#0000ff;stroke-width:1.5;" x="342.526751" xlink:href="#mcb35028023" y="311.618997"/>
     <use style="fill:#0000ff;stroke:#0000ff;stroke-width:1.5;" x="198.528389" xlink:href="#mcb35028023" y="309.907991"/>
     <use style="fill:#0000ff;stroke:#0000ff;stroke-width:1.5;" x="377.937058" xlink:href="#mcb35028023" y="258.701826"/>
     <use style="fill:#0000ff;stroke:#0000ff;stroke-width:1.5;" x="264.941356" xlink:href="#mcb35028023" y="253.819728"/>
     <use style="fill:#0000ff;stroke:#0000ff;stroke-width:1.5;" x="333.952206" xlink:href="#mcb35028023" y="326.372534"/>
     <use style="fill:#0000ff;stroke:#0000ff;stroke-width:1.5;" x="323.726305" xlink:href="#mcb35028023" y="257.591259"/>
     <use style="fill:#0000ff;stroke:#0000ff;stroke-width:1.5;" x="206.031128" xlink:href="#mcb35028023" y="336.929397"/>
     <use style="fill:#0000ff;stroke:#0000ff;stroke-width:1.5;" x="281.755718" xlink:href="#mcb35028023" y="309.798518"/>
     <use style="fill:#0000ff;stroke:#0000ff;stroke-width:1.5;" x="370.486874" xlink:href="#mcb35028023" y="243.833418"/>
     <use style="fill:#0000ff;stroke:#0000ff;stroke-width:1.5;" x="223.352333" xlink:href="#mcb35028023" y="295.526847"/>
     <use style="fill:#0000ff;stroke:#0000ff;stroke-width:1.5;" x="348.245758" xlink:href="#mcb35028023" y="205.852615"/>
     <use style="fill:#0000ff;stroke:#0000ff;stroke-width:1.5;" x="299.565743" xlink:href="#mcb35028023" y="262.548394"/>
     <use style="fill:#0000ff;stroke:#0000ff;stroke-width:1.5;" x="364.021151" xlink:href="#mcb35028023" y="231.521997"/>
     <use style="fill:#0000ff;stroke:#0000ff;stroke-width:1.5;" x="313.297239" xlink:href="#mcb35028023" y="284.443851"/>
     <use style="fill:#0000ff;stroke:#0000ff;stroke-width:1.5;" x="266.981416" xlink:href="#mcb35028023" y="286.561977"/>
     <use style="fill:#0000ff;stroke:#0000ff;stroke-width:1.5;" x="326.861227" xlink:href="#mcb35028023" y="326.016932"/>
     <use style="fill:#0000ff;stroke:#0000ff;stroke-width:1.5;" x="278.86217" xlink:href="#mcb35028023" y="271.307904"/>
     <use style="fill:#0000ff;stroke:#0000ff;stroke-width:1.5;" x="383.680493" xlink:href="#mcb35028023" y="220.342657"/>
     <use style="fill:#0000ff;stroke:#0000ff;stroke-width:1.5;" x="312.497442" xlink:href="#mcb35028023" y="286.94631"/>
     <use style="fill:#0000ff;stroke:#0000ff;stroke-width:1.5;" x="294.083622" xlink:href="#mcb35028023" y="312.728482"/>
     <use style="fill:#0000ff;stroke:#0000ff;stroke-width:1.5;" x="207.413684" xlink:href="#mcb35028023" y="333.91249"/>
     <use style="fill:#0000ff;stroke:#0000ff;stroke-width:1.5;" x="315.061791" xlink:href="#mcb35028023" y="238.530075"/>
     <use style="fill:#0000ff;stroke:#0000ff;stroke-width:1.5;" x="341.809009" xlink:href="#mcb35028023" y="227.522362"/>
     <use style="fill:#0000ff;stroke:#0000ff;stroke-width:1.5;" x="332.156733" xlink:href="#mcb35028023" y="230.92151"/>
     <use style="fill:#0000ff;stroke:#0000ff;stroke-width:1.5;" x="344.455294" xlink:href="#mcb35028023" y="219.196316"/>
     <use style="fill:#0000ff;stroke:#0000ff;stroke-width:1.5;" x="257.422901" xlink:href="#mcb35028023" y="330.319768"/>
     <use style="fill:#0000ff;stroke:#0000ff;stroke-width:1.5;" x="296.469421" xlink:href="#mcb35028023" y="264.357567"/>
     <use style="fill:#0000ff;stroke:#0000ff;stroke-width:1.5;" x="347.715966" xlink:href="#mcb35028023" y="282.797013"/>
     <use style="fill:#0000ff;stroke:#0000ff;stroke-width:1.5;" x="326.814239" xlink:href="#mcb35028023" y="269.648189"/>
     <use style="fill:#0000ff;stroke:#0000ff;stroke-width:1.5;" x="282.600206" xlink:href="#mcb35028023" y="279.912679"/>
     <use style="fill:#0000ff;stroke:#0000ff;stroke-width:1.5;" x="295.586573" xlink:href="#mcb35028023" y="224.511821"/>
     <use style="fill:#0000ff;stroke:#0000ff;stroke-width:1.5;" x="244.778918" xlink:href="#mcb35028023" y="253.766007"/>
     <use style="fill:#0000ff;stroke:#0000ff;stroke-width:1.5;" x="304.198305" xlink:href="#mcb35028023" y="261.363773"/>
     <use style="fill:#0000ff;stroke:#0000ff;stroke-width:1.5;" x="298.005719" xlink:href="#mcb35028023" y="264.953197"/>
     <use style="fill:#0000ff;stroke:#0000ff;stroke-width:1.5;" x="284.329097" xlink:href="#mcb35028023" y="236.197674"/>
     <use style="fill:#0000ff;stroke:#0000ff;stroke-width:1.5;" x="319.376889" xlink:href="#mcb35028023" y="254.537512"/>
     <use style="fill:#0000ff;stroke:#0000ff;stroke-width:1.5;" x="185.619811" xlink:href="#mcb35028023" y="370.240296"/>
     <use style="fill:#0000ff;stroke:#0000ff;stroke-width:1.5;" x="296.893358" xlink:href="#mcb35028023" y="304.830972"/>
     <use style="fill:#0000ff;stroke:#0000ff;stroke-width:1.5;" x="271.73958" xlink:href="#mcb35028023" y="236.998329"/>
     <use style="fill:#0000ff;stroke:#0000ff;stroke-width:1.5;" x="329.312096" xlink:href="#mcb35028023" y="255.222742"/>
     <use style="fill:#0000ff;stroke:#0000ff;stroke-width:1.5;" x="295.378955" xlink:href="#mcb35028023" y="241.635343"/>
     <use style="fill:#0000ff;stroke:#0000ff;stroke-width:1.5;" x="287.551982" xlink:href="#mcb35028023" y="269.504948"/>
     <use style="fill:#0000ff;stroke:#0000ff;stroke-width:1.5;" x="365.735318" xlink:href="#mcb35028023" y="261.949745"/>
     <use style="fill:#0000ff;stroke:#0000ff;stroke-width:1.5;" x="381.075772" xlink:href="#mcb35028023" y="226.348714"/>
     <use style="fill:#0000ff;stroke:#0000ff;stroke-width:1.5;" x="250.04569" xlink:href="#mcb35028023" y="390.871595"/>
     <use style="fill:#0000ff;stroke:#0000ff;stroke-width:1.5;" x="267.812106" xlink:href="#mcb35028023" y="259.036989"/>
     <use style="fill:#0000ff;stroke:#0000ff;stroke-width:1.5;" x="292.306835" xlink:href="#mcb35028023" y="270.140449"/>
     <use style="fill:#0000ff;stroke:#0000ff;stroke-width:1.5;" x="315.239346" xlink:href="#mcb35028023" y="246.755713"/>
     <use style="fill:#0000ff;stroke:#0000ff;stroke-width:1.5;" x="261.574826" xlink:href="#mcb35028023" y="264.290656"/>
     <use style="fill:#0000ff;stroke:#0000ff;stroke-width:1.5;" x="352.851721" xlink:href="#mcb35028023" y="261.668493"/>
     <use style="fill:#0000ff;stroke:#0000ff;stroke-width:1.5;" x="352.864327" xlink:href="#mcb35028023" y="231.331926"/>
     <use style="fill:#0000ff;stroke:#0000ff;stroke-width:1.5;" x="242.343535" xlink:href="#mcb35028023" y="245.107824"/>
     <use style="fill:#0000ff;stroke:#0000ff;stroke-width:1.5;" x="298.278311" xlink:href="#mcb35028023" y="338.89876"/>
     <use style="fill:#0000ff;stroke:#0000ff;stroke-width:1.5;" x="317.988161" xlink:href="#mcb35028023" y="272.33827"/>
     <use style="fill:#0000ff;stroke:#0000ff;stroke-width:1.5;" x="385.110128" xlink:href="#mcb35028023" y="285.191838"/>
     <use style="fill:#0000ff;stroke:#0000ff;stroke-width:1.5;" x="264.592783" xlink:href="#mcb35028023" y="266.422575"/>
     <use style="fill:#0000ff;stroke:#0000ff;stroke-width:1.5;" x="286.548398" xlink:href="#mcb35028023" y="293.761639"/>
     <use style="fill:#0000ff;stroke:#0000ff;stroke-width:1.5;" x="321.889746" xlink:href="#mcb35028023" y="309.11281"/>
     <use style="fill:#0000ff;stroke:#0000ff;stroke-width:1.5;" x="411.829116" xlink:href="#mcb35028023" y="227.99225"/>
     <use style="fill:#0000ff;stroke:#0000ff;stroke-width:1.5;" x="300.47888" xlink:href="#mcb35028023" y="251.408151"/>
     <use style="fill:#0000ff;stroke:#0000ff;stroke-width:1.5;" x="369.731781" xlink:href="#mcb35028023" y="248.040131"/>
     <use style="fill:#0000ff;stroke:#0000ff;stroke-width:1.5;" x="311.950456" xlink:href="#mcb35028023" y="322.025901"/>
     <use style="fill:#0000ff;stroke:#0000ff;stroke-width:1.5;" x="269.975972" xlink:href="#mcb35028023" y="283.394499"/>
     <use style="fill:#0000ff;stroke:#0000ff;stroke-width:1.5;" x="327.14225" xlink:href="#mcb35028023" y="219.250869"/>
     <use style="fill:#0000ff;stroke:#0000ff;stroke-width:1.5;" x="367.975817" xlink:href="#mcb35028023" y="292.264763"/>
     <use style="fill:#0000ff;stroke:#0000ff;stroke-width:1.5;" x="240.815543" xlink:href="#mcb35028023" y="279.124525"/>
     <use style="fill:#0000ff;stroke:#0000ff;stroke-width:1.5;" x="318.390819" xlink:href="#mcb35028023" y="315.213937"/>
     <use style="fill:#0000ff;stroke:#0000ff;stroke-width:1.5;" x="302.364606" xlink:href="#mcb35028023" y="222.311777"/>
     <use style="fill:#0000ff;stroke:#0000ff;stroke-width:1.5;" x="247.670427" xlink:href="#mcb35028023" y="203.467981"/>
     <use style="fill:#0000ff;stroke:#0000ff;stroke-width:1.5;" x="311.457442" xlink:href="#mcb35028023" y="298.938975"/>
     <use style="fill:#0000ff;stroke:#0000ff;stroke-width:1.5;" x="318.254029" xlink:href="#mcb35028023" y="293.608327"/>
     <use style="fill:#0000ff;stroke:#0000ff;stroke-width:1.5;" x="347.630584" xlink:href="#mcb35028023" y="261.966349"/>
     <use style="fill:#0000ff;stroke:#0000ff;stroke-width:1.5;" x="298.389612" xlink:href="#mcb35028023" y="243.760162"/>
     <use style="fill:#0000ff;stroke:#0000ff;stroke-width:1.5;" x="266.522397" xlink:href="#mcb35028023" y="240.624542"/>
     <use style="fill:#0000ff;stroke:#0000ff;stroke-width:1.5;" x="276.045832" xlink:href="#mcb35028023" y="281.789334"/>
     <use style="fill:#0000ff;stroke:#0000ff;stroke-width:1.5;" x="338.760669" xlink:href="#mcb35028023" y="237.111508"/>
     <use style="fill:#0000ff;stroke:#0000ff;stroke-width:1.5;" x="311.659395" xlink:href="#mcb35028023" y="222.516534"/>
     <use style="fill:#0000ff;stroke:#0000ff;stroke-width:1.5;" x="298.724436" xlink:href="#mcb35028023" y="291.876506"/>
     <use style="fill:#0000ff;stroke:#0000ff;stroke-width:1.5;" x="298.604777" xlink:href="#mcb35028023" y="285.597784"/>
     <use style="fill:#0000ff;stroke:#0000ff;stroke-width:1.5;" x="243.313958" xlink:href="#mcb35028023" y="269.819194"/>
     <use style="fill:#0000ff;stroke:#0000ff;stroke-width:1.5;" x="291.870451" xlink:href="#mcb35028023" y="279.84486"/>
     <use style="fill:#0000ff;stroke:#0000ff;stroke-width:1.5;" x="289.902088" xlink:href="#mcb35028023" y="221.442207"/>
     <use style="fill:#0000ff;stroke:#0000ff;stroke-width:1.5;" x="321.914735" xlink:href="#mcb35028023" y="277.935394"/>
     <use style="fill:#0000ff;stroke:#0000ff;stroke-width:1.5;" x="320.907346" xlink:href="#mcb35028023" y="267.199557"/>
     <use style="fill:#0000ff;stroke:#0000ff;stroke-width:1.5;" x="355.526809" xlink:href="#mcb35028023" y="242.542096"/>
     <use style="fill:#0000ff;stroke:#0000ff;stroke-width:1.5;" x="262.158908" xlink:href="#mcb35028023" y="318.094284"/>
     <use style="fill:#0000ff;stroke:#0000ff;stroke-width:1.5;" x="267.196388" xlink:href="#mcb35028023" y="238.398132"/>
     <use style="fill:#0000ff;stroke:#0000ff;stroke-width:1.5;" x="276.550587" xlink:href="#mcb35028023" y="308.63584"/>
     <use style="fill:#0000ff;stroke:#0000ff;stroke-width:1.5;" x="361.9891" xlink:href="#mcb35028023" y="273.260182"/>
     <use style="fill:#0000ff;stroke:#0000ff;stroke-width:1.5;" x="305.341027" xlink:href="#mcb35028023" y="270.932264"/>
     <use style="fill:#0000ff;stroke:#0000ff;stroke-width:1.5;" x="396.841203" xlink:href="#mcb35028023" y="230.366894"/>
     <use style="fill:#0000ff;stroke:#0000ff;stroke-width:1.5;" x="198.916162" xlink:href="#mcb35028023" y="341.580745"/>
     <use style="fill:#0000ff;stroke:#0000ff;stroke-width:1.5;" x="314.374108" xlink:href="#mcb35028023" y="273.119317"/>
     <use style="fill:#0000ff;stroke:#0000ff;stroke-width:1.5;" x="323.11022" xlink:href="#mcb35028023" y="237.8216"/>
     <use style="fill:#0000ff;stroke:#0000ff;stroke-width:1.5;" x="281.981633" xlink:href="#mcb35028023" y="269.532299"/>
     <use style="fill:#0000ff;stroke:#0000ff;stroke-width:1.5;" x="303.994623" xlink:href="#mcb35028023" y="215.337693"/>
     <use style="fill:#0000ff;stroke:#0000ff;stroke-width:1.5;" x="326.547245" xlink:href="#mcb35028023" y="248.233649"/>
     <use style="fill:#0000ff;stroke:#0000ff;stroke-width:1.5;" x="347.708509" xlink:href="#mcb35028023" y="267.534432"/>
     <use style="fill:#0000ff;stroke:#0000ff;stroke-width:1.5;" x="301.229989" xlink:href="#mcb35028023" y="262.934864"/>
     <use style="fill:#0000ff;stroke:#0000ff;stroke-width:1.5;" x="331.5934" xlink:href="#mcb35028023" y="247.67692"/>
     <use style="fill:#0000ff;stroke:#0000ff;stroke-width:1.5;" x="348.487324" xlink:href="#mcb35028023" y="265.564336"/>
     <use style="fill:#0000ff;stroke:#0000ff;stroke-width:1.5;" x="312.180437" xlink:href="#mcb35028023" y="302.035875"/>
     <use style="fill:#0000ff;stroke:#0000ff;stroke-width:1.5;" x="335.77826" xlink:href="#mcb35028023" y="211.798575"/>
     <use style="fill:#0000ff;stroke:#0000ff;stroke-width:1.5;" x="291.679781" xlink:href="#mcb35028023" y="289.36558"/>
     <use style="fill:#0000ff;stroke:#0000ff;stroke-width:1.5;" x="280.26248" xlink:href="#mcb35028023" y="266.484856"/>
     <use style="fill:#0000ff;stroke:#0000ff;stroke-width:1.5;" x="313.202092" xlink:href="#mcb35028023" y="249.108514"/>
     <use style="fill:#0000ff;stroke:#0000ff;stroke-width:1.5;" x="266.272042" xlink:href="#mcb35028023" y="230.185984"/>
     <use style="fill:#0000ff;stroke:#0000ff;stroke-width:1.5;" x="292.964801" xlink:href="#mcb35028023" y="283.619149"/>
     <use style="fill:#0000ff;stroke:#0000ff;stroke-width:1.5;" x="211.438591" xlink:href="#mcb35028023" y="264.307479"/>
     <use style="fill:#0000ff;stroke:#0000ff;stroke-width:1.5;" x="348.112927" xlink:href="#mcb35028023" y="261.219354"/>
     <use style="fill:#0000ff;stroke:#0000ff;stroke-width:1.5;" x="347.864238" xlink:href="#mcb35028023" y="247.864462"/>
     <use style="fill:#0000ff;stroke:#0000ff;stroke-width:1.5;" x="370.518422" xlink:href="#mcb35028023" y="246.71789"/>
     <use style="fill:#0000ff;stroke:#0000ff;stroke-width:1.5;" x="279.27505" xlink:href="#mcb35028023" y="230.970999"/>
     <use style="fill:#0000ff;stroke:#0000ff;stroke-width:1.5;" x="398.801707" xlink:href="#mcb35028023" y="180.356492"/>
     <use style="fill:#0000ff;stroke:#0000ff;stroke-width:1.5;" x="287.595637" xlink:href="#mcb35028023" y="287.32745"/>
     <use style="fill:#0000ff;stroke:#0000ff;stroke-width:1.5;" x="331.183624" xlink:href="#mcb35028023" y="235.672633"/>
     <use style="fill:#0000ff;stroke:#0000ff;stroke-width:1.5;" x="376.578422" xlink:href="#mcb35028023" y="246.313424"/>
     <use style="fill:#0000ff;stroke:#0000ff;stroke-width:1.5;" x="333.322196" xlink:href="#mcb35028023" y="312.399284"/>
     <use style="fill:#0000ff;stroke:#0000ff;stroke-width:1.5;" x="268.402634" xlink:href="#mcb35028023" y="306.606417"/>
     <use style="fill:#0000ff;stroke:#0000ff;stroke-width:1.5;" x="316.841978" xlink:href="#mcb35028023" y="273.283584"/>
     <use style="fill:#0000ff;stroke:#0000ff;stroke-width:1.5;" x="279.18973" xlink:href="#mcb35028023" y="246.335018"/>
     <use style="fill:#0000ff;stroke:#0000ff;stroke-width:1.5;" x="305.550696" xlink:href="#mcb35028023" y="256.718296"/>
     <use style="fill:#0000ff;stroke:#0000ff;stroke-width:1.5;" x="308.860062" xlink:href="#mcb35028023" y="270.044635"/>
     <use style="fill:#0000ff;stroke:#0000ff;stroke-width:1.5;" x="421.062682" xlink:href="#mcb35028023" y="206.901761"/>
     <use style="fill:#0000ff;stroke:#0000ff;stroke-width:1.5;" x="294.165469" xlink:href="#mcb35028023" y="239.862787"/>
     <use style="fill:#0000ff;stroke:#0000ff;stroke-width:1.5;" x="335.413435" xlink:href="#mcb35028023" y="252.976657"/>
     <use style="fill:#0000ff;stroke:#0000ff;stroke-width:1.5;" x="246.108352" xlink:href="#mcb35028023" y="287.416688"/>
     <use style="fill:#0000ff;stroke:#0000ff;stroke-width:1.5;" x="274.758228" xlink:href="#mcb35028023" y="246.680643"/>
     <use style="fill:#0000ff;stroke:#0000ff;stroke-width:1.5;" x="187.932506" xlink:href="#mcb35028023" y="262.253966"/>
     <use style="fill:#0000ff;stroke:#0000ff;stroke-width:1.5;" x="302.410896" xlink:href="#mcb35028023" y="286.532376"/>
     <use style="fill:#0000ff;stroke:#0000ff;stroke-width:1.5;" x="292.885004" xlink:href="#mcb35028023" y="276.018163"/>
     <use style="fill:#0000ff;stroke:#0000ff;stroke-width:1.5;" x="373.003805" xlink:href="#mcb35028023" y="220.904939"/>
     <use style="fill:#0000ff;stroke:#0000ff;stroke-width:1.5;" x="346.974368" xlink:href="#mcb35028023" y="285.750928"/>
     <use style="fill:#0000ff;stroke:#0000ff;stroke-width:1.5;" x="329.765368" xlink:href="#mcb35028023" y="257.913296"/>
     <use style="fill:#0000ff;stroke:#0000ff;stroke-width:1.5;" x="227.593902" xlink:href="#mcb35028023" y="280.766011"/>
     <use style="fill:#0000ff;stroke:#0000ff;stroke-width:1.5;" x="249.259511" xlink:href="#mcb35028023" y="235.71809"/>
     <use style="fill:#0000ff;stroke:#0000ff;stroke-width:1.5;" x="276.600142" xlink:href="#mcb35028023" y="240.557087"/>
     <use style="fill:#0000ff;stroke:#0000ff;stroke-width:1.5;" x="330.415841" xlink:href="#mcb35028023" y="252.429886"/>
     <use style="fill:#0000ff;stroke:#0000ff;stroke-width:1.5;" x="254.853732" xlink:href="#mcb35028023" y="286.683374"/>
     <use style="fill:#0000ff;stroke:#0000ff;stroke-width:1.5;" x="377.13512" xlink:href="#mcb35028023" y="207.365653"/>
     <use style="fill:#0000ff;stroke:#0000ff;stroke-width:1.5;" x="265.822763" xlink:href="#mcb35028023" y="255.759523"/>
     <use style="fill:#0000ff;stroke:#0000ff;stroke-width:1.5;" x="267.080774" xlink:href="#mcb35028023" y="280.144511"/>
     <use style="fill:#0000ff;stroke:#0000ff;stroke-width:1.5;" x="315.694796" xlink:href="#mcb35028023" y="245.428533"/>
     <use style="fill:#0000ff;stroke:#0000ff;stroke-width:1.5;" x="289.895384" xlink:href="#mcb35028023" y="303.63711"/>
     <use style="fill:#0000ff;stroke:#0000ff;stroke-width:1.5;" x="343.600473" xlink:href="#mcb35028023" y="264.001251"/>
     <use style="fill:#0000ff;stroke:#0000ff;stroke-width:1.5;" x="356.595303" xlink:href="#mcb35028023" y="238.574612"/>
     <use style="fill:#0000ff;stroke:#0000ff;stroke-width:1.5;" x="261.710642" xlink:href="#mcb35028023" y="279.622141"/>
     <use style="fill:#0000ff;stroke:#0000ff;stroke-width:1.5;" x="300.414563" xlink:href="#mcb35028023" y="251.894062"/>
     <use style="fill:#0000ff;stroke:#0000ff;stroke-width:1.5;" x="307.780424" xlink:href="#mcb35028023" y="198.988809"/>
     <use style="fill:#0000ff;stroke:#0000ff;stroke-width:1.5;" x="421.002905" xlink:href="#mcb35028023" y="139.644693"/>
     <use style="fill:#0000ff;stroke:#0000ff;stroke-width:1.5;" x="298.748646" xlink:href="#mcb35028023" y="251.045057"/>
     <use style="fill:#0000ff;stroke:#0000ff;stroke-width:1.5;" x="259.451546" xlink:href="#mcb35028023" y="367.117072"/>
     <use style="fill:#0000ff;stroke:#0000ff;stroke-width:1.5;" x="302.364093" xlink:href="#mcb35028023" y="306.950548"/>
     <use style="fill:#0000ff;stroke:#0000ff;stroke-width:1.5;" x="434.546722" xlink:href="#mcb35028023" y="158.937475"/>
     <use style="fill:#0000ff;stroke:#0000ff;stroke-width:1.5;" x="365.866266" xlink:href="#mcb35028023" y="240.313726"/>
     <use style="fill:#0000ff;stroke:#0000ff;stroke-width:1.5;" x="272.292518" xlink:href="#mcb35028023" y="274.380047"/>
     <use style="fill:#0000ff;stroke:#0000ff;stroke-width:1.5;" x="281.34821" xlink:href="#mcb35028023" y="224.098862"/>
     <use style="fill:#0000ff;stroke:#0000ff;stroke-width:1.5;" x="296.239071" xlink:href="#mcb35028023" y="297.038112"/>
     <use style="fill:#0000ff;stroke:#0000ff;stroke-width:1.5;" x="308.443856" xlink:href="#mcb35028023" y="238.008584"/>
     <use style="fill:#0000ff;stroke:#0000ff;stroke-width:1.5;" x="292.633015" xlink:href="#mcb35028023" y="265.625212"/>
     <use style="fill:#0000ff;stroke:#0000ff;stroke-width:1.5;" x="289.770935" xlink:href="#mcb35028023" y="261.571007"/>
     <use style="fill:#0000ff;stroke:#0000ff;stroke-width:1.5;" x="336.269126" xlink:href="#mcb35028023" y="279.720251"/>
     <use style="fill:#0000ff;stroke:#0000ff;stroke-width:1.5;" x="233.046326" xlink:href="#mcb35028023" y="342.760797"/>
     <use style="fill:#0000ff;stroke:#0000ff;stroke-width:1.5;" x="280.920445" xlink:href="#mcb35028023" y="253.103994"/>
     <use style="fill:#0000ff;stroke:#0000ff;stroke-width:1.5;" x="389.063937" xlink:href="#mcb35028023" y="266.832124"/>
     <use style="fill:#0000ff;stroke:#0000ff;stroke-width:1.5;" x="305.825264" xlink:href="#mcb35028023" y="315.63661"/>
     <use style="fill:#0000ff;stroke:#0000ff;stroke-width:1.5;" x="231.94737" xlink:href="#mcb35028023" y="278.441892"/>
     <use style="fill:#0000ff;stroke:#0000ff;stroke-width:1.5;" x="282.820967" xlink:href="#mcb35028023" y="276.598979"/>
     <use style="fill:#0000ff;stroke:#0000ff;stroke-width:1.5;" x="380.648064" xlink:href="#mcb35028023" y="266.382892"/>
     <use style="fill:#0000ff;stroke:#0000ff;stroke-width:1.5;" x="255.566124" xlink:href="#mcb35028023" y="263.831849"/>
     <use style="fill:#0000ff;stroke:#0000ff;stroke-width:1.5;" x="338.824273" xlink:href="#mcb35028023" y="260.567248"/>
     <use style="fill:#0000ff;stroke:#0000ff;stroke-width:1.5;" x="259.341767" xlink:href="#mcb35028023" y="262.499883"/>
     <use style="fill:#0000ff;stroke:#0000ff;stroke-width:1.5;" x="361.76892" xlink:href="#mcb35028023" y="267.352965"/>
     <use style="fill:#0000ff;stroke:#0000ff;stroke-width:1.5;" x="227.770693" xlink:href="#mcb35028023" y="290.310846"/>
     <use style="fill:#0000ff;stroke:#0000ff;stroke-width:1.5;" x="340.841437" xlink:href="#mcb35028023" y="226.751284"/>
     <use style="fill:#0000ff;stroke:#0000ff;stroke-width:1.5;" x="328.455101" xlink:href="#mcb35028023" y="253.700819"/>
     <use style="fill:#0000ff;stroke:#0000ff;stroke-width:1.5;" x="361.722307" xlink:href="#mcb35028023" y="269.435567"/>
     <use style="fill:#0000ff;stroke:#0000ff;stroke-width:1.5;" x="340.201247" xlink:href="#mcb35028023" y="242.437696"/>
     <use style="fill:#0000ff;stroke:#0000ff;stroke-width:1.5;" x="378.014768" xlink:href="#mcb35028023" y="276.249349"/>
     <use style="fill:#0000ff;stroke:#0000ff;stroke-width:1.5;" x="337.343701" xlink:href="#mcb35028023" y="246.247831"/>
     <use style="fill:#0000ff;stroke:#0000ff;stroke-width:1.5;" x="348.604076" xlink:href="#mcb35028023" y="181.106759"/>
     <use style="fill:#0000ff;stroke:#0000ff;stroke-width:1.5;" x="252.099633" xlink:href="#mcb35028023" y="256.692478"/>
     <use style="fill:#0000ff;stroke:#0000ff;stroke-width:1.5;" x="257.592088" xlink:href="#mcb35028023" y="350.898673"/>
     <use style="fill:#0000ff;stroke:#0000ff;stroke-width:1.5;" x="227.43504" xlink:href="#mcb35028023" y="300.156358"/>
     <use style="fill:#0000ff;stroke:#0000ff;stroke-width:1.5;" x="309.45923" xlink:href="#mcb35028023" y="317.783029"/>
     <use style="fill:#0000ff;stroke:#0000ff;stroke-width:1.5;" x="290.612025" xlink:href="#mcb35028023" y="252.267633"/>
     <use style="fill:#0000ff;stroke:#0000ff;stroke-width:1.5;" x="318.038502" xlink:href="#mcb35028023" y="190.929051"/>
     <use style="fill:#0000ff;stroke:#0000ff;stroke-width:1.5;" x="404.499671" xlink:href="#mcb35028023" y="152.758598"/>
     <use style="fill:#0000ff;stroke:#0000ff;stroke-width:1.5;" x="332.161991" xlink:href="#mcb35028023" y="267.2784"/>
     <use style="fill:#0000ff;stroke:#0000ff;stroke-width:1.5;" x="325.014703" xlink:href="#mcb35028023" y="263.286425"/>
     <use style="fill:#0000ff;stroke:#0000ff;stroke-width:1.5;" x="326.483965" xlink:href="#mcb35028023" y="298.918086"/>
     <use style="fill:#0000ff;stroke:#0000ff;stroke-width:1.5;" x="339.897975" xlink:href="#mcb35028023" y="268.241302"/>
     <use style="fill:#0000ff;stroke:#0000ff;stroke-width:1.5;" x="298.415256" xlink:href="#mcb35028023" y="250.303447"/>
     <use style="fill:#0000ff;stroke:#0000ff;stroke-width:1.5;" x="355.152018" xlink:href="#mcb35028023" y="240.811332"/>
     <use style="fill:#0000ff;stroke:#0000ff;stroke-width:1.5;" x="283.531895" xlink:href="#mcb35028023" y="235.953728"/>
     <use style="fill:#0000ff;stroke:#0000ff;stroke-width:1.5;" x="322.873804" xlink:href="#mcb35028023" y="226.485181"/>
     <use style="fill:#0000ff;stroke:#0000ff;stroke-width:1.5;" x="308.46787" xlink:href="#mcb35028023" y="251.892336"/>
     <use style="fill:#0000ff;stroke:#0000ff;stroke-width:1.5;" x="276.361377" xlink:href="#mcb35028023" y="211.179821"/>
     <use style="fill:#0000ff;stroke:#0000ff;stroke-width:1.5;" x="341.460573" xlink:href="#mcb35028023" y="266.51292"/>
     <use style="fill:#0000ff;stroke:#0000ff;stroke-width:1.5;" x="292.526896" xlink:href="#mcb35028023" y="274.708894"/>
     <use style="fill:#0000ff;stroke:#0000ff;stroke-width:1.5;" x="261.266167" xlink:href="#mcb35028023" y="266.886384"/>
     <use style="fill:#0000ff;stroke:#0000ff;stroke-width:1.5;" x="348.009728" xlink:href="#mcb35028023" y="253.133643"/>
     <use style="fill:#0000ff;stroke:#0000ff;stroke-width:1.5;" x="334.523922" xlink:href="#mcb35028023" y="270.386676"/>
     <use style="fill:#0000ff;stroke:#0000ff;stroke-width:1.5;" x="336.585123" xlink:href="#mcb35028023" y="251.033954"/>
     <use style="fill:#0000ff;stroke:#0000ff;stroke-width:1.5;" x="322.043647" xlink:href="#mcb35028023" y="257.709905"/>
     <use style="fill:#0000ff;stroke:#0000ff;stroke-width:1.5;" x="378.360489" xlink:href="#mcb35028023" y="247.734267"/>
     <use style="fill:#0000ff;stroke:#0000ff;stroke-width:1.5;" x="331.803392" xlink:href="#mcb35028023" y="336.775361"/>
     <use style="fill:#0000ff;stroke:#0000ff;stroke-width:1.5;" x="283.513098" xlink:href="#mcb35028023" y="267.651312"/>
     <use style="fill:#0000ff;stroke:#0000ff;stroke-width:1.5;" x="304.035269" xlink:href="#mcb35028023" y="263.165273"/>
     <use style="fill:#0000ff;stroke:#0000ff;stroke-width:1.5;" x="345.045279" xlink:href="#mcb35028023" y="228.693977"/>
     <use style="fill:#0000ff;stroke:#0000ff;stroke-width:1.5;" x="299.072057" xlink:href="#mcb35028023" y="272.860623"/>
     <use style="fill:#0000ff;stroke:#0000ff;stroke-width:1.5;" x="290.160448" xlink:href="#mcb35028023" y="281.472383"/>
     <use style="fill:#0000ff;stroke:#0000ff;stroke-width:1.5;" x="262.061896" xlink:href="#mcb35028023" y="271.789644"/>
     <use style="fill:#0000ff;stroke:#0000ff;stroke-width:1.5;" x="323.379779" xlink:href="#mcb35028023" y="266.31197"/>
     <use style="fill:#0000ff;stroke:#0000ff;stroke-width:1.5;" x="378.351215" xlink:href="#mcb35028023" y="238.165289"/>
     <use style="fill:#0000ff;stroke:#0000ff;stroke-width:1.5;" x="351.546703" xlink:href="#mcb35028023" y="217.558865"/>
     <use style="fill:#0000ff;stroke:#0000ff;stroke-width:1.5;" x="277.715858" xlink:href="#mcb35028023" y="215.614008"/>
     <use style="fill:#0000ff;stroke:#0000ff;stroke-width:1.5;" x="353.135428" xlink:href="#mcb35028023" y="273.464321"/>
     <use style="fill:#0000ff;stroke:#0000ff;stroke-width:1.5;" x="309.504221" xlink:href="#mcb35028023" y="261.737206"/>
     <use style="fill:#0000ff;stroke:#0000ff;stroke-width:1.5;" x="295.477859" xlink:href="#mcb35028023" y="317.891237"/>
     <use style="fill:#0000ff;stroke:#0000ff;stroke-width:1.5;" x="306.030255" xlink:href="#mcb35028023" y="281.076339"/>
     <use style="fill:#0000ff;stroke:#0000ff;stroke-width:1.5;" x="298.503892" xlink:href="#mcb35028023" y="304.971529"/>
     <use style="fill:#0000ff;stroke:#0000ff;stroke-width:1.5;" x="287.612552" xlink:href="#mcb35028023" y="236.033887"/>
     <use style="fill:#0000ff;stroke:#0000ff;stroke-width:1.5;" x="336.224756" xlink:href="#mcb35028023" y="275.617363"/>
     <use style="fill:#0000ff;stroke:#0000ff;stroke-width:1.5;" x="323.477829" xlink:href="#mcb35028023" y="253.415644"/>
     <use style="fill:#0000ff;stroke:#0000ff;stroke-width:1.5;" x="294.404467" xlink:href="#mcb35028023" y="233.267214"/>
     <use style="fill:#0000ff;stroke:#0000ff;stroke-width:1.5;" x="339.739569" xlink:href="#mcb35028023" y="252.865147"/>
     <use style="fill:#0000ff;stroke:#0000ff;stroke-width:1.5;" x="378.525695" xlink:href="#mcb35028023" y="270.857644"/>
     <use style="fill:#0000ff;stroke:#0000ff;stroke-width:1.5;" x="221.814238" xlink:href="#mcb35028023" y="322.244381"/>
     <use style="fill:#0000ff;stroke:#0000ff;stroke-width:1.5;" x="263.276528" xlink:href="#mcb35028023" y="259.132864"/>
     <use style="fill:#0000ff;stroke:#0000ff;stroke-width:1.5;" x="330.891815" xlink:href="#mcb35028023" y="303.015691"/>
     <use style="fill:#0000ff;stroke:#0000ff;stroke-width:1.5;" x="314.776227" xlink:href="#mcb35028023" y="244.310024"/>
     <use style="fill:#0000ff;stroke:#0000ff;stroke-width:1.5;" x="321.550647" xlink:href="#mcb35028023" y="262.147433"/>
     <use style="fill:#0000ff;stroke:#0000ff;stroke-width:1.5;" x="367.610052" xlink:href="#mcb35028023" y="278.267166"/>
     <use style="fill:#0000ff;stroke:#0000ff;stroke-width:1.5;" x="263.973315" xlink:href="#mcb35028023" y="262.19419"/>
     <use style="fill:#0000ff;stroke:#0000ff;stroke-width:1.5;" x="230.410012" xlink:href="#mcb35028023" y="288.635828"/>
     <use style="fill:#0000ff;stroke:#0000ff;stroke-width:1.5;" x="354.481529" xlink:href="#mcb35028023" y="287.147432"/>
     <use style="fill:#0000ff;stroke:#0000ff;stroke-width:1.5;" x="277.194429" xlink:href="#mcb35028023" y="242.974522"/>
     <use style="fill:#0000ff;stroke:#0000ff;stroke-width:1.5;" x="291.95291" xlink:href="#mcb35028023" y="273.581174"/>
     <use style="fill:#0000ff;stroke:#0000ff;stroke-width:1.5;" x="366.635708" xlink:href="#mcb35028023" y="318.39246"/>
    </g>
   </g>
   <g id="PathCollection_2">
    <defs>
     <path d="M 0 3 
C 0.795609 3 1.55874 2.683901 2.12132 2.12132 
C 2.683901 1.55874 3 0.795609 3 0 
C 3 -0.795609 2.683901 -1.55874 2.12132 -2.12132 
C 1.55874 -2.683901 0.795609 -3 0 -3 
C -0.795609 -3 -1.55874 -2.683901 -2.12132 -2.12132 
C -2.683901 -1.55874 -3 -0.795609 -3 0 
C -3 0.795609 -2.683901 1.55874 -2.12132 2.12132 
C -1.55874 2.683901 -0.795609 3 0 3 
z
" id="me7acf8204d" style="stroke:#ff0000;"/>
    </defs>
    <g clip-path="url(#pdad1eefc55)">
     <use style="fill:#ff0000;stroke:#ff0000;" x="308.171125" xlink:href="#me7acf8204d" y="277.79285"/>
    </g>
   </g>
   <g id="patch_3">
    <path clip-path="url(#pdad1eefc55)" d="M 308.171125 395.288425 
C 339.511352 395.288425 369.572184 382.90835 391.733071 360.874768 
C 413.893958 338.841186 426.345563 308.953041 426.345563 277.79285 
C 426.345563 246.632659 413.893958 216.744514 391.733071 194.710932 
C 369.572184 172.67735 339.511352 160.297275 308.171125 160.297275 
C 276.830898 160.297275 246.770066 172.67735 224.609179 194.710932 
C 202.448292 216.744514 189.996688 246.632659 189.996688 277.79285 
C 189.996688 308.953041 202.448292 338.841186 224.609179 360.874768 
C 246.770066 382.90835 276.830898 395.288425 308.171125 395.288425 
z
" style="fill:none;stroke:#ff0000;stroke-linejoin:miter;"/>
   </g>
   <g id="matplotlib.axis_1">
    <g id="xtick_1">
     <g id="line2d_1">
      <path clip-path="url(#pdad1eefc55)" d="M 71.82225 512.784 
L 71.82225 42.8017 
" style="fill:none;stroke:#b0b0b0;stroke-linecap:square;stroke-width:0.8;"/>
     </g>
     <g id="line2d_2">
      <defs>
       <path d="M 0 0 
L 0 3.5 
" id="m374110944f" style="stroke:#000000;stroke-width:0.8;"/>
      </defs>
      <g>
       <use style="stroke:#000000;stroke-width:0.8;" x="71.82225" xlink:href="#m374110944f" y="512.784"/>
      </g>
     </g>
     <g id="text_1">
      <!-- −15 -->
      <defs>
       <path d="M 3 22 
L 3 28.59375 
L 53.40625 28.59375 
L 53.40625 22 
z
" id="FreeSerif-8722"/>
       <path d="M 18.296875 59.296875 
Q 16.5 59.296875 11.09375 57.09375 
L 11.09375 58.5 
L 29.09375 67.59375 
L 29.90625 67.40625 
L 29.90625 7.40625 
Q 29.90625 3.796875 31.703125 2.6875 
Q 33.5 1.59375 39.40625 1.5 
L 39.40625 0 
L 11.796875 0 
L 11.796875 1.5 
Q 17.40625 1.703125 19.34375 3.140625 
Q 21.296875 4.59375 21.296875 9.296875 
L 21.296875 54.59375 
Q 21.296875 59.296875 18.296875 59.296875 
z
" id="FreeSerif-49"/>
       <path d="M 35.703125 19.40625 
Q 35.703125 24.703125 33.34375 28.796875 
Q 31 32.90625 27.640625 35.15625 
Q 24.296875 37.40625 20.140625 38.84375 
Q 16 40.296875 12.953125 40.75 
Q 9.90625 41.203125 7.59375 41.203125 
Q 6.40625 41.203125 6.40625 42 
Q 6.40625 42.296875 6.5 42.5 
L 17.40625 66.203125 
L 38.296875 66.203125 
Q 39.90625 66.203125 40.84375 66.703125 
Q 41.796875 67.203125 42.90625 68.796875 
L 43.796875 68.09375 
L 40 59.203125 
Q 39.59375 58.296875 37.703125 58.296875 
L 18.09375 58.296875 
L 13.90625 49.796875 
Q 28.5 47.203125 35.59375 41.34375 
Q 42.703125 35.5 42.703125 24.203125 
Q 42.703125 18.296875 40.84375 13.6875 
Q 39 9.09375 36.140625 6.296875 
Q 33.296875 3.5 29.546875 1.703125 
Q 25.796875 -0.09375 22.34375 -0.75 
Q 18.90625 -1.40625 15.40625 -1.40625 
Q 9.796875 -1.40625 6.5 0.25 
Q 3.203125 1.90625 3.203125 4.796875 
Q 3.203125 8.5 7.5 8.5 
Q 10.296875 8.5 14.75 5.390625 
Q 19.203125 2.296875 21.796875 2.296875 
Q 27.703125 2.296875 31.703125 7.25 
Q 35.703125 12.203125 35.703125 19.40625 
z
" id="FreeSerif-53"/>
      </defs>
      <g transform="translate(57.745688 532.077437)scale(0.18 -0.18)">
       <use xlink:href="#FreeSerif-8722"/>
       <use x="56.399994" xlink:href="#FreeSerif-49"/>
       <use x="106.399979" xlink:href="#FreeSerif-53"/>
      </g>
     </g>
    </g>
    <g id="xtick_2">
     <g id="line2d_3">
      <path clip-path="url(#pdad1eefc55)" d="M 150.605208 512.784 
L 150.605208 42.8017 
" style="fill:none;stroke:#b0b0b0;stroke-linecap:square;stroke-width:0.8;"/>
     </g>
     <g id="line2d_4">
      <g>
       <use style="stroke:#000000;stroke-width:0.8;" x="150.605208" xlink:href="#m374110944f" y="512.784"/>
      </g>
     </g>
     <g id="text_2">
      <!-- −10 -->
      <defs>
       <path d="M 47.59375 17.796875 
Q 35.203125 -1.40625 25 -1.40625 
Q 14.796875 -1.40625 8.59375 8.390625 
Q 2.40625 18.203125 2.40625 33.59375 
Q 2.40625 48.09375 8.59375 57.84375 
Q 14.796875 67.59375 25.40625 67.59375 
Q 35.203125 67.59375 41.390625 58 
Q 47.59375 48.40625 47.59375 33 
Q 47.59375 17.796875 35.203125 -1.40625 
z
M 25.09375 65 
Q 12 65 12 32.703125 
Q 12 1.203125 25 1.203125 
Q 38 1.203125 38 32.796875 
Q 38 48.5 34.703125 56.75 
Q 31.40625 65 25.09375 65 
z
" id="FreeSerif-48"/>
      </defs>
      <g transform="translate(136.528646 532.077437)scale(0.18 -0.18)">
       <use xlink:href="#FreeSerif-8722"/>
       <use x="56.399994" xlink:href="#FreeSerif-49"/>
       <use x="106.399979" xlink:href="#FreeSerif-48"/>
      </g>
     </g>
    </g>
    <g id="xtick_3">
     <g id="line2d_5">
      <path clip-path="url(#pdad1eefc55)" d="M 229.388167 512.784 
L 229.388167 42.8017 
" style="fill:none;stroke:#b0b0b0;stroke-linecap:square;stroke-width:0.8;"/>
     </g>
     <g id="line2d_6">
      <g>
       <use style="stroke:#000000;stroke-width:0.8;" x="229.388167" xlink:href="#m374110944f" y="512.784"/>
      </g>
     </g>
     <g id="text_3">
      <!-- −5 -->
      <g transform="translate(219.811604 532.077437)scale(0.18 -0.18)">
       <use xlink:href="#FreeSerif-8722"/>
       <use x="56.399994" xlink:href="#FreeSerif-53"/>
      </g>
     </g>
    </g>
    <g id="xtick_4">
     <g id="line2d_7">
      <path clip-path="url(#pdad1eefc55)" d="M 308.171125 512.784 
L 308.171125 42.8017 
" style="fill:none;stroke:#b0b0b0;stroke-linecap:square;stroke-width:0.8;"/>
     </g>
     <g id="line2d_8">
      <g>
       <use style="stroke:#000000;stroke-width:0.8;" x="308.171125" xlink:href="#m374110944f" y="512.784"/>
      </g>
     </g>
     <g id="text_4">
      <!-- 0 -->
      <g transform="translate(303.671125 532.077437)scale(0.18 -0.18)">
       <use xlink:href="#FreeSerif-48"/>
      </g>
     </g>
    </g>
    <g id="xtick_5">
     <g id="line2d_9">
      <path clip-path="url(#pdad1eefc55)" d="M 386.954083 512.784 
L 386.954083 42.8017 
" style="fill:none;stroke:#b0b0b0;stroke-linecap:square;stroke-width:0.8;"/>
     </g>
     <g id="line2d_10">
      <g>
       <use style="stroke:#000000;stroke-width:0.8;" x="386.954083" xlink:href="#m374110944f" y="512.784"/>
      </g>
     </g>
     <g id="text_5">
      <!-- 5 -->
      <g transform="translate(382.454083 532.077437)scale(0.18 -0.18)">
       <use xlink:href="#FreeSerif-53"/>
      </g>
     </g>
    </g>
    <g id="xtick_6">
     <g id="line2d_11">
      <path clip-path="url(#pdad1eefc55)" d="M 465.737042 512.784 
L 465.737042 42.8017 
" style="fill:none;stroke:#b0b0b0;stroke-linecap:square;stroke-width:0.8;"/>
     </g>
     <g id="line2d_12">
      <g>
       <use style="stroke:#000000;stroke-width:0.8;" x="465.737042" xlink:href="#m374110944f" y="512.784"/>
      </g>
     </g>
     <g id="text_6">
      <!-- 10 -->
      <g transform="translate(456.737042 532.077437)scale(0.18 -0.18)">
       <use xlink:href="#FreeSerif-49"/>
       <use x="49.999985" xlink:href="#FreeSerif-48"/>
      </g>
     </g>
    </g>
    <g id="xtick_7">
     <g id="line2d_13">
      <path clip-path="url(#pdad1eefc55)" d="M 544.52 512.784 
L 544.52 42.8017 
" style="fill:none;stroke:#b0b0b0;stroke-linecap:square;stroke-width:0.8;"/>
     </g>
     <g id="line2d_14">
      <g>
       <use style="stroke:#000000;stroke-width:0.8;" x="544.52" xlink:href="#m374110944f" y="512.784"/>
      </g>
     </g>
     <g id="text_7">
      <!-- 15 -->
      <g transform="translate(535.52 532.077437)scale(0.18 -0.18)">
       <use xlink:href="#FreeSerif-49"/>
       <use x="49.999985" xlink:href="#FreeSerif-53"/>
      </g>
     </g>
    </g>
    <g id="text_8">
     <!-- X coordinate error (cm) -->
     <defs>
      <path d="M 69.59375 66.203125 
L 69.59375 64.296875 
Q 64.703125 64 62.046875 62.34375 
Q 59.40625 60.703125 54.703125 54.90625 
L 40.09375 36.703125 
L 59.296875 9.296875 
Q 62.296875 5 64.296875 3.703125 
Q 66.296875 2.40625 70.40625 1.90625 
L 70.40625 0 
L 40.703125 0 
L 40.703125 1.90625 
Q 44.796875 2.296875 46.59375 2.9375 
Q 48.40625 3.59375 48.40625 5 
Q 48.40625 7.203125 43.296875 14.796875 
L 33.796875 28.796875 
L 21.90625 14 
Q 16.703125 7.5 16.703125 5.40625 
Q 16.703125 3.703125 18.296875 2.953125 
Q 19.90625 2.203125 24.296875 1.90625 
L 24.296875 0 
L 1 0 
L 1 1.90625 
Q 4.90625 2.203125 7 3.796875 
Q 9.09375 5.40625 15.5 13.296875 
L 31.203125 32.59375 
L 20.296875 48.59375 
Q 13.296875 58.90625 10.25 61.5 
Q 7.203125 64.09375 2.203125 64.296875 
L 2.203125 66.203125 
L 32.40625 66.203125 
L 32.40625 64.296875 
L 29.59375 64.203125 
Q 24.796875 64.09375 24.796875 61.296875 
Q 24.796875 58.09375 33.296875 46.296875 
L 37.5 40.40625 
L 48.796875 54.203125 
Q 52.796875 59.203125 52.796875 61.09375 
Q 52.796875 62.796875 51.34375 63.4375 
Q 49.90625 64.09375 45.796875 64.296875 
L 45.796875 66.203125 
z
" id="FreeSerif-88"/>
      <path id="FreeSerif-32"/>
      <path d="M 2.5 21.296875 
Q 2.5 32.40625 9.046875 39.203125 
Q 15.59375 46 24.40625 46 
Q 30.703125 46 35.25 42.953125 
Q 39.796875 39.90625 39.796875 35.703125 
Q 39.796875 34 38.390625 32.75 
Q 37 31.5 35 31.5 
Q 31.59375 31.5 30.296875 36.09375 
L 29.703125 38.296875 
Q 28.90625 41.09375 27.703125 42.09375 
Q 26.5 43.09375 23.796875 43.09375 
Q 17.703125 43.09375 13.953125 38.25 
Q 10.203125 33.40625 10.203125 25.703125 
Q 10.203125 17.09375 14.546875 11.640625 
Q 18.90625 6.203125 25.703125 6.203125 
Q 30 6.203125 33.09375 8.25 
Q 36.203125 10.296875 39.796875 15.59375 
L 41.203125 14.703125 
Q 40.203125 12.703125 39.453125 11.390625 
Q 38.703125 10.09375 36.75 7.5 
Q 34.796875 4.90625 32.890625 3.296875 
Q 31 1.703125 27.890625 0.34375 
Q 24.796875 -1 21.5 -1 
Q 13.203125 -1 7.84375 5.25 
Q 2.5 11.5 2.5 21.296875 
z
" id="FreeSerif-99"/>
      <path d="M 24.59375 46 
Q 34.203125 46 40.390625 39.59375 
Q 46.59375 33.203125 46.59375 23.40625 
Q 46.59375 13 40.1875 6 
Q 33.796875 -1 24.390625 -1 
Q 15 -1 8.75 5.75 
Q 2.5 12.5 2.5 22.59375 
Q 2.5 32.90625 8.640625 39.453125 
Q 14.796875 46 24.59375 46 
z
M 11.5 27.5 
Q 11.5 16.796875 15.390625 9.296875 
Q 19.296875 1.796875 25.59375 1.796875 
Q 31.203125 1.796875 34.390625 6.59375 
Q 37.59375 11.40625 37.59375 19.90625 
Q 37.59375 30.203125 33.59375 36.703125 
Q 29.59375 43.203125 23.296875 43.203125 
Q 18 43.203125 14.75 38.890625 
Q 11.5 34.59375 11.5 27.5 
z
" id="FreeSerif-111"/>
      <path d="M 30.09375 36.203125 
Q 28.59375 36.203125 26.390625 37.953125 
Q 24.203125 39.703125 23.5 39.703125 
Q 21.5 39.703125 19 36.796875 
Q 16.5 33.90625 16.5 31.5 
L 16.5 9 
Q 16.5 4.703125 18.203125 3.203125 
Q 19.90625 1.703125 25 1.5 
L 25 0 
L 1 0 
L 1 1.5 
Q 5.796875 2.40625 6.9375 3.5 
Q 8.09375 4.59375 8.09375 8.40625 
L 8.09375 33.40625 
Q 8.09375 36.703125 7.34375 38.046875 
Q 6.59375 39.40625 4.703125 39.40625 
Q 3.09375 39.40625 1.203125 39 
L 1.203125 40.59375 
Q 9.203125 43.203125 16 46 
L 16.5 45.796875 
L 16.5 36.59375 
Q 20.203125 41.90625 22.796875 43.953125 
Q 25.40625 46 28.5 46 
Q 31.09375 46 32.546875 44.59375 
Q 34 43.203125 34 40.703125 
Q 34 38.59375 32.953125 37.390625 
Q 31.90625 36.203125 30.09375 36.203125 
z
" id="FreeSerif-114"/>
      <path d="M 34.203125 -1 
L 33.796875 -0.703125 
L 33.796875 5.703125 
Q 29 -1 21 -1 
Q 12.703125 -1 7.59375 4.953125 
Q 2.5 10.90625 2.5 20.5 
Q 2.5 31.09375 8.59375 38.546875 
Q 14.703125 46 23.296875 46 
Q 28.703125 46 33.796875 41.703125 
L 33.796875 57.296875 
Q 33.796875 60.40625 32.890625 61.40625 
Q 32 62.40625 29.203125 62.40625 
Q 27.796875 62.40625 27 62.296875 
L 27 63.90625 
Q 36.09375 66.296875 41.703125 68.296875 
L 42.203125 68.09375 
L 42.203125 11.40625 
Q 42.203125 7.90625 43.046875 6.796875 
Q 43.90625 5.703125 46.59375 5.703125 
Q 47.09375 5.703125 48.90625 5.796875 
L 48.90625 4.203125 
z
M 24.90625 4.203125 
Q 28.703125 4.203125 31.25 6.34375 
Q 33.796875 8.5 33.796875 10.203125 
L 33.796875 33.203125 
Q 33.796875 37.203125 30.6875 40.203125 
Q 27.59375 43.203125 23.59375 43.203125 
Q 17.90625 43.203125 14.5 38.09375 
Q 11.09375 33 11.09375 24.5 
Q 11.09375 15.296875 14.890625 9.75 
Q 18.703125 4.203125 24.90625 4.203125 
z
" id="FreeSerif-100"/>
      <path d="M 6.203125 39.296875 
Q 4 39.296875 2 39 
L 2 40.5 
Q 9 42.5 17.5 46 
L 17.90625 45.703125 
L 17.90625 10.203125 
Q 17.90625 4.796875 19.15625 3.34375 
Q 20.40625 1.90625 25.296875 1.5 
L 25.296875 0 
L 1.59375 0 
L 1.59375 1.5 
Q 6.796875 1.796875 8.140625 3.296875 
Q 9.5 4.796875 9.5 10.203125 
L 9.5 33.40625 
Q 9.5 36.703125 8.75 38 
Q 8 39.296875 6.203125 39.296875 
z
M 12.796875 68.296875 
Q 15 68.296875 16.5 66.796875 
Q 18 65.296875 18 63.203125 
Q 18 61 16.5 59.546875 
Q 15 58.09375 12.796875 58.09375 
Q 10.703125 58.09375 9.25 59.59375 
Q 7.796875 61.09375 7.796875 63.1875 
Q 7.796875 65.296875 9.296875 66.796875 
Q 10.796875 68.296875 12.796875 68.296875 
z
" id="FreeSerif-105"/>
      <path d="M 1 39.796875 
L 1 41.5 
Q 8.40625 43.703125 14.796875 46 
L 15.5 45.796875 
L 15.5 37.90625 
Q 20.59375 42.703125 23.546875 44.34375 
Q 26.5 46 30 46 
Q 35.5 46 38.640625 42.046875 
Q 41.796875 38.09375 41.796875 31 
L 41.796875 8.09375 
Q 41.796875 4.40625 43 3.15625 
Q 44.203125 1.90625 47.90625 1.5 
L 47.90625 0 
L 27.09375 0 
L 27.09375 1.5 
Q 30.90625 1.796875 32.15625 3.5 
Q 33.40625 5.203125 33.40625 9.90625 
L 33.40625 30.796875 
Q 33.40625 40.5 26.09375 40.5 
Q 23.59375 40.5 21.5 39.34375 
Q 19.40625 38.203125 15.796875 34.796875 
L 15.796875 6.703125 
Q 15.796875 4 17.1875 2.890625 
Q 18.59375 1.796875 22.40625 1.5 
L 22.40625 0 
L 1.203125 0 
L 1.203125 1.5 
Q 5 1.796875 6.203125 3.25 
Q 7.40625 4.703125 7.40625 9 
L 7.40625 33.796875 
Q 7.40625 37.5 6.59375 38.84375 
Q 5.796875 40.203125 3.703125 40.203125 
Q 1.796875 40.203125 1 39.796875 
z
" id="FreeSerif-110"/>
      <path d="M 2.5 9.703125 
Q 2.5 11.5 2.890625 13.046875 
Q 3.296875 14.59375 4.296875 15.9375 
Q 5.296875 17.296875 6.1875 18.390625 
Q 7.09375 19.5 8.890625 20.640625 
Q 10.703125 21.796875 11.890625 22.546875 
Q 13.09375 23.296875 15.546875 24.34375 
Q 18 25.40625 19.296875 25.953125 
Q 20.59375 26.5 23.390625 27.59375 
Q 26.203125 28.703125 27.5 29.203125 
L 27.5 35.296875 
Q 27.5 43.59375 19.90625 43.59375 
Q 16.90625 43.59375 14.796875 42.140625 
Q 12.703125 40.703125 12.703125 38.703125 
Q 12.703125 37.90625 12.953125 36.5 
Q 13.203125 35.09375 13.203125 34.703125 
Q 13.203125 33 11.84375 31.75 
Q 10.5 30.5 8.703125 30.5 
Q 7 30.5 5.703125 31.796875 
Q 4.40625 33.09375 4.40625 34.796875 
Q 4.40625 39.5 9.25 42.75 
Q 14.09375 46 21.203125 46 
Q 29.40625 46 32.5 42.046875 
Q 35.59375 38.09375 35.59375 30 
L 35.59375 10.5 
Q 35.59375 7.203125 36.25 5.953125 
Q 36.90625 4.703125 38.59375 4.703125 
Q 40.703125 4.703125 43 6.59375 
L 43 4 
Q 40.40625 1.09375 38.453125 0.046875 
Q 36.5 -1 34 -1 
Q 30.90625 -1 29.453125 0.703125 
Q 28 2.40625 27.59375 6.296875 
Q 19 -1 13 -1 
Q 8.40625 -1 5.453125 2 
Q 2.5 5 2.5 9.703125 
z
M 27.5 12.296875 
L 27.5 26.796875 
Q 18.5 23.5 14.890625 20.390625 
Q 11.296875 17.296875 11.296875 12.90625 
Q 11.296875 8.796875 13.296875 6.796875 
Q 15.296875 4.796875 17.59375 4.796875 
Q 21 4.796875 24.90625 7.09375 
Q 26.5 8 27 9 
Q 27.5 10 27.5 12.296875 
z
" id="FreeSerif-97"/>
      <path d="M 25.90625 45 
L 25.90625 41.796875 
L 15.796875 41.796875 
L 15.796875 13.203125 
Q 15.796875 8.5 17 6.34375 
Q 18.203125 4.203125 21 4.203125 
Q 24.09375 4.203125 27 7.703125 
L 28.296875 6.59375 
Q 23.5 -1 16.296875 -1 
Q 7.40625 -1 7.40625 11.703125 
L 7.40625 41.796875 
L 2.09375 41.796875 
Q 1.703125 42.09375 1.703125 42.5 
Q 1.703125 43 2 43.296875 
Q 2.296875 43.59375 3.140625 44.140625 
Q 4 44.703125 5.203125 45.640625 
Q 6.40625 46.59375 8.5 49.09375 
Q 10.59375 51.59375 13.09375 55.09375 
Q 14.703125 57.40625 15.09375 57.90625 
Q 15.796875 57.90625 15.796875 56.59375 
L 15.796875 45 
z
" id="FreeSerif-116"/>
      <path d="M 9.703125 27.703125 
Q 9.90625 21.40625 11.40625 16.84375 
Q 12.90625 12.296875 15.296875 10.046875 
Q 17.703125 7.796875 20.140625 6.84375 
Q 22.59375 5.90625 25.296875 5.90625 
Q 30.09375 5.90625 33.640625 8.296875 
Q 37.203125 10.703125 40.796875 16.40625 
L 42.40625 15.703125 
Q 39.296875 7.59375 33.796875 3.296875 
Q 28.296875 -1 21.203125 -1 
Q 12.59375 -1 7.546875 5.046875 
Q 2.5 11.09375 2.5 21.40625 
Q 2.5 32.5 8.34375 39.25 
Q 14.203125 46 23.40625 46 
Q 31 46 35.203125 41.453125 
Q 39.40625 36.90625 40.5 27.703125 
z
M 9.90625 30.90625 
L 30.296875 30.90625 
Q 29.296875 37.40625 27.1875 39.90625 
Q 25.09375 42.40625 20.5 42.40625 
Q 11.5 42.40625 9.90625 30.90625 
z
" id="FreeSerif-101"/>
      <path d="M 29.203125 -17.703125 
Q 26.59375 -16.09375 23.796875 -13.84375 
Q 21 -11.59375 17.453125 -7.59375 
Q 13.90625 -3.59375 11.203125 0.953125 
Q 8.5 5.5 6.640625 11.890625 
Q 4.796875 18.296875 4.796875 25.203125 
Q 4.796875 32.40625 6.640625 38.84375 
Q 8.5 45.296875 11 49.546875 
Q 13.5 53.796875 17.34375 57.75 
Q 21.203125 61.703125 23.703125 63.59375 
Q 26.203125 65.5 29.5 67.59375 
L 30.40625 66 
Q 26 62.40625 23.296875 59.5 
Q 20.59375 56.59375 18.09375 51.9375 
Q 15.59375 47.296875 14.5 40.84375 
Q 13.40625 34.40625 13.40625 25.5 
Q 13.40625 16.203125 14.5 9.5 
Q 15.59375 2.796875 18.09375 -1.953125 
Q 20.59375 -6.703125 23.296875 -9.703125 
Q 26 -12.703125 30.40625 -16.09375 
z
" id="FreeSerif-40"/>
      <path d="M 1.296875 39.796875 
L 1.296875 41.5 
Q 8.5 43.5 15.296875 46 
L 16 45.796875 
L 16 38.296875 
Q 22.203125 43 25.203125 44.5 
Q 28.203125 46 31.5 46 
Q 39.40625 46 42.09375 37.59375 
Q 49.90625 46 58.40625 46 
Q 70 46 70 28.203125 
L 70 7.59375 
Q 70 2 74.296875 1.703125 
L 76.90625 1.5 
L 76.90625 0 
L 55 0 
L 55 1.5 
Q 59.40625 2 60.5 3.203125 
Q 61.59375 4.40625 61.59375 8.703125 
L 61.59375 29.796875 
Q 61.59375 36 60 38.390625 
Q 58.40625 40.796875 54.09375 40.796875 
Q 47.5 40.796875 43.203125 34.703125 
L 43.203125 9.5 
Q 43.203125 4.796875 44.640625 3.1875 
Q 46.09375 1.59375 50.40625 1.5 
L 50.40625 0 
L 28 0 
L 28 1.5 
Q 32.296875 1.796875 33.546875 3.09375 
Q 34.796875 4.40625 34.796875 8.59375 
L 34.796875 30.296875 
Q 34.796875 40.796875 28.203125 40.796875 
Q 25.40625 40.796875 21.953125 39.390625 
Q 18.5 38 16.40625 34.90625 
L 16.40625 6.703125 
Q 16.40625 3.796875 17.796875 2.75 
Q 19.203125 1.703125 23.203125 1.5 
L 23.203125 0 
L 1 0 
L 1 1.5 
Q 5.203125 1.59375 6.59375 3 
Q 8 4.40625 8 8.5 
L 8 33.796875 
Q 8 37.40625 7.25 38.796875 
Q 6.5 40.203125 4.5 40.203125 
Q 3 40.203125 1.296875 39.796875 
z
" id="FreeSerif-109"/>
      <path d="M 4.046875 67.703125 
Q 6.65625 66.09375 9.453125 63.84375 
Q 12.25 61.59375 15.796875 57.59375 
Q 19.34375 53.59375 22.046875 49.046875 
Q 24.75 44.5 26.59375 38.09375 
Q 28.453125 31.703125 28.453125 24.796875 
Q 28.453125 17.59375 26.59375 11.140625 
Q 24.75 4.703125 22.25 0.453125 
Q 19.75 -3.796875 15.890625 -7.75 
Q 12.046875 -11.703125 9.546875 -13.59375 
Q 7.046875 -15.5 3.75 -17.59375 
L 2.84375 -16 
Q 7.25 -12.40625 9.953125 -9.5 
Q 12.65625 -6.59375 15.15625 -1.9375 
Q 17.65625 2.703125 18.75 9.140625 
Q 19.84375 15.59375 19.84375 24.5 
Q 19.84375 33.796875 18.75 40.5 
Q 17.65625 47.203125 15.15625 51.953125 
Q 12.65625 56.703125 9.953125 59.703125 
Q 7.25 62.703125 2.84375 66.09375 
z
" id="FreeSerif-41"/>
     </defs>
     <g transform="translate(193.92175 556.37525)scale(0.24 -0.24)">
      <use xlink:href="#FreeSerif-88"/>
      <use x="71.399994" xlink:href="#FreeSerif-32"/>
      <use x="96.399979" xlink:href="#FreeSerif-99"/>
      <use x="140.784348" xlink:href="#FreeSerif-111"/>
      <use x="189.884338" xlink:href="#FreeSerif-111"/>
      <use x="238.968704" xlink:href="#FreeSerif-114"/>
      <use x="273.453064" xlink:href="#FreeSerif-100"/>
      <use x="323.353058" xlink:href="#FreeSerif-105"/>
      <use x="351.137421" xlink:href="#FreeSerif-110"/>
      <use x="400.037415" xlink:href="#FreeSerif-97"/>
      <use x="443.521774" xlink:href="#FreeSerif-116"/>
      <use x="471.821762" xlink:href="#FreeSerif-101"/>
      <use x="516.221756" xlink:href="#FreeSerif-32"/>
      <use x="541.221741" xlink:href="#FreeSerif-101"/>
      <use x="585.60611" xlink:href="#FreeSerif-114"/>
      <use x="620.106094" xlink:href="#FreeSerif-114"/>
      <use x="654.590454" xlink:href="#FreeSerif-111"/>
      <use x="703.67482" xlink:href="#FreeSerif-114"/>
      <use x="738.174805" xlink:href="#FreeSerif-32"/>
      <use x="763.174789" xlink:href="#FreeSerif-40"/>
      <use x="796.474777" xlink:href="#FreeSerif-99"/>
      <use x="840.859146" xlink:href="#FreeSerif-109"/>
      <use x="918.75914" xlink:href="#FreeSerif-41"/>
     </g>
    </g>
   </g>
   <g id="matplotlib.axis_2">
    <g id="ytick_1">
     <g id="line2d_15">
      <path clip-path="url(#pdad1eefc55)" d="M 71.82225 512.784 
L 544.52 512.784 
" style="fill:none;stroke:#b0b0b0;stroke-linecap:square;stroke-width:0.8;"/>
     </g>
     <g id="line2d_16">
      <defs>
       <path d="M 0 0 
L -3.5 0 
" id="m1f72d47ed3" style="stroke:#000000;stroke-width:0.8;"/>
      </defs>
      <g>
       <use style="stroke:#000000;stroke-width:0.8;" x="71.82225" xlink:href="#m1f72d47ed3" y="512.784"/>
      </g>
     </g>
     <g id="text_9">
      <!-- −15 -->
      <g transform="translate(36.669125 518.930719)scale(0.18 -0.18)">
       <use xlink:href="#FreeSerif-8722"/>
       <use x="56.399994" xlink:href="#FreeSerif-49"/>
       <use x="106.399979" xlink:href="#FreeSerif-53"/>
      </g>
     </g>
    </g>
    <g id="ytick_2">
     <g id="line2d_17">
      <path clip-path="url(#pdad1eefc55)" d="M 71.82225 434.453617 
L 544.52 434.453617 
" style="fill:none;stroke:#b0b0b0;stroke-linecap:square;stroke-width:0.8;"/>
     </g>
     <g id="line2d_18">
      <g>
       <use style="stroke:#000000;stroke-width:0.8;" x="71.82225" xlink:href="#m1f72d47ed3" y="434.453617"/>
      </g>
     </g>
     <g id="text_10">
      <!-- −10 -->
      <g transform="translate(36.669125 440.600335)scale(0.18 -0.18)">
       <use xlink:href="#FreeSerif-8722"/>
       <use x="56.399994" xlink:href="#FreeSerif-49"/>
       <use x="106.399979" xlink:href="#FreeSerif-48"/>
      </g>
     </g>
    </g>
    <g id="ytick_3">
     <g id="line2d_19">
      <path clip-path="url(#pdad1eefc55)" d="M 71.82225 356.123233 
L 544.52 356.123233 
" style="fill:none;stroke:#b0b0b0;stroke-linecap:square;stroke-width:0.8;"/>
     </g>
     <g id="line2d_20">
      <g>
       <use style="stroke:#000000;stroke-width:0.8;" x="71.82225" xlink:href="#m1f72d47ed3" y="356.123233"/>
      </g>
     </g>
     <g id="text_11">
      <!-- −5 -->
      <g transform="translate(45.669125 362.269952)scale(0.18 -0.18)">
       <use xlink:href="#FreeSerif-8722"/>
       <use x="56.399994" xlink:href="#FreeSerif-53"/>
      </g>
     </g>
    </g>
    <g id="ytick_4">
     <g id="line2d_21">
      <path clip-path="url(#pdad1eefc55)" d="M 71.82225 277.79285 
L 544.52 277.79285 
" style="fill:none;stroke:#b0b0b0;stroke-linecap:square;stroke-width:0.8;"/>
     </g>
     <g id="line2d_22">
      <g>
       <use style="stroke:#000000;stroke-width:0.8;" x="71.82225" xlink:href="#m1f72d47ed3" y="277.79285"/>
      </g>
     </g>
     <g id="text_12">
      <!-- 0 -->
      <g transform="translate(55.82225 283.939569)scale(0.18 -0.18)">
       <use xlink:href="#FreeSerif-48"/>
      </g>
     </g>
    </g>
    <g id="ytick_5">
     <g id="line2d_23">
      <path clip-path="url(#pdad1eefc55)" d="M 71.82225 199.462467 
L 544.52 199.462467 
" style="fill:none;stroke:#b0b0b0;stroke-linecap:square;stroke-width:0.8;"/>
     </g>
     <g id="line2d_24">
      <g>
       <use style="stroke:#000000;stroke-width:0.8;" x="71.82225" xlink:href="#m1f72d47ed3" y="199.462467"/>
      </g>
     </g>
     <g id="text_13">
      <!-- 5 -->
      <g transform="translate(55.82225 205.609185)scale(0.18 -0.18)">
       <use xlink:href="#FreeSerif-53"/>
      </g>
     </g>
    </g>
    <g id="ytick_6">
     <g id="line2d_25">
      <path clip-path="url(#pdad1eefc55)" d="M 71.82225 121.132083 
L 544.52 121.132083 
" style="fill:none;stroke:#b0b0b0;stroke-linecap:square;stroke-width:0.8;"/>
     </g>
     <g id="line2d_26">
      <g>
       <use style="stroke:#000000;stroke-width:0.8;" x="71.82225" xlink:href="#m1f72d47ed3" y="121.132083"/>
      </g>
     </g>
     <g id="text_14">
      <!-- 10 -->
      <g transform="translate(46.82225 127.278802)scale(0.18 -0.18)">
       <use xlink:href="#FreeSerif-49"/>
       <use x="49.999985" xlink:href="#FreeSerif-48"/>
      </g>
     </g>
    </g>
    <g id="ytick_7">
     <g id="line2d_27">
      <path clip-path="url(#pdad1eefc55)" d="M 71.82225 42.8017 
L 544.52 42.8017 
" style="fill:none;stroke:#b0b0b0;stroke-linecap:square;stroke-width:0.8;"/>
     </g>
     <g id="line2d_28">
      <g>
       <use style="stroke:#000000;stroke-width:0.8;" x="71.82225" xlink:href="#m1f72d47ed3" y="42.8017"/>
      </g>
     </g>
     <g id="text_15">
      <!-- 15 -->
      <g transform="translate(46.82225 48.948419)scale(0.18 -0.18)">
       <use xlink:href="#FreeSerif-49"/>
       <use x="49.999985" xlink:href="#FreeSerif-53"/>
      </g>
     </g>
    </g>
    <g id="text_16">
     <!-- Z coordinate error (cm) -->
     <defs>
      <path d="M 40.296875 3.796875 
Q 43.09375 3.796875 45.390625 4.296875 
Q 47.703125 4.796875 49.25 5.296875 
Q 50.796875 5.796875 52.140625 7.1875 
Q 53.5 8.59375 54.140625 9.296875 
Q 54.796875 10 55.59375 12.046875 
Q 56.40625 14.09375 56.59375 14.6875 
Q 56.796875 15.296875 57.5 17.59375 
L 59.796875 17.59375 
L 57.40625 0 
L 1 0 
L 1 1.5 
L 44.703125 62.40625 
L 22.59375 62.40625 
Q 17.5 62.40625 14.203125 61.40625 
Q 10.90625 60.40625 9.25 58.203125 
Q 7.59375 56 7 54.203125 
Q 6.40625 52.40625 5.796875 49.09375 
L 3.203125 49.09375 
L 5.203125 66.203125 
L 57.796875 66.203125 
L 57.796875 64.703125 
L 14.59375 3.796875 
z
" id="FreeSerif-90"/>
     </defs>
     <g transform="translate(27.460375 390.8291)rotate(-90)scale(0.24 -0.24)">
      <use xlink:href="#FreeSerif-90"/>
      <use x="61.299988" xlink:href="#FreeSerif-32"/>
      <use x="86.299973" xlink:href="#FreeSerif-99"/>
      <use x="130.684341" xlink:href="#FreeSerif-111"/>
      <use x="179.784332" xlink:href="#FreeSerif-111"/>
      <use x="228.868698" xlink:href="#FreeSerif-114"/>
      <use x="263.353058" xlink:href="#FreeSerif-100"/>
      <use x="313.253052" xlink:href="#FreeSerif-105"/>
      <use x="341.037415" xlink:href="#FreeSerif-110"/>
      <use x="389.937408" xlink:href="#FreeSerif-97"/>
      <use x="433.421768" xlink:href="#FreeSerif-116"/>
      <use x="461.721756" xlink:href="#FreeSerif-101"/>
      <use x="506.12175" xlink:href="#FreeSerif-32"/>
      <use x="531.121735" xlink:href="#FreeSerif-101"/>
      <use x="575.506104" xlink:href="#FreeSerif-114"/>
      <use x="610.006088" xlink:href="#FreeSerif-114"/>
      <use x="644.490448" xlink:href="#FreeSerif-111"/>
      <use x="693.574814" xlink:href="#FreeSerif-114"/>
      <use x="728.074799" xlink:href="#FreeSerif-32"/>
      <use x="753.074783" xlink:href="#FreeSerif-40"/>
      <use x="786.374771" xlink:href="#FreeSerif-99"/>
      <use x="830.75914" xlink:href="#FreeSerif-109"/>
      <use x="908.659134" xlink:href="#FreeSerif-41"/>
     </g>
    </g>
   </g>
   <g id="patch_4">
    <path d="M 71.82225 512.784 
L 71.82225 42.8017 
" style="fill:none;stroke:#000000;stroke-linecap:square;stroke-linejoin:miter;stroke-width:0.8;"/>
   </g>
   <g id="patch_5">
    <path d="M 544.52 512.784 
L 544.52 42.8017 
" style="fill:none;stroke:#000000;stroke-linecap:square;stroke-linejoin:miter;stroke-width:0.8;"/>
   </g>
   <g id="patch_6">
    <path d="M 71.82225 512.784 
L 544.52 512.784 
" style="fill:none;stroke:#000000;stroke-linecap:square;stroke-linejoin:miter;stroke-width:0.8;"/>
   </g>
   <g id="patch_7">
    <path d="M 71.82225 42.8017 
L 544.52 42.8017 
" style="fill:none;stroke:#000000;stroke-linecap:square;stroke-linejoin:miter;stroke-width:0.8;"/>
   </g>
   <g id="text_17">
    <!-- Probability = 95.2% -->
    <defs>
     <path d="M 54.09375 48.09375 
Q 54.09375 45.5 53.5 43.09375 
Q 52.90625 40.703125 51.15625 38 
Q 49.40625 35.296875 46.5 33.34375 
Q 43.59375 31.40625 38.59375 30.09375 
Q 33.59375 28.796875 27 28.796875 
Q 24 28.796875 20.09375 29.09375 
L 20.09375 10.90625 
Q 20.09375 5.40625 21.84375 3.75 
Q 23.59375 2.09375 29.5 1.90625 
L 29.5 0 
L 1.5 0 
L 1.5 1.90625 
Q 7.203125 2.40625 8.546875 4.046875 
Q 9.90625 5.703125 9.90625 12 
L 9.90625 55.296875 
Q 9.90625 60.703125 8.5 62.203125 
Q 7.09375 63.703125 1.5 64.296875 
L 1.5 66.203125 
L 27.90625 66.203125 
Q 32.40625 66.203125 36.59375 65.34375 
Q 40.796875 64.5 44.9375 62.59375 
Q 49.09375 60.703125 51.59375 57 
Q 54.09375 53.296875 54.09375 48.09375 
z
M 20.09375 59.09375 
L 20.09375 33.09375 
Q 23.59375 32.796875 25.796875 32.796875 
Q 43.203125 32.796875 43.203125 47.5 
Q 43.203125 55.203125 38.390625 58.84375 
Q 33.59375 62.5 23.5 62.5 
Q 21.5 62.5 20.796875 61.796875 
Q 20.09375 61.09375 20.09375 59.09375 
z
" id="FreeSerif-80"/>
     <path d="M 16 68.09375 
L 16 37.5 
Q 17.5 41.203125 21.390625 43.59375 
Q 25.296875 46 29.90625 46 
Q 37.40625 46 42.453125 39.75 
Q 47.5 33.5 47.5 24.296875 
Q 47.5 13.59375 40.75 6.296875 
Q 34 -1 24.09375 -1 
Q 18.09375 -1 12.84375 1.046875 
Q 7.59375 3.09375 7.59375 5.40625 
L 7.59375 57.296875 
Q 7.59375 60.40625 6.640625 61.40625 
Q 5.703125 62.40625 2.703125 62.40625 
Q 1.59375 62.40625 1 62.296875 
L 1 63.90625 
Q 8.703125 65.796875 15.5 68.296875 
z
M 16 32.203125 
L 16 7 
Q 16 5.09375 18.890625 3.640625 
Q 21.796875 2.203125 25.703125 2.203125 
Q 31.90625 2.203125 35.296875 6.796875 
Q 38.703125 11.40625 38.703125 19.703125 
Q 38.703125 28.796875 35.25 34.25 
Q 31.796875 39.703125 25.90625 39.703125 
Q 22 39.703125 19 37.390625 
Q 16 35.09375 16 32.203125 
z
" id="FreeSerif-98"/>
     <path d="M 1 62.296875 
L 1 63.90625 
Q 10.90625 66.296875 16.90625 68.296875 
L 17.296875 68.09375 
L 17.296875 8.40625 
Q 17.296875 4.296875 18.640625 3.046875 
Q 20 1.796875 24.796875 1.5 
L 24.796875 0 
L 1.203125 0 
L 1.203125 1.5 
Q 5.90625 1.90625 7.40625 3.296875 
Q 8.90625 4.703125 8.90625 8.703125 
L 8.90625 56.40625 
Q 8.90625 59.90625 8 61.203125 
Q 7.09375 62.5 4.703125 62.5 
Q 2.703125 62.5 1 62.296875 
z
" id="FreeSerif-108"/>
     <path d="M 14.203125 -13.40625 
Q 17 -13.40625 20.09375 -7.203125 
Q 23.203125 -1 23.203125 1.90625 
Q 23.203125 3.203125 18.796875 12 
L 5.59375 40.40625 
Q 4.40625 43 0.5 43.59375 
L 0.5 45 
L 21.09375 45 
L 21.09375 43.5 
Q 17.90625 43.40625 16.59375 42.796875 
Q 15.296875 42.203125 15.296875 40.796875 
Q 15.296875 39.296875 16.296875 37 
L 27.796875 11.703125 
L 37.5 39.296875 
Q 37.90625 40.203125 37.90625 41 
Q 37.90625 43.5 33.09375 43.5 
L 33.09375 45 
L 46.59375 45 
L 46.59375 43.5 
Q 44.796875 43.296875 43.75 42.34375 
Q 42.703125 41.40625 41.796875 39 
L 26.40625 -1.796875 
Q 22.40625 -12.59375 18.453125 -17.1875 
Q 14.5 -21.796875 9.5 -21.796875 
Q 6.296875 -21.796875 4.1875 -20.140625 
Q 2.09375 -18.5 2.09375 -16 
Q 2.09375 -14.203125 3.390625 -12.890625 
Q 4.703125 -11.59375 6.40625 -11.59375 
Q 8.59375 -11.59375 11.09375 -12.5 
Q 13.59375 -13.40625 14.203125 -13.40625 
z
" id="FreeSerif-121"/>
     <path d="M 53.40625 38.59375 
L 53.40625 32 
L 3 32 
L 3 38.59375 
z
M 53.40625 18.59375 
L 53.40625 12 
L 3 12 
L 3 18.59375 
z
" id="FreeSerif-61"/>
     <path d="M 5.90625 -2.203125 
L 5.59375 -0.203125 
Q 17 1.796875 24.953125 9.5 
Q 32.90625 17.203125 36 29.40625 
Q 28.59375 23.703125 21 23.703125 
Q 12.90625 23.703125 7.953125 29.296875 
Q 3 34.90625 3 44 
Q 3 54.09375 8.953125 60.84375 
Q 14.90625 67.59375 23.796875 67.59375 
Q 33.5 67.59375 39.703125 59.6875 
Q 45.90625 51.796875 45.90625 39.40625 
Q 45.90625 35.40625 45.203125 31.203125 
Q 44.5 27 41.953125 21.25 
Q 39.40625 15.5 35.296875 10.953125 
Q 31.203125 6.40625 23.59375 2.703125 
Q 16 -1 5.90625 -2.203125 
z
M 24.59375 28 
Q 26.5 28 28.890625 28.546875 
Q 31.296875 29.09375 33.75 30.9375 
Q 36.203125 32.796875 36.203125 35.5 
L 36.203125 39.40625 
Q 36.203125 64.796875 23 64.796875 
Q 19.90625 64.796875 17.703125 63.140625 
Q 15.5 61.5 14.34375 58.796875 
Q 13.203125 56.09375 12.703125 53.296875 
Q 12.203125 50.5 12.203125 47.40625 
Q 12.203125 38.5 15.546875 33.25 
Q 18.90625 28 24.59375 28 
z
" id="FreeSerif-57"/>
     <path d="M 12.5 10 
Q 14.796875 10 16.4375 8.296875 
Q 18.09375 6.59375 18.09375 4.296875 
Q 18.09375 2.09375 16.390625 0.5 
Q 14.703125 -1.09375 12.40625 -1.09375 
Q 10.203125 -1.09375 8.59375 0.5 
Q 7 2.09375 7 4.296875 
Q 7 6.59375 8.640625 8.296875 
Q 10.296875 10 12.5 10 
z
" id="FreeSerif-46"/>
     <path d="M 3.09375 47.703125 
Q 3.59375 50 4.09375 51.703125 
Q 4.59375 53.40625 6.25 56.65625 
Q 7.90625 59.90625 9.953125 62.046875 
Q 12 64.203125 15.640625 65.890625 
Q 19.296875 67.59375 23.90625 67.59375 
Q 31.703125 67.59375 37.046875 62.5 
Q 42.40625 57.40625 42.40625 49.90625 
Q 42.40625 38.59375 29.59375 25.203125 
L 12.796875 7.59375 
L 36.703125 7.59375 
Q 40.09375 7.59375 41.75 8.75 
Q 43.40625 9.90625 46.203125 14.203125 
L 47.5 13.703125 
L 42 0 
L 3 0 
L 3 1.203125 
L 20.796875 20.09375 
Q 33.796875 33.90625 33.796875 46.09375 
Q 33.796875 52.40625 29.890625 56.296875 
Q 26 60.203125 19.703125 60.203125 
Q 14.5 60.203125 11.34375 57.34375 
Q 8.203125 54.5 5.203125 47.203125 
z
" id="FreeSerif-50"/>
     <path d="M 66.90625 37.09375 
Q 71.796875 37.09375 74.5 34.296875 
Q 77.203125 31.5 77.203125 26.40625 
Q 77.203125 20.59375 74.890625 14.890625 
Q 72.59375 9.203125 68.59375 5.09375 
Q 63.5 0 56.90625 0 
Q 51.5 0 48.203125 3.546875 
Q 44.90625 7.09375 44.90625 12.90625 
Q 44.90625 22.296875 51.65625 29.6875 
Q 58.40625 37.09375 66.90625 37.09375 
z
M 58.59375 3 
Q 62.90625 3 66.703125 6.796875 
Q 70.5 10.59375 72.546875 15.84375 
Q 74.59375 21.09375 74.59375 25.90625 
Q 74.59375 29.203125 72.546875 31.546875 
Q 70.5 33.90625 67.59375 33.90625 
Q 63 33.90625 59.296875 28.703125 
Q 55.59375 23.5 54.046875 18.046875 
Q 52.5 12.59375 52.5 9.40625 
Q 52.5 6.59375 54.203125 4.796875 
Q 55.90625 3 58.59375 3 
z
M 28.203125 66.203125 
Q 31.296875 66.203125 33.1875 64.84375 
Q 35.09375 63.5 37.4375 62.140625 
Q 39.796875 60.796875 43.90625 60.796875 
Q 48.59375 60.796875 52.046875 62.296875 
Q 55.5 63.796875 59.5 67.59375 
L 63.40625 67.59375 
L 24.90625 -1.296875 
L 20.09375 -1.296875 
L 55.203125 61.296875 
Q 50 58.296875 44.203125 58.296875 
Q 40.296875 58.296875 37.703125 59.296875 
Q 38.40625 56.796875 38.40625 54.90625 
Q 38.40625 45.59375 32.453125 37.25 
Q 26.5 28.90625 17.90625 28.90625 
Q 13 28.90625 9.546875 32.65625 
Q 6.09375 36.40625 6.09375 41.59375 
Q 6.09375 51.09375 12.84375 58.640625 
Q 19.59375 66.203125 28.203125 66.203125 
z
M 28.203125 63.203125 
Q 23.40625 63.203125 18.546875 54.453125 
Q 13.703125 45.703125 13.703125 38.40625 
Q 13.703125 35.703125 15.34375 34 
Q 17 32.296875 19.59375 32.296875 
Q 25.703125 32.296875 30.796875 39.4375 
Q 35.90625 46.59375 35.90625 55.09375 
Q 35.90625 57 35 60 
Q 33 60.5 31.640625 61.140625 
Q 30.296875 61.796875 29.84375 62.1875 
Q 29.40625 62.59375 29 62.890625 
Q 28.59375 63.203125 28.203125 63.203125 
z
" id="FreeSerif-37"/>
    </defs>
    <g transform="translate(85.392767 64.107777)scale(0.24 -0.24)">
     <use xlink:href="#FreeSerif-80"/>
     <use x="57.584366" xlink:href="#FreeSerif-114"/>
     <use x="92.068726" xlink:href="#FreeSerif-111"/>
     <use x="141.153091" xlink:href="#FreeSerif-98"/>
     <use x="191.153076" xlink:href="#FreeSerif-97"/>
     <use x="234.637436" xlink:href="#FreeSerif-98"/>
     <use x="284.621796" xlink:href="#FreeSerif-105"/>
     <use x="312.406158" xlink:href="#FreeSerif-108"/>
     <use x="338.206146" xlink:href="#FreeSerif-105"/>
     <use x="365.974884" xlink:href="#FreeSerif-116"/>
     <use x="394.274872" xlink:href="#FreeSerif-121"/>
     <use x="441.374863" xlink:href="#FreeSerif-32"/>
     <use x="466.374847" xlink:href="#FreeSerif-61"/>
     <use x="522.774841" xlink:href="#FreeSerif-32"/>
     <use x="547.774826" xlink:href="#FreeSerif-57"/>
     <use x="597.774811" xlink:href="#FreeSerif-53"/>
     <use x="647.774796" xlink:href="#FreeSerif-46"/>
     <use x="672.77478" xlink:href="#FreeSerif-50"/>
     <use x="722.774765" xlink:href="#FreeSerif-37"/>
    </g>
   </g>
   <g id="text_18">
    <!-- X Z hitting plane -->
    <defs>
     <path d="M 15.796875 34.296875 
L 15.796875 10.203125 
Q 15.796875 5 17 3.5 
Q 18.203125 2 22.59375 1.5 
L 22.59375 0 
L 1 0 
L 1 1.5 
Q 5.296875 2.09375 6.34375 3.5 
Q 7.40625 4.90625 7.40625 10.203125 
L 7.40625 57.296875 
Q 7.40625 60.5 6.546875 61.5 
Q 5.703125 62.5 2.796875 62.5 
Q 2.09375 62.5 1.09375 62.296875 
L 1.09375 63.90625 
Q 8.203125 65.796875 15.296875 68.296875 
L 15.796875 68 
L 15.796875 37.59375 
Q 19.203125 42.09375 22.640625 44.046875 
Q 26.09375 46 30.5 46 
Q 42.796875 46 42.796875 30.09375 
L 42.796875 10.203125 
Q 42.796875 5 43.75 3.640625 
Q 44.703125 2.296875 48.796875 1.5 
L 48.796875 0 
L 27.59375 0 
L 27.59375 1.5 
Q 31.90625 1.90625 33.15625 3.5 
Q 34.40625 5.09375 34.40625 10.203125 
L 34.40625 30 
Q 34.40625 40.59375 26.90625 40.59375 
Q 24 40.59375 21.453125 39.140625 
Q 18.90625 37.703125 15.796875 34.296875 
z
" id="FreeSerif-104"/>
     <path d="M 6 5.40625 
Q 6 7.296875 7.34375 8.890625 
Q 8.703125 10.5 14.90625 16.296875 
Q 9.90625 18.796875 7.75 21.890625 
Q 5.59375 25 5.59375 29.703125 
Q 5.59375 36.5 10.4375 41.25 
Q 15.296875 46 22.296875 46 
Q 26.203125 46 30.640625 44.34375 
Q 35.09375 42.703125 38 42.703125 
L 45.703125 42.703125 
L 45.703125 38.796875 
L 37.40625 38.796875 
Q 39.296875 34.5 39.296875 30.40625 
Q 39.296875 23.5 34.640625 19.203125 
Q 30 14.90625 23.703125 14.90625 
Q 22.5 14.90625 18 15.40625 
Q 16 14.796875 14 12.6875 
Q 12 10.59375 12 9.09375 
Q 12 6.703125 19.796875 6.40625 
L 32.703125 5.796875 
Q 38.203125 5.59375 41.5 2.6875 
Q 44.796875 -0.203125 44.796875 -4.90625 
Q 44.796875 -12.09375 36.546875 -16.9375 
Q 28.296875 -21.796875 18.796875 -21.796875 
Q 11.703125 -21.796875 6.59375 -18.9375 
Q 1.5 -16.09375 1.5 -12.09375 
Q 1.5 -9.296875 3.75 -6.546875 
Q 6 -3.796875 11.296875 0.09375 
Q 8.203125 1.59375 7.09375 2.6875 
Q 6 3.796875 6 5.40625 
z
M 13.40625 -0.203125 
Q 10.296875 -3.90625 9.390625 -5.5 
Q 8.5 -7.09375 8.5 -8.796875 
Q 8.5 -12.09375 12.5 -14.09375 
Q 16.5 -16.09375 23.09375 -16.09375 
Q 31.59375 -16.09375 36.796875 -13.390625 
Q 42 -10.703125 42 -6.40625 
Q 42 -3.703125 39.203125 -2.59375 
Q 36.40625 -1.5 29.59375 -1.5 
Q 19.5 -1.5 13.40625 -0.203125 
z
M 31.59375 26.5 
Q 31.59375 28.203125 31.1875 30.59375 
Q 30.796875 33 29.796875 36.046875 
Q 28.796875 39.09375 26.59375 41.140625 
Q 24.40625 43.203125 21.296875 43.203125 
Q 17.796875 43.203125 15.84375 40.703125 
Q 13.90625 38.203125 13.90625 33.796875 
Q 13.90625 25.203125 17.09375 21.296875 
Q 20.296875 17.40625 24.09375 17.40625 
Q 27.59375 17.40625 29.59375 19.84375 
Q 31.59375 22.296875 31.59375 26.5 
z
" id="FreeSerif-103"/>
     <path d="M 1.40625 39.296875 
L 1.40625 40.90625 
Q 7.703125 42.796875 15.796875 46 
L 16.40625 45.796875 
L 16.40625 38.09375 
Q 22.796875 46 30.796875 46 
Q 38.09375 46 42.796875 40 
Q 47.5 34 47.5 24.703125 
Q 47.5 13.796875 41.453125 6.390625 
Q 35.40625 -1 26.5 -1 
Q 23.296875 -1 21.140625 -0.09375 
Q 19 0.796875 16.40625 3.296875 
L 16.40625 -12.40625 
Q 16.40625 -17.09375 18 -18.4375 
Q 19.59375 -19.796875 25.203125 -19.90625 
L 25.203125 -21.703125 
L 1 -21.703125 
L 1 -20 
Q 5.40625 -19.59375 6.703125 -18.296875 
Q 8 -17 8 -13.09375 
L 8 33.703125 
Q 8 37.203125 7.203125 38.296875 
Q 6.40625 39.40625 3.90625 39.40625 
Q 2.296875 39.40625 1.40625 39.296875 
z
M 16.40625 33.40625 
L 16.40625 8.796875 
Q 16.40625 6.59375 19.84375 4.390625 
Q 23.296875 2.203125 26.796875 2.203125 
Q 32.203125 2.203125 35.546875 7.34375 
Q 38.90625 12.5 38.90625 20.796875 
Q 38.90625 29.5 35.546875 34.75 
Q 32.203125 40 26.59375 40 
Q 23.09375 40 19.75 37.796875 
Q 16.40625 35.59375 16.40625 33.40625 
z
" id="FreeSerif-112"/>
    </defs>
    <g transform="translate(226.83175 36.8017)scale(0.24 -0.24)">
     <use xlink:href="#FreeSerif-88"/>
     <use x="71.399994" xlink:href="#FreeSerif-32"/>
     <use x="96.399979" xlink:href="#FreeSerif-90"/>
     <use x="157.699966" xlink:href="#FreeSerif-32"/>
     <use x="182.699951" xlink:href="#FreeSerif-104"/>
     <use x="232.499939" xlink:href="#FreeSerif-105"/>
     <use x="260.268677" xlink:href="#FreeSerif-116"/>
     <use x="288.568665" xlink:href="#FreeSerif-116"/>
     <use x="316.868652" xlink:href="#FreeSerif-105"/>
     <use x="344.653015" xlink:href="#FreeSerif-110"/>
     <use x="393.553009" xlink:href="#FreeSerif-103"/>
     <use x="440.253006" xlink:href="#FreeSerif-32"/>
     <use x="465.252991" xlink:href="#FreeSerif-112"/>
     <use x="515.23735" xlink:href="#FreeSerif-108"/>
     <use x="541.037338" xlink:href="#FreeSerif-97"/>
     <use x="584.537323" xlink:href="#FreeSerif-110"/>
     <use x="633.421692" xlink:href="#FreeSerif-101"/>
    </g>
   </g>
   <g id="legend_1">
    <g id="patch_8">
     <path d="M 421.240312 80.15795 
L 537.52 80.15795 
Q 539.52 80.15795 539.52 78.15795 
L 539.52 49.8017 
Q 539.52 47.8017 537.52 47.8017 
L 421.240312 47.8017 
Q 419.240312 47.8017 419.240312 49.8017 
L 419.240312 78.15795 
Q 419.240312 80.15795 421.240312 80.15795 
z
" style="fill:#ffffff;opacity:0.8;stroke:#cccccc;stroke-linejoin:miter;"/>
    </g>
    <g id="PathCollection_3">
     <g>
      <use style="fill:#0000ff;stroke:#0000ff;stroke-width:1.5;" x="433.240312" xlink:href="#mcb35028023" y="56.775138"/>
     </g>
    </g>
    <g id="text_19">
     <!-- prediction points -->
     <defs>
      <path d="M 18.109375 8.203125 
L 18.109375 -20.796875 
L 9.078125 -20.796875 
L 9.078125 54.6875 
L 18.109375 54.6875 
L 18.109375 46.390625 
Q 20.953125 51.265625 25.265625 53.625 
Q 29.59375 56 35.59375 56 
Q 45.5625 56 51.78125 48.09375 
Q 58.015625 40.1875 58.015625 27.296875 
Q 58.015625 14.40625 51.78125 6.484375 
Q 45.5625 -1.421875 35.59375 -1.421875 
Q 29.59375 -1.421875 25.265625 0.953125 
Q 20.953125 3.328125 18.109375 8.203125 
z
M 48.6875 27.296875 
Q 48.6875 37.203125 44.609375 42.84375 
Q 40.53125 48.484375 33.40625 48.484375 
Q 26.265625 48.484375 22.1875 42.84375 
Q 18.109375 37.203125 18.109375 27.296875 
Q 18.109375 17.390625 22.1875 11.75 
Q 26.265625 6.109375 33.40625 6.109375 
Q 40.53125 6.109375 44.609375 11.75 
Q 48.6875 17.390625 48.6875 27.296875 
z
" id="DejaVuSans-112"/>
      <path d="M 41.109375 46.296875 
Q 39.59375 47.171875 37.8125 47.578125 
Q 36.03125 48 33.890625 48 
Q 26.265625 48 22.1875 43.046875 
Q 18.109375 38.09375 18.109375 28.8125 
L 18.109375 0 
L 9.078125 0 
L 9.078125 54.6875 
L 18.109375 54.6875 
L 18.109375 46.1875 
Q 20.953125 51.171875 25.484375 53.578125 
Q 30.03125 56 36.53125 56 
Q 37.453125 56 38.578125 55.875 
Q 39.703125 55.765625 41.0625 55.515625 
z
" id="DejaVuSans-114"/>
      <path d="M 56.203125 29.59375 
L 56.203125 25.203125 
L 14.890625 25.203125 
Q 15.484375 15.921875 20.484375 11.0625 
Q 25.484375 6.203125 34.421875 6.203125 
Q 39.59375 6.203125 44.453125 7.46875 
Q 49.3125 8.734375 54.109375 11.28125 
L 54.109375 2.78125 
Q 49.265625 0.734375 44.1875 -0.34375 
Q 39.109375 -1.421875 33.890625 -1.421875 
Q 20.796875 -1.421875 13.15625 6.1875 
Q 5.515625 13.8125 5.515625 26.8125 
Q 5.515625 40.234375 12.765625 48.109375 
Q 20.015625 56 32.328125 56 
Q 43.359375 56 49.78125 48.890625 
Q 56.203125 41.796875 56.203125 29.59375 
z
M 47.21875 32.234375 
Q 47.125 39.59375 43.09375 43.984375 
Q 39.0625 48.390625 32.421875 48.390625 
Q 24.90625 48.390625 20.390625 44.140625 
Q 15.875 39.890625 15.1875 32.171875 
z
" id="DejaVuSans-101"/>
      <path d="M 45.40625 46.390625 
L 45.40625 75.984375 
L 54.390625 75.984375 
L 54.390625 0 
L 45.40625 0 
L 45.40625 8.203125 
Q 42.578125 3.328125 38.25 0.953125 
Q 33.9375 -1.421875 27.875 -1.421875 
Q 17.96875 -1.421875 11.734375 6.484375 
Q 5.515625 14.40625 5.515625 27.296875 
Q 5.515625 40.1875 11.734375 48.09375 
Q 17.96875 56 27.875 56 
Q 33.9375 56 38.25 53.625 
Q 42.578125 51.265625 45.40625 46.390625 
z
M 14.796875 27.296875 
Q 14.796875 17.390625 18.875 11.75 
Q 22.953125 6.109375 30.078125 6.109375 
Q 37.203125 6.109375 41.296875 11.75 
Q 45.40625 17.390625 45.40625 27.296875 
Q 45.40625 37.203125 41.296875 42.84375 
Q 37.203125 48.484375 30.078125 48.484375 
Q 22.953125 48.484375 18.875 42.84375 
Q 14.796875 37.203125 14.796875 27.296875 
z
" id="DejaVuSans-100"/>
      <path d="M 9.421875 54.6875 
L 18.40625 54.6875 
L 18.40625 0 
L 9.421875 0 
z
M 9.421875 75.984375 
L 18.40625 75.984375 
L 18.40625 64.59375 
L 9.421875 64.59375 
z
" id="DejaVuSans-105"/>
      <path d="M 48.78125 52.59375 
L 48.78125 44.1875 
Q 44.96875 46.296875 41.140625 47.34375 
Q 37.3125 48.390625 33.40625 48.390625 
Q 24.65625 48.390625 19.8125 42.84375 
Q 14.984375 37.3125 14.984375 27.296875 
Q 14.984375 17.28125 19.8125 11.734375 
Q 24.65625 6.203125 33.40625 6.203125 
Q 37.3125 6.203125 41.140625 7.25 
Q 44.96875 8.296875 48.78125 10.40625 
L 48.78125 2.09375 
Q 45.015625 0.34375 40.984375 -0.53125 
Q 36.96875 -1.421875 32.421875 -1.421875 
Q 20.0625 -1.421875 12.78125 6.34375 
Q 5.515625 14.109375 5.515625 27.296875 
Q 5.515625 40.671875 12.859375 48.328125 
Q 20.21875 56 33.015625 56 
Q 37.15625 56 41.109375 55.140625 
Q 45.0625 54.296875 48.78125 52.59375 
z
" id="DejaVuSans-99"/>
      <path d="M 18.3125 70.21875 
L 18.3125 54.6875 
L 36.8125 54.6875 
L 36.8125 47.703125 
L 18.3125 47.703125 
L 18.3125 18.015625 
Q 18.3125 11.328125 20.140625 9.421875 
Q 21.96875 7.515625 27.59375 7.515625 
L 36.8125 7.515625 
L 36.8125 0 
L 27.59375 0 
Q 17.1875 0 13.234375 3.875 
Q 9.28125 7.765625 9.28125 18.015625 
L 9.28125 47.703125 
L 2.6875 47.703125 
L 2.6875 54.6875 
L 9.28125 54.6875 
L 9.28125 70.21875 
z
" id="DejaVuSans-116"/>
      <path d="M 30.609375 48.390625 
Q 23.390625 48.390625 19.1875 42.75 
Q 14.984375 37.109375 14.984375 27.296875 
Q 14.984375 17.484375 19.15625 11.84375 
Q 23.34375 6.203125 30.609375 6.203125 
Q 37.796875 6.203125 41.984375 11.859375 
Q 46.1875 17.53125 46.1875 27.296875 
Q 46.1875 37.015625 41.984375 42.703125 
Q 37.796875 48.390625 30.609375 48.390625 
z
M 30.609375 56 
Q 42.328125 56 49.015625 48.375 
Q 55.71875 40.765625 55.71875 27.296875 
Q 55.71875 13.875 49.015625 6.21875 
Q 42.328125 -1.421875 30.609375 -1.421875 
Q 18.84375 -1.421875 12.171875 6.21875 
Q 5.515625 13.875 5.515625 27.296875 
Q 5.515625 40.765625 12.171875 48.375 
Q 18.84375 56 30.609375 56 
z
" id="DejaVuSans-111"/>
      <path d="M 54.890625 33.015625 
L 54.890625 0 
L 45.90625 0 
L 45.90625 32.71875 
Q 45.90625 40.484375 42.875 44.328125 
Q 39.84375 48.1875 33.796875 48.1875 
Q 26.515625 48.1875 22.3125 43.546875 
Q 18.109375 38.921875 18.109375 30.90625 
L 18.109375 0 
L 9.078125 0 
L 9.078125 54.6875 
L 18.109375 54.6875 
L 18.109375 46.1875 
Q 21.34375 51.125 25.703125 53.5625 
Q 30.078125 56 35.796875 56 
Q 45.21875 56 50.046875 50.171875 
Q 54.890625 44.34375 54.890625 33.015625 
z
" id="DejaVuSans-110"/>
      <path id="DejaVuSans-32"/>
      <path d="M 44.28125 53.078125 
L 44.28125 44.578125 
Q 40.484375 46.53125 36.375 47.5 
Q 32.28125 48.484375 27.875 48.484375 
Q 21.1875 48.484375 17.84375 46.4375 
Q 14.5 44.390625 14.5 40.28125 
Q 14.5 37.15625 16.890625 35.375 
Q 19.28125 33.59375 26.515625 31.984375 
L 29.59375 31.296875 
Q 39.15625 29.25 43.1875 25.515625 
Q 47.21875 21.78125 47.21875 15.09375 
Q 47.21875 7.46875 41.1875 3.015625 
Q 35.15625 -1.421875 24.609375 -1.421875 
Q 20.21875 -1.421875 15.453125 -0.5625 
Q 10.6875 0.296875 5.421875 2 
L 5.421875 11.28125 
Q 10.40625 8.6875 15.234375 7.390625 
Q 20.0625 6.109375 24.8125 6.109375 
Q 31.15625 6.109375 34.5625 8.28125 
Q 37.984375 10.453125 37.984375 14.40625 
Q 37.984375 18.0625 35.515625 20.015625 
Q 33.0625 21.96875 24.703125 23.78125 
L 21.578125 24.515625 
Q 13.234375 26.265625 9.515625 29.90625 
Q 5.8125 33.546875 5.8125 39.890625 
Q 5.8125 47.609375 11.28125 51.796875 
Q 16.75 56 26.8125 56 
Q 31.78125 56 36.171875 55.265625 
Q 40.578125 54.546875 44.28125 53.078125 
z
" id="DejaVuSans-115"/>
     </defs>
     <g transform="translate(451.240312 59.400138)scale(0.1 -0.1)">
      <use xlink:href="#DejaVuSans-112"/>
      <use x="63.476562" xlink:href="#DejaVuSans-114"/>
      <use x="104.558594" xlink:href="#DejaVuSans-101"/>
      <use x="166.082031" xlink:href="#DejaVuSans-100"/>
      <use x="229.558594" xlink:href="#DejaVuSans-105"/>
      <use x="257.341797" xlink:href="#DejaVuSans-99"/>
      <use x="312.322266" xlink:href="#DejaVuSans-116"/>
      <use x="351.53125" xlink:href="#DejaVuSans-105"/>
      <use x="379.314453" xlink:href="#DejaVuSans-111"/>
      <use x="440.496094" xlink:href="#DejaVuSans-110"/>
      <use x="503.875" xlink:href="#DejaVuSans-32"/>
      <use x="535.662109" xlink:href="#DejaVuSans-112"/>
      <use x="599.138672" xlink:href="#DejaVuSans-111"/>
      <use x="660.320312" xlink:href="#DejaVuSans-105"/>
      <use x="688.103516" xlink:href="#DejaVuSans-110"/>
      <use x="751.482422" xlink:href="#DejaVuSans-116"/>
      <use x="790.691406" xlink:href="#DejaVuSans-115"/>
     </g>
    </g>
    <g id="PathCollection_4">
     <g>
      <use style="fill:#ff0000;stroke:#ff0000;" x="433.240312" xlink:href="#me7acf8204d" y="71.453263"/>
     </g>
    </g>
    <g id="text_20">
     <!-- target point -->
     <defs>
      <path d="M 34.28125 27.484375 
Q 23.390625 27.484375 19.1875 25 
Q 14.984375 22.515625 14.984375 16.5 
Q 14.984375 11.71875 18.140625 8.90625 
Q 21.296875 6.109375 26.703125 6.109375 
Q 34.1875 6.109375 38.703125 11.40625 
Q 43.21875 16.703125 43.21875 25.484375 
L 43.21875 27.484375 
z
M 52.203125 31.203125 
L 52.203125 0 
L 43.21875 0 
L 43.21875 8.296875 
Q 40.140625 3.328125 35.546875 0.953125 
Q 30.953125 -1.421875 24.3125 -1.421875 
Q 15.921875 -1.421875 10.953125 3.296875 
Q 6 8.015625 6 15.921875 
Q 6 25.140625 12.171875 29.828125 
Q 18.359375 34.515625 30.609375 34.515625 
L 43.21875 34.515625 
L 43.21875 35.40625 
Q 43.21875 41.609375 39.140625 45 
Q 35.0625 48.390625 27.6875 48.390625 
Q 23 48.390625 18.546875 47.265625 
Q 14.109375 46.140625 10.015625 43.890625 
L 10.015625 52.203125 
Q 14.9375 54.109375 19.578125 55.046875 
Q 24.21875 56 28.609375 56 
Q 40.484375 56 46.34375 49.84375 
Q 52.203125 43.703125 52.203125 31.203125 
z
" id="DejaVuSans-97"/>
      <path d="M 45.40625 27.984375 
Q 45.40625 37.75 41.375 43.109375 
Q 37.359375 48.484375 30.078125 48.484375 
Q 22.859375 48.484375 18.828125 43.109375 
Q 14.796875 37.75 14.796875 27.984375 
Q 14.796875 18.265625 18.828125 12.890625 
Q 22.859375 7.515625 30.078125 7.515625 
Q 37.359375 7.515625 41.375 12.890625 
Q 45.40625 18.265625 45.40625 27.984375 
z
M 54.390625 6.78125 
Q 54.390625 -7.171875 48.1875 -13.984375 
Q 42 -20.796875 29.203125 -20.796875 
Q 24.46875 -20.796875 20.265625 -20.09375 
Q 16.0625 -19.390625 12.109375 -17.921875 
L 12.109375 -9.1875 
Q 16.0625 -11.328125 19.921875 -12.34375 
Q 23.78125 -13.375 27.78125 -13.375 
Q 36.625 -13.375 41.015625 -8.765625 
Q 45.40625 -4.15625 45.40625 5.171875 
L 45.40625 9.625 
Q 42.625 4.78125 38.28125 2.390625 
Q 33.9375 0 27.875 0 
Q 17.828125 0 11.671875 7.65625 
Q 5.515625 15.328125 5.515625 27.984375 
Q 5.515625 40.671875 11.671875 48.328125 
Q 17.828125 56 27.875 56 
Q 33.9375 56 38.28125 53.609375 
Q 42.625 51.21875 45.40625 46.390625 
L 45.40625 54.6875 
L 54.390625 54.6875 
z
" id="DejaVuSans-103"/>
     </defs>
     <g transform="translate(451.240312 74.078263)scale(0.1 -0.1)">
      <use xlink:href="#DejaVuSans-116"/>
      <use x="39.208984" xlink:href="#DejaVuSans-97"/>
      <use x="100.488281" xlink:href="#DejaVuSans-114"/>
      <use x="141.585938" xlink:href="#DejaVuSans-103"/>
      <use x="205.0625" xlink:href="#DejaVuSans-101"/>
      <use x="266.585938" xlink:href="#DejaVuSans-116"/>
      <use x="305.794922" xlink:href="#DejaVuSans-32"/>
      <use x="337.582031" xlink:href="#DejaVuSans-112"/>
      <use x="401.058594" xlink:href="#DejaVuSans-111"/>
      <use x="462.240234" xlink:href="#DejaVuSans-105"/>
      <use x="490.023438" xlink:href="#DejaVuSans-110"/>
      <use x="553.402344" xlink:href="#DejaVuSans-116"/>
     </g>
    </g>
   </g>
  </g>
 </g>
 <defs>
  <clipPath id="pdad1eefc55">
   <rect height="469.9823" width="472.69775" x="71.82225" y="42.8017"/>
  </clipPath>
 </defs>
</svg>
